<?xml version="1.0" encoding="utf-8"?>
<!-- Generator: Adobe Illustrator 19.1.0, SVG Export Plug-In . SVG Version: 6.00 Build 0)  -->
<svg version="1.1" id="Layer_1" xmlns="http://www.w3.org/2000/svg" xmlns:xlink="http://www.w3.org/1999/xlink" x="0px" y="0px"
	 viewBox="0 0 12 12" style="enable-background:new 0 0 12 12;" xml:space="preserve">
<style type="text/css">
	.st0{fill:#96bdd9;}
	.st1{fill:#96bdd9;}
</style>
<path class="st0" d="M9.8,4.1H8.4V2.2H1.7c-0.5,0-1,0.4-1,1v5.3h1c0,0.8,0.6,1.4,1.4,1.4s1.4-0.6,1.4-1.4h2.9c0,0.8,0.6,1.4,1.4,1.4
	s1.4-0.6,1.4-1.4h1V6L9.8,4.1z M3.1,9.1c-0.4,0-0.7-0.3-0.7-0.7c0-0.4,0.3-0.7,0.7-0.7S3.8,8,3.8,8.4C3.8,8.8,3.5,9.1,3.1,9.1z
	 M9.6,4.8L10.5,6H8.4V4.8H9.6z M8.9,9.1c-0.4,0-0.7-0.3-0.7-0.7c0-0.4,0.3-0.7,0.7-0.7S9.6,8,9.6,8.4C9.6,8.8,9.3,9.1,8.9,9.1z"/>
</svg>
