<?xml version="1.0" standalone="no"?>
<!DOCTYPE svg PUBLIC "-//W3C//DTD SVG 1.1//EN" "http://www.w3.org/Graphics/SVG/1.1/DTD/svg11.dtd">
<svg xmlns="http://www.w3.org/2000/svg">
<defs>
<font id="shareaholic" horiz-adv-x="512">
<font-face font-family="shareaholic" units-per-em="512" ascent="480" descent="-32"/>
<missing-glyph horiz-adv-x="512" />

<glyph glyph-name="about_me" unicode="&#61440;" d="M230 158c0 0 0 97 0 122 0 20-9 32-28 32-18 0-29-12-37-21 0-46 0-133 0-133l-50 0c0 0 0 97 0 122 0 20-9 32-28 32-18 0-30-12-37-21l0-133-50 0 0 194 50 0 0-25c9 10 28 27 58 27 27 0 45-11 53-34 11 17 32 34 62 34 36 0 57-21 57-63 0-46 0-133 0-133l-50 0z m139 82c5-25 25-42 54-42 15 0 37 6 50 19l25-29c-22-24-56-30-79-30-57 0-101 40-101 98 0 54 41 98 98 98 55 0 96-42 96-98l0-16z m48 77c-30 0-46-22-49-45l98 0c-3 22-18 45-49 45z"/>
<glyph glyph-name="aim" unicode="&#61441;" d="M240 455c136-7 278-101 272-226-5-91-98-171-245-172-63 0-101 10-128 21-2 1-3 1-3 2 1 1 2 1 4 1 65-16 88 10 77 30-12 22-94 20-153 61l1 1c0 0 4 10 5 12 1 2 2 3 4 3l71 0c2 1 3-1 5-3 1-4 7-18 7-18 0 0 5-13 17-13 3 0 13 1 16 12 1 3 1 5 1 7 0 2-1 2-1 3 0 1-1 1-1 2-1 2-73 163-73 164-1 3-3 5-6 5-2 1-3 0-4-1-1-1-1-1-1-2-1-1-1-2-2-2-1-2-42-96-63-141l-2-6c-7 8-11 13-11 13-13 18-25 47-27 72-6 101 93 182 240 175z m5-282l0 155c0 13-7 18-19 18-11 0-18-5-18-18l0-155c0-12 7-17 18-17 12 0 19 5 19 17z m217 0l0 155c0 13-6 18-18 18-6 0-11-2-14-5-2-2-3-4-5-7l-54-120-53 120c-1 3-3 5-5 7-3 3-8 5-14 5-12 0-18-5-18-18l0-155c0-12 7-17 19-17 11 0 18 5 18 17l0 73 36-74c3-6 9-12 17-12 8 0 15 6 18 12l36 74 0-73c0-12 7-17 19-17 11 0 18 5 18 17z m-331 47l-43 0c-2 0-2 3-2 4l21 49 0 0c0 0 1 1 1 1 0 0 1 1 2 1 1 0 1-1 1-1l1-1 0 0 21-49c0-2 0-4-2-4z"/>
<glyph glyph-name="all" unicode="&#61442;" d="M132 312c0 0 0 0 0 0 0-1 0-2-1-3-3-10-14-19-28-19l-103 0 0 55 80 0c27 66 96 112 177 112 39 0 75-10 105-29 9-4 15-13 15-23 0-16-14-28-31-28-6 0-12 1-17 4l0 0c-20 13-45 20-72 20-60 0-111-38-125-89z m278-90l0 0c-15 0-26-9-29-19-1-1-1-2-1-2 0-1 0-1 0-1l0 0c-14-51-64-89-125-89-26 0-50 7-70 19-5 3-11 5-18 5-16 0-30-13-30-28 0-10 5-18 14-23l-1 0c30-19 66-29 105-29 81 0 150 46 177 112l80 0 0 55z m-153 101c-41 0-74-32-74-71 0-40 33-72 74-72 40 0 73 32 73 72 0 39-33 71-73 71z"/>
<glyph glyph-name="amazon" unicode="&#61443;" d="M303 369c-13-1-27-2-41-4-22-3-44-7-62-15-35-14-59-45-59-90 0-56 36-85 82-85 15 0 27 2 39 5 18 6 33 16 51 35 11-14 14-21 32-36 5-2 9-2 13 1 12 9 32 27 42 36 5 4 4 10 1 15-11 13-21 24-21 50l0 86c0 36 3 70-24 95-22 20-56 27-83 27-4 0-7 0-11 0-49-3-100-24-112-84-2-7 4-10 8-11l53-7c6 1 9 6 10 11 5 21 22 31 41 33 1 0 2 0 4 0 11 0 23-5 30-14 8-12 7-27 7-40l0-8z m0-55c0-22 1-40-11-59-6-13-18-22-30-24-2 0-5-1-8-1-21 0-33 16-33 40 0 30 18 45 41 51 12 3 27 4 41 4z m175-268c24 19 33 55 34 74l0 3c0 4-1 7-2 9-5 5-39 11-68 2-9-3-16-6-23-11-5-4-4-8 1-8 6 1 13 2 22 3 18 1 39 2 44-5 7-9-8-47-15-64-2-5 3-7 7-3z m-475 74c66-61 154-97 253-97 61 0 131 17 186 50 7 4 14 8 21 14 9 6 1 17-8 13-5-2-9-4-13-6-60-23-123-34-181-34-92 0-181 26-253 68-6 3-11-4-5-8z"/>
<glyph glyph-name="aol_mail" unicode="&#61444;" d="M482 217c-16 0-30-14-30-30 0-17 14-31 30-31 17 0 30 14 30 31 0 16-13 30-30 30z m-203 97c-54 0-80-44-80-80 0-37 26-80 80-80 54 0 80 43 80 80 0 36-26 80-80 80z m0-118c-19 0-36 16-36 38 0 21 17 37 36 37 19 0 35-16 35-37 0-22-16-38-35-38z m-201 162l-78-201 53 0 10 29 69 0 10-29 54 0-78 201z m-1-131l21 70 21-70z m307-70l45 0 0 201-45 0z"/>
<glyph glyph-name="arto" unicode="&#61445;" d="M333 0c-43 0-67 30-77 47-12 20-25 22-37 22-9 0-19-2-30-4-10-2-21-4-32-5l-1 0-1 0c-54 10-89 31-103 63-20 47 12 98 13 100l219 252c33 25 62 37 86 37 51 0 67-55 69-84 0-1-1-43-2-92-1-43 13-56 13-56 9-5 14-13 16-23 3-20-13-39-15-41l-2-3-4-1c-7-4-11-33-12-88 0-9 0-16-1-20-1-53-19-74-33-84-24-14-46-20-66-20z m-114 88c24 0 40-10 53-31 9-14 27-38 61-38 17 0 35 6 56 17 9 7 23 23 24 69 1 5 1 11 1 20 1 53 4 98 25 105 3 6 9 16 8 24 0 3-2 7-8 11-3 2-22 18-21 71 1 50 2 92 2 92 0 2-5 65-50 65-20 0-44-11-74-32l-215-249c0 0-27-44-11-81 11-26 41-43 87-52 9 1 19 3 28 5 11 2 23 4 34 4z m170 159c-17-1-31-1-31-1l0 143c0 0-5 38-42 12l-195-229c0 0-13-19 0-23 0 0 13-10 24-5 9 8 51 64 157 76-1-55 1-133 1-133 0 0 30-31 58 0 0 32-1 133-1 145 2 0 10 2 30 5 0 0 16 5-1 10z m-82-1c0 0-45-4-62-4-18-1-5 8-5 8l67 74z"/>
<glyph glyph-name="baidu" unicode="&#61446;" d="M22 325c0 0 7 65 52 69 35 3 62-36 65-59 1-14 9-81-47-93-55-12-76 53-70 83z m174 29c30 0 55 35 55 79 0 44-25 79-55 79-31 0-56-35-56-79 0-44 25-79 56-79z m-45-228c-1-4-5-16-2-27 6-23 27-24 27-24l29 0 0 71-31 0c-14-4-21-15-23-20z m177 223c41-6 67 38 73 71 5 33-22 72-51 79-29 6-65-40-68-71-4-37 5-74 46-79z m118-305c-31-72-142-34-142-34 0 0-41 13-89 2-47-10-88-6-88-6 0 0-56-2-72 69-16 70 56 109 61 115 5 7 42 32 66 72 24 40 96 72 146-6 37-54 101-103 101-103 0 0 47-37 17-109z m-208 177l-33 1 0-48-38 0c0 0-39-3-52-46-5-30 4-47 6-50 1-4 14-25 45-32l72 0z m135-51l-36 0 0-92-34 0c0 0-11 1-13 10l0 83-34-1 0-92c0 0 1-23 34-31l83 0 0 123z m118 123c0 16-13 64-62 64-50 0-56-46-56-78 0-30 3-73 64-71 60 1 54 69 54 85z"/>
<glyph glyph-name="bbb" unicode="&#61447;" d="M198 301l-35-48c-17-24-12-66 12-84l64-46c11-8 12-16 7-24l9-7 33 45c20 28 18 66-12 87l-65 48c-7 5-8 13-4 22z m55 211l-54-75c-25-35-16-95 19-120l89-65c18-13 20-47 7-64l7-6 62 86c27 39 26 96-18 127l-95 69c-13 10-20 27-8 42z m-142-469l72 0 12-43c39 0 78 0 117 0l13 43 72 0-10 32c-89 0-178 0-267 0z"/>
<glyph glyph-name="behance" unicode="&#61448;" d="M207 273c0 0 48 4 48 61 0 56-40 84-90 84l-165 0 0-317 165 0c0 0 101-4 101 93 0 0 4 79-59 79z m-134 89l92 0c0 0 23 0 23-33 0-33-14-38-28-38l-87 0z m88-205c-3 0-5 0-6 0l-82 0 0 85 92 0c0 0 34 0 34-44 0-37-25-41-38-41z m240 180c-122 0-122-122-122-122 0 0-9-121 122-121 0 0 108-6 108 84l-56 0c0 0 2-34-51-34 0 0-55-3-55 56l164 0c0 0 18 137-110 137z m-55-95c0 0 7 49 56 49 49 0 48-49 48-49z m117 118l-131 0 0 39 131 0z"/>
<glyph glyph-name="bit_ly" unicode="&#61449;" d="M389 92c18 15 28 30 37 45 53 87 40 191-33 261-66 64-180 70-256 14-66-50-98-116-84-200 9-45 32-84 64-117 6-6 12-11 16-18 5-7 6-15 0-22-6-7-14-10-23-7-14 5-23 15-32 24-138 137-78 351 76 419 150 66 329-32 354-194 21-136-68-269-198-293-40-8-79-5-112 23-30 25-31 59-29 93 4 59-1 118-1 177 0 12-5 14-15 7-7-5-15-8-23-2-8 7-6 15-3 24 9 23 32 37 58 35 27-2 41-17 47-45 4-27 0-54-1-81 0-8 1-11 10-6 36 22 74 25 110 3 38-24 46-64 43-106-1-10-3-20-5-34z m-56 40c-1 6 0 13-2 19-3 21-17 34-37 33-15-1-29-6-40-16-24-25-29-55-22-88 1-5 5-9 9-12 20-17 63-11 78 11 10 16 14 34 14 53z"/>
<glyph glyph-name="blogger_post" unicode="&#61456;" d="M349 0c89 0 162 73 162 161l1 131-1 7-5 9-7 6c-9 7-57-1-70 11-9 8-11 23-13 44-5 39-9 41-15 55-22 47-83 83-125 88l-114 0c-89 0-162-73-162-162l0-189c0-88 73-161 162-161z m-185 380l90 0c17 0 31-14 31-31 0-17-14-31-31-31l-90 0c-17 0-31 14-31 31 0 17 14 31 31 31z m-31-216c0 17 14 31 31 31l183 0c17 0 31-14 31-31 0-17-14-31-31-31l-183 0c-17 0-31 14-31 31z"/>
<glyph glyph-name="bloglovin" unicode="&#61457;" d="M256 512c-141 0-256-115-256-256 0-141 115-256 256-256 141 0 256 115 256 256 0 141-115 256-256 256z m176-277c0-7-2-19-11-19l-125 0 0-125c0-9-9-11-16-11l-45 0c-7 0-19 2-19 11l0 125-125 0c-9 0-11 12-11 19l0 45c0 7 2 16 11 16l125 0 0 125c0 9 12 11 19 11l45 0c7 0 16-2 16-11l0-125 125 0c9 0 11-9 11-16z"/>
<glyph glyph-name="box_net" unicode="&#61458;" d="M275 314c-38 0-71-22-87-53-17 31-50 53-88 53-22 0-43-8-60-20l0 84c0 11-9 19-20 19-11 0-20-8-20-19l0-165c1-54 45-98 99-98 39 0 72 22 88 53 17-31 50-53 88-53 55 0 99 44 99 100 0 54-44 99-99 99z m-176-159c-32 0-59 27-59 60 0 33 27 59 59 59 33 0 60-26 60-59 0-33-27-60-60-60z m176 0c-33 0-60 27-60 60 0 33 27 59 60 59 33 0 60-26 60-59-1-33-27-60-60-60z m233-9c6-8 4-21-4-27-9-6-21-5-28 4l-44 58-44-58c-7-9-18-11-28-4-8 6-10 19-4 27l52 69-52 68c-6 8-4 21 4 27 9 6 21 5 28-3l44-59 44 58c7 9 19 10 28 4 9-7 10-19 4-28l-51-68z"/>
<glyph glyph-name="buffer" unicode="&#61459;" d="M12 384l228-101c9-3 21-2 29 0l232 101c14 5 14 23 0 29l-232 97c-8 3-22 3-29 0l-228-97c-15-7-15-20 0-29z m489-111l-51 21-181-78c-10-4-19-4-29 0l-178 78-50-21c-15-7-15-21 0-28l228-101c9-3 19-4 29 0l232 101c14 7 14 20 0 28z m0-141l-51 21-181-79c-10-4-19-3-29 0l-178 79-50-21c-15-7-15-21 0-29l228-101c9-3 19-3 29 0l232 101c14 8 14 20 0 29z"/>
<glyph glyph-name="buzzster" unicode="&#61460;" d="M80 449l127 0c37 0 66-7 85-21 19-15 29-35 29-62 0-50-26-82-77-98l0-2c15-5 27-14 36-26 9-13 14-28 14-46 0-40-13-70-40-92-26-22-64-33-112-33l-142 0z m56-221l-18-79 22 0c15 0 27 4 37 12 10 9 15 19 15 32 0 12-3 21-9 26-5 6-15 9-30 9z m15 75l19 0c15 0 26 4 34 10 8 7 12 17 12 32 0 18-11 26-33 26l-17 0z m181-201c0 19 5 34 16 45 12 10 27 16 47 16 15 0 26-4 35-11 8-7 12-16 12-29 0-19-6-34-17-44-11-11-26-16-45-16-15 0-27 3-36 10-8 7-12 16-12 29z m114 101l-85 0 40 246 111 0z"/>
<glyph glyph-name="default" unicode="&#61461;" d="M512 256l-218 159 0-87c0 0-294-29-294-231 0 0 35 83 167 98 22 3 74 8 127 8l0-85z"/>
<glyph glyph-name="delicious" unicode="&#61462;" d="M256 512l-256 0 0-512 512 0 0 512z m0-256l0-216-216 0 0 216 216 0 0 210 210 0 0-210z"/>
<glyph glyph-name="digg" unicode="&#61463;" d="M152 400c0-6 0-31 0-31l45 0c0 0 6 0 6 6 0 6 0 32 0 32l-45 0c0 0-6 0-6-7z m0-65c0-6 0-169 0-169l45 0c0 0 6-1 6 6 0 1 0 170 0 170l-45 0c0 0-6 0-6-7z m-66 65l0-58-80 0c0 0-6 0-6-7l0-169 131 0c0 0 6-1 6 6 0 6 0 235 0 235l-45 0c0 0-6 0-6-7z m0-190c0-7-6-7-6-7l-30 0 0 95c0 6 6 6 6 6l30 0z m135 125l0-169 86 0 0-23-81 0c0 0-5 0-5-6 0-6 0-32 0-32l131 0c0 0 6 0 6 7 0 6 0 230 0 230l-132 0c0 0-5 0-5-7z m49-37c0 6 6 6 6 6l31 0 0-94c0-7-6-7-6-7l-31 0z m111 44c0 0-6 0-6-7l0-169 86 0 0-23-80 0c0 0-6 0-6-6 0-6 0-32 0-32l131 0c0 0 6 0 6 7 0 6 0 230 0 230z m80-132c0-7-6-7-6-7l-30 0 0 95c0 6 6 6 6 6l30 0z"/>
<glyph glyph-name="diigo" unicode="&#61464;" d="M256 316c64 1 99 35 132 67l0-383-65 0c0 15 0 31-1 47l0 107c1 40 1 81 2 120-10-2-20-7-31-10-35-9-80-4-106 11 0-19 0-38 0-57l0-200c0-6 0-12 0-18l-65 0 0 384c33-35 70-69 134-68z m101 112c23 0 41 18 41 42 0 23-18 42-41 42-23 0-41-19-41-42 0-24 18-42 41-42z m-202 0c23 0 41 18 41 42 0 23-18 42-41 42-23 0-41-19-41-42 0-24 18-42 41-42z"/>
<glyph glyph-name="disqus" unicode="&#61465;" d="M265 7c-61 0-116 23-159 59l-106-14 41 101c-14 31-22 66-22 103 0 137 110 249 246 249 137 0 247-112 247-249 0-137-110-249-247-249z m135 250l0 0c0 72-51 123-138 123l-94 0 0-248 93 0c88 0 139 53 139 125z m-137-64l-27 0 0 126 27 0c41 0 68-23 68-63l0 0c0-41-27-63-68-63z"/>
<glyph glyph-name="dribbble" unicode="&#61472;" d="M256 512c-141 0-256-115-256-256 0-141 115-256 256-256 141 0 256 115 256 256 0 141-115 256-256 256z m157-133c25-31 40-71 42-114-28 7-56 10-81 10l0 0 0 0c-21 0-40-2-58-6-5 11-9 22-14 32 41 17 79 42 111 78z m-157 77c47 0 90-17 125-44-27-32-61-54-99-70-26 50-51 87-68 109 13 3 27 5 42 5z m-88-21c14-16 41-52 71-109-60-18-121-22-158-22-1 0-2 0-3 0l0 0c-6 0-11 0-16 0 15 58 54 105 106 131z m-112-179c0 1 0 2 0 3 6 0 13-1 22-1l0 0c40 1 110 4 182 27 3-9 7-18 11-27-47-16-85-41-112-66-27-24-45-48-56-64-29 34-47 79-47 128z m200-200c-44 0-85 15-119 40 7 11 23 34 47 57 24 23 59 48 103 62 16-42 29-91 40-146-22-8-46-13-71-13z m113 36c-10 49-23 94-37 134 13 2 27 3 41 3l1 0c24 0 50-3 78-10-10-52-40-98-83-127z"/>
<glyph glyph-name="ebay" unicode="&#61473;" d="M274 284c-5 4-12 6-22 6-14 0-23-4-32-15l0 0 0 68-40 0 0-56c1-1 2-1 2-1 15-6 24-14 28-25 5-10 6-21 5-34l0 0c-1-2-3-4-5-4l-30 0 0-4 29 0 0 0 0 0c3 0 4-2 4-4 0-8-3-14-8-20-5-5-12-10-21-13-1-1-1-2-3-2l-1 0 0-22 38 0 0 14 0 0c8-12 18-17 34-17 30 0 37 24 39 46l-1 1 0 0 0 0c-13 2-22 10-27 21-1 2-2 4-2 7-2 5-2 11-2 17l0 0 0 0c0 9 1 16 4 23 3 6 6 10 11 14z m-22-60c0-33-2-46-16-46-14 0-16 13-16 46 0 26 0 44 16 44 17 0 16-18 16-44z m-43-9l-73 0c0-10-6-21-31-21-32 0-32 20-32 34l137 0c2 23-2 43-30 54-6 2-13 4-21 6-14 2-32 4-54 4-95 0-105-27-105-58 0-36 12-61 105-61 21 0 40 3 54 5 8 2 15 4 21 7 1 0 1 0 2 0 17 8 26 17 27 30z m-104 57c34 0 33-15 33-26l-65 0c0 9-1 26 32 26z m173 9c-10-6-15-17-15-34 0-20 8-37 28-41 3-1 6-1 10-1 17 0 28 7 36 20l1 0 2-17 37 0c-1 8-2 16-2 24l0 25-4 7-39 73-2 3c-4 0-8 0-12 0-15 0-28-2-37-8-10-6-15-16-15-32l39 0c0 10 1 20 15 20 15 0 16-8 16-19l0-10c-22 0-44 0-58-10z m39-53c-13 0-15 11-15 20 0 23 15 22 34 23 0-14 4-43-19-43z m143 129l52 0-69-120 0-64-52 0 0 64-16 29-39 73-10 18 57 0 37-78z"/>
<glyph glyph-name="email_this" unicode="&#61474;" d="M345 283l158 123c4 3 9 1 9-4l0-290c0-6-6-8-10-4z m-95-31l226 179c5 3 2 10-3 10l-434 0c-6 0-8-7-4-10z m-250 149l0-288c0-5 7-8 10-4l149 174-150 123c-3 3-9 0-9-5z m318-139l-58-46-10-7-8 6-57 47-155-181c-3-4 0-10 5-10 65 0 375 0 441 0 5 0 8 6 5 10z"/>
<glyph glyph-name="etsy" unicode="&#61475;" d="M55 491c0 7 3 13 12 13 10 0 107-3 172-3 135 0 167 11 190 11 13 0 16-10 16-16 0-6-6-18-6-34 0-16 3-33 3-47 0-14-12-19-18-19-7 0-11 3-11 15-1 23 16 55-148 55-83 0-85-9-85-36 0-26 0-114 0-127 0-14 4-18 15-18 11 0 97 0 120 0 23 0 47 13 49 45 1 18 6 18 15 18 8 0 16-7 15-23-2-16-5-33-5-57 0-23 5-46 5-63 0-17-23-22-27-3-5 18-11 49-64 49-52 0-94 0-106 0-12 0-17-6-17-25 0-19 0-113 0-136 0-23 7-49 55-49 47 0 134-5 173 26 17 14 22 34 28 65 3 15 35 14 33-19-1-16-16-49-16-71 0-18 4-42-12-42-14 0-9 7-71 7-62 0-276-1-311-1-14 0-16 4-16 12 0 8 4 14 16 14 11 0 59-1 59 60 0 60 0 281 0 314 0 33-8 65-48 69-15 2-14 8-15 16z"/>
<glyph glyph-name="evernote" unicode="&#61476;" d="M86 418c-8 0-15-1-22-3l73 73c-2-4-2-9-2-15l0 0c0-6 0-19 0-31 0-6 0-11 0-16 0-2 0-3 0-4l0-2 0 0-1-2z m368 6c5-28 11-125 11-186 0-14 0-26-1-35-6-73-17-117-22-131-11-36-22-54-35-63-14-8-32-9-60-9-35 0-58 3-71 12-7 5-11 11-14 19-3 9-4 20-4 34 0 28 5 43 15 51 10 8 25 10 45 10 5 0 10 0 16 0-1-1-1-3-2-5-1-3-2-7-2-12 0-4 1-7 1-9 1-2 1-4 1-5l0 0c-3 0-5 0-8 0-7 0-14 0-19-3-6-2-11-9-10-18 0-6 0-11 2-15 2-6 7-9 14-11 6-1 14-1 24-1l5 0c19 0 31 1 39 7 4 4 6 8 8 14 1 6 1 13 1 22 0 29-4 46-11 57-7 11-18 14-29 16-25 2-49 6-60 10-12 4-18 14-21 24-4 10-4 22-4 29 0 2 0 4 0 6l-1 3-3 1-3-1c-1-1-2-2-2-3 0-16-1-38-9-62-2-7-4-11-4-12-2-4-5-7-7-9-3-2-6-2-11-2-7 0-16 2-28 4-24 3-77 14-99 24-10 5-13 8-18 19-6 13-13 44-19 73-5 28-9 55-10 62-1 8-2 15-2 19 0 5 0 7 0 7l0 0c0 11 1 21 6 28 3 4 7 8 12 10 6 3 13 4 23 4l48 0c12 0 22 10 22 23 0 0 0 10-1 22 0 12 0 26 0 31 0 10 3 16 6 21 5 7 15 13 23 15 5 1 17 3 31 3 18 0 38-2 54-9 10-3 19-16 21-29l0-3 3 0c6 0 13 1 21 1 15 0 33-1 48-3 30-3 54-8 65-12 10-4 21-13 25-33z m-82-98l-46 0 0-47 46 0z"/>
<glyph glyph-name="facebook" unicode="&#61477;" d="M480 512l-448 0c-18 0-32-14-32-32l0-448c0-18 14-32 32-32l240 0 0 192-64 0 0 80 64 0 0 48c0 66 37 112 96 112 28 0 48 0 64 0l0-80-32 0c-32 0-48-16-48-48l0-32 80 0-16-80-64 0 0-192 128 0c18 0 32 14 32 32l0 448c0 18-14 32-32 32z"/>
<glyph glyph-name="facebook_like" unicode="&#61478;" d="M200 15c-1 0-32 0-56 20-2 2-3 3-5 4l-17 8 0 202 24 22 67 122c1 3 3 6 4 10 0 3 1 7 0 10l-6 83 5 4c9 8 21 12 34 12 43 0 77-58 77-107 0-7-1-13-2-20l-7-50 120 0c15 0 30-6 41-17 11-11 17-25 17-39 0-13-5-25-12-34 10-11 17-25 17-40 0-20-11-38-27-48 3-7 4-14 4-22 0-23-13-42-33-51 1-4 1-9 1-13 0-30-23-54-53-56l0 0z m-121-15l-44 0c-13 0-24 10-24 23l0 242c0 13 11 23 24 23l44 0c13 0 23-10 23-23l0-242c0-13-10-23-23-23z"/>
<glyph glyph-name="fancy" unicode="&#61479;" d="M375 130l-76-2 0-93c0-21-23-35-43-35-20 0-43 14-43 35l0 93-76 2c-17 0-30 14-30 30l0 203c0 82 67 149 149 149 82 0 149-67 149-149l0-203c0-16-13-30-30-30z"/>
<glyph glyph-name="fark" unicode="&#61480;" d="M466 398l0 114-420 0 0-512 136 0 0 171 256 0 0 113-256 0 0 114z"/>
<glyph glyph-name="favorite" unicode="&#61481;" d="M64 224l192-188 192 188c0 0 64 59 64 127 0 96-62 128-127 128-66 0-129-78-129-78 0 0-63 78-129 78-65 0-127-32-127-128 0-68 64-127 64-127z"/>
<glyph glyph-name="feedly" unicode="&#61488;" d="M263 101l-16 0c-6 0-13 3-17 7l-33 33c-4 4-4 10 0 14l152 153c4 3 10 3 14 0l52-52c3-4 3-10 0-14l-134-134c-4-4-12-7-18-7z m152-60l-34-34c-3-4-11-7-17-7l-16 0c-6 0-13 3-17 7l-33 33c-4 4-4 10 0 14l51 52c4 4 11 4 15 0l51-51c4-4 4-10 0-14z m1 403l-236-236c-4-4-11-7-17-7l-16 0c-6 0-14 3-17 7l-34 33c-3 4-3 11 0 14l254 254c4 4 10 4 14 0l52-51c4-4 3-11 0-14z"/>
<glyph glyph-name="five_hundred_px" unicode="&#61489;" d="M431 311c-57 0-91-54-93-54-2 0-36 54-93 54-57 0-74-54-75-54-2 0-15 44-65 44-40 0-46-19-49-19 0 0 3 20 9 55l99 0 0 38-134 0-22-129 43 0c0 0 10 19 36 19 26 0 42-20 42-43 0-23-17-48-42-48-24 0-39 21-39 36-20 0-48 0-48 0 0-13 10-73 87-73 63 0 83 46 83 52 0-5 24-52 75-52 59 0 89 52 93 52 3 0 39-52 93-52 53 0 81 47 81 87 0 40-25 87-81 87z m-122-88l0 0c0 0-33-40-64-40-30 0-36 30-36 40 0 0 0 0 0 0 0 0 0 0 0 0 0 10 6 41 36 41 31 0 64-40 64-41l0 0 0 0z m158 0c0 0 0 0 0 0 0-10-5-40-36-40-31 0-64 40-64 40l0 0 0 0 0 0 0 0c0 1 33 41 64 41 31 0 36-31 36-41 0 0 0 0 0 0z"/>
<glyph glyph-name="flickr" unicode="&#61490;" d="M512 256c0-63-51-114-115-114-63 0-114 51-114 114 0 63 51 114 114 114 64 0 115-51 115-114z m-397 114c-64 0-115-51-115-114 0-63 51-114 115-114 63 0 114 51 114 114 0 63-51 114-114 114z"/>
<glyph glyph-name="flipboard" unicode="&#61491;" d="M0 512l0-512 176 0 0 176 154 0 0 154 182 0 0 182z"/>
<glyph glyph-name="foursquare" unicode="&#61492;" d="M394 512c0 0-235 0-273 0-37 0-48-28-48-46 0-18 0-434 0-434 0-20 10-28 16-30 7-3 23-5 33 7 0 0 129 150 131 152 4 3 4 3 7 3 7 0 57 0 84 0 35 0 40 25 44 40 3 12 37 187 49 243 8 42-2 65-43 65z m-6-308c3 12 37 187 49 243m-59-9l-11-60c-2-6-10-13-17-13-8 0-107 0-107 0-12 0-20-8-20-20l0-13c0-12 8-20 20-20 0 0 82 0 91 0 8 0 16-10 15-19-2-9-11-54-12-59-1-4-6-13-17-13-8 0-73 0-73 0-14 0-18-2-27-13-9-11-89-108-89-108-1-1-2-1-2 0l0 339c0 8 7 17 17 17 0 0 210 0 219 0 8 0 15-8 13-18z"/>
<glyph glyph-name="github" unicode="&#61493;" d="M256 506c-141 0-256-115-256-256 0-114 73-210 175-244 13-2 18 6 18 12 0 7-1 23-1 44-71-15-86 35-86 35-12 29-28 37-28 37-24 16 1 16 1 16 26-2 40-27 40-27 22-39 59-28 74-21 2 16 9 28 16 34-57 7-116 29-116 127 0 28 10 51 26 69-3 6-11 33 3 68 0 0 21 7 70-26 20 5 42 8 64 8 22 0 44-3 64-8 49 33 70 26 70 26 14-35 6-62 3-68 16-18 26-41 26-69 0-99-60-120-117-127 10-8 18-23 18-47 0-34-1-62-1-71 0-6 5-14 18-12 102 34 175 130 175 244 0 141-115 256-256 256z"/>
<glyph glyph-name="google_apps_mail" unicode="&#61494;" d="M345 283l167 131 0-317z m-95-34l241 189c0 0-1 0-2 0l-466 0c-1 0-2 0-3 0z m-250 164l0-316 159 186z m318-148l-58-46-10-8-8 7-57 46-163-190c1 0 1 0 1 0l466 0z"/>
<glyph glyph-name="google-bookmarks" unicode="&#61495;" d="M261 309l0-104 138 0c-9-60-62-104-138-104-83 0-153 72-153 155 0 83 67 155 153 155 39 0 71-12 99-40l74 74c-47 42-104 67-173 67-141 0-256-115-256-256 0-141 115-256 256-256 150 0 246 106 246 251 0 19-2 40-4 58z"/>
<glyph glyph-name="google_classroom" unicode="&#61496;" d="M197 336c0 33 27 59 59 59 32 0 59-26 59-59 0-32-27-59-59-59-32 0-59 27-59 59z m215-98c25 0 45 20 45 45 0 24-20 44-45 44-24 0-44-20-44-44 0-25 20-45 44-45z m-312 0c24 0 44 20 44 45 0 24-20 44-44 44-25 0-45-20-45-44 0-25 20-45 45-45z m411-77c-27 28-57 45-99 45-14 0-29-2-44-6-32 22-70 35-112 35-42 0-80-13-112-35-15 4-30 6-44 6-42 0-72-17-99-45-1-1-1-1-1-2l0-42 512 0 0 42c0 1 0 1-1 2z"/>
<glyph glyph-name="google-mail" unicode="&#61497;" d="M475 439l-438 0c-21 0-37-17-37-37l0-292c0-20 16-37 37-37l438 0c21 0 37 17 37 37l0 292c0 20-16 37-37 37z m-420-12l402 0-201-127z m384-342l-366 0 0 249 163-108 0-1c3-1 5-3 9-4 3-1 7-2 11-2 4 0 8 1 11 2 4 1 6 3 9 4l0 1 163 108 0-249z"/>
<glyph glyph-name="google_plus" unicode="&#61504;" d="M299 288c1-11 3-24 3-35 0-87-58-151-148-151-85 0-154 70-154 154 0 84 69 154 154 154 41 0 76-16 103-41l-44-44c-17 17-36 24-59 24-52 0-92-43-92-93 0-50 42-93 92-93 45 0 77 27 83 63l-83 0 0 62z m213-18l-63 0 0 66-45 0 0-66-63 0 0-45 63 0 0-66 45 0 0 66 63 0z"/>
<glyph glyph-name="hootsuite" unicode="&#61505;" d="M378 377c0-27-22-49-49-49-27 0-49 22-49 49 0 5 1 10 3 14 3-8 12-14 22-14 13 0 24 11 24 24 0 10-6 19-14 22 4 2 9 3 14 2 27 0 49-21 49-48z m-171 0c-13 0-24 11-24 25 0 9 6 18 15 22-5 1-10 2-15 2-27 0-49-22-49-49 0-27 22-48 49-49 27 0 49 22 49 49 0 5-1 10-2 14-4-8-13-14-23-14z m220 135l0-512c-189 1-342 153-341 341l0 171c30 0 60-9 85-23 25 15 54 23 86 23 31 0 60-8 85-23 25 14 54 23 85 23z m-25-135c0 40-32 73-73 73-38 0-69-29-73-67l0 1 0-1c-3 38-35 67-73 67-40 0-73-32-73-73 0-40 32-73 73-73 14 0 28 4 39 11l34-34 34 34c11-7 25-11 39-11 40 0 73 32 73 73z"/>
<glyph glyph-name="hotmail" unicode="&#61506;" d="M492 403c6 0 17-8 17-20l-150-102c-1 0-3 0-4 0l-35 22 0 100z m-172-137l0-136 162 0c14 0 27 8 27 28l0 184c0 0-153-101-147-98 0 0-6-3-10 0l-32 22z m-166 46c-11 0-19-5-26-15-6-10-9-24-9-41 0-17 3-30 9-40 7-10 15-15 26-15 10 0 19 5 25 14 6 10 9 23 9 41 0 17-3 31-9 41-6 10-14 15-25 15z m147 200l0-512-298 62 0 392z m-80-254c0 26-6 47-18 63-12 17-28 25-48 25-21 0-37-9-50-26-13-17-19-39-19-66 0-26 6-47 19-63 12-16 28-24 48-24 20 0 37 9 49 25 13 17 19 39 19 66z"/>
<glyph glyph-name="houzz" unicode="&#61507;" d="M256 169l147 86 0-168-147-87z m0 169l147-83 0 170z m0-143l101 60-101 57z m-147 56l0-169 147 86z m147 261l-147-87 0-174 147 87z"/>
<glyph glyph-name="inbound_org" unicode="&#61508;" d="M476 162c0 0 0 0 0 0 18 18 29 41 34 67 1 9 2 18 2 28 0 38-12 69-36 93-24 25-55 37-92 37-38 0-74-16-105-49-8-8-16-17-23-27l-41-55c-7-11-15-20-23-28-21-22-43-33-62-33-17 0-30 6-41 18-10 10-15 22-17 37 0 2 0 4 0 6 0 6 1 12 3 18 2 9 7 18 14 25 0 0 0 0 0 0 11 12 24 18 41 18 20 0 40-8 62-33l37 49-1 0c1 0 1 0 1 0l0 0c0 0 0 0 0 0 1 2 3 4 4 5-32 36-63 49-106 49-37 0-68-12-91-36l0-1c0 0 0 0 0 0-24-24-36-56-36-94 0-10 1-19 2-28 5-26 16-48 34-66 17-19 39-30 64-35 8-1 17-2 26-2 39 0 75 16 106 48 9 8 17 18 24 29l41 54c7 11 14 21 22 28 21 22 44 33 64 33 6 0 12-1 17-3 9-3 17-8 23-15 9-9 14-19 16-31 0-4 1-8 1-12 0-16-5-30-16-42l-1-1c-11-12-25-18-41-18-20 0-41 8-63 33l-36-48c-1-2-2-4-4-5 33-36 64-50 105-50 38 0 69 13 92 37"/>
<glyph glyph-name="instagram" unicode="&#61509;" d="M427 512l-342 0c-47 0-85-38-85-85l0-342c0-47 38-85 85-85l342 0c47 0 85 38 85 85l0 342c0 47-38 85-85 85z m-43-43l40 0c25 0 45-20 45-45l0-40-85 0z m-201-170c7 12 17 22 29 30 1 0 2 1 3 1 5 3 10 5 15 7 2 1 4 1 5 2 7 1 14 2 21 2 7 0 14-1 21-2 1-1 3-2 5-2 5-2 10-4 15-7 1 0 2-1 3-1 12-8 22-18 30-30 7-13 11-27 11-43 0-47-38-85-85-85-47 0-85 38-85 85 0 16 4 30 12 43z m286-214c0-23-19-42-42-42l-342 0c-23 0-42 19-42 42l0 214 93 0c-5-14-8-28-8-43 0-71 57-128 128-128 71 0 128 57 128 128 0 15-3 29-8 43l93 0z"/>
<glyph glyph-name="instapaper" unicode="&#61510;" d="M370 14c-32 3-52 7-61 14-9 8-14 26-14 56l0 344c0 29 5 47 14 55 9 8 29 13 61 15l0 14-228 0 0-14c32-2 52-7 61-15 9-8 14-26 14-55l0-344c0-30-5-48-14-56-9-7-29-11-61-14l0-14 228 0z"/>
<glyph glyph-name="itunes_podcast" unicode="&#61511;" d="M324 313c0-38-30-68-68-68-38 0-68 30-68 68 0 38 30 68 68 68 38 0 68-30 68-68z m-168-84c-19 23-31 52-31 84 0 72 59 131 131 131 72 0 131-59 131-131 0-32-12-61-31-84l53-44c29 35 46 79 46 128 0 110-89 199-199 199-110 0-199-89-199-199 0-49 17-93 46-128z m146-32l-92 0 0-197 92 0z"/>
<glyph glyph-name="izeby" unicode="&#61512;" d="M47 0c-7 0-7 2-13 5-15 8-17 23-17 39l0 277c0 25 27 45 51 45 25 0 51-20 51-45l0-192 181 155-107 0c-25 0-51 0-51 25 0 51 26 49 51 49l249 0c19 0 36-10 42-28 6-19-1-38-17-49l-394-274c-8-5-17-7-26-7z m442 40c0 20-16 40-37 40l-188 0c-20 0-36-20-36-40 0-20 16-40 36-40l188 0c21 0 37 20 37 40z m-404 435c0 20-16 37-37 37-20 0-37-17-37-37 0-20 17-37 37-37 21 0 37 17 37 37z m131 0c0 20-16 37-37 37-20 0-37-17-37-37 0-20 17-37 37-37 21 0 37 17 37 37z m125 0c0 20-16 37-37 37-20 0-37-17-37-37 0-20 17-37 37-37 21 0 37 17 37 37z m131 0c0 20-16 37-37 37-20 0-37-17-37-37 0-20 17-37 37-37 21 0 37 17 37 37z"/>
<glyph glyph-name="kaboodle" unicode="&#61513;" d="M337 382l-199-183 0 313-47 0 0-512 47 0 0 137 61 55 161-192 61 0-188 224 173 158z"/>
<glyph glyph-name="kik" unicode="&#61520;" d="M43 52l0 408c0 29 20 52 46 52 25 0 46-23 46-52l0-230 115 125c14 14 25 23 41 23 25 0 41-23 41-47 0-18-9-32-22-45l-72-71 86-134c8-12 12-22 12-33 0-29-20-48-43-48-18 0-29 7-40 24l-81 126-37-38 0-60c0-29-21-52-46-52-26 0-46 23-46 52m371 62c31 0 55 25 55 56 0 31-24 56-55 56-31 0-56-25-56-56 0-31 25-56 56-56"/>
<glyph glyph-name="kindle_it" unicode="&#61521;" d="M368 512l-220 0c-38 0-68-31-68-68l0-276c0-26 19-56 40-70l130-89c9-6 19-9 28-9 20 0 41 15 41 45l0 69 54 0c29 0 54 24 54 54l0 285c0 32-27 59-59 59z m-219-370c-6 5-12 18-12 26l0 258 110-71c6-4 15-17 15-25l0-271z m209 23l-39 0 0 165c0 26-16 56-37 70l-64 44-16 11 156 0c10 0 17-8 17-17l0-256c0-9-7-17-17-17z"/>
<glyph glyph-name="line-me" unicode="&#61522;" d="M512 292c0 115-115 208-256 208-141 0-256-93-256-208 0-102 91-189 214-205 8-2 20-5 23-12 2-7 1-17 0-24 0 0-3-18-3-21-1-7-5-26 22-14 27 11 147 87 201 148l0 0c37 41 55 82 55 128z m-356-68l-51 0c-7 0-14 6-14 13l0 102c0 8 7 14 14 14 7 0 13-6 13-14l0-88 38 0c7 0 13-6 13-14 0-7-6-13-13-13z m52 13c0-7-6-13-13-13-7 0-13 6-13 13l0 102c0 8 6 14 13 14 7 0 13-6 13-14z m123 0c0-5-4-10-9-12-2-1-3-1-5-1-4 0-8 2-10 5l-52 71 0-63c0-7-6-13-14-13-7 0-13 6-13 13l0 102c0 6 3 11 9 13 1 0 3 1 4 1 4 0 8-2 11-6l52-71 0 63c0 8 6 14 13 14 8 0 14-6 14-14z m82 65c8 0 14-6 14-14 0-7-6-13-14-13l-37 0 0-24 37 0c8 0 14-6 14-14 0-7-6-13-14-13l-51 0c-7 0-13 6-13 13l0 51c0 0 0 0 0 0 0 0 0 0 0 0l0 51c0 0 0 0 0 0 0 8 6 14 13 14l51 0c8 0 14-6 14-14 0-7-6-13-14-13l-37 0 0-24 37 0z"/>
<glyph glyph-name="linkedin" unicode="&#61523;" d="M118 9l-109 0 0 333 109 0z m-55 494c-35 0-63-25-63-57 0-32 28-58 63-58 35 0 64 26 64 58 0 32-29 57-64 57z m323-153c-59 0-85-32-100-55l0 47-109 0 0-333 109 0 0 186c0 10 1 20 4 27 8 20 26 41 56 41 41 0 57-31 57-76l0-178 109 0 0 191c0 103-53 150-126 150z"/>
<glyph glyph-name="livejournal" unicode="&#61524;" d="M272 479c-34 0-66-7-95-20l-53 53 0 0c-55-24-100-69-124-125l53-52c24 55 68 100 124 124l0 0 195-194 0 0c-56-24-100-69-124-125l-195 195 0-1c-13-29-20-61-20-94 0-133 107-240 239-240 132 0 240 107 240 240 0 132-108 239-240 239z m42-353c14 32 40 58 72 72l19-91z"/>
<glyph glyph-name="mail" unicode="&#61525;" d="M307 180c0-12 6-23 16-34 10-11 26-17 45-17 37 0 71 18 100 52 29 35 44 76 44 124 0 61-23 110-69 147-44 35-99 52-166 52-82 0-150-25-202-76-50-49-75-108-75-177 0-62 20-116 60-161 48-55 116-82 204-82 38 0 74 6 110 18 35 12 67 30 97 53l-23 36-8-5c-20-15-40-26-59-34-35-15-72-22-112-22-59 0-109 16-150 48-46 36-69 85-69 147 0 56 19 103 59 143 43 44 101 66 173 66 39 0 75-8 106-24 50-25 75-67 75-125 0-40-9-71-27-95-19-24-37-36-55-36-10 0-16 3-21 9-4 5-6 11-6 17 0 5 1 9 2 15 1 5 4 13 7 25l41 138-60 0-12-40c-3 12-9 23-19 32-12 12-29 19-51 19-38 0-70-17-96-51-27-33-40-69-40-107 0-33 9-59 26-78 17-18 38-27 64-27 25 0 47 8 65 24 10 9 19 22 27 37 0-2 0-4-1-6 0-2 0-3 0-5z m-15 48c-14-34-33-51-56-51-13 0-23 4-30 14-7 9-10 22-10 37 0 26 8 53 24 80 15 27 34 41 56 41 12 0 21-4 28-11 7-8 10-17 10-29 0-19-7-46-22-81z"/>
<glyph glyph-name="meneame" unicode="&#61526;" d="M260 271c-11-7-22-11-33-13-17-4-34-4-50 0-15 2-27 10-36 21-19 22-33 46-37 75-6 40 8 72 39 97 21 18 47 27 75 32 43 7 84-1 124-18 20-9 39-19 60-27 5-1 10-3 15-3 8-1 16 1 21 8 8 9 11 19 11 30 2 0 2-2 3-3 6-12 4-31-4-41-10-10-22-12-35-11-14 2-28 6-42 13-25 12-50 23-78 29-34 8-68 6-101-5-49-16-74-64-61-113 7-29 23-51 49-67 10-7 22-9 35-9 13 0 25 3 38 5 2 0 4 1 7 0z m51-243c-2 1-7-2-7 1-1 3 4 4 6 6 16 6 33 13 49 19 10 4 19 9 28 15 3 2 6 5 9 8 4 4 5 9 2 14-12 31-26 61-36 92-9 26-16 51-18 78-2 31 9 56 36 73 13 8 27 14 41 20 17 7 34 15 49 26 22 17 30 40 28 67-1 12-3 24-6 36 0 2-2 4 0 5 3 1 4-1 5-3 7-13 13-27 14-42 4-29-9-52-29-71-13-13-29-20-45-28-14-7-29-14-42-22-14-10-26-22-30-39-4-15-1-29 2-43 6-31 19-60 31-89 7-15 13-29 19-45 8-25 1-44-21-58-16-10-34-14-52-17-11-2-22-2-33-3z m-214 298c0-3-2-5-3-7-24-33-44-69-60-107-10-27-13-54-6-82 9-35 32-56 64-69 24-9 49-13 73-16 35-4 70-7 104-10 4-1 7-2 10-2 2-1 4-2 4-4-1-2-3-1-4-1-23-2-45-3-68-4-32 0-63 0-95 5-50 8-90 34-109 84-10 26-9 54 0 81 12 41 31 78 61 109 8 8 17 15 26 22 0 1 1 2 3 1z m87-185c35 5 71 9 107 4 17-2 21-5 21-23 1-27-3-54-11-80-1-5-3-9-5-13-2-1-3-3-5-2-2 0-2 2-2 4 0 12 2 23 3 35 1 17 4 33 3 50-1 5-3 9-8 11-14 7-29 9-44 10-19 2-37 2-56 3-1 0-2 0-3 1z"/>
<glyph glyph-name="mister_wong" unicode="&#61527;" d="M158 268c-35-36-75-66-112-99-7 3-12 8-15 15 37 32 74 64 111 97 6-3 11-8 16-13z m202 6c-3-6-10-7-12-13 38-34 77-67 118-98 5 5 10 8 13 15-41 31-77 66-119 96z m-222 156c-29 1-70 0-107 0 0-6 0-12 0-18 33-3 72 0 108-1 10-77 41-134 112-150 0-42 0-84 0-126-105-8-183-45-208-134 20-2 44 0 65-1 22 60 70 92 143 100 0-33 0-66 0-99 5-2 15 0 22-1 1 34-2 71 1 103 85-5 142-37 165-103 14 0 27 0 41 0-23 91-104 125-207 136 0 42 0 84 0 126 67 18 93 76 105 149 34 0 68 0 102 0 3 6 0 13 0 19-37 2-65-1-104 2 1 32-5 58-15 80-12 0-23 0-35 0 7-24 17-51 13-82-41 3-107-3-156 3 1 31 8 54 15 79-15 0-29 0-43 0-12-20-15-56-17-82z m49-19c51 0 101 0 152 0-5-47-22-106-64-117-10-2-19-2-28 0-40 11-56 67-62 113 0 2 1 3 2 4z"/>
<glyph glyph-name="mixi" unicode="&#61528;" d="M292 495c-160 15-327-124-286-281 45-169 267-147 267-147l0-51c0 0 239 74 239 262 0 187-165 212-220 217z m113-319l-36 0 0 125c0 13-3 23-10 28-7 5-15 8-25 8-14 0-26-5-36-14-9-9-14-24-14-46l0-101-36 0 0 116c0 14-1 24-5 31-5 9-15 14-29 14-13 0-25-5-36-15-11-10-16-29-16-55l0-91-35 0 0 188 34 0 0-30c9 11 16 18 23 23 11 7 24 11 39 11 16 0 30-4 40-12 5-4 10-11 15-20 8 11 17 19 27 24 11 6 22 8 35 8 28 0 47-10 57-30 6-11 8-25 8-43l0-119z"/>
<glyph glyph-name="msdn" unicode="&#61529;" d="M458 74l0 232c0 29-6 50-19 64-12 15-31 22-57 22-34 0-59-10-75-29-16-20-24-50-24-90l0-199-54 0 0 232c0 29-6 50-19 64-12 15-31 22-57 22-34 0-59-10-75-31-16-20-24-54-24-100l0-187-54 0 0 357 44 0 9-49 3 0c10 18 24 31 43 41 19 10 40 15 63 15 56 0 93-20 110-61l3 0c10 19 26 34 46 45 20 11 43 16 69 16 41 0 72-10 92-31 20-21 30-54 30-100l0-233z"/>
<glyph glyph-name="myspace" unicode="&#61536;" d="M512 171l-512 0 0 170 68 0 0-102 376 0 0 102 68 0z"/>
<glyph glyph-name="odnoklassniki" unicode="&#61537;" d="M256 253c71 0 129 58 129 129 0 72-58 130-129 130-71 0-129-58-129-130 0-71 58-129 129-129z m0 193c35 0 64-28 64-64 0-35-29-63-64-63-35 0-64 28-64 63 0 36 29 64 64 64z m149-209c-7 15-28 27-54 6-37-29-95-29-95-29 0 0-58 0-95 29-26 21-47 9-54-6-13-26 2-38 34-59 28-18 66-24 90-27l-20-20c-29-29-57-57-76-77-12-11-12-30 0-42l3-3c12-12 31-12 42 0l76 76c29-29 57-57 77-76 11-12 30-12 41 0l4 3c11 12 11 31 0 42l-76 77-21 20c25 3 62 9 90 27 32 21 47 33 34 59z"/>
<glyph glyph-name="onenote" unicode="&#61538;" d="M512 400c0 20-17 37-37 37l-15 0c-5 15-19 25-35 25l-125 0 0 50-300-62 0-388 300-62 0 50 125 0c16 0 30 10 35 25l15 0c20 0 37 17 37 37l0 63c0 9-4 18-10 25 6 6 10 15 10 25l0 62c0 10-4 19-10 25 6 7 10 16 10 25z m-281-250l-45 2-74 155c1-2 0-150 0-150l-37 2 0 197 37 3c0 0 78-142 78-144l0 147 41 6z m256-38c0-7-6-12-12-12l-13 0 0 87 13 0c6 0 12-5 12-12z m0 113c0-7-6-13-12-13l-13 0 0 88 13 0c6 0 12-6 12-13z m0 112c0-7-6-12-12-12l-38 0 0-238c0-6-6-12-12-12l-125 0 0 50 87 0 0 25-87 0 0 25 87 0 0 25-87 0 0 25 87 0 0 25-87 0 0 25 87 0 0 25-87 0 0 25 87 0 0 25-87 0 0 25 87 0 0 25-87 0 0 37 125 0c6 0 12-6 12-12l0-13 38 0c6 0 12-6 12-12l0-63z"/>
<glyph glyph-name="pinboard_in" unicode="&#61539;" d="M201 188l-17-89 99 99 227-198-196 230 96 96-89-16-154 127 0 75-79-80-86-85 69 1z"/>
<glyph glyph-name="pinterest" unicode="&#61540;" d="M268 512c-140 0-211-101-211-185 0-50 19-96 60-112 7-3 13-1 15 7 2 5 5 18 6 24 2 7 1 10-4 16-12 14-20 32-20 58 0 75 56 142 146 142 79 0 123-49 123-114 0-85-38-157-94-157-31 0-54 26-46 57 8 38 26 78 26 105 0 24-13 44-40 44-32 0-57-32-57-76 0-28 9-47 9-47 0 0-32-137-38-161-11-48-1-104-1-110 1-3 5-4 7-1 3 3 41 47 54 94 3 13 21 81 21 81 10-20 40-37 72-37 95 0 159 87 159 203 0 87-74 169-187 169z"/>
<glyph glyph-name="plurk" unicode="&#61541;" d="M34 512l0-512 131 0 0 142 313 0 0 370z m131-239l0 108 182 0 0-108z"/>
<glyph glyph-name="pocket" unicode="&#61542;" d="M456 484l-399 0c-31 0-57-28-57-60l0-140c0-141 115-256 256-256l0 0c142 0 256 115 256 256l0 140c0 32-25 60-56 60z m-41-172l-131-124c-7-7-17-10-26-10-9 0-18 3-26 10l-134 124c-15 14-16 37-2 51 15 15 38 15 53 2l109-100 105 99c15 14 39 14 53 0 15-15 14-38-1-52z"/>
<glyph glyph-name="polyvore" unicode="&#61543;" d="M279 512l-219 0 0-512 88 0 0 166 131 0c96 0 173 77 173 173 0 96-77 173-173 173z m0-263l-131 0 0 180 131 0c50 0 90-40 90-90 0-50-40-90-90-90z"/>
<glyph glyph-name="printfriendly" unicode="&#61544;" d="M484 287l0-176-40 0 0 136-134 0c9 6 16 11 23 18 7 7 13 14 19 22z m-371 0l-85 0 0-176 40 0 0 136 72 0c-12 11-21 24-27 40z m99-42c39-1 77 9 105 37 24 22 39 53 49 85 14 45 18 95 15 142 0 1 0 2 0 3-9-31-26-59-50-81-20-18-44-30-69-38-23-8-46-12-70-17-16-4-35-7-49-17-19-14-15-44-8-64 11-33 43-50 77-50z m-98-43l284 0 0-202-205 0-79 74z m57-68l170 0 0 22-170 0z m0-63l170 0 0 23-170 0z"/>
<glyph glyph-name="quora" unicode="&#61545;" d="M376 85c64 41 108 113 108 196 0 128-102 231-228 231-126 0-228-103-228-231 0-127 102-230 228-230 18 0 36 2 54 6 21-39 54-67 124-54l0 39c0 0-45 12-58 43z m-2 166c0-39-12-74-32-99-25 26-64 48-114 45l0-45c0 0 34-1 57-41-9-3-18-4-27-4-64 0-116 64-116 144 0 10 0 49 0 59 0 80 52 144 116 144 64 0 116-64 116-144 0-10 0-49 0-59z"/>
<glyph glyph-name="rebelmouse" unicode="&#61552;" d="M155 91c-2 0-3 0-4 1-22 13-26 38-27 55-6-3-12-4-18-4-19 0-36 12-44 22-3 3-3 7-1 10 2 2 4 3 6 3 2 0 3-1 4-2 0 0 2 0 4 0 3 0 8 1 15 5 4 2 8 4 12 6-7-1-14-2-20-2-41 0-70 20-81 56-7 25-4 56 8 83 12 29 34 50 59 59 14 5 28 7 41 7 14 0 26-3 37-9 20-10 31-28 36-39 20 11 43 18 70 21l1 0c6 0 12 0 17 0l3 0c14 0 28-1 41-5 7 18 27 53 73 62 4 1 9 1 14 1 29 0 63-16 85-40 27-30 35-67 24-105-15-50-66-55-87-55 0 0-1 0-1 0 0-25-7-48-20-66-25-34-86-57-147-57-36 0-67 7-91 22-3-13-2-19-2-20 1-3 0-6-3-8-1 0-3-1-4-1z m-24 88c1-2 2-4 3-6 18-38 62-60 121-60 1 0 3 0 5 0l-1 5c3 2 10 5 22 5l0 0c10 0 17-3 20-5 40 8 73 25 88 46 11 16 17 35 17 56 0 0 0 0 0 0 0 3-21 55-102 55-10 0-20-1-30-3-20-3-38-7-52-12 3 1 7 1 10 1 4 0 7 0 10 0 4 0 7 0 10 0 1 0 2 0 3 0 2 0 3 0 4 0 7 0 13-1 17-4 6 3 18 6 34 9 2 1 4 1 6 1 26 0 40-30 40-58 0-32-11-40-36-44-1-1-2-1-3-1 2-6 2-14-3-20-6-9-18-14-36-14-15 0-26 4-31 11-3 4-4 8-3 14-2 0-4 0-5 0l0 0c-21 0-35 6-43 20-13 23-2 58 5 71 3 5 7 9 11 11-77-27-81-71-81-78z m9-42c1-6 3-14 7-21 1 4 2 8 3 13-3 3-7 5-10 8z m-51 26c6-3 11-5 17-5 5 0 11 2 16 5-1 1-2 2-2 3-1 2-2 5-4 8 0 0 0 1 0 1-3-1-10-3-18-7-3-2-6-4-9-5z m143 83c-11 0-15-3-18-8-5-8-15-38-5-55 5-9 15-13 30-13 0 0 0 0 0 0 2 0 11 0 24 5 3 1 6 2 8 2 2 13 4 45-4 67-1 1-3 1-8 1-1 0-2 0-3 0-1 0-3 0-4 0-3 0-7 0-10 1-4 0-7 0-10 0z m55-67c2 0 4 0 6 0 3-1 5-1 8-1 6 0 11 1 17 2 18 3 23 5 23 29 0 20-10 43-25 43-1 0-2-1-3-1-13-2-23-5-29-7 6-23 4-51 3-65z m-178 196c-11 0-23-2-36-7-47-16-69-80-57-123 9-29 31-45 66-45 9 0 18 2 29 4-1 3-1 5-1 8 0 5 1 10 1 15-13 3-29 12-36 26-7 14-5 30 7 47 10 16 22 25 36 26 1 0 2 0 3 0 12 0 22-6 28-11 6 7 13 13 20 19-4 8-12 24-30 34-9 4-19 7-30 7z m162-27c-5 0-9 0-14 0l-3-1c-34-3-61-13-83-31-23-21-34-48-40-67l0-2c-2-8-4-17-5-26 0-2 0-4 0-6 0 0 0-1 0-2 16 28 54 60 145 75 12 1 23 2 33 2 50 0 80-18 98-36l-1 2c0 1 0 2-1 3l0 0c-4 13-12 31-28 48-2 2-5 5-8 8-24 21-56 33-93 33z m153-112c6 0 16 0 26 3 24 6 39 20 45 42 13 43-7 75-20 89-20 22-49 36-74 36-4 0-8-1-11-1-38-8-55-37-61-51 11-4 21-10 30-16 5 7 15 16 28 19 2 0 4 0 6 0 12 0 24-5 36-17 22-21 22-38 19-49-5-16-20-26-32-30 2-9 4-17 5-25 1 0 2 0 3 0z m-303 75c-1 0-1 0-2 0-9-1-17-7-24-19-9-13-11-23-6-32 5-10 17-15 25-18 0 4 1 8 3 12l1 3c5 17 12 33 22 46-5 4-12 8-19 8z m252 16c14-12 25-26 33-43 2-3 3-5 4-9 10 4 20 11 23 20 3 10-2 22-14 34-10 9-18 13-26 13-1 0-2 0-3 0-9-2-15-8-19-13 1-1 1-1 2-2z m-119-124c-5 0-9 2-12 5-4 4-5 11-4 19 3 14 12 15 16 15 3 0 5 0 5 0 10-4 10-14 10-15 0-8-2-15-6-20-3-3-6-4-9-4z m64 6c-6 0-10 2-13 5-3 3-4 9-4 16 1 13 10 14 13 14 2 0 3 0 3 0 8-4 11-11 12-17 1-5-1-11-4-14-2-3-4-4-7-4l0 0z m-63 89c-1 0-2 0-3 1-1 1-1 2-1 4 0 2 0 5 0 7-1 1-3 2-4 3-3 2-3 4-3 6 0 1 1 2 4 3 2 1 5 2 7 2 0 2 1 4 2 6 1 4 4 4 5 4 1 0 3-1 4-3 2-2 3-4 3-6 2 0 5 0 7 0 3 0 5-2 5-3 1-1 1-3-1-5-1-2-3-3-4-5 0-2 1-5 1-6 0-2 0-4-1-5-1-1-2-1-3-1-1 0-2 0-3 0-1 1-4 2-6 3l-6-4c-1-1-2-1-3-1z"/>
<glyph glyph-name="reddit" unicode="&#61553;" d="M366 237c1-3 2-7 2-10 0-7-2-14-6-20-4-5-10-9-17-11l0 0c0 0 0 0 0 0 0 0 0 0 0 0-3-1-6-2-10-2-7 0-14 3-20 7-6 5-10 11-12 19l0 0c0 0 0 0 0 0 0 0 0 0 0 0l0 0c0 2 0 4 0 6 0 7 2 14 6 19 3 5 9 9 15 12 0 0 0 0 0 0 0 0 0 0 0 0 4 1 7 2 11 2 7 0 13-2 19-6 5-4 10-9 12-16 0 0 0 0 0 0 0 0 0 0 0 0z m-20-83c-3 2-6 3-9 3-3 0-6-1-8-2-23-14-49-21-76-21-19 0-39 4-57 13l0 0 0 0c-3 1-6 3-9 6-2 1-4 2-6 3-2 1-4 1-6 1-2 0-4 0-6-1 0 0 0 0 0 0l0 0c-3-2-6-4-7-6-2-3-3-6-3-9 0-3 1-6 2-8 1-3 3-5 6-6 26-17 56-25 86-25 27 0 54 6 79 18l0 0 0 0c3 2 7 3 11 6 2 1 4 3 6 5 2 1 3 4 4 7l0 0c0 1 0 2 0 3 0 2 0 5-1 7-2 2-4 5-6 6z m-180 42c1 0 1 0 1 0 3-1 6-2 10-2 8 0 16 3 22 9 6 6 10 13 10 22 0 1 0 1 0 1 0 0 0 1 0 1 0 9-4 17-10 23-6 5-14 9-22 9-2 0-5-1-7-1 0 0 0 0 0 0 0 0 0 0 0 0-11-2-21-11-24-22l0 0c0 0 0 0 0 0-1-3-2-6-2-9 0-7 2-14 6-19 4-6 10-10 16-12 0 0 0 0 0 0z m346 80l0 0c0-1 0-2 0-3 0-13-4-25-11-35-6-9-14-17-24-23 0-5 1-9 1-14 0-27-10-54-26-75l0 0 0 0c-29-39-75-63-121-74l0 0c-25-6-50-9-75-9-38 0-76 6-111 21l0 0 0 0c-37 15-71 39-93 74-11 18-18 40-18 62 0 5 1 10 1 15-9 6-18 13-24 22-6 10-10 22-11 34l0 0c0 17 7 33 19 45 11 12 27 20 44 20 0 0 1 0 1 0 2 0 3 0 5 0 9 0 17-1 25-4l0 0 0 0c7-3 14-7 20-11 2 1 4 2 7 3 37 22 80 30 121 32 1 21 3 43 14 62 8 16 23 28 40 32l0 0 0 0c7 2 13 2 20 2 18 0 35-4 52-11 7 11 17 20 29 25l1 0 0 0c7 2 14 3 22 3 8 0 16-1 23-4l0 0c0 0 0 0 0 0 0-1 0-1 1-1 10-4 19-11 26-21 6-9 10-21 10-33 0-2 0-4 0-6l0 0c0 0 0 0 0 0-2-16-9-29-20-39-11-9-25-15-40-15-2 0-5 0-7 0-15 2-28 9-38 19-10 10-16 24-16 39 0 1 0 2 0 3-14 6-28 11-43 11-2 0-4 0-6-1l0 0c-11-1-21-7-26-17l0 0c-7-15-8-31-9-48 42-3 83-13 119-33l0 0 1-1c1 0 2-1 3-1 3 2 5 4 8 5 11 8 24 11 37 11 6 0 12 0 18-2l0 0 0 0c0 0 0 0 0 0l0 0c13-3 25-11 35-21 9-11 15-24 16-38z m-122 135c0 0 0-1 1-2l0 0c0-7 3-13 8-18 5-5 12-8 19-8l0 0c1 0 1 0 2 0 7 0 14 3 19 7 5 5 9 12 9 19l0 0 0 0c0 1 0 1 0 2 0 7-3 15-9 20-5 5-12 8-20 8-2 0-4 0-6-1l-1 0 0 0c-6-1-11-5-15-10-4-5-7-11-7-17z m-304-110c-5 2-11 4-17 4-1 0-2 0-3 0l0 0 0 0c-8 0-16-4-22-10-6-5-10-13-11-21l0 0 0 0c0-1 0-2 0-2 0-6 2-11 4-15 2-3 5-7 8-9 9 20 24 38 41 53z m359-102c0 19-6 37-17 52-22 30-55 50-90 61l0 0c-7 2-13 3-20 5-20 5-41 7-62 7-28 0-56-4-82-12-35-11-68-31-90-61l0 0c-11-15-17-33-17-52 0-7 1-14 3-20l0 0c3-15 11-28 21-40 10-12 22-21 35-29 3-2 5-4 8-6 37-20 80-29 122-29 7 0 15 0 22 1 42 3 85 16 120 41l0 0c11 8 21 18 29 30 8 11 14 23 17 37l0 0c1 5 1 10 1 15z m34 74c0 4-1 9-3 13l0 0 0 0c-3 6-8 11-14 14-6 3-12 5-19 5-6 0-12-1-17-4 17-15 32-33 41-53 3 2 6 6 8 9 2 5 4 10 4 16z"/>
<glyph glyph-name="rss" unicode="&#61554;" d="M116 116c12-12 20-29 20-48 0-18-8-35-20-47l0-1c-12-12-29-19-48-19-19 0-36 7-48 20-12 12-20 29-20 47 0 19 8 36 20 48l0 0c12 13 29 20 48 20 19 0 36-7 48-20z m0 0l0 0c0 0 0 0 0 0z m-96-96c0 0 0 0 0 1 0 0 0 0 0 0z m-20 318l0-98c64 0 124-25 169-70 46-45 71-106 71-170l0 0 0 0 98 0c0 93-38 177-99 239-61 61-146 99-239 99z m0 174l0-98c228 0 414-186 414-414l98 0c0 141-57 269-150 362-93 93-221 150-362 150z"/>
<glyph glyph-name="shareaholic" unicode="&#61555;" d="M512 495l0-336c0-9-8-17-17-17l-336 0c-9 0-17 8-17 17l0 125 68 0 0-74 234 0 0 234-234 0 0-57-68 0 0 108c0 9 8 17 17 17l336 0c9 0 17-8 17-17z m-210-370l0-57-234 0 0 234 234 0 0-74 68 0 0 125c0 9-8 17-17 17l-336 0c-9 0-17-8-17-17l0-336c0-9 8-17 17-17l336 0c9 0 17 8 17 17l0 108z"/>
<glyph glyph-name="shareaholic_archive" unicode="&#61556;" d="M401 0l0 512-290 0 0-512 151 115z"/>
<glyph glyph-name="skype" unicode="&#61557;" d="M495 188l-4 7 2 7c4 17 5 34 5 51 0 132-107 240-239 240-14 0-28-2-41-4l-8-1-7 4c-20 13-44 20-69 20-72 0-130-58-130-130 0-23 6-46 18-66l4-7-2-8c-3-15-5-32-5-48 0-132 108-239 240-239 15 0 29 1 44 4l7 1 6-4c19-10 40-15 62-15 72 0 130 58 130 130 0 21-4 40-13 58z m-100-61c-13-17-31-31-54-41-24-10-51-14-83-14-38 0-69 6-94 19-18 10-33 23-44 39-12 17-17 33-17 49 0 10 4 19 11 27 8 7 18 10 30 10 9 0 18-2 24-8 7-6 12-13 16-24 5-10 10-19 15-25 5-7 12-12 21-16 9-5 21-7 36-7 21 0 38 5 51 13 12 9 18 18 18 30 0 10-3 17-9 23-7 6-16 11-27 15-12 3-27 7-47 11-27 6-51 13-69 21-19 8-34 19-46 33-11 15-17 33-17 54 0 21 6 39 18 55 12 15 29 27 52 36 22 8 48 12 77 12 24 0 44-3 62-8 17-6 32-13 44-22 11-9 20-19 26-29 5-11 8-21 8-31 0-10-4-20-11-27-8-8-18-12-29-12-10 0-19 2-24 7-6 5-11 12-17 22-6 12-13 21-22 28-8 6-22 9-42 9-18 0-33-4-43-11-10-6-15-14-15-22 0-5 1-10 4-13 4-5 9-8 15-12 7-3 13-6 20-7 8-2 20-5 36-9 21-5 41-10 58-15 18-6 33-13 45-21 13-8 23-19 30-32 8-13 11-29 11-47 0-22-6-42-18-60z"/>
<glyph glyph-name="slack" unicode="&#61558;" d="M509 240c-7 22-30 33-52 26l-52-17-34 103 52 17c21 7 33 31 26 52-8 22-31 34-53 26l-52-17-18 54c-7 21-30 33-52 26-22-7-33-31-26-53l18-53-107-36-18 54c-7 21-31 33-52 26-22-7-34-31-26-53l18-53-52-18c-22-7-34-30-26-52 5-17 21-28 38-28 5 0 9 0 14 2l52 17 34-103-52-17c-21-7-33-31-26-52 6-17 22-28 39-29 4 0 9 1 14 3l52 17 18-54c5-17 21-28 38-28 4 0 9 1 14 2 22 7 33 31 26 53l-18 53 107 36 18-54c6-17 21-27 38-28 5 0 10 1 14 2 22 7 34 31 26 53l-18 53 52 18c22 7 34 30 26 52z m-289-53l-35 103 107 35 35-103z"/>
<glyph glyph-name="slideshare" unicode="&#61559;" d="M488 268c-2-1-4-3-6-4l0 198c0 28-21 50-46 50l-359 0c-26 0-46-22-46-50l0-198c-3 1-5 3-7 4-15 11-25-4-16-18 19-22 53-50 107-72-57-191 137-222 134-123 0-2 0 55 0 96 5-1 10-2 14-3 0-41 0-95 0-93-3-99 191-68 134 123 54 22 88 50 107 72 9 14-1 29-16 18z m-191-49c-24 2-33-9-34-24-6 4-12 9-18 14-1 1-1 2-2 3-6 5-14 8-28 7-31-1-89-7-157 29l0 192c0 35 9 46 41 46l317 0c31 0 41-13 41-46l0-191c-69-37-128-31-160-30z m-48 82c0-32-27-58-61-58-34 0-62 26-62 58 0 31 28 57 62 57 34 0 61-26 61-57z m144 0c0-32-28-58-62-58-34 0-61 26-61 58 0 31 27 57 61 57 34 0 62-26 62-57z"/>
<glyph glyph-name="sms" unicode="&#61560;" d="M257 472c-142 0-257-83-257-182 0-89 97-149 218-160l0-90 167 88c69 32 127 99 127 162 0 99-114 182-255 182z m-110-213c-2-6-6-10-11-14-5-4-11-7-18-10-7-2-15-3-24-3-4 0-8 0-11 0-4 1-7 1-10 2-3 0-6 1-9 2-3 0-6 2-10 3 0 4 1 9 2 14 2 4 3 9 5 13 6-2 11-4 16-5 5-1 10-1 16-1 2 0 5 0 7 0 3 1 6 1 8 3 2 1 4 2 6 4 2 2 2 4 2 7 0 4-1 7-3 8-3 2-6 4-11 5l-15 5c-10 2-17 6-22 12-6 5-8 13-8 23 0 13 4 23 14 30 9 8 21 11 37 11 7 0 13 0 19-1 7-2 13-3 20-6 0-4-1-9-3-13-1-5-3-9-4-13-4 2-9 3-14 5-5 1-10 2-15 2-6 0-10-1-14-3-3-2-4-5-4-9 0-3 1-6 3-7 2-2 6-3 10-5l14-4c5-1 9-3 13-5 4-2 7-4 10-7 2-3 4-6 6-11 1-4 2-9 2-15 0-6-1-12-4-17z m204-24c-6-1-12-2-18-2-5 0-11 1-17 2l0 74c0 9-2 16-4 20-2 5-7 8-14 8-3 0-5-1-8-1-3-1-5-3-8-5-2-2-4-6-5-10-2-4-2-9-2-16l0-70c-6-1-12-2-18-2-6 0-12 1-18 2l0 74c0 9-1 16-4 20-2 5-6 8-13 8-3 0-6-1-9-1-3-1-5-3-8-5-2-3-4-6-5-11-1-4-2-10-2-17l0-68c-6-1-12-2-18-2-6 0-12 1-18 2l0 130c3 1 5 1 7 1 3 1 5 1 8 1 3 0 5 0 8-1 2 0 4 0 6-1 1-1 1-2 2-3 0-2 1-4 1-5 0-2 1-4 1-6 0-1 0-3 0-4 2 3 4 5 6 8 2 2 5 4 8 6 3 3 6 4 10 5 4 2 8 2 13 2 20 0 33-7 39-23 3 6 8 12 14 16 6 5 14 7 23 7 15 0 26-4 33-12 7-8 10-21 10-38l0-83z m103 24c-3-6-6-10-11-14-5-4-11-7-18-10-7-2-15-3-24-3-4 0-8 0-11 0-4 1-7 1-10 2-3 0-6 1-9 2-3 0-7 2-10 3 0 4 1 9 2 14 2 4 3 9 5 13 6-2 11-4 16-5 5-1 10-1 15-1 3 0 5 0 8 0 3 1 5 1 8 3 2 1 4 2 6 4 1 2 2 4 2 7 0 4-1 7-3 8-3 2-6 4-11 5l-15 5c-10 2-17 6-22 12-6 5-8 13-8 23 0 13 4 23 13 30 10 8 22 11 38 11 6 0 13 0 19-1 7-2 13-3 20-6-1-4-2-9-3-13-1-5-3-9-5-13-4 2-8 3-13 5-5 1-10 2-15 2-6 0-11-1-14-3-3-2-5-5-5-9 0-3 2-6 4-7 2-2 5-3 10-5l14-4c5-1 9-3 13-5 3-2 7-4 9-7 3-3 5-6 7-11 1-4 2-9 2-15 0-6-1-12-4-17z"/>
<glyph glyph-name="soundcloud" unicode="&#61561;" d="M17 167l9 36-9 37c0 1-2 2-5 2-2 0-4-1-5-2l-7-37 7-36c1-1 3-2 5-2 3 0 5 0 5 2z m53-20l7 55-7 87c-1 2-3 4-6 4-4 0-6-2-7-4l-6-87 6-55c1-3 3-4 7-4 3 0 5 1 6 4z m52 0l6 55-6 116c0 2-3 5-7 5-4 0-7-3-7-5l-6-116 6-55c0-2 3-4 7-4 4 0 7 2 7 4z m52 1l5 54-5 117c0 3-3 5-8 5-4 0-8-2-8-5l-4-117 4-54c0-3 4-5 8-5 5 0 8 2 8 5z m53 1l3 53-3 134c-1 3-5 6-10 6-5 0-9-3-9-6l-3-134c0 0 3-53 3-53 0-4 4-7 9-7 5 0 9 3 10 7z m36-7c0 0 182 0 183 0 36 0 66 29 66 65 0 35-30 64-66 64-9 0-18-2-26-5-5 58-55 104-115 104-15 0-30-3-43-8-5-2-6-4-6-7l0-205c0-4 3-7 7-8z"/>
<glyph glyph-name="soup_io" unicode="&#61568;" d="M437 390c4 5 7 9 10 13 7 8 15 14 26 15 18 3 30-4 36-22 11-38-5-96-65-100-6-1-8-2-8-8 0-16 0-32-1-48-1-23-11-33-34-33-12 0-24 2-35 6-7 3-12 8-13 17 5-1 10-2 14-3 10-1 16 3 18 13 3 23 1 46 1 72-10-11-18-21-30-26-4-2-9-4-13-5-17-3-24 1-33 20-5-5-9-10-14-15-9-9-20-15-33-16-12-1-21 4-25 17-2 5-3 11-3 18 0 22 1 45 0 68 0 7 3 9 9 9 11 1 22 2 33 5 8 2 8-1 8-7 0-19 0-38 0-57 0-5-3-13 6-14 7-1 18 9 18 16 0 18 0 37 0 55 0 6 1 9 8 11 12 1 24 4 36 7 6 2 7 0 7-5-1-21-1-42-1-63 0-12 3-14 14-9 8 5 14 9 14 20-1 18 0 37 0 55 0 5 1 7 7 7 12 1 23 3 35 5 6 1 9 1 8-7 0-3 0-6 0-11z m0-43c0 0 0 0-1 0 0-5 0-11 0-16 0-5 0-10 5-12 5-3 10 0 14 4 11 12 14 27 12 42-2 10-7 15-14 14-9 0-16-7-16-17 0-5 0-10 0-15z m-261 28c42 2 57-33 48-69-6-28-28-46-58-50-9-2-18-3-27-1-23 3-37 18-39 42-4 47 26 78 76 78z m0-61c0 12 1 24-2 35-2 5-4 8-9 9-5 0-8-3-10-7-2-2-3-4-3-6-4-20-4-41-1-61 1-6 3-12 10-12 7 0 11 5 12 11 3 11 3 21 3 31z m-92 37c-21 12-59 10-76-12-13-17-10-36 7-48 7-5 15-9 23-14 4-3 9-5 8-11-1-6-7-7-11-7-13-3-24 2-35 9 0-18 0-18 5-22 25-16 64-10 82 15 13 18 9 36-10 46-8 4-16 8-24 12-4 2-8 4-8 9 1 5 6 7 10 8 11 3 21 1 32-4-2 7 4 15-3 19z m90-208c0 4 0 7 0 11 0 24 5 28 30 27 7-1 6-5 6-10 0-10-1-21-1-31 0-5-3-13 5-13 7-1 12 4 14 10 1 3 1 6 1 9 2 25 14 38 38 44 22 6 39 1 47-14 10-16 5-43-11-56-17-16-50-17-66-2-5 5-7 5-12 0-5-8-13-14-22-17-18-7-29 0-30 19 0 8 0 16 0 23 0 0 0 0 1 0z m91 5c0-6 0-10 0-14 0-5 0-12 7-13 7-1 9 6 10 12 1 11 1 23 1 35 0 4-1 10-7 10-5 0-7-4-9-8-3-7-2-16-2-22z m-91 55c-1-9 6-15 15-15 13 0 22 7 23 20 1 10-6 14-16 15-12-1-21-6-22-20z m-5-93c0 11-7 18-18 18-10-1-16-7-16-17 0-11 7-17 18-18 9 2 16 7 16 17z"/>
<glyph glyph-name="spotify" unicode="&#61569;" d="M512 326c0-26-27-42-50-29-16 9-32 17-48 24-33 13-67 22-102 28-24 4-49 7-73 8-26 2-52 2-77 1-29-2-59-5-87-11-11-3-21-5-32-8-6-2-13-2-19 0-14 4-24 16-24 31 0 14 8 28 22 32 10 4 21 6 31 9 26 5 52 9 78 12 28 2 56 3 84 2 69-2 137-12 202-35 27-9 53-20 77-34 9-6 15-13 17-23 1-2 1-4 1-7z m-231-89c40-8 78-20 115-38 8-4 15-9 23-13 14-8 30-4 38 9 7 12 6 30-9 39-1 0-3 1-4 2-28 17-58 30-89 40-61 19-124 28-188 25-30-1-59-4-88-11-12-3-24-6-36-9-11-4-18-14-19-26 0-11 7-22 18-26 6-3 13-3 20-1 41 13 83 18 124 18 33 0 64-3 95-9z m-137-55c-28-2-56-7-84-13-3-1-5-1-7-2-10-4-15-14-13-25 2-10 11-18 21-18 4 0 7 1 11 2 34 7 69 12 104 14 27 1 54-1 80-5 44-7 85-21 123-43 2-1 4-3 6-4 11-4 23 0 28 9 6 10 4 23-5 29-2 2-4 3-6 4-22 14-46 24-71 33-45 15-91 21-139 22-16-1-32-2-48-3z"/>
<glyph glyph-name="stackoverflow" unicode="&#61570;" d="M339 184l-196 48 10 39 196-48z m32 83l-180 92-18-36 179-92z m35 43l-151 133-27-31 152-132z m49 35l-113 167-34-23 114-167z m-117-169l-201 11-2-41 201-11z m-1-55l-203 0 0-40 203 0z m-240-81l0 168-40 0 0-208 358 0 0 208-39 0 0-168z"/>
<glyph glyph-name="stumbleupon" unicode="&#61571;" d="M256 452c-63 0-114-51-114-114l0-161c0-15-13-27-28-27-15 0-27 12-27 27l0 72-87 0 0-75c0-63 51-114 114-114 64 0 115 51 115 114l0 164c0 15 12 27 27 27 15 0 27-12 27-27l0-33 40-17 47 17 0 33c0 63-51 114-114 114z m27-204l0-74c0-63 51-114 115-114 63 0 114 51 114 114l0 72-87 0 0-72c0-15-12-27-27-27-15 0-28 12-28 27l0 74-47-17z"/>
<glyph glyph-name="stumpedia" unicode="&#61572;" d="M243 512c0 0-26-1-27-25 0-5-1-9-1-14 2-12 22-36-2-35-9 0-17-2-28-7-11-1-21-1-32-3 1 11 5 31 17 37 0 0 20-11 25-2 0 0 10 7 2 19 0 0-10 20-16 17 0 0-12 1-21-18 0 0-52-58-45-73 0 0-1-18 26-18l44-1c0 0 11-59 7-103l9-5c0 0-16-77-27-100-5-10-5-21-9-31-3-5-9-9-11-14-3-6 1-10 1-15 0-9-6-23-10-31-5-9-10-20-15-28-6-8-14-14-17-24 0 0-7-28-5-31 0 0-4-10 20-6 0 0 21 8 25 21 0 0 2 21 8 30 0 0 23 36 47 70 0 0 18 27 42 76 0 0 9 16 22-6 0 0 22-30 28-38 0 0-5-22 14-65 0 0 14-20 20-48l0-22 6 0c0 0-1-13 2-16 0 0 59-2 62-1 0 0 4 7-10 16 0 0-22 8-24 25 0 0-7 82-14 103 0 0 1 28-53 113 0 0-6 1-7 20l5 1c0 0-20 61-19 85l0 9 55 0c0 0 17 7 17 19 0 12 0 61 0 61 0 0 1 14-8 14 0 0-22 0-23-15 0 0 5-12 15-10 0 0 1-22-8-32 0 0-4-5-21-4 0 0-15 11-26 15 0 0 0 0-8 9 0 0-8 8-21 8 0 0-8 9 5 10 0 0 12-3 13 28 0 0 4 34-29 35z"/>
<glyph glyph-name="symphony" unicode="&#61573;" d="M318 408c-2 22-4 45-7 71 35-18 68-34 101-51 33-16 65-33 100-50-59-47-116-92-176-140-3 26-5 49-8 74-82-16-166-23-211-107-11 88 59 158 201 203z m-225-3c-95-60-122-187-60-281 62-94 189-119 282-57 31 22 55 50 71 85 7 16-1 32-21 39-17 6-16-10-20-19-25-55-85-94-144-92-68 3-116 36-143 98-24 58-10 126 37 168 18 17 41 29 64 45-22 33-33 35-66 14z"/>
<glyph glyph-name="techmeme" unicode="&#61574;" d="M213 344l-85 0 0 86 256 0 0-86-85 0 0-170-86 0z m299 168l0-512-512 0 0 512z m-469-43l0-342 426 0 0 342z m426-426l0 39-426 0 0-39z"/>
<glyph glyph-name="tinyurl" unicode="&#61575;" d="M475 37c49 50 49 132 0 182l-89 88c6-33 2-68-14-98l46-47c19-19 19-49 0-68-19-19-49-19-68 0l-47 46-20 20-39 40c-9 8-13 19-14 30-1 9 1 18 5 26 2 4 5 9 9 12 3 4 8 7 12 9 0 6-2 12-6 17l-46 45c-5-4-11-9-17-14-5-6-10-12-14-17-5-8-10-16-13-25-16-37-13-80 8-115 6-9 12-17 19-25l18-17 88-89c50-49 132-49 182 0z m-335 266l-46 47c-19 19-19 49 0 68 19 19 49 19 68 0l47-46 20-20 39-40c9-8 13-19 14-30 1-9-1-18-5-26-2-4-5-9-9-12-3-4-8-7-12-9 0-6 2-12 6-17l46-45c5 4 11 9 17 14 5 6 10 11 14 17 5 8 10 16 13 25 16 37 13 80-8 115-6 9-12 17-19 25l-18 17-88 89c-50 50-132 49-182 0-49-50-49-132 0-182l89-88c-6 33-1 68 14 98z"/>
<glyph glyph-name="tripadvisor" unicode="&#61576;" d="M145 233c0-11-10-20-21-20-12 0-21 9-21 20 0 12 9 21 21 21 11 0 21-9 21-21z m235 22c-11 0-21-10-21-21 0-12 10-21 21-21 12 0 21 9 21 21 0 11-9 21-21 21z m-191-22c0-34-28-61-62-61-34 0-62 27-62 61 0 35 28 62 62 62 34 0 62-27 62-62z m-19 0c0 24-19 43-43 43-24 0-43-19-43-43 0-23 19-42 43-42 24 0 43 19 43 42z m317 75c15-21 24-47 24-75 0-70-57-127-128-127-39 0-75 18-98 47-11-13-29-40-29-40-3 6-19 29-29 40-23-29-59-47-98-47-71 0-128 57-128 127 0 28 9 54 24 75-2 14-12 35-25 51l81 0c44 29 107 47 175 47 68 0 127-18 171-47l85 0c-13-16-23-37-25-51z m-256-75c0 57-46 103-102 103-57 0-103-46-103-103 0-57 46-102 103-102 56 0 102 45 102 102z m25 0c0 69 55 125 123 127-36 16-77 25-123 25-45 0-91-9-127-24 70-1 127-58 127-128z m230 0c0 57-46 103-103 103-56 0-102-46-102-103 0-57 46-102 102-102 57 0 103 45 103 102z m-41 1c0-34-27-62-62-62-34 0-61 28-61 62 0 34 27 62 61 62 35 0 62-28 62-62z m-19 0c0 23-19 43-43 43-23 0-42-20-42-43 0-24 19-43 42-43 24 0 43 19 43 43z"/>
<glyph glyph-name="tumblr" unicode="&#61577;" d="M412 28l0 82c-26-18-52-27-77-27-12 0-25 4-39 11-9 6-14 13-16 20-4 9-7 28-7 57l0 130 118 0 0 79-118 0 0 132-70 0c-6-31-11-53-17-66-8-16-19-31-35-44-17-13-33-23-51-28l0-73 55 0 0-178c0-20 3-38 9-53 4-11 13-23 26-35 10-10 25-19 44-26 24-6 44-9 62-9 20 0 39 2 57 7 20 4 40 11 59 21"/>
<glyph glyph-name="twitter" unicode="&#61584;" d="M512 415c-19-9-39-14-60-17 21 13 38 34 46 58-20-12-43-20-67-25-19 20-46 33-77 33-58 0-105-47-105-105 0-8 1-16 3-24-87 4-165 46-216 110-9-16-15-34-15-53 0-36 19-69 47-87-17 0-33 5-47 13 0-1 0-1 0-2 0-51 36-93 84-103-9-2-18-3-28-3-7 0-13 0-20 2 14-42 53-73 99-73-36-29-82-45-131-45-8 0-17 0-25 1 47-30 102-47 161-47 193 0 299 160 299 299 0 4 0 9 0 13 20 15 38 34 52 55z"/>
<glyph glyph-name="twitthat" unicode="&#61585;" d="M239 156c9-8 13-18 13-30 0-12-4-22-13-31-8-8-18-13-30-13l-83 0c-35 0-64 13-89 39-25 25-37 55-37 91l0 174c0 12 4 23 12 31 8 8 19 13 30 13 12 0 22-5 30-13 8-9 12-19 12-31l0-63 119 0c11 0 20-4 28-12 7-8 11-17 11-28 0-11-4-21-11-28-8-8-17-12-28-12l-119 0 0-31c0-12 4-22 12-30 9-9 18-13 30-13l83 0c12 0 22-4 30-13z m231 13l-84 0c-11 0-21 4-29 13-8 8-12 18-12 30l0 31 119 0c10 0 19 4 27 12 8 7 12 17 12 28 0 11-4 20-12 28-8 8-17 12-28 12l-118 0 0 63c0 12-4 22-13 31-8 8-18 13-29 13-12 0-22-5-30-13-9-8-13-19-13-31l0-174c0-36 13-66 37-91 25-26 55-39 89-39l84 0c11 0 21 5 30 13 8 9 12 19 12 31 0 12-4 22-12 30-9 9-19 13-30 13z"/>
<glyph glyph-name="typepad_post" unicode="&#61586;" d="M256 407c-142 0-256-68-256-153 0-18 7-47 17-51 10-4 36-15 267 82 0 0-194-87-210-125-5-13 46-55 182-55 142 0 256 67 256 151-1 84-115 151-256 151z"/>
<glyph glyph-name="viadeo" unicode="&#61587;" d="M397 184c0-49-17-92-51-129-33-37-77-55-129-55-54 0-97 18-131 55-33 37-50 80-50 129 0 48 16 91 48 126 35 40 79 59 133 59 22 0 43-3 62-10-6-12-12-27-13-43-16 6-32 9-50 9-37 0-68-14-95-42-27-27-40-61-40-100 0-26 6-49 18-71 12-22 29-39 49-51 14-8 29-13 44-16 132 51 117 302 116 316 1-2 1-4 1-4 78-207-92-314-92-314 0 0-1 0-1 0 0 0 0 0 0 0 25 0 48 6 68 18 21 12 37 29 50 51 12 22 18 45 18 71 0 20-4 39-11 57 12 2 27 7 42 17 9-23 14-47 14-73z m-160 328c43-72 66-136 71-151 0 0 0 1 0 1-11 110-71 150-71 150z m207-90c-4-48-107-104-107-104 34-34 66-30 88-17 28 17 42 54 42 54 28 83-17 145-17 145-22-46-62-54-62-54-40-10-54-26-54-26-40-40-9-89-9-89 87 20 119 91 119 91z"/>
<glyph glyph-name="vimeo" unicode="&#61588;" d="M437 478c-71 2-119-38-144-120 13 5 25 8 38 8 25 0 37-15 34-44-2-17-13-43-34-77-22-34-38-51-49-51-13 0-26 26-38 79-3 15-10 54-20 117-9 59-34 86-74 82-16-2-42-17-75-46-25-22-50-45-75-67l24-31c23 16 36 24 40 24 18 0 34-27 50-83 13-51 27-101 41-152 21-55 46-83 76-83 48 0 107 45 176 136 68 87 102 155 105 205 3 67-22 101-75 103z"/>
<glyph glyph-name="vine" unicode="&#61589;" d="M31 430c0 0 48-334 191-422 20-11 42-11 57 2 60 52 122 139 140 179 33-3 56 5 56 5l-1 64c0 0-48-1-57-1-71-1-119 84-90 156 19 50 54 14 60-1 7-16 5-57-4-88 11-26 71-39 85-18 16 47 24 132-20 176-29 29-101 44-153 11-53-33-52-103-48-138 4-36 16-110 86-151 6-8-77-116-82-111-103 106-131 336-131 336z"/>
<glyph glyph-name="vk" unicode="&#61590;" d="M251 111l30 0c0 0 9 1 14 6 4 5 4 14 4 14 0 0 0 41 19 47 19 6 43-40 68-57 20-14 34-11 34-11l69 1c0 0 35 2 18 31-1 2-9 20-50 58-43 40-38 34 14 103 32 41 44 67 40 78-4 10-27 8-27 8l-77-1c0 0-5 1-10-2-4-2-6-8-6-8 0 0-13-32-29-60-34-58-48-61-53-58-13 9-10 34-10 52 0 57 8 80-17 86-8 2-14 4-36 4-27 0-51 0-64-7-8-4-15-13-11-14 5-1 17-3 23-11 8-11 7-35 7-35 0 0 5-67-10-75-11-6-25 6-56 59-15 27-27 57-27 57 0 0-2 5-6 8-5 4-12 5-12 5l-73 0c0 0-11-1-15-5-4-5-1-13-1-13 0 0 58-134 123-202 59-62 127-58 127-58z"/>
<glyph glyph-name="wanelo" unicode="&#61591;" d="M63 512l44 0 26-87 29 87 36 0 29-87 26 87 43 0-50-152-36 0-30 87-30-87-37 0z m282 1l41 0 64-152-45 0-11 27-58 0-11-27-43 0z m37-92l-17 42-17-42z m-309-88l39 0 62-80 0 80 41 0 0-150-37 0-64 82 0-82-41 0z m169 0l120 0 0-36-79 0 0-22 72 0 0-33-72 0 0-24 80 0 0-35-121 0z m-169-179l42 0 0-114 72 0 0-36-114 0z m119-76l0 1c0 43 34 78 81 78 46 0 80-35 80-78l0 0c0-43-34-78-81-78-46 0-80 34-80 77z m119 0l0 1c0 21-16 40-39 40-22 0-38-18-38-40l0 0c0-22 16-41 39-41 23 0 38 19 38 40z"/>
<glyph glyph-name="we_heart_it" unicode="&#61592;" d="M64 224l192-188 192 188c0 0 64 59 64 127 0 96-62 128-127 128-66 0-129-78-129-78 0 0-63 78-129 78-65 0-127-32-127-128 0-68 64-127 64-127z"/>
<glyph glyph-name="weibo" unicode="&#61593;" d="M377 254c-7 2-12 4-9 13 8 21 9 39 1 51-17 24-61 23-112 1 0 0-16-7-12 6 8 25 6 47-6 59-27 28-101-1-164-65-48-48-75-99-75-143 0-85 106-141 210-141 137 0 227 86 227 150 0 38-32 60-60 69z m-166-181c-83-9-155 29-160 84-6 55 57 106 140 114 83 8 155-29 160-84 6-55-57-106-140-114z m301 250c0 85-69 154-154 154-10 0-18-8-18-18 0-10 8-18 18-18 65 0 118-53 118-118 0-10 8-18 18-18 10 0 18 8 18 18z m-72 3c-8 40-39 71-80 80-9 2-19-5-21-14-2-10 4-20 14-22 26-5 47-26 52-52 2-9 12-16 21-14 10 2 16 12 14 22z m-272-109c-33-6-56-34-50-62 5-28 37-45 70-39 34 7 56 35 51 63-6 28-38 45-71 38z"/>
<glyph glyph-name="whatsapp" unicode="&#61696;" d="M512 263c0-138-113-250-251-250-44 0-86 11-122 31l-139-44 45 134c-23 37-36 81-36 129 0 137 113 249 252 249 138 0 251-112 251-249z m-251 209c-117 0-212-94-212-209 0-46 15-89 41-123l-27-78 81 26c34-22 74-35 117-35 116 0 211 94 211 210 0 115-95 209-211 209z m127-267c-2 3-6 4-12 7-6 3-37 18-42 20-6 2-10 3-14-3-4-6-16-20-20-24-3-4-7-4-13-1-6 3-26 9-50 30-18 16-30 36-34 42-3 6 0 10 3 13 3 2 6 7 9 10 3 4 4 7 6 11 2 4 1 7 0 10-2 3-14 34-19 46-5 12-11 10-14 10-4 0-8 0-12 0-4 0-11-1-16-7-6-6-22-21-22-51 0-30 22-59 25-63 3-4 43-68 105-93 63-24 63-16 74-15 12 1 37 15 42 29 5 14 5 27 4 29z"/>
<glyph glyph-name="windows_live_favorites" unicode="&#61697;" d="M256 39l0 189 256 0 0-227z m-51 6l0 183-205 0 0-155z m0 234l0 189-205-27 0-162z m307 0l0 232-256-36 0-196z"/>
<glyph glyph-name="wordpress-blog" unicode="&#61698;" d="M0 256c0-141 115-256 256-256 141 0 256 115 256 256 0 141-115 256-256 256-141 0-256-115-256-256z m20 0c0 34 7 67 20 96l113-309c-79 39-133 119-133 213z m236-236c-23 0-46 3-67 9l71 206 73-199c0-1 1-2 1-3-24-9-50-13-78-13z m191 240c13 34 18 61 18 85 0 9-1 17-2 24 19-33 29-72 29-113 0-87-47-163-117-204z m-51 73c9-16 20-36 20-65 0-20-7-46-18-76l-24-79-85 254c14 1 27 2 27 2 12 2 11 20-2 20 0 0-38-4-63-4-23 0-62 4-62 4-13 0-14-19-2-20 0 0 12-1 25-2l37-101-52-155-86 256c14 1 27 2 27 2 13 2 11 20-1 20 0 0-38-4-63-4-5 0-10 1-15 1 42 64 114 106 197 106 62 0 118-23 160-62-1 0-2 0-3 0-24 0-40-20-40-42 0-19 11-35 23-55z"/>
<glyph glyph-name="wykop" unicode="&#61699;" d="M280 442l94 46 138-280-374-184-138 280 94 47 115-233 45 23-114 232 94 47 115-233 45 22z"/>
<glyph glyph-name="xing" unicode="&#61700;" d="M315 0l-115 201 178 311 120 0-178-311 115-201z m-188 155l89 146-67 117-113 0 67-117-89-146z"/>
<glyph glyph-name="yahoo" unicode="&#61701;" d="M278 220c-2-8 0-81 2-92 7-2 62 0 72-2l-2-22c-9 0-79 0-118 0-20 0-85-2-105-2l4 22c11 1 56-2 66 9 5 5 3 74 2 86-5 12-105 138-131 159l-68 0 0 32 228 0 0-32-69 0c31-45 75-99 94-125l92 83-55 0-8 32 200 0-21-32-45 0c0 0-131-95-138-116z m200-82l-18 1-22 3 0-34 18-2 17-1z m34 162c-6 0-60 3-67 4l1-140 30-3z"/>
<glyph glyph-name="yammer" unicode="&#61702;" d="M285 436c0-2-1-4-2-6-5-12-121-302-121-302-22-54-43-91-107-91-8 0-18 0-27 2-13 4-20 17-17 30 3 11 14 18 25 18 1 0 12-1 16-1 34 0 47 21 59 53l7 15c0 0-105 256-117 284-4 14 3 30 17 35 14 6 30-1 36-14l1-3c0 0 0 0 0 0l92-231 1 0c0 0 77 202 86 227l0 0c0 0 0 0 0 0 1 1 1 2 1 2 5 14 19 21 33 17 14-5 22-20 18-34 0-1-1-1-1-1z m152-301c9 0 17 5 22 12 7 11 5 26-6 34-36 20-97 49-119 49-4 0-6 0-8-2-2-1-3-3-3-5 1-17 96-81 104-85l3-2c2 0 5-1 7-1m-103 195c22 0 83 29 119 49 11 9 13 23 6 35-5 7-13 11-22 11-2 0-5 0-8-1l-2-1c-8-5-103-69-104-85 0-3 1-5 3-6 2-1 4-2 8-2m157-74c13 2 22 14 21 27-1 12-9 21-21 24l-3 0c-9 0-122-11-132-25-1-2-1-4 0-6 10-20 133-20 134-20l0 0z"/>
<glyph glyph-name="yc_hacker_news" unicode="&#61703;" d="M290 185l0-185-67 0 0 185-165 327 77 0 121-246 126 246 72 0z"/>
<glyph glyph-name="yelp" unicode="&#61704;" d="M129 489c26 20 76 26 96 22 21-4 31-16 32-29l1-178c0-14-7-27-16-29-9-1-23 7-30 19l-93 152c-7 12-22 17 10 43z m-31-338l94 33c13 5 25 18 26 29 2 11-8 24-21 30l-99 39c-13 5-28-7-32-27 0 0-2-69 0-83 3-14 19-26 32-21z m164-17c0 14-7 27-17 27-9 1-24-7-33-17l-65-79c-9-11-5-36 8-40l69-24c13-5 36 9 36 23z m163 19l-82 23c-14 4-29 4-34-1-5-4-4-17 3-30l52-94c6-12 33-10 41 1 0 0 31 46 37 64 5 17-4 33-17 37z m20 133c-4 12-30 47-44 59-13 12-29 11-38 0l-53-63c-9-10-11-27-5-37 5-10 21-15 35-12l91 17c17 4 17 24 14 36z"/>
<glyph glyph-name="youtube" unicode="&#61705;" d="M512 359c0 42-34 76-77 76l-358 0c-43 0-77-34-77-76l0-206c0-42 34-76 77-76l358 0c43 0 77 34 77 76z m-313-200l0 194 148-97z"/>
<glyph glyph-name="yummly" unicode="&#61712;" d="M125 237c-11-7-22-11-34-13-13-3-26-5-40-2-16 4-26 17-26 33-1 12 3 24 6 35 7 25 14 50 20 75 1 2 1 4 1 6 1 7-3 11-10 9-8-2-14-6-20-11-4-4-5-4-9 0-4 5-8 10-11 16-4 7-2 13 4 18 11 9 24 15 38 17 8 1 16 1 23 0 17-3 26-15 27-32 1-15-4-29-7-43-6-20-11-40-16-60-1-3-1-6-1-8 0-9 3-12 12-12 11 0 22 3 33 7 18 7 18 7 21 26 5 32 11 63 17 94 1 5 0 11-1 17 0 4 1 7 5 8 8 3 17 5 26 2 7-2 11-7 11-14-1-12-3-23-5-35-6-32-11-64-17-96-3-19-7-38-10-57 0-1-1-3-1-5 9-1 17-2 25-3 22-3 44-7 65-10 31-5 61-10 92-14 20-3 40-4 61-3 31 0 61 6 88 22 3 1 5 2 8 0 8-8 13-18 12-30-1-5-4-9-9-12-15-10-32-16-50-19-25-4-50-4-75-1-37 4-74 12-112 20-27 5-54 10-81 15-10 2-19 2-29 3-2-9-4-17-7-25-6-19-15-37-31-50-21-15-43-19-67-8-17 9-24 26-21 43 4 32 24 52 54 63 11 4 22 6 34 9 1 0 2 1 3 2 1 7 2 15 4 23z m-11-60c-1 0-2 0-3-1-8-3-16-5-24-10-8-4-12-11-14-21-1-9 5-15 14-12 5 1 9 4 12 8 8 10 12 23 15 36z m249 182c-8 2-16 0-24-3-4-2-5-3-4-8 1-4 2-7 1-11-4-23-8-47-12-70-2-11-4-21-5-31-1-10 3-17 13-19 8-1 17 0 24 3 4 2 5 4 4 8-1 4-2 9-1 13 4 24 8 48 13 72 0 2 1 4 2 4 5 2 10 5 14 6 6 1 10-3 10-8 0-3 0-5 0-7-3-16-6-32-8-47-2-10-3-19-4-29 0-7 4-12 11-14 9-2 17-1 26 2 4 2 5 4 4 8-1 4-1 8-1 12 4 21 7 42 11 63 2 14 3 15 14 19 1 0 2 0 3 1 7 1 11-2 11-9 0-1 0-2 0-4-3-16-6-33-8-49-2-10-3-19-4-29-1-7 4-12 11-14 9-2 18-1 26 2 4 2 5 4 4 8 0 5-1 10 0 15 3 20 7 41 10 61 2 12 5 24 3 36-1 11-9 18-20 21-10 2-20 0-30-4-7-3-13-6-19-9-8 13-21 15-34 13-10-2-19-6-29-10-3 4-7 7-12 8z m-92-142c8-1 17 0 25 4 3 1 4 3 3 6-1 4-1 9-1 13 1 8 2 16 4 24 4 25 9 49 13 74 2 11-3 19-12 21-9 2-17 0-25-3-4-1-5-4-4-7 1-5 1-11 0-16-3-20-7-39-10-59-1-11-7-14-16-16 0 0-1 0-2-1-9-1-15 4-14 14 3 13 5 26 7 40 2 11 4 22 5 33 1 8-4 13-12 15-8 2-16 0-24-3-5-2-6-3-5-8 1-3 2-7 1-10-3-17-6-34-9-51-2-13-4-26-4-39-1-16 9-26 25-29 5-1 11 0 16 1 9 2 17 6 26 8 2-6 6-10 13-11z"/>
<glyph glyph-name="zillow_digs" unicode="&#61713;" d="M279 460c-28-13-110-76-154-110 53 18 182 47 248 48-20 15-78 54-94 62z m-257-408c18 8 190 65 349 75 3 13 21 58 24 70-165-12-298-61-352-86z m364 338c0 0-160-161-185-184 48 18 148 39 211 42 8 23 15 39 15 39l85 8c0 0-64 52-126 95z m-337-261c51 52 232 219 232 219-94-22-193-52-228-68l-53-54c44 9 58 11 91 16z"/>
</font>
</defs>
</svg>
