<?xml version="1.0" encoding="utf-8"?>
<!-- Generator: Adobe Illustrator 19.0.1, SVG Export Plug-In . SVG Version: 6.00 Build 0)  -->
<svg version="1.1" xmlns="http://www.w3.org/2000/svg" xmlns:xlink="http://www.w3.org/1999/xlink" x="0px" y="0px"
	 viewBox="291.5 305.5 46.5 48.7" enable-background="new 291.5 305.5 46.5 48.7" xml:space="preserve">
<g id="Layer_2" display="none">
	<rect x="113" y="202.3" display="inline" fill="#070000" width="433.3" height="397.3"/>
</g>
<g id="hover">
</g>
<g id="default">
	<g>
		<path opacity="0.75" fill-rule="evenodd" clip-rule="evenodd" fill="#252525" d="M308.2,307.3c0.7-0.9,2.2-1.3,3.3-1l23.9,8.7
			c1.1,0.4,1.9,1.7,1.9,2.8l-0.7,25.6c0,1.2-1,2.4-2.1,2.7l-24.3,7.1c-1.1,0.3-2.5-0.2-3.2-1.2l-14.3-21.2c-0.7-1-0.6-2.5,0.1-3.4
			L308.2,307.3z"/>
		<path fill="#FFFFFF" d="M309.5,354.2c-1.2,0-2.5-0.6-3.1-1.6l-14.3-21.2c-0.8-1.2-0.8-3.1,0.1-4.3l15.4-20.2v0
			c0.9-1.2,2.7-1.7,4.1-1.2l23.9,8.7c1.4,0.5,2.5,2.1,2.4,3.6l-0.7,25.6c0,1.5-1.2,3-2.6,3.4l-24.3,7.1
			C310.1,354.1,309.8,354.2,309.5,354.2z M310.5,307c-0.7,0-1.4,0.3-1.8,0.8c0,0,0,0,0,0L293.4,328c-0.5,0.7-0.5,1.9-0.1,2.6
			l14.3,21.2c0.5,0.7,1.6,1.1,2.4,0.9l24.3-7.1c0.8-0.2,1.5-1.2,1.5-2l0.7-25.6c0-0.8-0.6-1.8-1.4-2.1l-23.9-8.7
			C311,307,310.8,307,310.5,307z"/>
		<path fill-rule="evenodd" clip-rule="evenodd" fill="#F5F5F5" d="M311.8,321.6c-0.5-0.3-1,0-1,0.6V338c0,0.6,0.4,0.9,1,0.6
			l15.6-7.6c0.5-0.3,0.6-0.7,0-1L311.8,321.6z"/>
	</g>
</g>
<g id="working" display="none">
</g>
</svg>
