<?xml version="1.0" encoding="utf-8"?>
<!-- Generator: Adobe Illustrator 19.0.1, SVG Export Plug-In . SVG Version: 6.00 Build 0)  -->
<svg version="1.1" xmlns="http://www.w3.org/2000/svg" xmlns:xlink="http://www.w3.org/1999/xlink" x="0px" y="0px"
	 viewBox="359.6 307 46.5 48.7" enable-background="new 359.6 307 46.5 48.7" xml:space="preserve">
<g id="Layer_2" display="none">
	<rect x="113" y="202.3" display="inline" fill="#070000" width="433.3" height="397.3"/>
</g>
<g id="hover">
	<g>
		<path fill="#252525" d="M376.3,308.8c0.7-0.9,2.2-1.3,3.3-1l23.9,8.7c1.1,0.4,1.9,1.7,1.9,2.8l-0.7,25.6c0,1.2-1,2.4-2.1,2.7
			l-24.3,7.1c-1.1,0.3-2.5-0.2-3.2-1.2l-14.3-21.2c-0.7-1-0.6-2.5,0.1-3.4L376.3,308.8z"/>
		<path fill="#FFFFFF" d="M377.6,355.7c-1.2,0-2.5-0.6-3.1-1.6l-14.3-21.2c-0.8-1.2-0.8-3.1,0.1-4.3l15.4-20.2l0,0
			c0.9-1.2,2.7-1.7,4.1-1.2l23.9,8.7c1.4,0.5,2.5,2.1,2.4,3.6l-0.7,25.6c0,1.5-1.2,3-2.6,3.4l-24.3,7.1
			C378.2,355.6,377.9,355.7,377.6,355.7z M378.6,308.5c-0.7,0-1.4,0.3-1.8,0.8l0,0l-15.3,20.2c-0.5,0.7-0.5,1.9-0.1,2.6l14.3,21.2
			c0.5,0.7,1.6,1.1,2.4,0.9l24.3-7.1c0.8-0.2,1.5-1.2,1.5-2l0.7-25.6c0-0.8-0.6-1.8-1.4-2.1l-23.9-8.7
			C379.1,308.5,378.9,308.5,378.6,308.5z"/>
		<path fill="#F5F5F5" d="M379.9,323.1c-0.5-0.3-1,0-1,0.6v15.8c0,0.6,0.4,0.9,1,0.6l15.6-7.6c0.5-0.3,0.6-0.7,0-1L379.9,323.1z"/>
	</g>
</g>
<g id="default">
</g>
<g id="working" display="none">
</g>
</svg>
