<?xml version="1.0" encoding="utf-8"?>
<!-- Generator: Adobe Illustrator 18.1.0, SVG Export Plug-In . SVG Version: 6.00 Build 0)  -->
<svg version="1.0" id="Layer_1" xmlns="http://www.w3.org/2000/svg" xmlns:xlink="http://www.w3.org/1999/xlink" x="0px" y="0px"
	 viewBox="0 0 137.5 41.3" enable-background="new 0 0 137.5 41.3" xml:space="preserve">
<polygon fill-rule="evenodd" clip-rule="evenodd" fill="#6EAE00" points="0,0 122,0 137.5,20.6 122,41.3 0,41.3 0,0 "/>
<polygon fill="#FFFFFF" points="11.2,31 11.2,10.3 15.3,10.3 15.3,31 11.2,31 "/>
<polygon fill="#FFFFFF" points="31.7,31.1 23.8,20.2 22.1,16.9 22,16.9 22.5,20.2 22.5,31 18.5,31 18.5,10.2 21.5,10.2 29.6,21.2 
	31.2,24.3 31.3,24.3 30.8,21.2 30.8,10.3 34.8,10.3 34.8,31.1 31.7,31.1 "/>
<path fill="#FFFFFF" d="M47.1,13.7c-0.9-0.2-1.8-0.3-2.9-0.3c-1,0-1.7,0.2-2.2,0.6c-0.5,0.4-0.8,0.9-0.8,1.5c0,0.6,0.2,1.1,0.7,1.5
	c0.5,0.4,1.1,0.8,1.8,1.1c0.7,0.3,1.5,0.7,2.3,1c0.8,0.4,1.6,0.8,2.3,1.3c0.7,0.5,1.3,1.1,1.8,1.9c0.5,0.7,0.7,1.7,0.7,2.8
	c0,1.1-0.2,2.1-0.6,2.8c-0.4,0.8-0.9,1.5-1.6,2c-0.7,0.5-1.5,0.9-2.5,1.2c-1,0.3-2,0.4-3.2,0.4c-1.5,0-2.8-0.1-4-0.4
	c-1.1-0.3-2-0.6-2.5-0.8l1.3-3.5c0.2,0.1,0.5,0.2,0.9,0.4s0.8,0.3,1.2,0.4c0.4,0.1,0.9,0.2,1.4,0.3c0.5,0.1,1,0.1,1.5,0.1
	c1.2,0,2.2-0.2,2.8-0.6c0.7-0.4,1-1,1-1.8c0-0.6-0.2-1.1-0.7-1.5c-0.5-0.4-1.1-0.8-1.8-1.1c-0.7-0.3-1.5-0.7-2.3-1
	c-0.8-0.3-1.6-0.8-2.3-1.3c-0.7-0.5-1.3-1.1-1.8-1.9c-0.5-0.7-0.7-1.7-0.7-2.9c0-1,0.2-1.9,0.5-2.6c0.3-0.7,0.8-1.4,1.5-1.8
	c0.6-0.5,1.4-0.9,2.3-1.1c0.9-0.2,1.8-0.4,2.9-0.4c1.2,0,2.4,0.1,3.5,0.3c1.1,0.2,2,0.5,2.7,0.9l-1.3,3.4C48.7,14.2,48,14,47.1,13.7
	L47.1,13.7z"/>
<polygon fill="#FFFFFF" points="52.9,31 52.9,10.3 57,10.3 57,31 52.9,31 "/>
<path fill="#FFFFFF" d="M76.3,16.2c-0.4-1.3-1-2.4-1.8-3.3c-0.8-0.9-1.9-1.6-3.2-2.2c-1.3-0.5-2.9-0.8-4.8-0.8c-0.4,0-0.9,0-1.4,0
	c-0.5,0-1.1,0-1.7,0c-0.6,0-1.1,0-1.6,0.1c-0.5,0-1,0.1-1.4,0.1V31c0.3,0,0.7,0.1,1.2,0.1c0.5,0,1.1,0.1,1.6,0.1
	c0.6,0,1.1,0.1,1.7,0.1c0.5,0,1,0,1.3,0c2,0,3.7-0.3,5.1-0.9c1.4-0.6,2.5-1.4,3.3-2.4c0.8-1,1.5-2.2,1.8-3.5c0.4-1.3,0.5-2.6,0.5-4
	C76.8,18.9,76.6,17.5,76.3,16.2z M72.2,23.2c-0.2,0.9-0.5,1.6-1,2.3c-0.5,0.7-1.1,1.2-1.8,1.6c-0.8,0.4-1.8,0.6-2.9,0.6
	c-0.1,0-0.3,0-0.5,0c-0.2,0-0.4,0-0.6,0c-0.2,0-0.4,0-0.6,0c-0.2,0-0.3,0-0.4,0V13.7c0.2,0,0.6-0.1,1-0.1c0.5,0,0.9,0,1.3,0
	c1.2,0,2.1,0.2,2.8,0.6c0.7,0.4,1.3,0.9,1.8,1.6c0.4,0.6,0.7,1.4,0.9,2.2c0.2,0.8,0.2,1.6,0.2,2.4C72.5,21.4,72.4,22.3,72.2,23.2z"
	/>
<polygon fill="#FFFFFF" points="92,27.4 92,31 79.3,31 79.3,10.3 91.9,10.3 91.9,13.9 83.5,13.9 83.5,18.7 91.1,18.7 91.1,22.3 
	83.5,22.3 83.5,27.4 92,27.4 "/>
<path fill="#FFFFFF" d="M105.2,23.1l-1.5-0.9c1.4-0.4,2.4-1.2,3.2-2.2c0.8-1.1,1.2-2.4,1.2-4.1c0-1.1-0.2-2.1-0.7-2.8
	c-0.5-0.8-1.1-1.4-1.8-1.8c-0.8-0.4-1.6-0.7-2.6-0.9c-1-0.2-1.9-0.3-2.9-0.3c-0.4,0-0.9,0-1.4,0c-0.5,0-1,0-1.6,0.1
	c-0.5,0-1.1,0.1-1.6,0.2c-0.5,0.1-1,0.1-1.5,0.2V31h4.1v-8.5l2.2,0.4l4.8,8.1h4.8L105.2,23.1z M102.8,19c-0.7,0.5-1.6,0.8-2.8,0.8
	h-1.8v-6c0.2-0.1,0.5-0.1,1-0.1c0.4,0,0.8,0,1.3,0c1.1,0,1.9,0.3,2.5,0.8c0.6,0.5,0.8,1.2,0.8,2.1C103.8,17.6,103.5,18.5,102.8,19z"
	/>
</svg>
