<?xml version="1.0" encoding="utf-8"?>
<!-- Generator: Adobe Illustrator 18.1.1, SVG Export Plug-In . SVG Version: 6.00 Build 0)  -->
<svg version="1.1" id="Layer_1" xmlns="http://www.w3.org/2000/svg" xmlns:xlink="http://www.w3.org/1999/xlink" x="0px" y="0px"
	 viewBox="0 0 27 26.7" enable-background="new 0 0 27 26.7" xml:space="preserve">
<g>
	<path fill="#FFFFFF" d="M14.5,6.2L24,12c0,0-1.4,4.6-1.6,5.5s-5.6,3.9-5.6,3.9H8c0,0-2.9-3-2.7-3.4s0.6-9.4,0.6-9.4l7.7-4.1
		L14.5,6.2z"/>
	<g>
		<path fill="#F4472C" d="M13.5,25.9c-6.9,0-12.6-5.6-12.6-12.6S6.6,0.8,13.5,0.8s12.6,5.6,12.6,12.6S20.4,25.9,13.5,25.9z
			 M16.6,11.9v-1c0-1.7-1.5-3.1-3.2-3.1c-1.7,0-3.2,1.4-3.2,3.1v4.6c0,0.4-0.3,0.8-0.8,0.8c-0.4,0-0.8-0.3-0.8-0.8v-2H6.2
			c0,2,0,2,0,2c0,1.8,1.4,3.2,3.2,3.2c1.7,0,3.2-1.4,3.2-3.2V11c0-0.4,0.3-0.8,0.8-0.8c0.4,0,0.8,0.3,0.8,0.8v0.9l1,0.5L16.6,11.9z
			 M20.5,13.6h-2.5v2.1c0,0.4-0.3,0.8-0.8,0.8c-0.4,0-0.8-0.3-0.8-0.8v-2L15.1,14l-1-0.5v2c0,1.7,1.5,3.2,3.2,3.2
			c1.8,0,3.2-1.4,3.2-3.2C20.5,15.6,20.5,15.6,20.5,13.6z"/>
	</g>
</g>
</svg>
