<?xml version="1.0" encoding="utf-8"?>
<!-- Generator: Adobe Illustrator 15.0.2, SVG Export Plug-In . SVG Version: 6.00 Build 0)  -->
<!DOCTYPE svg PUBLIC "-//W3C//DTD SVG 1.1//EN" "http://www.w3.org/Graphics/SVG/1.1/DTD/svg11.dtd">
<svg version="1.1" id="Layer_1" xmlns="http://www.w3.org/2000/svg" xmlns:xlink="http://www.w3.org/1999/xlink" x="0px" y="0px"
	 width="80.209px" height="50.802px" viewBox="0 0 80.209 50.802" enable-background="new 0 0 80.209 50.802" xml:space="preserve">
<g>
	<g>
		<g>
			<path fill="#FFFFFF" d="M61.443,12.928V2.452l-1.395-1.395H1.832V1.053L1.74,1.058L1.651,1.071L1.566,1.092l-0.085,0.03
				L1.398,1.162L1.322,1.207L1.25,1.261l-0.067,0.06L1.123,1.39L1.068,1.46L1.024,1.539l-0.04,0.082l-0.03,0.085L0.933,1.79
				L0.92,1.878L0.915,1.97v47.056l0.004,0.092l0.014,0.088l0.02,0.085l0.03,0.086l0.039,0.082l0.043,0.078l0.054,0.071l0.061,0.067
				l0.067,0.061l0.071,0.054l0.076,0.044l0.082,0.039l0.085,0.03l0.085,0.022l0.089,0.013l0.091,0.004H60.52l0.091-0.004
				l0.089-0.013l0.087-0.022l0.085-0.03l0.082-0.039l0.078-0.044l0.072-0.054l0.068-0.061l0.06-0.067l0.053-0.071l0.043-0.078
				l0.039-0.082l0.03-0.086l0.02-0.085l0.014-0.088l0.005-0.092v-1.41l2.328-2.328V15.255L61.443,12.928z M12.939,47.885
				c-1.247,0-2.257-1.01-2.257-2.257c0-1.247,1.01-2.256,2.257-2.256s2.258,1.01,2.258,2.256
				C15.198,46.875,14.187,47.885,12.939,47.885z M58.77,15.993c1.247,0,2.257,1.01,2.257,2.257c0,1.246-1.01,2.257-2.257,2.257
				c-1.247,0-2.257-1.01-2.257-2.257C56.513,17.002,57.525,15.993,58.77,15.993z M58.929,45.2c-1.247,0-2.257-1.01-2.257-2.257
				c0-1.247,1.01-2.257,2.257-2.257c1.248,0,2.258,1.01,2.258,2.257C61.186,44.19,60.174,45.2,58.929,45.2z"/>
		</g>
	</g>
	<g>
		
			<line fill="none" stroke="#FFFFFF" stroke-width="0.5853" stroke-miterlimit="10" x1="71.605" y1="1.053" x2="80.209" y2="1.053"/>
		
			<line fill="none" stroke="#FFFFFF" stroke-width="0.5853" stroke-miterlimit="10" x1="71.605" y1="49.942" x2="80.209" y2="49.942"/>
		
			<line fill="none" stroke="#FFFFFF" stroke-width="0.5853" stroke-miterlimit="10" x1="75.907" y1="1.053" x2="75.907" y2="49.942"/>
	</g>
</g>
</svg>
