<?xml version="1.0" encoding="utf-8"?>
<!-- Generator: Adobe Illustrator 15.0.2, SVG Export Plug-In . SVG Version: 6.00 Build 0)  -->
<!DOCTYPE svg PUBLIC "-//W3C//DTD SVG 1.1//EN" "http://www.w3.org/Graphics/SVG/1.1/DTD/svg11.dtd">
<svg version="1.1" id="Layer_1" xmlns="http://www.w3.org/2000/svg" xmlns:xlink="http://www.w3.org/1999/xlink" x="0px" y="0px"
	 width="64.011px" height="47.52px" viewBox="0 0 64.011 47.52" enable-background="new 0 0 64.011 47.52" xml:space="preserve">
<g>
	<g>
		<path fill="#FFFFFF" d="M32.249,1.629c-3.418,3.433-6.715,6.708-9.968,10.027c-1.606,1.638-2.783,3.514-2.646,5.942
			c0.106,1.875,1.045,3.38,2.112,4.857c0.644,0.891,1.243,1.86,1.623,2.884c0.433,1.165-0.092,1.672-1.301,1.613
			c-3.318-0.16-6.577,0.021-9.377,2.12c-0.942,0.706-1.997,1.374-1.961,2.812c0.005,0.203-0.297,0.438-0.495,0.617
			c-0.295,0.268-0.623,0.5-0.939,0.744c-2.007,1.54-2.223,4.069,0.952,5.876c0.198-0.602,0.224-1.53,0.631-1.749
			c1.103-0.59,2.354-1.125,3.574-1.195c0.744-0.043,1.679,0.677,2.286,1.294c1.454,1.478,2.482,3.198,2.443,5.414
			c-0.011,0.606,0.38,1.22,0.614,1.911c0.079-0.297,0.143-0.541,0.259-0.977c0.094,0.493,0.167,0.789,0.205,1.09
			c0.244,1.925-0.234,2.383-2.072,1.934C8.863,44.558,2.008,36.955,0.37,27.876C-1.83,15.685,5.979,3.356,18.722,0.552
			C23.253-0.445,27.74-0.093,32.249,1.629z"/>
		<path fill="#FFFFFF" d="M26.889,10.701c2.036-2.933,4.431-5.601,6.596-8.513c0.703,0.356,1.364,0.692,2.146,1.088
			c-2.83,2.628-5.573,5.174-8.315,7.721C27.174,10.898,27.031,10.799,26.889,10.701z"/>
		<path fill="#FFFFFF" d="M34.899,7.509c0.827-0.992,1.653-1.983,2.517-3.018c0.347,0.218,0.642,0.403,1.062,0.667
			c-1.189,0.872-2.296,1.681-3.402,2.491C35.016,7.603,34.958,7.556,34.899,7.509z"/>
	</g>
	<g>
		<g>
			<path fill="#FFFFFF" d="M50.542,42.878c-0.514,1.158-5.189,4.644-8.171,4.642c-9.308-0.007-14.748-6.002-14.99-12.148
				c-0.282-7.153,6.872-13.543,14.27-12.788c1.459,0.148,2.734,0.508,4.369,1.107l-2.057,3.777
				c-0.918-0.401-2.312-0.855-4.624-0.604c-3.679,0.401-6.837,4.252-6.783,8.256c0,4.503,4.651,7.909,8.427,7.909
				c1.839,0,4.42-1.208,5.447-2.165L50.542,42.878z"/>
		</g>
	</g>
	<g>
		<g>
			<path fill="#FFFFFF" d="M54.979,43.13c2.507-0.14,4.41-1.347,4.41-2.922c0-1.502-2.014-2.979-5.139-3.525
				c-4.26-0.744-7.975-3.4-7.975-6.904c0-4.111,3.502-7.256,9.299-7.256c5.476,0,6.977,2.278,7.871,3.686l-3.494,2.52
				c-0.708-0.794-1.826-2.283-5.668-2.027c-2.404,0.16-3.576,1.362-3.576,2.613c0,1.537,1.387,2.216,4.559,3.396
				c4.342,1.572,8.745,1.203,8.745,7.146c0,4.039-4.349,7.51-11.097,7.51c-1.732,0-3.182-0.348-3.929-0.633
				c0,0,3.002-2.248,4.337-3.604H54.979z"/>
		</g>
	</g>
</g>
</svg>
