<?xml version="1.0" encoding="utf-8"?>
<!-- Generator: Adobe Illustrator 18.1.1, SVG Export Plug-In . SVG Version: 6.00 Build 0)  -->
<svg version="1.1" id="Layer_1" xmlns="http://www.w3.org/2000/svg" xmlns:xlink="http://www.w3.org/1999/xlink" x="0px" y="0px"
	 width="55.1px" height="46.2px" viewBox="-164 105.8 55.1 46.2" enable-background="new -164 105.8 55.1 46.2"
	 xml:space="preserve">
<g>
	<g>
		<defs>
			<rect id="SVGID_1_" x="-160.5" y="105.8" width="9.4" height="7.6"/>
		</defs>
		<clipPath id="SVGID_2_">
			<use xlink:href="#SVGID_1_"  overflow="visible"/>
		</clipPath>
		<path clip-path="url(#SVGID_2_)" fill="#FFFFFF" d="M-158.5,116.1v-8.5c0-0.6,0.5-1.1,1.1-1.1h2.1c0.6,0,1.1,0.5,1.1,1.1v8.5
			c0,0.6-0.5,1.1-1.1,1.1h-2.1C-158,117.2-158.5,116.7-158.5,116.1z"/>
	</g>
	<g>
		<defs>
			<rect id="SVGID_3_" x="-160.5" y="105.8" width="9.4" height="7.6"/>
		</defs>
		<clipPath id="SVGID_4_">
			<use xlink:href="#SVGID_3_"  overflow="visible"/>
		</clipPath>
		<path clip-path="url(#SVGID_4_)" fill="#FFFFFF" d="M-148.9,115.4v-7.2c0-1,0.8-1.7,1.7-1.7h0.8c1,0,1.7,0.8,1.7,1.7v7.2
			c0,1-0.8,1.7-1.7,1.7h-0.8C-148.1,117.2-148.9,116.4-148.9,115.4z"/>
	</g>
</g>
<g>
	<g>
		<defs>
			<rect id="SVGID_5_" x="-150.5" y="105.8" width="9.4" height="7.6"/>
		</defs>
		<clipPath id="SVGID_6_">
			<use xlink:href="#SVGID_5_"  overflow="visible"/>
		</clipPath>
		<path clip-path="url(#SVGID_6_)" fill="#FFFFFF" d="M-148.5,116.3v-9c0-0.5,0.4-0.9,0.9-0.9h2.6c0.5,0,0.9,0.4,0.9,0.9v9
			c0,0.5-0.4,0.9-0.9,0.9h-2.6C-148.1,117.2-148.5,116.8-148.5,116.3z"/>
	</g>
</g>
<g>
	<g>
		<defs>
			<rect id="SVGID_7_" x="-140.5" y="105.8" width="9.4" height="7.6"/>
		</defs>
		<clipPath id="SVGID_8_">
			<use xlink:href="#SVGID_7_"  overflow="visible"/>
		</clipPath>
		<path clip-path="url(#SVGID_8_)" fill="#FFFFFF" d="M-138.5,116.1v-8.6c0-0.6,0.5-1,1-1h2.2c0.6,0,1,0.5,1,1v8.6c0,0.6-0.5,1-1,1
			h-2.2C-138,117.2-138.5,116.7-138.5,116.1z"/>
	</g>
</g>
<g>
	<g>
		<defs>
			<rect id="SVGID_9_" x="-130.5" y="105.8" width="9.4" height="7.6"/>
		</defs>
		<clipPath id="SVGID_10_">
			<use xlink:href="#SVGID_9_"  overflow="visible"/>
		</clipPath>
		<path clip-path="url(#SVGID_10_)" fill="#FFFFFF" d="M-128.5,116.2v-8.8c0-0.5,0.4-0.9,0.9-0.9h2.4c0.5,0,0.9,0.4,0.9,0.9v8.8
			c0,0.5-0.4,0.9-0.9,0.9h-2.4C-128.1,117.2-128.5,116.8-128.5,116.2z"/>
	</g>
</g>
<g>
	<g>
		<defs>
			<rect id="SVGID_11_" x="-120.5" y="105.8" width="9.4" height="7.6"/>
		</defs>
		<clipPath id="SVGID_12_">
			<use xlink:href="#SVGID_11_"  overflow="visible"/>
		</clipPath>
		<path clip-path="url(#SVGID_12_)" fill="#FFFFFF" d="M-118.5,116.2v-8.7c0-0.6,0.5-1,1-1h2.3c0.6,0,1,0.5,1,1v8.7c0,0.6-0.4,1-1,1
			h-2.3C-118,117.2-118.5,116.7-118.5,116.2z"/>
	</g>
</g>
<g>
	<g>
		<defs>
			<rect id="SVGID_13_" x="-121.9" y="144.4" width="9.4" height="7.6"/>
		</defs>
		<clipPath id="SVGID_14_">
			<use xlink:href="#SVGID_13_"  overflow="visible"/>
		</clipPath>
		<path clip-path="url(#SVGID_14_)" fill="#FFFFFF" d="M-114.4,141.8v8.5c0,0.6-0.5,1.1-1.1,1.1h-2.1c-0.6,0-1.1-0.5-1.1-1.1v-8.5
			c0-0.6,0.5-1.1,1.1-1.1h2.1C-114.9,140.7-114.4,141.2-114.4,141.8z"/>
	</g>
	<g>
		<defs>
			<rect id="SVGID_15_" x="-121.9" y="144.4" width="9.4" height="7.6"/>
		</defs>
		<clipPath id="SVGID_16_">
			<use xlink:href="#SVGID_15_"  overflow="visible"/>
		</clipPath>
		<path clip-path="url(#SVGID_16_)" fill="#FFFFFF" d="M-124,142.4v7.2c0,1-0.8,1.7-1.7,1.7h-0.8c-1,0-1.7-0.8-1.7-1.7v-7.2
			c0-1,0.8-1.7,1.7-1.7h0.8C-124.8,140.7-124,141.4-124,142.4z"/>
	</g>
</g>
<g>
	<g>
		<defs>
			<rect id="SVGID_17_" x="-131.9" y="144.4" width="9.4" height="7.6"/>
		</defs>
		<clipPath id="SVGID_18_">
			<use xlink:href="#SVGID_17_"  overflow="visible"/>
		</clipPath>
		<path clip-path="url(#SVGID_18_)" fill="#FFFFFF" d="M-124.4,141.5v9c0,0.5-0.4,0.9-0.9,0.9h-2.6c-0.5,0-0.9-0.4-0.9-0.9v-9
			c0-0.5,0.4-0.9,0.9-0.9h2.6C-124.8,140.7-124.4,141-124.4,141.5z"/>
	</g>
</g>
<g>
	<g>
		<defs>
			<rect id="SVGID_19_" x="-141.9" y="144.4" width="9.4" height="7.6"/>
		</defs>
		<clipPath id="SVGID_20_">
			<use xlink:href="#SVGID_19_"  overflow="visible"/>
		</clipPath>
		<path clip-path="url(#SVGID_20_)" fill="#FFFFFF" d="M-134.4,141.7v8.6c0,0.6-0.5,1-1,1h-2.2c-0.6,0-1-0.5-1-1v-8.6
			c0-0.6,0.5-1,1-1h2.2C-134.9,140.7-134.4,141.1-134.4,141.7z"/>
	</g>
</g>
<g>
	<g>
		<defs>
			<rect id="SVGID_21_" x="-151.9" y="144.4" width="9.4" height="7.6"/>
		</defs>
		<clipPath id="SVGID_22_">
			<use xlink:href="#SVGID_21_"  overflow="visible"/>
		</clipPath>
		<path clip-path="url(#SVGID_22_)" fill="#FFFFFF" d="M-144.4,141.6v8.8c0,0.5-0.4,0.9-0.9,0.9h-2.4c-0.5,0-0.9-0.4-0.9-0.9v-8.8
			c0-0.5,0.4-0.9,0.9-0.9h2.4C-144.9,140.7-144.4,141.1-144.4,141.6z"/>
	</g>
</g>
<g>
	<g>
		<defs>
			<rect id="SVGID_23_" x="-161.9" y="144.4" width="9.4" height="7.6"/>
		</defs>
		<clipPath id="SVGID_24_">
			<use xlink:href="#SVGID_23_"  overflow="visible"/>
		</clipPath>
		<path clip-path="url(#SVGID_24_)" fill="#FFFFFF" d="M-154.4,141.7v8.7c0,0.6-0.5,1-1,1h-2.3c-0.6,0-1-0.4-1-1v-8.7
			c0-0.6,0.5-1,1-1h2.3C-154.9,140.7-154.4,141.1-154.4,141.7z"/>
	</g>
</g>
<path fill="#FFFFFF" d="M-112.3,114.4h-48.4c-1.8,0-3.3,1.5-3.3,3.3v22.1c0,1.8,1.5,3.3,3.3,3.3h48.4c1.8,0,3.3-1.5,3.3-3.3v-22.1
	C-108.9,115.9-110.4,114.4-112.3,114.4z M-162.8,134v-10.4c0,0,5.2,0.5,5.2,5.2C-157.6,133.5-162.8,134-162.8,134z"/>
</svg>
