<?xml version="1.0" encoding="utf-8"?>
<!-- Generator: Adobe Illustrator 15.0.2, SVG Export Plug-In . SVG Version: 6.00 Build 0)  -->
<!DOCTYPE svg PUBLIC "-//W3C//DTD SVG 1.1//EN" "http://www.w3.org/Graphics/SVG/1.1/DTD/svg11.dtd">
<svg version="1.1" id="Layer_1" xmlns="http://www.w3.org/2000/svg" xmlns:xlink="http://www.w3.org/1999/xlink" x="0px" y="0px"
	 width="48.49px" height="48.646px" viewBox="0 0 48.49 48.646" enable-background="new 0 0 48.49 48.646" xml:space="preserve">
<g>
	<g>
		<g>
			<path fill="#FFFFFF" d="M34.98,36.548v0.087h0.002c0.021,1.595,1.233,2.836,2.789,3.003h0.211h7.417h0.089
				c1.666-0.023,2.928-1.344,2.994-3.003h0.006V36.55v-0.002v-0.76H34.98V36.548z"/>
		</g>
		<g>
			<path fill="#FFFFFF" d="M37.983,9.615c-1.596,0.021-2.836,1.236-3.003,2.789v0.316H48.49v-0.105
				c-0.023-1.696-1.391-2.979-3.087-3.003h-0.002h-7.417V9.615z"/>
		</g>
		<g>
			<g>
				<rect x="34.98" y="26.029" fill="#FFFFFF" width="13.509" height="6.207"/>
			</g>
			<g>
				<rect x="34.98" y="16.273" fill="#FFFFFF" width="13.509" height="6.207"/>
			</g>
			<g>
				<rect x="40.235" y="35.788" fill="#FFFFFF" width="3.003" height="12.857"/>
			</g>
			<g>
				<rect x="40.235" y="0.605" fill="#FFFFFF" width="3.003" height="12.116"/>
			</g>
		</g>
	</g>
	<g>
		<polygon fill="#FFFFFF" points="14.641,48.086 11.673,48.086 11.673,39.385 0.536,33.561 12.278,29.047 0,24.327 12.276,19.606 
			0.357,15.025 12.675,9.227 12.659,0.612 15.626,0.605 15.645,11.107 7.91,14.75 20.546,19.606 8.268,24.327 20.546,29.047 
			7.732,33.974 14.641,37.588 		"/>
	</g>
</g>
</svg>
