<?xml version="1.0" standalone="no"?>
<!DOCTYPE svg PUBLIC "-//W3C//DTD SVG 1.1//EN" "http://www.w3.org/Graphics/SVG/1.1/DTD/svg11.dtd" >
<svg xmlns="http://www.w3.org/2000/svg" xmlns:xlink="http://www.w3.org/1999/xlink" version="1.1">
<metadata></metadata>
<defs>
<font id="typoninesans_probold" horiz-adv-x="1251" >
<font-face units-per-em="2048" ascent="1597" descent="-451" />
<missing-glyph horiz-adv-x="438" />
<glyph unicode="&#xfb01;" horiz-adv-x="1239" d="M1133 977v-977h-326v739h-295v-739h-326v733h-145v225l145 19v63q0 105 44.5 182.5t120 119.5t161.5 61.5t184 19.5q190 0 371 -53l-55 -276q-48 28 -128 54t-155 26q-115 0 -166 -31t-51 -121v-45h621z" />
<glyph unicode="&#xfb02;" horiz-adv-x="1247" d="M1133 1403v-1403h-326v1184q-69 16 -123 16q-172 0 -172 -153v-70h199v-238h-199v-739h-326v733h-145v225l145 19v63q0 105 44.5 182.5t120 119.5t161.5 61.5t184 19.5q96 0 209 -20h228z" />
<glyph unicode="&#xfb03;" horiz-adv-x="1861" d="M1755 977v-977h-325v739h-295v-739h-326v739h-297v-739h-326v733h-145v225l145 19v43q0 81 30 146.5t79 109t116 73t138 42t147 12.5q137 0 285 -55q131 75 338 75q190 0 371 -53l-56 -276q-48 28 -127.5 54t-154.5 26q-115 0 -166 -31t-51 -121v-45h620zM512 1001v-24 h297v63q0 42 10 90q-65 35 -149 35q-72 0 -115 -39t-43 -125z" />
<glyph unicode="&#xfb04;" horiz-adv-x="1867" d="M1753 1403v-1403h-326v1184q-69 16 -122 16q-172 0 -172 -153v-70h198v-238h-198v-739h-326v739h-295v-739h-326v733h-145v225l145 19v43q0 81 30 146.5t79 109t116 73t138 42t147 12.5q133 0 285 -55q133 75 336 75q96 0 209 -20h227zM512 1001v-24h295v63q0 42 10 90 q-75 35 -147 35t-115 -39t-43 -125z" />
<glyph horiz-adv-x="0" />
<glyph horiz-adv-x="682" />
<glyph unicode=" "  horiz-adv-x="438" />
<glyph unicode="&#x09;" horiz-adv-x="438" />
<glyph unicode="&#xa0;" horiz-adv-x="438" />
<glyph unicode="!" horiz-adv-x="604" d="M154 1331h297v-444l-29 -375h-240l-28 377v442zM113 154q0 82 50 129t138 47q86 0 138.5 -45t52.5 -131q0 -85 -49 -131t-142 -46q-94 0 -141 45.5t-47 131.5z" />
<glyph unicode="&#x22;" horiz-adv-x="866" d="M389 1331l-55 -600h-221l-56 600h332zM809 1331l-55 -600h-222l-53 600h330z" />
<glyph unicode="#" horiz-adv-x="1269" d="M629 0l53 272h-215l-53 -272h-260l53 272h-164l41 189h160l39 201h-177l41 188h172l54 270h260l-53 -270h215l53 270h260l-53 -270h176l-41 -188h-172l-39 -201h188l-41 -189h-184l-53 -272h-260zM543 662l-39 -201h215l39 201h-215z" />
<glyph unicode="$" horiz-adv-x="1015" d="M444 1391h140v-105q168 -9 331 -94l-77 -242q-132 95 -254 111v-262q47 -19 77 -32.5t74.5 -37t73.5 -45t62.5 -53.5t52.5 -65.5t32 -78t13 -94.5q0 -144 -105.5 -235t-279.5 -115v-96h-140v90q-227 4 -395 113l88 231q76 -49 160 -82t147 -39v318q-50 22 -75.5 34 t-72 36t-71.5 42t-58.5 47t-50.5 56.5t-29.5 64.5t-12.5 78q0 139 101 234t269 114v107zM694 371q0 74 -110 139v-240q110 26 110 101zM352 963q0 -54 92 -103v195q-92 -22 -92 -92z" />
<glyph unicode="%" horiz-adv-x="1589" d="M403 1350q166 0 259.5 -89.5t93.5 -269.5q0 -154 -101.5 -255t-259.5 -101q-162 0 -258 93t-96 263q0 162 99.5 260.5t262.5 98.5zM1260 1137l-773 -1026l-155 102l778 1034zM399 838q61 0 87 37t26 116q0 78 -26 117t-87 39q-63 0 -88.5 -37t-25.5 -119q0 -78 26 -115.5 t88 -37.5zM1186 694q166 0 259 -89t93 -269q0 -154 -101 -255t-259 -101q-162 0 -258.5 93t-96.5 263q0 162 100 260t263 98zM1182 182q61 0 86.5 37.5t25.5 116.5q0 78 -25.5 117t-86.5 39q-63 0 -89 -37t-26 -119q0 -78 26.5 -116t88.5 -38z" />
<glyph unicode="&#x26;" horiz-adv-x="1538" d="M47 334q0 136 92 236t250 145q-51 145 -51 276q0 160 103.5 259.5t291.5 99.5q65 0 126 -15.5t117.5 -48.5t91 -95.5t34.5 -146.5q0 -72 -30.5 -140t-82.5 -121t-115.5 -94t-134.5 -66q79 -170 140 -213q50 114 59 260h479v-230h-287q-39 -99 -100 -168q67 -45 154 -45 q52 0 116 33t107 86l100 -221q-142 -145 -352 -145q-81 0 -187 30t-171 72q-68 -48 -165 -75t-188 -27q-107 0 -195.5 39.5t-145 122t-56.5 192.5zM451 543q-48 -27 -74.5 -73t-26.5 -95q0 -60 38 -101t108 -41q72 0 131 27q-111 128 -176 283zM813 1006q0 54 -23 87t-63 33 t-65 -27.5t-25 -82.5q0 -80 35 -209q75 26 108 70t33 129z" />
<glyph unicode="'" horiz-adv-x="446" d="M389 1331l-55 -600h-221l-56 600h332z" />
<glyph unicode="(" horiz-adv-x="741" d="M37 553q0 276 131.5 529t363.5 429l193 -180q-169 -138 -275 -338.5t-106 -421.5q0 -448 383 -780l-168 -170q-169 115 -288 270t-176.5 322.5t-57.5 339.5z" />
<glyph unicode=")" horiz-adv-x="743" d="M705 553q0 -263 -135 -511t-388 -421l-168 170q383 332 383 780q0 221 -106 421.5t-275 338.5l193 180q232 -176 364 -429t132 -529z" />
<glyph unicode="*" horiz-adv-x="798" d="M526 688h-260l70 238q20 -13 49 -13q28 0 51 13zM526 1331l-94 -241q-21 12 -47 12q-17 0 -37 -8l-84 237h262zM291 1010q0 -44 28 -72l-149 -209l-141 213zM29 1077l139 213l172 -200q-42 -17 -49 -70zM629 731l-178 207q32 25 32 68l285 -66zM768 1079l-287 -59 q-6 39 -43 65l191 201z" />
<glyph unicode="+" horiz-adv-x="968" d="M365 154v311h-316v207h316v309h239v-309h316v-207h-316v-311h-239z" />
<glyph unicode="," horiz-adv-x="468" d="M100 276h291q0 -140 -64 -291.5t-157 -267.5l-199 64q74 120 101.5 236t27.5 259z" />
<glyph unicode="-" horiz-adv-x="802" d="M694 383h-585v264h585v-264z" />
<glyph unicode="." horiz-adv-x="501" d="M61 154q0 82 50.5 129t138.5 47q85 0 137.5 -45t52.5 -131q0 -85 -48.5 -131t-141.5 -46q-94 0 -141.5 45.5t-47.5 131.5z" />
<glyph unicode="/" horiz-adv-x="927" d="M670 1405h241l-647 -1444h-250z" />
<glyph unicode="0" horiz-adv-x="1236" d="M631 1350q265 0 387.5 -168t122.5 -492q0 -128 -13.5 -229t-50 -193.5t-95 -154t-153.5 -97.5t-221 -36q-263 0 -388.5 154.5t-125.5 502.5q0 136 17.5 245t57 197.5t101.5 147.5t152.5 91t208.5 32zM621 240q48 0 82 17.5t55 49t33 87t16 119.5t4 159q0 71 -2 118.5 t-8.5 100.5t-20 85.5t-35 61t-55 41.5t-78.5 13q-56 0 -93.5 -28.5t-58.5 -85.5t-29.5 -129t-8.5 -173q0 -96 3.5 -158t15 -120t33.5 -89.5t58 -50t89 -18.5z" />
<glyph unicode="1" horiz-adv-x="768" d="M41 1059v264l573 27v-1350h-321v1071z" />
<glyph unicode="2" horiz-adv-x="1093" d="M72 197q85 50 181 135.5t180 185.5t139 211.5t55 200.5q0 73 -37 117.5t-113 44.5q-65 0 -129.5 -39t-116.5 -103l-149 215q7 8 19.5 20t57 44t94 56.5t129.5 44.5t165 20q193 0 304.5 -104.5t111.5 -278.5q0 -96 -42 -197t-113.5 -191t-156 -167.5t-180.5 -141.5h545 v-270h-944v197z" />
<glyph unicode="3" horiz-adv-x="1077" d="M946 1012q0 -99 -70 -176t-186 -113q141 -35 224 -126.5t83 -231.5q0 -54 -16 -106.5t-54 -103.5t-94 -89.5t-142 -62t-191 -23.5q-151 0 -267 45t-186 102l154 254q76 -67 144 -102t165 -35q72 0 116 32.5t44 96.5q0 101 -111 153t-289 54v196q146 7 246 64t100 131 q0 61 -40.5 90t-104.5 29q-131 0 -242 -119l-139 209q6 7 18.5 18.5t56 40.5t92.5 51.5t128 41t164 18.5q177 0 287 -96t110 -242z" />
<glyph unicode="4" horiz-adv-x="1144" d="M913 252v-252h-319v252h-555v180l555 899h319v-825h172v-254h-172zM344 506h250v428z" />
<glyph unicode="5" horiz-adv-x="1077" d="M465 1061v-213q132 0 234 -35t164.5 -96t94 -138.5t31.5 -168.5q0 -83 -33 -159t-95 -137t-163 -97.5t-225 -36.5q-241 0 -426 149l146 254q134 -143 282 -143q71 0 129 41t58 108q0 44 -13 77t-46 62t-88 47t-142.5 28.5t-206.5 10.5v717h792v-270h-493z" />
<glyph unicode="6" horiz-adv-x="1122" d="M715 430q0 90 -38.5 129t-113.5 39q-41 0 -78.5 -9t-54.5 -19l-18 -9q0 -173 34.5 -247t139.5 -74q70 0 99.5 54t29.5 136zM1038 455q0 -222 -121 -348.5t-348 -126.5q-133 0 -228 43t-150.5 127t-81 198t-25.5 268q0 354 183 545t491 191q102 0 227 -25v-276 q-129 34 -229 34q-291 0 -334 -278q112 51 196 51q199 0 309.5 -105t110.5 -298z" />
<glyph unicode="7" horiz-adv-x="1007" d="M981 1331v-172l-514 -1159h-317l473 1061h-578v270h936z" />
<glyph unicode="8" horiz-adv-x="1132" d="M1014 1012q0 -151 -246 -301q128 -61 207.5 -153.5t79.5 -195.5q0 -167 -137 -274.5t-357 -107.5q-219 0 -350 92t-131 264q0 102 81.5 192.5t194.5 149.5q-116 71 -175.5 143.5t-59.5 179.5q0 97 63.5 178t167.5 126t223 45q193 0 316 -95.5t123 -242.5zM731 350 q0 49 -47.5 96.5t-136.5 106.5q-141 -105 -141 -199q0 -72 45.5 -111.5t128.5 -39.5q70 0 110.5 39.5t40.5 107.5zM444 1016q0 -47 31.5 -86.5t97.5 -89.5q117 102 117 164q0 52 -31 82t-90 30q-64 0 -94.5 -30t-30.5 -70z" />
<glyph unicode="9" horiz-adv-x="1122" d="M408 899q0 -90 38 -129t113 -39q41 0 79 9.5t56 18.5l17 9q0 174 -35 248t-139 74q-70 0 -99.5 -54.5t-29.5 -136.5zM84 874q0 222 121 349t348 127q133 0 228 -43t150.5 -127.5t81 -198.5t25.5 -268q0 -354 -182.5 -545t-490.5 -191q-103 0 -228 25v277q133 -35 230 -35 q290 0 333 278q-112 -51 -196 -51q-199 0 -309.5 105t-110.5 298z" />
<glyph unicode=":" horiz-adv-x="612" d="M117 154q0 82 50 129t138 47q86 0 138.5 -45t52.5 -131q0 -85 -49 -131t-142 -46q-94 0 -141 45.5t-47 131.5zM117 774q0 82 50 129t138 47q86 0 138.5 -45t52.5 -131q0 -85 -49 -130.5t-142 -45.5q-188 0 -188 176z" />
<glyph unicode=";" horiz-adv-x="536" d="M80 774q0 82 50 129t138 47q86 0 138.5 -45t52.5 -131q0 -85 -49 -130.5t-142 -45.5q-188 0 -188 176zM133 276h291q0 -140 -64 -291.5t-157 -267.5l-199 64q74 120 101.5 236t27.5 259z" />
<glyph unicode="&#x3c;" horiz-adv-x="937" d="M725 4l-672 483v199l678 459l156 -217l-516 -342l508 -371z" />
<glyph unicode="=" horiz-adv-x="1103" d="M987 637h-870v217h870v-217zM987 289h-870v217h870v-217z" />
<glyph unicode="&#x3e;" horiz-adv-x="937" d="M885 487l-672 -483l-154 211l508 371l-516 342l156 217l678 -459v-199z" />
<glyph unicode="?" horiz-adv-x="884" d="M862 1042q0 -56 -26 -104.5t-65 -81t-84 -65t-84 -58.5t-65 -59.5t-26 -69.5q0 -47 47 -100l-309 -76q-41 97 -41 178q0 54 31 106t76 92.5t89.5 77.5t75.5 74.5t31 69.5q0 40 -31.5 62t-85.5 22q-146 0 -258 -104l-123 204q179 140 430 140q83 0 156.5 -18.5t132.5 -55 t93.5 -97t35.5 -137.5zM236 154q0 82 50 129t138 47q85 0 137.5 -45t52.5 -131q0 -85 -48.5 -131t-141.5 -46q-94 0 -141 45.5t-47 131.5z" />
<glyph unicode="@" horiz-adv-x="1687" d="M866 1079q-302 0 -481.5 -177.5t-179.5 -491.5q0 -126 34 -230.5t92.5 -177t138.5 -123.5t171.5 -74.5t192.5 -23.5q257 0 479 170l73 -119q-277 -199 -544 -199q-121 0 -234.5 27.5t-219 89t-183.5 150.5t-125 222t-47 294q0 180 64.5 332.5t176.5 257t266 163t330 58.5 q171 0 314 -56.5t238.5 -152.5t148.5 -223.5t53 -270.5q0 -69 -16.5 -140t-51 -138.5t-83.5 -119.5t-120 -84t-153 -32q-97 0 -172.5 42t-85.5 108q-44 -80 -113.5 -116t-142.5 -36q-130 0 -209.5 68t-79.5 198q0 67 28.5 117.5t74 80.5t109.5 49t125.5 25.5t131.5 6.5h58 l2 35q0 69 -24 96t-85 27q-47 0 -79.5 -18t-32.5 -54q0 -7 4 -23l-244 -36q-16 46 -16 82q0 113 110.5 187.5t282.5 74.5q183 0 279 -76.5t96 -251.5l-5 -375q0 -71 50 -71q61 0 106.5 58.5t65.5 137t20 158.5q0 167 -67 295.5t-201.5 204t-319.5 75.5zM924 309v82 q-23 2 -64 2q-81 0 -122.5 -23t-41.5 -79q0 -35 23.5 -52.5t54.5 -17.5q39 0 71 16t46 31.5t33 40.5z" />
<glyph unicode="A" d="M317 0h-337l458 1331h371l465 -1331h-350l-86 272h-443zM756 528l-15 47l-131 441l-129 -453l-10 -35h285z" />
<glyph unicode="B" horiz-adv-x="1236" d="M1186 416q0 -201 -118.5 -308.5t-319.5 -107.5h-611v1331h514q99 0 175.5 -18t124.5 -47.5t79 -71.5t43 -85t12 -93q0 -34 -4 -62.5t-17.5 -65t-35.5 -65.5t-62.5 -57t-95.5 -47v-4q89 -10 154 -40.5t98.5 -74.5t48.5 -89.5t15 -94.5zM639 567h-172v-295h207 q89 0 129.5 34.5t40.5 111.5q0 81 -49 115t-156 34zM745 952q0 111 -157 111h-121v-248h104q95 0 134.5 31t39.5 106z" />
<glyph unicode="C" horiz-adv-x="1212" d="M1090 375l84 -277q-219 -118 -480 -118q-312 0 -475.5 175.5t-163.5 506.5q0 212 90 369.5t243.5 238t350.5 80.5q110 0 224 -28t202 -83l-108 -291q-172 133 -336 133q-140 0 -227.5 -105t-87.5 -308q0 -206 83.5 -314t239.5 -108q175 0 361 129z" />
<glyph unicode="D" horiz-adv-x="1406" d="M137 0v1331h504q705 0 705 -637q0 -103 -13 -188.5t-43.5 -166t-83.5 -140.5t-129 -106t-186 -69.5t-248 -23.5h-506zM631 1063h-164v-791h192q100 0 167 25.5t102.5 76.5t50 115t14.5 154q0 104 -15.5 176.5t-54.5 130t-111.5 85.5t-180.5 28z" />
<glyph unicode="E" horiz-adv-x="1132" d="M137 1331h916v-268h-586v-252h528v-266h-528v-273h584v-272h-914v1331z" />
<glyph unicode="F" horiz-adv-x="1064" d="M137 1331h881v-268h-551v-320h502v-266h-502v-477h-330v1331z" />
<glyph unicode="G" horiz-adv-x="1271" d="M868 659h324v-553q-114 -61 -245.5 -93.5t-252.5 -32.5q-308 0 -473.5 180t-165.5 510q0 136 37 249t101.5 192t154 133.5t193.5 80t221 25.5q222 0 428 -111l-113 -295q-173 137 -329 137t-249 -97.5t-93 -309.5q0 -115 27 -199.5t76.5 -133.5t112.5 -72t140 -23 q50 0 106 12v401z" />
<glyph unicode="H" horiz-adv-x="1419" d="M952 1331h330v-1331h-330v524h-485v-524h-330v1331h330v-520h485v520z" />
<glyph unicode="I" horiz-adv-x="604" d="M137 1331h330v-1331h-330v1331z" />
<glyph unicode="J" horiz-adv-x="606" d="M471 1331v-1200q0 -104 -38 -187.5t-108 -142.5t-162 -97t-206 -58l-92 286q53 10 85.5 18t73 26.5t63 42.5t38.5 64.5t16 94.5v1153h330z" />
<glyph unicode="K" horiz-adv-x="1257" d="M137 1331h330v-536l92 30l305 506h367l-406 -631l449 -700h-402l-333 545l-72 -19v-526h-330v1331z" />
<glyph unicode="L" horiz-adv-x="1003" d="M137 1331h330v-1059h530v-272h-860v1331z" />
<glyph unicode="M" horiz-adv-x="1771" d="M1327 0v807l-141 -451l-115 -356h-364l-117 350l-152 459v-809h-301v1331h406l159 -434l199 -594l195 606l155 424h383v-1333h-307z" />
<glyph unicode="N" horiz-adv-x="1497" d="M449 412v-412h-312v1331h359l290 -426l271 -416l-4 437v405h307v-1331h-334l-299 440l-281 432z" />
<glyph unicode="O" horiz-adv-x="1441" d="M713 1350q117 0 215.5 -22t184.5 -73t145.5 -128.5t93.5 -194.5t34 -266q0 -145 -45.5 -270t-129 -217.5t-211.5 -145.5t-285 -53q-145 0 -265.5 43.5t-209 126.5t-138 211t-49.5 290q0 200 80 358.5t231 249.5t349 91zM715 248q165 0 243 96.5t78 321.5q0 121 -19.5 202 t-61.5 128t-99.5 66t-142.5 19q-107 0 -173 -39t-101.5 -134.5t-35.5 -256.5q0 -203 75.5 -303t236.5 -100z" />
<glyph unicode="P" horiz-adv-x="1177" d="M137 0v1331h510q134 0 234 -35t159 -98t87 -144t28 -180q0 -219 -137 -350t-397 -131h-154v-393h-330zM614 664q99 0 145 46t46 154q0 43 -7.5 75.5t-27.5 62.5t-61 45.5t-101 15.5h-141v-399h147z" />
<glyph unicode="Q" horiz-adv-x="1443" d="M713 1350q117 0 215.5 -22t184.5 -73t145.5 -128.5t93.5 -194.5t34 -266q0 -201 -84.5 -360.5t-240.5 -244.5l328 -337l-265 -168l-311 430q-49 -6 -98 -6q-145 0 -265.5 43.5t-209 126.5t-138 211t-49.5 290q0 200 80 358.5t231 249.5t349 91zM715 248q165 0 243 96.5 t78 321.5q0 121 -19.5 202t-61.5 128t-99.5 66t-142.5 19q-107 0 -173 -39t-101.5 -134.5t-35.5 -256.5q0 -203 75.5 -303t236.5 -100z" />
<glyph unicode="R" horiz-adv-x="1257" d="M137 0v1331h500q135 0 234.5 -33t158.5 -93.5t87 -139.5t28 -178q0 -276 -211 -393l299 -494h-389l-230 422h-147v-422h-330zM604 686q191 0 191 199q0 93 -43 135.5t-154 42.5h-131v-377h137z" />
<glyph unicode="S" horiz-adv-x="1073" d="M496 248q48 0 86.5 9t67 34t28.5 65q0 44 -33.5 79.5t-87 62.5t-118.5 54.5t-130 63t-118.5 80t-87 113.5t-33.5 156q0 169 131.5 277t341.5 108q119 0 218.5 -23.5t209.5 -83.5l-90 -301q-46 55 -136 97t-172 42q-153 0 -153 -96q0 -38 33.5 -68.5t87 -54t118.5 -49 t130 -62t118.5 -84t87 -123.5t33.5 -173q0 -123 -71.5 -213t-190.5 -134t-272 -44q-263 0 -451 122l109 299q75 -70 172 -111.5t172 -41.5z" />
<glyph unicode="T" horiz-adv-x="1136" d="M1126 1331v-268h-393v-1063h-330v1063h-393v268h1116z" />
<glyph unicode="U" horiz-adv-x="1419" d="M981 518v813h317v-874q0 -82 -21 -150t-56 -116.5t-84.5 -86t-102 -60.5t-113 -38t-114 -20.5t-107.5 -5.5q-84 0 -158 10.5t-154 42.5t-136.5 83t-93.5 139t-37 204v872h330v-811q0 -82 16.5 -136t52 -83.5t81.5 -41t114 -11.5q128 0 197 62.5t69 207.5z" />
<glyph unicode="V" horiz-adv-x="1198" d="M326 1331l161 -565l123 -485l119 487l145 563h340l-413 -1331h-398l-423 1331h346z" />
<glyph unicode="W" horiz-adv-x="1826" d="M1120 1311l103 -531l88 -508l86 516l78 543h317l-270 -1331h-453l-63 354l-99 602l-98 -604l-64 -352h-436l-280 1331h338l96 -567l74 -492l81 490l101 549h401z" />
<glyph unicode="X" horiz-adv-x="1193" d="M25 1331h378l209 -393l211 393h332l-381 -629l436 -702h-379l-247 446l-252 -446h-338l422 688z" />
<glyph unicode="Y" horiz-adv-x="1114" d="M324 1331l254 -545l118 273l117 272h330l-416 -805v-526h-330v516l-430 815h357z" />
<glyph unicode="Z" horiz-adv-x="1134" d="M88 1063v268h971v-235l-332 -451l-287 -377h633v-268h-1026v217l373 510l256 336h-588z" />
<glyph unicode="[" horiz-adv-x="645" d="M115 -342v1878h512v-205h-242v-1474h242v-199h-512z" />
<glyph unicode="\" horiz-adv-x="927" d="M16 1405h242l655 -1444h-249z" />
<glyph unicode="]" horiz-adv-x="645" d="M530 1536v-1878h-512v199h242v1474h-242v205h512z" />
<glyph unicode="^" horiz-adv-x="1083" d="M537 1098l-248 -416h-246l406 649h184l407 -649h-235z" />
<glyph unicode="_" horiz-adv-x="937" d="M18 -266v178h902v-178h-902z" />
<glyph unicode="`" horiz-adv-x="921" d="M594 1102l-340 219l156 197l290 -291z" />
<glyph unicode="a" horiz-adv-x="1099" d="M635 319v93q-25 2 -72 2q-92 0 -139 -27t-47 -90q0 -39 27.5 -58.5t62.5 -19.5q44 0 79.5 17.5t52.5 36t36 46.5zM635 596l2 39q0 78 -26.5 108.5t-96.5 30.5q-62 0 -99.5 -26.5t-23.5 -79.5l-274 -41q-17 47 -17 92q0 129 124 213t319 84q204 0 311.5 -86.5 t106.5 -284.5l-3 -332q0 -61 23 -77t66 -3l14 -225q-98 -28 -180 -28q-197 0 -228 170q-48 -89 -126 -129.5t-160 -40.5q-146 0 -234 76t-88 223q0 76 31.5 134t81.5 92.5t121 56t139 29t147 7.5q13 0 36 -1t34 -1z" />
<glyph unicode="b" horiz-adv-x="1177" d="M430 1403v-526q56 60 135 99.5t160 39.5q193 0 298 -131.5t105 -366.5q0 -251 -150.5 -394.5t-397.5 -143.5q-130 0 -257 30.5t-219 77.5v1315h326zM430 623v-349q53 -36 141 -36q98 0 156.5 62.5t58.5 182.5q0 132 -42.5 189t-127.5 57q-52 0 -101 -29.5t-85 -76.5z" />
<glyph unicode="c" horiz-adv-x="972" d="M389 500q0 -138 57.5 -198t151.5 -60q129 0 250 100l82 -250q-90 -59 -197 -85.5t-198 -26.5q-102 0 -189 32t-154.5 94t-106 163t-38.5 231q0 143 60 259t179.5 186.5t278.5 70.5q211 0 371 -94l-107 -283q-115 115 -241 115q-91 0 -145 -64t-54 -190z" />
<glyph unicode="d" horiz-adv-x="1189" d="M1075 1403v-1403h-293l-10 145q-54 -70 -140.5 -117.5t-176.5 -47.5q-194 0 -299 131t-105 366q0 250 149.5 394.5t387.5 144.5q51 0 162 -15v402h325zM750 373v348q-55 37 -142 37q-98 0 -156.5 -63t-58.5 -183q0 -132 42.5 -189t127.5 -57q52 0 101.5 30t85.5 77z" />
<glyph unicode="e" horiz-adv-x="1054" d="M627 231q66 0 145.5 31t142.5 82l82 -250q-207 -114 -436 -114q-82 0 -155 17.5t-139.5 57t-114.5 99t-76.5 149.5t-28.5 201q0 115 41 213t109 162.5t155.5 100.5t182.5 36q227 0 346.5 -124.5t119.5 -410.5q0 -44 -2 -69h-618q10 -54 33.5 -91t58 -56t71 -26.5 t83.5 -7.5zM377 610h297q6 97 -27 139t-104 42q-77 0 -116.5 -41.5t-49.5 -139.5z" />
<glyph unicode="f" horiz-adv-x="794" d="M512 1036v-59h264v-244h-264v-733h-326v733h-145v225l145 19v80q10 188 121 277t293 89q138 0 262 -53l-55 -268q-90 69 -180 69q-51 0 -83 -33t-32 -102z" />
<glyph unicode="g" horiz-adv-x="1140" d="M516 1016q72 0 199.5 -19.5t271.5 -19.5h133v-207h-135q14 -41 14 -88q0 -132 -107 -224t-286 -114q-155 -42 -155 -74q0 -24 37.5 -33t134.5 -14q67 -3 115.5 -7.5t101.5 -14t88.5 -23t69.5 -35.5t54 -52t32 -71.5t12 -93.5q0 -70 -41 -139t-113.5 -125t-183.5 -90.5 t-240 -34.5q-242 0 -375 69t-133 195q0 90 53.5 148.5t163.5 103.5q-69 48 -69 133q0 92 172 172q-136 30 -212.5 108t-76.5 202q0 84 40 152t107 110t151 64t177 22zM608 -20q-148 8 -194 16q-109 -46 -109 -121q0 -62 58 -87.5t174 -25.5q107 0 167 31t60 90q0 54 -31 73 t-125 24zM369 676q0 -64 42 -101.5t109 -37.5q71 0 111.5 34.5t40.5 104.5q0 139 -152 139q-151 0 -151 -139z" />
<glyph unicode="h" horiz-adv-x="1208" d="M440 616v-616h-325v1403h325v-541q136 154 334 154q68 0 126 -20t104.5 -60t73 -109.5t26.5 -160.5v-666h-326v561q0 93 -35 126.5t-98 33.5q-53 0 -109.5 -29.5t-95.5 -75.5z" />
<glyph unicode="i" horiz-adv-x="555" d="M440 985v-985h-325v985h325zM100 1305q0 75 53 128.5t128 53.5t128.5 -53.5t53.5 -128.5t-53.5 -128t-128.5 -53t-128 53t-53 128z" />
<glyph unicode="j" horiz-adv-x="555" d="M115 41v944h325v-956q0 -87 -19.5 -158t-52.5 -121t-80.5 -87.5t-98.5 -60.5t-112 -37t-116 -19t-115 -5l-45 271q155 -8 234.5 46t79.5 183zM100 1305q0 75 53 128.5t128 53.5t128.5 -53.5t53.5 -128.5t-53.5 -128t-128.5 -53t-128 53t-53 128z" />
<glyph unicode="k" horiz-adv-x="1118" d="M774 522l354 -522h-395l-229 375l-64 -17v-358h-325v1403h325v-795l60 21l213 356h354z" />
<glyph unicode="l" horiz-adv-x="555" d="M440 1403v-1403h-325v1403h325z" />
<glyph unicode="m" horiz-adv-x="1830" d="M440 616v-616h-325v985h297l6 -145q136 176 336 176q103 0 183 -45.5t118 -139.5q145 185 342 185q68 0 126 -20t104 -60t72.5 -109.5t26.5 -160.5v-666h-325v561q0 93 -35 126.5t-98 33.5q-39 0 -92.5 -31t-92.5 -74v-616h-325v561q0 93 -35 126.5t-98 33.5 q-40 0 -93.5 -30.5t-91.5 -74.5z" />
<glyph unicode="n" horiz-adv-x="1208" d="M440 616v-616h-325v985h297l6 -145q136 176 356 176q68 0 126 -20t104.5 -60t73 -109.5t26.5 -160.5v-666h-326v561q0 93 -35 126.5t-98 33.5q-53 0 -109.5 -29.5t-95.5 -75.5z" />
<glyph unicode="o" horiz-adv-x="1165" d="M45 500q0 221 149.5 368.5t389.5 147.5q254 0 394 -141.5t140 -374.5q0 -146 -62 -263t-184.5 -187t-285.5 -70q-251 0 -396 139t-145 381zM387 502q0 -271 188 -271q118 0 159.5 62t41.5 209q0 58 -8.5 102t-30 82t-62.5 58t-100 20q-102 0 -145 -66t-43 -196z" />
<glyph unicode="p" horiz-adv-x="1189" d="M602 -20q-62 0 -162 14v-445h-325v1436h293l10 -135q54 70 140.5 118t176.5 48q194 0 299 -131.5t105 -366.5q0 -250 -149.5 -394t-387.5 -144zM440 623v-349q53 -36 142 -36q98 0 156.5 62.5t58.5 182.5q0 132 -42.5 189t-127.5 57q-52 0 -101.5 -29.5t-85.5 -76.5z" />
<glyph unicode="q" horiz-adv-x="1177" d="M748 -451v570q-57 -61 -136 -100t-159 -39q-194 0 -299 131t-105 366q0 169 76.5 293t203.5 185t289 61q240 0 455 -101v-1366h-325zM748 373v348q-55 37 -142 37q-98 0 -156.5 -63t-58.5 -183q0 -132 42.5 -189t127.5 -57q52 0 101.5 30t85.5 77z" />
<glyph unicode="r" horiz-adv-x="790" d="M440 555v-555h-325v985h288l15 -199q60 117 127.5 166t146.5 49q45 0 86 -8l-24 -331q-56 22 -136 22q-100 0 -178 -129z" />
<glyph unicode="s" horiz-adv-x="944" d="M549 297q0 22 -21 40t-55.5 29.5t-78.5 26.5t-90 30t-90 41.5t-78.5 59t-55.5 84t-21 115.5q0 127 122.5 210t307.5 83q241 0 394 -90l-95 -264q-43 51 -112.5 81.5t-153.5 30.5q-125 0 -125 -55q0 -17 21 -31.5t56 -24.5t79.5 -24.5t90.5 -30t90.5 -42.5t79.5 -60.5 t56 -85.5t21 -115q0 -86 -39.5 -151t-108 -102t-149.5 -54.5t-174 -17.5q-106 0 -205.5 20.5t-165.5 58.5l76 273q53 -46 135.5 -77.5t151.5 -31.5q137 0 137 74z" />
<glyph unicode="t" horiz-adv-x="872" d="M500 733v-360q4 -74 32.5 -104.5t90.5 -30.5q44 0 93.5 22t88.5 55l47 -256q-155 -79 -326 -79q-161 0 -256.5 77.5t-95.5 247.5v428h-145v223l149 21l39 254h283v-254h295v-244h-295z" />
<glyph unicode="u" horiz-adv-x="1202" d="M762 379v606h325v-985h-286l-17 156q-136 -176 -350 -176q-330 0 -330 350v655h326v-571q0 -95 30.5 -129.5t84.5 -34.5q52 0 112 37.5t105 91.5z" />
<glyph unicode="v" horiz-adv-x="1044" d="M723 0h-408l-321 985h350l80 -328l106 -430l105 443l76 315h344z" />
<glyph unicode="w" horiz-adv-x="1611" d="M666 0h-392l-247 985h350l55 -360l57 -355l70 346l66 369h366l74 -364l72 -351l53 344l53 371h344l-258 -985h-391l-43 195l-94 460l-92 -458z" />
<glyph unicode="x" horiz-adv-x="1017" d="M518 754l117 231h348l-283 -455l316 -530h-350l-164 299l-170 -299h-332l319 512l-282 473h352z" />
<glyph unicode="y" horiz-adv-x="1034" d="M1044 985l-493 -1436h-326l123 371l-358 1065h354l102 -354l84 -324l82 305l105 373h327z" />
<glyph unicode="z" horiz-adv-x="995" d="M469 254h467v-254h-885v203l445 528h-412v254h836v-203z" />
<glyph unicode="{" horiz-adv-x="704" d="M555 -344q-73 0 -128.5 9t-95 29t-65 46.5t-40.5 66t-21 84t-6 103.5v436q0 33 -24 46t-85 13h-55v199h55q109 0 109 60v436q0 73 16.5 130t56 106.5t114.5 76.5t181 27h119v-193h-98q-79 0 -113.5 -35.5t-34.5 -107.5v-334q0 -52 -6 -88.5t-23.5 -74t-55 -63.5 t-95.5 -40q180 -20 180 -252v-346q0 -73 27 -105t104 -32h115v-197h-131z" />
<glyph unicode="|" horiz-adv-x="503" d="M131 1405h242v-1444h-242v1444z" />
<glyph unicode="}" horiz-adv-x="704" d="M150 -344h-132v197h115q77 0 104 32t27 105v346q0 232 180 252q-58 14 -95.5 40t-55 63.5t-23.5 74t-6 88.5v334q0 72 -34 107.5t-113 35.5h-99v193h119q86 0 151.5 -18.5t106 -49t66 -75.5t35.5 -92.5t10 -104.5v-436q0 -60 108 -60h56v-199h-56q-61 0 -84.5 -13 t-23.5 -46v-436q0 -59 -6 -103.5t-21 -84t-40.5 -66t-65 -46.5t-95 -29t-128.5 -9z" />
<glyph unicode="~" horiz-adv-x="1179" d="M803 412q-65 0 -129.5 23.5t-107 51t-94 51t-93.5 23.5q-96 0 -205 -139l-141 104q47 76 92 125.5t90 73.5t83.5 32.5t88.5 8.5q63 0 134 -23t121 -51t100 -51t77 -23q49 0 82 31.5t100 132.5l146 -104q-47 -81 -94.5 -136.5t-92 -82t-81 -37t-76.5 -10.5z" />
<glyph unicode="&#xa1;" horiz-adv-x="546" d="M422 -338h-297v444l29 375h239l29 -377v-442zM463 840q0 -82 -50.5 -129t-138.5 -47q-85 0 -137.5 45t-52.5 131q0 85 48.5 130.5t141.5 45.5q94 0 141.5 -45t47.5 -131z" />
<glyph unicode="&#xa2;" horiz-adv-x="989" d="M502 1167h170v-157q144 -17 270 -88l-106 -283q-77 77 -164 102v-493q91 22 182 94l82 -250q-115 -75 -264 -100v-150h-170v140q-96 5 -176 39.5t-142 96.5t-96.5 160t-34.5 222q0 202 120.5 345.5t328.5 166.5v155zM395 500q0 -182 107 -238v471q-107 -57 -107 -233z " />
<glyph unicode="&#xa3;" horiz-adv-x="1191" d="M246 557h-162v217h162v111q0 136 66.5 244t173.5 164.5t233 56.5q224 0 366 -109l-120 -229q-65 47 -110.5 66.5t-98.5 19.5q-35 0 -66.5 -10t-61 -32t-46.5 -65.5t-17 -103.5v-113h404v-217h-404v-90q0 -139 -102 -221h272q75 0 132.5 22.5t89 52.5t63.5 76l145 -194 q-15 -35 -41.5 -66.5t-71.5 -64.5t-118 -52.5t-164 -19.5h-700v182q81 6 128.5 73t47.5 140v162z" />
<glyph unicode="&#xa4;" horiz-adv-x="991" d="M168 129l-111 113l176 166q-36 68 -36 137q0 70 36 127q-27 27 -90 86t-86 82l113 114l182 -168q61 31 140 31q72 0 145 -31l182 166l119 -108l-180 -170q39 -56 39 -129t-39 -137l180 -166l-119 -109l-180 166q-54 -33 -141 -33q-66 0 -144 35zM498 467q73 0 73 76 q0 69 -73 69q-76 0 -76 -69q0 -76 76 -76z" />
<glyph unicode="&#xa5;" horiz-adv-x="1208" d="M373 1331l254 -545l118 273l117 272h330l-361 -696h218v-217h-273v-70h273v-217h-273v-131h-330v131h-282v217h282v70h-282v217h219l-367 696h357z" />
<glyph unicode="&#xa6;" horiz-adv-x="544" d="M152 1405h241v-621h-241v621zM152 582h241v-621h-241v621z" />
<glyph unicode="&#xa7;" horiz-adv-x="1001" d="M446 -135q0 59 -36 166.5t-87.5 226l-103 237t-87.5 225t-36 165.5q1 104 58 193.5t148.5 147t204 90t226.5 32.5q105 0 238 -19v-233q-66 40 -148.5 57.5t-148.5 17.5q-96 0 -96 -120q0 -69 54 -214.5t118 -286t118 -286t54 -213.5q0 -97 -47 -179.5t-120 -136.5 t-164 -92t-176 -54.5t-159 -16.5q-125 0 -238 31v239q77 -47 146.5 -66.5t114.5 -19.5q72 0 118 26.5t49 82.5zM725 37q-1 79 -55 221.5t-117.5 275t-116.5 278t-53 230.5q0 45 12 62q-46 -32 -72 -91.5t-26 -101.5q0 -56 35 -154.5t85 -208.5t100 -223.5t85 -227t35 -191.5 q0 -25 -2 -37q30 26 45 42.5t29.5 50t15.5 75.5z" />
<glyph unicode="&#xa8;" horiz-adv-x="921" d="M135 1268q0 64 45.5 109.5t110.5 45.5t110 -45.5t45 -109.5q0 -65 -45.5 -110.5t-109.5 -45.5q-65 0 -110.5 46t-45.5 110zM528 1268q0 64 45.5 109.5t110.5 45.5t110.5 -45.5t45.5 -109.5t-46 -110t-110 -46t-110 46t-46 110z" />
<glyph unicode="&#xa9;" horiz-adv-x="1406" d="M698 -14q-129 0 -247 52t-204 140t-137 209t-51 254q0 134 51 256t137 209.5t204 139.5t247 52q177 0 326.5 -87.5t236.5 -238.5t87 -331q0 -179 -83.5 -328.5t-233 -238t-333.5 -88.5zM698 76q238 0 392.5 158t154.5 407q0 154 -70.5 283.5t-196.5 205.5t-280 76 q-151 0 -273.5 -72.5t-192.5 -202t-70 -290.5q0 -124 44.5 -231t119 -179.5t171.5 -113.5t201 -41zM705 219q-200 0 -305 108t-105 310q0 195 123 308.5t315 113.5q159 0 279 -72l-74 -190q-117 88 -217 88q-82 0 -134 -62.5t-52 -181.5q0 -122 49.5 -185t142.5 -63 q105 0 234 84l55 -182q-146 -76 -311 -76z" />
<glyph unicode="&#xaa;" horiz-adv-x="884" d="M297 588q-114 0 -183 56.5t-69 166.5q0 62 35.5 107t96.5 68t127 33.5t142 10.5h41v39q0 53 -16.5 72.5t-62.5 19.5q-34 0 -58 -12.5t-24 -38.5q0 -5 4 -25l-228 -32q-16 39 -16 75q0 96 96 159t248 63q323 0 326 -275l-2 -239q0 -56 30 -56q9 0 35 11l10 -179 q-88 -24 -147 -24q-141 0 -174 102q-72 -102 -211 -102zM373 776q68 0 114 66v82h-43q-59 0 -93 -22.5t-34 -61.5q0 -31 16.5 -47.5t39.5 -16.5z" />
<glyph unicode="&#xab;" horiz-adv-x="1044" d="M16 479l285 473h254l-203 -467l203 -479h-254zM461 479l284 473h252l-200 -467l200 -479h-252z" />
<glyph unicode="&#xac;" horiz-adv-x="1390" d="M1065 109v395h-997v182h1222v-577h-225z" />
<glyph unicode="&#xad;" horiz-adv-x="802" d="M694 383h-585v264h585v-264z" />
<glyph unicode="&#xae;" horiz-adv-x="1114" d="M553 344q-132 0 -245 67.5t-179 183t-66 251.5q0 103 39 196.5t105 160.5t156.5 107t189.5 40q135 0 249 -67.5t180.5 -183.5t66.5 -253q0 -217 -144 -359.5t-352 -142.5zM553 426q181 0 292 114.5t111 305.5q0 110 -50 205.5t-143.5 155t-209.5 59.5q-175 0 -286 -117 t-111 -303q0 -95 33 -175t88.5 -133t127 -82.5t148.5 -29.5zM301 541v612h266q271 0 271 -207q0 -123 -107 -178l105 -227h-207l-66 192h-74v-192h-188zM489 862h62q90 0 90 84q0 40 -19.5 58t-72.5 18h-60v-160z" />
<glyph unicode="&#xaf;" horiz-adv-x="921" d="M176 1192v192h567v-192h-567z" />
<glyph unicode="&#xb0;" horiz-adv-x="665" d="M334 805q-132 0 -213.5 75t-81.5 199q0 120 81.5 195.5t213.5 75.5t211.5 -71.5t79.5 -199.5q0 -124 -80.5 -199t-210.5 -75zM334 940q56 0 86.5 38t30.5 101q0 66 -28 99.5t-89 33.5q-125 0 -125 -133q0 -65 32 -102t93 -37z" />
<glyph unicode="&#xb1;" horiz-adv-x="1013" d="M387 276v244h-315v207h315v254h240v-254h315v-207h-315v-244h-240zM72 -27v201h870v-201h-870z" />
<glyph unicode="&#xb2;" horiz-adv-x="706" d="M45 778v123q114 59 225 177.5t111 209.5q0 76 -68 76q-35 0 -81.5 -30.5t-79.5 -63.5l-105 125q4 5 12 14t36.5 31.5t61 40t86 31.5t111.5 14q125 0 200 -62.5t75 -154.5q0 -94 -78.5 -190t-194.5 -171h306v-170h-617z" />
<glyph unicode="&#xb3;" horiz-adv-x="694" d="M326 768q-97 0 -174 27t-125 61l104 154q84 -76 182 -76q37 0 66 17.5t29 47.5q0 44 -57 69.5t-158 27.5v108q85 3 133.5 32t48.5 67q0 27 -24.5 43t-55.5 16q-75 0 -148 -64l-96 125q4 4 12.5 11t38 25t62 31.5t84 24.5t106.5 11q117 0 190.5 -55t73.5 -138 q0 -50 -35.5 -89.5t-97.5 -63.5q76 -26 120 -75.5t44 -119.5q0 -38 -18 -74.5t-54.5 -69.5t-101.5 -53t-149 -20z" />
<glyph unicode="&#xb4;" horiz-adv-x="921" d="M700 1321l-340 -219l-106 125l291 291z" />
<glyph unicode="&#xb5;" horiz-adv-x="1200" d="M764 379v608h326v-987h-287l-17 156q-136 -176 -350 -176h-80q76 -82 76 -189v-242h-326v1438h326v-573q0 -95 30.5 -129.5t84.5 -34.5q52 0 112 37.5t105 91.5z" />
<glyph unicode="&#xb6;" horiz-adv-x="1224" d="M694 1331v-1782h-245v660q-210 69 -320.5 217.5t-110.5 323.5q0 111 45 214t128 185.5t213.5 132t289.5 49.5zM860 -451v1782h246v-1782h-246z" />
<glyph unicode="&#xb7;" horiz-adv-x="493" d="M66 606q0 75 52.5 128.5t127.5 53.5t128.5 -53.5t53.5 -128.5t-53.5 -127.5t-128.5 -52.5t-127.5 52.5t-52.5 127.5z" />
<glyph unicode="&#xb8;" horiz-adv-x="921" d="M258 -436l49 149q50 -47 111 -47q71 0 71 55q0 69 -137 72l51 221h138l-27 -120q93 -17 142 -66.5t49 -122.5q0 -49 -23 -86t-61.5 -57t-81 -29.5t-88.5 -9.5q-49 0 -105 12t-88 29z" />
<glyph unicode="&#xb9;" horiz-adv-x="512" d="M178 778v574l-153 -6v165l393 15v-748h-240z" />
<glyph unicode="&#xba;" horiz-adv-x="903" d="M455 588q-192 0 -304 102.5t-112 280.5q0 163 115 271t301 108q195 0 303 -104t108 -275q0 -165 -110.5 -274t-300.5 -109zM449 784q81 0 109 43.5t28 145.5q0 84 -29.5 132t-107.5 48q-71 0 -100.5 -45.5t-29.5 -134.5q0 -189 130 -189z" />
<glyph unicode="&#xbb;" horiz-adv-x="1044" d="M299 952l287 -473l-287 -473h-252l203 479l-203 467h252zM743 952l285 -473l-285 -473h-251l200 479l-200 467h251z" />
<glyph unicode="&#xbc;" horiz-adv-x="1540" d="M344 80l-133 100l915 1110l134 -100zM1151 0v135h-336v111l344 491h230v-442h104v-160h-104v-135h-238zM1010 295h141v209zM172 623v573l-154 -6v166l394 14v-747h-240z" />
<glyph unicode="&#xbd;" horiz-adv-x="1617" d="M344 80l-133 100l915 1110l134 -100zM948 0v123q114 59 225 177.5t111 209.5q0 76 -67 76q-35 0 -82 -30.5t-80 -63.5l-105 124q4 5 12 14t36.5 32t61 40t86 31.5t111.5 14.5q125 0 200 -63t75 -155q0 -94 -78 -189.5t-194 -170.5h305v-170h-617zM172 623v573l-154 -6 v166l394 14v-747h-240z" />
<glyph unicode="&#xbe;" horiz-adv-x="1656" d="M510 80l-133 100l915 1110l133 -100zM1268 0v135h-336v111l344 491h229v-442h105v-160h-105v-135h-237zM1126 295h142v209zM358 612q-97 0 -174 27t-125 61l105 154q84 -76 182 -76q37 0 65.5 18t28.5 48q0 44 -56.5 69t-158.5 27v109q85 3 134 31.5t49 66.5 q0 27 -24.5 43t-55.5 16q-76 0 -148 -63l-96 125q4 4 12.5 11t38 24.5t62 31t84 24.5t106.5 11q117 0 190.5 -54.5t73.5 -137.5q0 -50 -35.5 -90t-97.5 -64q76 -26 120 -75.5t44 -119.5q0 -38 -18 -74.5t-54.5 -69.5t-102 -53t-149.5 -20z" />
<glyph unicode="&#xbf;" horiz-adv-x="882" d="M18 -49q0 56 26 104.5t65 81t84.5 65t84.5 58.5t65 59.5t26 69.5q0 47 -47 100l309 76q41 -97 41 -178q0 -54 -31 -106t-76 -92.5t-89.5 -77.5t-75.5 -74.5t-31 -69.5q0 -40 31 -62t85 -22q144 0 258 105l123 -205q-177 -139 -430 -139q-84 0 -157 18.5t-132 54.5 t-93.5 96.5t-35.5 137.5zM645 840q0 -82 -50 -129t-138 -47q-86 0 -138.5 45t-52.5 131q0 85 49 130.5t142 45.5q188 0 188 -176z" />
<glyph unicode="&#xc0;" d="M317 0h-337l458 1331h371l465 -1331h-350l-86 272h-443zM733 1382l-436 134l92 239l408 -223zM756 528l-15 47l-131 441l-129 -453l-10 -35h285z" />
<glyph unicode="&#xc1;" d="M317 0h-337l458 1331h371l465 -1331h-350l-86 272h-443zM920 1516l-437 -134l-63 150l407 223zM756 528l-15 47l-131 441l-129 -453l-10 -35h285z" />
<glyph unicode="&#xc2;" d="M317 0h-337l458 1331h371l465 -1331h-350l-86 272h-443zM686 1761l260 -202l-104 -152l-232 139l-227 -139l-96 143l262 211h137zM756 528l-15 47l-131 441l-129 -453l-10 -35h285z" />
<glyph unicode="&#xc3;" d="M317 0h-337l458 1331h371l465 -1331h-350l-86 272h-443zM344 1442l-96 94q46 85 107 128.5t128 43.5q44 0 134 -27.5t133 -27.5q73 0 124 61l99 -108q-40 -75 -109 -123.5t-137 -48.5q-39 0 -125.5 31.5t-132.5 31.5q-70 0 -125 -55zM756 528l-15 47l-131 441l-129 -453 l-10 -35h285z" />
<glyph unicode="&#xc4;" d="M317 0h-337l458 1331h371l465 -1331h-350l-86 272h-443zM238 1593q0 65 45.5 110.5t109.5 45.5q65 0 110.5 -45.5t45.5 -110.5q0 -64 -45.5 -109.5t-110.5 -45.5t-110 45t-45 110zM672 1593q0 65 45.5 110.5t109.5 45.5q65 0 110.5 -45.5t45.5 -110.5q0 -64 -45.5 -109.5 t-110.5 -45.5t-110 45t-45 110zM756 528l-15 47l-131 441l-129 -453l-10 -35h285z" />
<glyph unicode="&#xc5;" d="M317 0h-337l458 1331h371l465 -1331h-350l-86 272h-443zM610 1403q-108 0 -169.5 59t-61.5 156q0 102 69.5 157.5t165.5 55.5q98 0 163 -53t65 -160q0 -91 -62 -153t-170 -62zM756 528l-15 47l-131 441l-129 -453l-10 -35h285zM610 1542q39 0 54.5 18t15.5 58t-17 57 t-53 17q-39 0 -54 -16.5t-15 -57.5t16.5 -58.5t52.5 -17.5z" />
<glyph unicode="&#xc6;" horiz-adv-x="1816" d="M1737 1331v-268h-586v-252h528v-266h-528v-273h584v-272h-914v272h-387l-141 -272h-338l741 1331h1041zM563 518h258v492z" />
<glyph unicode="&#xc7;" horiz-adv-x="1212" d="M489 -436l50 149q50 -47 110 -47q72 0 72 55q0 69 -137 72l43 189q-281 19 -426.5 192.5t-145.5 487.5q0 212 90 369.5t243.5 238t350.5 80.5q110 0 224 -28t202 -83l-108 -291q-172 133 -336 133q-140 0 -227.5 -105t-87.5 -308q0 -206 83.5 -314t239.5 -108 q175 0 361 129l84 -277q-183 -99 -410 -116l-19 -88q93 -17 142 -66.5t49 -122.5q0 -49 -23 -86t-61.5 -57t-81 -29.5t-88.5 -9.5q-49 0 -105 12t-88 29z" />
<glyph unicode="&#xc8;" horiz-adv-x="1132" d="M137 1331h916v-268h-586v-252h528v-266h-528v-273h584v-272h-914v1331zM776 1382l-436 134l92 239l408 -223z" />
<glyph unicode="&#xc9;" horiz-adv-x="1132" d="M137 1331h916v-268h-586v-252h528v-266h-528v-273h584v-272h-914v1331zM909 1516l-436 -134l-63 150l407 223z" />
<glyph unicode="&#xca;" horiz-adv-x="1132" d="M137 1331h916v-268h-586v-252h528v-266h-528v-273h584v-272h-914v1331zM682 1761l260 -202l-104 -152l-232 139l-227 -139l-96 143l262 211h137z" />
<glyph unicode="&#xcb;" horiz-adv-x="1132" d="M137 1331h916v-268h-586v-252h528v-266h-528v-273h584v-272h-914v1331zM250 1593q0 65 46 110.5t110 45.5t109.5 -45.5t45.5 -110.5t-45.5 -110t-109.5 -45q-65 0 -110.5 45.5t-45.5 109.5zM684 1593q0 65 46 110.5t110 45.5t109.5 -45.5t45.5 -110.5t-45.5 -110 t-109.5 -45q-65 0 -110.5 45.5t-45.5 109.5z" />
<glyph unicode="&#xcc;" horiz-adv-x="604" d="M137 1331h330v-1331h-330v1331zM406 1382l-437 134l92 239l408 -223z" />
<glyph unicode="&#xcd;" horiz-adv-x="604" d="M137 1331h330v-1331h-330v1331zM606 1516l-436 -134l-64 150l408 223z" />
<glyph unicode="&#xce;" horiz-adv-x="604" d="M137 1331h330v-1331h-330v1331zM356 1761l260 -202l-104 -152l-231 139l-228 -139l-96 143l262 211h137z" />
<glyph unicode="&#xcf;" horiz-adv-x="604" d="M137 1331h330v-1331h-330v1331zM-78 1593q0 65 46 110.5t110 45.5t109.5 -45.5t45.5 -110.5t-45.5 -110t-109.5 -45q-65 0 -110.5 45.5t-45.5 109.5zM356 1593q0 65 46 110.5t110 45.5t110 -45.5t46 -110.5q0 -64 -45.5 -109.5t-110.5 -45.5t-110.5 45.5t-45.5 109.5z " />
<glyph unicode="&#xd0;" horiz-adv-x="1406" d="M137 0v547h-108v250h108v534h504q705 0 705 -637q0 -103 -13 -188.5t-43.5 -166t-83.5 -140.5t-129 -106t-186 -69.5t-248 -23.5h-506zM631 1063h-164v-266h205v-250h-205v-275h192q100 0 167 25.5t102.5 76.5t50 115t14.5 154q0 104 -15.5 176.5t-54.5 130t-111.5 85.5 t-180.5 28z" />
<glyph unicode="&#xd1;" horiz-adv-x="1497" d="M449 412v-412h-312v1331h359l290 -426l271 -416l-4 437v405h307v-1331h-334l-299 440l-281 432zM500 1442l-97 94q46 85 107.5 128.5t128.5 43.5q44 0 133.5 -27.5t132.5 -27.5q74 0 125 61l98 -108q-40 -75 -109 -123.5t-136 -48.5q-39 0 -125.5 31.5t-132.5 31.5 q-70 0 -125 -55z" />
<glyph unicode="&#xd2;" horiz-adv-x="1441" d="M713 1350q117 0 215.5 -22t184.5 -73t145.5 -128.5t93.5 -194.5t34 -266q0 -145 -45.5 -270t-129 -217.5t-211.5 -145.5t-285 -53q-145 0 -265.5 43.5t-209 126.5t-138 211t-49.5 290q0 200 80 358.5t231 249.5t349 91zM715 248q165 0 243 96.5t78 321.5q0 121 -19.5 202 t-61.5 128t-99.5 66t-142.5 19q-107 0 -173 -39t-101.5 -134.5t-35.5 -256.5q0 -203 75.5 -303t236.5 -100zM838 1382l-437 134l93 239l407 -223z" />
<glyph unicode="&#xd3;" horiz-adv-x="1441" d="M713 1350q117 0 215.5 -22t184.5 -73t145.5 -128.5t93.5 -194.5t34 -266q0 -145 -45.5 -270t-129 -217.5t-211.5 -145.5t-285 -53q-145 0 -265.5 43.5t-209 126.5t-138 211t-49.5 290q0 200 80 358.5t231 249.5t349 91zM715 248q165 0 243 96.5t78 321.5q0 121 -19.5 202 t-61.5 128t-99.5 66t-142.5 19q-107 0 -173 -39t-101.5 -134.5t-35.5 -256.5q0 -203 75.5 -303t236.5 -100zM1042 1516l-436 -134l-63 150l407 223z" />
<glyph unicode="&#xd4;" horiz-adv-x="1441" d="M713 1350q117 0 215.5 -22t184.5 -73t145.5 -128.5t93.5 -194.5t34 -266q0 -145 -45.5 -270t-129 -217.5t-211.5 -145.5t-285 -53q-145 0 -265.5 43.5t-209 126.5t-138 211t-49.5 290q0 200 80 358.5t231 249.5t349 91zM715 248q165 0 243 96.5t78 321.5q0 121 -19.5 202 t-61.5 128t-99.5 66t-142.5 19q-107 0 -173 -39t-101.5 -134.5t-35.5 -256.5q0 -203 75.5 -303t236.5 -100zM809 1761l260 -202l-104 -152l-232 139l-227 -139l-96 143l262 211h137z" />
<glyph unicode="&#xd5;" horiz-adv-x="1441" d="M713 1350q117 0 215.5 -22t184.5 -73t145.5 -128.5t93.5 -194.5t34 -266q0 -145 -45.5 -270t-129 -217.5t-211.5 -145.5t-285 -53q-145 0 -265.5 43.5t-209 126.5t-138 211t-49.5 290q0 200 80 358.5t231 249.5t349 91zM715 248q165 0 243 96.5t78 321.5q0 121 -19.5 202 t-61.5 128t-99.5 66t-142.5 19q-107 0 -173 -39t-101.5 -134.5t-35.5 -256.5q0 -203 75.5 -303t236.5 -100zM455 1442l-97 94q46 85 107.5 128.5t128.5 43.5q44 0 133.5 -27.5t132.5 -27.5q74 0 125 61l98 -108q-40 -75 -109 -123.5t-136 -48.5q-39 0 -125.5 31.5 t-132.5 31.5q-70 0 -125 -55z" />
<glyph unicode="&#xd6;" horiz-adv-x="1441" d="M713 1350q117 0 215.5 -22t184.5 -73t145.5 -128.5t93.5 -194.5t34 -266q0 -145 -45.5 -270t-129 -217.5t-211.5 -145.5t-285 -53q-145 0 -265.5 43.5t-209 126.5t-138 211t-49.5 290q0 200 80 358.5t231 249.5t349 91zM715 248q165 0 243 96.5t78 321.5q0 121 -19.5 202 t-61.5 128t-99.5 66t-142.5 19q-107 0 -173 -39t-101.5 -134.5t-35.5 -256.5q0 -203 75.5 -303t236.5 -100zM332 1593q0 65 45.5 110.5t109.5 45.5q65 0 110.5 -45.5t45.5 -110.5q0 -64 -45.5 -109.5t-110.5 -45.5t-110 45t-45 110zM766 1593q0 65 46 110.5t110 45.5 t109.5 -45.5t45.5 -110.5t-45.5 -110t-109.5 -45q-65 0 -110.5 45.5t-45.5 109.5z" />
<glyph unicode="&#xd7;" horiz-adv-x="892" d="M659 205l-215 211l-213 -209l-151 147l213 207l-211 203l166 160l209 -205l213 207l153 -146l-217 -207l219 -211z" />
<glyph unicode="&#xd8;" horiz-adv-x="1441" d="M713 1350q211 0 366 -76l62 76h268l-166 -205q143 -168 143 -479q0 -145 -45.5 -270t-129 -217.5t-211.5 -145.5t-285 -53q-206 0 -357 83l-67 -83h-268l176 215q-146 176 -146 456q0 200 80 358.5t231 249.5t349 91zM715 248q165 0 243 96.5t78 321.5q0 112 -20 200 l-473 -577q64 -41 172 -41zM403 651q0 -101 19 -182l471 575q-67 37 -180 37q-107 0 -173 -39t-101.5 -134.5t-35.5 -256.5z" />
<glyph unicode="&#xd9;" horiz-adv-x="1419" d="M981 518v813h317v-874q0 -82 -21 -150t-56 -116.5t-84.5 -86t-102 -60.5t-113 -38t-114 -20.5t-107.5 -5.5q-84 0 -158 10.5t-154 42.5t-136.5 83t-93.5 139t-37 204v872h330v-811q0 -82 16.5 -136t52 -83.5t81.5 -41t114 -11.5q128 0 197 62.5t69 207.5zM856 1382 l-436 134l92 239l408 -223z" />
<glyph unicode="&#xda;" horiz-adv-x="1419" d="M981 518v813h317v-874q0 -82 -21 -150t-56 -116.5t-84.5 -86t-102 -60.5t-113 -38t-114 -20.5t-107.5 -5.5q-84 0 -158 10.5t-154 42.5t-136.5 83t-93.5 139t-37 204v872h330v-811q0 -82 16.5 -136t52 -83.5t81.5 -41t114 -11.5q128 0 197 62.5t69 207.5zM1030 1516 l-436 -134l-64 150l408 223z" />
<glyph unicode="&#xdb;" horiz-adv-x="1419" d="M981 518v813h317v-874q0 -82 -21 -150t-56 -116.5t-84.5 -86t-102 -60.5t-113 -38t-114 -20.5t-107.5 -5.5q-84 0 -158 10.5t-154 42.5t-136.5 83t-93.5 139t-37 204v872h330v-811q0 -82 16.5 -136t52 -83.5t81.5 -41t114 -11.5q128 0 197 62.5t69 207.5zM780 1761 l260 -202l-104 -152l-231 139l-228 -139l-96 143l262 211h137z" />
<glyph unicode="&#xdc;" horiz-adv-x="1419" d="M981 518v813h317v-874q0 -82 -21 -150t-56 -116.5t-84.5 -86t-102 -60.5t-113 -38t-114 -20.5t-107.5 -5.5q-84 0 -158 10.5t-154 42.5t-136.5 83t-93.5 139t-37 204v872h330v-811q0 -82 16.5 -136t52 -83.5t81.5 -41t114 -11.5q128 0 197 62.5t69 207.5zM322 1593 q0 65 45.5 110.5t109.5 45.5q65 0 110.5 -45.5t45.5 -110.5q0 -64 -45.5 -109.5t-110.5 -45.5t-110 45t-45 110zM756 1593q0 65 45.5 110.5t109.5 45.5q65 0 110.5 -45.5t45.5 -110.5q0 -64 -45.5 -109.5t-110.5 -45.5t-110 45t-45 110z" />
<glyph unicode="&#xdd;" horiz-adv-x="1114" d="M324 1331l254 -545l118 273l117 272h330l-416 -805v-526h-330v516l-430 815h357zM854 1516l-436 -134l-64 150l408 223z" />
<glyph unicode="&#xde;" horiz-adv-x="1179" d="M137 1331h330v-143h180q134 0 234 -35t159 -98t87 -144t28 -180q0 -219 -137 -350t-397 -131h-154v-250h-330v1331zM614 535q100 0 145.5 43.5t45.5 150.5q0 43 -7.5 74.5t-27.5 59.5t-60.5 42.5t-101.5 14.5h-141v-385h147z" />
<glyph unicode="&#xdf;" horiz-adv-x="1411" d="M903 764q0 -30 27 -53.5t71 -41.5t96.5 -37t105 -45.5t96.5 -61.5t71 -91.5t27 -128.5q0 -86 -39.5 -151t-108 -102t-149.5 -54.5t-174 -17.5q-106 0 -205.5 20.5t-165.5 58.5l76 273q53 -46 135.5 -77.5t151.5 -31.5q137 0 137 74q0 22 -21 40t-55.5 29.5t-78.5 26.5 t-90 30t-90 41.5t-78.5 59t-55.5 84t-21 115.5q0 55 23.5 103t57.5 81.5t68 62t57.5 58.5t23.5 59q0 37 -34.5 60.5t-88.5 23.5q-89 0 -124.5 -46.5t-35.5 -161.5v-963h-326v733h-145v225l145 19v59q0 83 28.5 149.5t76 110t113.5 73t137 42t149 12.5q469 0 469 -311 q0 -50 -26.5 -94.5t-64 -76t-75 -59.5t-64 -58t-26.5 -60z" />
<glyph unicode="&#xe0;" horiz-adv-x="1099" d="M635 319v93q-25 2 -72 2q-92 0 -139 -27t-47 -90q0 -39 27.5 -58.5t62.5 -19.5q44 0 79.5 17.5t52.5 36t36 46.5zM635 596l2 39q0 78 -26.5 108.5t-96.5 30.5q-62 0 -99.5 -26.5t-23.5 -79.5l-274 -41q-17 47 -17 92q0 129 124 213t319 84q204 0 311.5 -86.5 t106.5 -284.5l-3 -332q0 -61 23 -77t66 -3l14 -225q-98 -28 -180 -28q-197 0 -228 170q-48 -89 -126 -129.5t-160 -40.5q-146 0 -234 76t-88 223q0 76 31.5 134t81.5 92.5t121 56t139 29t147 7.5q13 0 36 -1t34 -1zM571 1102l-340 219l156 197l291 -291z" />
<glyph unicode="&#xe1;" horiz-adv-x="1099" d="M635 319v93q-25 2 -72 2q-92 0 -139 -27t-47 -90q0 -39 27.5 -58.5t62.5 -19.5q44 0 79.5 17.5t52.5 36t36 46.5zM635 596l2 39q0 78 -26.5 108.5t-96.5 30.5q-62 0 -99.5 -26.5t-23.5 -79.5l-274 -41q-17 47 -17 92q0 129 124 213t319 84q204 0 311.5 -86.5 t106.5 -284.5l-3 -332q0 -61 23 -77t66 -3l14 -225q-98 -28 -180 -28q-197 0 -228 170q-48 -89 -126 -129.5t-160 -40.5q-146 0 -234 76t-88 223q0 76 31.5 134t81.5 92.5t121 56t139 29t147 7.5q13 0 36 -1t34 -1zM836 1321l-340 -219l-107 125l291 291z" />
<glyph unicode="&#xe2;" horiz-adv-x="1099" d="M635 319v93q-25 2 -72 2q-92 0 -139 -27t-47 -90q0 -39 27.5 -58.5t62.5 -19.5q44 0 79.5 17.5t52.5 36t36 46.5zM635 596l2 39q0 78 -26.5 108.5t-96.5 30.5q-62 0 -99.5 -26.5t-23.5 -79.5l-274 -41q-17 47 -17 92q0 129 124 213t319 84q204 0 311.5 -86.5 t106.5 -284.5l-3 -332q0 -61 23 -77t66 -3l14 -225q-98 -28 -180 -28q-197 0 -228 170q-48 -89 -126 -129.5t-160 -40.5q-146 0 -234 76t-88 223q0 76 31.5 134t81.5 92.5t121 56t139 29t147 7.5q13 0 36 -1t34 -1zM616 1485l263 -260l-144 -131l-194 168l-213 -168 l-133 129l284 262h137z" />
<glyph unicode="&#xe3;" horiz-adv-x="1099" d="M635 319v93q-25 2 -72 2q-92 0 -139 -27t-47 -90q0 -39 27.5 -58.5t62.5 -19.5q44 0 79.5 17.5t52.5 36t36 46.5zM635 596l2 39q0 78 -26.5 108.5t-96.5 30.5q-62 0 -99.5 -26.5t-23.5 -79.5l-274 -41q-17 47 -17 92q0 129 124 213t319 84q204 0 311.5 -86.5 t106.5 -284.5l-3 -332q0 -61 23 -77t66 -3l14 -225q-98 -28 -180 -28q-197 0 -228 170q-48 -89 -126 -129.5t-160 -40.5q-146 0 -234 76t-88 223q0 76 31.5 134t81.5 92.5t121 56t139 29t147 7.5q13 0 36 -1t34 -1zM276 1169l-96 95q46 85 107.5 128.5t128.5 43.5 q44 0 133.5 -28t132.5 -28q74 0 125 62l98 -109q-40 -75 -109 -123.5t-137 -48.5q-39 0 -125.5 32t-132.5 32q-69 0 -125 -56z" />
<glyph unicode="&#xe4;" horiz-adv-x="1099" d="M635 319v93q-25 2 -72 2q-92 0 -139 -27t-47 -90q0 -39 27.5 -58.5t62.5 -19.5q44 0 79.5 17.5t52.5 36t36 46.5zM635 596l2 39q0 78 -26.5 108.5t-96.5 30.5q-62 0 -99.5 -26.5t-23.5 -79.5l-274 -41q-17 47 -17 92q0 129 124 213t319 84q204 0 311.5 -86.5 t106.5 -284.5l-3 -332q0 -61 23 -77t66 -3l14 -225q-98 -28 -180 -28q-197 0 -228 170q-48 -89 -126 -129.5t-160 -40.5q-146 0 -234 76t-88 223q0 76 31.5 134t81.5 92.5t121 56t139 29t147 7.5q13 0 36 -1t34 -1zM186 1268q0 64 45.5 109.5t110.5 45.5t110.5 -45.5 t45.5 -109.5t-46 -110t-110 -46t-110 46t-46 110zM580 1268q0 64 45 109.5t110 45.5t110.5 -45.5t45.5 -109.5t-45.5 -110t-110.5 -46q-64 0 -109.5 45.5t-45.5 110.5z" />
<glyph unicode="&#xe5;" horiz-adv-x="1099" d="M635 319v93q-25 2 -72 2q-92 0 -139 -27t-47 -90q0 -39 27.5 -58.5t62.5 -19.5q44 0 79.5 17.5t52.5 36t36 46.5zM635 596l2 39q0 78 -26.5 108.5t-96.5 30.5q-62 0 -99.5 -26.5t-23.5 -79.5l-274 -41q-17 47 -17 92q0 129 124 213t319 84q204 0 311.5 -86.5 t106.5 -284.5l-3 -332q0 -61 23 -77t66 -3l14 -225q-98 -28 -180 -28q-197 0 -228 170q-48 -89 -126 -129.5t-160 -40.5q-146 0 -234 76t-88 223q0 76 31.5 134t81.5 92.5t121 56t139 29t147 7.5q13 0 36 -1t34 -1zM545 1110q-108 0 -170 59t-62 156q0 102 70 157.5 t166 55.5q98 0 162.5 -53t64.5 -160q0 -91 -61.5 -153t-169.5 -62zM545 1249q38 0 53.5 18t15.5 58t-16.5 57t-52.5 17q-39 0 -54.5 -17t-15.5 -57q0 -41 17 -58.5t53 -17.5z" />
<glyph unicode="&#xe6;" horiz-adv-x="1626" d="M514 774q-62 0 -99.5 -26.5t-23.5 -79.5l-274 -41q-17 47 -17 92q0 129 124 213t319 84q197 0 299 -78q119 78 264 78q111 0 194.5 -28t146 -90t94.5 -166.5t32 -250.5q0 -44 -2 -69h-619q10 -54 33.5 -91t58 -56t71 -26.5t83.5 -7.5q66 0 146 31t143 82l82 -250 q-207 -114 -436 -114q-137 0 -250.5 49.5t-180.5 152.5q-117 -202 -335 -202q-146 0 -234 76t-88 223q0 69 25 123.5t70.5 88.5t100 57t123.5 33.5t130.5 13.5t130.5 1l12 53v10q0 62 -29.5 88.5t-93.5 26.5zM948 610h297q6 97 -27 139t-104 42q-77 0 -116.5 -41.5 t-49.5 -139.5zM377 297q0 -39 27.5 -58.5t62.5 -19.5q98 0 174 98q-12 42 -18 95q-20 2 -62 2q-91 0 -137.5 -27t-46.5 -90z" />
<glyph unicode="&#xe7;" horiz-adv-x="972" d="M344 -436l49 149q50 -47 111 -47q71 0 71 55q0 69 -137 72l43 189q-93 8 -170.5 43t-137 97.5t-93 159t-33.5 218.5q0 143 60 259t179.5 186.5t278.5 70.5q211 0 371 -94l-107 -283q-115 115 -241 115q-91 0 -145 -64t-54 -190q0 -138 57.5 -198t151.5 -60q129 0 250 100 l82 -250q-129 -87 -309 -106l-21 -92q93 -17 142 -66.5t49 -122.5q0 -49 -23 -86t-61.5 -57t-81 -29.5t-88.5 -9.5q-49 0 -105 12t-88 29z" />
<glyph unicode="&#xe8;" horiz-adv-x="1054" d="M627 231q66 0 145.5 31t142.5 82l82 -250q-207 -114 -436 -114q-82 0 -155 17.5t-139.5 57t-114.5 99t-76.5 149.5t-28.5 201q0 115 41 213t109 162.5t155.5 100.5t182.5 36q227 0 346.5 -124.5t119.5 -410.5q0 -44 -2 -69h-618q10 -54 33.5 -91t58 -56t71 -26.5 t83.5 -7.5zM598 1102l-340 219l156 197l291 -291zM377 610h297q6 97 -27 139t-104 42q-77 0 -116.5 -41.5t-49.5 -139.5z" />
<glyph unicode="&#xe9;" horiz-adv-x="1054" d="M627 231q66 0 145.5 31t142.5 82l82 -250q-207 -114 -436 -114q-82 0 -155 17.5t-139.5 57t-114.5 99t-76.5 149.5t-28.5 201q0 115 41 213t109 162.5t155.5 100.5t182.5 36q227 0 346.5 -124.5t119.5 -410.5q0 -44 -2 -69h-618q10 -54 33.5 -91t58 -56t71 -26.5 t83.5 -7.5zM809 1321l-340 -219l-107 125l291 291zM377 610h297q6 97 -27 139t-104 42q-77 0 -116.5 -41.5t-49.5 -139.5z" />
<glyph unicode="&#xea;" horiz-adv-x="1054" d="M627 231q66 0 145.5 31t142.5 82l82 -250q-207 -114 -436 -114q-82 0 -155 17.5t-139.5 57t-114.5 99t-76.5 149.5t-28.5 201q0 115 41 213t109 162.5t155.5 100.5t182.5 36q227 0 346.5 -124.5t119.5 -410.5q0 -44 -2 -69h-618q10 -54 33.5 -91t58 -56t71 -26.5 t83.5 -7.5zM627 1485l262 -260l-144 -131l-194 168l-213 -168l-133 129l284 262h138zM377 610h297q6 97 -27 139t-104 42q-77 0 -116.5 -41.5t-49.5 -139.5z" />
<glyph unicode="&#xeb;" horiz-adv-x="1054" d="M627 231q66 0 145.5 31t142.5 82l82 -250q-207 -114 -436 -114q-82 0 -155 17.5t-139.5 57t-114.5 99t-76.5 149.5t-28.5 201q0 115 41 213t109 162.5t155.5 100.5t182.5 36q227 0 346.5 -124.5t119.5 -410.5q0 -44 -2 -69h-618q10 -54 33.5 -91t58 -56t71 -26.5 t83.5 -7.5zM594 1268q0 64 45.5 109.5t110.5 45.5q64 0 109.5 -45.5t45.5 -109.5q0 -65 -45.5 -110.5t-109.5 -45.5t-110 46t-46 110zM201 1268q0 64 45.5 109.5t109.5 45.5q65 0 110.5 -45.5t45.5 -109.5t-46 -110t-110 -46t-109.5 45.5t-45.5 110.5zM377 610h297 q6 97 -27 139t-104 42q-77 0 -116.5 -41.5t-49.5 -139.5z" />
<glyph unicode="&#xec;" horiz-adv-x="555" d="M440 985v-985h-325v985h325zM297 1102l-340 219l156 197l290 -291z" />
<glyph unicode="&#xed;" horiz-adv-x="555" d="M440 985v-985h-325v985h325zM520 1321l-340 -219l-106 125l291 291z" />
<glyph unicode="&#xee;" horiz-adv-x="555" d="M440 985v-985h-325v985h325zM350 1485l262 -260l-143 -131l-195 168l-213 -168l-133 129l285 262h137z" />
<glyph unicode="&#xef;" horiz-adv-x="555" d="M440 985v-985h-325v985h325zM-74 1268q0 64 45.5 109.5t110.5 45.5t110.5 -45.5t45.5 -109.5t-46 -110t-110 -46t-110 46t-46 110zM319 1268q0 64 45.5 109.5t110.5 45.5t110.5 -45.5t45.5 -109.5t-45.5 -110t-110.5 -46t-110.5 46t-45.5 110z" />
<glyph unicode="&#xf0;" horiz-adv-x="1193" d="M49 500q0 205 132 337t345 132q40 0 111 -11q-57 67 -141 129l-80 -96l-137 80l81 103q-11 6 -23.5 12t-28 13t-23.5 11l159 209q65 -33 78 -41l66 82l145 -88l-65 -78q101 -64 177 -134t137.5 -160t96 -203t41.5 -248q0 -8 1 -24.5t1 -24.5q0 -146 -62 -263t-184.5 -187 t-285.5 -70q-251 0 -396 139t-145 381zM391 502q0 -271 189 -271q118 0 159 62t41 209q0 107 -28 217q-79 24 -156 24q-115 0 -160 -57t-45 -184z" />
<glyph unicode="&#xf1;" horiz-adv-x="1208" d="M440 616v-616h-325v985h297l6 -145q136 176 356 176q68 0 126 -20t104.5 -60t73 -109.5t26.5 -160.5v-666h-326v561q0 93 -35 126.5t-98 33.5q-53 0 -109.5 -29.5t-95.5 -75.5zM346 1169l-96 95q46 85 107 128.5t128 43.5q44 0 134 -28t133 -28q74 0 125 62l98 -109 q-40 -75 -109 -123.5t-137 -48.5q-39 0 -125.5 32t-132.5 32q-69 0 -125 -56z" />
<glyph unicode="&#xf2;" horiz-adv-x="1165" d="M45 500q0 221 149.5 368.5t389.5 147.5q254 0 394 -141.5t140 -374.5q0 -146 -62 -263t-184.5 -187t-285.5 -70q-251 0 -396 139t-145 381zM387 502q0 -271 188 -271q118 0 159.5 62t41.5 209q0 58 -8.5 102t-30 82t-62.5 58t-100 20q-102 0 -145 -66t-43 -196zM604 1102 l-340 219l156 197l291 -291z" />
<glyph unicode="&#xf3;" horiz-adv-x="1165" d="M45 500q0 221 149.5 368.5t389.5 147.5q254 0 394 -141.5t140 -374.5q0 -146 -62 -263t-184.5 -187t-285.5 -70q-251 0 -396 139t-145 381zM387 502q0 -271 188 -271q118 0 159.5 62t41.5 209q0 58 -8.5 102t-30 82t-62.5 58t-100 20q-102 0 -145 -66t-43 -196zM850 1321 l-340 -219l-107 125l291 291z" />
<glyph unicode="&#xf4;" horiz-adv-x="1165" d="M45 500q0 221 149.5 368.5t389.5 147.5q254 0 394 -141.5t140 -374.5q0 -146 -62 -263t-184.5 -187t-285.5 -70q-251 0 -396 139t-145 381zM387 502q0 -271 188 -271q118 0 159.5 62t41.5 209q0 58 -8.5 102t-30 82t-62.5 58t-100 20q-102 0 -145 -66t-43 -196zM657 1485 l263 -260l-144 -131l-194 168l-213 -168l-133 129l284 262h137z" />
<glyph unicode="&#xf5;" horiz-adv-x="1165" d="M45 500q0 221 149.5 368.5t389.5 147.5q254 0 394 -141.5t140 -374.5q0 -146 -62 -263t-184.5 -187t-285.5 -70q-251 0 -396 139t-145 381zM387 502q0 -271 188 -271q118 0 159.5 62t41.5 209q0 58 -8.5 102t-30 82t-62.5 58t-100 20q-102 0 -145 -66t-43 -196zM313 1169 l-96 95q46 85 107.5 128.5t128.5 43.5q44 0 133.5 -28t132.5 -28q74 0 125 62l98 -109q-40 -75 -109 -123.5t-137 -48.5q-39 0 -125.5 32t-132.5 32q-69 0 -125 -56z" />
<glyph unicode="&#xf6;" horiz-adv-x="1165" d="M45 500q0 221 149.5 368.5t389.5 147.5q254 0 394 -141.5t140 -374.5q0 -146 -62 -263t-184.5 -187t-285.5 -70q-251 0 -396 139t-145 381zM387 502q0 -271 188 -271q118 0 159.5 62t41.5 209q0 58 -8.5 102t-30 82t-62.5 58t-100 20q-102 0 -145 -66t-43 -196zM229 1268 q0 64 45.5 109.5t110.5 45.5t110.5 -45.5t45.5 -109.5t-45.5 -110t-110.5 -46t-110.5 46t-45.5 110zM623 1268q0 64 45.5 109.5t109.5 45.5q65 0 110.5 -45.5t45.5 -109.5t-46 -110t-110 -46t-109.5 45.5t-45.5 110.5z" />
<glyph unicode="&#xf7;" horiz-adv-x="929" d="M883 465h-836v207h836v-207zM311 899q0 65 46 111.5t112 46.5q65 0 111.5 -46.5t46.5 -111.5q0 -66 -46.5 -112t-111.5 -46q-66 0 -112 46t-46 112zM311 231q0 65 46 111.5t112 46.5q65 0 111.5 -46.5t46.5 -111.5q0 -66 -46.5 -111.5t-111.5 -45.5q-66 0 -112 45.5 t-46 111.5z" />
<glyph unicode="&#xf8;" horiz-adv-x="1165" d="M45 500q0 221 149.5 368.5t389.5 147.5q151 0 270 -58l49 58h260l-153 -178q108 -132 108 -338q0 -146 -62 -263t-184.5 -187t-285.5 -70q-152 0 -275 55l-47 -55h-252l148 172q-115 134 -115 348zM387 502q0 -32 4 -82l279 325q-40 19 -95 19q-102 0 -145 -66t-43 -196z M575 231q118 0 159.5 62t41.5 209q0 23 -4 63l-276 -319q35 -15 79 -15z" />
<glyph unicode="&#xf9;" horiz-adv-x="1202" d="M762 379v606h325v-985h-286l-17 156q-136 -176 -350 -176q-330 0 -330 350v655h326v-571q0 -95 30.5 -129.5t84.5 -34.5q52 0 112 37.5t105 91.5zM645 1102l-340 219l156 197l291 -291z" />
<glyph unicode="&#xfa;" horiz-adv-x="1202" d="M762 379v606h325v-985h-286l-17 156q-136 -176 -350 -176q-330 0 -330 350v655h326v-571q0 -95 30.5 -129.5t84.5 -34.5q52 0 112 37.5t105 91.5zM862 1321l-340 -219l-106 125l291 291z" />
<glyph unicode="&#xfb;" horiz-adv-x="1202" d="M762 379v606h325v-985h-286l-17 156q-136 -176 -350 -176q-330 0 -330 350v655h326v-571q0 -95 30.5 -129.5t84.5 -34.5q52 0 112 37.5t105 91.5zM678 1485l262 -260l-143 -131l-195 168l-213 -168l-133 129l285 262h137z" />
<glyph unicode="&#xfc;" horiz-adv-x="1202" d="M762 379v606h325v-985h-286l-17 156q-136 -176 -350 -176q-330 0 -330 350v655h326v-571q0 -95 30.5 -129.5t84.5 -34.5q52 0 112 37.5t105 91.5zM264 1268q0 64 45.5 109.5t110.5 45.5q64 0 109.5 -45.5t45.5 -109.5q0 -65 -45.5 -110.5t-109.5 -45.5t-110 46t-46 110z M657 1268q0 64 45.5 109.5t110.5 45.5t110.5 -45.5t45.5 -109.5t-45.5 -110t-110.5 -46t-110.5 46t-45.5 110z" />
<glyph unicode="&#xfd;" horiz-adv-x="1034" d="M1044 985l-493 -1436h-326l123 371l-358 1065h354l102 -354l84 -314l82 295l105 373h327zM803 1321l-340 -219l-107 125l291 291z" />
<glyph unicode="&#xfe;" horiz-adv-x="1189" d="M602 -20q-62 0 -162 14v-445h-325v1854h325v-553q46 74 130 120t165 46q194 0 299 -131.5t105 -366.5q0 -250 -149.5 -394t-387.5 -144zM440 623v-349q53 -36 142 -36q98 0 156.5 62.5t58.5 182.5q0 132 -42.5 189t-127.5 57q-52 0 -101.5 -29.5t-85.5 -76.5z" />
<glyph unicode="&#xff;" horiz-adv-x="1034" d="M1044 985l-493 -1436h-326l123 371l-358 1065h354l102 -354l84 -314l82 295l105 373h327zM195 1268q0 64 45.5 109.5t109.5 45.5q65 0 110.5 -45.5t45.5 -109.5t-46 -110t-110 -46t-109.5 45.5t-45.5 110.5zM588 1268q0 64 45 109.5t110 45.5t110.5 -45.5t45.5 -109.5 t-45.5 -110t-110.5 -46q-64 0 -109.5 45.5t-45.5 110.5z" />
<glyph unicode="&#x152;" horiz-adv-x="1869" d="M713 1350q96 0 196 -19h881v-268h-586v-252h529v-266h-529v-273h584v-272h-889q-95 -20 -184 -20q-145 0 -265.5 43.5t-209 126.5t-138 211t-49.5 290q0 200 80 358.5t231 249.5t349 91zM715 246q91 0 159 30v779q-63 28 -161 28q-107 0 -172.5 -39.5t-100 -135.5 t-34.5 -257q0 -204 74.5 -304.5t234.5 -100.5z" />
<glyph unicode="&#x153;" horiz-adv-x="1802" d="M45 500q0 221 149.5 368.5t389.5 147.5q232 0 374 -123q135 123 324 123q111 0 194.5 -28t146 -90t94.5 -166.5t32 -250.5q0 -44 -2 -69h-619q10 -54 33.5 -91t58 -56t71 -26.5t83.5 -7.5q66 0 146 31t143 82l82 -250q-207 -114 -436 -114q-227 0 -363 122 q-138 -122 -360 -122q-251 0 -396 139t-145 381zM387 502q0 -271 188 -271q118 0 159.5 62t41.5 209q0 58 -8.5 102t-30 82t-62.5 58t-100 20q-102 0 -145 -66t-43 -196zM1124 610h297q6 97 -27 139t-104 42q-77 0 -116.5 -41.5t-49.5 -139.5z" />
<glyph unicode="&#x178;" horiz-adv-x="1114" d="M324 1331l254 -545l118 273l117 272h330l-416 -805v-526h-330v516l-430 815h357zM637 1593q0 65 45.5 110.5t110.5 45.5q64 0 109.5 -45.5t45.5 -110.5t-45 -110t-110 -45t-110.5 45.5t-45.5 109.5zM203 1593q0 65 45.5 110.5t109.5 45.5t110 -45.5t46 -110.5 q0 -64 -45.5 -109.5t-110.5 -45.5q-64 0 -109.5 45t-45.5 110z" />
<glyph unicode="&#x2c6;" horiz-adv-x="921" d="M537 1485l262 -260l-144 -131l-194 168l-213 -168l-133 129l284 262h138z" />
<glyph unicode="&#x2dc;" horiz-adv-x="921" d="M199 1169l-97 95q46 85 107.5 128.5t128.5 43.5q44 0 133.5 -28t132.5 -28q74 0 125 62l98 -109q-40 -75 -109 -123.5t-136 -48.5q-39 0 -125.5 32t-132.5 32q-69 0 -125 -56z" />
<glyph unicode="&#x2000;" horiz-adv-x="915" />
<glyph unicode="&#x2001;" horiz-adv-x="1831" />
<glyph unicode="&#x2002;" horiz-adv-x="915" />
<glyph unicode="&#x2003;" horiz-adv-x="1831" />
<glyph unicode="&#x2004;" horiz-adv-x="610" />
<glyph unicode="&#x2005;" horiz-adv-x="457" />
<glyph unicode="&#x2006;" horiz-adv-x="305" />
<glyph unicode="&#x2007;" horiz-adv-x="305" />
<glyph unicode="&#x2008;" horiz-adv-x="228" />
<glyph unicode="&#x2009;" horiz-adv-x="366" />
<glyph unicode="&#x200a;" horiz-adv-x="101" />
<glyph unicode="&#x2010;" horiz-adv-x="802" d="M694 383h-585v264h585v-264z" />
<glyph unicode="&#x2011;" horiz-adv-x="802" d="M694 383h-585v264h585v-264z" />
<glyph unicode="&#x2012;" horiz-adv-x="802" d="M694 383h-585v264h585v-264z" />
<glyph unicode="&#x2013;" horiz-adv-x="1126" d="M113 412v219h901v-219h-901z" />
<glyph unicode="&#x2014;" horiz-adv-x="2150" d="M113 412v219h1925v-219h-1925z" />
<glyph unicode="&#x2018;" horiz-adv-x="475" d="M344 844h-291q0 140 64 291.5t157 267.5l199 -64q-74 -120 -101.5 -236t-27.5 -259z" />
<glyph unicode="&#x2019;" horiz-adv-x="452" d="M154 1403h290q0 -140 -64 -291.5t-157 -267.5l-198 63q74 120 101.5 236.5t27.5 259.5z" />
<glyph unicode="&#x201a;" horiz-adv-x="468" d="M100 276h291q0 -140 -64 -291.5t-157 -267.5l-199 64q74 120 101.5 236t27.5 259z" />
<glyph unicode="&#x201c;" horiz-adv-x="886" d="M756 844h-291q0 140 64 291.5t157 267.5l199 -64q-74 -120 -101.5 -236t-27.5 -259zM344 844h-291q0 140 64 291.5t157 267.5l199 -64q-74 -120 -101.5 -236t-27.5 -259z" />
<glyph unicode="&#x201d;" horiz-adv-x="864" d="M154 1403h290q0 -140 -64 -291.5t-157 -267.5l-198 63q74 120 101.5 236.5t27.5 259.5zM565 1403h291q0 -140 -64 -291.5t-157 -267.5l-199 63q74 120 101.5 236.5t27.5 259.5z" />
<glyph unicode="&#x201e;" horiz-adv-x="880" d="M100 276h291q0 -140 -64 -291.5t-157 -267.5l-199 64q74 120 101.5 236t27.5 259zM512 276h291q0 -140 -64 -291.5t-157 -267.5l-199 64q74 120 101.5 236t27.5 259z" />
<glyph unicode="&#x2022;" horiz-adv-x="606" d="M57 551q0 103 71.5 175.5t174.5 72.5t175.5 -72.5t72.5 -175.5t-72.5 -174.5t-175.5 -71.5t-174.5 71.5t-71.5 174.5z" />
<glyph unicode="&#x2026;" horiz-adv-x="1488" d="M61 154q0 82 50.5 129t138.5 47q85 0 137.5 -45t52.5 -131q0 -85 -48.5 -131t-141.5 -46q-94 0 -141.5 45.5t-47.5 131.5zM555 154q0 82 50 129t138 47q86 0 138.5 -45t52.5 -131q0 -85 -49 -131t-142 -46q-94 0 -141 45.5t-47 131.5zM1049 154q0 82 50 129t138 47 q85 0 137.5 -45t52.5 -131q0 -85 -48.5 -131t-141.5 -46q-94 0 -141 45.5t-47 131.5z" />
<glyph unicode="&#x202f;" horiz-adv-x="366" />
<glyph unicode="&#x2039;" horiz-adv-x="602" d="M16 479l285 473h254l-203 -467l203 -479h-254z" />
<glyph unicode="&#x203a;" horiz-adv-x="600" d="M299 952l287 -473l-287 -473h-252l203 479l-203 467h252z" />
<glyph unicode="&#x205f;" horiz-adv-x="457" />
<glyph unicode="&#x20ac;" horiz-adv-x="1216" d="M219 379h-194l20 217h139q-2 20 -2 66v45h-137l21 217h151q61 203 216.5 314.5t371.5 111.5q180 0 364 -93l-96 -258q-150 86 -268 86q-165 0 -232 -161h390l-23 -217h-408v-39q0 -38 3 -72h395l-21 -217h-313q79 -135 242 -135q132 0 280 88l80 -254 q-110 -59 -200.5 -78.5t-217.5 -19.5q-216 0 -359 102t-202 297z" />
<glyph unicode="&#x2122;" horiz-adv-x="1753" d="M735 545v788h262l99 -272l112 -318l115 328l96 262h244v-788h-207v416l-65 -203l-70 -213h-231l-78 209l-88 239v-448h-189zM244 545v622h-238v166h694v-166h-237v-622h-219z" />
<glyph unicode="&#x25fc;" horiz-adv-x="983" d="M0 983h983v-983h-983v983z" />
</font>
</defs>
</svg>
