<?xml version="1.0" encoding="utf-8"?>
<!-- Generator: Adobe Illustrator 19.1.0, SVG Export Plug-In . SVG Version: 6.00 Build 0)  -->
<!DOCTYPE svg PUBLIC "-//W3C//DTD SVG 1.1//EN" "http://www.w3.org/Graphics/SVG/1.1/DTD/svg11.dtd">
<svg version="1.1" id="Layer_1" xmlns="http://www.w3.org/2000/svg" xmlns:xlink="http://www.w3.org/1999/xlink" x="0px" y="0px"
	 viewBox="0 0 429.8 38" enable-background="new 0 0 429.8 38" xml:space="preserve">
<g>
	<polygon fill="#FFFFFF" points="423,8 419.6,23.7 416.5,8 409.6,8 406.3,23.5 403.2,8 396.4,8 402.4,30.2 409.5,30.2 412.8,15.4 
		416.1,30.2 423.1,30.2 429.7,8 	"/>
	<path fill="#FFFFFF" d="M385.5,7.3c-8.7,0-11.4,6.6-11.4,12.2c0,7.2,4.5,11.5,11.2,11.5c4.6,0,8.6-2.2,11.1-6.4l-4.9-2.6
		c-0.7,1.8-2.5,4-5.6,4c-3,0-5.1-2.3-5.1-5.3v-0.3h15.9v-0.3C396.7,14,393.9,7.3,385.5,7.3z M380.8,16.4c0.3-1.8,1.6-4.4,4.7-4.4
		c2.7,0,4.3,1.9,4.4,4.4H380.8z"/>
	<polygon fill="#FFFFFF" points="352.7,23.1 348.7,8 341.8,8 349,30.2 355.9,30.2 363.1,8 356.3,8 	"/>
	<rect x="364.9" y="0.2" fill="#FFFFFF" width="6.5" height="5.8"/>
	<rect x="364.9" y="8" fill="#FFFFFF" width="6.5" height="22.2"/>
	<path fill="#FFFFFF" d="M228.5,7.3c-8.3,0-11.7,6-11.7,11.7c0,8.8,6.1,11.9,11.9,11.9c7.4,0,12-4.6,12-11.8
		C240.6,13.8,237.8,7.3,228.5,7.3z M228.8,25.7c-3.8,0-5.4-2.9-5.4-6.6c0-4.6,2.6-6.5,5.1-6.5c3.6,0,5.6,2.1,5.6,6.8
		C234,22.6,232.4,25.7,228.8,25.7z"/>
	<rect x="207.9" y="0.2" fill="#FFFFFF" width="6.5" height="30"/>
	<path fill="#FFFFFF" d="M193.5,7.3c-8.3,0-11.7,6-11.7,11.7c0,8.8,6.1,11.9,11.9,11.9c7.4,0,12-4.6,12-11.8
		C205.7,13.8,202.8,7.3,193.5,7.3z M193.8,25.7c-3.8,0-5.4-2.9-5.4-6.6c0-4.6,2.6-6.5,5.1-6.5c3.6,0,5.6,2.1,5.6,6.8
		C199,22.6,197.4,25.7,193.8,25.7z"/>
	<path fill="#FFFFFF" d="M172.6,7.4c-3.1,0-5.2,1.2-6.3,2.5V8h-6.6v22.2h6.6V17.8c0-3,0.4-5.1,3.4-5.1c2.6,0,3.2,1.7,3.2,3.8v13.7
		h6.6v-16C179.5,9.7,177.1,7.4,172.6,7.4z"/>
	<path fill="#FFFFFF" d="M149.1,7.4c-1.3,0-3.9,0.3-6.3,3V0.2h-6.6v30h6.6V18.5c0-3.5,0.8-5.5,3.5-5.5c3.2,0,3.4,2.9,3.4,5.2v12h6.5
		V15C156.1,10.3,153.7,7.4,149.1,7.4z"/>
	<path fill="#FFFFFF" d="M125.5,25.7c-3.6,0-4.9-3.9-4.9-6.7c0-2.7,1.2-6.7,4.7-6.7c2.6,0,3.7,1.9,4.3,3.1l4.9-2.8
		c-3.1-4.9-7.5-5.4-9.5-5.4c-5,0-11.1,3-11.1,11.9c0,8.3,5.8,11.7,11,11.7c3.4,0,7.4-1.6,9.9-6l-4.9-2.6
		C129.3,23.8,128,25.7,125.5,25.7z"/>
	<path fill="#FFFFFF" d="M101.2,7.3c-8.7,0-11.4,6.6-11.4,12.2c0,7.2,4.5,11.5,11.2,11.5c4.6,0,8.6-2.2,11.1-6.4l-4.9-2.6
		c-0.7,1.8-2.5,4-5.6,4c-3,0-5.1-2.3-5.1-5.3v-0.3h15.9v-0.3C112.3,14,109.5,7.3,101.2,7.3z M96.5,16.4c0.3-1.8,1.6-4.4,4.7-4.4
		c2.7,0,4.3,1.9,4.4,4.4H96.5z"/>
	<path fill="#FFFFFF" d="M257.6,10.1c-1.2-1.1-2.9-2.4-6.2-2.4c-5.3,0-9.2,4.2-9.2,10.8c0,8.6,5.6,10.7,9.2,10.7
		c3,0,4.3-0.9,5.8-1.9v3c0,2.5-1.4,3.5-3.9,3.5c-3.4,0-4-1.7-4-3.2h-6.8v0.3c0,4.8,4.2,7.3,10.1,7.3c7.2,0,11-2.7,11-8.5V8.1h-6.2
		V10.1z M253.1,24.2c-3.6,0-4.2-2.8-4.2-6c0-1.4,0.2-5.7,4-5.7c3.8,0,4.2,3.1,4.2,5.9C257.2,20.7,257,24.2,253.1,24.2z"/>
	<path fill="#FFFFFF" d="M276,23.9L272.3,8h-7l6.5,20.9c0.3,1.1,0.5,1.5,0.5,2.1c0,0.8-0.4,1.6-2.4,1.6h-3.4v5.2h5.5
		c2,0,3.3-0.3,4.6-1.7c1.1-1.2,1.7-2.6,2.2-4.2l7.8-24h-7L276,23.9z"/>
	<polygon fill="#FFFFFF" points="94.1,0.2 71.7,0.2 71.7,6.1 79.3,6.1 79.3,30.2 86.1,30.2 86.1,6.1 92.8,6.1 	"/>
	<polygon fill="#FFFFFF" points="42.3,6.1 49.9,6.1 49.9,30.2 56.7,30.2 56.7,6.1 64.2,6.1 64.2,0.2 42.3,0.2 	"/>
	<rect x="33.9" y="0.2" fill="#FFFFFF" width="6.5" height="30"/>
	<path fill="#FFFFFF" d="M14.8,21.1L10.2,0.2H-0.1v30h6.8c0,0,0-18.2-0.2-22.5l5.3,22.5h5.8L23,7.7c-0.2,5.9-0.2,22.5-0.2,22.5h6.7
		v-30H19.3L14.8,21.1z"/>
	<path fill="#FFFFFF" d="M331.1,7.3c-8.7,0-11.4,6.6-11.4,12.2c0,7.2,4.5,11.5,11.2,11.5c4.6,0,8.6-2.2,11.1-6.4L337,22
		c-0.7,1.8-2.5,4-5.6,4c-3,0-5.1-2.3-5.1-5.3v-0.3h15.9v-0.3C342.2,14,339.4,7.3,331.1,7.3z M326.4,16.4c0.3-1.8,1.6-4.4,4.7-4.4
		c2.7,0,4.3,1.9,4.4,4.4H326.4z"/>
	<path fill="#FFFFFF" d="M318.8,9.9c0-8.2-7.2-9.7-11.4-9.7h-12.7v30h6.8V19.5h4.6l5.7,10.7h7.7l-6.6-12
		C316,16.9,318.8,14.9,318.8,9.9z M307.3,13.9h-5.9V5.7h6c1.3,0,4.7,0.1,4.7,4C312,10.7,311.4,13.9,307.3,13.9z"/>
</g>
</svg>
