<!-- Generator: Adobe Illustrator 19.0.0, SVG Export Plug-In  -->
<svg version="1.1"
   xmlns="http://www.w3.org/2000/svg" xmlns:xlink="http://www.w3.org/1999/xlink" xmlns:a="http://ns.adobe.com/AdobeSVGViewerExtensions/3.0/"
   x="0px" y="0px" width="27px" height="21.5px" viewBox="0 0 27 21.5" enable-background="new 0 0 27 21.5" xml:space="preserve">
<defs>
</defs>
<g id="XMLID_15_">
  <path id="XMLID_16_" fill="#23231E" d="M27,2.4c-1.1,0.5-2,0.8-3.2,0.9c1.1-0.6,2-1.8,2.4-3.1c-1.1,0.6-2.3,1.1-3.5,1.4
    c-1.1-1.1-2.4-1.7-4-1.7c-3.1,0-5.5,2.4-5.5,5.5c0,0.5,0,0.9,0.2,1.2C8.8,6.4,4.7,4.3,2,0.9C1.5,1.7,1.2,2.7,1.2,3.7
    c0,2,0.9,3.7,2.4,4.6c-0.9,0-1.8-0.3-2.4-0.8l0,0c0,2.7,1.8,4.9,4.4,5.5c-0.5,0.2-0.9,0.2-1.5,0.2c-0.3,0-0.8,0-1.1-0.2
    c0.8,2.1,2.7,3.8,5.2,3.8c-1.8,1.5-4.3,2.4-6.9,2.4c-0.5,0-0.9,0-1.4-0.2c2.4,1.5,5.3,2.4,8.5,2.4c10.2,0,15.7-8.4,15.7-15.7
    c0-0.3,0-0.5,0-0.8C25.3,4.6,26.2,3.5,27,2.4"/>
</g>
</svg>
