<!-- Generator: Adobe Illustrator 19.0.0, SVG Export Plug-In  -->
<svg version="1.1"
   xmlns="http://www.w3.org/2000/svg" xmlns:xlink="http://www.w3.org/1999/xlink" xmlns:a="http://ns.adobe.com/AdobeSVGViewerExtensions/3.0/"
   x="0px" y="0px" width="20px" height="20px" viewBox="0 0 9.9 20" enable-background="new 0 0 9.9 20" xml:space="preserve">
<defs>
</defs>
<path id="XMLID_15_" fill="#23231E" d="M2.6,20V9.9H0V6.5h2.6c0,0,0-2.2,0-2.7C2.6,3.3,2.5,0,6.8,0c0.6,0,2,0,3.2,0c0,1.4,0,3,0,3.5
  c-0.9,0-1.9,0-2.4,0c-0.4,0-0.9,0.5-0.9,0.8s0,2.3,0,2.3s2.7,0,3.1,0C9.7,8.3,9.4,9.9,9.4,9.9H6.7V20L2.6,20z"/>
</svg>
