<?xml version="1.0" encoding="UTF-8" standalone="no"?>
<svg id="Layer_1" xmlns="http://www.w3.org/2000/svg" xml:space="preserve" viewBox="0 0 171 170" version="1.1" y="0px" x="0px" xmlns:xlink="http://www.w3.org/1999/xlink" enable-background="new 0 0 171 170">
<path fill="#372213" clip-rule="evenodd" d="m98.5 100.1c3.6-2 6.6-4.7 9.1-7.9 2.4-3.3 4.3-7 5.5-11.3s1.8-8.6 1.8-13.1c0-4.4-0.5-8.7-1.6-13.1-1-4.4-2.7-8.3-5.1-11.9-2.3-3.6-5.3-6.4-9-8.6s-8.1-3.3-13.4-3.3c-5.2 0-9.7 1.1-13.4 3.2s-6.8 4.9-9.3 8.4c-2.4 3.5-4.2 7.4-5.3 11.8s-1.6 8.9-1.6 13.5c0 4.5 0.6 8.9 1.7 13.1 1.2 4.2 3 8 5.4 11.3 2.5 3.3 5.5 5.9 9.3 7.9 3.7 2 8.1 3 13.3 3 4.8 0 9-1 12.6-3zm25.3 23.7c-1.5 5.3-3.8 9.8-6.9 13.4-3.1 3.7-7.2 6.5-12.3 8.4-5.1 2-11.3 2.9-18.6 2.9-4.5 0-9-0.5-13.3-1.5s-8.2-2.6-11.6-4.8-6.3-5-8.6-8.4-3.6-7.4-3.9-12.2h11c0.6 3.3 1.7 6.1 3.4 8.4s3.7 4.1 6.1 5.4c2.4 1.4 5 2.4 7.9 3s5.9 1 8.9 1c10.2 0 17.6-2.9 22.2-8.6 4.5-5.7 6.8-14 6.8-24.8v-12.1h-0.3c-2.6 5.5-6.3 10-11.3 13.3s-10.7 5-17.4 5c-7.2 0-13.4-1.2-18.5-3.5-5.1-2.4-9.3-5.6-12.7-9.8-3.3-4.1-5.7-9-7.3-14.6-1.5-5.6-2.3-11.5-2.3-17.8 0-6.1 0.9-11.9 2.7-17.3 1.8-5.5 4.4-10.2 7.8-14.3s7.7-7.3 12.8-9.6c5.1-2.4 10.9-3.5 17.4-3.5 3.4 0 6.5 0.5 9.5 1.4s5.7 2.2 8.1 3.9 4.6 3.6 6.6 5.8c1.9 2.2 3.4 4.5 4.4 6.9h0.3v-15.5h11v81.7c0.3 6.6-0.5 12.5-1.9 17.8z" fill-rule="evenodd"/>
</svg>
