<?xml version="1.0" standalone="no"?>
<!DOCTYPE svg PUBLIC "-//W3C//DTD SVG 1.1//EN" "http://www.w3.org/Graphics/SVG/1.1/DTD/svg11.dtd" >
<svg xmlns="http://www.w3.org/2000/svg">
<metadata>
Created by FontPrep 20130207 at Mon Apr 18 15:45:56 2016
 By Jen Lee
</metadata>
<defs>
<font id="c38b68c1797c0536c634124a180a9cac" horiz-adv-x='1024' >
  <font-face 
    font-family="q-icons-q-icons"
    font-weight="400"
    font-stretch="normal"
    units-per-em="2048"
    panose-1="2 0 5 3 0 0 0 0 0 0"
    ascent="1638"
    descent="-410"
    bbox="-2 -276.939 1538 1489"
    underline-thickness="0"
    underline-position="0"
    unicode-range="U+0020-F151"
  />
<missing-glyph horiz-adv-x="1024" 
 />
    <glyph glyph-name=".notdef" unicode="&#xaf;" horiz-adv-x="1024" 
 />
    <glyph glyph-name=".notdef" unicode="&#xfffd;" horiz-adv-x="1024" 
 />
    <glyph glyph-name=".notdef" unicode="&#x2044;" horiz-adv-x="1024" 
 />
    <glyph glyph-name=".notdef" unicode="&#x2030;" horiz-adv-x="1024" 
 />
    <glyph glyph-name=".notdef" unicode="&#x2026;" horiz-adv-x="1024" 
 />
    <glyph glyph-name=".notdef" unicode="&#x192;" horiz-adv-x="1024" 
 />
    <glyph glyph-name=".notdef" unicode="&#x131;" horiz-adv-x="1024" 
 />
    <glyph glyph-name=".notdef" unicode="&#xf8;" horiz-adv-x="1024" 
 />
    <glyph glyph-name=".notdef" unicode="&#xe6;" horiz-adv-x="1024" 
 />
    <glyph glyph-name=".notdef" unicode="&#xdf;" horiz-adv-x="1024" 
 />
    <glyph glyph-name=".notdef" unicode="&#xd8;" horiz-adv-x="1024" 
 />
    <glyph glyph-name=".notdef" unicode="&#xc6;" horiz-adv-x="1024" 
 />
    <glyph glyph-name=".notdef" unicode="&#xbf;" horiz-adv-x="1024" 
 />
    <glyph glyph-name=".notdef" unicode="&#xb4;" horiz-adv-x="1024" 
 />
    <glyph glyph-name=".null" horiz-adv-x="0" 
 />
    <glyph glyph-name="nonmarkingreturn" horiz-adv-x="681" 
 />
    <glyph glyph-name="space" unicode=" " horiz-adv-x="1024" 
 />
    <glyph glyph-name="uniF100" unicode="&#xf100;" 
d="M831 639h-323q-23 0 -23 -21v-356q0 -20 23 -20h315q156 7 217 106q18 35 19 82q0 106 -66 156q-61 53 -162 53zM485 870q0 -20 23 -20h297q84 0 141 51q56 45 49 133q-1 49 -25 81t-55 44q-29 16 -65 21l-68 6h-274q-23 0 -23 -21v-295zM193 0q-7 0 -17 5t-6 15v1389
q0 20 23 21h653q203 -5 323 -78q133 -91 132 -286t-191 -292q131 -41 196 -136q64 -95 64 -215q-1 -215 -158 -325q-131 -93 -346 -98h-673z" />
    <glyph glyph-name="uniF101" unicode="&#xf101;" 
d="M154 20v123q0 20 20 21h213l512 1102h-215q-20 0 -20 20v123q0 20 20 21h680q20 0 20 -21v-123q0 -20 -20 -20h-219l-512 -1102h221q20 0 20 -21v-123q0 -20 -20 -20h-680q-20 0 -20 20z" />
    <glyph glyph-name="uniF102" unicode="&#xf102;" 
d="M565 1217v143q0 20 21 20h876q20 0 21 -20v-143q0 -20 -21 -21h-876q-21 1 -21 21zM565 643v143q0 20 21 21h876q20 0 21 -21v-143q0 -20 -21 -20h-876q-21 0 -21 20zM565 70v143q0 20 21 20h876q20 0 21 -20v-143q0 -20 -21 -21h-876q-21 1 -21 21zM111 948v53
q0 20 20 21h35v313h-33q-20 0 -20 21v53q0 20 20 21h133q23 0 23 -21v-387h30q20 0 21 -21v-53q0 -20 -21 -20h-188q-20 0 -20 20zM223 508q80 0 122 -39t42 -103t-47 -124t-145 -136h102v13q0 20 20 20h60q20 0 20 -20v-99q0 -20 -20 -20h-303q-21 0 -21 20v46q0 38 17 55
l106 110q12 12 35 37t33 35q27 25 16 62q-8 39 -50 39t-54 -42l-4 -16q0 -8 -11 -8h-67q-20 0 -21 20q0 150 170 150z" />
    <glyph glyph-name="uniF103" unicode="&#xf103;" 
d="M565 1217v143q0 20 21 20h876q20 0 21 -20v-143q0 -20 -21 -21h-876q-21 1 -21 21zM565 643v143q0 20 21 21h876q20 0 21 -21v-143q0 -20 -21 -20h-876q-21 0 -21 20zM565 70v143q0 20 21 20h876q20 0 21 -20v-143q0 -20 -21 -21h-876q-21 1 -21 21zM53 1288q0 58 41 100
q40 42 100 42t101 -41t41 -101t-41 -100q-41 -41 -100 -41t-101 41q-41 41 -41 100zM53 715q0 59 41 100q40 41 100 41t101 -41t41 -100t-41 -101t-100 -41q-59 0 -101 41q-41 42 -41 101zM53 141q0 59 41 101q40 42 100 41q60 0 101 -41q41 -40 41 -100t-41 -101t-100 -41
t-101 41q-41 41 -41 100z" />
    <glyph glyph-name="uniF104" unicode="&#xf104;" 
d="M729 643v143q0 20 21 21h712q20 0 21 -21v-143q0 -20 -21 -20h-712q-21 0 -21 20zM53 1217v143q0 20 21 20h1388q20 0 21 -20v-143q0 -20 -21 -21h-1388q-21 1 -21 21zM53 653v123q0 20 21 21h223l-70 71q-10 10 2 21l90 90q12 12 27 0l248 -250q16 -12 0 -24l-250 -252
q-15 -15 -25 0l-90 90q-16 10 0 24l64 66h-219q-21 0 -21 20zM53 70v143q0 20 21 20h1388q20 0 21 -20v-143q0 -20 -21 -21h-1388q-21 1 -21 21z" />
    <glyph glyph-name="uniF105" unicode="&#xf105;" 
d="M1462 797q20 0 21 -21v-123q0 -20 -21 -20h-219l64 -66q16 -14 0 -24l-90 -90q-8 -14 -25 0l-250 252q-16 12 0 24l248 250q12 12 27 0l90 -90q10 -10 2 -21l-70 -71h223zM53 1217v143q0 20 21 20h1388q20 0 21 -20v-143q0 -20 -21 -21h-1388q-21 1 -21 21zM53 643v143
q0 20 21 21h712q20 0 21 -21v-143q0 -20 -21 -20h-712q-21 0 -21 20zM53 70v143q0 20 21 20h1388q20 0 21 -20v-143q0 -20 -21 -21h-1388q-21 1 -21 21z" />
    <glyph glyph-name="uniF106" unicode="&#xf106;" 
d="M1167 911q-1 -18 13 -31q32 -31 65 1q12 12 12 30q0 17 -13 31q-14 14 -32 14t-32 -14t-13 -31zM475 242q121 -121 291 -121t294 120q124 119 124 293t-123 293q-120 125 -295 124t-291 -124q-121 -117 -121 -290q0 -174 121 -295zM532 770q100 100 236 99t235 -99
t99 -233t-98 -238q-100 -100 -236 -99t-236 99q-98 98 -98 234q0 137 98 237zM948 1276q37 0 66 -29l207 -180h231q33 0 59 -23q23 -27 23 -59v-903q0 -34 -24 -58t-58 -24h-1370q-35 0 -57 25q-25 23 -25 57v903q0 35 24 59t58 23h231l207 180q29 29 66 29h362z" />
    <glyph glyph-name="uniF107" unicode="&#xf107;" 
d="M639 806q0 -46 16 -81q10 -35 41 -66q55 -55 144 -63q-3 -46 -52 -98q-20 -25 -43 -47q-8 -4 -16 -13q-80 27 -139 86t-90 131q-27 76 -27 146q0 151 111 262l258 258q106 109 266 109q74 0 139 -29q66 -23 125 -82t82 -125q29 -66 29 -142t-29 -141q-23 -66 -84 -127
l-254 -254q7 22 5 110q-3 88 -17 120q14 16 51 53l90 90h2q58 54 60 150q0 45 -17 77q-10 37 -42 69t-72 50q-141 42 -228 -45l-248 -248q-35 -35 -45 -69q-16 -35 -16 -81zM420 899q-6 -18 -6 -99t20 -130l-96 -97q-16 -14 -47 -45v-2q-62 -62 -63 -148q-1 -87 63 -151
q29 -29 69 -47q47 -14 84 -14q81 0 144 59l246 248q29 29 47 72q14 43 14 78t-14 82q-18 41 -47 69q-59 55 -138 60q3 46 52 98q31 39 41 45t16 12q80 -25 141 -86q117 -117 117 -270q0 -66 -27 -141q-31 -72 -84 -125l-256 -256q-59 -59 -125 -82q-67 -29 -141 -29
q-157 0 -267 109t-110 267t111 269l254 254h2z" />
    <glyph glyph-name="uniF108" unicode="&#xf108;" 
d="M831 1028q-105 0 -175 -127t-70 -221q0 -176 121 -176q106 0 174 155q65 163 65 231t-33 101q-31 37 -82 37zM377 690q0 166 118 316t291 150t213 -155l29 103q8 21 23 18h133q26 -9 20 -24l-110 -396q-29 -89 -29 -116t20 -53t60 -25q82 0 162 108q84 104 84 287
q0 260 -226 375q-137 76 -315 76q-330 0 -526 -201q-178 -179 -178 -445t210 -427q180 -143 451 -144q180 0 340 66q70 29 176 100q12 4 18 8q10 0 17 -8l47 -76q12 -16 -6 -28q-270 -203 -604 -203q-401 0 -617 248q-180 200 -180 483q0 317 227 533q229 229 606 229
q303 0 498 -158q209 -166 209 -440q0 -223 -131 -377t-299 -154q-92 0 -138 50t-46 102v16q0 10 2 17q-39 -70 -80 -109q-84 -74 -202 -74t-189 84q-78 78 -78 244z" />
    <glyph glyph-name="uniF109" unicode="&#xf109;" 
d="M870 100v224q0 20 21 20q92 14 141 53q135 107 135 332h-276q-20 0 -21 21v559q0 20 21 20h551q20 0 20 -20v-580q0 -139 -37 -235q-70 -183 -213 -285q-135 -104 -321 -129q-21 0 -21 20zM74 100v224q0 20 20 20q94 14 144 55q131 98 133 330h-277q-20 0 -20 21v559
q0 20 20 20h551q20 0 21 -20v-580q0 -240 -125 -397q-43 -61 -123 -123q-149 -106 -324 -129q-20 0 -20 20z" />
    <glyph glyph-name="uniF110" unicode="&#xf110;" 
d="M1368 954q0 -116 94 -161q2 0 8 -3t9 -4q4 -8 4 -12v-98q0 -14 -21 -21q-94 -39 -94 -161v-228q0 -80 -13 -134q-25 -103 -130 -120q-51 -12 -133 -12q-43 5 -43 23v100q0 20 20 20h21q51 6 69 37q14 37 15 96v166l2 115q6 53 14 82q16 57 80 82v4q-62 23 -80 84
q-8 29 -14 82l-2 115v153q0 61 -14 91t-58 38l-33 4q-20 2 -20 21v100q0 20 20 21q109 -2 160 -14q105 -24 127 -122q12 -49 12 -131v-213zM362 442v-166q0 -59 15 -96q18 -31 69 -37h21q20 0 20 -20v-100q0 -18 -43 -23q-80 0 -131 10q-107 21 -133 121q-12 55 -12 135v228
q0 123 -94 161q-21 7 -21 21v98q0 4 4 12q61 25 86 64t25 104v213q0 162 55 213q33 29 83 40t161 14q20 0 20 -21v-100q0 -18 -20 -21l-33 -4q-43 -8 -57 -38t-15 -91v-153l-2 -115q-6 -53 -14 -83q-15 -58 -80 -83v-4q64 -20 80 -85t16 -194z" />
    <glyph glyph-name="uniF111" unicode="&#xf111;" 
d="M258 20v156l385 522q8 12 0 31l-385 520v160q0 20 21 21h978q20 0 21 -21v-137q0 -20 -21 -21h-743l369 -522q10 -18 0 -31l-373 -520h747q20 0 21 -20v-138q0 -20 -21 -20h-978q-21 0 -21 20z" />
    <glyph glyph-name="uniF112" unicode="&#xf112;" 
d="M176 1096q0 6 8 14l285 287q8 8 15 8t14 -8l102 -103q14 -14 0 -28l-63 -64q-14 -14 6 -14h604q41 0 71 -29t29 -69v-1051q0 -20 -20 -21h-162q-20 0 -21 19v948q0 23 -20 23h-483q-9 0 -11 -6t5 -13l63 -61q12 -16 0 -29l-102 -102q-14 -14 -29 0l-283 284q-8 9 -8 15z
" />
    <glyph glyph-name="uniF113" unicode="&#xf113;" 
d="M289 39v1051q-1 42 29 70t71 28h604q20 0 6 14l-63 64q-14 14 0 28l102 103q6 8 14 8t15 -8l285 -287q8 -8 8 -14t-8 -15l-283 -284q-14 -14 -29 0l-102 102q-12 12 0 29l63 61q6 6 5 12q-2 6 -11 7h-483q-20 0 -20 -23v-948q0 -18 -21 -19h-162q-20 1 -20 21z" />
    <glyph glyph-name="uniF114" unicode="&#xf114;" 
d="M283 1327h6q12 0 22 -16l457 -451l453 453q12 12 22 14h8q6 0 11 -4l120 -119q4 -12 4 -21t-16 -22l-450 -456l452 -453q12 -12 14 -23v-8q0 -6 -4 -10l-118 -121q-10 -6 -20 -6t-23 16l-453 457l-457 -455q-12 -16 -21 -16t-22 4l-118 121q-4 5 -4 17t14 24l452 453
l-450 456q-31 24 -12 41l120 121q4 4 13 4z" />
    <glyph glyph-name="uniF115" unicode="&#xf115;" 
d="M1536 744q0 -66 -45 -110t-109 -44t-110 44q-45 44 -45 110t45 110q46 45 110 45t109 -45q45 -44 45 -110zM924 744q0 -66 -45 -110t-109 -44t-110 44t-46 110t45 110q45 45 110 45t110 -45q45 -44 45 -110zM155 899q65 0 109 -45q44 -44 45 -110q0 -66 -45 -110
t-109 -44q-63 0 -109 44t-46 110t45 110q45 45 110 45z" />
    <glyph glyph-name="uniF116" unicode="&#xf116;" 
d="M770 135q-14 0 -25 10l-677 648q-27 25 0 51l98 94q23 20 49 0l553 -530l553 530q27 20 49 0l98 -94q27 -27 0 -51l-673 -648q-11 -10 -25 -10z" />
    <glyph glyph-name="uniF117" unicode="&#xf117;" 
d="M1133 717q0 147 -109 256t-256 109q-146 0 -254 -108q-108 -107 -108 -257t106 -256q106 -107 256 -107t258 108t107 255zM1343 717q0 -127 138 -207q-14 -55 -60 -141q-127 31 -229 -74q-94 -88 -59 -229q-81 -45 -142 -60q-82 137 -222 137t-222 -137q-43 12 -146 60
q35 139 -54 228t-230 56q-35 74 -60 146q137 82 137 214t-137 214q20 76 60 141q125 -27 229 74q90 90 55 231q101 43 146 60q80 -138 221 -138t223 138q88 -32 144 -60q-31 -143 64 -238t222 -67q37 -74 60 -141q-138 -80 -138 -207z" />
    <glyph glyph-name="uniF118" unicode="&#xf118;" 
d="M262 922q0 43 29 77l401 406q27 25 76 25t76 -25l403 -406q29 -35 29 -73v-4q-4 -47 -36 -76t-72 -28t-72 30l-211 205v-930q0 -53 -33 -88t-84 -35t-84 35t-33 88v930l-209 -205q-32 -29 -72 -30t-75 30q-33 31 -33 74z" />
    <glyph glyph-name="uniF119" unicode="&#xf119;" 
d="M651 1307q0 53 33 88t84 35t84 -35t33 -88v-930l211 205q33 29 71 28q2 0 2 2q39 0 71 -28t36 -76v-4q0 -39 -29 -74l-403 -405q-27 -25 -76 -25t-76 25l-401 405q-29 35 -29 78q0 44 33 74t74 30l2 -2q39 0 71 -28l209 -205v930z" />
    <glyph glyph-name="uniF120" unicode="&#xf120;" 
d="M182 1065q-46 0 -80 34t-34 82t32 80t82 31h901q47 0 80 -32t33 -79q0 -48 -33 -83q-37 -33 -80 -33h-901zM68 716q0 48 34 81q31 35 80 34h1180q37 0 76 -34q32 -37 32 -81t-34 -78t-74 -34h-1180q-51 0 -80 35q-34 29 -34 77zM182 143q-46 0 -80 34t-34 81t32 80t82 33
h901q47 0 80 -33t33 -80t-33 -82q-37 -33 -80 -33h-901z" />
    <glyph glyph-name="uniF121" unicode="&#xf121;" 
d="M0 716q0 77 53 134q55 55 133 55t133 -55t55 -133t-54 -132q-56 -55 -134 -55t-132 54t-54 132zM1161 716q1 79 55 134t132 55t133 -55t55 -133t-55 -132q-55 -55 -133 -55t-131 56q-56 51 -56 130zM956 717q0 -78 -55 -132q-55 -55 -133 -55t-132 54t-54 132
q0 77 53 134q55 55 133 55t133 -55t55 -133z" />
    <glyph glyph-name="uniF122" unicode="&#xf122;" 
d="M1073 1257l119 123q51 50 122 50t119 -50t47 -118t-48 -121l-119 -123zM53 0l119 362l799 795l237 -239l-794 -795z" />
    <glyph glyph-name="uniF123" unicode="&#xf123;" 
d="M739 208q0 42 31 71l428 438l-428 436q-27 27 -31 72q0 45 30 75t74 32q44 1 79 -29l464 -453q33 -28 54 -58q20 -30 20 -75t-18 -71t-56 -62l-464 -457q-35 -29 -80 -27t-74 34t-29 74zM797 717q-1 -45 -19 -71t-55 -62l-465 -457q-35 -29 -80 -27t-74 34t-29 74t31 71
l429 438l-429 436q-30 29 -30 73t30 74t73 32q44 1 79 -29l465 -453q33 -28 53 -58t21 -75z" />
    <glyph glyph-name="uniF124" unicode="&#xf124;" 
d="M651 211v389h-360q-49 0 -84 35t-35 83t34 82t85 34h360v374q0 51 33 84t83 33t83 -35q35 -31 35 -82v-374h362q49 0 84 -33q33 -37 33 -83t-33 -83q-39 -35 -84 -35h-362v-389q0 -49 -35 -84t-83 -35t-82 34t-34 85z" />
    <glyph glyph-name="uniF125" unicode="&#xf125;" 
d="M231 897q14 0 25 -10l20 -19l160 -198q10 -14 10 -32t-12 -32q-8 -4 -20 -8h-70q21 -134 127 -242q131 -131 315 -131q115 0 211 51t152 138q35 51 107 51q18 0 51 -16q51 -31 51 -95q0 -31 -17 -59q-86 -135 -232 -215t-306 -80q-297 0 -491 196q-165 165 -193 402h-70
q-12 4 -20 8q-12 12 -12 31t10 33l159 198q12 12 19 21q12 8 26 8zM280 969q-18 0 -51 16q-51 31 -51 94q0 31 17 60q86 135 232 215t306 80t279 -54q246 -101 354 -356q39 -88 49 -188h72q32 -11 32 -34q1 -23 -10 -38l-159 -199l-21 -20q-8 -8 -25 -8t-26 8l-178 219
q-10 14 -10 32t12 31q8 4 20 9h68q-10 59 -29 98q-33 80 -96 143q-133 133 -315 131q-115 0 -211 -51t-152 -137q-34 -51 -107 -51z" />
    <glyph glyph-name="uniF126" unicode="&#xf126;" 
d="M769 1401q138 0 278 -45q263 -97 378 -320q57 -110 57 -234t-56 -235q-58 -111 -152 -190q-92 -82 -226 -132t-260 -50t-225 24l-416 -186q-2 -2 -8 -2l-12 4q-4 4 -4 15t12 46t21 62q8 26 18 52t20 74t12 85q1 37 5 55q-156 164 -158 375q0 243 209 428q92 78 230 129
q139 45 277 45z" />
    <glyph glyph-name="uniF127" unicode="&#xf127;" 
d="M769 559q-67 1 -113 47t-46 110t47 112q47 46 111 46t112 -46q46 -46 46 -112t-45 -112q-45 -45 -112 -45zM674 1317q-30 1 -54 25t-24 65t30 59t58 19q162 0 307 -64q306 -123 466 -449q81 -164 79 -327q0 -74 -68 -80q-42 -4 -67 25q-25 23 -29 53q-8 131 -67 254
q-121 252 -369 365q-123 55 -262 55zM1270 633q0 -29 -17 -58q-14 -31 -55 -34h-10q-38 5 -60 27t-24 42q-10 100 -43 168q-31 80 -91 140q-124 125 -308 133q-39 2 -64 24q-25 16 -20 58v14q4 37 34 54t60 18q226 0 401 -175q81 -86 139 -204t58 -207zM266 805q0 28 17 51
q14 32 55 37h10q38 -4 60 -27t24 -43q20 -182 133 -303q133 -133 309 -137q39 -1 63 -23t21 -59v-14q-4 -37 -34 -55t-60 -17q-227 0 -401 174q-81 86 -139 204t-58 212zM0 788q0 74 68 80q42 4 67 -24q25 -23 29 -53q8 -131 65 -254q129 -256 369 -365q127 -55 264 -55
q30 0 54 -25q24 -26 24 -66t-30 -58t-58 -19q-162 0 -310 62t-264 174q-118 113 -198 275t-80 328z" />
    <glyph glyph-name="uniF128" unicode="&#xf128;" 
d="M977 141q0 -43 -24 -65q-25 -22 -61 -23q-36 0 -58 23l-299 299l-451 -375h-31v31l375 450l-299 299q-23 23 -23 60q0 36 24 60t65 24q90 0 278 -84l436 405q-31 142 2 170q14 12 43 12t111 -43q79 -48 205 -167q106 -106 180 -216q29 -53 30 -72t2 -37t-18 -36
q-21 -31 -166 0l-405 -436q84 -188 84 -279z" />
    <glyph glyph-name="uniF129" unicode="&#xf129;" 
d="M1536 824q0 -42 -16 -72t-44 -55t-53 -46l-518 -430v348q-61 12 -220 -9t-237 -61t-156 -107q-174 -149 -292 -378q0 369 141 613q109 195 309 310q200 114 455 130v352l518 -450q23 -19 68 -61t45 -84z" />
    <glyph glyph-name="uniF130" unicode="&#xf130;" 
d="M215 726q0 -187 113 -343l774 774q-155 115 -334 115q-229 0 -391 -162q-74 -74 -118 -177t-44 -207zM1321 717q0 80 -23 164q-27 82 -69 141l-766 -766q141 -92 305 -90q229 0 391 162q162 158 162 389zM53 717q0 293 209 504q98 98 228 154q130 57 278 57
q147 0 277 -56q268 -117 380 -381q57 -129 57 -279t-56 -278q-115 -264 -382 -381q-129 -55 -276 -55t-277 56q-267 115 -380 380q-58 129 -58 279z" />
    <glyph glyph-name="uniF131" unicode="&#xf131;" 
d="M53 715q0 150 58 276q53 129 151 230q100 98 230 151q126 58 276 58t276 -58q129 -53 230 -151q98 -100 151 -230q57 -127 57 -277t-57 -276q-53 -129 -151 -229q-100 -98 -230 -152q-126 -57 -276 -57t-276 57q-129 53 -230 152q-98 100 -151 229q-58 127 -58 277z
M377 1106q-162 -158 -162 -389t162 -393q160 -160 389 -160t393 160q162 162 162 393t-162 389q-164 164 -392 164q-118 0 -214 -45q-102 -43 -176 -119zM645 625v428q0 35 27 57q32 23 64 23t50 -23q23 -20 23 -57v-320h192q27 0 56 -24q55 -51 4 -111q-23 -29 -60 -29
h-272q-16 0 -57 9q-27 12 -27 47z" />
    <glyph glyph-name="uniF132" unicode="&#xf132;" 
d="M1225 954h-361q-53 0 -86 37q-37 33 -37 86v291h-430v-1307h914v893zM803 1077q0 -25 16 -45q20 -16 45 -16h326l-387 305v-244zM1286 0h-1036v1430h516l520 -412v-1018zM799 379h-62v397h62v-397zM768 317q27 0 44 -17t17 -44t-17 -44t-44 -17t-44 17t-17 44t17 44
t44 17z" />
    <glyph glyph-name="uniF133" unicode="&#xf133;" 
d="M1225 954h-361q-53 0 -86 37q-37 33 -37 86v291h-430v-1307h914v893zM803 1077q0 -25 16 -45q20 -16 45 -16h326l-387 305v-244zM1286 0h-1036v1430h516l520 -412v-1018zM682 365l326 327l45 -43l-371 -370l-199 196l45 43z" />
    <glyph glyph-name="uniF134" unicode="&#xf134;" 
d="M1225 954h-361q-53 0 -86 37q-37 33 -37 86v291h-430v-1307h914v893zM803 1077q0 -25 16 -45q20 -16 45 -16h326l-387 305v-244zM1286 0h-1036v1430h516l520 -412v-1018zM768 528l184 185l43 -43l-184 -185l184 -184l-43 -43l-184 184l-184 -184l-43 43l184 184l-184 185
l43 43z" />
    <glyph glyph-name="uniF135" unicode="&#xf135;" 
d="M1225 236h61v-123h-61v123zM1225 416h61v-123h-61v123zM1225 596h61v-123h-61v123zM1225 776h61v-123h-61v123zM436 1430h123v-62h-123v62zM250 1430h127v-62h-127v62zM1159 61h127v-61h-127v61zM977 61h123v-61h-123v61zM797 61h123v-61h-123v61zM618 61h123v-61h-123
v61zM436 61h123v-61h-123v61zM250 61h127v-61h-127v61zM311 113h-61v123h61v-123zM311 293h-61v123h61v-123zM311 473h-61v123h61v-123zM311 653h-61v123h61v-123zM311 834h-61v122h61v-122zM311 1014h-61v123h61v-123zM311 1194h-61v123h61v-123zM803 1077q0 -25 16 -45
q20 -16 45 -16h326l-387 305v-244zM1286 834h-61v120h-361q-53 0 -86 37q-37 33 -37 86v291h-123v62h148l520 -412v-184z" />
    <glyph glyph-name="uniF136" unicode="&#xf136;" 
d="M223 170l176 35l-141 141zM453 240l702 702l-160 160l-702 -703zM1133 1239l-93 -94l158 -158l94 92zM199 104q-18 0 -31 15q-14 10 -10 31l47 249l928 926l245 -246l-925 -927l-250 -48h-4z" />
    <glyph glyph-name="uniF137" unicode="&#xf137;" 
d="M797 268h-62v500h62v-500zM1008 268h-62v500h62v-500zM586 268h-62v500h62v-500zM659 1352q-16 0 -20 -17l-14 -59l333 -72l13 60q2 6 -2 16q-6 6 -15 8l-290 64h-5zM651 1413q20 0 25 -2l293 -63q33 -6 51 -35t10 -62l-12 -59l375 -82l-13 -59l-1202 258l12 59l375 -80
l13 60q6 29 28 47q25 18 45 18zM473 78h586q51 0 59 57l53 823h-811l52 -823q4 -27 21 -42t40 -15zM1059 16h-586q-45 0 -84 33q-37 39 -39 82l-55 889h942l-57 -889q-2 -43 -39 -82q-37 -33 -82 -33z" />
    <glyph glyph-name="uniF138" unicode="&#xf138;" 
d="M252 139h-102q0 90 26 185q63 182 201 297q68 55 153 94q-175 79 -274 227q-47 68 -80 164q-27 94 -26 184h102q0 -100 39 -200q45 -94 110 -164q156 -156 357 -160h221v303l399 -342q14 -12 0 -27l-399 -340v304h-221q-199 -4 -357 -160q-66 -70 -110 -164
q-39 -100 -39 -201z" />
    <glyph glyph-name="uniF139" unicode="&#xf139;" 
d="M1165 315q153 153 166 375q8 225 -131 385l-792 -792q166 -141 383 -131q96 2 195 42t179 121zM743 1278q-221 -13 -373 -165q-79 -79 -121 -179q-83 -197 -16 -397q35 -102 103 -183l792 793q-160 139 -385 131zM768 49q-127 0 -249 47q-122 48 -222 148
q-193 194 -195 471q0 127 50 250q45 121 145 221t222 147t249 47t249 -47t222 -147t147 -222q98 -254 -2 -499q-45 -121 -145 -221t-222 -148t-249 -47z" />
    <glyph glyph-name="uniF140" unicode="&#xf140;" 
d="M799 481h-62v398h62v-398zM768 420q27 0 43 -19q18 -16 18 -43t-17 -44t-44 -17t-44 17t-17 44t18 43q16 19 43 19zM193 195h1146q13 0 18 10t1 20l-574 1002q-2 6 -10 10h-16q-8 -4 -10 -10l-574 -1002q-6 -10 -1 -20t20 -10zM1339 133h-1146q-53 0 -73 41t1 82
l573 1001q12 20 31 33q25 8 39 8t43 -8q18 -12 31 -33l573 -1001q20 -39 0 -82q-9 -18 -29 -30t-43 -11z" />
    <glyph glyph-name="uniF141" unicode="&#xf141;" 
d="M698 379h-61v192l-166 -96l-31 53l166 97l-166 96l31 53l166 -96v192h61v-192l168 96l31 -53l-166 -96l166 -97l-31 -53l-168 96v-192zM1048 951q22 0 37 15q15 14 15 36t-17 34q-12 16 -33 16t-38 -16q-36 -36 -2 -70q16 -15 38 -15zM1049 1114q45 0 79 -33t33 -80
q0 -47 -33 -79q-34 -32 -80 -33q-46 0 -80 34q-34 35 -34 79t35 78t80 34zM154 612q0 -27 18 -41l446 -446q16 -19 42 -19t45 19l595 596l39 532l-39 39l-532 -39l-596 -596q-18 -18 -18 -45zM661 45q-50 0 -88 37l-444 444q-37 37 -37 89t37 85l598 600q12 12 31 15l567 41
l78 -78l-41 -567q-2 -18 -14 -31l-600 -598q-37 -37 -87 -37z" />
    <glyph glyph-name="uniF142" unicode="&#xf142;" 
d="M1321 557q0 27 -18 45l-402 402l-96 -97q-53 -53 -127 -53t-133 53l-45 47l225 226l-18 18q-103 102 -245 102t-245 -102q-104 -100 -103 -243q1 -144 103 -246l21 -21l69 68q16 20 41 26q18 10 58 10t79 -38q39 -39 35 -95h8q51 -1 90 -39t35 -94h9q51 0 90 -39t34 -94
h9q51 0 87 -36t38 -85l26 -26q18 -18 45 -18t45 18t19 45q0 27 -19 45l-96 94l45 45l94 -96q18 -19 45 -19t45 18t19 46q0 27 -19 45l-96 94l45 45l94 -96q18 -18 46 -18t45 18q18 18 18 45zM858 95q27 0 45 18q19 19 19 45t-21 47q-6 -16 -18 -25l-68 -69q16 -16 43 -16z
M858 268q0 27 -18 45q-18 19 -45 19t-45 -19l-74 -73q-37 -47 0 -90q20 -18 45 -18t45 18l74 73q18 18 18 45zM725 401q0 27 -18 45t-45 18t-46 -18l-112 -112q-18 -18 -18 -45t16 -45q18 -18 47 -18t43 18l115 112q18 18 18 45zM528 598q-27 0 -45 -18l-112 -113
q-19 -18 -19 -45t19 -45q14 -19 43 -19t45 19l114 112q19 17 19 43t-18 46t-46 20zM395 731q-27 0 -45 -18l-74 -74q-18 -16 -18 -45t18 -45q18 -17 46 -17t45 19l73 72q18 20 19 45q-1 25 -19 44t-45 19zM678 915q49 0 84 35l139 140l244 -242l155 -158l19 19
q102 102 102 244t-101 246t-244 102q-144 -1 -247 -103l-243 -244l2 -4q41 -35 90 -35zM858 33q-51 0 -96 45q-14 -8 -53 -8t-72 32t-39 72q-26 -10 -64 -10t-75 37q-40 35 -35 96h-8q-53 0 -86 33q-64 64 -29 141q-41 8 -68 35q-51 51 -30 129l-31 31q-59 59 -89 137
q-30 77 -30 151t30 152t90 138t136 89t152 29q168 0 289 -119l18 -20l18 20q120 119 290 119t287 -118q60 -60 90 -138t30 -152t-30 -152t-89 -136l-21 -19l3 -2q36 -37 36 -88t-36 -88t-89 -37h-8q4 -55 -35 -94t-90 -39h-8q4 -55 -35 -94t-90 -39h-8q4 -55 -35 -94
t-90 -39z" />
    <glyph glyph-name="uniF143" unicode="&#xf143;" 
d="M752 952q82 0 135 -32l139 139q-4 2 -6 2q-140 70 -256 69q-223 -1 -459 -223q-63 -57 -106 -108q-39 -41 -70 -84q31 -43 70 -84q87 -108 207 -193l155 158q-29 53 -30 110q-2 106 68 176q71 70 153 70zM592 730q0 -50 16 -89l234 233q-110 45 -199 -34
q-51 -60 -51 -110zM360 393q-165 123 -307 322q149 205 316 325q37 29 118 78q157 72 291 73t293 -87l324 326l43 -46l-1340 -1339l-45 43zM1006 724q0 -106 -69 -176q-69 -69 -152 -70t-136 30l45 47q39 -16 90 -16t109 51q51 60 51 110t-16 88l45 46q33 -52 33 -110z
M465 326l45 45q2 -2 6 -2q140 -70 256 -70q222 0 468 230q54 50 97 102q39 41 70 84q-31 43 -70 84q-41 51 -108 110l-49 43q-16 14 -50 39l46 43q158 -114 307 -319q-94 -135 -209 -240q-93 -89 -232 -163t-283 -74q-143 0 -294 88z" />
    <glyph glyph-name="uniF144" unicode="&#xf144;" 
d="M1503 939q0 -181 -123 -298l-614 -643l-616 643q-61 57 -93 133q-29 80 -28 164q0 184 121 305q106 113 258 113t264 -113l94 -98l100 98q106 113 257 113t257 -113q123 -123 123 -304z" />
    <glyph glyph-name="uniF145" unicode="&#xf145;" 
d="M772 1423q41 0 76 -59l180 -360l395 -62q66 -10 84 -51t-41 -100l-288 -269l77 -413q8 -66 -26 -97q-39 -27 -94 6l-367 197l-360 -197q-53 -33 -93 -6q-37 29 -28 97l75 413l-284 269q-59 59 -43 101t86 50l393 62l182 360q35 59 76 59z" />
    <glyph glyph-name="uniF146" unicode="&#xf146;" 
d="M88 618q0 40 10 58q4 14 27 41q41 35 87 34t81 -40l299 -326l639 928q25 41 72 49t90 -21q41 -31 49 -77t-21 -97l-716 -1046q-33 -39 -78 -50q-61 -15 -120 49t-149 160q-90 95 -143 156l-94 103q-33 39 -33 79z" />
    <glyph glyph-name="uniF147" unicode="&#xf147;" 
d="M195 219q0 -25 15 -40t42 -15t41 16q16 12 16 39t-16 43q-15 16 -39 16t-45 -16q-14 -18 -14 -43zM1462 850q0 -90 -88 -121q66 -31 66 -107t-72 -106q23 -29 23 -67q0 -78 -72 -109q16 -26 16 -66t-28 -63q-86 -55 -307 -73q-170 -14 -379 14l-140 12v-115h-405v864h405
v-57q106 6 144 49q143 150 143 391q0 104 17 122q32 33 100 -13q68 -45 86 -119q8 -29 8 -45q4 -12 8 -53t-7 -107q-11 -65 -11 -108h370q53 0 86 -39q37 -31 37 -84z" />
    <glyph glyph-name="uniF148" unicode="&#xf148;" 
d="M1343 936q0 29 -16 39q-10 16 -39 16t-43 -16q-16 -12 -16 -39t16 -43t43 -16t39 16q16 14 16 43zM76 305q0 90 88 121q-66 32 -66 108t72 105q-23 29 -23 68q0 78 72 108q-16 27 -16 67t28 62q39 24 117 44q174 44 434 28l222 -21q41 -4 53 -4v115h405v-864h-405v57
q-106 -6 -144 -49q-143 -150 -143 -391q0 -104 -16 -121q-35 -35 -101 12q-70 44 -91 141q-20 91 -6 170q13 78 13 121h-370q-53 0 -86 39q-37 31 -37 84z" />
    <glyph glyph-name="uniF149" unicode="&#xf149;" 
d="M1391 1329v-780q0 -43 -41 -68q-80 -47 -132 -53t-90 -5q-101 0 -266 67t-255 84t-163 6v550q0 26 -17 44t-44 18t-43 -18t-16 -44v-1044q0 -33 -25 -61q-29 -25 -61 -25t-62 25q-25 29 -24 61v432q-2 88 -2 316v448q0 38 34 70q10 14 22 19t34 18q94 41 214 40t341 -77
q345 -125 553 -11q24 15 32 11q11 0 11 -23z" />
    <glyph glyph-name="uniF150" unicode="&#xf150;" 
d="M440 633q-36 -1 -60 23t-24 61t25 57q23 23 59 23h658q35 0 61 -23q23 -28 23 -62t-25 -57t-59 -22h-658zM217 715q0 -117 42 -216q86 -202 294 -294q104 -43 217 -43t216 44q205 88 296 294q43 98 43 215t-44 217t-118 174t-176 119t-217 45t-217 -45
q-210 -93 -293 -295q-43 -98 -43 -215zM53 715q0 150 58 278q112 267 378 379q129 58 279 58t280 -56q267 -116 377 -381q57 -129 57 -279t-56 -279q-115 -265 -379 -378q-129 -57 -279 -57t-280 56q-265 114 -377 380q-58 129 -58 279z" />
    <glyph glyph-name="uniF151" unicode="&#xf151;" 
d="M714 645q207 0 300 -164q43 121 43 343t-77 346q-77 126 -254 126t-257 -126t-80 -372t80 -370q80 -125 256 -125q29 0 40 2t56 10q-47 87 -96 139t-121 52h-26q-14 0 -21 -2l-35 84q74 57 192 57zM700 170q-104 0 -217 47q-113 41 -209 127q-200 196 -200 455
q0 141 55 258q57 117 145 196q82 80 209 131q253 92 484 0q117 -45 207 -127q200 -196 200 -458q0 -158 -70 -281t-186 -205q31 -45 66 -80q33 -29 73 -28q77 0 93 90h102q12 -86 -39 -172q-73 -123 -235 -123q-117 0 -182 58t-107 141q-85 -29 -189 -29z" />
  </font>
</defs>
</svg>
