<?xml version="1.0" encoding="UTF-8" standalone="no"?>
<svg width="30px" height="30px" viewBox="0 0 30 30" version="1.1" xmlns="http://www.w3.org/2000/svg" xmlns:xlink="http://www.w3.org/1999/xlink">
    <!-- Generator: Sketch 3.8.3 (29802) - http://www.bohemiancoding.com/sketch -->
    <title>email</title>
    <desc>Created with Sketch.</desc>
    <defs></defs>
    <g id="Page-1" stroke="none" stroke-width="1" fill="none" fill-rule="evenodd">
        <g id="email" fill="#aaaaaa">
            <path d="M30,6.14468282 C30,4.96211179 29.0366846,4 27.8526333,4 L2.14740513,4 C0.963315385,4 0,4.96211179 0,6.14468282 L0,23.5219454 C0,24.7045549 0.963315385,25.6666667 2.14740513,25.6666667 L27.8526333,25.6666667 C29.0366846,25.6666667 30,24.7045549 30,23.5219454 L30,6.14468282 L30,6.14468282 Z M27.8526333,5.61395923 C28.1042256,5.61395923 28.3150333,5.78965026 28.3697846,6.02448128 L15.0000192,15.0061113 L1.63025385,6.02448128 C1.68500513,5.78965026 1.89581282,5.61395923 2.14740513,5.61395923 L27.8526333,5.61395923 L27.8526333,5.61395923 Z M1.61597949,8.00357962 L14.5276526,16.6555008 C14.6687051,16.7570264 14.8343423,16.8077894 15.0000192,16.8077894 C15.1656962,16.8077894 15.3313333,16.7570264 15.4723859,16.6555008 L28.3840205,8.00357962 L28.3840205,23.5219454 C28.3840205,23.8145715 28.1456641,24.0527074 27.8526333,24.0527074 L2.14740513,24.0527074 C1.85437436,24.0527074 1.61597949,23.8145715 1.61597949,23.5219454 L1.61597949,8.00357962 L1.61597949,8.00357962 Z"></path>
        </g>
    </g>
</svg>