<?xml version="1.0" encoding="UTF-8" standalone="no"?>
<svg width="20px" height="20px" viewBox="0 0 20 20" version="1.1" xmlns="http://www.w3.org/2000/svg" xmlns:xlink="http://www.w3.org/1999/xlink" xmlns:sketch="http://www.bohemiancoding.com/sketch/ns">
    <!-- Generator: Sketch 3.5.2 (25235) - http://www.bohemiancoding.com/sketch -->
    <title>plus_blue</title>
    <desc>Created with Sketch.</desc>
    <defs></defs>
    <g id="Mobile" stroke="none" stroke-width="1" fill="none" fill-rule="evenodd" sketch:type="MSPage">
        <g id="plus_blue" sketch:type="MSArtboardGroup" fill="#2B6DAD">
            <path d="M12.0000399,8 L12.0000399,1.98149431 C12.0000399,1.98149431 12.1990115,-0.0206390481 10.0864782,0.000160951902 C7.97501154,0.0198942852 8.00004021,1.98149431 8.00004021,1.98149431 L8.00004021,8 L2.00004014,8 C2.00004014,8 0.0104402115,8.02826667 4.02114706e-05,10 C-0.0103597885,11.9730667 2.00004021,12 2.00004021,12 L8.00004021,12 L8.0000399,18 C8.0000399,18 7.86354487,19.7054943 9.97207821,19.7148276 C12.0792782,19.724161 12.0000399,18 12.0000399,18 L12.0000399,12 L18.0000399,12 C18.0000399,12 20.0219066,11.976 20.0000399,10 C19.9760399,8.024 18.0000399,8 18.0000399,8 L12.0000399,8 Z" id="Page-1" sketch:type="MSShapeGroup"></path>
        </g>
    </g>
</svg>