<?xml version="1.0" encoding="UTF-8" standalone="no"?>
<svg width="41px" height="94px" viewBox="0 0 41 94" version="1.1" xmlns="http://www.w3.org/2000/svg" xmlns:xlink="http://www.w3.org/1999/xlink">
    <!-- Generator: Sketch 3.6.1 (26313) - http://www.bohemiancoding.com/sketch -->
    <title>notifs2</title>
    <desc>Created with Sketch.</desc>
    <defs></defs>
    <g id="Page-1" stroke="none" stroke-width="1" fill="none" fill-rule="evenodd">
        <g id="notifs2">
            <path d="M4.14876184,5.545 C4.26676184,5.056 4.56776184,4.64 4.99876184,4.377 C5.29776184,4.193 5.63776184,4.097 5.98276184,4.097 C6.64476184,4.097 7.24276184,4.431 7.59076184,5 C7.76476184,5.279 7.85076184,5.593 7.86076184,5.912 C7.41476184,6.121 6.97576184,6.349 6.55376184,6.609 C6.03576184,6.926 5.55776184,7.269 5.11176184,7.635 C4.81576184,7.484 4.55776184,7.261 4.37776184,6.968 C4.11276184,6.541 4.03276184,6.035 4.14876184,5.545 L4.14876184,5.545 L4.14876184,5.545 Z M4.28976184,17.035 C4.32476184,16.58 4.75476184,12.523 8.69576184,10.097 C10.1447618,9.209 11.7487618,8.76 13.4657618,8.76 C15.1317618,8.76 16.3607618,9.193 16.7957618,9.373 C18.7237618,10.191 20.1687618,11.711 22.1687618,13.814 C24.4617618,16.226 27.5627618,19.486 32.8717618,23.119 C29.6097618,23.691 25.1767618,25.052 20.0267618,28.201 C14.4917618,31.584 11.1747618,35.17 9.23576184,37.894 C8.43076184,31.345 6.91676184,27.027 5.79576184,23.832 C4.83276184,21.093 4.13776184,19.113 4.28976184,17.035 L4.28976184,17.035 L4.28976184,17.035 Z M25.6727618,37.582 C20.5807618,40.695 15.4787618,42.629 12.3597618,42.629 C11.9847618,42.629 11.5607618,42.597 11.1747618,42.502 C11.8637618,41.164 13.3697618,38.767 16.3097618,36.064 C17.8347618,37.814 20.4327618,38.271 22.4787618,37.021 C24.7007618,35.662 25.4247618,32.808 24.1727618,30.549 C29.9987618,27.426 34.5127618,26.883 36.6647618,26.838 C36.4737618,27.781 35.7417618,29.047 34.5437618,30.433 C32.5337618,32.758 29.3017618,35.365 25.6727618,37.582 L25.6727618,37.582 L25.6727618,37.582 Z M40.0597618,23.607 C39.4657618,22.633 36.0597618,20.33 36.0277618,20.308 C30.5517618,16.687 27.5497618,13.531 25.1377618,10.992 C22.8857618,8.623 21.1057618,6.752 18.3797618,5.595 C17.5367618,5.248 15.7787618,4.662 13.4657618,4.662 C12.9187618,4.662 12.3757618,4.701 11.8387618,4.767 C11.6977618,4.099 11.4487618,3.453 11.0807618,2.855 C9.98576184,1.068 8.08076184,0 5.98276184,0 C4.87976184,0 3.79776184,0.306 2.85376184,0.886 C1.49176184,1.722 0.53776184,3.039 0.16676184,4.593 C-0.20623816,6.148 0.05176184,7.754 0.88776184,9.111 C1.27576184,9.748 1.77276184,10.289 2.34276184,10.726 C0.99876184,12.791 0.34276184,14.994 0.20476184,16.724 C-0.01123816,19.666 0.84676184,22.103 1.93076184,25.191 C3.10576184,28.539 4.56976184,32.707 5.28476184,39.363 C5.28776184,39.39 5.67676184,42.388 6.67276184,44.019 C7.42876184,45.254 9.02676184,46.724 12.3587618,46.724 L12.3597618,46.724 C16.2507618,46.724 22.0247618,44.615 27.8097618,41.078 C31.8427618,38.611 35.3347618,35.783 37.6447618,33.113 C41.6257618,28.504 41.1537618,25.398 40.0597618,23.607 L40.0597618,23.607 L40.0597618,23.607 Z" id="active" fill="#B92B27"></path>
            <path d="M4.14876184,52.545 C4.26676184,52.056 4.56776184,51.64 4.99876184,51.377 C5.29776184,51.193 5.63776184,51.097 5.98276184,51.097 C6.64476184,51.097 7.24276184,51.431 7.59076184,52 C7.76476184,52.279 7.85076184,52.593 7.86076184,52.912 C7.41476184,53.121 6.97576184,53.349 6.55376184,53.609 C6.03576184,53.926 5.55776184,54.269 5.11176184,54.635 C4.81576184,54.484 4.55776184,54.261 4.37776184,53.968 C4.11276184,53.541 4.03276184,53.035 4.14876184,52.545 L4.14876184,52.545 L4.14876184,52.545 Z M4.28976184,64.035 C4.32476184,63.58 4.75476184,59.523 8.69576184,57.097 C10.1447618,56.209 11.7487618,55.76 13.4657618,55.76 C15.1317618,55.76 16.3607618,56.193 16.7957618,56.373 C18.7237618,57.191 20.1687618,58.711 22.1687618,60.814 C24.4617618,63.226 27.5627618,66.486 32.8717618,70.119 C29.6097618,70.691 25.1767618,72.052 20.0267618,75.201 C14.4917618,78.584 11.1747618,82.17 9.23576184,84.894 C8.43076184,78.345 6.91676184,74.027 5.79576184,70.832 C4.83276184,68.093 4.13776184,66.113 4.28976184,64.035 L4.28976184,64.035 L4.28976184,64.035 Z M25.6727618,84.582 C20.5807618,87.695 15.4787618,89.629 12.3597618,89.629 C11.9847618,89.629 11.5607618,89.597 11.1747618,89.502 C11.8637618,88.164 13.3697618,85.767 16.3097618,83.064 C17.8347618,84.814 20.4327618,85.271 22.4787618,84.021 C24.7007618,82.662 25.4247618,79.808 24.1727618,77.549 C29.9987618,74.426 34.5127618,73.883 36.6647618,73.838 C36.4737618,74.781 35.7417618,76.047 34.5437618,77.433 C32.5337618,79.758 29.3017618,82.365 25.6727618,84.582 L25.6727618,84.582 L25.6727618,84.582 Z M40.0597618,70.607 C39.4657618,69.633 36.0597618,67.33 36.0277618,67.308 C30.5517618,63.687 27.5497618,60.531 25.1377618,57.992 C22.8857618,55.623 21.1057618,53.752 18.3797618,52.595 C17.5367618,52.248 15.7787618,51.662 13.4657618,51.662 C12.9187618,51.662 12.3757618,51.701 11.8387618,51.767 C11.6977618,51.099 11.4487618,50.453 11.0807618,49.855 C9.98576184,48.068 8.08076184,47 5.98276184,47 C4.87976184,47 3.79776184,47.306 2.85376184,47.886 C1.49176184,48.722 0.53776184,50.039 0.16676184,51.593 C-0.20623816,53.148 0.05176184,54.754 0.88776184,56.111 C1.27576184,56.748 1.77276184,57.289 2.34276184,57.726 C0.99876184,59.791 0.34276184,61.994 0.20476184,63.724 C-0.01123816,66.666 0.84676184,69.103 1.93076184,72.191 C3.10576184,75.539 4.56976184,79.707 5.28476184,86.363 C5.28776184,86.39 5.67676184,89.388 6.67276184,91.019 C7.42876184,92.254 9.02676184,93.724 12.3587618,93.724 L12.3597618,93.724 C16.2507618,93.724 22.0247618,91.615 27.8097618,88.078 C31.8427618,85.611 35.3347618,82.783 37.6447618,80.113 C41.6257618,75.504 41.1537618,72.398 40.0597618,70.607 L40.0597618,70.607 L40.0597618,70.607 Z" id="regular" fill="#999999"></path>
        </g>
    </g>
</svg>