<?xml version="1.0" encoding="utf-8"?>
<!-- Generator: Adobe Illustrator 18.0.0, SVG Export Plug-In . SVG Version: 6.00 Build 0)  -->
<!DOCTYPE svg PUBLIC "-//W3C//DTD SVG 1.1//EN" "http://www.w3.org/Graphics/SVG/1.1/DTD/svg11.dtd">
<svg version="1.1" id="Layer_1" xmlns="http://www.w3.org/2000/svg" xmlns:xlink="http://www.w3.org/1999/xlink" x="0px" y="0px"
   viewBox="0 0 18 19" enable-background="new 0 0 18 19" xml:space="preserve">
<path d="M18,16.9l-4.4-4.4c1.1-1.3,1.7-3,1.7-4.8c0-4.2-3.4-7.7-7.7-7.7C3.4,0,0,3.4,0,7.7c0,4.2,3.4,7.7,7.7,7.7
  c1.3,0,2.5-0.3,3.6-0.9l4.6,4.6L18,16.9z M7.7,12.3C5.1,12.3,3,10.2,3,7.7C3,5.1,5.1,3,7.7,3c2.6,0,4.7,2.1,4.7,4.7
  C12.3,10.2,10.2,12.3,7.7,12.3z"/>
</svg>
