<?xml version="1.0" encoding="utf-8"?>
<!-- Generator: Adobe Illustrator 18.1.1, SVG Export Plug-In . SVG Version: 6.00 Build 0)  -->
<!DOCTYPE svg PUBLIC "-//W3C//DTD SVG 1.1//EN" "http://www.w3.org/Graphics/SVG/1.1/DTD/svg11.dtd">
<svg version="1.1" id="Layer_1" xmlns="http://www.w3.org/2000/svg" xmlns:xlink="http://www.w3.org/1999/xlink" x="0px" y="0px"
	 width="282.9px" height="60px" viewBox="41 71 282.9 60" enable-background="new 41 71 282.9 60" xml:space="preserve">
<g>
	<path fill="#444444" d="M167.5,85.4h8.6V87h-8.6V85.4z M167.5,80.1h8.6v1.7h-8.6V80.1z M167.5,74.9h8.6v1.7h-8.6
		C167.5,76.6,167.5,74.9,167.5,74.9z M164.9,74v3.5H164v-2.6h-0.9V74H164.9z M164,81.1v0.7h1.7v0.9h-2.6v-2l1.7-0.8v-0.7h-1.7v-0.8
		h2.6v2L164,81.1z M165.7,83.6V88h-2.6v-0.9h1.7v-0.8h-1.7v-0.9h1.7v-0.9h-1.7v-0.9L165.7,83.6L165.7,83.6z"/>
	<g>
		<path fill="#444444" d="M243.8,78.4l4.5,4.6v-2.7c1.3,0,4.7,0,4.7,3.7c0,2-1.3,3.6-3.1,4c2.7-0.4,4.9-2.9,4.9-5.9
			c0-5.7-5.8-5.7-6.6-5.7V74L243.8,78.4z"/>
	</g>
	<g>
		<path fill="#444444" d="M274.8,78.4l-4.5,4.6v-2.7c-1.3,0-4.7,0-4.7,3.7c0,2,1.3,3.6,3.1,4c-2.7-0.4-4.9-2.9-4.9-5.9
			c0-5.7,5.8-5.7,6.6-5.7V74L274.8,78.4z"/>
	</g>
	<path fill="#444444" d="M97.1,75L97.1,75c-1.3-1.3-3.5-1.3-4.7,0l-3,3c-1.3,1.3-1.3,3.4,0,4.7l0,0c0.1,0.1,0.2,0.2,0.4,0.3l1.1-1.1
		c-0.1-0.1-0.3-0.2-0.4-0.3l0,0c-0.7-0.7-0.7-1.8,0-2.5l3-3c0.7-0.7,1.8-0.7,2.5,0l0,0c0.7,0.7,0.7,1.8,0,2.5L94.6,80
		c0.2,0.6,0.4,1.2,0.4,1.8l2.1-2.1C98.3,78.4,98.3,76.3,97.1,75L97.1,75z M92.7,79.3c-0.1-0.1-0.2-0.2-0.3-0.3l-1.1,1.1
		c0.1,0.1,0.3,0.2,0.4,0.3l0,0c0.7,0.7,0.7,1.8,0,2.5l-3,3c-0.7,0.7-1.8,0.7-2.5,0l0,0c-0.7-0.7-0.7-1.8,0-2.5l1.3-1.4
		c-0.2-0.6-0.4-1.2-0.4-1.8L85,82.3c-1.3,1.3-1.3,3.4,0,4.7l0,0c1.3,1.3,3.4,1.3,4.7,0l3-3C93.9,82.8,93.9,80.6,92.7,79.3L92.7,79.3
		L92.7,79.3z"/>
	<path fill="#444444" d="M188.4,74.9h8.7v1.8h-8.7V74.9z M188.4,80.1h8.7v1.8h-8.7V80.1z M188.4,85.4h8.7v1.8h-8.7V85.4z
		 M183.1,75.8c0-1,0.8-1.8,1.8-1.8s1.8,0.8,1.8,1.8s-0.8,1.8-1.8,1.8C183.9,77.5,183.1,76.7,183.1,75.8z M183.1,81
		c0-1,0.8-1.8,1.8-1.8s1.8,0.8,1.8,1.8s-0.8,1.8-1.8,1.8S183.1,82,183.1,81z M183.1,86.2c0-1,0.8-1.8,1.8-1.8s1.8,0.8,1.8,1.8
		s-0.8,1.8-1.8,1.8S183.1,87.2,183.1,86.2z"/>
	<path fill="#444444" d="M105.1,79.5c2,0,3.5,1.5,3.5,3.5s-1.5,3.5-3.5,3.5c-1.9,0-3.5-1.5-3.5-3.5v-0.5c0-3.8,3.1-7,7-7v2
		c-1.3,0-2.6,0.5-3.5,1.5c-0.2,0.2-0.3,0.4-0.5,0.6C104.7,79.5,104.9,79.5,105.1,79.5z M114.1,79.5c2,0,3.5,1.5,3.5,3.5
		s-1.5,3.5-3.5,3.5c-1.9,0-3.5-1.5-3.5-3.5v-0.5c0-3.8,3.2-7,7-7v2c-1.3,0-2.6,0.5-3.5,1.5c-0.2,0.2-0.3,0.4-0.5,0.6
		C113.7,79.5,113.9,79.5,114.1,79.5z"/>
	<path fill="#C6C6C6" d="M289.5,74c-3.8,0-7,3.1-7,7s3.2,7,7,7s7-3.1,7-7S293.3,74,289.5,74z M290.4,85.4h-1.8v-1.8h1.8V85.4z
		 M293,81l-2.6,1.8h-1.8v-0.9l2.6-1.8v-0.9h-4.4v-1.7h5.2c0.5,0,0.9,0.4,0.9,0.9L293,81L293,81z"/>
	<path fill="#444444" d="M52.6,80.6c0.5-0.7,0.9-1.6,0.9-2.6c0-2.2-1.8-4-4-4h-5v14h6c2.2,0,4-1.8,4-4
		C54.5,82.5,53.7,81.3,52.6,80.6z M47.5,76h1.6c0.9,0,1.6,0.9,1.6,2s-0.7,2-1.6,2h-1.6V76z M50,86h-2.5v-4H50c0.9,0,1.7,0.9,1.7,2
		S50.9,86,50,86z"/>
	<path fill="#444444" d="M79,74v1h-2l-5,12h2v1h-7v-1h2l5-12h-2v-1H79z"/>
	<path fill="#444444" d="M126.2,80.2v-3.1c0-0.4,0.2-0.8,0.5-1.1s0.8-0.4,1.1-0.4V74c-1.8,0-3.3,1.4-3.3,3.1v2.3
		c0,0.4-0.3,0.8-0.8,0.8h-0.8v1.6h0.8c0.5,0,0.8,0.3,0.8,0.8v2.3c0,1.7,1.5,3.1,3.3,3.1v-1.6c-0.4,0-0.8-0.2-1.1-0.4
		c-0.3-0.3-0.5-0.7-0.5-1.1v-3.1c0-0.4-0.3-0.8-0.8-0.8C125.8,81,126.2,80.7,126.2,80.2L126.2,80.2z"/>
	<g>
		<path fill="#C6C6C6" d="M204.6,83h10v2h-10V83z M201.6,80h16v2h-16V80z M201.6,86h16v2h-16V86z"/>
		<rect x="201.6" y="74" fill="#444444" width="16" height="2"/>
		<rect x="204.6" y="77" fill="#444444" width="10" height="2"/>
	</g>
	<rect x="223.1" y="80" fill="#444444" width="2.3" height="2"/>
	<rect x="226.5" y="80" fill="#444444" width="2.3" height="2"/>
	<g>
		<path fill="#C6C6C6" d="M226.1,83h10v2h-10V83z M223.1,86h16v2h-16V86z"/>
		<rect x="223.1" y="74" fill="#C6C6C6" width="16" height="2"/>
		<rect x="226.1" y="77" fill="#C6C6C6" width="10" height="2"/>
		<rect x="229.9" y="80" fill="#444444" width="2.3" height="2"/>
		<rect x="233.3" y="80" fill="#444444" width="2.3" height="2"/>
		<rect x="236.7" y="79.9" fill="#444444" width="2.3" height="2"/>
	</g>
	<path fill="#444444" d="M133.1,81.8v3.1c0,0.4-0.2,0.8-0.5,1.1c-0.3,0.3-0.7,0.4-1.1,0.4V88c1.8,0,3.2-1.4,3.2-3.1v-2.3
		c0-0.4,0.3-0.8,0.8-0.8h0.8v-1.6h-0.8c-0.5,0-0.8-0.3-0.8-0.8v-2.3c0-1.7-1.5-3.1-3.3-3.1v1.6c0.4,0,0.8,0.2,1.1,0.4
		c0.3,0.3,0.5,0.7,0.5,1.1v3.1c0,0.4,0.3,0.8,0.8,0.8C133.5,81,133.1,81.3,133.1,81.8L133.1,81.8z"/>
	<path fill="#444444" d="M157.7,75v12h-15V75H157.7 M158.7,74h-17v14h17V74L158.7,74z"/>
	<path fill="#444444" d="M153.4,77.8c0-0.9,0.7-1.6,1.6-1.6s1.6,0.7,1.6,1.6c0,0.9-0.7,1.6-1.6,1.6
		C154.2,79.4,153.4,78.7,153.4,77.8z"/>
	<polygon fill="#444444" points="156.6,85.8 143.9,85.8 147,77.2 151.3,82.6 153.4,81 	"/>
	<g>
		<polygon fill="#444444" points="308,80.8 307.2,80 304.5,82.5 307.2,85 308,84.2 306.2,82.5 		"/>
		<polygon fill="#444444" points="309.9,84.2 310.7,85 313.5,82.5 310.7,80 309.9,80.8 311.7,82.5 		"/>
	</g>
	<polygon fill="#444444" points="310.8,74 310.8,78.7 315.5,78.7 	"/>
	<path fill="#444444" d="M314.5,77.7V87h-11V75h8.3l-1-1h-7.3c-0.6,0-1,0.5-1,1v12c0,0.5,0.4,1,1,1h11c0.5,0,1-0.5,1-1v-8.3
		L314.5,77.7z"/>
</g>
<g>
	<path fill="#CECECE" d="M167.5,105.4h8.6v1.6h-8.6V105.4z M167.5,100.1h8.6v1.7h-8.6V100.1z M167.5,94.9h8.6v1.7h-8.6V94.9z
		 M164.9,94v3.5H164v-2.6h-0.9V94H164.9z M164,101.1v0.7h1.7v0.9h-2.6v-2l1.7-0.8v-0.7h-1.7v-0.8h2.6v2L164,101.1z M165.7,103.6v4.4
		h-2.6v-0.9h1.7v-0.8h-1.7v-0.9h1.7v-0.9h-1.7v-0.9L165.7,103.6L165.7,103.6z"/>
	<g>
		<path fill="#CECECE" d="M243.8,98.4l4.5,4.6v-2.7c1.3,0,4.7,0,4.7,3.7c0,2-1.3,3.6-3.1,4c2.7-0.4,4.9-2.9,4.9-5.9
			c0-5.7-5.8-5.7-6.6-5.7V94L243.8,98.4z"/>
	</g>
	<g>
		<path fill="#CECECE" d="M274.8,98.4l-4.5,4.6v-2.7c-1.3,0-4.7,0-4.7,3.7c0,2,1.3,3.6,3.1,4c-2.7-0.4-4.9-2.9-4.9-5.9
			c0-5.7,5.8-5.7,6.6-5.7V94L274.8,98.4z"/>
	</g>
	<path fill="#CECECE" d="M97.1,95L97.1,95c-1.3-1.3-3.5-1.3-4.7,0l-3,3c-1.3,1.3-1.3,3.4,0,4.7l0,0c0.1,0.1,0.2,0.2,0.4,0.3l1.1-1.1
		c-0.1-0.1-0.3-0.2-0.4-0.3l0,0c-0.7-0.7-0.7-1.8,0-2.5l3-3c0.7-0.7,1.8-0.7,2.5,0l0,0c0.7,0.7,0.7,1.8,0,2.5l-1.4,1.4
		c0.2,0.6,0.4,1.2,0.4,1.8l2.1-2.1C98.3,98.4,98.3,96.3,97.1,95L97.1,95z M92.7,99.3c-0.1-0.1-0.2-0.2-0.3-0.3l-1.1,1.1
		c0.1,0.1,0.3,0.2,0.4,0.3l0,0c0.7,0.7,0.7,1.8,0,2.5l-3,3c-0.7,0.7-1.8,0.7-2.5,0l0,0c-0.7-0.7-0.7-1.8,0-2.5l1.3-1.4
		c-0.2-0.6-0.4-1.2-0.4-1.8l-2.1,2.1c-1.3,1.3-1.3,3.4,0,4.7l0,0c1.3,1.3,3.4,1.3,4.7,0l3-3C93.9,102.8,93.9,100.6,92.7,99.3
		L92.7,99.3L92.7,99.3z"/>
	<path fill="#CECECE" d="M188.4,94.9h8.7v1.8h-8.7V94.9z M188.4,100.1h8.7v1.8h-8.7V100.1z M188.4,105.4h8.7v1.8h-8.7V105.4z
		 M183.1,95.8c0-1,0.8-1.8,1.8-1.8s1.8,0.8,1.8,1.8s-0.8,1.8-1.8,1.8C183.9,97.5,183.1,96.7,183.1,95.8z M183.1,101
		c0-1,0.8-1.8,1.8-1.8s1.8,0.8,1.8,1.8s-0.8,1.8-1.8,1.8S183.1,102,183.1,101z M183.1,106.2c0-1,0.8-1.8,1.8-1.8s1.8,0.8,1.8,1.8
		s-0.8,1.8-1.8,1.8S183.1,107.2,183.1,106.2z"/>
	<path fill="#CECECE" d="M105.1,99.5c2,0,3.5,1.5,3.5,3.5s-1.5,3.5-3.5,3.5c-1.9,0-3.5-1.5-3.5-3.5v-0.5c0-3.8,3.1-7,7-7v2
		c-1.3,0-2.6,0.5-3.5,1.5c-0.2,0.2-0.3,0.4-0.5,0.6C104.7,99.5,104.9,99.5,105.1,99.5z M114.1,99.5c2,0,3.5,1.5,3.5,3.5
		s-1.5,3.5-3.5,3.5c-1.9,0-3.5-1.5-3.5-3.5v-0.5c0-3.8,3.2-7,7-7v2c-1.3,0-2.6,0.5-3.5,1.5c-0.2,0.2-0.3,0.4-0.5,0.6
		C113.7,99.5,113.9,99.5,114.1,99.5z"/>
	<path fill="#CECECE" d="M289.5,94c-3.8,0-7,3.1-7,7s3.2,7,7,7s7-3.1,7-7S293.3,94,289.5,94z M290.4,105.4h-1.8v-1.8h1.8V105.4z
		 M293,101l-2.6,1.8h-1.8v-0.9l2.6-1.8v-0.9h-4.4v-1.7h5.2c0.5,0,0.9,0.4,0.9,0.9L293,101L293,101z"/>
	<path fill="#CECECE" d="M52.6,100.6c0.5-0.7,0.9-1.6,0.9-2.6c0-2.2-1.8-4-4-4h-5v14h6c2.2,0,4-1.8,4-4
		C54.5,102.5,53.7,101.3,52.6,100.6z M47.5,96h1.6c0.9,0,1.6,0.9,1.6,2s-0.7,2-1.6,2h-1.6V96z M50,106h-2.5v-4H50
		c0.9,0,1.7,0.9,1.7,2S50.9,106,50,106z"/>
	<path fill="#CECECE" d="M79,94v1h-2l-5,12h2v1h-7v-1h2l5-12h-2v-1H79z"/>
	<path fill="#CECECE" d="M126.2,100.2v-3.1c0-0.4,0.2-0.8,0.5-1.1s0.8-0.4,1.1-0.4V94c-1.8,0-3.3,1.4-3.3,3.1v2.3
		c0,0.4-0.3,0.8-0.8,0.8h-0.8v1.6h0.8c0.5,0,0.8,0.3,0.8,0.8v2.3c0,1.7,1.5,3.1,3.3,3.1v-1.6c-0.4,0-0.8-0.2-1.1-0.4
		c-0.3-0.3-0.5-0.7-0.5-1.1v-3.1c0-0.4-0.3-0.8-0.8-0.8C125.8,101,126.2,100.7,126.2,100.2L126.2,100.2z"/>
	<g>
		<path fill="#CECECE" d="M204.6,103h10v2h-10V103z M201.6,100h16v2h-16V100z M201.6,106h16v2h-16V106z"/>
		<rect x="201.6" y="94" fill="#CECECE" width="16" height="2"/>
		<rect x="204.6" y="97" fill="#CECECE" width="10" height="2"/>
	</g>
	<rect x="223.1" y="100" fill="#CECECE" width="2.3" height="2"/>
	<rect x="226.5" y="100" fill="#CECECE" width="2.3" height="2"/>
	<g>
		<path fill="#CECECE" d="M226.1,103h10v2h-10V103z M223.1,106h16v2h-16V106z"/>
		<rect x="223.1" y="94" fill="#CECECE" width="16" height="2"/>
		<rect x="226.1" y="97" fill="#CECECE" width="10" height="2"/>
		<rect x="229.9" y="100" fill="#CECECE" width="2.3" height="2"/>
		<rect x="233.3" y="100" fill="#CECECE" width="2.3" height="2"/>
		<rect x="236.7" y="99.9" fill="#CECECE" width="2.3" height="2"/>
	</g>
	<path fill="#CECECE" d="M133.1,101.8v3.1c0,0.4-0.2,0.8-0.5,1.1c-0.3,0.3-0.7,0.4-1.1,0.4v1.6c1.8,0,3.2-1.4,3.2-3.1v-2.3
		c0-0.4,0.3-0.8,0.8-0.8h0.8v-1.6h-0.8c-0.5,0-0.8-0.3-0.8-0.8v-2.3c-0.1-1.7-1.6-3.1-3.3-3.1v1.6c0.4,0,0.8,0.2,1.1,0.4
		c0.3,0.3,0.5,0.7,0.5,1.1v3.1c0,0.4,0.3,0.8,0.8,0.8C133.5,101,133.1,101.3,133.1,101.8L133.1,101.8z"/>
	<path fill="#CECECE" d="M157.7,95v12h-15V95H157.7 M158.7,94h-17v14h17V94L158.7,94z"/>
	<path fill="#CECECE" d="M153.4,97.8c0-0.9,0.7-1.6,1.6-1.6s1.6,0.7,1.6,1.6s-0.7,1.6-1.6,1.6C154.2,99.4,153.4,98.7,153.4,97.8z"/>
	<polygon fill="#CECECE" points="156.6,105.8 143.9,105.8 147,97.2 151.3,102.6 153.4,101 	"/>
	<g>
		<polygon fill="#CECECE" points="308,100.8 307.2,100 304.5,102.5 307.2,105 308,104.2 306.2,102.5 		"/>
		<polygon fill="#CECECE" points="309.9,104.2 310.7,105 313.5,102.5 310.7,100 309.9,100.8 311.7,102.5 		"/>
	</g>
	<polygon fill="#CECECE" points="310.8,94 310.8,98.7 315.5,98.7 	"/>
	<path fill="#CECECE" d="M314.5,97.7v9.3h-11V95h8.3l-1-1h-7.3c-0.6,0-1,0.5-1,1v12c0,0.5,0.4,1,1,1h11c0.5,0,1-0.5,1-1v-8.3
		L314.5,97.7z"/>
</g>
<g>
	<path fill="#DD4C00" d="M167.5,125.4h8.6v1.6h-8.6V125.4z M167.5,120.1h8.6v1.7h-8.6V120.1z M167.5,114.9h8.6v1.7h-8.6V114.9z
		 M164.9,114v3.5H164v-2.6h-0.9V114H164.9z M164,121.1v0.7h1.7v0.9h-2.6v-2l1.7-0.8v-0.7h-1.7v-0.8h2.6v2L164,121.1z M165.7,123.6
		v4.4h-2.6v-0.9h1.7v-0.8h-1.7v-0.9h1.7v-0.9h-1.7v-0.9L165.7,123.6L165.7,123.6z"/>
	<g>
		<path fill="#DD4C00" d="M243.8,118.4l4.5,4.6v-2.7c1.3,0,4.7,0,4.7,3.7c0,2-1.3,3.6-3.1,4c2.7-0.4,4.9-2.9,4.9-5.9
			c0-5.7-5.8-5.7-6.6-5.7V114L243.8,118.4z"/>
	</g>
	<g>
		<path fill="#DD4C00" d="M274.8,118.4l-4.5,4.6v-2.7c-1.3,0-4.7,0-4.7,3.7c0,2,1.3,3.6,3.1,4c-2.7-0.4-4.9-2.9-4.9-5.9
			c0-5.7,5.8-5.7,6.6-5.7V114L274.8,118.4z"/>
	</g>
	<path fill="#DD4C00" d="M97.1,115L97.1,115c-1.3-1.3-3.5-1.3-4.7,0l-3,3c-1.3,1.3-1.3,3.4,0,4.7l0,0c0.1,0.1,0.2,0.2,0.4,0.3
		l1.1-1.1c-0.1-0.1-0.3-0.2-0.4-0.3l0,0c-0.7-0.7-0.7-1.8,0-2.5l3-3c0.7-0.7,1.8-0.7,2.5,0l0,0c0.7,0.7,0.7,1.8,0,2.5l-1.4,1.4
		c0.2,0.6,0.4,1.2,0.4,1.8l2.1-2.1C98.3,118.4,98.3,116.3,97.1,115L97.1,115z M92.7,119.3c-0.1-0.1-0.2-0.2-0.3-0.3l-1.1,1.1
		c0.1,0.1,0.3,0.2,0.4,0.3l0,0c0.7,0.7,0.7,1.8,0,2.5l-3,3c-0.7,0.7-1.8,0.7-2.5,0l0,0c-0.7-0.7-0.7-1.8,0-2.5l1.3-1.4
		c-0.2-0.6-0.4-1.2-0.4-1.8l-2.1,2.1c-1.3,1.3-1.3,3.4,0,4.7l0,0c1.3,1.3,3.4,1.3,4.7,0l3-3C93.9,122.8,93.9,120.6,92.7,119.3
		L92.7,119.3L92.7,119.3z"/>
	<path fill="#DD4C00" d="M188.4,114.9h8.7v1.8h-8.7V114.9z M188.4,120.1h8.7v1.8h-8.7V120.1z M188.4,125.4h8.7v1.8h-8.7V125.4z
		 M183.1,115.8c0-1,0.8-1.8,1.8-1.8s1.8,0.8,1.8,1.8s-0.8,1.8-1.8,1.8C183.9,117.5,183.1,116.7,183.1,115.8z M183.1,121
		c0-1,0.8-1.8,1.8-1.8s1.8,0.8,1.8,1.8s-0.8,1.8-1.8,1.8S183.1,122,183.1,121z M183.1,126.2c0-1,0.8-1.8,1.8-1.8s1.8,0.8,1.8,1.8
		s-0.8,1.8-1.8,1.8S183.1,127.2,183.1,126.2z"/>
	<path fill="#DD4C00" d="M105.1,119.5c2,0,3.5,1.5,3.5,3.5s-1.5,3.5-3.5,3.5c-1.9,0-3.5-1.5-3.5-3.5v-0.5c0-3.8,3.1-7,7-7v2
		c-1.3,0-2.6,0.5-3.5,1.5c-0.2,0.2-0.3,0.4-0.5,0.6C104.7,119.5,104.9,119.5,105.1,119.5z M114.1,119.5c2,0,3.5,1.5,3.5,3.5
		s-1.5,3.5-3.5,3.5c-1.9,0-3.5-1.5-3.5-3.5v-0.5c0-3.8,3.2-7,7-7v2c-1.3,0-2.6,0.5-3.5,1.5c-0.2,0.2-0.3,0.4-0.5,0.6
		C113.7,119.5,113.9,119.5,114.1,119.5z"/>
	<path fill="#DD4C00" d="M289.5,114c-3.8,0-7,3.1-7,7s3.2,7,7,7s7-3.1,7-7S293.3,114,289.5,114z M290.4,125.4h-1.8v-1.8h1.8V125.4z
		 M293,121l-2.6,1.8h-1.8v-0.9l2.6-1.8v-0.9h-4.4v-1.7h5.2c0.5,0,0.9,0.4,0.9,0.9L293,121L293,121z"/>
	<path fill="#DD4C00" d="M52.6,120.6c0.5-0.7,0.9-1.6,0.9-2.6c0-2.2-1.8-4-4-4h-5v14h6c2.2,0,4-1.8,4-4
		C54.5,122.5,53.7,121.3,52.6,120.6z M47.5,116h1.6c0.9,0,1.6,0.9,1.6,2s-0.7,2-1.6,2h-1.6V116z M50,126h-2.5v-4H50
		c0.9,0,1.7,0.9,1.7,2S50.9,126,50,126z"/>
	<path fill="#DD4C00" d="M79,114v1h-2l-5,12h2v1h-7v-1h2l5-12h-2v-1H79z"/>
	<path fill="#DD4C00" d="M126.2,120.2v-3.1c0-0.4,0.2-0.8,0.5-1.1s0.8-0.4,1.1-0.4V114c-1.8,0-3.3,1.4-3.3,3.1v2.3
		c0,0.4-0.3,0.8-0.8,0.8h-0.8v1.6h0.8c0.5,0,0.8,0.3,0.8,0.8v2.3c0,1.7,1.5,3.1,3.3,3.1v-1.6c-0.4,0-0.8-0.2-1.1-0.4
		c-0.3-0.3-0.5-0.7-0.5-1.1v-3.1c0-0.4-0.3-0.8-0.8-0.8C125.8,121,126.2,120.7,126.2,120.2L126.2,120.2z"/>
	<g>
		<path fill="#DD4C00" d="M204.6,123h10v2h-10V123z M201.6,120h16v2h-16V120z M201.6,126h16v2h-16V126z"/>
		<rect x="201.6" y="114" fill="#DD4C00" width="16" height="2"/>
		<rect x="204.6" y="117" fill="#DD4C00" width="10" height="2"/>
	</g>
	<rect x="223.1" y="120" fill="#DD4C00" width="2.3" height="2"/>
	<rect x="226.5" y="120" fill="#DD4C00" width="2.3" height="2"/>
	<g>
		<path fill="#DD4C00" d="M226.1,123h10v2h-10V123z M223.1,126h16v2h-16V126z"/>
		<rect x="223.1" y="114" fill="#DD4C00" width="16" height="2"/>
		<rect x="226.1" y="117" fill="#DD4C00" width="10" height="2"/>
		<rect x="229.9" y="120" fill="#DD4C00" width="2.3" height="2"/>
		<rect x="233.3" y="120" fill="#DD4C00" width="2.3" height="2"/>
		<rect x="236.7" y="119.9" fill="#DD4C00" width="2.3" height="2"/>
	</g>
	<path fill="#DD4C00" d="M133.1,121.8v3.1c0,0.4-0.2,0.8-0.5,1.1c-0.3,0.3-0.7,0.4-1.1,0.4v1.6c1.8,0,3.2-1.4,3.2-3.1v-2.3
		c0-0.4,0.3-0.8,0.8-0.8h0.8v-1.6h-0.8c-0.5,0-0.8-0.3-0.8-0.8v-2.3c-0.1-1.7-1.6-3.1-3.3-3.1v1.6c0.4,0,0.8,0.2,1.1,0.4
		c0.3,0.3,0.5,0.7,0.5,1.1v3.1c0,0.4,0.3,0.8,0.8,0.8C133.5,121,133.1,121.3,133.1,121.8L133.1,121.8z"/>
	<path fill="#DD4C00" d="M157.7,115v12h-15v-12H157.7 M158.7,114h-17v14h17V114L158.7,114z"/>
	<path fill="#DD4C00" d="M153.4,117.8c0-0.9,0.7-1.6,1.6-1.6s1.6,0.7,1.6,1.6s-0.7,1.6-1.6,1.6C154.2,119.4,153.4,118.7,153.4,117.8
		z"/>
	<polygon fill="#DD4C00" points="156.6,125.8 143.9,125.8 147,117.2 151.3,122.6 153.4,121 	"/>
	<g>
		<polygon fill="#DD4C00" points="308,120.8 307.2,120 304.5,122.5 307.2,125 308,124.2 306.2,122.5 		"/>
		<polygon fill="#DD4C00" points="309.9,124.2 310.7,125 313.5,122.5 310.7,120 309.9,120.8 311.7,122.5 		"/>
	</g>
	<polygon fill="#DD4C00" points="310.8,114 310.8,118.7 315.5,118.7 	"/>
	<path fill="#DD4C00" d="M314.5,117.7v9.3h-11v-12h8.3l-1-1h-7.3c-0.6,0-1,0.5-1,1v12c0,0.5,0.4,1,1,1h11c0.5,0,1-0.5,1-1v-8.3
		L314.5,117.7z"/>
</g>
</svg>
