<?xml version="1.0" encoding="utf-8"?>
<!-- Generator: Adobe Illustrator 19.1.0, SVG Export Plug-In . SVG Version: 6.00 Build 0)  -->
<svg version="1.1" id="Layer_1" xmlns="http://www.w3.org/2000/svg" xmlns:xlink="http://www.w3.org/1999/xlink" x="0px" y="0px"
	 viewBox="0 0 12 12" style="enable-background:new 0 0 12 12;" xml:space="preserve">
<style type="text/css">
	.st0{fill:#52575C;}
	.st1{fill:#65BB5C;}
	.st2{fill:#F78C75;}
	.st3{fill:#DCB000;}
</style>
<g id="language_1_">
	<path id="XMLID_5_" class="st2" d="M6,0.7C3.1,0.7,0.7,3.1,0.7,6s2.4,5.3,5.3,5.3s5.3-2.4,5.3-5.3S8.9,0.7,6,0.7z M9.6,3.9H8.1
		C8,3.2,7.7,2.6,7.4,2C8.3,2.4,9.2,3,9.6,3.9z M6,1.8c0.4,0.6,0.8,1.3,1,2.1H5C5.2,3.1,5.6,2.4,6,1.8z M1.9,7.1
		C1.8,6.7,1.8,6.4,1.8,6s0.1-0.7,0.2-1.1h1.8C3.7,5.3,3.7,5.6,3.7,6s0.1,0.7,0.1,1.1H1.9z M2.4,8.1h1.5C4,8.8,4.3,9.4,4.6,10
		C3.7,9.6,2.8,9,2.4,8.1z M3.9,3.9H2.4C2.9,3,3.7,2.4,4.6,2C4.3,2.6,4,3.2,3.9,3.9z M6,10.2C5.6,9.6,5.2,8.9,5,8.1h2
		C6.8,8.9,6.4,9.6,6,10.2z M7.2,7.1H4.8C4.7,6.7,4.7,6.4,4.7,6s0.1-0.7,0.1-1.1h2.5C7.3,5.3,7.4,5.6,7.4,6S7.3,6.7,7.2,7.1z M7.4,10
		C7.7,9.4,8,8.8,8.1,8.1h1.5C9.2,9,8.3,9.6,7.4,10z M8.3,7.1C8.4,6.7,8.4,6.4,8.4,6S8.3,5.3,8.3,4.9h1.8c0.1,0.3,0.2,0.7,0.2,1.1
		s-0.1,0.7-0.2,1.1H8.3z"/>
</g>
</svg>
