<?xml version="1.0" encoding="utf-8"?>
<!-- Generator: Adobe Illustrator 19.1.0, SVG Export Plug-In . SVG Version: 6.00 Build 0)  -->
<svg version="1.1" id="Layer_1" xmlns="http://www.w3.org/2000/svg" xmlns:xlink="http://www.w3.org/1999/xlink" x="0px" y="0px"
	 viewBox="0 0 12 12" style="enable-background:new 0 0 12 12;" xml:space="preserve">
<style type="text/css">
	.st0{fill:#52575C;}
	.st1{fill:#65BB5C;}
</style>
<path id="XMLID_1557_" class="st0" d="M6,5.7c0.4,0,0.7-0.1,0.9-0.4c0.3-0.3,0.4-0.6,0.4-0.9c0-0.4-0.1-0.7-0.4-0.9
	C6.7,3.2,6.4,3.1,6,3.1S5.3,3.2,5.1,3.5C4.8,3.7,4.7,4,4.7,4.4s0.1,0.7,0.4,0.9C5.3,5.6,5.6,5.7,6,5.7z M6,0.7c1,0,1.9,0.4,2.6,1.1
	c0.7,0.7,1.1,1.6,1.1,2.6c0,0.5-0.1,1.1-0.4,1.8S8.8,7.5,8.4,8.1C8,8.6,7.7,9.2,7.3,9.7c-0.4,0.5-0.7,0.9-0.9,1.2L6,11.3
	c-0.1-0.1-0.2-0.3-0.4-0.5c-0.2-0.2-0.5-0.6-0.9-1.2C4.3,9.1,3.9,8.6,3.6,8S2.9,6.9,2.7,6.2C2.4,5.5,2.3,4.9,2.3,4.4
	c0-1,0.4-1.9,1.1-2.6S5,0.7,6,0.7L6,0.7z"/>
</svg>
