<?xml version='1.0' encoding='UTF-8'?><!DOCTYPE svg PUBLIC "-//W3C//DTD SVG 1.1//EN" "http://www.w3.org/Graphics/SVG/1.1/DTD/svg11.dtd"><svg xmlns:xlink="http://www.w3.org/1999/xlink" xmlns="http://www.w3.org/2000/svg" version="1.1" x="0" y="0" width="24px" height="3816px" viewBox="0 0 24 3816" preserveAspectRatio="none"><g transform="translate(0,2232)"><path d="M19 13h-6v6h-2v-6H5v-2h6V5h2v6h6v2z"/>
    <path d="M0 0h24v24H0z" fill="none"/>
</g><g transform="translate(0,1368)"><path d="M0 0h24v24H0z" fill="none"/>
    <path d="M19 3H5c-1.11 0-2 .9-2 2v14c0 1.1.89 2 2 2h14c1.11 0 2-.9 2-2V5c0-1.1-.89-2-2-2zm-9 14l-5-5 1.41-1.41L10 14.17l7.59-7.59L19 8l-9 9z"/>
</g><g transform="translate(0,1776)"><path d="M0 0h24v24H0z" fill="none"/>
    <path d="M19 3H5c-1.11 0-2 .9-2 2v14c0 1.1.89 2 2 2h14c1.11 0 2-.9 2-2V5c0-1.1-.89-2-2-2zm-9 14l-5-5 1.41-1.41L10 14.17l7.59-7.59L19 8l-9 9z" fill="#ffffff"/>
</g><g transform="translate(0,2880)"><path d="M8 10H5V7H3v3H0v2h3v3h2v-3h3v-2zm10 1c1.66 0 2.99-1.34 2.99-3S19.66 5 18 5c-.32 0-.63.05-.91.14.57.81.9 1.79.9 2.86s-.34 2.04-.9 2.86c.28.09.59.14.91.14zm-5 0c1.66 0 2.99-1.34 2.99-3S14.66 5 13 5c-1.66 0-3 1.34-3 3s1.34 3 3 3zm6.62 2.16c.83.73 1.38 1.66 1.38 2.84v2h3v-2c0-1.54-2.37-2.49-4.38-2.84zM13 13c-2 0-6 1-6 3v2h12v-2c0-2-4-3-6-3z"/></g><g transform="translate(0,1704)"><path d="M8 10H5V7H3v3H0v2h3v3h2v-3h3v-2zm10 1c1.66 0 2.99-1.34 2.99-3S19.66 5 18 5c-.32 0-.63.05-.91.14.57.81.9 1.79.9 2.86s-.34 2.04-.9 2.86c.28.09.59.14.91.14zm-5 0c1.66 0 2.99-1.34 2.99-3S14.66 5 13 5c-1.66 0-3 1.34-3 3s1.34 3 3 3zm6.62 2.16c.83.73 1.38 1.66 1.38 2.84v2h3v-2c0-1.54-2.37-2.49-4.38-2.84zM13 13c-2 0-6 1-6 3v2h12v-2c0-2-4-3-6-3z" fill="#ffffff"/></g><g transform="translate(0,1848)"><path d="M0 0h24v24H0z" fill="none"/>
    <path d="M12 2C6.48 2 2 6.48 2 12s4.48 10 10 10 10-4.48 10-10S17.52 2 12 2zm0 12l-4-4h8l-4 4z"/>
</g><g transform="translate(0,2952)"><path d="M0 0h24v24H0z" fill="none"/>
    <path d="M12 2C6.48 2 2 6.48 2 12s4.48 10 10 10 10-4.48 10-10S17.52 2 12 2zm0 12l-4-4h8l-4 4z" fill="#ffffff"/>
</g><g transform="translate(0,120)"><path d="M0 0h24v24H0z" fill="none"/>
    <path d="M19.35 10.04C18.67 6.59 15.64 4 12 4 9.11 4 6.6 5.64 5.35 8.04 2.34 8.36 0 10.91 0 14c0 3.31 2.69 6 6 6h13c2.76 0 5-2.24 5-5 0-2.64-2.05-4.78-4.65-4.96zM14 13v4h-4v-4H7l5-5 5 5h-3z"/>
</g><g transform="translate(0,936)"><path d="M0 0h24v24H0z" fill="none"/>
    <path d="M19.35 10.04C18.67 6.59 15.64 4 12 4 9.11 4 6.6 5.64 5.35 8.04 2.34 8.36 0 10.91 0 14c0 3.31 2.69 6 6 6h13c2.76 0 5-2.24 5-5 0-2.64-2.05-4.78-4.65-4.96zM14 13v4h-4v-4H7l5-5 5 5h-3z" fill="#ffffff"/>
</g><g transform="translate(0,48)"><path d="M0 0h24v24H0z" fill="none"/>
    <path d="M20 2H4c-1.1 0-2 .9-2 2v16c0 1.1.9 2 2 2h16c1.1 0 2-.9 2-2V4c0-1.1-.9-2-2-2zM8 20H4v-4h4v4zm0-6H4v-4h4v4zm0-6H4V4h4v4zm6 12h-4v-4h4v4zm0-6h-4v-4h4v4zm0-6h-4V4h4v4zm6 12h-4v-4h4v4zm0-6h-4v-4h4v4zm0-6h-4V4h4v4z"/>
</g><g transform="translate(0,1584)"><path d="M0 0h24v24H0z" fill="none"/>
    <path d="M20 2H4c-1.1 0-2 .9-2 2v16c0 1.1.9 2 2 2h16c1.1 0 2-.9 2-2V4c0-1.1-.9-2-2-2zM8 20H4v-4h4v4zm0-6H4v-4h4v4zm0-6H4V4h4v4zm6 12h-4v-4h4v4zm0-6h-4v-4h4v4zm0-6h-4V4h4v4zm6 12h-4v-4h4v4zm0-6h-4v-4h4v4zm0-6h-4V4h4v4z" fill="#ffffff"/>
</g><g transform="translate(0,1152)"><path d="M3 4v3h5v12h3V7h5V4h-13zm19 5h-9v3h3v7h3v-7h3V9z"/>
</g><g transform="translate(0,1056)"><path d="M3 4v3h5v12h3V7h5V4h-13zm19 5h-9v3h3v7h3v-7h3V9z" fill="#ffffff"/>
</g><g transform="translate(0,3600)"><path d="M14 17H4v2h10v-2zm6-8H4v2h16V9zM4 15h16v-2H4v2zM4 5v2h16V5H4z"/>
    <path d="M0 0h24v24H0z" fill="none"/>
</g><g transform="translate(0,3168)"><path d="M14 17H4v2h10v-2zm6-8H4v2h16V9zM4 15h16v-2H4v2zM4 5v2h16V5H4z" fill="#ffffff"/>
    <path d="M0 0h24v24H0z" fill="none"/>
</g><g transform="translate(0,2928)"><path d="M0 0h24v24H0z" fill="none"/>
    <path d="M15 12c2.21 0 4-1.79 4-4s-1.79-4-4-4-4 1.79-4 4 1.79 4 4 4zm-9-2V7H4v3H1v2h3v3h2v-3h3v-2H6zm9 4c-2.67 0-8 1.34-8 4v2h16v-2c0-2.66-5.33-4-8-4z"/>
</g><g transform="translate(0,1536)"><path d="M0 0h24v24H0z" fill="none"/>
    <path d="M15 12c2.21 0 4-1.79 4-4s-1.79-4-4-4-4 1.79-4 4 1.79 4 4 4zm-9-2V7H4v3H1v2h3v3h2v-3h3v-2H6zm9 4c-2.67 0-8 1.34-8 4v2h16v-2c0-2.66-5.33-4-8-4z" fill="#ffffff"/>
</g><g transform="translate(0,816)"><!-- Generator: Sketch 3.3.3 (12081) - http://www.bohemiancoding.com/sketch -->
    <title>Slice 1</title>
    <desc>Created with Sketch.</desc>
    <defs/>
    <g xmlns:sketch="http://www.bohemiancoding.com/sketch/ns" id="Redesign---Adding---QuestionTypes" stroke="none" stroke-width="1" fill="none" fill-rule="evenodd" sketch:type="MSPage">
        <rect id="Rectangle-289" opacity="0" fill="#D8D8D8" sketch:type="MSShapeGroup" x="0" y="0" width="24" height="24"/>
        <path d="M12,2 C6.48,2 2,6.48 2,12 C2,17.52 6.48,22 12,22 C17.52,22 22,17.52 22,12 C22,6.48 17.52,2 12,2 L12,2 Z M17,13 L13,13 L13,17 L11,17 L11,13 L7,13 L7,11 L11,11 L11,7 L13,7 L13,11 L17,11 L17,13 L17,13 Z" id="Shape-Copy-3" fill="#000000" sketch:type="MSShapeGroup"/>
    </g>
</g><g transform="translate(0,3576)"><!-- Generator: Sketch 3.3.3 (12081) - http://www.bohemiancoding.com/sketch -->
    <title>Slice 1</title>
    <desc>Created with Sketch.</desc>
    <defs/>
    <g xmlns:sketch="http://www.bohemiancoding.com/sketch/ns" id="Redesign---Adding---QuestionTypes" stroke="none" stroke-width="1" fill="none" fill-rule="evenodd" sketch:type="MSPage">
        <rect id="Rectangle-289" opacity="0" fill="#D8D8D8" sketch:type="MSShapeGroup" x="0" y="0" width="24" height="24"/>
        <path d="M12,2 C6.48,2 2,6.48 2,12 C2,17.52 6.48,22 12,22 C17.52,22 22,17.52 22,12 C22,6.48 17.52,2 12,2 L12,2 Z M17,13 L13,13 L13,17 L11,17 L11,13 L7,13 L7,11 L11,11 L11,7 L13,7 L13,11 L17,11 L17,13 L17,13 Z" id="Shape-Copy-3" fill="#ffffff" sketch:type="MSShapeGroup"/>
    </g>
</g><g transform="translate(0,3000)"><path d="M12 7c-2.76 0-5 2.24-5 5s2.24 5 5 5 5-2.24 5-5-2.24-5-5-5zm0-5C6.48 2 2 6.48 2 12s4.48 10 10 10 10-4.48 10-10S17.52 2 12 2zm0 18c-4.42 0-8-3.58-8-8s3.58-8 8-8 8 3.58 8 8-3.58 8-8 8z"/>
    <path d="M0 0h24v24H0z" fill="none"/>
</g><g transform="translate(0,528)"><path d="M12 7c-2.76 0-5 2.24-5 5s2.24 5 5 5 5-2.24 5-5-2.24-5-5-5zm0-5C6.48 2 2 6.48 2 12s4.48 10 10 10 10-4.48 10-10S17.52 2 12 2zm0 18c-4.42 0-8-3.58-8-8s3.58-8 8-8 8 3.58 8 8-3.58 8-8 8z" fill="#ffffff"/>
    <path d="M0 0h24v24H0z" fill="none"/>
</g><g transform="translate(0,1464)"><defs>
        <path id="a" d="M0 0h24v24H0V0z"/>
    </defs>
    <clipPath id="b">
        <use xlink:href="#a" overflow="visible"/>
    </clipPath>
    <path clip-path="url(#b)" d="M19.5 9.5c-1.03 0-1.9.62-2.29 1.5h-2.92c-.39-.88-1.26-1.5-2.29-1.5s-1.9.62-2.29 1.5H6.79c-.39-.88-1.26-1.5-2.29-1.5C3.12 9.5 2 10.62 2 12s1.12 2.5 2.5 2.5c1.03 0 1.9-.62 2.29-1.5h2.92c.39.88 1.26 1.5 2.29 1.5s1.9-.62 2.29-1.5h2.92c.39.88 1.26 1.5 2.29 1.5 1.38 0 2.5-1.12 2.5-2.5s-1.12-2.5-2.5-2.5z"/>
</g><g transform="translate(0,2568)"><defs>
        <path id="a" d="M0 0h24v24H0V0z"/>
    </defs>
    <clipPath id="b">
        <use xlink:href="#a" overflow="visible"/>
    </clipPath>
    <path clip-path="url(#b)" d="M19.5 9.5c-1.03 0-1.9.62-2.29 1.5h-2.92c-.39-.88-1.26-1.5-2.29-1.5s-1.9.62-2.29 1.5H6.79c-.39-.88-1.26-1.5-2.29-1.5C3.12 9.5 2 10.62 2 12s1.12 2.5 2.5 2.5c1.03 0 1.9-.62 2.29-1.5h2.92c.39.88 1.26 1.5 2.29 1.5s1.9-.62 2.29-1.5h2.92c.39.88 1.26 1.5 2.29 1.5 1.38 0 2.5-1.12 2.5-2.5s-1.12-2.5-2.5-2.5z" fill="#ffffff"/>
</g><g transform="translate(0,3120)"><defs>
        <path id="a" d="M0 0h24v24H0V0z"/>
    </defs>
    <clipPath id="b">
        <use xlink:href="#a" overflow="visible"/>
    </clipPath>
    <path d="M4 9h16v2H4zm0 4h10v2H4z" clip-path="url(#b)"/>
</g><g transform="translate(0,456)"><defs>
        <path id="a" d="M0 0h24v24H0V0z"/>
    </defs>
    <clipPath id="b">
        <use xlink:href="#a" overflow="visible"/>
    </clipPath>
    <path d="M4 9h16v2H4zm0 4h10v2H4z" clip-path="url(#b)" fill="#ffffff"/>
</g><g transform="translate(0,2088)"><path d="M11.99 2C6.47 2 2 6.48 2 12s4.47 10 9.99 10C17.52 22 22 17.52 22 12S17.52 2 11.99 2zM12 20c-4.42 0-8-3.58-8-8s3.58-8 8-8 8 3.58 8 8-3.58 8-8 8z"/>
    <path d="M0 0h24v24H0z" fill="none"/>
    <path d="M12.5 7H11v6l5.25 3.15.75-1.23-4.5-2.67z"/>
</g><g transform="translate(0,2016)"><path d="M11.99 2C6.47 2 2 6.48 2 12s4.47 10 9.99 10C17.52 22 22 17.52 22 12S17.52 2 11.99 2zM12 20c-4.42 0-8-3.58-8-8s3.58-8 8-8 8 3.58 8 8-3.58 8-8 8z" fill="#ffffff"/>
    <path d="M0 0h24v24H0z" fill="none"/>
    <path d="M12.5 7H11v6l5.25 3.15.75-1.23-4.5-2.67z" fill="#ffffff"/>
</g><g transform="translate(0,3312)"><path fill="none" d="M0 0h24v24H0V0z"/>
    <path d="M7.71 3.52L1.15 15l3.42 5.99 6.56-11.47-3.42-6zM13.35 15H9.73L6.3 21h8.24c-.96-1.06-1.54-2.46-1.54-4 0-.7.13-1.37.35-2zM20 16v-3h-2v3h-3v2h3v3h2v-3h3v-2h-3zm.71-4.75L15.42 2H8.58v.01l6.15 10.77C15.82 11.68 17.33 11 19 11c.59 0 1.17.09 1.71.25z"/>
</g><g transform="translate(0,1296)"><path fill="none" d="M0 0h24v24H0V0z"/>
    <path d="M7.71 3.52L1.15 15l3.42 5.99 6.56-11.47-3.42-6zM13.35 15H9.73L6.3 21h8.24c-.96-1.06-1.54-2.46-1.54-4 0-.7.13-1.37.35-2zM20 16v-3h-2v3h-3v2h3v3h2v-3h3v-2h-3zm.71-4.75L15.42 2H8.58v.01l6.15 10.77C15.82 11.68 17.33 11 19 11c.59 0 1.17.09 1.71.25z" fill="#FFFFFF"/>
</g><g transform="translate(0,216)"><path d="M19 13h-6v6h-2v-6H5v-2h6V5h2v6h6v2z" fill="#ffffff"/>
    <path d="M0 0h24v24H0z" fill="none"/>
</g><g transform="translate(0,2976)"><path d="M7 15v2h10v-2H7zm-4 6h18v-2H3v2zm0-8h18v-2H3v2zm4-6v2h10V7H7zM3 3v2h18V3H3z"/>
    <path d="M0 0h24v24H0z" fill="none"/>
</g><g transform="translate(0,1560)"><path d="M7 15v2h10v-2H7zm-4 6h18v-2H3v2zm0-8h18v-2H3v2zm4-6v2h10V7H7zM3 3v2h18V3H3z" fill="#ffffff"/>
    <path d="M0 0h24v24H0z" fill="none"/>
</g><g transform="translate(0,984)"><path d="M15 15H3v2h12v-2zm0-8H3v2h12V7zM3 13h18v-2H3v2zm0 8h18v-2H3v2zM3 3v2h18V3H3z"/>
    <path d="M0 0h24v24H0z" fill="none"/>
</g><g transform="translate(0,3504)"><path d="M15 15H3v2h12v-2zm0-8H3v2h12V7zM3 13h18v-2H3v2zm0 8h18v-2H3v2zM3 3v2h18V3H3z" fill="#ffffff"/>
    <path d="M0 0h24v24H0z" fill="none"/>
</g><g transform="translate(0,2544)"><path d="M3 21h18v-2H3v2zm6-4h12v-2H9v2zm-6-4h18v-2H3v2zm6-4h12V7H9v2zM3 3v2h18V3H3z"/>
    <path d="M0 0h24v24H0z" fill="none"/>
</g><g transform="translate(0,792)"><path d="M3 21h18v-2H3v2zm6-4h12v-2H9v2zm-6-4h18v-2H3v2zm6-4h12V7H9v2zM3 3v2h18V3H3z" fill="#ffffff"/>
    <path d="M0 0h24v24H0z" fill="none"/>
</g><g transform="translate(0,3672)"><path d="M0 0h24v24H0z" fill="none"/>
    <path d="M20 11H7.83l5.59-5.59L12 4l-8 8 8 8 1.41-1.41L7.83 13H20v-2z"/>
</g><g transform="translate(0,3144)"><path d="M0 0h24v24H0z" fill="none"/>
  <path d="M12 4l-1.41 1.41L16.17 11H4v2h12.17l-5.58 5.59L12 20l8-8z" fill="#000000"/>
</g><g transform="translate(0,1824)"><path d="M0 0h24v24H0z" fill="none"/>
  <path d="M12 4l-1.41 1.41L16.17 11H4v2h12.17l-5.58 5.59L12 20l8-8z" fill="#ffffff"/>
</g><g transform="translate(0,72)"><path d="M0 0h24v24H0z" fill="none"/>
  <path d="M20 11H7.83l5.59-5.59L12 4l-8 8 8 8 1.41-1.41L7.83 13H20v-2z" fill="#ffffff"/>
</g><g transform="translate(0,2376)"><path d="M19 3H5c-1.1 0-2 .9-2 2v14c0 1.1.9 2 2 2h14c1.1 0 2-.9 2-2V5c0-1.1-.9-2-2-2zM9 17H7v-7h2v7zm4 0h-2V7h2v10zm4 0h-2v-4h2v4z"/></g><g transform="translate(0,600)"><path d="M19 3H5c-1.1 0-2 .9-2 2v14c0 1.1.9 2 2 2h14c1.1 0 2-.9 2-2V5c0-1.1-.9-2-2-2zM9 17H7v-7h2v7zm4 0h-2V7h2v10zm4 0h-2v-4h2v4z"/>
    <path d="M0 0h24v24H0z" fill="none"/>
</g><g transform="translate(0,840)"><path d="M19 3h-4.18C14.4 1.84 13.3 1 12 1c-1.3 0-2.4.84-2.82 2H5c-1.1 0-2 .9-2 2v14c0 1.1.9 2 2 2h14c1.1 0 2-.9 2-2V5c0-1.1-.9-2-2-2zm-7 0c.55 0 1 .45 1 1s-.45 1-1 1-1-.45-1-1 .45-1 1-1zm-2 14l-4-4 1.41-1.41L10 14.17l6.59-6.59L18 9l-8 8z"/></g><g transform="translate(0,240)"><path d="M19 3h-4.18C14.4 1.84 13.3 1 12 1c-1.3 0-2.4.84-2.82 2H5c-1.1 0-2 .9-2 2v14c0 1.1.9 2 2 2h14c1.1 0 2-.9 2-2V5c0-1.1-.9-2-2-2zm-7 0c.55 0 1 .45 1 1s-.45 1-1 1-1-.45-1-1 .45-1 1-1zm-2 14l-4-4 1.41-1.41L10 14.17l6.59-6.59L18 9l-8 8z" fill="#4285F4"/></g><g transform="translate(0,2424)"><path d="M19 3h-4.18C14.4 1.84 13.3 1 12 1c-1.3 0-2.4.84-2.82 2H5c-1.1 0-2 .9-2 2v14c0 1.1.9 2 2 2h14c1.1 0 2-.9 2-2V5c0-1.1-.9-2-2-2zm-7 0c.55 0 1 .45 1 1s-.45 1-1 1-1-.45-1-1 .45-1 1-1zm-2 14l-4-4 1.41-1.41L10 14.17l6.59-6.59L18 9l-8 8z" fill="#FFFFFF"/></g><g transform="translate(0,1728)"><path d="M17 12h-5v5h5v-5zM16 1v2H8V1H6v2H5c-1.11 0-1.99.9-1.99 2L3 19c0 1.1.89 2 2 2h14c1.1 0 2-.9 2-2V5c0-1.1-.9-2-2-2h-1V1h-2zm3 18H5V8h14v11z"/>
    <path d="M0 0h24v24H0z" fill="none"/>
</g><g transform="translate(0,3744)"><path d="M17 12h-5v5h5v-5zM16 1v2H8V1H6v2H5c-1.11 0-1.99.9-1.99 2L3 19c0 1.1.89 2 2 2h14c1.1 0 2-.9 2-2V5c0-1.1-.9-2-2-2h-1V1h-2zm3 18H5V8h14v11z" fill="#ffffff"/>
    <path d="M0 0h24v24H0z" fill="none"/>
</g><g transform="translate(0,192)"><path d="M20 2H4c-1.1 0-2 .9-2 2v18l4-4h14c1.1 0 2-.9 2-2V4c0-1.1-.9-2-2-2z"/></g><g transform="translate(0,2592)"><path d="M20 2H4c-1.1 0-2 .9-2 2v18l4-4h14c1.1 0 2-.9 2-2V4c0-1.1-.9-2-2-2z" fill="#ffffff"/></g><g transform="translate(0,2688)"><path d="M9 16.17L4.83 12l-1.42 1.41L9 19 21 7l-1.41-1.41z"/></g><g transform="translate(0,480)"><path d="M9 16.17L4.83 12l-1.42 1.41L9 19 21 7l-1.41-1.41z" fill="#0F9D58"/>
</g><g transform="translate(0,1032)"><path d="M 9.61,14.89 6.5,11.78 5.44,12.84 9.61,17 18.56,8.05 17.5,7 z" fill="#0F9D58"/></g><g transform="translate(0,3432)"><path d="M9 16.17L4.83 12l-1.42 1.41L9 19 21 7l-1.41-1.41z" fill="#FFFFFF"/></g><g transform="translate(0,3072)"><path d="M19 6.41L17.59 5 12 10.59 6.41 5 5 6.41 10.59 12 5 17.59 6.41 19 12 13.41 17.59 19 19 17.59 13.41 12z"/>
    <path d="M0 0h24v24H0z" fill="none"/>
</g><g transform="translate(0,2160)"><path d="M19 6.41L17.59 5 12 10.59 6.41 5 5 6.41 10.59 12 5 17.59 6.41 19 12 13.41 17.59 19 19 17.59 13.41 12z" fill="#DB4437"/>
</g><g transform="translate(0,3408)"><path d="M19 6.41L17.59 5 12 10.59 6.41 5 5 6.41 10.59 12 5 17.59 6.41 19 12 13.41 17.59 19 19 17.59 13.41 12z" fill="#FFFFFF"/>
    <path d="M0 0h24v24H0z" fill="none"/>
</g><g transform="translate(0,3360)"><path fill="none" d="M0 0h24v24H0V0z"/>
    <path d="M9.4 16.6L4.8 12l4.6-4.6L8 6l-6 6 6 6 1.4-1.4zm5.2 0l4.6-4.6-4.6-4.6L16 6l6 6-6 6-1.4-1.4z"/>
</g><g transform="translate(0,3792)"><path fill="none" d="M0 0h24v24H0V0z"/>
    <path d="M9.4 16.6L4.8 12l4.6-4.6L8 6l-6 6 6 6 1.4-1.4zm5.2 0l4.6-4.6-4.6-4.6L16 6l6 6-6 6-1.4-1.4z" fill="#ffffff"/>
</g><g transform="translate(0,1488)"><path d="M0 0h24v24H0z" fill="none"/>
    <path d="M16 1H4c-1.1 0-2 .9-2 2v14h2V3h12V1zm3 4H8c-1.1 0-2 .9-2 2v14c0 1.1.9 2 2 2h11c1.1 0 2-.9 2-2V7c0-1.1-.9-2-2-2zm0 16H8V7h11v14z"/>
</g><g transform="translate(0,1008)"><path d="M0 0h24v24H0z" fill="none"/>
    <path d="M16 1H4c-1.1 0-2 .9-2 2v14h2V3h12V1zm3 4H8c-1.1 0-2 .9-2 2v14c0 1.1.9 2 2 2h11c1.1 0 2-.9 2-2V7c0-1.1-.9-2-2-2zm0 16H8V7h11v14z" fill="#ffffff"/>
</g><g transform="translate(0,3720)"><path fill="none" d="M0 0h24v24H0z"/>
    <path d="M13.49 5.48c1.1 0 2-.9 2-2s-.9-2-2-2-2 .9-2 2 .9 2 2 2zm-3.6 13.9l1-4.4 2.1 2v6h2v-7.5l-2.1-2 .6-3c1.3 1.5 3.3 2.5 5.5 2.5v-2c-1.9 0-3.5-1-4.3-2.4l-1-1.6c-.4-.6-1-1-1.7-1-.3 0-.5.1-.8.1l-5.2 2.2v4.7h2v-3.4l1.8-.7-1.6 8.1-4.9-1-.4 2 7 1.4z"/>
</g><g transform="translate(0,1944)"><path fill="none" d="M0 0h24v24H0z"/>
    <path d="M13.49 5.48c1.1 0 2-.9 2-2s-.9-2-2-2-2 .9-2 2 .9 2 2 2zm-3.6 13.9l1-4.4 2.1 2v6h2v-7.5l-2.1-2 .6-3c1.3 1.5 3.3 2.5 5.5 2.5v-2c-1.9 0-3.5-1-4.3-2.4l-1-1.6c-.4-.6-1-1-1.7-1-.3 0-.5.1-.8.1l-5.2 2.2v4.7h2v-3.4l1.8-.7-1.6 8.1-4.9-1-.4 2 7 1.4z" fill="#ffffff"/>
</g><g transform="translate(0,2064)"><path d="M19 9h-4V3H9v6H5l7 7 7-7zM5 18v2h14v-2H5z"/>
    <path d="M0 0h24v24H0z" fill="none"/>
</g><g transform="translate(0,2040)"><path d="M19 9h-4V3H9v6H5l7 7 7-7zM5 18v2h14v-2H5z" fill="#ffffff"/>
    <path d="M0 0h24v24H0z" fill="none"/>
</g><g transform="translate(0,744)"><defs>
        <path id="a" d="M0 0h24v24H0V0z"/>
    </defs>
    <clipPath id="b">
        <use xlink:href="#a" overflow="visible"/>
    </clipPath>
    <path clip-path="url(#b)" d="M20 9H4v2h16V9zM4 15h16v-2H4v2z"/>
</g><g transform="translate(0,3024)"><circle cx="6.5" cy="9.5" r="1.5"/>
  <circle cx="6.5" cy="14.5" r="1.5"/>
  <circle cx="12.5" cy="9.5" r="1.5"/>
  <circle cx="12.5" cy="14.5" r="1.5"/>
  <circle cx="18.5" cy="9.5" r="1.5"/>
  <circle cx="18.5" cy="14.5" r="1.5"/>
</g><g transform="translate(0,288)"><circle cx="6.5" cy="9.5" r="1.5" fill="#ffffff"/>
  <circle cx="6.5" cy="14.5" r="1.5" fill="#ffffff"/>
  <circle cx="12.5" cy="9.5" r="1.5" fill="#ffffff"/>
  <circle cx="12.5" cy="14.5" r="1.5" fill="#ffffff"/>
  <circle cx="18.5" cy="9.5" r="1.5" fill="#ffffff"/>
  <circle cx="18.5" cy="14.5" r="1.5" fill="#ffffff"/>
</g><g transform="translate(0,3648)"><circle cy="6.5" cx="9.5" r="1.5"/>
  <circle cy="6.5" cx="14.5" r="1.5"/>
  <circle cy="12.5" cx="9.5" r="1.5"/>
  <circle cy="12.5" cx="14.5" r="1.5"/>
  <circle cy="18.5" cx="9.5" r="1.5"/>
  <circle cy="18.5" cx="14.5" r="1.5"/>
</g><g transform="translate(0,3240)"><circle cy="6.5" cx="9.5" r="1.5" fill="#ffffff"/>
  <circle cy="6.5" cx="14.5" r="1.5" fill="#ffffff"/>
  <circle cy="12.5" cx="9.5" r="1.5" fill="#ffffff"/>
  <circle cy="12.5" cx="14.5" r="1.5" fill="#ffffff"/>
  <circle cy="18.5" cx="9.5" r="1.5" fill="#ffffff"/>
  <circle cy="18.5" cx="14.5" r="1.5" fill="#ffffff"/>
</g><g transform="translate(0,1752)"><defs>
        <path id="a" d="M0 0h24v24H0V0z"/>
    </defs>
    <clipPath id="b">
        <use xlink:href="#a" overflow="visible"/>
    </clipPath>
    <path clip-path="url(#b)" d="M20 9H4v2h16V9zM4 15h16v-2H4v2z" fill="#ffffff"/>
</g><g transform="translate(0,2760)"><path d="M3 17.25V21h3.75L17.81 9.94l-3.75-3.75L3 17.25zM20.71 7.04c.39-.39.39-1.02 0-1.41l-2.34-2.34c-.39-.39-1.02-.39-1.41 0l-1.83 1.83 3.75 3.75 1.83-1.83z"/>
    <path d="M0 0h24v24H0z" fill="none"/>
</g><g transform="translate(0,1200)"><path d="M3 17.25V21h3.75L17.81 9.94l-3.75-3.75L3 17.25zM20.71 7.04c.39-.39.39-1.02 0-1.41l-2.34-2.34c-.39-.39-1.02-.39-1.41 0l-1.83 1.83 3.75 3.75 1.83-1.83z" fill="#4285F4"/>
    <path d="M0 0h24v24H0z" fill="none"/>
</g><g transform="translate(0,1080)"><path d="M3 17.25V21h3.75L17.81 9.94l-3.75-3.75L3 17.25zM20.71 7.04c.39-.39.39-1.02 0-1.41l-2.34-2.34c-.39-.39-1.02-.39-1.41 0l-1.83 1.83 3.75 3.75 1.83-1.83z" fill="#ffffff"/>
    <path d="M0 0h24v24H0z" fill="none"/>
</g><g transform="translate(0,384)"><path d="M20 4H4c-1.1 0-1.99.9-1.99 2L2 18c0 1.1.9 2 2 2h16c1.1 0 2-.9 2-2V6c0-1.1-.9-2-2-2zm0 4l-8 5-8-5V6l8 5 8-5v2z"/>
    <path d="M0 0h24v24H0z" fill="none"/>
</g><g transform="translate(0,576)"><path d="M20 4H4c-1.1 0-1.99.9-1.99 2L2 18c0 1.1.9 2 2 2h16c1.1 0 2-.9 2-2V6c0-1.1-.9-2-2-2zm0 4l-8 5-8-5V6l8 5 8-5v2z" fill="#ffffff"/>
    <path d="M0 0h24v24H0z" fill="none"/>
</g><g transform="translate(0,1800)"><path fill="none" d="M0 0h24v24H0V0z"/>
    <path d="M9.4 16.6L4.8 12l4.6-4.6L8 6l-6 6 6 6 1.4-1.4zm5.2 0l4.6-4.6-4.6-4.6L16 6l6 6-6 6-1.4-1.4z"/>
</g><g transform="translate(0,144)"><path fill="none" d="M0 0h24v24H0V0z"/>
    <path d="M9.4 16.6L4.8 12l4.6-4.6L8 6l-6 6 6 6 1.4-1.4zm5.2 0l4.6-4.6-4.6-4.6L16 6l6 6-6 6-1.4-1.4z" fill="#ffffff"/>
</g><g transform="translate(0,1680)"><path d="M12 8l-6 6 1.41 1.41L12 10.83l4.59 4.58L18 14z"/>
    <path d="M0 0h24v24H0z" fill="none"/>
</g><g transform="translate(0,1656)"><path d="M12 8l-6 6 1.41 1.41L12 10.83l4.59 4.58L18 14z" fill="#ffffff"/>
    <path d="M0 0h24v24H0z" fill="none"/>
</g><g transform="translate(0,360)"><path d="M16.59 8.59L12 13.17 7.41 8.59 6 10l6 6 6-6z"/>
    <path d="M0 0h24v24H0z" fill="none"/>
</g><g transform="translate(0,1608)"><path d="M16.59 8.59L12 13.17 7.41 8.59 6 10l6 6 6-6z" fill="#ffffff"/>
    <path d="M0 0h24v24H0z" fill="none"/>
</g><g transform="translate(0,2256)"><path d="M0 0h24v24H0z" fill="none"/>
    <path d="M20.5 11H19V7c0-1.1-.9-2-2-2h-4V3.5C13 2.12 11.88 1 10.5 1S8 2.12 8 3.5V5H4c-1.1 0-1.99.9-1.99 2v3.8H3.5c1.49 0 2.7 1.21 2.7 2.7s-1.21 2.7-2.7 2.7H2V20c0 1.1.9 2 2 2h3.8v-1.5c0-1.49 1.21-2.7 2.7-2.7 1.49 0 2.7 1.21 2.7 2.7V22H17c1.1 0 2-.9 2-2v-4h1.5c1.38 0 2.5-1.12 2.5-2.5S21.88 11 20.5 11z"/>
</g><g transform="translate(0,264)"><path d="M0 0h24v24H0z" fill="none"/>
    <path d="M20.5 11H19V7c0-1.1-.9-2-2-2h-4V3.5C13 2.12 11.88 1 10.5 1S8 2.12 8 3.5V5H4c-1.1 0-1.99.9-1.99 2v3.8H3.5c1.49 0 2.7 1.21 2.7 2.7s-1.21 2.7-2.7 2.7H2V20c0 1.1.9 2 2 2h3.8v-1.5c0-1.49 1.21-2.7 2.7-2.7 1.49 0 2.7 1.21 2.7 2.7V22H17c1.1 0 2-.9 2-2v-4h1.5c1.38 0 2.5-1.12 2.5-2.5S21.88 11 20.5 11z" fill="#FFFFFF"/>
</g><g transform="translate(0,2328)"><path d="M12 4.5C7 4.5 2.73 7.61 1 12c1.73 4.39 6 7.5 11 7.5s9.27-3.11 11-7.5c-1.73-4.39-6-7.5-11-7.5zM12 17c-2.76 0-5-2.24-5-5s2.24-5 5-5 5 2.24 5 5-2.24 5-5 5zm0-8c-1.66 0-3 1.34-3 3s1.34 3 3 3 3-1.34 3-3-1.34-3-3-3z"/></g><g transform="translate(0,1272)"><path d="M0 0h24v24H0z" fill="none"/>
    <path d="M12 4.5C7 4.5 2.73 7.61 1 12c1.73 4.39 6 7.5 11 7.5s9.27-3.11 11-7.5c-1.73-4.39-6-7.5-11-7.5zM12 17c-2.76 0-5-2.24-5-5s2.24-5 5-5 5 2.24 5 5-2.24 5-5 5zm0-8c-1.66 0-3 1.34-3 3s1.34 3 3 3 3-1.34 3-3-1.34-3-3-3z" fill="#FFFFFF"/>
</g><g transform="translate(0,2736)"><path d="M0 0h24v24H0z" fill="none"/>
    <path d="M20 2H4c-1.1 0-1.99.9-1.99 2L2 22l4-4h14c1.1 0 2-.9 2-2V4c0-1.1-.9-2-2-2zm-7 12h-2v-2h2v2zm0-4h-2V6h2v4z"/>
</g><g transform="translate(0,1104)"><path d="M0 0h24v24H0z" fill="none"/>
    <path d="M20 2H4c-1.1 0-1.99.9-1.99 2L2 22l4-4h14c1.1 0 2-.9 2-2V4c0-1.1-.9-2-2-2zm-7 12h-2v-2h2v2zm0-4h-2V6h2v4z" fill="#ffffff"/>
</g><g transform="translate(0,648)"><path d="M10 4H4c-1.1 0-1.99.9-1.99 2L2 18c0 1.1.9 2 2 2h16c1.1 0 2-.9 2-2V8c0-1.1-.9-2-2-2h-8l-2-2z"/>
    <path d="M0 0h24v24H0z" fill="none"/>
</g><g transform="translate(0,3552)"><path d="M10 4H4c-1.1 0-1.99.9-1.99 2L2 18c0 1.1.9 2 2 2h16c1.1 0 2-.9 2-2V8c0-1.1-.9-2-2-2h-8l-2-2z" fill="#FFFFFF"/>
    <path d="M0 0h24v24H0z" fill="none"/>
</g><g transform="translate(0,96)"><path d="M19 3h-4.18C14.4 1.84 13.3 1 12 1c-1.3 0-2.4.84-2.82 2H5c-1.1 0-2 .9-2 2v14c0 1.1.9 2 2 2h14c1.1 0 2-.9 2-2V5c0-1.1-.9-2-2-2zm-7 0c.55 0 1 .45 1 1s-.45 1-1 1-1-.45-1-1 .45-1 1-1zm-2 14l-4-4 1.41-1.41L10 14.17l6.59-6.59L18 9l-8 8z"/></g><g transform="translate(0,2112)"><path d="M0 0h24v24H0z" fill="none"/>
  <path d="M19 3h-4.18C14.4 1.84 13.3 1 12 1c-1.3 0-2.4.84-2.82 2H5c-1.1 0-2 .9-2 2v14c0 1.1.9 2 2 2h14c1.1 0 2-.9 2-2V5c0-1.1-.9-2-2-2zm-7 0c.55 0 1 .45 1 1s-.45 1-1 1-1-.45-1-1 .45-1 1-1zm-2 14l-4-4 1.41-1.41L10 14.17l6.59-6.59L18 9l-8 8z" fill="#FFFFFF"/>
</g><g transform="translate(0,1992)"><path d="M0 0h24v24H0z" fill="none"/>
    <path d="M19 3h-4.18C14.4 1.84 13.3 1 12 1c-1.3 0-2.4.84-2.82 2H5c-1.1 0-2 .9-2 2v14c0 1.1.9 2 2 2h14c1.1 0 2-.9 2-2V5c0-1.1-.9-2-2-2zm-6 15h-2v-2h2v2zm0-4h-2V8h2v6zm-1-9c-.55 0-1-.45-1-1s.45-1 1-1 1 .45 1 1-.45 1-1 1z"/>
</g><g transform="translate(0,2448)"><path d="M0 0h24v24H0z" fill="none"/>
    <path d="M19 3h-4.18C14.4 1.84 13.3 1 12 1c-1.3 0-2.4.84-2.82 2H5c-1.1 0-2 .9-2 2v14c0 1.1.9 2 2 2h14c1.1 0 2-.9 2-2V5c0-1.1-.9-2-2-2zm-6 15h-2v-2h2v2zm0-4h-2V8h2v6zm-1-9c-.55 0-1-.45-1-1s.45-1 1-1 1 .45 1 1-.45 1-1 1z" fill="#FFFFFF"/>
</g><g transform="translate(0,552)"><path d="M21 10.12h-6.78l2.74-2.82c-2.73-2.7-7.15-2.8-9.88-.1-2.73 2.71-2.73 7.08 0 9.79 2.73 2.71 7.15 2.71 9.88 0C18.32 15.65 19 14.08 19 12.1h2c0 1.98-.88 4.55-2.64 6.29-3.51 3.48-9.21 3.48-12.72 0-3.5-3.47-3.53-9.11-.02-12.58 3.51-3.47 9.14-3.47 12.65 0L21 3v7.12zM12.5 8v4.25l3.5 2.08-.72 1.21L11 13V8h1.5z"/></g><g transform="translate(0,864)"><path d="M21 10.12h-6.78l2.74-2.82c-2.73-2.7-7.15-2.8-9.88-.1-2.73 2.71-2.73 7.08 0 9.79 2.73 2.71 7.15 2.71 9.88 0C18.32 15.65 19 14.08 19 12.1h2c0 1.98-.88 4.55-2.64 6.29-3.51 3.48-9.21 3.48-12.72 0-3.5-3.47-3.53-9.11-.02-12.58 3.51-3.47 9.14-3.47 12.65 0L21 3v7.12zM12.5 8v4.25l3.5 2.08-.72 1.21L11 13V8h1.5z" fill="#FFFFFF"/>
</g><g transform="translate(0,2664)"><path d="M0 0h24v24H0z" fill="none"/>
    <path d="M12 2C6.48 2 2 6.48 2 12s4.48 10 10 10 10-4.48 10-10S17.52 2 12 2zm1 17h-2v-2h2v2zm2.07-7.75l-.9.92C13.45 12.9 13 13.5 13 15h-2v-.5c0-1.1.45-2.1 1.17-2.83l1.24-1.26c.37-.36.59-.86.59-1.41 0-1.1-.9-2-2-2s-2 .9-2 2H8c0-2.21 1.79-4 4-4s4 1.79 4 4c0 .88-.36 1.68-.93 2.25z"/>
</g><g transform="translate(0,3696)"><path d="M0 0h24v24H0z" fill="none"/>
    <path d="M12 2C6.48 2 2 6.48 2 12s4.48 10 10 10 10-4.48 10-10S17.52 2 12 2zm1 17h-2v-2h2v2zm2.07-7.75l-.9.92C13.45 12.9 13 13.5 13 15h-2v-.5c0-1.1.45-2.1 1.17-2.83l1.24-1.26c.37-.36.59-.86.59-1.41 0-1.1-.9-2-2-2s-2 .9-2 2H8c0-2.21 1.79-4 4-4s4 1.79 4 4c0 .88-.36 1.68-.93 2.25z" fill="#ffffff"/>
</g><g transform="translate(0,2280)"><path d="M0 0h24v24H0z" fill="none"/>
    <path d="M21 19V5c0-1.1-.9-2-2-2H5c-1.1 0-2 .9-2 2v14c0 1.1.9 2 2 2h14c1.1 0 2-.9 2-2zM8.5 13.5l2.5 3.01L14.5 12l4.5 6H5l3.5-4.5z"/>
</g><g transform="translate(0,1872)"><path d="M0 0h24v24H0z" fill="none"/>
    <path d="M21 19V5c0-1.1-.9-2-2-2H5c-1.1 0-2 .9-2 2v14c0 1.1.9 2 2 2h14c1.1 0 2-.9 2-2zM8.5 13.5l2.5 3.01L14.5 12l4.5 6H5l3.5-4.5z" fill="#ffffff"/>
</g><g transform="translate(0,2496)"><path d="M12.65 10C11.83 7.67 9.61 6 7 6c-3.31 0-6 2.69-6 6s2.69 6 6 6c2.61 0 4.83-1.67 5.65-4H17v4h4v-4h2v-4H12.65zM7 14c-1.1 0-2-.9-2-2s.9-2 2-2 2 .9 2 2-.9 2-2 2z"/></g><g transform="translate(0,2856)"><path d="M12.65 10C11.83 7.67 9.61 6 7 6c-3.31 0-6 2.69-6 6s2.69 6 6 6c2.61 0 4.83-1.67 5.65-4H17v4h4v-4h2v-4H12.65zM7 14c-1.1 0-2-.9-2-2s.9-2 2-2 2 .9 2 2-.9 2-2 2z" fill="#ffffff"/></g><g transform="translate(0,1320)"><path d="M15.41 16.09l-4.58-4.59 4.58-4.59L14 5.5l-6 6 6 6z"/>
    <path d="M0-.5h24v24H0z" fill="none"/>
</g><g transform="translate(0,2208)"><path d="M15.41 16.09l-4.58-4.59 4.58-4.59L14 5.5l-6 6 6 6z" fill="#ffffff"/>
    <path d="M0-.5h24v24H0z" fill="none"/>
</g><g transform="translate(0,888)"><path d="M8.59 16.34l4.58-4.59-4.58-4.59L10 5.75l6 6-6 6z"/>
    <path d="M0-.25h24v24H0z" fill="none"/>
</g><g transform="translate(0,3624)"><path d="M8.59 16.34l4.58-4.59-4.58-4.59L10 5.75l6 6-6 6z" fill="#ffffff"/>
    <path d="M0-.25h24v24H0z" fill="none"/>
</g><g transform="translate(0,3048)"><path d="M20 5H4c-1.1 0-1.99.9-1.99 2L2 17c0 1.1.9 2 2 2h16c1.1 0 2-.9 2-2V7c0-1.1-.9-2-2-2zm-9 3h2v2h-2V8zm0 3h2v2h-2v-2zM8 8h2v2H8V8zm0 3h2v2H8v-2zm-1 2H5v-2h2v2zm0-3H5V8h2v2zm9 7H8v-2h8v2zm0-4h-2v-2h2v2zm0-3h-2V8h2v2zm3 3h-2v-2h2v2zm0-3h-2V8h2v2z"/>
    <path d="M0 0h24v24H0zm0 0h24v24H0z" fill="none"/>
</g><g transform="translate(0,2616)"><path d="M20 5H4c-1.1 0-1.99.9-1.99 2L2 17c0 1.1.9 2 2 2h16c1.1 0 2-.9 2-2V7c0-1.1-.9-2-2-2zm-9 3h2v2h-2V8zm0 3h2v2h-2v-2zM8 8h2v2H8V8zm0 3h2v2H8v-2zm-1 2H5v-2h2v2zm0-3H5V8h2v2zm9 7H8v-2h8v2zm0-4h-2v-2h2v2zm0-3h-2V8h2v2zm3 3h-2v-2h2v2zm0-3h-2V8h2v2z" fill="#ffffff"/>
    <path d="M0 0h24v24H0zm0 0h24v24H0z" fill="none"/>
</g><g transform="translate(0,3096)"><path d="M0 0h24v24H0z" fill="none"/>
    <path d="M3.9 12c0-1.71 1.39-3.1 3.1-3.1h4V7H7c-2.76 0-5 2.24-5 5s2.24 5 5 5h4v-1.9H7c-1.71 0-3.1-1.39-3.1-3.1zM8 13h8v-2H8v2zm9-6h-4v1.9h4c1.71 0 3.1 1.39 3.1 3.1s-1.39 3.1-3.1 3.1h-4V17h4c2.76 0 5-2.24 5-5s-2.24-5-5-5z"/>
</g><g transform="translate(0,504)"><path d="M0 0h24v24H0z" fill="none"/>
    <path d="M3.9 12c0-1.71 1.39-3.1 3.1-3.1h4V7H7c-2.76 0-5 2.24-5 5s2.24 5 5 5h4v-1.9H7c-1.71 0-3.1-1.39-3.1-3.1zM8 13h8v-2H8v2zm9-6h-4v1.9h4c1.71 0 3.1 1.39 3.1 3.1s-1.39 3.1-3.1 3.1h-4V17h4c2.76 0 5-2.24 5-5s-2.24-5-5-5z" fill="#ffffff"/>
</g><g transform="translate(0,1176)"><path d="M18 8h-1V6c0-2.76-2.24-5-5-5S7 3.24 7 6v2H6c-1.1 0-2 .9-2 2v10c0 1.1.9 2 2 2h12c1.1 0 2-.9 2-2V10c0-1.1-.9-2-2-2zm-6 9c-1.1 0-2-.9-2-2s.9-2 2-2 2 .9 2 2-.9 2-2 2zm3.1-9H8.9V6c0-1.71 1.39-3.1 3.1-3.1 1.71 0 3.1 1.39 3.1 3.1v2z"/></g><g transform="translate(0,720)"><path d="M0 0h24v24H0z" fill="none"/>
  <path d="M18 8h-1V6c0-2.76-2.24-5-5-5S7 3.24 7 6v2H6c-1.1 0-2 .9-2 2v10c0 1.1.9 2 2 2h12c1.1 0 2-.9 2-2V10c0-1.1-.9-2-2-2zm-6 9c-1.1 0-2-.9-2-2s.9-2 2-2 2 .9 2 2-.9 2-2 2zm3.1-9H8.9V6c0-1.71 1.39-3.1 3.1-3.1 1.71 0 3.1 1.39 3.1 3.1v2z" fill="#FFFFFF"/>
</g><g transform="translate(0,1968)"><path d="M 19,4 H 5 V 2 h 14 v 2 z"/>
    <path d="M0 0h24v24H0z" fill="none"/>
</g><g transform="translate(0,3456)"><path d="M 19,4 H 5 V 2 h 14 v 2 z" fill="#FFFFFF"/>
    <path d="M0 0h24v24H0z" fill="none"/>
</g><g transform="translate(0,3288)"><path d="M 19,20 H 5 v -2 h 14 v 2 z"/>
    <path d="M0 0h24v24H0z" fill="none"/>
</g><g transform="translate(0,3480)"><path d="M 19,20 H 5 v -2 h 14 v 2 z" fill="#FFFFFF"/>
    <path d="M0 0h24v24H0z" fill="none"/>
</g><g transform="translate(0,1248)"><path d="M0 0h24v24H0z" fill="none"/>
    <path d="M12 8c1.1 0 2-.9 2-2s-.9-2-2-2-2 .9-2 2 .9 2 2 2zm0 2c-1.1 0-2 .9-2 2s.9 2 2 2 2-.9 2-2-.9-2-2-2zm0 6c-1.1 0-2 .9-2 2s.9 2 2 2 2-.9 2-2-.9-2-2-2z"/>
</g><g transform="translate(0,312)"><path d="M0 0h24v24H0z" fill="none"/>
    <path d="M12 8c1.1 0 2-.9 2-2s-.9-2-2-2-2 .9-2 2 .9 2 2 2zm0 2c-1.1 0-2 .9-2 2s.9 2 2 2 2-.9 2-2-.9-2-2-2zm0 6c-1.1 0-2 .9-2 2s.9 2 2 2 2-.9 2-2-.9-2-2-2z" fill="#FFFFFF"/>
</g><g transform="translate(0,1392)"><path d="M0 0h24v24H0z" fill="none"/>
    <path d="M19 19H5V5h7V3H5c-1.11 0-2 .9-2 2v14c0 1.1.89 2 2 2h14c1.1 0 2-.9 2-2v-7h-2v7zM14 3v2h3.59l-9.83 9.83 1.41 1.41L19 6.41V10h2V3h-7z" fill="#000000"/>
</g><g transform="translate(0,3768)"><path d="M0 0h24v24H0z" fill="none"/>
    <path d="M19 19H5V5h7V3H5c-1.11 0-2 .9-2 2v14c0 1.1.89 2 2 2h14c1.1 0 2-.9 2-2v-7h-2v7zM14 3v2h3.59l-9.83 9.83 1.41 1.41L19 6.41V10h2V3h-7z" fill="#FFFFFF"/>
</g><g transform="translate(0,3192)"><path d="M12 3c-4.97 0-9 4.03-9 9s4.03 9 9 9c.83 0 1.5-.67 1.5-1.5 0-.39-.15-.74-.39-1.01-.23-.26-.38-.61-.38-.99 0-.83.67-1.5 1.5-1.5H16c2.76 0 5-2.24 5-5 0-4.42-4.03-8-9-8zm-5.5 9c-.83 0-1.5-.67-1.5-1.5S5.67 9 6.5 9 8 9.67 8 10.5 7.33 12 6.5 12zm3-4C8.67 8 8 7.33 8 6.5S8.67 5 9.5 5s1.5.67 1.5 1.5S10.33 8 9.5 8zm5 0c-.83 0-1.5-.67-1.5-1.5S13.67 5 14.5 5s1.5.67 1.5 1.5S15.33 8 14.5 8zm3 4c-.83 0-1.5-.67-1.5-1.5S16.67 9 17.5 9s1.5.67 1.5 1.5-.67 1.5-1.5 1.5z"/></g><g transform="translate(0,3528)"><path d="M12 3c-4.97 0-9 4.03-9 9s4.03 9 9 9c.83 0 1.5-.67 1.5-1.5 0-.39-.15-.74-.39-1.01-.23-.26-.38-.61-.38-.99 0-.83.67-1.5 1.5-1.5H16c2.76 0 5-2.24 5-5 0-4.42-4.03-8-9-8zm-5.5 9c-.83 0-1.5-.67-1.5-1.5S5.67 9 6.5 9 8 9.67 8 10.5 7.33 12 6.5 12zm3-4C8.67 8 8 7.33 8 6.5S8.67 5 9.5 5s1.5.67 1.5 1.5S10.33 8 9.5 8zm5 0c-.83 0-1.5-.67-1.5-1.5S13.67 5 14.5 5s1.5.67 1.5 1.5S15.33 8 14.5 8zm3 4c-.83 0-1.5-.67-1.5-1.5S16.67 9 17.5 9s1.5.67 1.5 1.5-.67 1.5-1.5 1.5z" fill="#FFFFFF"/>
    <path d="M0 0h24v24H0z" fill="none"/>
</g><g transform="translate(0,3264)"><path d="M20 2H4c-1.1 0-1.99.9-1.99 2L2 20c0 1.1.9 2 2 2h16c1.1 0 2-.9 2-2V4c0-1.1-.9-2-2-2zm-1 2v3h-2c-.55 0-1 .45-1 1v2h3v3h-3v7h-3v-7h-2v-3h2V7.5C13 5.57 14.57 4 16.5 4H19z"/>
    <path d="M0 0h24v24H0z" fill="none"/>
</g><g transform="translate(0,3336)"><path d="M20 2H4c-1.1 0-1.99.9-1.99 2L2 20c0 1.1.9 2 2 2h16c1.1 0 2-.9 2-2V4c0-1.1-.9-2-2-2zm-1 2v3h-2c-.55 0-1 .45-1 1v2h3v3h-3v7h-3v-7h-2v-3h2V7.5C13 5.57 14.57 4 16.5 4H19z" fill="#ffffff"/>
    <path d="M0 0h24v24H0z" fill="none"/>
</g><g transform="translate(0,168)"><path d="M20 2H4c-1.1 0-2 .9-2 2v16c0 1.1.9 2 2 2h16c1.1 0 2-.9 2-2V4c0-1.1-.9-2-2-2zM9 17c-2.8 0-5-2.2-5-5s2.2-5 5-5c1.3 0 2.4.5 3.3 1.3L11 9.6c-.3-.4-1-.8-2-.8-1.8 0-3.2 1.4-3.2 3.2s1.5 3.2 3.2 3.2c2 0 2.8-1.4 2.9-2.4H9V11h4.7c.06.29.1.7.1 1.1C13.8 15 11.9 17 9 17zm11-5h-2v2h-1v-2h-2v-1h2V9h1v2h2v1z"/>
    <path fill="none" d="M0 0h24v24H0z"/>
</g><g transform="translate(0,2400)"><path d="M20 2H4c-1.1 0-2 .9-2 2v16c0 1.1.9 2 2 2h16c1.1 0 2-.9 2-2V4c0-1.1-.9-2-2-2zM9 17c-2.8 0-5-2.2-5-5s2.2-5 5-5c1.3 0 2.4.5 3.3 1.3L11 9.6c-.3-.4-1-.8-2-.8-1.8 0-3.2 1.4-3.2 3.2s1.5 3.2 3.2 3.2c2 0 2.8-1.4 2.9-2.4H9V11h4.7c.06.29.1.7.1 1.1C13.8 15 11.9 17 9 17zm11-5h-2v2h-1v-2h-2v-1h2V9h1v2h2v1z" fill="#FFFFFF"/>
    <path fill="none" d="M0 0h24v24H0z"/>
</g><g transform="translate(0,1440)"><path d="M20 2H4c-1.1 0-1.99.9-1.99 2L2 20c0 1.1.9 2 2 2h16c1.1 0 2-.9 2-2V4c0-1.1-.9-2-2-2zm-2.29 7.33c-.06 4.62-3.02 7.78-7.42 7.98-1.82.08-3.14-.5-4.28-1.23 1.34.21 3.01-.32 3.9-1.09-1.32-.13-2.1-.8-2.46-1.88.38.07.78.05 1.14-.03-1.19-.4-2.04-1.13-2.08-2.67.33.15.68.29 1.14.32-.9-.5-1.55-2.35-.8-3.57 1.32 1.45 2.91 2.63 5.52 2.79-.65-2.8 3.06-4.32 4.61-2.44.66-.13 1.19-.38 1.7-.65-.21.65-.62 1.1-1.12 1.47.54-.07 1.03-.21 1.44-.41-.25.53-.81 1.01-1.29 1.41z"/>
    <path d="M0 0h24v24H0z" fill="none"/>
</g><g transform="translate(0,2352)"><path d="M20 2H4c-1.1 0-1.99.9-1.99 2L2 20c0 1.1.9 2 2 2h16c1.1 0 2-.9 2-2V4c0-1.1-.9-2-2-2zm-2.29 7.33c-.06 4.62-3.02 7.78-7.42 7.98-1.82.08-3.14-.5-4.28-1.23 1.34.21 3.01-.32 3.9-1.09-1.32-.13-2.1-.8-2.46-1.88.38.07.78.05 1.14-.03-1.19-.4-2.04-1.13-2.08-2.67.33.15.68.29 1.14.32-.9-.5-1.55-2.35-.8-3.57 1.32 1.45 2.91 2.63 5.52 2.79-.65-2.8 3.06-4.32 4.61-2.44.66-.13 1.19-.38 1.7-.65-.21.65-.62 1.1-1.12 1.47.54-.07 1.03-.21 1.44-.41-.25.53-.81 1.01-1.29 1.41z" fill="#ffffff"/>
    <path d="M0 0h24v24H0z" fill="none"/>
</g><g transform="translate(0,1896)"><path d="M19 8H5c-1.66 0-3 1.34-3 3v6h4v4h12v-4h4v-6c0-1.66-1.34-3-3-3zm-3 11H8v-5h8v5zm3-7c-.55 0-1-.45-1-1s.45-1 1-1 1 .45 1 1-.45 1-1 1zm-1-9H6v4h12V3z"/>
    <path d="M0 0h24v24H0z" fill="none"/>
</g><g transform="translate(0,1920)"><path d="M19 8H5c-1.66 0-3 1.34-3 3v6h4v4h12v-4h4v-6c0-1.66-1.34-3-3-3zm-3 11H8v-5h8v5zm3-7c-.55 0-1-.45-1-1s.45-1 1-1 1 .45 1 1-.45 1-1 1zm-1-9H6v4h12V3z" fill="#ffffff"/>
    <path d="M0 0h24v24H0z" fill="none"/>
</g><g transform="translate(0,624)"><path d="m0 0h24v24h-24z" fill="none"/>
  <rect x="7" y="11" height="2" width="2"/>
  <rect x="10" y="11" height="2" width="7"/>
</g><g transform="translate(0,2136)"><path d="m0 0h24v24h-24z" fill="none"/>
  <rect x="7" y="11" height="2" width="2" fill="#ffffff"/>
  <rect x="10" y="11" height="2" width="7" fill="#ffffff"/>
</g><g transform="translate(0,960)"><path d="M15.5 14h-.79l-.28-.27C15.41 12.59 16 11.11 16 9.5 16 5.91 13.09 3 9.5 3S3 5.91 3 9.5 5.91 16 9.5 16c1.61 0 3.09-.59 4.23-1.57l.27.28v.79l5 4.99L20.49 19l-4.99-5zm-6 0C7.01 14 5 11.99 5 9.5S7.01 5 9.5 5 14 7.01 14 9.5 11.99 14 9.5 14z" fill="#000000"/>
    <path d="M0 0h24v24H0z" fill="none"/>
</g><g transform="translate(0,2184)"><path d="M15.5 14h-.79l-.28-.27C15.41 12.59 16 11.11 16 9.5 16 5.91 13.09 3 9.5 3S3 5.91 3 9.5 5.91 16 9.5 16c1.61 0 3.09-.59 4.23-1.57l.27.28v.79l5 4.99L20.49 19l-4.99-5zm-6 0C7.01 14 5 11.99 5 9.5S7.01 5 9.5 5 14 7.01 14 9.5 11.99 14 9.5 14z" fill="#ffffff"/>
    <path d="M0 0h24v24H0z" fill="none"/>
</g><g transform="translate(0,2808)"><path d="M0 0h24v24H0z" fill="none"/>
    <path d="M20 13H3c-.55 0-1 .45-1 1v6c0 .55.45 1 1 1h17c.55 0 1-.45 1-1v-6c0-.55-.45-1-1-1zm0-10H3c-.55 0-1 .45-1 1v6c0 .55.45 1 1 1h17c.55 0 1-.45 1-1V4c0-.55-.45-1-1-1z"/>
</g><g transform="translate(0,432)"><path d="M0 0h24v24H0z" fill="none"/>
    <path d="M20 13H3c-.55 0-1 .45-1 1v6c0 .55.45 1 1 1h17c.55 0 1-.45 1-1v-6c0-.55-.45-1-1-1zm0-10H3c-.55 0-1 .45-1 1v6c0 .55.45 1 1 1h17c.55 0 1-.45 1-1V4c0-.55-.45-1-1-1z" fill="#ffffff"/>
</g><g transform="translate(0,24)"><path d="M7 10l5 5 5-5z"/></g><g transform="translate(0,2304)"><path d="M7 10l5 5 5-5z" fill="#ffffff"/></g><g transform="translate(0,912)"><path d="M2.01 21L23 12 2.01 3 2 10l15 2-15 2z"/></g><g transform="translate(0,1416)"><path d="M2.01 21L23 12 2.01 3 2 10l15 2-15 2z" fill="#FFFFFF"/></g><g transform="translate(0,2784)"><path d="M0 0h24v24H0z" fill="none"/>
    <path d="M19.43 12.98c.04-.32.07-.64.07-.98s-.03-.66-.07-.98l2.11-1.65c.19-.15.24-.42.12-.64l-2-3.46c-.12-.22-.39-.3-.61-.22l-2.49 1c-.52-.4-1.08-.73-1.69-.98l-.38-2.65C14.46 2.18 14.25 2 14 2h-4c-.25 0-.46.18-.49.42l-.38 2.65c-.61.25-1.17.59-1.69.98l-2.49-1c-.23-.09-.49 0-.61.22l-2 3.46c-.13.22-.07.49.12.64l2.11 1.65c-.04.32-.07.65-.07.98s.03.66.07.98l-2.11 1.65c-.19.15-.24.42-.12.64l2 3.46c.12.22.39.3.61.22l2.49-1c.52.4 1.08.73 1.69.98l.38 2.65c.03.24.24.42.49.42h4c.25 0 .46-.18.49-.42l.38-2.65c.61-.25 1.17-.59 1.69-.98l2.49 1c.23.09.49 0 .61-.22l2-3.46c.12-.22.07-.49-.12-.64l-2.11-1.65zM12 15.5c-1.93 0-3.5-1.57-3.5-3.5s1.57-3.5 3.5-3.5 3.5 1.57 3.5 3.5-1.57 3.5-3.5 3.5z"/>
</g><g transform="translate(0,0)"><path d="M0 0h24v24H0z" fill="none"/>
    <path d="M19.43 12.98c.04-.32.07-.64.07-.98s-.03-.66-.07-.98l2.11-1.65c.19-.15.24-.42.12-.64l-2-3.46c-.12-.22-.39-.3-.61-.22l-2.49 1c-.52-.4-1.08-.73-1.69-.98l-.38-2.65C14.46 2.18 14.25 2 14 2h-4c-.25 0-.46.18-.49.42l-.38 2.65c-.61.25-1.17.59-1.69.98l-2.49-1c-.23-.09-.49 0-.61.22l-2 3.46c-.13.22-.07.49.12.64l2.11 1.65c-.04.32-.07.65-.07.98s.03.66.07.98l-2.11 1.65c-.19.15-.24.42-.12.64l2 3.46c.12.22.39.3.61.22l2.49-1c.52.4 1.08.73 1.69.98l.38 2.65c.03.24.24.42.49.42h4c.25 0 .46-.18.49-.42l.38-2.65c.61-.25 1.17-.59 1.69-.98l2.49 1c.23.09.49 0 .61-.22l2-3.46c.12-.22.07-.49-.12-.64l-2.11-1.65zM12 15.5c-1.93 0-3.5-1.57-3.5-3.5s1.57-3.5 3.5-3.5 3.5 1.57 3.5 3.5-1.57 3.5-3.5 3.5z" fill="#FFFFFF"/>
</g><g transform="translate(0,1512)"><path d="M0 0h24v24H0z" fill="none"/>
    <path d="M18 16.08c-.76 0-1.44.3-1.96.77L8.91 12.7c.05-.23.09-.46.09-.7s-.04-.47-.09-.7l7.05-4.11c.54.5 1.25.81 2.04.81 1.66 0 3-1.34 3-3s-1.34-3-3-3-3 1.34-3 3c0 .24.04.47.09.7L8.04 9.81C7.5 9.31 6.79 9 6 9c-1.66 0-3 1.34-3 3s1.34 3 3 3c.79 0 1.5-.31 2.04-.81l7.12 4.16c-.05.21-.08.43-.08.65 0 1.61 1.31 2.92 2.92 2.92 1.61 0 2.92-1.31 2.92-2.92s-1.31-2.92-2.92-2.92z"/>
</g><g transform="translate(0,2904)"><path d="M0 0h24v24H0z" fill="none"/>
    <path d="M18 16.08c-.76 0-1.44.3-1.96.77L8.91 12.7c.05-.23.09-.46.09-.7s-.04-.47-.09-.7l7.05-4.11c.54.5 1.25.81 2.04.81 1.66 0 3-1.34 3-3s-1.34-3-3-3-3 1.34-3 3c0 .24.04.47.09.7L8.04 9.81C7.5 9.31 6.79 9 6 9c-1.66 0-3 1.34-3 3s1.34 3 3 3c.79 0 1.5-.31 2.04-.81l7.12 4.16c-.05.21-.08.43-.08.65 0 1.61 1.31 2.92 2.92 2.92 1.61 0 2.92-1.31 2.92-2.92s-1.31-2.92-2.92-2.92z" fill="#ffffff"/>
</g><g transform="translate(0,1224)"><path d="M0 0h24v24H0z" fill="none"/>
  <path d="M19 3H5c-1.1 0-1.99.9-1.99 2L3 8v11c0 1.1.9 2 2 2h14c1.1 0 2-.9 2-2V5c0-1.1-.9-2-2-2zm0 8h-8v8H9v-8H5V9h4V5h2v4h8v2z" fill="#0F9D58"/>
</g><g transform="translate(0,696)"><path d="m6 15h12v-2h-12v2zm-3-7v2h18v-2h-18z"/>
    <path d="M0 0h24v24H0z" fill="none"/>
</g><g transform="translate(0,2640)"><path d="m6 15h12v-2h-12v2zm-3-7v2h18v-2h-18z" fill="#ffffff"/>
    <path d="M0 0h24v24H0z" fill="none"/>
</g><g transform="translate(0,2832)"><path d="M6 19c0 1.1.9 2 2 2h8c1.1 0 2-.9 2-2V7H6v12zM19 4h-3.5l-1-1h-5l-1 1H5v2h14V4z"/>
    <path d="M0 0h24v24H0z" fill="none"/>
</g><g transform="translate(0,2712)"><path d="M6 19c0 1.1.9 2 2 2h8c1.1 0 2-.9 2-2V7H6v12zM19 4h-3.5l-1-1h-5l-1 1H5v2h14V4z" fill="#ffffff"/>
    <path d="M0 0h24v24H0z" fill="none"/>
</g><g transform="translate(0,1344)"><path d="M0 0h24v24H0z" fill="none"/>
    <path d="M7.41 18.59L8.83 20 12 16.83 15.17 20l1.41-1.41L12 14l-4.59 4.59zm9.18-13.18L15.17 4 12 7.17 8.83 4 7.41 5.41 12 10l4.59-4.59z"/>
</g><g transform="translate(0,3216)"><path d="M0 0h24v24H0z" fill="none"/>
    <path d="M7.41 18.59L8.83 20 12 16.83 15.17 20l1.41-1.41L12 14l-4.59 4.59zm9.18-13.18L15.17 4 12 7.17 8.83 4 7.41 5.41 12 10l4.59-4.59z" fill="#ffffff"/>
</g><g transform="translate(0,3384)"><path d="M0 0h24v24H0z" fill="none"/>
    <path d="M12 5.83L15.17 9l1.41-1.41L12 3 7.41 7.59 8.83 9 12 5.83zm0 12.34L8.83 15l-1.41 1.41L12 21l4.59-4.59L15.17 15 12 18.17z"/>
</g><g transform="translate(0,2472)"><path d="M0 0h24v24H0z" fill="none"/>
    <path d="M12 5.83L15.17 9l1.41-1.41L12 3 7.41 7.59 8.83 9 12 5.83zm0 12.34L8.83 15l-1.41 1.41L12 21l4.59-4.59L15.17 15 12 18.17z" fill="#ffffff"/>
</g><g transform="translate(0,2520)"><path fill="none" d="M-618-568H782v3600H-618zM0 0h24v24H0z"/>
    <path d="M20 4.4c-.6-.2-4.3-.4-8-.4s-7.4.2-8 .4c-1.6.5-2 4-2 7.6s.4 7.1 2 7.6c.6.2 4.3.4 8 .4s7.4-.2 8-.4c1.6-.5 2-4 2-7.6s-.4-7.1-2-7.6zM10 16.5v-9l6 4.5-6 4.5z"/>
</g><g transform="translate(0,1632)"><path fill="none" d="M-618-568H782v3600H-618zM0 0h24v24H0z"/>
    <path d="M20 4.4c-.6-.2-4.3-.4-8-.4s-7.4.2-8 .4c-1.6.5-2 4-2 7.6s.4 7.1 2 7.6c.6.2 4.3.4 8 .4s7.4-.2 8-.4c1.6-.5 2-4 2-7.6s-.4-7.1-2-7.6zM10 16.5v-9l6 4.5-6 4.5z" fill="#ffffff"/>
</g><g transform="translate(0,768)"><path d="M12 17.27L18.18 21l-1.64-7.03L22 9.24l-7.19-.61L12 2 9.19 8.63 2 9.24l5.46 4.73L5.82 21z"/></g><g transform="translate(0,336)"><path d="M12 17.27L18.18 21l-1.64-7.03L22 9.24l-7.19-.61L12 2 9.19 8.63 2 9.24l5.46 4.73L5.82 21z" fill="#ffffff"/></g><g transform="translate(0,672)"><path d="M 17.53,7.53 16.47,6.47 12,10.94 7.53,6.47 6.47,7.53 10.94,12 6.47,16.47 7.53,17.53 12,13.06 16.47,17.53 17.53,16.47 13.06,12 z"/></g><g transform="translate(0,1128)"><path d="M 17.53,7.53 16.47,6.47 12,10.94 7.53,6.47 6.47,7.53 10.94,12 6.47,16.47 7.53,17.53 12,13.06 16.47,17.53 17.53,16.47 13.06,12 z" fill="#DB4437"/></g><g transform="translate(0,408)"><path d="M 17.53,7.53 16.47,6.47 12,10.94 7.53,6.47 6.47,7.53 10.94,12 6.47,16.47 7.53,17.53 12,13.06 16.47,17.53 17.53,16.47 13.06,12 z" fill="#ffffff"/></g></svg>