<?xml version="1.0" encoding="utf-8"?>
<!-- Generator: Adobe Illustrator 18.1.0, SVG Export Plug-In . SVG Version: 6.00 Build 0)  -->
<!DOCTYPE svg PUBLIC "-//W3C//DTD SVG 1.1//EN" "http://www.w3.org/Graphics/SVG/1.1/DTD/svg11.dtd">
<svg version="1.1" id="Layer_1" xmlns="http://www.w3.org/2000/svg" xmlns:xlink="http://www.w3.org/1999/xlink" x="0px" y="0px"
	 viewBox="0 0 30 30" enable-background="new 0 0 30 30" xml:space="preserve">
<rect x="0" fill="none" width="30" height="30"/>
<g>
	<rect x="8.2" y="3.9" fill="#006A4D" width="2.3" height="3.9"/>
	<rect x="18.9" y="3.9" fill="#006A4D" width="2.3" height="3.9"/>
	<path fill="#006A4D" d="M22.7,5.9v1.9v1.4h-1.5h-2.3h-1.5V7.8V5.9h-5.3v1.9v1.4h-1.5H8.2H6.7V7.8V5.9H2v20.1H28V5.9H22.7z
		 M8.7,23.6H4.8v-2.9h3.8V23.6z M8.7,19H4.8v-2.9h3.8V19z M14,23.6h-3.8v-2.9H14V23.6z M14,19h-3.8v-2.9H14V19z M14,14.5h-3.8v-2.9
		H14V14.5z M19.4,23.6h-3.8v-2.9h3.8V23.6z M19.4,19h-3.8v-2.9h3.8V19z M19.4,14.5h-3.8v-2.9h3.8V14.5z M24.7,19h-3.8v-2.9h3.8V19z
		 M24.7,14.5h-3.8v-2.9h3.8V14.5z"/>
</g>
</svg>
