<?xml version="1.0" standalone="no"?>
<!DOCTYPE svg PUBLIC "-//W3C//DTD SVG 1.1//EN" "http://www.w3.org/Graphics/SVG/1.1/DTD/svg11.dtd" >
<svg>
<metadata></metadata>
<defs>
<font id="lloyds_bank_jack-web-light" horiz-adv-x="501" >
  <font-face 
    font-family="Lloyds Bank Jack Web Light"
    font-weight="300"
    font-stretch="normal"
    units-per-em="1000"
    panose-1="2 0 5 3 4 0 0 2 0 4"
    ascent="750"
    descent="-250"
    x-height="485"
    cap-height="674"
    bbox="-128 -262 1005 1135"
    underline-thickness="50"
    underline-position="-50"
    unicode-range="U+000D-FB04"
  />
<missing-glyph horiz-adv-x="525" 
d="M503 673v-673h-481v673h481zM263 379l163 247h-327zM291 337l164 -246v491zM99 48h327l-163 245zM71 91l163 246l-163 245v-491z" />
    <glyph glyph-name="fi" unicode="fi" horiz-adv-x="486" 
d="M100 485v40q0 38 8 72.5t30 57.5q24 26 61 35t81 9q30 0 62 -4t53 -9l-6 -49q-20 5 -50 8.5t-58 3.5q-31 0 -55 -5.5t-38 -17.5q-16 -15 -22 -39.5t-6 -66.5v-35h251v-485h-61v433h-190v-433h-60v433h-76v52h76z" />
    <glyph glyph-name="fl" unicode="fl" horiz-adv-x="484" 
d="M100 485v40q0 38 8 72.5t30 57.5q24 26 57 35t76 9q38 0 75 -5.5t68 -13.5v-680h-60v640q-17 5 -39.5 7t-45.5 2q-29 0 -48 -5.5t-33 -17.5q-16 -15 -22 -39.5t-6 -66.5v-35h111l-6 -52h-105v-433h-60v433h-76v52h76z" />
    <glyph glyph-name="f_f" unicode="ff" horiz-adv-x="537" 
d="M100 485v40q0 38 8 72.5t30 57.5q24 26 55.5 35t68.5 9q9 0 21.5 -1t23.5 -3l-6 -49q-5 1 -15.5 2t-16.5 1q-29 0 -48 -5.5t-33 -17.5q-16 -15 -22 -39.5t-6 -66.5v-35h190v40q0 38 8 72.5t30 57.5q24 26 55.5 35t68.5 9q9 0 21.5 -1t23.5 -3l-6 -49q-5 1 -15.5 2
t-16.5 1q-29 0 -47.5 -5.5t-32.5 -17.5q-17 -15 -22.5 -39.5t-5.5 -66.5v-35h115l-6 -52h-109v-433h-61v433h-190v-433h-60v433h-76v52h76z" />
    <glyph glyph-name="f_f_i" unicode="ffi" horiz-adv-x="736" 
d="M100 485v40q0 38 8 72.5t30 57.5q24 26 55.5 35t68.5 9q9 0 21.5 -1t23.5 -3l-6 -49q-5 1 -15.5 2t-16.5 1q-29 0 -48 -5.5t-33 -17.5q-16 -15 -22 -39.5t-6 -66.5v-35h190v40q0 38 8 72.5t30 57.5q24 26 61.5 35t81.5 9q30 0 61.5 -4t52.5 -9l-6 -49q-20 5 -49.5 8.5
t-57.5 3.5q-32 0 -55.5 -5.5t-37.5 -17.5q-17 -15 -22.5 -39.5t-5.5 -66.5v-35h250v-485h-60v433h-190v-433h-61v433h-190v-433h-60v433h-76v52h76z" />
    <glyph glyph-name="f_f_l" unicode="ffl" horiz-adv-x="734" 
d="M100 485v40q0 38 8 72.5t30 57.5q24 26 55.5 35t68.5 9q9 0 21.5 -1t23.5 -3l-6 -49q-5 1 -15.5 2t-16.5 1q-29 0 -48 -5.5t-33 -17.5q-16 -15 -22 -39.5t-6 -66.5v-35h190v40q0 38 8 72.5t30 57.5q24 26 57.5 35t80.5 9q35 0 71 -5.5t67 -13.5v-680h-60v640
q-17 5 -39.5 7t-45.5 2q-29 0 -48 -5.5t-33 -17.5q-16 -15 -22 -39.5t-6 -66.5v-35h111l-6 -52h-105v-433h-60v433h-190v-433h-60v433h-76v52h76z" />
    <glyph glyph-name=".notdef" horiz-adv-x="525" 
d="M503 673v-673h-481v673h481zM263 379l163 247h-327zM291 337l164 -246v491zM99 48h327l-163 245zM71 91l163 246l-163 245v-491z" />
    <glyph glyph-name=".null" horiz-adv-x="0" 
 />
    <glyph glyph-name=".null" horiz-adv-x="0" 
 />
    <glyph glyph-name="nonmarkingreturn" unicode="&#xd;" horiz-adv-x="175" 
 />
    <glyph glyph-name="nonbreakingspace" unicode="&#xa0;" horiz-adv-x="175" 
 />
    <glyph glyph-name="space" unicode=" " horiz-adv-x="175" 
 />
    <glyph glyph-name="A" unicode="A" horiz-adv-x="573" 
d="M322 674q60 -157 117 -325.5t109 -348.5h-70q-10 36 -22 75.5t-24 77.5q-74 -6 -148 -6t-141 6q-13 -38 -24.5 -77.5t-22.5 -75.5h-71q53 180 111.5 348.5t116.5 325.5h69zM286 588q-31 -89 -63 -184t-62 -189q31 -2 61 -3.5t61 -1.5q33 0 65.5 1.5t64.5 3.5
q-29 94 -61 188.5t-64 184.5h-2z" />
    <glyph glyph-name="B" unicode="B" horiz-adv-x="563" 
d="M240 674q45 0 87.5 -4.5t74.5 -22t51.5 -52t19.5 -93.5q0 -47 -20 -87t-69 -57v-2q29 -5 54 -18t43.5 -34.5t29 -50t10.5 -63.5q0 -56 -18.5 -92.5t-52.5 -58t-81 -30.5t-105 -9h-177v674h153zM153 382h102q37 0 65.5 5.5t47.5 19t28.5 37t9.5 59.5q0 24 -8.5 46.5
t-25.5 36.5q-17 13 -43 18t-64 5h-112v-227zM153 65h116q44 0 78 5.5t57 19.5t34.5 39t11.5 64q0 26 -8.5 49t-25.5 38q-24 23 -57.5 30t-75.5 7h-130v-252z" />
    <glyph glyph-name="C" unicode="C" horiz-adv-x="550" 
d="M52 341q0 170 72 259.5t215 89.5q51 0 97 -13.5t80 -32.5l-18 -66q-36 20 -75.5 32.5t-85.5 12.5q-107 0 -160.5 -72.5t-53.5 -211.5q0 -137 49.5 -213.5t159.5 -76.5q45 0 87.5 10t77.5 28l17 -59q-32 -18 -82 -31t-102 -13q-78 0 -131 27t-86 74.5t-47 111.5t-14 139v5
z" />
    <glyph glyph-name="D" unicode="D" horiz-adv-x="619" 
d="M235 674q58 0 107 -6.5t84 -20.5q67 -29 104 -100.5t37 -202.5v-9q0 -200 -96 -281q-41 -33 -100 -43.5t-144 -10.5h-140v674h148zM153 65h103q68 0 110 11.5t72 41.5q32 32 45 89t13 133q0 75 -15 134.5t-53 91.5q-29 24 -72 33.5t-105 9.5h-98v-544z" />
    <glyph glyph-name="E" unicode="E" horiz-adv-x="507" 
d="M462 674l-7 -65h-302v-227h267l-7 -65h-260v-252h304l-7 -65h-363v674h375z" />
    <glyph glyph-name="F" unicode="F" horiz-adv-x="495" 
d="M153 0h-66v674h375l-7 -65h-302v-227h267l-7 -65h-260v-317z" />
    <glyph glyph-name="G" unicode="G" horiz-adv-x="600" 
d="M52 337q0 170 74 261.5t217 91.5q51 0 98 -13.5t82 -32.5l-18 -66q-37 20 -77 32.5t-87 12.5q-107 0 -162.5 -72.5t-55.5 -211.5q0 -138 52 -214t161 -76q29 0 61 5t59 15v207h-130l-10 65h206v-316q-38 -19 -87 -30t-96 -11q-79 0 -133.5 25.5t-88.5 71t-49.5 109.5
t-15.5 142v5z" />
    <glyph glyph-name="H" unicode="H" horiz-adv-x="645" 
d="M153 674v-292h339v292h66v-674h-66v317h-339v-317h-66v674h66z" />
    <glyph glyph-name="I" unicode="I" horiz-adv-x="246" 
d="M156 674v-674h-66v674h66z" />
    <glyph glyph-name="J" unicode="J" horiz-adv-x="396" 
d="M310 241q0 -37 -1.5 -67.5t-7.5 -56t-17 -46.5t-29 -38q-23 -23 -62 -36t-87 -13q-19 0 -41.5 3t-38.5 8l4 58q16 -4 34.5 -6.5t31.5 -2.5q47 0 75.5 12t45.5 35q19 25 23 61t4 88v434h66v-433z" />
    <glyph glyph-name="K" unicode="K" horiz-adv-x="531" 
d="M153 674v-334q41 37 78 74.5t72 78t69 85t70 96.5h71q-30 -45 -59 -84.5t-58 -75.5t-59 -69t-62 -66l243 -379h-80l-214 330q-17 -17 -34 -33t-37 -33v-264h-66v674h66z" />
    <glyph glyph-name="L" unicode="L" horiz-adv-x="450" 
d="M153 674v-609h265l-7 -65h-324v674h66z" />
    <glyph glyph-name="M" unicode="M" horiz-adv-x="813" 
d="M179 674q26 -55 58 -124l64 -138t60 -132.5t46 -107.5h2q12 29 30 69.5t39 87t44 95.5t44.5 95t40 86t32.5 69h59q6 -77 12 -165t11 -177t9 -174.5t7 -157.5h-69q-1 41 -4 107t-6.5 141.5t-8 152.5t-7.5 141h-2q-22 -47 -49 -105.5t-55.5 -120.5t-57 -125t-53.5 -120h-40
q-47 106 -101.5 225.5t-111.5 245.5h-2q-5 -83 -9 -162t-7.5 -149.5t-6 -129.5t-3.5 -101h-68q3 70 7 155t9.5 175t11.5 178.5t12 165.5h63z" />
    <glyph glyph-name="N" unicode="N" horiz-adv-x="673" 
d="M149 674l374 -551h1v551h62v-674h-53l-383 558h-1v-558h-62v674h62z" />
    <glyph glyph-name="O" unicode="O" horiz-adv-x="619" 
d="M52 342q0 75 13.5 138.5t44 110t80 73t120.5 26.5t120 -26.5t79.5 -73t44 -110t13.5 -138.5v-10q0 -75 -13.5 -138.5t-44 -110t-79.5 -73t-120 -26.5t-120.5 26.5t-80 73t-44 110t-13.5 138.5v10zM310 625q-52 0 -88 -19.5t-58 -56t-31.5 -90t-9.5 -121.5
q0 -69 9.5 -122.5t31.5 -90.5t58 -56.5t88 -19.5t87.5 19t57.5 56t31.5 90.5t9.5 122.5t-9.5 122.5t-31.5 90t-57.5 56t-87.5 19.5z" />
    <glyph glyph-name="P" unicode="P" horiz-adv-x="540" 
d="M240 674q66 0 120 -11.5t89 -47.5q23 -23 36.5 -60t13.5 -89q0 -55 -15.5 -96.5t-44.5 -67.5t-72 -38t-98 -12h-116v-252h-66v674h153zM153 317h105q40 0 71.5 5.5t53.5 21t33.5 45t11.5 77.5q0 77 -47 113q-21 16 -50.5 23t-74.5 7h-103v-292z" />
    <glyph glyph-name="Q" unicode="Q" horiz-adv-x="619" 
d="M52 342q0 75 13.5 138.5t44 110t80 73t120.5 26.5t120 -26.5t79.5 -73t44 -110t13.5 -138.5v-10q0 -100 -24.5 -178t-81.5 -123l98 -100l-55 -39q-6 7 -18 20.5t-25.5 28.5t-27.5 30.5t-25 28.5q-21 -8 -45.5 -12t-52.5 -4q-71 0 -120.5 26.5t-80 73t-44 110t-13.5 138.5
v10zM310 625q-52 0 -88 -19.5t-58 -56t-31.5 -90t-9.5 -121.5q0 -69 9.5 -122.5t31.5 -90.5t58 -56.5t88 -19.5t87.5 19t57.5 56t31.5 90.5t9.5 122.5t-9.5 122.5t-31.5 90t-57.5 56t-87.5 19.5z" />
    <glyph glyph-name="R" unicode="R" horiz-adv-x="552" 
d="M237 674q66 0 120 -11.5t89 -47.5q23 -23 36.5 -57.5t13.5 -87.5q0 -54 -15.5 -94t-44.5 -66q-11 -9 -25 -17t-31 -15l124 -278h-71l-112 264q-26 -3 -55 -3h-113v-261h-66v674h150zM153 326h82q37 0 63 1t44 6q39 11 61 41.5t22 95.5q0 40 -12 66t-35 43
q-21 16 -52.5 23t-72.5 7h-100v-283z" />
    <glyph glyph-name="S" unicode="S" horiz-adv-x="477" 
d="M385 602q-34 13 -63.5 19t-61.5 6q-28 0 -53.5 -6.5t-45 -21t-31 -37t-11.5 -54.5t10 -53.5t27 -37t40 -26t49 -18.5l32 -10q34 -11 63.5 -24t51 -33.5t34 -52t12.5 -77.5q0 -92 -55 -142t-170 -50q-38 0 -83 10t-79 24l9 63q38 -17 78.5 -26t72.5 -9q34 0 63 6
t49.5 20.5t32 38.5t11.5 61q0 33 -9 54t-25.5 35.5t-39 23.5t-49.5 17l-29 9q-77 24 -121.5 69t-44.5 128q0 46 16.5 80.5t45.5 57t67 33.5t82 11q36 0 72.5 -7.5t63.5 -19.5z" />
    <glyph glyph-name="T" unicode="T" horiz-adv-x="523" 
d="M489 674l-8 -65h-188v-609h-66v609h-192v65h454z" />
    <glyph glyph-name="U" unicode="U" horiz-adv-x="636" 
d="M150 674v-424q0 -50 8 -87.5t27.5 -63t52 -38t80.5 -12.5t80.5 12.5t52 38t27.5 63t8 87.5v424h66v-431q0 -63 -12 -111.5t-40 -81t-72.5 -49.5t-109.5 -17t-109.5 17t-72 49.5t-40 81t-12.5 111.5v431h66z" />
    <glyph glyph-name="V" unicode="V" horiz-adv-x="576" 
d="M97 674q41 -142 90.5 -294t99.5 -293h2q50 141 99.5 293t90.5 294h71q-53 -180 -110.5 -348t-116.5 -326h-71q-59 158 -116 326t-110 348h71z" />
    <glyph glyph-name="W" unicode="W" horiz-adv-x="887" 
d="M97 674q14 -71 34 -149t42 -155t45 -150t44 -133h2q28 93 54 189.5t51 193.5q13 52 23.5 101.5t19.5 102.5h66q11 -53 21.5 -102.5t24.5 -101.5q26 -97 51.5 -191t56.5 -192h1q21 60 43 133t42.5 150t39 155t32.5 149h70q-19 -88 -42 -177.5t-48 -176t-51.5 -167.5
t-51.5 -153h-71q-20 56 -39.5 120.5t-38.5 132.5t-37.5 139t-34.5 141h-2q-32 -140 -70 -277t-76 -256h-72q-26 72 -53 153t-53 167.5t-50.5 176t-43.5 177.5h71z" />
    <glyph glyph-name="X" unicode="X" horiz-adv-x="534" 
d="M117 674q30 -76 71.5 -150.5t83.5 -135.5q39 60 81.5 135t76.5 151h74q-45 -92 -95 -177t-96 -154q48 -67 96 -150t102 -193h-79q-34 78 -75 154t-84 140q-42 -63 -85 -138t-78 -156h-80q28 57 54.5 105.5t51 90t48.5 77t47 68.5q-48 67 -98 153.5t-92 179.5h76z" />
    <glyph glyph-name="Y" unicode="Y" horiz-adv-x="512" 
d="M94 674q13 -55 31 -108.5t38.5 -103t43.5 -93.5t47 -79h3q22 35 45 79t44 93.5t40 103t33 108.5h73q-40 -126 -92 -243t-112 -210v-221h-64v222q-66 92 -116.5 209t-86.5 243h73z" />
    <glyph glyph-name="Z" unicode="Z" horiz-adv-x="518" 
d="M465 674v-61l-336 -548h341l-12 -65h-400l-9 62l335 547h-327v65h408z" />
    <glyph glyph-name="a" unicode="a" horiz-adv-x="484" 
d="M75 469q32 14 73.5 23t82.5 9q82 0 130 -40t48 -129v-242q0 -28 5 -40.5t30 -12.5h4v-40q-5 -2 -15 -3.5t-18 -1.5q-22 0 -40.5 12t-23.5 41q-32 -29 -71.5 -45t-89.5 -16q-31 0 -58.5 9.5t-48 28t-32.5 45t-12 60.5q0 46 24 84.5t69 59.5q33 15 75.5 22.5t111.5 7.5h30
v27q0 28 -6 50.5t-20.5 37.5t-39.5 23t-63 8q-34 0 -71 -9.5t-64 -21.5zM315 252q-37 0 -67.5 -3t-56.5 -11q-36 -12 -62 -38t-26 -69q0 -38 24.5 -65t75.5 -27q45 0 84.5 20t61.5 46v147h-34z" />
    <glyph glyph-name="b" unicode="b" horiz-adv-x="518" 
d="M127 690v-236q37 25 75 36t75 11q51 0 95.5 -24.5t69.5 -76.5q14 -29 22 -67t8 -87v-3q0 -42 -8 -84t-27 -77q-24 -44 -67 -71t-106 -27q-38 0 -76.5 14.5t-70.5 38.5l-6 -37h-49q1 11 2 32t1.5 44l1 46t0.5 39v529h60zM127 96q27 -23 61 -38.5t71 -15.5q39 0 64 12.5
t43 32.5q23 29 32 70.5t9 89.5t-9 88t-32 67q-18 20 -43 31t-63 11q-35 0 -71 -14.5t-62 -35.5v-298z" />
    <glyph glyph-name="c" unicode="c" horiz-adv-x="444" 
d="M47 241q0 123 55.5 191.5t165.5 68.5q42 0 79 -11.5t61 -26.5l-10 -58q-18 14 -53 26t-73 12q-161 0 -161 -201q0 -100 36 -151t120 -51q35 0 69.5 8.5t59.5 21.5l10 -53q-30 -15 -66.5 -24t-75.5 -9q-48 0 -86.5 12.5t-65.5 39.5q-33 33 -49 84t-16 118v3z" />
    <glyph glyph-name="d" unicode="d" horiz-adv-x="521" 
d="M454 690v-497q0 -41 1.5 -95t3.5 -98h-51l-5 42q-40 -32 -77.5 -45t-75.5 -13q-42 0 -79.5 15.5t-63.5 44.5q-28 31 -44 78.5t-16 107.5v4q0 70 18.5 124.5t53.5 89.5q26 26 61.5 39.5t78.5 13.5q36 0 71 -8.5t64 -23.5v221h60zM394 409q-26 16 -58.5 25.5t-60.5 9.5
q-48 0 -79.5 -17t-50 -45t-26.5 -65t-8 -76q0 -94 36.5 -146.5t114.5 -52.5q36 0 71 15.5t61 40.5v311z" />
    <glyph glyph-name="e" unicode="e" 
d="M47 241q0 48 11.5 94.5t36.5 83t64.5 59.5t95.5 23q86 0 133 -47t61 -135q3 -17 4.5 -39.5t1.5 -42.5v-21h-343q5 -86 44 -131t117 -45q34 0 73 8.5t64 21.5l10 -53q-30 -15 -70.5 -24t-79.5 -9q-48 0 -88.5 13t-66.5 40q-33 33 -50.5 84t-17.5 118v2zM390 269
q-4 81 -35.5 127.5t-96.5 46.5q-61 0 -96 -37q-24 -24 -36 -59.5t-15 -77.5h279z" />
    <glyph glyph-name="f" unicode="f" horiz-adv-x="286" 
d="M100 485v40q0 38 8 72.5t30 57.5q24 26 55.5 35t68.5 9q9 0 21.5 -1t23.5 -3l-6 -49q-5 1 -15.5 2t-16.5 1q-29 0 -48 -5.5t-33 -17.5q-16 -15 -22 -39.5t-6 -66.5v-35h116l-6 -52h-110v-433h-60v433h-76v52h76z" />
    <glyph glyph-name="g" unicode="g" horiz-adv-x="515" 
d="M410 435q16 -20 24.5 -45.5t8.5 -58.5v-3q0 -43 -14.5 -75t-40 -53t-59.5 -31.5t-72 -10.5q-20 0 -42.5 4.5t-39.5 12.5q-16 -6 -25.5 -18t-9.5 -31q0 -25 17.5 -38.5t55.5 -13.5h112q74 0 114 -33t40 -98q0 -33 -15 -63t-44 -52.5t-71 -35.5t-96 -13q-107 0 -163.5 43.5
t-56.5 110.5q0 38 22.5 70.5t60.5 46.5q-16 11 -25.5 31t-9.5 41q0 26 14.5 46t36.5 30q-25 18 -43 50t-18 80v3q0 39 14.5 70.5t39.5 53.5t59 34t73 12q41 0 70 -9.5t53 -27.5q29 18 61.5 31t67.5 19l-8 -65q-21 0 -45 -4t-46 -10zM217 23q-19 0 -34 0.5t-26 2.5
q-27 -8 -45 -31t-18 -55q0 -47 41 -79t122 -32q35 0 64.5 9t51.5 24.5t34 37t12 45.5q0 41 -26 59.5t-82 18.5h-94zM132 329q0 -25 7.5 -46.5t23 -38t39 -26t56.5 -9.5q65 0 94.5 34.5t29.5 85.5q0 25 -7.5 46.5t-22.5 38t-38.5 26t-55.5 9.5q-33 0 -56.5 -9.5t-39 -26
t-23 -38t-7.5 -46.5z" />
    <glyph glyph-name="h" unicode="h" horiz-adv-x="526" 
d="M127 690v-263q36 35 81.5 54.5t91.5 19.5q82 0 121 -40q22 -22 31.5 -55.5t9.5 -83.5v-322h-60v311q0 38 -6 63.5t-21 40.5q-13 14 -33 20t-49 6q-39 0 -85 -21t-81 -59v-361h-60v690h60z" />
    <glyph glyph-name="i" unicode="i" horiz-adv-x="210" 
d="M135 485v-485h-60v485h60zM67 647q0 23 8.5 36t29.5 13q38 0 38 -49v-8q0 -47 -38 -47q-21 0 -29.5 12t-8.5 35v8z" />
    <glyph glyph-name="j" unicode="j" horiz-adv-x="207" 
d="M135 485v-481q0 -103 -35 -156.5t-118 -53.5h-8t-10 1l3 52h9q24 0 42 6.5t31 24t19.5 46.5t6.5 74v487h60zM67 647q0 23 8.5 36t29.5 13q38 0 38 -49v-8q0 -47 -38 -47q-21 0 -29.5 12t-8.5 35v8z" />
    <glyph glyph-name="k" unicode="k" horiz-adv-x="434" 
d="M127 690v-424q51 39 107 97.5t103 121.5h70q-78 -113 -166 -196l175 -289h-72l-149 247q-17 -14 -34 -27t-34 -25v-195h-60v690h60z" />
    <glyph glyph-name="l" unicode="l" horiz-adv-x="200" 
d="M130 690v-690h-60v690h60z" />
    <glyph glyph-name="m" unicode="m" horiz-adv-x="801" 
d="M116 485l7 -58q29 32 71 53t90 21t80 -20.5t48 -52.5q35 34 77.5 53.5t90.5 19.5q75 0 117 -40q22 -22 31 -55.5t9 -83.5v-322h-60v311q0 38 -4.5 60.5t-17.5 38.5q-11 14 -31.5 22.5t-53.5 8.5q-36 0 -72.5 -17t-68.5 -52q2 -14 2 -29.5v-32.5v-310h-60v304
q0 28 -2.5 53t-12 43.5t-29 29.5t-52.5 11q-40 0 -79.5 -22t-68.5 -54v-365h-60v485h49z" />
    <glyph glyph-name="n" unicode="n" horiz-adv-x="526" 
d="M116 485l8 -61q37 37 82.5 57t93.5 20q82 0 121 -40q22 -22 31.5 -55.5t9.5 -83.5v-322h-60v311q0 38 -6 63.5t-21 40.5q-13 14 -33 20t-49 6q-42 0 -86.5 -21t-79.5 -59v-361h-60v485h49z" />
    <glyph glyph-name="o" unicode="o" horiz-adv-x="519" 
d="M47 243q0 125 52 191.5t160 66.5q109 0 161 -66t52 -191v-2q0 -125 -52 -191.5t-161 -66.5q-108 0 -160 66.5t-52 191.5v1zM260 447q-78 0 -113.5 -51.5t-35.5 -153.5q0 -101 35.5 -152.5t113.5 -51.5t113 51.5t35 152.5q0 102 -35 153.5t-113 51.5z" />
    <glyph glyph-name="p" unicode="p" horiz-adv-x="522" 
d="M111 485l7 -49q43 37 87 51t75 14q39 0 74.5 -13.5t62.5 -44.5q28 -31 43 -79.5t15 -108.5v-5q0 -70 -18.5 -124.5t-53.5 -89.5q-54 -52 -140 -52q-35 0 -69 8t-67 25v-207h-60v675h44zM127 77q26 -17 58.5 -26.5t61.5 -9.5q48 0 79.5 17t50 45t26.5 64.5t8 75.5
q0 40 -8 83.5t-36 74.5q-36 39 -98 39q-42 0 -79 -18.5t-63 -42.5v-302z" />
    <glyph glyph-name="q" unicode="q" horiz-adv-x="522" 
d="M47 244q0 48 12 94t37.5 82.5t65.5 58.5t96 22q43 0 77 -13t69 -39l7 36h44v-675h-60v220q-38 -25 -77 -35.5t-75 -10.5q-52 0 -97 24t-70 76q-29 60 -29 155v5zM395 393q-28 24 -59.5 37t-66.5 13q-51 0 -82 -20t-48 -50t-22.5 -66.5t-5.5 -69.5q0 -48 10 -87.5
t33 -66.5q18 -20 43.5 -31t62.5 -11t72.5 14.5t62.5 35.5v302z" />
    <glyph glyph-name="r" unicode="r" horiz-adv-x="303" 
d="M116 485l7 -67q29 31 69 53t91 26v-68q-45 -2 -86 -21t-70 -47v-361h-60v485h49z" />
    <glyph glyph-name="s" unicode="s" horiz-adv-x="401" 
d="M328 430q-24 8 -51 12.5t-48 4.5q-63 0 -91 -22.5t-28 -59.5q0 -22 7 -36t20 -23.5t31 -16.5t41 -14l25 -8q35 -11 59.5 -23.5t40 -28.5t22.5 -36.5t7 -47.5q0 -41 -12.5 -69t-35.5 -45t-55.5 -25t-71.5 -8q-35 0 -72 8t-65 20l5 53q29 -13 64 -21t62 -8q25 0 47 3.5
t38.5 13t25.5 27t9 45.5q0 35 -21 54t-68 33l-28 8q-27 7 -51.5 18t-43 27.5t-30 39t-11.5 54.5q0 37 14 64t38 44.5t55.5 25.5t67.5 8q26 0 55.5 -5t54.5 -13z" />
    <glyph glyph-name="t" unicode="t" horiz-adv-x="315" 
d="M155 630v-145h126l-3 -52h-123v-259q0 -44 4.5 -71t16 -42t31 -20.5t49.5 -5.5q5 0 12.5 0.5t14.5 1.5l5 -50q-13 -2 -27.5 -2.5t-19.5 -0.5q-42 0 -70.5 10.5t-45 31.5t-23.5 51.5t-7 70.5v285h-76v52h76v136z" />
    <glyph glyph-name="u" unicode="u" horiz-adv-x="512" 
d="M124 485v-263q0 -35 1 -59.5t4.5 -43t10 -31.5t18.5 -23q19 -16 44 -21.5t54 -5.5t54 5.5t44 21.5q12 10 18.5 23t10 31.5t4.5 43t1 59.5v263h60v-264q0 -55 -5.5 -99t-25 -74.5t-58 -47t-103.5 -16.5t-103 16.5t-58 47t-25.5 74.5t-5.5 99v264h60z" />
    <glyph glyph-name="v" unicode="v" horiz-adv-x="426" 
d="M70 485q10 -40 28 -96t38.5 -114.5t40 -113t34.5 -92.5h2q13 37 32.5 91.5t39 113.5t37 115t27.5 96h64q-18 -63 -41 -132.5t-46.5 -135.5t-45.5 -123t-37 -94h-65q-15 37 -37 94t-46 123t-47 135.5t-41 132.5h63z" />
    <glyph glyph-name="w" unicode="w" horiz-adv-x="668" 
d="M78 485q9 -37 23.5 -88t30.5 -106t32.5 -109t30.5 -98q11 36 25 83.5t29.5 101t30.5 109.5t27 107h54q12 -51 27 -107t30 -109.5t29 -101t25 -83.5q13 44 30 98t33.5 109t31 106t23.5 88h63q-14 -54 -33.5 -119.5t-41.5 -131.5t-43 -127t-38 -107h-54q-17 58 -32 108
t-28 95.5t-25 89t-24 89.5q-12 -46 -23.5 -89.5t-25 -89t-28.5 -95.5t-33 -108h-53q-17 46 -38.5 107t-43 127t-41.5 131.5t-33 119.5h63z" />
    <glyph glyph-name="x" unicode="x" horiz-adv-x="420" 
d="M96 485q22 -48 52 -98.5t62 -95.5q32 45 62 95.5t53 98.5h69q-32 -59 -70.5 -122t-78.5 -118q38 -51 77 -112t84 -133h-75q-13 24 -28.5 50.5t-31.5 53t-32 50.5t-29 44q-29 -40 -62.5 -94.5t-59.5 -103.5h-73q43 72 82 133t77 112q-42 55 -80.5 118t-67.5 122h70z" />
    <glyph glyph-name="y" unicode="y" horiz-adv-x="435" 
d="M77 485q33 -152 71.5 -264t80.5 -184q35 79 70 192t61 256h65q-20 -83 -39 -154t-39 -133.5t-41.5 -119t-46.5 -110.5q-23 -51 -45.5 -84.5t-45 -53.5t-46.5 -28t-50 -8q-30 0 -54 6l4 49q11 -3 22.5 -4.5t19.5 -1.5q17 0 31.5 3.5t27.5 14.5q23 19 41.5 48.5t34.5 68.5
q-53 82 -99 210t-90 297h67z" />
    <glyph glyph-name="z" unicode="z" horiz-adv-x="411" 
d="M375 485v-52l-271 -381h275l-12 -52h-325l-10 49l273 384h-263v52h333z" />
    <glyph glyph-name="ampersand" unicode="&#x26;" horiz-adv-x="658" 
d="M628 -13q-42 7 -86 32t-83 60q-38 -44 -92 -69.5t-124 -25.5q-44 0 -82 13.5t-66.5 37t-44.5 56t-16 70.5v7q0 35 11.5 64t31 54t44.5 46.5t52 41.5q-32 44 -52 85t-20 78v8q0 25 9.5 51t28.5 47t47.5 34t66.5 13q28 0 54 -9.5t46 -26.5t31.5 -41t11.5 -53q0 -33 -12 -60
t-32.5 -50.5t-46 -44t-52.5 -40.5q45 -53 97.5 -104.5t99.5 -94.5q26 43 39 93.5t15 101.5h60q-5 -65 -22 -125t-48 -110q40 -35 77 -57.5t73 -30.5zM247 42q54 0 96 21t73 56q-50 48 -105.5 102t-103.5 110q-43 -33 -74.5 -71t-31.5 -90v-3q0 -56 40 -90.5t106 -34.5z
M164 539q0 -29 15 -62t41 -69q22 16 42.5 33t35.5 35t24 38t9 43q0 35 -21.5 56t-55.5 21q-42 0 -66 -25.5t-24 -64.5v-5z" />
    <glyph glyph-name="at" unicode="@" horiz-adv-x="796" 
d="M444 690q63 0 119.5 -20t99.5 -57t68 -89.5t25 -118.5q0 -51 -12 -96.5t-36 -79.5t-59.5 -53.5t-82.5 -19.5q-42 0 -67 17t-33 43q-18 -27 -45.5 -43.5t-64.5 -16.5q-56 0 -89 36.5t-33 103.5q0 41 12 79.5t33.5 68.5t52.5 48t70 18q29 0 52.5 -10t40.5 -27l7 33h54
l-32 -190q-3 -16 -5.5 -35.5t-2.5 -34.5q0 -23 14.5 -35.5t38.5 -12.5q33 0 57 16.5t40 44t24 63.5t8 75q0 52 -19 96t-53.5 76t-82.5 49.5t-107 17.5q-71 0 -131.5 -24t-105 -68t-70 -106.5t-25.5 -139.5q0 -124 74 -194t211 -70q51 0 107.5 9t101.5 24l-6 -51
q-38 -14 -91.5 -23t-116.5 -9q-83 0 -147 23.5t-108 65t-66.5 99.5t-22.5 127q0 79 28.5 150.5t81 124.5t127.5 84.5t167 31.5zM487 433q-34 32 -80 32q-26 0 -47 -13.5t-36 -36t-23.5 -53t-8.5 -63.5q0 -98 73 -98q27 0 52 16.5t44 44.5q2 14 3.5 28t5.5 37z" />
    <glyph glyph-name="exclam" unicode="!" horiz-adv-x="245" 
d="M153 674v-251l-10 -218h-42l-11 218v251h63zM84 44q0 23 8 35.5t30 12.5q21 0 29.5 -12.5t8.5 -35.5v-10q0 -23 -8.5 -36.5t-29.5 -13.5q-22 0 -30 13.5t-8 36.5v10z" />
    <glyph glyph-name="exclamdown" unicode="&#xa1;" horiz-adv-x="245" 
d="M143 280l10 -218v-251h-63v251l11 218h42zM84 451q0 23 8 36.5t30 13.5q21 0 29.5 -13.5t8.5 -36.5v-10q0 -23 -8.5 -35.5t-29.5 -12.5q-22 0 -30 12.5t-8 35.5v10z" />
    <glyph glyph-name="question" unicode="?" horiz-adv-x="419" 
d="M40 663q28 11 65 19t79 8t76.5 -10.5t59.5 -33.5t39 -58.5t14 -84.5q0 -87 -47 -137.5t-135 -50.5l-10 -129h-50l-8 182h31q82 0 119 32t37 105q0 67 -34 97.5t-101 30.5q-29 0 -64 -6.5t-64 -18.5zM119 44q0 23 8 35.5t30 12.5q23 0 30.5 -12.5t7.5 -35.5v-10
q0 -23 -7.5 -36.5t-30.5 -13.5q-22 0 -30 13.5t-8 36.5v10z" />
    <glyph glyph-name="questiondown" unicode="&#xbf;" horiz-adv-x="419" 
d="M288 299l8 -182h-31q-82 0 -119 -32t-37 -105q0 -67 34 -97.5t101 -30.5q29 0 64 6.5t64 18.5l7 -55q-28 -11 -65 -19t-79 -8t-76.5 10.5t-59.5 33.5t-39 58t-14 85q0 87 47 137.5t135 50.5l10 129h50zM224 451q0 23 7.5 36.5t30.5 13.5q22 0 30 -13.5t8 -36.5v-10
q0 -23 -8 -35.5t-30 -12.5q-23 0 -30.5 12.5t-7.5 35.5v10z" />
    <glyph glyph-name="asterisk" unicode="*" horiz-adv-x="344" 
d="M152 562l-11 121h59l-11 -121l111 56l21 -55l-119 -37l84 -92l-49 -35l-65 105l-67 -104l-49 36l86 90l-120 36l22 55z" />
    <glyph glyph-name="period" unicode="." horiz-adv-x="198" 
d="M51 52q0 28 13 42t35 14q23 0 35.5 -14t12.5 -42v-11q0 -29 -12.5 -43t-35.5 -14q-22 0 -35 14t-13 43v11z" />
    <glyph glyph-name="comma" unicode="," horiz-adv-x="198" 
d="M49 52q0 56 49 56q50 0 50 -60q0 -29 -15 -80.5t-50 -121.5l-43 18q15 32 26.5 60t19.5 55q-14 4 -25.5 18t-11.5 41v14z" />
    <glyph glyph-name="colon" unicode=":" horiz-adv-x="198" 
d="M51 52q0 28 13 42t35 14q23 0 35.5 -14t12.5 -42v-11q0 -29 -12.5 -43t-35.5 -14q-22 0 -35 14t-13 43v11zM51 452q0 28 13 42t35 14q23 0 35.5 -14t12.5 -42v-11q0 -29 -12.5 -43t-35.5 -14q-22 0 -35 14t-13 43v11z" />
    <glyph glyph-name="semicolon" unicode=";" horiz-adv-x="198" 
d="M49 52q0 56 49 56q50 0 50 -60q0 -29 -15 -80.5t-50 -121.5l-43 18q15 32 26.5 60t19.5 55q-14 4 -25.5 18t-11.5 41v14zM51 452q0 28 13 42t35 14q23 0 35.5 -14t12.5 -42v-11q0 -29 -12.5 -43t-35.5 -14q-22 0 -35 14t-13 43v11z" />
    <glyph glyph-name="ellipsis" unicode="&#x2026;" horiz-adv-x="582" 
d="M51 52q0 28 13 42t35 14q23 0 35.5 -14t12.5 -42v-11q0 -29 -12.5 -43t-35.5 -14q-22 0 -35 14t-13 43v11zM244 52q0 28 12.5 42t34.5 14q23 0 35.5 -14t12.5 -42v-11q0 -29 -12.5 -43t-35.5 -14q-22 0 -34.5 14t-12.5 43v11zM436 52q0 28 12.5 42t34.5 14q23 0 35.5 -14
t12.5 -42v-11q0 -29 -12.5 -43t-35.5 -14q-22 0 -34.5 14t-12.5 43v11z" />
    <glyph glyph-name="periodcentered" unicode="&#xb7;" horiz-adv-x="198" 
d="M51 260q0 28 13 42t35 14q23 0 35.5 -14t12.5 -42v-11q0 -29 -12.5 -43t-35.5 -14q-22 0 -35 14t-13 43v11z" />
    <glyph glyph-name="uni22C5" unicode="&#x22c5;" horiz-adv-x="198" 
d="M51 260q0 28 13 42t35 14q23 0 35.5 -14t12.5 -42v-11q0 -29 -12.5 -43t-35.5 -14q-22 0 -35 14t-13 43v11z" />
    <glyph glyph-name="bullet" unicode="&#x2022;" horiz-adv-x="360" 
d="M71 391h218v-219h-218v219z" />
    <glyph glyph-name="slash" unicode="/" horiz-adv-x="378" 
d="M350 690l-253 -706h-69l254 706h68z" />
    <glyph glyph-name="parenleft" unicode="(" horiz-adv-x="370" 
d="M322 721q-78 -96 -115.5 -201.5t-37.5 -224.5q0 -238 152 -427l-27 -22q-88 92 -141.5 204t-53.5 245q0 134 52 246t142 203z" />
    <glyph glyph-name="brokenbar" unicode="&#xa6;" horiz-adv-x="272" 
d="M162 244v-260h-52v260h52zM162 734v-267h-52v267h52z" />
    <glyph glyph-name="parenright" unicode=")" horiz-adv-x="370" 
d="M77 744q90 -91 142 -203t52 -246q0 -133 -53.5 -245t-141.5 -204l-27 22q152 191 152 427q0 237 -153 426z" />
    <glyph glyph-name="bracketleft" unicode="[" horiz-adv-x="345" 
d="M266 683v-50h-107v-695h107v-50h-167v795h167z" />
    <glyph glyph-name="backslash" unicode="\" horiz-adv-x="378" 
d="M96 690l254 -706h-69l-253 706h68z" />
    <glyph glyph-name="bracketright" unicode="]" horiz-adv-x="345" 
d="M246 683v-795h-166v50h106v695h-106v50h166z" />
    <glyph glyph-name="braceleft" unicode="{" horiz-adv-x="341" 
d="M299 730v-46h-27q-22 0 -36.5 -3.5t-23 -13.5t-12 -28.5t-3.5 -47.5v-138q0 -37 -4 -62t-13 -41.5t-24.5 -26t-39.5 -14.5v-2q24 -5 39.5 -14t24.5 -25.5t13 -41.5t4 -62v-138q0 -29 3.5 -47.5t12 -28.5t23 -13.5t36.5 -3.5h27v-46h-50q-60 0 -86 32.5t-26 96.5v177
q0 76 -71 99v33q71 21 71 99v177q0 64 26 96.5t86 32.5h50z" />
    <glyph glyph-name="bar" unicode="|" horiz-adv-x="272" 
d="M166 699v-715h-60v715h60z" />
    <glyph glyph-name="braceright" unicode="}" horiz-adv-x="345" 
d="M96 730q60 0 86.5 -32.5t26.5 -96.5v-177q0 -78 70 -99v-33q-70 -23 -70 -99v-177q0 -64 -26.5 -96.5t-86.5 -32.5h-49v46h27q22 0 36.5 3.5t22.5 13.5t11.5 28.5t3.5 47.5v138q0 37 4 62t13.5 41.5t25 25.5t39.5 14v2q-24 5 -39.5 14.5t-25 26t-13.5 41.5t-4 62v138
q0 29 -3.5 47.5t-11.5 28.5t-22.5 13.5t-36.5 3.5h-27v46h49z" />
    <glyph glyph-name="hyphen" unicode="-" horiz-adv-x="281" 
d="M231 281v-59h-181v59h181z" />
    <glyph glyph-name="uni00AD" unicode="&#xad;" horiz-adv-x="281" 
d="M231 281v-59h-181v59h181z" />
    <glyph glyph-name="endash" unicode="&#x2013;" horiz-adv-x="491" 
d="M488 278v-53h-485v53h485z" />
    <glyph glyph-name="emdash" unicode="&#x2014;" horiz-adv-x="976" 
d="M973 278v-53h-970v53h970z" />
    <glyph glyph-name="underscore" unicode="_" horiz-adv-x="491" 
d="M488 -73v-58h-485v58h485z" />
    <glyph glyph-name="dagger" unicode="&#x2020;" horiz-adv-x="416" 
d="M243 674l-3 -189h144l-9 -54h-137l-4 -447h-55l-5 447h-142v54h140l-3 189h74z" />
    <glyph glyph-name="daggerdbl" unicode="&#x2021;" horiz-adv-x="416" 
d="M243 674l-3 -189h144l-9 -54h-137l-2 -154h114l-8 -54h-106l-2 -239h-55l-3 239h-115v54h114l-1 154h-142v54h140l-3 189h74z" />
    <glyph glyph-name="section" unicode="&#xa7;" horiz-adv-x="462" 
d="M342 623q-24 8 -49 12.5t-49 4.5q-56 0 -81 -20t-25 -51q0 -26 18.5 -45t61.5 -37l68 -29q25 -11 44.5 -22t33 -25.5t20.5 -33.5t7 -45q0 -28 -15.5 -56.5t-44.5 -52.5q22 -11 38 -36.5t16 -57.5q0 -76 -46.5 -110.5t-121.5 -34.5q-31 0 -67 6.5t-71 20.5l3 52
q40 -14 73 -20.5t56 -6.5q59 0 86.5 22t27.5 57q0 16 -4 28.5t-15 23.5t-30 21.5t-50 22.5l-46 20q-19 7 -38.5 17.5t-35 25.5t-25.5 35t-10 47q0 32 18.5 60t51.5 45q-29 18 -46.5 44t-17.5 60q0 31 12.5 54.5t34 39t51.5 23.5t65 8q31 0 56 -5t48 -14zM182 438
q-48 -26 -48 -75q0 -31 17.5 -47t49.5 -31l90 -41q23 23 33 42.5t10 38.5q0 26 -19 46t-67 40z" />
    <glyph glyph-name="paragraph" unicode="&#xb6;" 
d="M449 690v-791h-60v742h-113v-742h-61v479q-39 0 -70.5 11.5t-54 32t-34.5 48.5t-12 61q0 76 46 117.5t122 41.5h237z" />
    <glyph glyph-name="registered" unicode="&#xae;" horiz-adv-x="747" 
d="M375 606q-60 0 -109 -21.5t-84 -59t-54 -87.5t-19 -106q0 -57 19 -107t54 -88t84 -60t109 -22t108.5 22t83.5 60t54 88t19 107q0 56 -19 106t-54 87.5t-83.5 59t-108.5 21.5zM364 513q72 0 104 -26.5t32 -88.5q0 -35 -13 -64t-44 -42l65 -145h-60l-55 133q-8 -1 -17 -1
h-17h-28v-132h-59v366h92zM331 332h36q41 0 56.5 13t15.5 53q0 35 -16 48t-56 13h-36v-127zM375 663q70 0 129.5 -25.5t102.5 -70t67 -105t24 -130.5q0 -71 -24 -131.5t-67 -105t-102.5 -70t-129.5 -25.5q-71 0 -130.5 25.5t-102.5 70t-67 105t-24 131.5q0 70 24 130.5
t67 105t102.5 70t130.5 25.5z" />
    <glyph glyph-name="copyright" unicode="&#xa9;" horiz-adv-x="747" 
d="M230 330q0 94 40.5 138.5t108.5 44.5q28 0 52.5 -7.5t40.5 -17.5l-8 -48q-14 8 -35.5 16t-45.5 8q-97 0 -97 -133q0 -134 93 -134q21 0 43.5 5.5t40.5 13.5l9 -46q-21 -10 -44.5 -16.5t-46.5 -6.5q-78 0 -114.5 45t-36.5 136v2zM375 606q-60 0 -109 -21.5t-84 -59
t-54 -87.5t-19 -106q0 -57 19 -107t54 -88t84 -60t109 -22t108.5 22t83.5 60t54 88t19 107q0 56 -19 106t-54 87.5t-83.5 59t-108.5 21.5zM375 663q70 0 129.5 -25.5t102.5 -70t67 -105t24 -130.5q0 -71 -24 -131.5t-67 -105t-102.5 -70t-129.5 -25.5q-71 0 -130.5 25.5
t-102.5 70t-67 105t-24 131.5q0 70 24 130.5t67 105t102.5 70t130.5 25.5z" />
    <glyph glyph-name="trademark" unicode="&#x2122;" horiz-adv-x="625" 
d="M243 711l-2 -48h-85v-269h-51v269h-83v48h221zM342 711q9 -19 20.5 -46.5t24.5 -57t25 -58t22 -49.5q9 21 21 49.5t24 58t23.5 57t19.5 46.5h52q5 -70 9.5 -149.5t7.5 -167.5h-52q-2 54 -3.5 112.5t-3.5 111.5q-8 -19 -19 -45t-22.5 -52.5t-21.5 -51t-17 -40.5h-39
q-10 23 -21 48t-21.5 49.5t-20 47t-16.5 39.5q-3 -49 -4.5 -107t-3.5 -112h-51q2 88 6.5 166.5t9.5 150.5h51z" />
    <glyph glyph-name="quotedblleft" unicode="&#x201c;" horiz-adv-x="364" 
d="M318.98 546.967q0 -55.9971 -48.9971 -55.9971q-49.9971 0 -49.9971 59.9971q0 28.998 14.999 80.4951q14.999 51.4961 49.9971 121.492l42.998 -17.999q-15 -31.998 -26.499 -59.9961t-19.499 -54.9971q14 -3.99902 25.499 -17.999q11.499 -13.999 11.499 -40.9971
v-13.999zM140.991 546.967q0 -55.9971 -48.9971 -55.9971q-49.9971 0 -49.9971 59.9971q0 28.998 14.999 80.4951q15 51.4961 49.9971 121.492l42.998 -17.999q-14.999 -31.998 -26.499 -59.9961q-11.499 -27.998 -19.498 -54.9971q13.999 -3.99902 25.498 -17.999
q11.499 -13.999 11.499 -40.9971v-13.999z" />
    <glyph glyph-name="quotedblright" unicode="&#x201d;" horiz-adv-x="364" 
d="M223 680q0 56 49 56q50 0 50 -60q0 -29 -15 -80.5t-50 -121.5l-43 18q15 32 26.5 60t19.5 55q-14 4 -25.5 18t-11.5 41v14zM45 680q0 56 49 56q50 0 50 -60q0 -29 -15 -80.5t-50 -121.5l-43 18q15 32 26.5 60t19.5 55q-14 4 -25.5 18t-11.5 41v14z" />
    <glyph glyph-name="quoteleft" unicode="&#x2018;" horiz-adv-x="186" 
d="M140.991 546.967q0 -55.9971 -48.9971 -55.9971q-49.9971 0 -49.9971 59.9971q0 28.998 14.999 80.4951q15 51.4961 49.9971 121.492l42.998 -17.999q-14.999 -31.998 -26.499 -59.9961q-11.499 -27.998 -19.498 -54.9971q13.999 -3.99902 25.498 -17.999
q11.499 -13.999 11.499 -40.9971v-13.999z" />
    <glyph glyph-name="quoteright" unicode="&#x2019;" horiz-adv-x="186" 
d="M45 680q0 56 49 56q50 0 50 -60q0 -29 -15 -80.5t-50 -121.5l-43 18q15 32 26.5 60t19.5 55q-14 4 -25.5 18t-11.5 41v14z" />
    <glyph glyph-name="guillemotleft" unicode="&#xab;" horiz-adv-x="525" 
d="M272 444l-146 -201l145 -200l-47 -31l-168 231l168 232zM467 444l-146 -201l145 -200l-47 -31l-168 231l168 232z" />
    <glyph glyph-name="guillemotright" unicode="&#xbb;" horiz-adv-x="525" 
d="M106 475l168 -232l-168 -231l-47 31l145 200l-146 201zM301 475l168 -232l-168 -231l-47 31l145 200l-146 201z" />
    <glyph glyph-name="guilsinglleft" unicode="&#x2039;" horiz-adv-x="330" 
d="M272 444l-146 -201l145 -200l-47 -31l-168 231l168 232z" />
    <glyph glyph-name="guilsinglright" unicode="&#x203a;" horiz-adv-x="330" 
d="M106 475l168 -232l-168 -231l-47 31l145 200l-146 201z" />
    <glyph glyph-name="quotesinglbase" unicode="&#x201a;" horiz-adv-x="186" 
d="M45 52q0 56 49 56q50 0 50 -60q0 -29 -15 -80.5t-50 -121.5l-43 18q15 32 26.5 60t19.5 55q-14 4 -25.5 18t-11.5 41v14z" />
    <glyph glyph-name="quotedblbase" unicode="&#x201e;" horiz-adv-x="364" 
d="M223 52q0 56 49 56q50 0 50 -60q0 -29 -15 -80.5t-50 -121.5l-43 18q15 32 26.5 60t19.5 55q-14 4 -25.5 18t-11.5 41v14zM45 52q0 56 49 56q50 0 50 -60q0 -29 -15 -80.5t-50 -121.5l-43 18q15 32 26.5 60t19.5 55q-14 4 -25.5 18t-11.5 41v14z" />
    <glyph glyph-name="grave" unicode="`" horiz-adv-x="321" 
d="M275 591l-29 -47l-198 112l38 59z" />
    <glyph glyph-name="acute" unicode="&#xb4;" horiz-adv-x="321" 
d="M235 715l39 -59l-199 -112l-28 47z" />
    <glyph glyph-name="dieresis" unicode="&#xa8;" horiz-adv-x="321" 
d="M190 641q0 26 14.5 38.5t33.5 12.5q20 0 34 -12.5t14 -38.5v-5q0 -26 -14 -37.5t-34 -11.5q-19 0 -33.5 11.5t-14.5 37.5v5zM34 641q0 26 14 38.5t33 12.5q21 0 34.5 -12.5t13.5 -38.5v-5q0 -26 -13.5 -37.5t-34.5 -11.5q-19 0 -33 11.5t-14 37.5v5z" />
    <glyph glyph-name="circumflex" unicode="&#x2c6;" horiz-adv-x="321" 
d="M182 726l120 -121l-45 -36l-93 92h-6l-95 -92l-43 36l120 121h42z" />
    <glyph glyph-name="tilde" unicode="&#x2dc;" horiz-adv-x="321" 
d="M11 628q21 42 46 61t48 19q19 0 32.5 -7t29.5 -18l17 -13q10 -6 20 -10.5t21 -4.5q28 0 49 41l36 -33q-13 -32 -35.5 -51t-52.5 -19q-18 0 -32.5 6t-29.5 17l-15 11q-11 8 -19.5 12.5t-19.5 4.5q-17 0 -30.5 -14t-24.5 -36z" />
    <glyph glyph-name="macron" unicode="&#xaf;" horiz-adv-x="321" 
d="M284 651v-57h-248v57h248z" />
    <glyph glyph-name="breve" unicode="&#x2d8;" horiz-adv-x="321" 
d="M92 696q7 -24 23.5 -40.5t44.5 -16.5q26 0 44.5 16.5t23.5 40.5l63 -9q-11 -48 -44.5 -76.5t-86.5 -28.5t-86 28.5t-45 76.5z" />
    <glyph glyph-name="dotaccent" unicode="&#x2d9;" horiz-adv-x="321" 
d="M162 706q22 0 37 -16.5t15 -39.5q0 -24 -15.5 -40t-38.5 -16t-38 16t-15 40q0 23 16 39.5t39 16.5z" />
    <glyph glyph-name="ring" unicode="&#x2da;" horiz-adv-x="321" 
d="M161 741q38 0 62 -24.5t24 -61.5q0 -38 -24 -62.5t-62 -24.5q-37 0 -61.5 24.5t-24.5 62.5q0 37 24.5 61.5t61.5 24.5zM161 696q-19 0 -29.5 -11.5t-10.5 -29.5q0 -19 10.5 -30.5t29.5 -11.5t29.5 11.5t10.5 30.5q0 18 -10.5 29.5t-29.5 11.5z" />
    <glyph glyph-name="cedilla" unicode="&#xb8;" horiz-adv-x="321" 
d="M181 13l-16 -71q92 -6 92 -83q0 -45 -30 -68.5t-80 -23.5q-23 0 -45.5 4t-37.5 9l12 48q17 -5 34 -7.5t31 -2.5q29 0 41 9.5t12 28.5q0 21 -15 31.5t-55 10.5h-10t-11 -1l-5 6l30 115z" />
    <glyph glyph-name="hungarumlaut" unicode="&#x2dd;" horiz-adv-x="321" 
d="M174 695l-137 -156l-43 32l122 160zM327 695l-137 -156l-42 32l121 160z" />
    <glyph glyph-name="ogonek" unicode="&#x2db;" horiz-adv-x="321" 
d="M258 2q-55 -30 -85 -65.5t-30 -74.5q0 -20 13 -29.5t35 -9.5q23 0 45 10l11 -50q-13 -7 -30.5 -11.5t-37.5 -4.5q-53 0 -79.5 24.5t-26.5 60.5q0 46 35 86t93 64h57z" />
    <glyph glyph-name="caron" unicode="&#x2c7;" horiz-adv-x="321" 
d="M65 724l93 -92h6l95 92l43 -36l-120 -121h-42l-120 121z" />
    <glyph glyph-name="commaaccent" unicode="&#x326;" horiz-adv-x="321" 
d="M116 -113q0 47 43 47q20 0 33 -12t13 -38q0 -51 -40 -146l-39 14q8 21 14 39t9 35q-12 4 -22.5 15t-10.5 34v12z" />
    <glyph glyph-name="grave.cap" horiz-adv-x="321" 
d="M275 765l-29 -46l-198 111l38 59z" />
    <glyph glyph-name="acute.cap" horiz-adv-x="321" 
d="M236 889l39 -59l-199 -111l-28 46z" />
    <glyph glyph-name="dieresis.cap" horiz-adv-x="321" 
d="M190 816q0 26 14.5 38t33.5 12q20 0 34 -12t14 -38v-5q0 -26 -14 -38t-34 -12q-19 0 -33.5 12t-14.5 38v5zM34 816q0 26 14 38t33 12q21 0 34.5 -12t13.5 -38v-5q0 -26 -13.5 -38t-34.5 -12q-19 0 -33 12t-14 38v5z" />
    <glyph glyph-name="circumflex.cap" horiz-adv-x="321" 
d="M182 900l120 -120l-45 -36l-93 91h-6l-95 -91l-43 36l120 120h42z" />
    <glyph glyph-name="tilde.cap" horiz-adv-x="321" 
d="M11 803q21 42 46 61.5t48 19.5q19 0 32.5 -7t29.5 -19l17 -12q10 -7 20 -11.5t21 -4.5q15 0 27 11t22 31l36 -34q-13 -32 -35.5 -51t-52.5 -19q-18 0 -32.5 6.5t-29.5 17.5l-15 10q-11 8 -19.5 13t-19.5 5q-17 0 -30.5 -14.5t-24.5 -36.5z" />
    <glyph glyph-name="macron.cap" horiz-adv-x="321" 
d="M284 838v-57h-248v57h248z" />
    <glyph glyph-name="breve.cap" horiz-adv-x="321" 
d="M92 871q7 -24 23.5 -40.5t44.5 -16.5q26 0 44.5 16.5t23.5 40.5l63 -10q-11 -48 -44.5 -76t-86.5 -28t-86 28t-45 76z" />
    <glyph glyph-name="dotaccent.cap" horiz-adv-x="321" 
d="M162 881q22 0 37 -16.5t15 -40.5t-15.5 -40t-38.5 -16t-38 16t-15 40t16 40.5t39 16.5z" />
    <glyph glyph-name="ring.cap" horiz-adv-x="321" 
d="M161 916q38 0 62 -24.5t24 -62.5q0 -37 -24 -61.5t-62 -24.5q-37 0 -61.5 24.5t-24.5 61.5q0 38 24.5 62.5t61.5 24.5zM161 871q-19 0 -29.5 -11.5t-10.5 -30.5q0 -18 10.5 -29.5t29.5 -11.5t29.5 11.5t10.5 29.5q0 19 -10.5 30.5t-29.5 11.5z" />
    <glyph glyph-name="hungarumlaut.cap" horiz-adv-x="321" 
d="M174 879l-137 -155l-43 32l122 160zM327 879l-137 -155l-42 32l121 160z" />
    <glyph glyph-name="caron.cap" horiz-adv-x="321" 
d="M65 898l93 -91h6l95 91l43 -36l-120 -120h-42l-120 120z" />
    <glyph glyph-name="zero" unicode="0" 
d="M250 627q-36 0 -61 -16.5t-40 -51.5t-22 -90t-7 -132q0 -153 29 -221t101 -68t101 68t29 221q0 77 -7 132t-22 90t-40 51.5t-61 16.5zM50 351q0 90 11.5 154t35.5 105t62 60.5t91 19.5q106 0 153.5 -80t47.5 -259v-29q0 -179 -47.5 -258.5t-153.5 -79.5q-53 0 -91 19
t-62 60t-35.5 105t-11.5 154v29z" />
    <glyph glyph-name="one" unicode="1" 
d="M250 674h62v-618h141v-56h-362v56h155v550l-160 -100l-22 53z" />
    <glyph glyph-name="two" unicode="2" 
d="M74 658q32 13 77.5 22.5t95.5 9.5q85 0 137 -44t52 -130q0 -42 -13 -83t-41.5 -86.5t-73.5 -99t-110 -119.5l-70 -72h300v-56h-365l-7 62l84 87q40 42 80.5 87.5t72.5 91t52.5 90.5t20.5 86q0 60 -31 93q-34 33 -101 33q-39 0 -78 -8.5t-74 -23.5z" />
    <glyph glyph-name="three" unicode="3" 
d="M77 661q34 13 72 21t80 8q85 0 137.5 -41.5t52.5 -122.5q0 -60 -28 -102.5t-87 -64.5v-2q59 -12 96.5 -54.5t37.5 -117.5q0 -98 -57.5 -149.5t-168.5 -51.5q-36 0 -79 9t-76 23l11 59q35 -16 74 -23.5t68 -7.5q81 0 119 35t38 107q0 68 -44 104q-47 39 -142 39h-9v52h9
q75 0 121 36t46 101q0 59 -32 85.5t-94 26.5q-33 0 -68 -7t-71 -22z" />
    <glyph glyph-name="four" unicode="4" 
d="M382 240h95v-57h-95v-183h-66v183h-299v56q64 102 143 214.5t161 220.5h61v-434zM316 240v338q-23 -29 -52 -69t-60 -85.5t-62 -93t-58 -90.5h232z" />
    <glyph glyph-name="five" unicode="5" 
d="M404 674v-55h-249l-8 -234q46 17 103 17q88 0 140 -49.5t52 -148.5q0 -54 -16.5 -95.5t-46 -69t-71 -41.5t-91.5 -14q-44 0 -83.5 7t-77.5 18l9 61q33 -13 71.5 -19.5t79.5 -6.5q42 0 74.5 12.5t51.5 38.5q30 40 30 106q0 72 -32.5 107.5t-105.5 35.5q-29 0 -60 -6.5
t-59 -17.5l-32 15l10 339h311z" />
    <glyph glyph-name="six" unicode="6" 
d="M382 630q-8 2 -21 3t-23 1q-48 0 -83.5 -16t-60.5 -42q-37 -40 -54 -94.5t-25 -108.5q29 23 69.5 34.5t82.5 11.5q88 0 139.5 -53t51.5 -150q0 -48 -14 -90.5t-40 -74t-63.5 -49.5t-85.5 -18q-66 0 -107.5 26.5t-65.5 69t-33 96.5t-9 109q0 70 14.5 142.5t48 130.5
t89.5 95t140 37q15 0 30.5 -1.5t26.5 -4.5zM113 318q-2 -12 -2.5 -30.5t0 -40t2.5 -43.5t7 -41q14 -57 46.5 -88.5t87.5 -31.5q64 0 98.5 45.5t34.5 120.5q0 72 -33 112.5t-100 40.5q-35 0 -72.5 -12t-68.5 -32z" />
    <glyph glyph-name="seven" unicode="7" 
d="M439 674v-60l-277 -614h-75l283 616h-325v58h394z" />
    <glyph glyph-name="eight" unicode="8" 
d="M189 362q-22 12 -44 27.5t-39.5 35t-28.5 44.5t-11 57q0 38 15.5 68.5t41.5 51.5t61 32.5t74 11.5q40 0 73.5 -10.5t58 -30.5t38 -49.5t13.5 -67.5q0 -49 -34.5 -95t-98.5 -78q29 -15 57 -32.5t49.5 -39.5t34.5 -49.5t13 -63.5q0 -46 -17 -81.5t-46.5 -59.5t-68 -36.5
t-80.5 -12.5t-80.5 11.5t-67.5 34.5t-46 57.5t-17 81.5q0 60 38.5 112t111.5 81zM261 384q21 11 40.5 25t35 32t25 40t9.5 48q0 53 -32.5 78.5t-82.5 25.5q-23 0 -44.5 -6.5t-38 -19.5t-26.5 -32.5t-10 -45.5t10 -46.5t27.5 -38t40 -32t46.5 -28.5zM240 334
q-24 -10 -47.5 -24.5t-41.5 -34t-29.5 -44t-11.5 -54.5q0 -33 11.5 -58t31 -41.5t45 -25t54.5 -8.5q28 0 53.5 8.5t44.5 25t30 40.5t11 55q0 24 -8 44.5t-26 39t-46.5 37.5t-70.5 40z" />
    <glyph glyph-name="nine" unicode="9" 
d="M117 45q9 -2 21.5 -3.5t23.5 -1.5q48 0 83.5 16t60.5 42q37 40 54 94.5t25 108.5q-28 -21 -69 -33.5t-83 -12.5q-44 0 -79.5 14.5t-60.5 41t-38.5 64t-13.5 83.5q0 49 14 91.5t40.5 74t65 49t88.5 17.5q63 0 104 -25t65 -67t33 -96.5t9 -112.5q0 -71 -14.5 -143t-48 -130
t-89.5 -95t-140 -37q-15 0 -30.5 1.5t-26.5 4.5zM387 356q1 12 2 30.5t0.5 40t-3 43.5t-7.5 41q-13 57 -45.5 88.5t-88.5 31.5q-63 0 -98 -45t-35 -120q0 -72 33 -113t100 -41q36 0 73 12t69 32z" />
    <glyph glyph-name="dollar" unicode="$" 
d="M287 791v-101q39 -1 72 -8t65 -19l-12 -61q-32 11 -64 17.5t-61 7.5v-261q38 -12 70.5 -25t56 -34t37 -52t13.5 -79q0 -84 -47.5 -129.5t-129.5 -57.5v-102h-50v97h-14q-42 0 -87.5 10t-81.5 24l10 63q19 -8 40 -14.5t41.5 -11t39.5 -7t33 -2.5h19v263q-86 26 -133 70.5
t-47 124.5q0 41 13.5 73t37.5 55t57 36.5t72 18.5v104h50zM287 51q48 10 77 37.5t29 83.5q0 28 -8 48t-22 34.5t-33.5 23.5t-42.5 17v-244zM237 623q-15 -3 -27.5 -7.5t-23.5 -9.5q-58 -29 -58 -98q0 -27 8.5 -47t23 -35t34.5 -25.5t43 -18.5v241z" />
    <glyph glyph-name="cent" unicode="&#xa2;" 
d="M301 690v-96q39 -2 73.5 -13t57.5 -25l-11 -57q-17 12 -50 23.5t-70 13.5v-403q32 2 63.5 10t54.5 20l10 -52q-28 -14 -60.5 -22.5t-67.5 -10.5v-94h-51v96q-35 3 -64.5 15t-50.5 34q-33 33 -49 84t-16 118v3q0 111 45 177.5t135 79.5v99h51zM250 532q-116 -25 -116 -196
q0 -88 27 -138t89 -61v395z" />
    <glyph glyph-name="Euro" unicode="&#x20ac;" 
d="M76 416q11 145 77 209.5t179 64.5q46 0 87.5 -12t74.5 -32l-17 -65q-32 20 -67.5 31t-77.5 11q-41 0 -73 -11t-55 -35.5t-37 -64t-19 -96.5h189l-10 -59h-182v-14v-33t2 -36h180l-10 -61h-165q7 -47 21 -78.5t36 -50.5t51.5 -27t68.5 -8q38 0 77.5 10.5t69.5 28.5l16 -61
q-32 -20 -75.5 -31.5t-87.5 -11.5q-115 0 -174.5 54.5t-74.5 174.5h-72l10 61h57q-1 18 -1 37v30v16h-66l10 59h58z" />
    <glyph glyph-name="florin" unicode="&#x192;" 
d="M220 485v40q0 38 8 72.5t30 57.5q24 26 55.5 35t68.5 9q9 0 21.5 -1t23.5 -3l-6 -49q-5 1 -15.5 2t-16.5 1q-29 0 -47.5 -5.5t-32.5 -17.5q-17 -15 -23 -39.5t-6 -66.5v-35h116l-6 -52h-110v-464q0 -38 -7.5 -72.5t-29.5 -57.5q-24 -26 -55.5 -35.5t-69.5 -9.5
q-8 0 -21 1t-23 3l6 50q4 -1 15 -2t17 -1q54 0 80 23q16 14 22 39t6 67v459h-75v52h75z" />
    <glyph glyph-name="sterling" unicode="&#xa3;" 
d="M136 393v80q0 114 53.5 165.5t151.5 51.5q23 0 49 -3.5t58 -12.5l-14 -63q-14 5 -40 9.5t-48 4.5q-41 0 -69 -10t-44.5 -30t-23.5 -51.5t-7 -73.5v-67h162l-12 -55h-150v-100q0 -63 -21 -112.5t-50 -68.5v-2h299l-13 -55h-356l-3 63q35 23 56.5 65t21.5 90v120h-82v55h82
z" />
    <glyph glyph-name="yen" unicode="&#xa5;" 
d="M93 674q33 -101 71.5 -199.5t83.5 -186.5h3q45 88 84.5 186.5t71.5 199.5h73q-34 -102 -77 -202.5t-89 -189.5h99v-59h-131v-65h131v-60h-131v-98h-64v98h-128v60h128v65h-128v59h96q-46 89 -89.5 189t-76.5 203h73z" />
    <glyph glyph-name="numbersign" unicode="#" 
d="M236 674l-34 -193h147l34 193h54l-34 -193h75v-53h-84l-32 -183h116v-53h-126l-33 -192h-53l33 192h-148l-33 -192h-53l33 192h-75v53h85l32 183h-117v53h125l34 193h54zM161 245h148l32 183h-148z" />
    <glyph glyph-name="percent" unicode="%" horiz-adv-x="760" 
d="M586 326q-33 0 -49 -34t-16 -112t16 -111t49 -33q37 0 51 33t14 111t-14 112t-51 34zM464 187q0 93 29 141.5t93 48.5q65 0 93.5 -48.5t28.5 -141.5v-13q0 -94 -28.5 -142t-93.5 -48q-64 0 -93 48t-29 142v13zM173 638q-33 0 -49 -33.5t-16 -111.5t16 -111.5t49 -33.5
q37 0 51 33.5t14 111.5t-14 111.5t-51 33.5zM51 500q0 93 29 141.5t93 48.5q65 0 93.5 -48.5t28.5 -141.5v-14q0 -93 -28.5 -141t-93.5 -48q-64 0 -93 48t-29 141v14zM581 677l-334 -682l-57 24l333 683z" />
    <glyph glyph-name="perthousand" unicode="&#x2030;" horiz-adv-x="1057" 
d="M586 326q-33 0 -49 -34t-16 -112t16 -111t49 -33q37 0 51 33t14 111t-14 112t-51 34zM464 187q0 93 29 141.5t93 48.5q65 0 93.5 -48.5t28.5 -141.5v-13q0 -94 -28.5 -142t-93.5 -48q-64 0 -93 48t-29 142v13zM173 638q-33 0 -49 -33.5t-16 -111.5t16 -111.5t49 -33.5
q37 0 51 33.5t14 111.5t-14 111.5t-51 33.5zM51 500q0 93 29 141.5t93 48.5q65 0 93.5 -48.5t28.5 -141.5v-14q0 -93 -28.5 -141t-93.5 -48q-64 0 -93 48t-29 141v14zM581 677l-334 -682l-57 24l333 683zM883 326q-33 0 -49 -34t-16 -112t16 -111t49 -33q37 0 51 33t14 111
t-14 112t-51 34zM761 187q0 93 29 141.5t93 48.5q65 0 93.5 -48.5t28.5 -141.5v-13q0 -94 -28.5 -142t-93.5 -48q-64 0 -93 48t-29 142v13z" />
    <glyph glyph-name="plus" unicode="+" 
d="M281 467v-160h159v-59h-159v-159h-62v159h-159v59h159v160h62z" />
    <glyph glyph-name="minus" unicode="&#x2212;" 
d="M440 307v-59h-380v59h380z" />
    <glyph glyph-name="multiply" unicode="&#xd7;" 
d="M109 469l148 -148l149 148l41 -41l-147 -150l146 -145l-41 -44l-148 148l-148 -148l-42 42l148 148l-150 149z" />
    <glyph glyph-name="less" unicode="&#x3c;" 
d="M379 486l31 -50l-242 -156v-5l242 -157l-31 -49l-288 184v49z" />
    <glyph glyph-name="divide" unicode="&#xf7;" 
d="M440 307v-59h-380v59h380zM206 125q0 27 12 40t33 13q46 0 46 -53v-12q0 -54 -46 -54q-21 0 -33 13.5t-12 40.5v12zM206 443q0 27 12 40.5t33 13.5q46 0 46 -54v-11q0 -55 -46 -55q-21 0 -33 13.5t-12 41.5v11z" />
    <glyph glyph-name="equal" unicode="=" 
d="M440 408v-59h-380v59h380zM440 208v-60h-380v60h380z" />
    <glyph glyph-name="logicalnot" unicode="&#xac;" 
d="M440 307v-227h-61v168h-319v59h380z" />
    <glyph glyph-name="greater" unicode="&#x3e;" 
d="M410 302v-49l-288 -184l-31 49l243 157v5l-243 156l31 50z" />
    <glyph glyph-name="notequal" unicode="&#x2260;" 
d="M274 407l52 129h63l-53 -129h104v-59h-129l-57 -139h186v-60h-210l-52 -129h-62l52 129h-108v60h132l57 139h-189v59h214z" />
    <glyph glyph-name="approxequal" unicode="&#x2248;" 
d="M39 343q49 87 130 87q24 0 45 -7.5t39 -18.5l29 -18q15 -9 28.5 -14t27.5 -5q45 0 73 58l50 -24q-47 -92 -122 -92q-21 0 -40 7.5t-37 18.5l-31 17q-15 9 -30 14.5t-29 5.5q-25 0 -46.5 -14t-41.5 -47zM39 165q50 86 130 86q24 0 45 -7.5t39 -18.5l29 -17
q15 -9 28.5 -14.5t27.5 -5.5q44 0 73 58l50 -24q-47 -91 -122 -91q-21 0 -40 7.5t-37 17.5l-31 18q-15 8 -30 13.5t-29 5.5q-25 0 -46.5 -13.5t-41.5 -46.5z" />
    <glyph glyph-name="plusminus" unicode="&#xb1;" 
d="M219 363v158h62v-158h158v-59h-158v-159h-62v159h-159v59h159zM439 56v-56h-379v56h379z" />
    <glyph glyph-name="lessequal" unicode="&#x2264;" 
d="M437 56v-56h-381v56h381zM387 525l32 -48l-250 -149v-4l250 -149l-32 -48l-297 176v46z" />
    <glyph glyph-name="greaterequal" unicode="&#x2265;" 
d="M444 56v-56h-380v56h380zM410 349v-46l-296 -176l-32 48l250 149v4l-250 149l32 48z" />
    <glyph glyph-name="asciicircum" unicode="^" 
d="M278 633l186 -311l-54 -27l-160 274l-163 -274l-50 27l186 311h55z" />
    <glyph glyph-name="asciitilde" unicode="~" 
d="M19 243q24 42 53.5 67.5t72.5 25.5q25 0 47.5 -10t47.5 -24l37 -20q20 -11 39 -18.5t39 -7.5q26 0 44 14t38 48l43 -27q-26 -48 -56 -69.5t-68 -21.5q-26 0 -48.5 7.5t-49.5 22.5l-40 21q-17 10 -34.5 19t-36.5 9q-14 0 -26.5 -6t-23 -16t-19.5 -22.5t-18 -24.5z" />
    <glyph glyph-name="lozenge" unicode="&#x25ca;" 
d="M84 338l166 -251l167 251l-167 249zM256 682l232 -344l-232 -346h-12l-231 346l231 344h12z" />
    <glyph glyph-name="degree" unicode="&#xb0;" horiz-adv-x="270" 
d="M135 712q29 0 50.5 -9.5t35 -25.5t20 -37t6.5 -43q0 -58 -30 -86.5t-82 -28.5t-82.5 28.5t-30.5 86.5q0 22 6.5 43t20.5 37t35 25.5t51 9.5zM135 663q-29 0 -42.5 -17t-13.5 -49q0 -66 56 -66t56 66q0 32 -13.5 49t-42.5 17z" />
    <glyph glyph-name="quotesingle" unicode="'" horiz-adv-x="159" 
d="M120 704l-16 -214h-57v214h73z" />
    <glyph glyph-name="quotedbl" unicode="&#x22;" horiz-adv-x="299" 
d="M120 704l-16 -214h-57v214h73zM260 704l-16 -214h-58v214h74z" />
    <glyph glyph-name="radical" unicode="&#x221a;" horiz-adv-x="530" 
d="M137 334l100 -258l219 614l53 -21l-238 -669h-65l-112 283h-75l-2 51h120z" />
    <glyph glyph-name="currency" unicode="&#xa4;" 
d="M140 439q23 17 51.5 25.5t59.5 8.5q63 0 110 -33l74 72l47 -47l-74 -73q33 -45 33 -109q0 -65 -33 -110l74 -72l-47 -48l-74 72q-47 -32 -110 -32q-31 0 -59.5 8t-51.5 25l-74 -73l-47 48l73 73q-31 48 -31 109t32 108l-74 74l47 47zM127 283q0 -28 10 -50.5t26.5 -39
t39 -25.5t48.5 -9q25 0 48 9t39.5 25.5t26.5 39t10 50.5t-10 50.5t-26.5 39t-39.5 25.5t-48 9q-26 0 -48.5 -9t-39 -25.5t-26.5 -39t-10 -50.5z" />
    <glyph glyph-name="infinity" unicode="&#x221e;" horiz-adv-x="621" 
d="M312 318q26 45 60.5 72t86.5 27q63 0 101.5 -34.5t38.5 -103.5q0 -64 -37.5 -99.5t-104.5 -35.5q-53 0 -87.5 24t-60.5 61q-23 -39 -59 -62t-90 -23q-63 0 -100.5 35t-37.5 100q0 69 38.5 103.5t96.5 34.5q52 0 88.5 -25.5t66.5 -73.5zM342 273q23 -36 51.5 -56.5
t62.5 -20.5q36 0 58 20.5t22 62.5q0 44 -21 65t-56 21q-41 0 -67.5 -25t-49.5 -67zM279 274q-24 40 -53.5 65.5t-63.5 25.5q-35 0 -56 -21t-21 -65q0 -41 21.5 -62t59.5 -21t64.5 21t48.5 57z" />
    <glyph glyph-name="mu" unicode="&#xb5;" horiz-adv-x="514" 
d="M127 485v-297q0 -44 7 -72t30 -47q18 -16 42.5 -23.5t51.5 -7.5q28 0 52.5 7.5t42.5 23.5q23 19 30 47t7 72v297h60v-302q0 -51 -10.5 -85.5t-35.5 -60.5q-26 -27 -65 -40t-81 -13t-78.5 14t-63.5 42l11 -230h-60v675h60z" />
    <glyph glyph-name="mu" unicode="&#x3bc;" horiz-adv-x="514" 
d="M127 485v-297q0 -44 7 -72t30 -47q18 -16 42.5 -23.5t51.5 -7.5q28 0 52.5 7.5t42.5 23.5q23 19 30 47t7 72v297h60v-302q0 -51 -10.5 -85.5t-35.5 -60.5q-26 -27 -65 -40t-81 -13t-78.5 14t-63.5 42l11 -230h-60v675h60z" />
    <glyph glyph-name="partialdiff" unicode="&#x2202;" horiz-adv-x="495" 
d="M86 657q31 14 69 23.5t75 9.5q51 0 90.5 -17.5t66.5 -61t41 -119t14 -190.5q0 -92 -15 -153t-42 -98t-64 -52t-82 -15q-51 0 -88.5 18t-61.5 49t-36 73.5t-12 91.5q0 43 12.5 80t37 64.5t60 43t82.5 15.5q45 0 80 -12t62 -32q-3 70 -14 119t-29.5 79.5t-45.5 44.5t-63 14
q-29 0 -57 -7.5t-60 -22.5zM375 318q-29 20 -61 32t-68 12q-68 0 -102.5 -40.5t-34.5 -112.5q0 -76 35 -121t99 -45q39 0 64.5 19t40.5 51.5t21.5 76.5t6.5 94v17t-1 17z" />
    <glyph glyph-name="summation" unicode="&#x2211;" horiz-adv-x="465" 
d="M432 674l-8 -59h-304l194 -278l-191 -278h310v-59h-401v42l199 296l-199 285v51h400z" />
    <glyph glyph-name="product" unicode="&#x220f;" horiz-adv-x="653" 
d="M619 674l-7 -50h-104v-624h-60v624h-239v-624h-61v624h-113v50h584z" />
    <glyph glyph-name="pi" unicode="&#x3c0;" horiz-adv-x="635" 
d="M29 442q26 20 54 31.5t67 11.5h455l-5 -52h-126v-312q0 -30 5 -47.5t15 -26.5q15 -16 54 -16q4 0 10.5 0.5t10.5 1.5l4 -43q-7 -2 -20 -4t-24 -2q-54 0 -84 30q-15 16 -23 41.5t-8 63.5v314h-169v-433h-60v433h-25q-34 0 -58.5 -9.5t-48.5 -27.5z" />
    <glyph glyph-name="integral" unicode="&#x222b;" horiz-adv-x="358" 
d="M321 638q-35 -5 -56.5 -16t-33.5 -30.5t-16 -47.5t-4 -66v-452q0 -51 -11 -88t-35 -63q-22 -23 -54.5 -36t-69.5 -16l-4 54q35 4 56.5 15.5t33.5 31t16.5 47.5t4.5 66v452q0 51 10.5 88t34.5 63q22 23 54.5 36t69.5 16z" />
    <glyph glyph-name="Omega" unicode="&#x3a9;" horiz-adv-x="695" 
d="M230 50q-36 26 -67 60.5t-54.5 76t-36.5 89t-13 98.5q0 76 23 135.5t62.5 99.5t92 61t110.5 21t110.5 -21t92 -61t62.5 -99.5t23 -135.5q0 -51 -13 -98.5t-36 -89t-54 -76t-67 -60.5h161v-50h-229v46q76 59 123.5 142t47.5 185q0 68 -18 117.5t-49 82t-71 48t-83 15.5
t-83 -15.5t-70.5 -48t-48.5 -82t-18 -117.5q0 -102 47.5 -185t123.5 -142v-46h-229v50h161z" />
    <glyph glyph-name="Omega" unicode="&#x2126;" horiz-adv-x="695" 
d="M230 50q-36 26 -67 60.5t-54.5 76t-36.5 89t-13 98.5q0 76 23 135.5t62.5 99.5t92 61t110.5 21t110.5 -21t92 -61t62.5 -99.5t23 -135.5q0 -51 -13 -98.5t-36 -89t-54 -76t-67 -60.5h161v-50h-229v46q76 59 123.5 142t47.5 185q0 68 -18 117.5t-49 82t-71 48t-83 15.5
t-83 -15.5t-70.5 -48t-48.5 -82t-18 -117.5q0 -102 47.5 -185t123.5 -142v-46h-229v50h161z" />
    <glyph glyph-name="Delta" unicode="&#x394;" horiz-adv-x="588" 
d="M321 674l208 -621v-53h-470v53l210 621h52zM126 56h336l-167 518z" />
    <glyph glyph-name="Delta" unicode="&#x2206;" horiz-adv-x="588" 
d="M321 674l208 -621v-53h-470v53l210 621h52zM126 56h336l-167 518z" />
    <glyph glyph-name="litre" unicode="&#x2113;" horiz-adv-x="464" 
d="M34 238q19 2 40.5 4t46.5 6v254q0 101 35 143.5t104 42.5q68 0 105.5 -49t37.5 -164v-9q0 -60 -15 -104t-43.5 -75t-69.5 -51t-92 -31v-30q0 -38 4.5 -63.5t15 -41t27.5 -22t41 -6.5q60 0 125 40l14 -51q-34 -23 -70.5 -35t-74.5 -12q-77 0 -110.5 39.5t-33.5 125.5v45
q-19 -2 -39.5 -4.5t-38.5 -3.5zM183 261q38 9 67.5 24.5t49.5 39.5t30.5 58.5t10.5 81.5v7q0 88 -21 123t-60 35q-43 0 -60 -29.5t-17 -103.5v-236z" />
    <glyph glyph-name="estimated" unicode="&#x212e;" horiz-adv-x="830" 
d="M167 131q0 -15 10 -22q44 -47 106 -75.5t134 -28.5q76 0 141 31.5t109 84.5h59q-55 -61 -135.5 -99t-174.5 -38q-81 0 -152.5 27.5t-125.5 75.5t-85 112.5t-31 137.5t31 137.5t85 112.5t125.5 75.5t152.5 27.5t152 -27.5t124 -75.5t84 -112.5t31 -137.5v-9h-636
q-4 0 -4 -5v-192zM167 353q0 -5 4 -5h487q5 0 5 5v190q0 11 -2.5 16.5t-8.5 10.5q-43 45 -104.5 72t-130.5 27q-66 0 -128.5 -26t-107.5 -74q-8 -7 -11 -13.5t-3 -20.5v-182z" />
    <glyph glyph-name="numero" unicode="&#x2116;" horiz-adv-x="1023" 
d="M943 56v-56h-268v56h268zM149 674l374 -551h1v551h62v-674h-53l-383 558h-1v-558h-62v674h62zM655 290q0 80 36 124.5t111 44.5t111.5 -44.5t36.5 -124.5v-6q0 -80 -36.5 -124.5t-111.5 -44.5t-111 44.5t-36 124.5v6zM802 407q-42 0 -66 -26t-24 -94t24 -94t66 -26
q43 0 66.5 26t23.5 94t-23.5 94t-66.5 26z" />
    <glyph glyph-name="ordfeminine" unicode="&#xaa;" horiz-adv-x="349" 
d="M58 619q23 8 52.5 14.5t55.5 6.5q62 0 92.5 -25t30.5 -90v-153q0 -15 6.5 -20t20.5 -5v-42q-12 -3 -28 -3q-40 0 -48 32q-42 -37 -101 -37q-51 0 -78 26.5t-27 72.5q0 35 16 58t41 36.5t56.5 18.5t63.5 5h23v12q0 36 -16.5 50t-57.5 14q-23 0 -48.5 -6t-45.5 -16z
M204 467q-17 0 -36.5 -2t-36.5 -9.5t-28.5 -21.5t-11.5 -37t14 -38t42 -15q23 0 46.5 9t40.5 26v88h-30z" />
    <glyph glyph-name="ordmasculine" unicode="&#xba;" horiz-adv-x="361" 
d="M33 471q0 80 36.5 124.5t111.5 44.5q74 0 110.5 -44.5t36.5 -124.5v-5q0 -80 -36.5 -124.5t-110.5 -44.5q-75 0 -111.5 44.5t-36.5 124.5v5zM181 589q-43 0 -67 -26t-24 -94t24 -94.5t67 -26.5q42 0 66 26.5t24 94.5t-24 94t-66 26z" />
    <glyph glyph-name="onesuperior" unicode="&#xb9;" horiz-adv-x="312" 
d="M143 778h48v-327h83v-48h-227v48h89v258l-88 -48l-18 50z" />
    <glyph glyph-name="twosuperior" unicode="&#xb2;" horiz-adv-x="312" 
d="M38 763q24 11 52 17.5t58 6.5q59 0 88.5 -28.5t29.5 -76.5q0 -26 -8.5 -52t-27.5 -54t-49 -58.5t-73 -66.5h159v-48h-226l-4 46l46 42q34 31 58 55t39 45.5t22 41.5t7 42q0 32 -16.5 46t-50.5 14q-23 0 -45 -5.5t-46 -14.5z" />
    <glyph glyph-name="threesuperior" unicode="&#xb3;" horiz-adv-x="312" 
d="M48 768q21 8 46 13.5t51 5.5q60 0 87 -25.5t27 -70.5q0 -64 -49 -88q29 -8 46 -31t17 -56q0 -122 -135 -122q-52 0 -104 22l12 49q48 -20 88 -20q43 0 61 15q12 9 16 23.5t4 29.5q0 32 -18 46q-23 17 -73 17h-19v45h20q36 0 56.5 15.5t20.5 48.5q0 50 -62 50
q-23 0 -43 -4.5t-40 -10.5z" />
    <glyph glyph-name="fraction" unicode="&#x2044;" horiz-adv-x="135" 
d="M263 677l-334 -682l-57 24l333 683z" />
    <glyph glyph-name="onehalf" unicode="&#xbd;" horiz-adv-x="801" 
d="M164 681h48v-327h83v-48h-227v48h89v258l-88 -48l-18 50zM523 354q24 11 52 17t58 6q59 0 88.5 -28t29.5 -76q0 -26 -8.5 -52t-27.5 -54t-49 -58.5t-73 -66.5h159v-49h-226l-4 47l46 41q34 31 58 55.5t39 46t22 41.5t7 42q0 60 -67 60q-23 0 -45 -5.5t-46 -14.5zM605 677
l-334 -682l-57 24l333 683z" />
    <glyph glyph-name="onequarter" unicode="&#xbc;" horiz-adv-x="801" 
d="M164 681h48v-327h83v-48h-227v48h89v258l-88 -48l-18 50zM679 369v-232h57v-49h-57v-95h-56v95h-174v41q17 25 40 56.5t48.5 64t50.5 63.5t46 56h45zM623 137v147q-25 -29 -56.5 -70t-57.5 -77h114zM605 677l-334 -682l-57 24l333 683z" />
    <glyph glyph-name="threequarters" unicode="&#xbe;" horiz-adv-x="801" 
d="M679 369v-232h57v-49h-57v-95h-56v95h-174v41q17 25 40 56.5t48.5 64t50.5 63.5t46 56h45zM623 137v147q-25 -29 -56.5 -70t-57.5 -77h114zM605 677l-334 -682l-57 24l333 683zM75 671q21 8 46 13.5t51 5.5q60 0 87 -25.5t27 -70.5q0 -64 -49 -88q29 -8 46 -31t17 -56
q0 -122 -135 -122q-52 0 -104 22l12 49q48 -20 88 -20q43 0 61 15q12 9 16 23.5t4 29.5q0 32 -18 46q-23 17 -73 17h-19v45h20q36 0 56.5 15.5t20.5 48.5q0 50 -62 50q-23 0 -43 -4.5t-40 -10.5z" />
    <glyph glyph-name="Agrave" unicode="&#xc0;" horiz-adv-x="573" 
d="M378 765l-29 -46l-198 111l38 59zM322 674q60 -157 117 -325.5t109 -348.5h-70q-10 36 -22 75.5t-24 77.5q-74 -6 -148 -6t-141 6q-13 -38 -24.5 -77.5t-22.5 -75.5h-71q53 180 111.5 348.5t116.5 325.5h69zM286 588q-31 -89 -63 -184t-62 -189q31 -2 61 -3.5t61 -1.5
q33 0 65.5 1.5t64.5 3.5q-29 94 -61 188.5t-64 184.5h-2z" />
    <glyph glyph-name="Aacute" unicode="&#xc1;" horiz-adv-x="573" 
d="M400 889l39 -59l-199 -111l-28 46zM322 674q60 -157 117 -325.5t109 -348.5h-70q-10 36 -22 75.5t-24 77.5q-74 -6 -148 -6t-141 6q-13 -38 -24.5 -77.5t-22.5 -75.5h-71q53 180 111.5 348.5t116.5 325.5h69zM286 588q-31 -89 -63 -184t-62 -189q31 -2 61 -3.5t61 -1.5
q33 0 65.5 1.5t64.5 3.5q-29 94 -61 188.5t-64 184.5h-2z" />
    <glyph glyph-name="Acircumflex" unicode="&#xc2;" horiz-adv-x="573" 
d="M308 900l120 -120l-45 -36l-93 91h-6l-95 -91l-43 36l120 120h42zM322 674q60 -157 117 -325.5t109 -348.5h-70q-10 36 -22 75.5t-24 77.5q-74 -6 -148 -6t-141 6q-13 -38 -24.5 -77.5t-22.5 -75.5h-71q53 180 111.5 348.5t116.5 325.5h69zM286 588q-31 -89 -63 -184
t-62 -189q31 -2 61 -3.5t61 -1.5q33 0 65.5 1.5t64.5 3.5q-29 94 -61 188.5t-64 184.5h-2z" />
    <glyph glyph-name="Atilde" unicode="&#xc3;" horiz-adv-x="573" 
d="M137 803q21 42 46 61.5t48 19.5q19 0 32.5 -7t29.5 -19l17 -12q10 -7 20 -11.5t21 -4.5q15 0 27 11t22 31l36 -34q-13 -32 -35.5 -51t-52.5 -19q-18 0 -32.5 6.5t-29.5 17.5l-15 10q-11 8 -19.5 13t-19.5 5q-17 0 -30.5 -14.5t-24.5 -36.5zM322 674q60 -157 117 -325.5
t109 -348.5h-70q-10 36 -22 75.5t-24 77.5q-74 -6 -148 -6t-141 6q-13 -38 -24.5 -77.5t-22.5 -75.5h-71q53 180 111.5 348.5t116.5 325.5h69zM286 588q-31 -89 -63 -184t-62 -189q31 -2 61 -3.5t61 -1.5q33 0 65.5 1.5t64.5 3.5q-29 94 -61 188.5t-64 184.5h-2z" />
    <glyph glyph-name="Adieresis" unicode="&#xc4;" horiz-adv-x="573" 
d="M317 816q0 26 14.5 38t33.5 12q20 0 34 -12t14 -38v-5q0 -26 -14 -38t-34 -12q-19 0 -33.5 12t-14.5 38v5zM161 816q0 26 14 38t33 12q21 0 34.5 -12t13.5 -38v-5q0 -26 -13.5 -38t-34.5 -12q-19 0 -33 12t-14 38v5zM322 674q60 -157 117 -325.5t109 -348.5h-70
q-10 36 -22 75.5t-24 77.5q-74 -6 -148 -6t-141 6q-13 -38 -24.5 -77.5t-22.5 -75.5h-71q53 180 111.5 348.5t116.5 325.5h69zM286 588q-31 -89 -63 -184t-62 -189q31 -2 61 -3.5t61 -1.5q33 0 65.5 1.5t64.5 3.5q-29 94 -61 188.5t-64 184.5h-2z" />
    <glyph glyph-name="Amacron" unicode="&#x100;" horiz-adv-x="573" 
d="M410 838v-57h-248v57h248zM322 674q60 -157 117 -325.5t109 -348.5h-70q-10 36 -22 75.5t-24 77.5q-74 -6 -148 -6t-141 6q-13 -38 -24.5 -77.5t-22.5 -75.5h-71q53 180 111.5 348.5t116.5 325.5h69zM286 588q-31 -89 -63 -184t-62 -189q31 -2 61 -3.5t61 -1.5
q33 0 65.5 1.5t64.5 3.5q-29 94 -61 188.5t-64 184.5h-2z" />
    <glyph glyph-name="Abreve" unicode="&#x102;" horiz-adv-x="573" 
d="M218 871q7 -24 23.5 -40.5t44.5 -16.5q26 0 44.5 16.5t23.5 40.5l63 -10q-11 -48 -44.5 -76t-86.5 -28t-86 28t-45 76zM322 674q60 -157 117 -325.5t109 -348.5h-70q-10 36 -22 75.5t-24 77.5q-74 -6 -148 -6t-141 6q-13 -38 -24.5 -77.5t-22.5 -75.5h-71
q53 180 111.5 348.5t116.5 325.5h69zM286 588q-31 -89 -63 -184t-62 -189q31 -2 61 -3.5t61 -1.5q33 0 65.5 1.5t64.5 3.5q-29 94 -61 188.5t-64 184.5h-2z" />
    <glyph glyph-name="Aring" unicode="&#xc5;" horiz-adv-x="573" 
d="M287 916q38 0 62 -24.5t24 -62.5q0 -37 -24 -61.5t-62 -24.5q-37 0 -61.5 24.5t-24.5 61.5q0 38 24.5 62.5t61.5 24.5zM287 871q-19 0 -29.5 -11.5t-10.5 -30.5q0 -18 10.5 -29.5t29.5 -11.5t29.5 11.5t10.5 29.5q0 19 -10.5 30.5t-29.5 11.5zM322 674
q60 -157 117 -325.5t109 -348.5h-70q-10 36 -22 75.5t-24 77.5q-74 -6 -148 -6t-141 6q-13 -38 -24.5 -77.5t-22.5 -75.5h-71q53 180 111.5 348.5t116.5 325.5h69zM286 588q-31 -89 -63 -184t-62 -189q31 -2 61 -3.5t61 -1.5q33 0 65.5 1.5t64.5 3.5q-29 94 -61 188.5
t-64 184.5h-2z" />
    <glyph glyph-name="Aringacute" unicode="&#x1fa;" horiz-adv-x="573" 
d="M286 930q38 0 62 -24.5t24 -61.5q0 -38 -24 -62.5t-62 -24.5q-37 0 -61.5 24.5t-24.5 62.5q0 37 24.5 61.5t61.5 24.5zM286 885q-19 0 -29.5 -11.5t-10.5 -29.5q0 -19 10.5 -30.5t29.5 -11.5t29.5 11.5t10.5 30.5q0 18 -10.5 29.5t-29.5 11.5zM375 1135l39 -59l-199 -112
l-28 47zM322 674q60 -157 117 -325.5t109 -348.5h-70q-10 36 -22 75.5t-24 77.5q-74 -6 -148 -6t-141 6q-13 -38 -24.5 -77.5t-22.5 -75.5h-71q53 180 111.5 348.5t116.5 325.5h69zM286 588q-31 -89 -63 -184t-62 -189q31 -2 61 -3.5t61 -1.5q33 0 65.5 1.5t64.5 3.5
q-29 94 -61 188.5t-64 184.5h-2z" />
    <glyph glyph-name="Aogonek" unicode="&#x104;" horiz-adv-x="573" 
d="M476 5q-10 35 -21 72.5t-23 75.5q-74 -6 -148 -6t-141 6q-13 -38 -24.5 -77.5t-22.5 -75.5h-71q53 180 111.5 348.5t116.5 325.5h69q60 -157 117 -325.5t109 -348.5q-54 -25 -88.5 -60t-34.5 -73q0 -22 12.5 -33t35.5 -11t45 10l12 -50q-14 -7 -31.5 -11.5t-37.5 -4.5
q-54 0 -80 24t-26 63q0 23 10.5 45.5t28 42.5t39 36t43.5 27zM286 588q-31 -89 -63 -184t-62 -189q31 -2 61 -3.5t61 -1.5q33 0 65.5 1.5t64.5 3.5q-29 94 -61 188.5t-64 184.5h-2z" />
    <glyph glyph-name="AE" unicode="&#xc6;" horiz-adv-x="791" 
d="M381 609q-17 -33 -43 -86.5t-53 -110.5t-51.5 -110t-39.5 -87q27 -2 52 -3t50 -1q50 0 95 3v395h-10zM391 0v149q-21 -2 -49.5 -3t-57.5 -1t-58 1.5t-61 3.5q-10 -21 -18 -39.5t-16 -36.5t-15.5 -36t-15.5 -38h-76q20 48 46.5 106.5t56 121t61 126.5t61 123t56 110
t46.5 87h395l-7 -65h-282v-227h247l-7 -65h-240v-252h284l-7 -65h-343z" />
    <glyph glyph-name="AEacute" unicode="&#x1fc;" horiz-adv-x="791" 
d="M635 889l39 -59l-199 -111l-28 46zM381 609q-17 -33 -43 -86.5t-53 -110.5t-51.5 -110t-39.5 -87q27 -2 52 -3t50 -1q50 0 95 3v395h-10zM391 0v149q-21 -2 -49.5 -3t-57.5 -1t-58 1.5t-61 3.5q-10 -21 -18 -39.5t-16 -36.5t-15.5 -36t-15.5 -38h-76q20 48 46.5 106.5
t56 121t61 126.5t61 123t56 110t46.5 87h395l-7 -65h-282v-227h247l-7 -65h-240v-252h284l-7 -65h-343z" />
    <glyph glyph-name="Cacute" unicode="&#x106;" horiz-adv-x="550" 
d="M442 889l39 -59l-199 -111l-28 46zM52 341q0 170 72 259.5t215 89.5q51 0 97 -13.5t80 -32.5l-18 -66q-36 20 -75.5 32.5t-85.5 12.5q-107 0 -160.5 -72.5t-53.5 -211.5q0 -137 49.5 -213.5t159.5 -76.5q45 0 87.5 10t77.5 28l17 -59q-32 -18 -82 -31t-102 -13
q-78 0 -131 27t-86 74.5t-47 111.5t-14 139v5z" />
    <glyph glyph-name="Ccedilla" unicode="&#xc7;" horiz-adv-x="550" 
d="M52 341q0 170 72 259.5t215 89.5q51 0 97 -13.5t80 -32.5l-18 -66q-36 20 -75.5 32.5t-85.5 12.5q-107 0 -160.5 -72.5t-53.5 -211.5q0 -137 49.5 -213.5t159.5 -76.5q45 0 87.5 10t77.5 28l17 -59q-32 -18 -81 -30.5t-100 -13.5l-9 -42q92 -6 92 -83q0 -45 -30 -68.5
t-80 -23.5q-23 0 -45.5 4t-37.5 9l12 48q17 -5 34 -7.5t31 -2.5q29 0 41 9.5t12 28.5q0 21 -15 31.5t-55 10.5h-10t-11 -1l-5 6l22 85q-63 9 -106.5 38.5t-70.5 75.5t-38.5 106t-11.5 128v5z" />
    <glyph glyph-name="Ccircumflex" unicode="&#x108;" horiz-adv-x="550" 
d="M353 900l120 -120l-45 -36l-93 91h-6l-95 -91l-43 36l120 120h42zM52 341q0 170 72 259.5t215 89.5q51 0 97 -13.5t80 -32.5l-18 -66q-36 20 -75.5 32.5t-85.5 12.5q-107 0 -160.5 -72.5t-53.5 -211.5q0 -137 49.5 -213.5t159.5 -76.5q45 0 87.5 10t77.5 28l17 -59
q-32 -18 -82 -31t-102 -13q-78 0 -131 27t-86 74.5t-47 111.5t-14 139v5z" />
    <glyph glyph-name="Ccaron" unicode="&#x10c;" horiz-adv-x="550" 
d="M238 898l93 -91h6l95 91l43 -36l-120 -120h-42l-120 120zM52 341q0 170 72 259.5t215 89.5q51 0 97 -13.5t80 -32.5l-18 -66q-36 20 -75.5 32.5t-85.5 12.5q-107 0 -160.5 -72.5t-53.5 -211.5q0 -137 49.5 -213.5t159.5 -76.5q45 0 87.5 10t77.5 28l17 -59
q-32 -18 -82 -31t-102 -13q-78 0 -131 27t-86 74.5t-47 111.5t-14 139v5z" />
    <glyph glyph-name="Cdotaccent" unicode="&#x10a;" horiz-adv-x="550" 
d="M331 881q22 0 37 -16.5t15 -40.5t-15.5 -40t-38.5 -16t-38 16t-15 40t16 40.5t39 16.5zM52 341q0 170 72 259.5t215 89.5q51 0 97 -13.5t80 -32.5l-18 -66q-36 20 -75.5 32.5t-85.5 12.5q-107 0 -160.5 -72.5t-53.5 -211.5q0 -137 49.5 -213.5t159.5 -76.5q45 0 87.5 10
t77.5 28l17 -59q-32 -18 -82 -31t-102 -13q-78 0 -131 27t-86 74.5t-47 111.5t-14 139v5z" />
    <glyph glyph-name="Dcaron" unicode="&#x10e;" horiz-adv-x="619" 
d="M235 674q58 0 107 -6.5t84 -20.5q67 -29 104 -100.5t37 -202.5v-9q0 -200 -96 -281q-41 -33 -100 -43.5t-144 -10.5h-140v674h148zM153 65h103q68 0 110 11.5t72 41.5q32 32 45 89t13 133q0 75 -15 134.5t-53 91.5q-29 24 -72 33.5t-105 9.5h-98v-544zM192 898l93 -91h6
l95 91l43 -36l-120 -120h-42l-120 120z" />
    <glyph glyph-name="Dcroat" unicode="&#x110;" horiz-adv-x="619" 
d="M235 674q58 0 107 -6.5t84 -20.5q67 -29 104 -100.5t37 -202.5v-9q0 -200 -96 -281q-41 -33 -100 -43.5t-144 -10.5h-140v309h-69v65h69v300h148zM153 374h146v-65h-146v-244h103q68 0 110 11.5t72 41.5q32 32 45 89t13 133q0 75 -15 134.5t-53 91.5q-29 24 -72 33.5
t-105 9.5h-98v-235z" />
    <glyph glyph-name="Eth" unicode="&#xd0;" horiz-adv-x="619" 
d="M235 674q58 0 107 -6.5t84 -20.5q67 -29 104 -100.5t37 -202.5v-9q0 -200 -96 -281q-41 -33 -100 -43.5t-144 -10.5h-140v309h-69v65h69v300h148zM153 374h146v-65h-146v-244h103q68 0 110 11.5t72 41.5q32 32 45 89t13 133q0 75 -15 134.5t-53 91.5q-29 24 -72 33.5
t-105 9.5h-98v-235z" />
    <glyph glyph-name="Egrave" unicode="&#xc8;" horiz-adv-x="507" 
d="M377 765l-29 -46l-198 111l38 59zM462 674l-7 -65h-302v-227h267l-7 -65h-260v-252h304l-7 -65h-363v674h375z" />
    <glyph glyph-name="Eacute" unicode="&#xc9;" horiz-adv-x="507" 
d="M386 889l39 -59l-199 -111l-28 46zM462 674l-7 -65h-302v-227h267l-7 -65h-260v-252h304l-7 -65h-363v674h375z" />
    <glyph glyph-name="Ecircumflex" unicode="&#xca;" horiz-adv-x="507" 
d="M306 900l120 -120l-45 -36l-93 91h-6l-95 -91l-43 36l120 120h42zM462 674l-7 -65h-302v-227h267l-7 -65h-260v-252h304l-7 -65h-363v674h375z" />
    <glyph glyph-name="Ecaron" unicode="&#x11a;" horiz-adv-x="507" 
d="M190 898l93 -91h6l95 91l43 -36l-120 -120h-42l-120 120zM462 674l-7 -65h-302v-227h267l-7 -65h-260v-252h304l-7 -65h-363v674h375z" />
    <glyph glyph-name="Edieresis" unicode="&#xcb;" horiz-adv-x="507" 
d="M305 816q0 26 14.5 38t33.5 12q20 0 34 -12t14 -38v-5q0 -26 -14 -38t-34 -12q-19 0 -33.5 12t-14.5 38v5zM149 816q0 26 14 38t33 12q21 0 34.5 -12t13.5 -38v-5q0 -26 -13.5 -38t-34.5 -12q-19 0 -33 12t-14 38v5zM462 674l-7 -65h-302v-227h267l-7 -65h-260v-252h304
l-7 -65h-363v674h375z" />
    <glyph glyph-name="Emacron" unicode="&#x112;" horiz-adv-x="507" 
d="M402 838v-57h-248v57h248zM462 674l-7 -65h-302v-227h267l-7 -65h-260v-252h304l-7 -65h-363v674h375z" />
    <glyph glyph-name="Ebreve" unicode="&#x114;" horiz-adv-x="507" 
d="M210 871q7 -24 23.5 -40.5t44.5 -16.5q26 0 44.5 16.5t23.5 40.5l63 -10q-11 -48 -44.5 -76t-86.5 -28t-86 28t-45 76zM462 674l-7 -65h-302v-227h267l-7 -65h-260v-252h304l-7 -65h-363v674h375z" />
    <glyph glyph-name="Edotaccent" unicode="&#x116;" horiz-adv-x="507" 
d="M276 881q22 0 37 -16.5t15 -40.5t-15.5 -40t-38.5 -16t-38 16t-15 40t16 40.5t39 16.5zM462 674l-7 -65h-302v-227h267l-7 -65h-260v-252h304l-7 -65h-363v674h375z" />
    <glyph glyph-name="Eogonek" unicode="&#x118;" horiz-adv-x="507" 
d="M87 0v674h375l-7 -65h-302v-227h267l-7 -65h-260v-252h304l-7 -65q-53 -28 -82.5 -63t-29.5 -69q0 -45 49 -45q10 0 22.5 2.5t22.5 7.5l11 -50q-13 -7 -31 -11.5t-38 -4.5q-53 0 -79 24.5t-26 61.5q0 22 8.5 44t24 41.5t36.5 35t47 26.5h-298z" />
    <glyph glyph-name="Gcircumflex" unicode="&#x11c;" horiz-adv-x="600" 
d="M343 900l120 -120l-45 -36l-93 91h-6l-95 -91l-43 36l120 120h42zM52 337q0 170 74 261.5t217 91.5q51 0 98 -13.5t82 -32.5l-18 -66q-37 20 -77 32.5t-87 12.5q-107 0 -162.5 -72.5t-55.5 -211.5q0 -138 52 -214t161 -76q29 0 61 5t59 15v207h-130l-10 65h206v-316
q-38 -19 -87 -30t-96 -11q-79 0 -133.5 25.5t-88.5 71t-49.5 109.5t-15.5 142v5z" />
    <glyph glyph-name="Gbreve" unicode="&#x11e;" horiz-adv-x="600" 
d="M261 871q7 -24 23.5 -40.5t44.5 -16.5q26 0 44.5 16.5t23.5 40.5l63 -10q-11 -48 -44.5 -76t-86.5 -28t-86 28t-45 76zM52 337q0 170 74 261.5t217 91.5q51 0 98 -13.5t82 -32.5l-18 -66q-37 20 -77 32.5t-87 12.5q-107 0 -162.5 -72.5t-55.5 -211.5q0 -138 52 -214
t161 -76q29 0 61 5t59 15v207h-130l-10 65h206v-316q-38 -19 -87 -30t-96 -11q-79 0 -133.5 25.5t-88.5 71t-49.5 109.5t-15.5 142v5z" />
    <glyph glyph-name="Gdotaccent" unicode="&#x120;" horiz-adv-x="600" 
d="M332 881q22 0 37 -16.5t15 -40.5t-15.5 -40t-38.5 -16t-38 16t-15 40t16 40.5t39 16.5zM52 337q0 170 74 261.5t217 91.5q51 0 98 -13.5t82 -32.5l-18 -66q-37 20 -77 32.5t-87 12.5q-107 0 -162.5 -72.5t-55.5 -211.5q0 -138 52 -214t161 -76q29 0 61 5t59 15v207h-130
l-10 65h206v-316q-38 -19 -87 -30t-96 -11q-79 0 -133.5 25.5t-88.5 71t-49.5 109.5t-15.5 142v5z" />
    <glyph glyph-name="Gcommaaccent" unicode="&#x122;" horiz-adv-x="600" 
d="M281 -113q0 47 43 47q20 0 33 -12t13 -38q0 -51 -40 -146l-39 14q8 21 14 39t9 35q-12 4 -22.5 15t-10.5 34v12zM52 337q0 170 74 261.5t217 91.5q51 0 98 -13.5t82 -32.5l-18 -66q-37 20 -77 32.5t-87 12.5q-107 0 -162.5 -72.5t-55.5 -211.5q0 -138 52 -214t161 -76
q29 0 61 5t59 15v207h-130l-10 65h206v-316q-38 -19 -87 -30t-96 -11q-79 0 -133.5 25.5t-88.5 71t-49.5 109.5t-15.5 142v5z" />
    <glyph glyph-name="Hcircumflex" unicode="&#x124;" horiz-adv-x="645" 
d="M153 674v-292h339v292h66v-674h-66v317h-339v-317h-66v674h66zM343 900l120 -120l-45 -36l-93 91h-6l-95 -91l-43 36l120 120h42z" />
    <glyph glyph-name="Hbar" unicode="&#x126;" horiz-adv-x="645" 
d="M153 674v-115h339v115h66v-115h53v-63h-53v-496h-66v317h-339v-317h-66v496h-53v63h53v115h66zM153 382h339v114h-339v-114z" />
    <glyph glyph-name="Igrave" unicode="&#xcc;" horiz-adv-x="246" 
d="M156 674v-674h-66v674h66zM216 765l-29 -46l-198 111l38 59z" />
    <glyph glyph-name="Iacute" unicode="&#xcd;" horiz-adv-x="246" 
d="M156 674v-674h-66v674h66zM236 889l39 -59l-199 -111l-28 46z" />
    <glyph glyph-name="Icircumflex" unicode="&#xce;" horiz-adv-x="246" 
d="M156 674v-674h-66v674h66zM144 900l120 -120l-45 -36l-93 91h-6l-95 -91l-43 36l120 120h42z" />
    <glyph glyph-name="Itilde" unicode="&#x128;" horiz-adv-x="246" 
d="M156 674v-674h-66v674h66zM-26 803q21 42 46 61.5t48 19.5q19 0 32.5 -7t29.5 -19l17 -12q10 -7 20 -11.5t21 -4.5q15 0 27 11t22 31l36 -34q-13 -32 -35.5 -51t-52.5 -19q-18 0 -32.5 6.5t-29.5 17.5l-15 10q-11 8 -19.5 13t-19.5 5q-17 0 -30.5 -14.5t-24.5 -36.5z" />
    <glyph glyph-name="Idieresis" unicode="&#xcf;" horiz-adv-x="246" 
d="M156 674v-674h-66v674h66zM153 816q0 26 14.5 38t33.5 12q20 0 34 -12t14 -38v-5q0 -26 -14 -38t-34 -12q-19 0 -33.5 12t-14.5 38v5zM-3 816q0 26 14 38t33 12q21 0 34.5 -12t13.5 -38v-5q0 -26 -13.5 -38t-34.5 -12q-19 0 -33 12t-14 38v5z" />
    <glyph glyph-name="Imacron" unicode="&#x12a;" horiz-adv-x="246" 
d="M156 674v-674h-66v674h66zM247 838v-57h-248v57h248z" />
    <glyph glyph-name="Ibreve" unicode="&#x12c;" horiz-adv-x="246" 
d="M156 674v-674h-66v674h66zM55 871q7 -24 23.5 -40.5t44.5 -16.5q26 0 44.5 16.5t23.5 40.5l63 -10q-11 -48 -44.5 -76t-86.5 -28t-86 28t-45 76z" />
    <glyph glyph-name="Idotaccent" unicode="&#x130;" horiz-adv-x="246" 
d="M156 674v-674h-66v674h66zM125 881q22 0 37 -16.5t15 -40.5t-15.5 -40t-38.5 -16t-38 16t-15 40t16 40.5t39 16.5z" />
    <glyph glyph-name="Iogonek" unicode="&#x12e;" horiz-adv-x="246" 
d="M156 674v-674q-57 -29 -86 -62t-29 -68q0 -47 48 -47q23 0 45 10l12 -50q-14 -7 -31.5 -11.5t-37.5 -4.5q-53 0 -79.5 25t-26.5 64q0 43 31 84.5t88 67.5v666h66z" />
    <glyph glyph-name="IJ" unicode="&#x132;" horiz-adv-x="637" 
d="M156 674v-674h-66v674h66zM552 241q0 -37 -1.5 -67.5t-7.5 -56t-17 -46.5t-29 -38q-23 -23 -62 -36t-87 -13q-19 0 -41.5 3t-38.5 8l4 58q16 -4 34.5 -6.5t31.5 -2.5q47 0 75.5 12t45.5 35q19 25 23 61t4 88v434h66v-433z" />
    <glyph glyph-name="Jcircumflex" unicode="&#x134;" horiz-adv-x="396" 
d="M298 900l120 -120l-45 -36l-93 91h-6l-95 -91l-43 36l120 120h42zM310 241q0 -37 -1.5 -67.5t-7.5 -56t-17 -46.5t-29 -38q-23 -23 -62 -36t-87 -13q-19 0 -41.5 3t-38.5 8l4 58q16 -4 34.5 -6.5t31.5 -2.5q47 0 75.5 12t45.5 35q19 25 23 61t4 88v434h66v-433z" />
    <glyph glyph-name="Kcommaaccent" unicode="&#x136;" horiz-adv-x="531" 
d="M250 -113q0 47 43 47q20 0 33 -12t13 -38q0 -51 -40 -146l-39 14q8 21 14 39t9 35q-12 4 -22.5 15t-10.5 34v12zM153 674v-334q41 37 78 74.5t72 78t69 85t70 96.5h71q-30 -45 -59 -84.5t-58 -75.5t-59 -69t-62 -66l243 -379h-80l-214 330q-17 -17 -34 -33t-37 -33v-264
h-66v674h66z" />
    <glyph glyph-name="Lacute" unicode="&#x139;" horiz-adv-x="450" 
d="M235 889l39 -59l-199 -111l-28 46zM153 674v-609h265l-7 -65h-324v674h66z" />
    <glyph glyph-name="Lcaron" unicode="&#x13d;" horiz-adv-x="450" 
d="M282 637q0 47 43 47q20 0 33 -12t13 -38q0 -51 -40 -146l-39 14q8 21 14 39t9 35q-12 4 -22.5 15t-10.5 34v12zM153 674v-609h265l-7 -65h-324v674h66z" />
    <glyph glyph-name="Lcommaaccent" unicode="&#x13b;" horiz-adv-x="450" 
d="M213 -113q0 47 43 47q20 0 33 -12t13 -38q0 -51 -40 -146l-39 14q8 21 14 39t9 35q-12 4 -22.5 15t-10.5 34v12zM153 674v-609h265l-7 -65h-324v674h66z" />
    <glyph glyph-name="Lslash" unicode="&#x141;" horiz-adv-x="450" 
d="M153 674v-290l98 109v-75l-98 -109v-244h265l-7 -65h-324v235l-76 -84v75l76 84v364h66z" />
    <glyph glyph-name="Ldot" unicode="&#x13f;" horiz-adv-x="450" 
d="M341 420q22 0 37 -16.5t15 -39.5q0 -24 -15.5 -40t-38.5 -16t-38 16t-15 40q0 23 16 39.5t39 16.5zM153 674v-609h265l-7 -65h-324v674h66z" />
    <glyph glyph-name="Nacute" unicode="&#x143;" horiz-adv-x="673" 
d="M149 674l374 -551h1v551h62v-674h-53l-383 558h-1v-558h-62v674h62zM448 889l39 -59l-199 -111l-28 46z" />
    <glyph glyph-name="Ncaron" unicode="&#x147;" horiz-adv-x="673" 
d="M149 674l374 -551h1v551h62v-674h-53l-383 558h-1v-558h-62v674h62zM241 898l93 -91h6l95 91l43 -36l-120 -120h-42l-120 120z" />
    <glyph glyph-name="Ntilde" unicode="&#xd1;" horiz-adv-x="673" 
d="M149 674l374 -551h1v551h62v-674h-53l-383 558h-1v-558h-62v674h62zM189 803q21 42 46 61.5t48 19.5q19 0 32.5 -7t29.5 -19l17 -12q10 -7 20 -11.5t21 -4.5q15 0 27 11t22 31l36 -34q-13 -32 -35.5 -51t-52.5 -19q-18 0 -32.5 6.5t-29.5 17.5l-15 10q-11 8 -19.5 13
t-19.5 5q-17 0 -30.5 -14.5t-24.5 -36.5z" />
    <glyph glyph-name="Ncommaaccent" unicode="&#x145;" horiz-adv-x="673" 
d="M149 674l374 -551h1v551h62v-674h-53l-383 558h-1v-558h-62v674h62zM307 -113q0 47 43 47q20 0 33 -12t13 -38q0 -51 -40 -146l-39 14q8 21 14 39t9 35q-12 4 -22.5 15t-10.5 34v12z" />
    <glyph glyph-name="Eng" unicode="&#x14a;" horiz-adv-x="673" 
d="M149 674l374 -551h1v551h62v-622q0 -65 -10 -118.5t-46 -87.5q-23 -23 -61.5 -36t-86.5 -13q-19 0 -39.5 3t-35.5 8l3 54q14 -4 33.5 -6.5t32.5 -2.5q48 0 76 12t46 35q26 36 26 103v10l-374 545h-1v-558h-62v674h62z" />
    <glyph glyph-name="Ograve" unicode="&#xd2;" horiz-adv-x="619" 
d="M52 342q0 75 13.5 138.5t44 110t80 73t120.5 26.5t120 -26.5t79.5 -73t44 -110t13.5 -138.5v-10q0 -75 -13.5 -138.5t-44 -110t-79.5 -73t-120 -26.5t-120.5 26.5t-80 73t-44 110t-13.5 138.5v10zM310 625q-52 0 -88 -19.5t-58 -56t-31.5 -90t-9.5 -121.5
q0 -69 9.5 -122.5t31.5 -90.5t58 -56.5t88 -19.5t87.5 19t57.5 56t31.5 90.5t9.5 122.5t-9.5 122.5t-31.5 90t-57.5 56t-87.5 19.5zM419 765l-29 -46l-198 111l38 59z" />
    <glyph glyph-name="Oacute" unicode="&#xd3;" horiz-adv-x="619" 
d="M52 342q0 75 13.5 138.5t44 110t80 73t120.5 26.5t120 -26.5t79.5 -73t44 -110t13.5 -138.5v-10q0 -75 -13.5 -138.5t-44 -110t-79.5 -73t-120 -26.5t-120.5 26.5t-80 73t-44 110t-13.5 138.5v10zM310 625q-52 0 -88 -19.5t-58 -56t-31.5 -90t-9.5 -121.5
q0 -69 9.5 -122.5t31.5 -90.5t58 -56.5t88 -19.5t87.5 19t57.5 56t31.5 90.5t9.5 122.5t-9.5 122.5t-31.5 90t-57.5 56t-87.5 19.5zM414 889l39 -59l-199 -111l-28 46z" />
    <glyph glyph-name="Ocircumflex" unicode="&#xd4;" horiz-adv-x="619" 
d="M52 342q0 75 13.5 138.5t44 110t80 73t120.5 26.5t120 -26.5t79.5 -73t44 -110t13.5 -138.5v-10q0 -75 -13.5 -138.5t-44 -110t-79.5 -73t-120 -26.5t-120.5 26.5t-80 73t-44 110t-13.5 138.5v10zM310 625q-52 0 -88 -19.5t-58 -56t-31.5 -90t-9.5 -121.5
q0 -69 9.5 -122.5t31.5 -90.5t58 -56.5t88 -19.5t87.5 19t57.5 56t31.5 90.5t9.5 122.5t-9.5 122.5t-31.5 90t-57.5 56t-87.5 19.5zM333 900l120 -120l-45 -36l-93 91h-6l-95 -91l-43 36l120 120h42z" />
    <glyph glyph-name="Otilde" unicode="&#xd5;" horiz-adv-x="619" 
d="M52 342q0 75 13.5 138.5t44 110t80 73t120.5 26.5t120 -26.5t79.5 -73t44 -110t13.5 -138.5v-10q0 -75 -13.5 -138.5t-44 -110t-79.5 -73t-120 -26.5t-120.5 26.5t-80 73t-44 110t-13.5 138.5v10zM310 625q-52 0 -88 -19.5t-58 -56t-31.5 -90t-9.5 -121.5
q0 -69 9.5 -122.5t31.5 -90.5t58 -56.5t88 -19.5t87.5 19t57.5 56t31.5 90.5t9.5 122.5t-9.5 122.5t-31.5 90t-57.5 56t-87.5 19.5zM164 803q21 42 46 61.5t48 19.5q19 0 32.5 -7t29.5 -19l17 -12q10 -7 20 -11.5t21 -4.5q15 0 27 11t22 31l36 -34q-13 -32 -35.5 -51
t-52.5 -19q-18 0 -32.5 6.5t-29.5 17.5l-15 10q-11 8 -19.5 13t-19.5 5q-17 0 -30.5 -14.5t-24.5 -36.5z" />
    <glyph glyph-name="Odieresis" unicode="&#xd6;" horiz-adv-x="619" 
d="M52 342q0 75 13.5 138.5t44 110t80 73t120.5 26.5t120 -26.5t79.5 -73t44 -110t13.5 -138.5v-10q0 -75 -13.5 -138.5t-44 -110t-79.5 -73t-120 -26.5t-120.5 26.5t-80 73t-44 110t-13.5 138.5v10zM310 625q-52 0 -88 -19.5t-58 -56t-31.5 -90t-9.5 -121.5
q0 -69 9.5 -122.5t31.5 -90.5t58 -56.5t88 -19.5t87.5 19t57.5 56t31.5 90.5t9.5 122.5t-9.5 122.5t-31.5 90t-57.5 56t-87.5 19.5zM341 816q0 26 14.5 38t33.5 12q20 0 34 -12t14 -38v-5q0 -26 -14 -38t-34 -12q-19 0 -33.5 12t-14.5 38v5zM185 816q0 26 14 38t33 12
q21 0 34.5 -12t13.5 -38v-5q0 -26 -13.5 -38t-34.5 -12q-19 0 -33 12t-14 38v5z" />
    <glyph glyph-name="Omacron" unicode="&#x14c;" horiz-adv-x="619" 
d="M52 342q0 75 13.5 138.5t44 110t80 73t120.5 26.5t120 -26.5t79.5 -73t44 -110t13.5 -138.5v-10q0 -75 -13.5 -138.5t-44 -110t-79.5 -73t-120 -26.5t-120.5 26.5t-80 73t-44 110t-13.5 138.5v10zM310 625q-52 0 -88 -19.5t-58 -56t-31.5 -90t-9.5 -121.5
q0 -69 9.5 -122.5t31.5 -90.5t58 -56.5t88 -19.5t87.5 19t57.5 56t31.5 90.5t9.5 122.5t-9.5 122.5t-31.5 90t-57.5 56t-87.5 19.5zM433 838v-57h-248v57h248z" />
    <glyph glyph-name="Obreve" unicode="&#x14e;" horiz-adv-x="619" 
d="M52 342q0 75 13.5 138.5t44 110t80 73t120.5 26.5t120 -26.5t79.5 -73t44 -110t13.5 -138.5v-10q0 -75 -13.5 -138.5t-44 -110t-79.5 -73t-120 -26.5t-120.5 26.5t-80 73t-44 110t-13.5 138.5v10zM310 625q-52 0 -88 -19.5t-58 -56t-31.5 -90t-9.5 -121.5
q0 -69 9.5 -122.5t31.5 -90.5t58 -56.5t88 -19.5t87.5 19t57.5 56t31.5 90.5t9.5 122.5t-9.5 122.5t-31.5 90t-57.5 56t-87.5 19.5zM241 871q7 -24 23.5 -40.5t44.5 -16.5q26 0 44.5 16.5t23.5 40.5l63 -10q-11 -48 -44.5 -76t-86.5 -28t-86 28t-45 76z" />
    <glyph glyph-name="Ohungarumlaut" unicode="&#x150;" horiz-adv-x="619" 
d="M52 342q0 75 13.5 138.5t44 110t80 73t120.5 26.5t120 -26.5t79.5 -73t44 -110t13.5 -138.5v-10q0 -75 -13.5 -138.5t-44 -110t-79.5 -73t-120 -26.5t-120.5 26.5t-80 73t-44 110t-13.5 138.5v10zM310 625q-52 0 -88 -19.5t-58 -56t-31.5 -90t-9.5 -121.5
q0 -69 9.5 -122.5t31.5 -90.5t58 -56.5t88 -19.5t87.5 19t57.5 56t31.5 90.5t9.5 122.5t-9.5 122.5t-31.5 90t-57.5 56t-87.5 19.5zM365 879l-137 -155l-43 32l122 160zM518 879l-137 -155l-42 32l121 160z" />
    <glyph glyph-name="Oslash" unicode="&#xd8;" horiz-adv-x="619" 
d="M523 743l-49 -112q49 -46 71 -120.5t22 -168.5v-10q0 -75 -13.5 -138.5t-44 -110t-79.5 -73t-120 -26.5q-62 0 -111 22l-46 -106l-51 27l48 110q-52 45 -75 121.5t-23 173.5v10q0 75 13.5 138.5t44 110t80 73t120.5 26.5q67 0 117 -26l45 102zM400 603q-39 22 -90 22
q-52 0 -88 -19.5t-58 -56t-31.5 -90t-9.5 -121.5q0 -80 13 -139.5t44 -95.5zM226 66q36 -17 84 -17q52 0 87.5 19t57.5 56t31.5 90.5t9.5 122.5q0 75 -12 132.5t-40 95.5z" />
    <glyph glyph-name="Oslashacute" unicode="&#x1fe;" horiz-adv-x="619" 
d="M523 743l-49 -112q49 -46 71 -120.5t22 -168.5v-10q0 -75 -13.5 -138.5t-44 -110t-79.5 -73t-120 -26.5q-62 0 -111 22l-46 -106l-51 27l48 110q-52 45 -75 121.5t-23 173.5v10q0 75 13.5 138.5t44 110t80 73t120.5 26.5q67 0 117 -26l45 102zM400 603q-39 22 -90 22
q-52 0 -88 -19.5t-58 -56t-31.5 -90t-9.5 -121.5q0 -80 13 -139.5t44 -95.5zM226 66q36 -17 84 -17q52 0 87.5 19t57.5 56t31.5 90.5t9.5 122.5q0 75 -12 132.5t-40 95.5zM406 889l39 -59l-199 -111l-28 46z" />
    <glyph glyph-name="OE" unicode="&#x152;" horiz-adv-x="830" 
d="M420 580q-20 20 -47.5 33t-65.5 13q-52 0 -87.5 -19.5t-57 -56.5t-30.5 -90.5t-9 -121.5q0 -137 41 -213t137 -76q38 0 69 13.5t50 36.5v481zM486 317v-252h294l-7 -65h-349v35q-21 -24 -57 -37.5t-73 -13.5q-65 0 -111 26.5t-75 73t-42.5 110t-13.5 138.5v10
q0 75 14 138.5t44.5 110t79 73t117.5 26.5q40 0 71.5 -13.5t47.5 -28.5v26h359l-8 -65h-291v-227h257l-7 -65h-250z" />
    <glyph glyph-name="Thorn" unicode="&#xde;" horiz-adv-x="527" 
d="M153 674v-116h74q66 0 120.5 -11.5t89.5 -47.5q23 -23 36 -60t13 -90q0 -110 -60 -164q-29 -26 -72 -37.5t-98 -11.5h-103v-136h-66v674h66zM153 201h92q40 0 71.5 5t53.5 21t33.5 45t11.5 77q0 77 -46 114q-21 16 -53 23t-72 7h-91v-292z" />
    <glyph glyph-name="Racute" unicode="&#x154;" horiz-adv-x="552" 
d="M364 889l39 -59l-199 -111l-28 46zM237 674q66 0 120 -11.5t89 -47.5q23 -23 36.5 -57.5t13.5 -87.5q0 -54 -15.5 -94t-44.5 -66q-11 -9 -25 -17t-31 -15l124 -278h-71l-112 264q-26 -3 -55 -3h-113v-261h-66v674h150zM153 326h82q37 0 63 1t44 6q39 11 61 41.5t22 95.5
q0 40 -12 66t-35 43q-21 16 -52.5 23t-72.5 7h-100v-283z" />
    <glyph glyph-name="Rcaron" unicode="&#x158;" horiz-adv-x="552" 
d="M177 898l93 -91h6l95 91l43 -36l-120 -120h-42l-120 120zM237 674q66 0 120 -11.5t89 -47.5q23 -23 36.5 -57.5t13.5 -87.5q0 -54 -15.5 -94t-44.5 -66q-11 -9 -25 -17t-31 -15l124 -278h-71l-112 264q-26 -3 -55 -3h-113v-261h-66v674h150zM153 326h82q37 0 63 1t44 6
q39 11 61 41.5t22 95.5q0 40 -12 66t-35 43q-21 16 -52.5 23t-72.5 7h-100v-283z" />
    <glyph glyph-name="Rcommaaccent" unicode="&#x156;" horiz-adv-x="552" 
d="M247 -113q0 47 43 47q20 0 33 -12t13 -38q0 -51 -40 -146l-39 14q8 21 14 39t9 35q-12 4 -22.5 15t-10.5 34v12zM237 674q66 0 120 -11.5t89 -47.5q23 -23 36.5 -57.5t13.5 -87.5q0 -54 -15.5 -94t-44.5 -66q-11 -9 -25 -17t-31 -15l124 -278h-71l-112 264q-26 -3 -55 -3
h-113v-261h-66v674h150zM153 326h82q37 0 63 1t44 6q39 11 61 41.5t22 95.5q0 40 -12 66t-35 43q-21 16 -52.5 23t-72.5 7h-100v-283z" />
    <glyph glyph-name="Sacute" unicode="&#x15a;" horiz-adv-x="477" 
d="M385 602q-34 13 -63.5 19t-61.5 6q-28 0 -53.5 -6.5t-45 -21t-31 -37t-11.5 -54.5t10 -53.5t27 -37t40 -26t49 -18.5l32 -10q34 -11 63.5 -24t51 -33.5t34 -52t12.5 -77.5q0 -92 -55 -142t-170 -50q-38 0 -83 10t-79 24l9 63q38 -17 78.5 -26t72.5 -9q34 0 63 6
t49.5 20.5t32 38.5t11.5 61q0 33 -9 54t-25.5 35.5t-39 23.5t-49.5 17l-29 9q-77 24 -121.5 69t-44.5 128q0 46 16.5 80.5t45.5 57t67 33.5t82 11q36 0 72.5 -7.5t63.5 -19.5zM349 889l39 -59l-199 -111l-28 46z" />
    <glyph glyph-name="Scircumflex" unicode="&#x15c;" horiz-adv-x="477" 
d="M385 602q-34 13 -63.5 19t-61.5 6q-28 0 -53.5 -6.5t-45 -21t-31 -37t-11.5 -54.5t10 -53.5t27 -37t40 -26t49 -18.5l32 -10q34 -11 63.5 -24t51 -33.5t34 -52t12.5 -77.5q0 -92 -55 -142t-170 -50q-38 0 -83 10t-79 24l9 63q38 -17 78.5 -26t72.5 -9q34 0 63 6
t49.5 20.5t32 38.5t11.5 61q0 33 -9 54t-25.5 35.5t-39 23.5t-49.5 17l-29 9q-77 24 -121.5 69t-44.5 128q0 46 16.5 80.5t45.5 57t67 33.5t82 11q36 0 72.5 -7.5t63.5 -19.5zM269 900l120 -120l-45 -36l-93 91h-6l-95 -91l-43 36l120 120h42z" />
    <glyph glyph-name="Scaron" unicode="&#x160;" horiz-adv-x="477" 
d="M385 602q-34 13 -63.5 19t-61.5 6q-28 0 -53.5 -6.5t-45 -21t-31 -37t-11.5 -54.5t10 -53.5t27 -37t40 -26t49 -18.5l32 -10q34 -11 63.5 -24t51 -33.5t34 -52t12.5 -77.5q0 -92 -55 -142t-170 -50q-38 0 -83 10t-79 24l9 63q38 -17 78.5 -26t72.5 -9q34 0 63 6
t49.5 20.5t32 38.5t11.5 61q0 33 -9 54t-25.5 35.5t-39 23.5t-49.5 17l-29 9q-77 24 -121.5 69t-44.5 128q0 46 16.5 80.5t45.5 57t67 33.5t82 11q36 0 72.5 -7.5t63.5 -19.5zM151 898l93 -91h6l95 91l43 -36l-120 -120h-42l-120 120z" />
    <glyph glyph-name="Scedilla" unicode="&#x15e;" horiz-adv-x="477" 
d="M385 602q-34 13 -63.5 19t-61.5 6q-28 0 -53.5 -6.5t-45 -21t-31 -37t-11.5 -54.5t10 -53.5t27 -37t40 -26t49 -18.5l32 -10q34 -11 63.5 -24t51 -33.5t34 -52t12.5 -77.5q0 -84 -45.5 -133t-139.5 -57l-10 -44q92 -6 92 -83q0 -45 -30 -68.5t-80 -23.5q-23 0 -45.5 4
t-37.5 9l12 48q17 -5 34 -7.5t31 -2.5q29 0 41 9.5t12 28.5q0 21 -15 31.5t-55 10.5h-10t-11 -1l-5 6l21 82q-36 2 -76 11t-70 22l9 63q38 -17 78.5 -26t72.5 -9q34 0 63 6t49.5 20.5t32 38.5t11.5 61q0 33 -9 54t-25.5 35.5t-39 23.5t-49.5 17l-29 9q-77 24 -121.5 69
t-44.5 128q0 46 16.5 80.5t45.5 57t67 33.5t82 11q36 0 72.5 -7.5t63.5 -19.5z" />
    <glyph glyph-name="Scommaaccent" unicode="&#x218;" horiz-adv-x="477" 
d="M385 602q-34 13 -63.5 19t-61.5 6q-28 0 -53.5 -6.5t-45 -21t-31 -37t-11.5 -54.5t10 -53.5t27 -37t40 -26t49 -18.5l32 -10q34 -11 63.5 -24t51 -33.5t34 -52t12.5 -77.5q0 -92 -55 -142t-170 -50q-38 0 -83 10t-79 24l9 63q38 -17 78.5 -26t72.5 -9q34 0 63 6
t49.5 20.5t32 38.5t11.5 61q0 33 -9 54t-25.5 35.5t-39 23.5t-49.5 17l-29 9q-77 24 -121.5 69t-44.5 128q0 46 16.5 80.5t45.5 57t67 33.5t82 11q36 0 72.5 -7.5t63.5 -19.5zM209 -113q0 47 43 47q20 0 33 -12t13 -38q0 -51 -40 -146l-39 14q8 21 14 39t9 35
q-12 4 -22.5 15t-10.5 34v12z" />
    <glyph glyph-name="Tcaron" unicode="&#x164;" horiz-adv-x="523" 
d="M164 898l93 -91h6l95 91l43 -36l-120 -120h-42l-120 120zM489 674l-8 -65h-188v-609h-66v609h-192v65h454z" />
    <glyph glyph-name="Tcommaaccent" unicode="&#x162;" horiz-adv-x="523" 
d="M217 -113q0 47 43 47q20 0 33 -12t13 -38q0 -51 -40 -146l-39 14q8 21 14 39t9 35q-12 4 -22.5 15t-10.5 34v12zM489 674l-8 -65h-188v-609h-66v609h-192v65h454z" />
    <glyph glyph-name="uni021A" unicode="&#x21a;" horiz-adv-x="523" 
d="M217 -113q0 47 43 47q20 0 33 -12t13 -38q0 -51 -40 -146l-39 14q8 21 14 39t9 35q-12 4 -22.5 15t-10.5 34v12zM489 674l-8 -65h-188v-609h-66v609h-192v65h454z" />
    <glyph glyph-name="Tbar" unicode="&#x166;" horiz-adv-x="523" 
d="M489 674l-8 -65h-188v-217h120v-65h-120v-327h-66v327h-120v65h120v217h-192v65h454z" />
    <glyph glyph-name="Ugrave" unicode="&#xd9;" horiz-adv-x="636" 
d="M150 674v-424q0 -50 8 -87.5t27.5 -63t52 -38t80.5 -12.5t80.5 12.5t52 38t27.5 63t8 87.5v424h66v-431q0 -63 -12 -111.5t-40 -81t-72.5 -49.5t-109.5 -17t-109.5 17t-72 49.5t-40 81t-12.5 111.5v431h66zM420 765l-29 -46l-198 111l38 59z" />
    <glyph glyph-name="Uacute" unicode="&#xda;" horiz-adv-x="636" 
d="M150 674v-424q0 -50 8 -87.5t27.5 -63t52 -38t80.5 -12.5t80.5 12.5t52 38t27.5 63t8 87.5v424h66v-431q0 -63 -12 -111.5t-40 -81t-72.5 -49.5t-109.5 -17t-109.5 17t-72 49.5t-40 81t-12.5 111.5v431h66zM414 889l39 -59l-199 -111l-28 46z" />
    <glyph glyph-name="Ucircumflex" unicode="&#xdb;" horiz-adv-x="636" 
d="M150 674v-424q0 -50 8 -87.5t27.5 -63t52 -38t80.5 -12.5t80.5 12.5t52 38t27.5 63t8 87.5v424h66v-431q0 -63 -12 -111.5t-40 -81t-72.5 -49.5t-109.5 -17t-109.5 17t-72 49.5t-40 81t-12.5 111.5v431h66zM344 900l120 -120l-45 -36l-93 91h-6l-95 -91l-43 36l120 120
h42z" />
    <glyph glyph-name="Utilde" unicode="&#x168;" horiz-adv-x="636" 
d="M150 674v-424q0 -50 8 -87.5t27.5 -63t52 -38t80.5 -12.5t80.5 12.5t52 38t27.5 63t8 87.5v424h66v-431q0 -63 -12 -111.5t-40 -81t-72.5 -49.5t-109.5 -17t-109.5 17t-72 49.5t-40 81t-12.5 111.5v431h66zM170 803q21 42 46 61.5t48 19.5q19 0 32.5 -7t29.5 -19l17 -12
q10 -7 20 -11.5t21 -4.5q15 0 27 11t22 31l36 -34q-13 -32 -35.5 -51t-52.5 -19q-18 0 -32.5 6.5t-29.5 17.5l-15 10q-11 8 -19.5 13t-19.5 5q-17 0 -30.5 -14.5t-24.5 -36.5z" />
    <glyph glyph-name="Udieresis" unicode="&#xdc;" horiz-adv-x="636" 
d="M150 674v-424q0 -50 8 -87.5t27.5 -63t52 -38t80.5 -12.5t80.5 12.5t52 38t27.5 63t8 87.5v424h66v-431q0 -63 -12 -111.5t-40 -81t-72.5 -49.5t-109.5 -17t-109.5 17t-72 49.5t-40 81t-12.5 111.5v431h66zM349 816q0 26 14.5 38t33.5 12q20 0 34 -12t14 -38v-5
q0 -26 -14 -38t-34 -12q-19 0 -33.5 12t-14.5 38v5zM193 816q0 26 14 38t33 12q21 0 34.5 -12t13.5 -38v-5q0 -26 -13.5 -38t-34.5 -12q-19 0 -33 12t-14 38v5z" />
    <glyph glyph-name="Umacron" unicode="&#x16a;" horiz-adv-x="636" 
d="M150 674v-424q0 -50 8 -87.5t27.5 -63t52 -38t80.5 -12.5t80.5 12.5t52 38t27.5 63t8 87.5v424h66v-431q0 -63 -12 -111.5t-40 -81t-72.5 -49.5t-109.5 -17t-109.5 17t-72 49.5t-40 81t-12.5 111.5v431h66zM444 838v-57h-248v57h248z" />
    <glyph glyph-name="Ubreve" unicode="&#x16c;" horiz-adv-x="636" 
d="M150 674v-424q0 -50 8 -87.5t27.5 -63t52 -38t80.5 -12.5t80.5 12.5t52 38t27.5 63t8 87.5v424h66v-431q0 -63 -12 -111.5t-40 -81t-72.5 -49.5t-109.5 -17t-109.5 17t-72 49.5t-40 81t-12.5 111.5v431h66zM251 871q7 -24 23.5 -40.5t44.5 -16.5q26 0 44.5 16.5
t23.5 40.5l63 -10q-11 -48 -44.5 -76t-86.5 -28t-86 28t-45 76z" />
    <glyph glyph-name="Uring" unicode="&#x16e;" horiz-adv-x="636" 
d="M150 674v-424q0 -50 8 -87.5t27.5 -63t52 -38t80.5 -12.5t80.5 12.5t52 38t27.5 63t8 87.5v424h66v-431q0 -63 -12 -111.5t-40 -81t-72.5 -49.5t-109.5 -17t-109.5 17t-72 49.5t-40 81t-12.5 111.5v431h66zM318 916q38 0 62 -24.5t24 -62.5q0 -37 -24 -61.5t-62 -24.5
q-37 0 -61.5 24.5t-24.5 61.5q0 38 24.5 62.5t61.5 24.5zM318 871q-19 0 -29.5 -11.5t-10.5 -30.5q0 -18 10.5 -29.5t29.5 -11.5t29.5 11.5t10.5 29.5q0 19 -10.5 30.5t-29.5 11.5z" />
    <glyph glyph-name="Uhungarumlaut" unicode="&#x170;" horiz-adv-x="636" 
d="M150 674v-424q0 -50 8 -87.5t27.5 -63t52 -38t80.5 -12.5t80.5 12.5t52 38t27.5 63t8 87.5v424h66v-431q0 -63 -12 -111.5t-40 -81t-72.5 -49.5t-109.5 -17t-109.5 17t-72 49.5t-40 81t-12.5 111.5v431h66zM383 879l-137 -155l-43 32l122 160zM536 879l-137 -155l-42 32
l121 160z" />
    <glyph glyph-name="Uogonek" unicode="&#x172;" horiz-adv-x="636" 
d="M150 674v-424q0 -50 8 -87.5t27.5 -63t52 -38t80.5 -12.5t80.5 12.5t52 38t27.5 63t8 87.5v424h66v-431q0 -96 -28 -153.5t-84 -82.5q-66 -29 -96.5 -66t-30.5 -71q0 -22 12.5 -34.5t36.5 -12.5q10 0 22.5 2.5t22.5 7.5l11 -50q-13 -7 -31 -11.5t-38 -4.5q-53 0 -79 24
t-26 66q0 38 25.5 72.5t67.5 54.5h-19q-65 0 -109.5 17t-72 49.5t-40 81t-12.5 111.5v431h66z" />
    <glyph glyph-name="Wgrave" unicode="&#x1e80;" horiz-adv-x="887" 
d="M97 674q14 -71 34 -149t42 -155t45 -150t44 -133h2q28 93 54 189.5t51 193.5q13 52 23.5 101.5t19.5 102.5h66q11 -53 21.5 -102.5t24.5 -101.5q26 -97 51.5 -191t56.5 -192h1q21 60 43 133t42.5 150t39 155t32.5 149h70q-19 -88 -42 -177.5t-48 -176t-51.5 -167.5
t-51.5 -153h-71q-20 56 -39.5 120.5t-38.5 132.5t-37.5 139t-34.5 141h-2q-32 -140 -70 -277t-76 -256h-72q-26 72 -53 153t-53 167.5t-50.5 176t-43.5 177.5h71zM538 765l-29 -46l-198 111l38 59z" />
    <glyph glyph-name="Wacute" unicode="&#x1e82;" horiz-adv-x="887" 
d="M97 674q14 -71 34 -149t42 -155t45 -150t44 -133h2q28 93 54 189.5t51 193.5q13 52 23.5 101.5t19.5 102.5h66q11 -53 21.5 -102.5t24.5 -101.5q26 -97 51.5 -191t56.5 -192h1q21 60 43 133t42.5 150t39 155t32.5 149h70q-19 -88 -42 -177.5t-48 -176t-51.5 -167.5
t-51.5 -153h-71q-20 56 -39.5 120.5t-38.5 132.5t-37.5 139t-34.5 141h-2q-32 -140 -70 -277t-76 -256h-72q-26 72 -53 153t-53 167.5t-50.5 176t-43.5 177.5h71zM551 889l39 -59l-199 -111l-28 46z" />
    <glyph glyph-name="Wcircumflex" unicode="&#x174;" horiz-adv-x="887" 
d="M97 674q14 -71 34 -149t42 -155t45 -150t44 -133h2q28 93 54 189.5t51 193.5q13 52 23.5 101.5t19.5 102.5h66q11 -53 21.5 -102.5t24.5 -101.5q26 -97 51.5 -191t56.5 -192h1q21 60 43 133t42.5 150t39 155t32.5 149h70q-19 -88 -42 -177.5t-48 -176t-51.5 -167.5
t-51.5 -153h-71q-20 56 -39.5 120.5t-38.5 132.5t-37.5 139t-34.5 141h-2q-32 -140 -70 -277t-76 -256h-72q-26 72 -53 153t-53 167.5t-50.5 176t-43.5 177.5h71zM464 900l120 -120l-45 -36l-93 91h-6l-95 -91l-43 36l120 120h42z" />
    <glyph glyph-name="Wdieresis" unicode="&#x1e84;" horiz-adv-x="887" 
d="M97 674q14 -71 34 -149t42 -155t45 -150t44 -133h2q28 93 54 189.5t51 193.5q13 52 23.5 101.5t19.5 102.5h66q11 -53 21.5 -102.5t24.5 -101.5q26 -97 51.5 -191t56.5 -192h1q21 60 43 133t42.5 150t39 155t32.5 149h70q-19 -88 -42 -177.5t-48 -176t-51.5 -167.5
t-51.5 -153h-71q-20 56 -39.5 120.5t-38.5 132.5t-37.5 139t-34.5 141h-2q-32 -140 -70 -277t-76 -256h-72q-26 72 -53 153t-53 167.5t-50.5 176t-43.5 177.5h71zM473 816q0 26 14.5 38t33.5 12q20 0 34 -12t14 -38v-5q0 -26 -14 -38t-34 -12q-19 0 -33.5 12t-14.5 38v5z
M317 816q0 26 14 38t33 12q21 0 34.5 -12t13.5 -38v-5q0 -26 -13.5 -38t-34.5 -12q-19 0 -33 12t-14 38v5z" />
    <glyph glyph-name="Ygrave" unicode="&#x1ef2;" horiz-adv-x="512" 
d="M99 674q33 -101 71.5 -197t83.5 -184h3q45 88 84.5 184t71.5 197h73q-20 -60 -43.5 -120t-49 -118t-52.5 -112.5t-53 -102.5v-221h-64v222q-27 48 -54 102.5t-52.5 112t-49 117.5t-42.5 120h73zM351 765l-29 -46l-198 111l38 59z" />
    <glyph glyph-name="Yacute" unicode="&#xdd;" horiz-adv-x="512" 
d="M99 674q33 -101 71.5 -197t83.5 -184h3q45 88 84.5 184t71.5 197h73q-20 -60 -43.5 -120t-49 -118t-52.5 -112.5t-53 -102.5v-221h-64v222q-27 48 -54 102.5t-52.5 112t-49 117.5t-42.5 120h73zM372 889l39 -59l-199 -111l-28 46z" />
    <glyph glyph-name="Ycircumflex" unicode="&#x176;" horiz-adv-x="512" 
d="M99 674q33 -101 71.5 -197t83.5 -184h3q45 88 84.5 184t71.5 197h73q-20 -60 -43.5 -120t-49 -118t-52.5 -112.5t-53 -102.5v-221h-64v222q-27 48 -54 102.5t-52.5 112t-49 117.5t-42.5 120h73zM277 900l120 -120l-45 -36l-93 91h-6l-95 -91l-43 36l120 120h42z" />
    <glyph glyph-name="Ydieresis" unicode="&#x178;" horiz-adv-x="512" 
d="M99 674q33 -101 71.5 -197t83.5 -184h3q45 88 84.5 184t71.5 197h73q-20 -60 -43.5 -120t-49 -118t-52.5 -112.5t-53 -102.5v-221h-64v222q-27 48 -54 102.5t-52.5 112t-49 117.5t-42.5 120h73zM287 816q0 26 14.5 38t33.5 12q20 0 34 -12t14 -38v-5q0 -26 -14 -38
t-34 -12q-19 0 -33.5 12t-14.5 38v5zM131 816q0 26 14 38t33 12q21 0 34.5 -12t13.5 -38v-5q0 -26 -13.5 -38t-34.5 -12q-19 0 -33 12t-14 38v5z" />
    <glyph glyph-name="Zacute" unicode="&#x179;" horiz-adv-x="518" 
d="M370 889l39 -59l-199 -111l-28 46zM465 674v-61l-336 -548h341l-12 -65h-400l-9 62l335 547h-327v65h408z" />
    <glyph glyph-name="Zcaron" unicode="&#x17d;" horiz-adv-x="518" 
d="M169 898l93 -91h6l95 91l43 -36l-120 -120h-42l-120 120zM465 674v-61l-336 -548h341l-12 -65h-400l-9 62l335 547h-327v65h408z" />
    <glyph glyph-name="Zdotaccent" unicode="&#x17b;" horiz-adv-x="518" 
d="M267 881q22 0 37 -16.5t15 -40.5t-15.5 -40t-38.5 -16t-38 16t-15 40t16 40.5t39 16.5zM465 674v-61l-336 -548h341l-12 -65h-400l-9 62l335 547h-327v65h408z" />
    <glyph glyph-name="agrave" unicode="&#xe0;" horiz-adv-x="484" 
d="M352 591l-29 -47l-198 112l38 59zM75 469q32 14 73.5 23t82.5 9q82 0 130 -40t48 -129v-242q0 -28 5 -40.5t30 -12.5h4v-40q-5 -2 -15 -3.5t-18 -1.5q-22 0 -40.5 12t-23.5 41q-32 -29 -71.5 -45t-89.5 -16q-31 0 -58.5 9.5t-48 28t-32.5 45t-12 60.5q0 46 24 84.5
t69 59.5q33 15 75.5 22.5t111.5 7.5h30v27q0 28 -6 50.5t-20.5 37.5t-39.5 23t-63 8q-34 0 -71 -9.5t-64 -21.5zM315 252q-37 0 -67.5 -3t-56.5 -11q-36 -12 -62 -38t-26 -69q0 -38 24.5 -65t75.5 -27q45 0 84.5 20t61.5 46v147h-34z" />
    <glyph glyph-name="aacute" unicode="&#xe1;" horiz-adv-x="484" 
d="M332 715l39 -59l-199 -112l-28 47zM75 469q32 14 73.5 23t82.5 9q82 0 130 -40t48 -129v-242q0 -28 5 -40.5t30 -12.5h4v-40q-5 -2 -15 -3.5t-18 -1.5q-22 0 -40.5 12t-23.5 41q-32 -29 -71.5 -45t-89.5 -16q-31 0 -58.5 9.5t-48 28t-32.5 45t-12 60.5q0 46 24 84.5
t69 59.5q33 15 75.5 22.5t111.5 7.5h30v27q0 28 -6 50.5t-20.5 37.5t-39.5 23t-63 8q-34 0 -71 -9.5t-64 -21.5zM315 252q-37 0 -67.5 -3t-56.5 -11q-36 -12 -62 -38t-26 -69q0 -38 24.5 -65t75.5 -27q45 0 84.5 20t61.5 46v147h-34z" />
    <glyph glyph-name="acircumflex" unicode="&#xe2;" horiz-adv-x="484" 
d="M264 726l120 -121l-45 -36l-93 92h-6l-95 -92l-43 36l120 121h42zM75 469q32 14 73.5 23t82.5 9q82 0 130 -40t48 -129v-242q0 -28 5 -40.5t30 -12.5h4v-40q-5 -2 -15 -3.5t-18 -1.5q-22 0 -40.5 12t-23.5 41q-32 -29 -71.5 -45t-89.5 -16q-31 0 -58.5 9.5t-48 28
t-32.5 45t-12 60.5q0 46 24 84.5t69 59.5q33 15 75.5 22.5t111.5 7.5h30v27q0 28 -6 50.5t-20.5 37.5t-39.5 23t-63 8q-34 0 -71 -9.5t-64 -21.5zM315 252q-37 0 -67.5 -3t-56.5 -11q-36 -12 -62 -38t-26 -69q0 -38 24.5 -65t75.5 -27q45 0 84.5 20t61.5 46v147h-34z" />
    <glyph glyph-name="atilde" unicode="&#xe3;" horiz-adv-x="484" 
d="M94 628q21 42 46 61t48 19q19 0 32.5 -7t29.5 -18l17 -13q10 -6 20 -10.5t21 -4.5q28 0 49 41l36 -33q-13 -32 -35.5 -51t-52.5 -19q-18 0 -32.5 6t-29.5 17l-15 11q-11 8 -19.5 12.5t-19.5 4.5q-17 0 -30.5 -14t-24.5 -36zM75 469q32 14 73.5 23t82.5 9q82 0 130 -40
t48 -129v-242q0 -28 5 -40.5t30 -12.5h4v-40q-5 -2 -15 -3.5t-18 -1.5q-22 0 -40.5 12t-23.5 41q-32 -29 -71.5 -45t-89.5 -16q-31 0 -58.5 9.5t-48 28t-32.5 45t-12 60.5q0 46 24 84.5t69 59.5q33 15 75.5 22.5t111.5 7.5h30v27q0 28 -6 50.5t-20.5 37.5t-39.5 23t-63 8
q-34 0 -71 -9.5t-64 -21.5zM315 252q-37 0 -67.5 -3t-56.5 -11q-36 -12 -62 -38t-26 -69q0 -38 24.5 -65t75.5 -27q45 0 84.5 20t61.5 46v147h-34z" />
    <glyph glyph-name="adieresis" unicode="&#xe4;" horiz-adv-x="484" 
d="M270 641q0 26 14.5 38.5t33.5 12.5q20 0 34 -12.5t14 -38.5v-5q0 -26 -14 -37.5t-34 -11.5q-19 0 -33.5 11.5t-14.5 37.5v5zM114 641q0 26 14 38.5t33 12.5q21 0 34.5 -12.5t13.5 -38.5v-5q0 -26 -13.5 -37.5t-34.5 -11.5q-19 0 -33 11.5t-14 37.5v5zM75 469
q32 14 73.5 23t82.5 9q82 0 130 -40t48 -129v-242q0 -28 5 -40.5t30 -12.5h4v-40q-5 -2 -15 -3.5t-18 -1.5q-22 0 -40.5 12t-23.5 41q-32 -29 -71.5 -45t-89.5 -16q-31 0 -58.5 9.5t-48 28t-32.5 45t-12 60.5q0 46 24 84.5t69 59.5q33 15 75.5 22.5t111.5 7.5h30v27
q0 28 -6 50.5t-20.5 37.5t-39.5 23t-63 8q-34 0 -71 -9.5t-64 -21.5zM315 252q-37 0 -67.5 -3t-56.5 -11q-36 -12 -62 -38t-26 -69q0 -38 24.5 -65t75.5 -27q45 0 84.5 20t61.5 46v147h-34z" />
    <glyph glyph-name="amacron" unicode="&#x101;" horiz-adv-x="484" 
d="M363 651v-57h-248v57h248zM75 469q32 14 73.5 23t82.5 9q82 0 130 -40t48 -129v-242q0 -28 5 -40.5t30 -12.5h4v-40q-5 -2 -15 -3.5t-18 -1.5q-22 0 -40.5 12t-23.5 41q-32 -29 -71.5 -45t-89.5 -16q-31 0 -58.5 9.5t-48 28t-32.5 45t-12 60.5q0 46 24 84.5t69 59.5
q33 15 75.5 22.5t111.5 7.5h30v27q0 28 -6 50.5t-20.5 37.5t-39.5 23t-63 8q-34 0 -71 -9.5t-64 -21.5zM315 252q-37 0 -67.5 -3t-56.5 -11q-36 -12 -62 -38t-26 -69q0 -38 24.5 -65t75.5 -27q45 0 84.5 20t61.5 46v147h-34z" />
    <glyph glyph-name="abreve" unicode="&#x103;" horiz-adv-x="484" 
d="M171 696q7 -24 23.5 -40.5t44.5 -16.5q26 0 44.5 16.5t23.5 40.5l63 -9q-11 -48 -44.5 -76.5t-86.5 -28.5t-86 28.5t-45 76.5zM75 469q32 14 73.5 23t82.5 9q82 0 130 -40t48 -129v-242q0 -28 5 -40.5t30 -12.5h4v-40q-5 -2 -15 -3.5t-18 -1.5q-22 0 -40.5 12t-23.5 41
q-32 -29 -71.5 -45t-89.5 -16q-31 0 -58.5 9.5t-48 28t-32.5 45t-12 60.5q0 46 24 84.5t69 59.5q33 15 75.5 22.5t111.5 7.5h30v27q0 28 -6 50.5t-20.5 37.5t-39.5 23t-63 8q-34 0 -71 -9.5t-64 -21.5zM315 252q-37 0 -67.5 -3t-56.5 -11q-36 -12 -62 -38t-26 -69
q0 -38 24.5 -65t75.5 -27q45 0 84.5 20t61.5 46v147h-34z" />
    <glyph glyph-name="aring" unicode="&#xe5;" horiz-adv-x="484" 
d="M242 741q38 0 62 -24.5t24 -61.5q0 -38 -24 -62.5t-62 -24.5q-37 0 -61.5 24.5t-24.5 62.5q0 37 24.5 61.5t61.5 24.5zM242 696q-19 0 -29.5 -11.5t-10.5 -29.5q0 -19 10.5 -30.5t29.5 -11.5t29.5 11.5t10.5 30.5q0 18 -10.5 29.5t-29.5 11.5zM75 469q32 14 73.5 23
t82.5 9q82 0 130 -40t48 -129v-242q0 -28 5 -40.5t30 -12.5h4v-40q-5 -2 -15 -3.5t-18 -1.5q-22 0 -40.5 12t-23.5 41q-32 -29 -71.5 -45t-89.5 -16q-31 0 -58.5 9.5t-48 28t-32.5 45t-12 60.5q0 46 24 84.5t69 59.5q33 15 75.5 22.5t111.5 7.5h30v27q0 28 -6 50.5
t-20.5 37.5t-39.5 23t-63 8q-34 0 -71 -9.5t-64 -21.5zM315 252q-37 0 -67.5 -3t-56.5 -11q-36 -12 -62 -38t-26 -69q0 -38 24.5 -65t75.5 -27q45 0 84.5 20t61.5 46v147h-34z" />
    <glyph glyph-name="aringacute" unicode="&#x1fb;" horiz-adv-x="484" 
d="M330 925l39 -59l-199 -112l-28 47zM242 723q38 0 62 -24.5t24 -61.5q0 -38 -24 -62.5t-62 -24.5q-37 0 -61.5 24.5t-24.5 62.5q0 37 24.5 61.5t61.5 24.5zM242 678q-19 0 -29.5 -11.5t-10.5 -29.5q0 -19 10.5 -30.5t29.5 -11.5t29.5 11.5t10.5 30.5q0 18 -10.5 29.5
t-29.5 11.5zM75 469q32 14 73.5 23t82.5 9q82 0 130 -40t48 -129v-242q0 -28 5 -40.5t30 -12.5h4v-40q-5 -2 -15 -3.5t-18 -1.5q-22 0 -40.5 12t-23.5 41q-32 -29 -71.5 -45t-89.5 -16q-31 0 -58.5 9.5t-48 28t-32.5 45t-12 60.5q0 46 24 84.5t69 59.5q33 15 75.5 22.5
t111.5 7.5h30v27q0 28 -6 50.5t-20.5 37.5t-39.5 23t-63 8q-34 0 -71 -9.5t-64 -21.5zM315 252q-37 0 -67.5 -3t-56.5 -11q-36 -12 -62 -38t-26 -69q0 -38 24.5 -65t75.5 -27q45 0 84.5 20t61.5 46v147h-34z" />
    <glyph glyph-name="aogonek" unicode="&#x105;" horiz-adv-x="484" 
d="M75 469q32 14 73.5 23t82.5 9q82 0 130 -40t48 -129v-242q0 -28 5 -40.5t30 -12.5h4v-40l-2 -1q-113 -59 -113 -128q0 -24 12.5 -34.5t35.5 -10.5t45 10l11 -50q-13 -7 -30.5 -11.5t-37.5 -4.5q-53 0 -79.5 23.5t-26.5 61.5q0 45 32.5 83.5t87.5 63.5q-26 11 -32 46
q-32 -29 -71.5 -45t-89.5 -16q-31 0 -58.5 9.5t-48 28t-32.5 45t-12 60.5q0 46 24 84.5t69 59.5q33 15 75.5 22.5t111.5 7.5h30v27q0 28 -6 50.5t-20.5 37.5t-39.5 23t-63 8q-34 0 -71 -9.5t-64 -21.5zM315 252q-37 0 -67.5 -3t-56.5 -11q-36 -12 -62 -38t-26 -69
q0 -38 24.5 -65t75.5 -27q45 0 84.5 20t61.5 46v147h-34z" />
    <glyph glyph-name="ae" unicode="&#xe6;" horiz-adv-x="806" 
d="M78 469q32 14 73 23t83 9q60 0 102 -21t62 -66q25 39 65 63t98 24q85 0 132.5 -47t61.5 -135q3 -17 4 -34.5t1 -37.5v-20h-345q5 -86 45 -136.5t118 -50.5q36 0 74.5 8.5t63.5 21.5l10 -53q-30 -15 -70.5 -24t-80.5 -9q-48 0 -88 13t-67 40q-15 15 -26 33
q-33 -38 -82 -62t-114 -24q-34 0 -63 9.5t-50.5 28t-33.5 45t-12 60.5q0 46 24 83t69 57q33 15 77 22.5t113 7.5h30v31q0 28 -6 50.5t-20.5 37.5t-39.5 23t-63 8q-35 0 -71.5 -9.5t-63.5 -21.5zM318 248q-37 0 -67.5 -3t-56.5 -11q-37 -12 -62.5 -36t-25.5 -67
q0 -38 24.5 -65t75.5 -27q50 0 93 22t72 59q-19 53 -19 123v5h-34zM695 279q-3 81 -34.5 122.5t-96.5 41.5q-61 0 -96 -37q-25 -24 -37 -54.5t-15 -72.5h279z" />
    <glyph glyph-name="aeacute" unicode="&#x1fd;" horiz-adv-x="806" 
d="M78 469q32 14 73 23t83 9q60 0 102 -21t62 -66q25 39 65 63t98 24q85 0 132.5 -47t61.5 -135q3 -17 4 -34.5t1 -37.5v-20h-345q5 -86 45 -136.5t118 -50.5q36 0 74.5 8.5t63.5 21.5l10 -53q-30 -15 -70.5 -24t-80.5 -9q-48 0 -88 13t-67 40q-15 15 -26 33
q-33 -38 -82 -62t-114 -24q-34 0 -63 9.5t-50.5 28t-33.5 45t-12 60.5q0 46 24 83t69 57q33 15 77 22.5t113 7.5h30v31q0 28 -6 50.5t-20.5 37.5t-39.5 23t-63 8q-35 0 -71.5 -9.5t-63.5 -21.5zM318 248q-37 0 -67.5 -3t-56.5 -11q-37 -12 -62.5 -36t-25.5 -67
q0 -38 24.5 -65t75.5 -27q50 0 93 22t72 59q-19 53 -19 123v5h-34zM695 279q-3 81 -34.5 122.5t-96.5 41.5q-61 0 -96 -37q-25 -24 -37 -54.5t-15 -72.5h279zM515 715l39 -59l-199 -112l-28 47z" />
    <glyph glyph-name="cacute" unicode="&#x107;" horiz-adv-x="444" 
d="M355 715l39 -59l-199 -112l-28 47zM47 241q0 123 55.5 191.5t165.5 68.5q42 0 79 -11.5t61 -26.5l-10 -58q-18 14 -53 26t-73 12q-161 0 -161 -201q0 -100 36 -151t120 -51q35 0 69.5 8.5t59.5 21.5l10 -53q-30 -15 -66.5 -24t-75.5 -9q-48 0 -86.5 12.5t-65.5 39.5
q-33 33 -49 84t-16 118v3z" />
    <glyph glyph-name="ccedilla" unicode="&#xe7;" horiz-adv-x="444" 
d="M47 241q0 123 55.5 191.5t165.5 68.5q42 0 79 -11.5t61 -26.5l-10 -58q-18 14 -53 26t-73 12q-161 0 -161 -201q0 -100 36 -151t120 -51q35 0 69.5 8.5t59.5 21.5l10 -53q-28 -14 -61.5 -22.5t-69.5 -10.5l-10 -42q92 -6 92 -83q0 -45 -30.5 -68.5t-80.5 -23.5
q-22 0 -44.5 4t-37.5 9l12 48q17 -5 34 -7.5t31 -2.5q29 0 41 9.5t12 28.5q0 23 -19 33.5t-72 7.5l-5 6l21 84q-67 9 -107 49q-33 33 -49 84t-16 118v3z" />
    <glyph glyph-name="ccircumflex" unicode="&#x109;" horiz-adv-x="444" 
d="M279 726l120 -121l-45 -36l-93 92h-6l-95 -92l-43 36l120 121h42zM47 241q0 123 55.5 191.5t165.5 68.5q42 0 79 -11.5t61 -26.5l-10 -58q-18 14 -53 26t-73 12q-161 0 -161 -201q0 -100 36 -151t120 -51q35 0 69.5 8.5t59.5 21.5l10 -53q-30 -15 -66.5 -24t-75.5 -9
q-48 0 -86.5 12.5t-65.5 39.5q-33 33 -49 84t-16 118v3z" />
    <glyph glyph-name="ccaron" unicode="&#x10d;" horiz-adv-x="444" 
d="M164 724l93 -92h6l95 92l43 -36l-120 -121h-42l-120 121zM47 241q0 123 55.5 191.5t165.5 68.5q42 0 79 -11.5t61 -26.5l-10 -58q-18 14 -53 26t-73 12q-161 0 -161 -201q0 -100 36 -151t120 -51q35 0 69.5 8.5t59.5 21.5l10 -53q-30 -15 -66.5 -24t-75.5 -9
q-48 0 -86.5 12.5t-65.5 39.5q-33 33 -49 84t-16 118v3z" />
    <glyph glyph-name="cdotaccent" unicode="&#x10b;" horiz-adv-x="444" 
d="M265 706q22 0 37 -16.5t15 -39.5q0 -24 -15.5 -40t-38.5 -16t-38 16t-15 40q0 23 16 39.5t39 16.5zM47 241q0 123 55.5 191.5t165.5 68.5q42 0 79 -11.5t61 -26.5l-10 -58q-18 14 -53 26t-73 12q-161 0 -161 -201q0 -100 36 -151t120 -51q35 0 69.5 8.5t59.5 21.5l10 -53
q-30 -15 -66.5 -24t-75.5 -9q-48 0 -86.5 12.5t-65.5 39.5q-33 33 -49 84t-16 118v3z" />
    <glyph glyph-name="dcaron" unicode="&#x10f;" horiz-adv-x="521" 
d="M511 666q0 47 43 47q20 0 33 -12t13 -38q0 -51 -40 -146l-39 14q8 21 14 39t9 35q-12 4 -22.5 15t-10.5 34v12zM454 690v-497q0 -41 1.5 -95t3.5 -98h-51l-5 42q-40 -32 -77.5 -45t-75.5 -13q-42 0 -79.5 15.5t-63.5 44.5q-28 31 -44 78.5t-16 107.5v4q0 70 18.5 124.5
t53.5 89.5q26 26 61.5 39.5t78.5 13.5q36 0 71 -8.5t64 -23.5v221h60zM394 409q-26 16 -58.5 25.5t-60.5 9.5q-48 0 -79.5 -17t-50 -45t-26.5 -65t-8 -76q0 -94 36.5 -146.5t114.5 -52.5q36 0 71 15.5t61 40.5v311z" />
    <glyph glyph-name="dcroat" unicode="&#x111;" horiz-adv-x="521" 
d="M394 609v75h60v-75h64v-53h-64v-363q0 -41 1.5 -95t3.5 -98h-51l-5 42q-40 -32 -77.5 -45t-75.5 -13q-42 0 -79.5 15.5t-63.5 44.5q-28 31 -44 78.5t-16 107.5v4q0 70 18.5 124.5t53.5 89.5q26 26 61.5 39.5t78.5 13.5q34 0 68 -7.5t67 -24.5v87h-121v53h121zM394 409
q-26 16 -58.5 25.5t-60.5 9.5q-48 0 -79.5 -17t-50 -45t-26.5 -65t-8 -76q0 -94 36.5 -146.5t114.5 -52.5q36 0 71 15.5t61 40.5v311z" />
    <glyph glyph-name="eth" unicode="&#xf0;" horiz-adv-x="495" 
d="M162 697q47 -13 90 -34l67 54l29 -33l-55 -43q36 -23 63.5 -55.5t46.5 -76.5t29 -100.5t10 -126.5q0 -71 -10.5 -126.5t-34.5 -93.5t-62 -58t-92 -20q-45 0 -81.5 17.5t-62 51t-39 81.5t-13.5 108q0 54 11 100t34.5 79.5t59.5 52.5t87 19q63 0 123 -46q-14 52 -40 91.5
t-70 69.5l-81 -63l-28 32l68 54q-20 11 -43 19.5t-50 15.5zM372 392q-60 48 -125 48q-69 0 -103 -47.5t-34 -148.5q0 -98 36.5 -151t100.5 -53q68 0 100 55t32 181q0 32 -1.5 61t-5.5 55z" />
    <glyph glyph-name="egrave" unicode="&#xe8;" 
d="M367 591l-29 -47l-198 112l38 59zM47 241q0 48 11.5 94.5t36.5 83t64.5 59.5t95.5 23q86 0 133 -47t61 -135q3 -17 4.5 -39.5t1.5 -42.5v-21h-343q5 -86 44 -131t117 -45q34 0 73 8.5t64 21.5l10 -53q-30 -15 -70.5 -24t-79.5 -9q-48 0 -88.5 13t-66.5 40
q-33 33 -50.5 84t-17.5 118v2zM390 269q-4 81 -35.5 127.5t-96.5 46.5q-61 0 -96 -37q-24 -24 -36 -59.5t-15 -77.5h279z" />
    <glyph glyph-name="eacute" unicode="&#xe9;" 
d="M353 715l39 -59l-199 -112l-28 47zM47 241q0 48 11.5 94.5t36.5 83t64.5 59.5t95.5 23q86 0 133 -47t61 -135q3 -17 4.5 -39.5t1.5 -42.5v-21h-343q5 -86 44 -131t117 -45q34 0 73 8.5t64 21.5l10 -53q-30 -15 -70.5 -24t-79.5 -9q-48 0 -88.5 13t-66.5 40
q-33 33 -50.5 84t-17.5 118v2zM390 269q-4 81 -35.5 127.5t-96.5 46.5q-61 0 -96 -37q-24 -24 -36 -59.5t-15 -77.5h279z" />
    <glyph glyph-name="ecircumflex" unicode="&#xea;" 
d="M283 726l120 -121l-45 -36l-93 92h-6l-95 -92l-43 36l120 121h42zM47 241q0 48 11.5 94.5t36.5 83t64.5 59.5t95.5 23q86 0 133 -47t61 -135q3 -17 4.5 -39.5t1.5 -42.5v-21h-343q5 -86 44 -131t117 -45q34 0 73 8.5t64 21.5l10 -53q-30 -15 -70.5 -24t-79.5 -9
q-48 0 -88.5 13t-66.5 40q-33 33 -50.5 84t-17.5 118v2zM390 269q-4 81 -35.5 127.5t-96.5 46.5q-61 0 -96 -37q-24 -24 -36 -59.5t-15 -77.5h279z" />
    <glyph glyph-name="ecaron" unicode="&#x11b;" 
d="M159 724l93 -92h6l95 92l43 -36l-120 -121h-42l-120 121zM47 241q0 48 11.5 94.5t36.5 83t64.5 59.5t95.5 23q86 0 133 -47t61 -135q3 -17 4.5 -39.5t1.5 -42.5v-21h-343q5 -86 44 -131t117 -45q34 0 73 8.5t64 21.5l10 -53q-30 -15 -70.5 -24t-79.5 -9q-48 0 -88.5 13
t-66.5 40q-33 33 -50.5 84t-17.5 118v2zM390 269q-4 81 -35.5 127.5t-96.5 46.5q-61 0 -96 -37q-24 -24 -36 -59.5t-15 -77.5h279z" />
    <glyph glyph-name="edieresis" unicode="&#xeb;" 
d="M291 641q0 26 14.5 38.5t33.5 12.5q20 0 34 -12.5t14 -38.5v-5q0 -26 -14 -37.5t-34 -11.5q-19 0 -33.5 11.5t-14.5 37.5v5zM135 641q0 26 14 38.5t33 12.5q21 0 34.5 -12.5t13.5 -38.5v-5q0 -26 -13.5 -37.5t-34.5 -11.5q-19 0 -33 11.5t-14 37.5v5zM47 241
q0 48 11.5 94.5t36.5 83t64.5 59.5t95.5 23q86 0 133 -47t61 -135q3 -17 4.5 -39.5t1.5 -42.5v-21h-343q5 -86 44 -131t117 -45q34 0 73 8.5t64 21.5l10 -53q-30 -15 -70.5 -24t-79.5 -9q-48 0 -88.5 13t-66.5 40q-33 33 -50.5 84t-17.5 118v2zM390 269q-4 81 -35.5 127.5
t-96.5 46.5q-61 0 -96 -37q-24 -24 -36 -59.5t-15 -77.5h279z" />
    <glyph glyph-name="emacron" unicode="&#x113;" 
d="M378 651v-57h-248v57h248zM47 241q0 48 11.5 94.5t36.5 83t64.5 59.5t95.5 23q86 0 133 -47t61 -135q3 -17 4.5 -39.5t1.5 -42.5v-21h-343q5 -86 44 -131t117 -45q34 0 73 8.5t64 21.5l10 -53q-30 -15 -70.5 -24t-79.5 -9q-48 0 -88.5 13t-66.5 40q-33 33 -50.5 84
t-17.5 118v2zM390 269q-4 81 -35.5 127.5t-96.5 46.5q-61 0 -96 -37q-24 -24 -36 -59.5t-15 -77.5h279z" />
    <glyph glyph-name="ebreve" unicode="&#x115;" 
d="M192 696q7 -24 23.5 -40.5t44.5 -16.5q26 0 44.5 16.5t23.5 40.5l63 -9q-11 -48 -44.5 -76.5t-86.5 -28.5t-86 28.5t-45 76.5zM47 241q0 48 11.5 94.5t36.5 83t64.5 59.5t95.5 23q86 0 133 -47t61 -135q3 -17 4.5 -39.5t1.5 -42.5v-21h-343q5 -86 44 -131t117 -45
q34 0 73 8.5t64 21.5l10 -53q-30 -15 -70.5 -24t-79.5 -9q-48 0 -88.5 13t-66.5 40q-33 33 -50.5 84t-17.5 118v2zM390 269q-4 81 -35.5 127.5t-96.5 46.5q-61 0 -96 -37q-24 -24 -36 -59.5t-15 -77.5h279z" />
    <glyph glyph-name="edotaccent" unicode="&#x117;" 
d="M258 706q22 0 37 -16.5t15 -39.5q0 -24 -15.5 -40t-38.5 -16t-38 16t-15 40q0 23 16 39.5t39 16.5zM47 241q0 48 11.5 94.5t36.5 83t64.5 59.5t95.5 23q86 0 133 -47t61 -135q3 -17 4.5 -39.5t1.5 -42.5v-21h-343q5 -86 44 -131t117 -45q34 0 73 8.5t64 21.5l10 -53
q-30 -15 -70.5 -24t-79.5 -9q-48 0 -88.5 13t-66.5 40q-33 33 -50.5 84t-17.5 118v2zM390 269q-4 81 -35.5 127.5t-96.5 46.5q-61 0 -96 -37q-24 -24 -36 -59.5t-15 -77.5h279z" />
    <glyph glyph-name="eogonek" unicode="&#x119;" 
d="M47 241q0 48 11.5 94.5t36.5 83t64.5 59.5t95.5 23q86 0 133 -47t61 -135q3 -17 4.5 -39.5t1.5 -42.5v-21h-343q5 -86 44 -131t117 -45q34 0 73 8.5t64 21.5l10 -53q-7 -2 -12 -4.5t-13 -5.5q-29 -12 -52.5 -28.5t-40.5 -35.5t-26.5 -39.5t-9.5 -38.5q0 -23 13 -32.5
t35 -9.5q23 0 45 10l12 -50q-14 -7 -31.5 -11.5t-37.5 -4.5q-55 0 -80.5 24.5t-25.5 60.5q0 38 25.5 73t68.5 60q-5 -1 -10 -1h-10q-48 0 -88.5 13t-66.5 40q-33 33 -50.5 84t-17.5 118v2zM390 269q-4 81 -35.5 127.5t-96.5 46.5q-61 0 -96 -37q-24 -24 -36 -59.5t-15 -77.5
h279z" />
    <glyph glyph-name="gcircumflex" unicode="&#x11d;" horiz-adv-x="504" 
d="M272 726l120 -121l-45 -36l-93 92h-6l-95 -92l-43 36l120 121h42zM410 435q16 -20 24.5 -45.5t8.5 -58.5v-3q0 -43 -14.5 -75t-40 -53t-59.5 -31.5t-72 -10.5q-20 0 -42.5 4.5t-39.5 12.5q-16 -6 -25.5 -18t-9.5 -31q0 -25 17.5 -38.5t55.5 -13.5h112q74 0 114 -33
t40 -98q0 -33 -15 -63t-44 -52.5t-71 -35.5t-96 -13q-107 0 -163.5 43.5t-56.5 110.5q0 38 22.5 70.5t60.5 46.5q-16 11 -25.5 31t-9.5 41q0 26 14.5 46t36.5 30q-25 18 -43 50t-18 80v3q0 39 14.5 70.5t39.5 53.5t59 34t73 12q41 0 70 -9.5t53 -27.5q29 18 61.5 31t67.5 19
l-8 -65q-21 0 -45 -4t-46 -10zM217 23q-19 0 -34 0.5t-26 2.5q-27 -8 -45 -31t-18 -55q0 -47 41 -79t122 -32q35 0 64.5 9t51.5 24.5t34 37t12 45.5q0 41 -26 59.5t-82 18.5h-94zM132 329q0 -25 7.5 -46.5t23 -38t39 -26t56.5 -9.5q65 0 94.5 34.5t29.5 85.5q0 25 -7.5 46.5
t-22.5 38t-38.5 26t-55.5 9.5q-33 0 -56.5 -9.5t-39 -26t-23 -38t-7.5 -46.5z" />
    <glyph glyph-name="gbreve" unicode="&#x11f;" horiz-adv-x="504" 
d="M183 696q7 -24 23.5 -40.5t44.5 -16.5q26 0 44.5 16.5t23.5 40.5l63 -9q-11 -48 -44.5 -76.5t-86.5 -28.5t-86 28.5t-45 76.5zM410 435q16 -20 24.5 -45.5t8.5 -58.5v-3q0 -43 -14.5 -75t-40 -53t-59.5 -31.5t-72 -10.5q-20 0 -42.5 4.5t-39.5 12.5q-16 -6 -25.5 -18
t-9.5 -31q0 -25 17.5 -38.5t55.5 -13.5h112q74 0 114 -33t40 -98q0 -33 -15 -63t-44 -52.5t-71 -35.5t-96 -13q-107 0 -163.5 43.5t-56.5 110.5q0 38 22.5 70.5t60.5 46.5q-16 11 -25.5 31t-9.5 41q0 26 14.5 46t36.5 30q-25 18 -43 50t-18 80v3q0 39 14.5 70.5t39.5 53.5
t59 34t73 12q41 0 70 -9.5t53 -27.5q29 18 61.5 31t67.5 19l-8 -65q-21 0 -45 -4t-46 -10zM217 23q-19 0 -34 0.5t-26 2.5q-27 -8 -45 -31t-18 -55q0 -47 41 -79t122 -32q35 0 64.5 9t51.5 24.5t34 37t12 45.5q0 41 -26 59.5t-82 18.5h-94zM132 329q0 -25 7.5 -46.5t23 -38
t39 -26t56.5 -9.5q65 0 94.5 34.5t29.5 85.5q0 25 -7.5 46.5t-22.5 38t-38.5 26t-55.5 9.5q-33 0 -56.5 -9.5t-39 -26t-23 -38t-7.5 -46.5z" />
    <glyph glyph-name="gdotaccent" unicode="&#x121;" horiz-adv-x="504" 
d="M252 706q22 0 37 -16.5t15 -39.5q0 -24 -15.5 -40t-38.5 -16t-38 16t-15 40q0 23 16 39.5t39 16.5zM410 435q16 -20 24.5 -45.5t8.5 -58.5v-3q0 -43 -14.5 -75t-40 -53t-59.5 -31.5t-72 -10.5q-20 0 -42.5 4.5t-39.5 12.5q-16 -6 -25.5 -18t-9.5 -31q0 -25 17.5 -38.5
t55.5 -13.5h112q74 0 114 -33t40 -98q0 -33 -15 -63t-44 -52.5t-71 -35.5t-96 -13q-107 0 -163.5 43.5t-56.5 110.5q0 38 22.5 70.5t60.5 46.5q-16 11 -25.5 31t-9.5 41q0 26 14.5 46t36.5 30q-25 18 -43 50t-18 80v3q0 39 14.5 70.5t39.5 53.5t59 34t73 12q41 0 70 -9.5
t53 -27.5q29 18 61.5 31t67.5 19l-8 -65q-21 0 -45 -4t-46 -10zM217 23q-19 0 -34 0.5t-26 2.5q-27 -8 -45 -31t-18 -55q0 -47 41 -79t122 -32q35 0 64.5 9t51.5 24.5t34 37t12 45.5q0 41 -26 59.5t-82 18.5h-94zM132 329q0 -25 7.5 -46.5t23 -38t39 -26t56.5 -9.5
q65 0 94.5 34.5t29.5 85.5q0 25 -7.5 46.5t-22.5 38t-38.5 26t-55.5 9.5q-33 0 -56.5 -9.5t-39 -26t-23 -38t-7.5 -46.5z" />
    <glyph glyph-name="gcommaaccent" unicode="&#x123;" horiz-adv-x="504" 
d="M284 617q0 -47 -43 -47q-20 0 -33 12t-13 38q0 51 40 146l39 -14q-8 -21 -14 -39t-9 -35q12 -4 22.5 -15t10.5 -34v-12zM410 435q16 -20 24.5 -45.5t8.5 -58.5v-3q0 -43 -14.5 -75t-40 -53t-59.5 -31.5t-72 -10.5q-20 0 -42.5 4.5t-39.5 12.5q-16 -6 -25.5 -18t-9.5 -31
q0 -25 17.5 -38.5t55.5 -13.5h112q74 0 114 -33t40 -98q0 -33 -15 -63t-44 -52.5t-71 -35.5t-96 -13q-107 0 -163.5 43.5t-56.5 110.5q0 38 22.5 70.5t60.5 46.5q-16 11 -25.5 31t-9.5 41q0 26 14.5 46t36.5 30q-25 18 -43 50t-18 80v3q0 39 14.5 70.5t39.5 53.5t59 34
t73 12q41 0 70 -9.5t53 -27.5q29 18 61.5 31t67.5 19l-8 -65q-21 0 -45 -4t-46 -10zM217 23q-19 0 -34 0.5t-26 2.5q-27 -8 -45 -31t-18 -55q0 -47 41 -79t122 -32q35 0 64.5 9t51.5 24.5t34 37t12 45.5q0 41 -26 59.5t-82 18.5h-94zM132 329q0 -25 7.5 -46.5t23 -38t39 -26
t56.5 -9.5q65 0 94.5 34.5t29.5 85.5q0 25 -7.5 46.5t-22.5 38t-38.5 26t-55.5 9.5q-33 0 -56.5 -9.5t-39 -26t-23 -38t-7.5 -46.5z" />
    <glyph glyph-name="hcircumflex" unicode="&#x125;" horiz-adv-x="526" 
d="M127 690v-263q36 35 81.5 54.5t91.5 19.5q82 0 121 -40q22 -22 31.5 -55.5t9.5 -83.5v-322h-60v311q0 38 -6 63.5t-21 40.5q-13 14 -33 20t-49 6q-39 0 -85 -21t-81 -59v-361h-60v690h60zM118 852l120 -121l-45 -36l-93 92h-6l-95 -92l-43 36l120 121h42z" />
    <glyph glyph-name="hbar" unicode="&#x127;" horiz-adv-x="526" 
d="M127 674v-65h135v-53h-135v-129q36 35 81.5 54.5t91.5 19.5q82 0 121 -40q22 -22 31.5 -55.5t9.5 -83.5v-322h-60v311q0 38 -6 63.5t-21 40.5q-13 14 -33 20t-49 6q-39 0 -85 -21t-81 -59v-361h-60v556h-50v53h50v65h60z" />
    <glyph glyph-name="dotlessi" unicode="&#x131;" horiz-adv-x="210" 
d="M135 485v-485h-60v485h60z" />
    <glyph glyph-name="igrave" unicode="&#xec;" horiz-adv-x="210" 
d="M201 591l-29 -47l-198 112l38 59zM135 485v-485h-60v485h60z" />
    <glyph glyph-name="iacute" unicode="&#xed;" horiz-adv-x="210" 
d="M211 715l39 -59l-199 -112l-28 47zM135 485v-485h-60v485h60z" />
    <glyph glyph-name="icircumflex" unicode="&#xee;" horiz-adv-x="210" 
d="M135 485v-485h-60v485h60zM126 726l120 -121l-45 -36l-93 92h-6l-95 -92l-43 36l120 121h42z" />
    <glyph glyph-name="itilde" unicode="&#x129;" horiz-adv-x="210" 
d="M-44 628q21 42 46 61t48 19q19 0 32.5 -7t29.5 -18l17 -13q10 -6 20 -10.5t21 -4.5q28 0 49 41l36 -33q-13 -32 -35.5 -51t-52.5 -19q-18 0 -32.5 6t-29.5 17l-15 11q-11 8 -19.5 12.5t-19.5 4.5q-17 0 -30.5 -14t-24.5 -36zM135 485v-485h-60v485h60z" />
    <glyph glyph-name="idieresis" unicode="&#xef;" horiz-adv-x="210" 
d="M135 641q0 26 14.5 38.5t33.5 12.5q20 0 34 -12.5t14 -38.5v-5q0 -26 -14 -37.5t-34 -11.5q-19 0 -33.5 11.5t-14.5 37.5v5zM-21 641q0 26 14 38.5t33 12.5q21 0 34.5 -12.5t13.5 -38.5v-5q0 -26 -13.5 -37.5t-34.5 -11.5q-19 0 -33 11.5t-14 37.5v5zM135 485v-485h-60
v485h60z" />
    <glyph glyph-name="imacron" unicode="&#x12b;" horiz-adv-x="210" 
d="M229 651v-57h-248v57h248zM135 485v-485h-60v485h60z" />
    <glyph glyph-name="ibreve" unicode="&#x12d;" horiz-adv-x="210" 
d="M37 696q7 -24 23.5 -40.5t44.5 -16.5q26 0 44.5 16.5t23.5 40.5l63 -9q-11 -48 -44.5 -76.5t-86.5 -28.5t-86 28.5t-45 76.5zM135 485v-485h-60v485h60z" />
    <glyph glyph-name="iogonek" unicode="&#x12f;" horiz-adv-x="210" 
d="M135 485v-485q-57 -29 -86.5 -63t-29.5 -68q0 -46 49 -46q23 0 45 10l11 -50q-13 -7 -31 -11.5t-38 -4.5q-52 0 -78.5 24t-26.5 65q0 21 9 43t25.5 42.5t39.5 38.5t51 30v475h60zM67 641q0 23 8.5 36t29.5 13q38 0 38 -49v-8q0 -47 -38 -47q-21 0 -29.5 12t-8.5 35v8z
" />
    <glyph glyph-name="ij" unicode="&#x133;" horiz-adv-x="411" 
d="M135 485v-485h-60v485h60zM68 688h73v-94h-73v94zM339 485v-491q0 -54 -7 -92t-23.5 -62t-43 -35t-65.5 -11q-22 0 -38 3l5 52q5 -1 13 -1.5t17 -0.5q23 0 38.5 7t25.5 23.5t14 45t4 70.5v492h60zM272 688h73v-94h-73v94z" />
    <glyph glyph-name="jcircumflex" unicode="&#x135;" horiz-adv-x="207" 
d="M135 485v-481q0 -103 -35 -156.5t-118 -53.5h-8t-10 1l3 52q26 0 46 5.5t34 22t21 46.5t7 77v487h60zM125 726l120 -121l-45 -36l-93 92h-6l-95 -92l-43 36l120 121h42z" />
    <glyph glyph-name="kcommaaccent" unicode="&#x137;" horiz-adv-x="434" 
d="M172 -113q0 47 43 47q20 0 33 -12t13 -38q0 -51 -40 -146l-39 14q8 21 14 39t9 35q-12 4 -22.5 15t-10.5 34v12zM127 690v-424q51 39 107 97.5t103 121.5h70q-78 -113 -166 -196l175 -289h-72l-149 247q-17 -14 -34 -27t-34 -25v-195h-60v690h60z" />
    <glyph glyph-name="kgreenlandic" unicode="&#x138;" horiz-adv-x="434" 
d="M127 485v-219q51 39 107 97.5t103 121.5h70q-78 -113 -166 -196l175 -289h-72l-149 247q-17 -14 -34 -27t-34 -25v-195h-60v485h60z" />
    <glyph glyph-name="lacute" unicode="&#x13a;" horiz-adv-x="200" 
d="M202 897l39 -59l-199 -112l-28 47zM130 690v-690h-60v690h60z" />
    <glyph glyph-name="lcaron" unicode="&#x13e;" horiz-adv-x="200" 
d="M178 666q0 47 43 47q20 0 33 -12t13 -38q0 -51 -40 -146l-39 14q8 21 14 39t9 35q-12 4 -22.5 15t-10.5 34v12zM130 690v-690h-60v690h60z" />
    <glyph glyph-name="lcommaaccent" unicode="&#x13c;" horiz-adv-x="200" 
d="M56 -113q0 47 43 47q20 0 33 -12t13 -38q0 -51 -40 -146l-39 14q8 21 14 39t9 35q-12 4 -22.5 15t-10.5 34v12zM130 690v-690h-60v690h60z" />
    <glyph glyph-name="lslash" unicode="&#x142;" horiz-adv-x="200" 
d="M130 684v-302l95 106v-65l-95 -106v-317h-60v250l-81 -89v65l81 89v369h60z" />
    <glyph glyph-name="longs" unicode="&#x17f;" horiz-adv-x="251" 
d="M100 485v40q0 38 8 72.5t30 57.5q24 26 55.5 35t68.5 9q9 0 21.5 -1t23.5 -3l-6 -49q-5 1 -15.5 2t-16.5 1q-29 0 -48 -5.5t-33 -17.5q-16 -15 -22 -39.5t-6 -66.5v-520h-60v433h-76v52h76z" />
    <glyph glyph-name="ldot" unicode="&#x140;" horiz-adv-x="300" 
d="M249 381q22 0 37 -16.5t15 -39.5q0 -24 -15.5 -40t-38.5 -16t-38 16t-15 40q0 23 16 39.5t39 16.5zM130 690v-690h-60v690h60z" />
    <glyph glyph-name="nacute" unicode="&#x144;" horiz-adv-x="526" 
d="M116 485l8 -61q37 37 82.5 57t93.5 20q82 0 121 -40q22 -22 31.5 -55.5t9.5 -83.5v-322h-60v311q0 38 -6 63.5t-21 40.5q-13 14 -33 20t-49 6q-42 0 -86.5 -21t-79.5 -59v-361h-60v485h49zM365 715l39 -59l-199 -112l-28 47z" />
    <glyph glyph-name="ncaron" unicode="&#x148;" horiz-adv-x="526" 
d="M116 485l8 -61q37 37 82.5 57t93.5 20q82 0 121 -40q22 -22 31.5 -55.5t9.5 -83.5v-322h-60v311q0 38 -6 63.5t-21 40.5q-13 14 -33 20t-49 6q-42 0 -86.5 -21t-79.5 -59v-361h-60v485h49zM167 724l93 -92h6l95 92l43 -36l-120 -121h-42l-120 121z" />
    <glyph glyph-name="ntilde" unicode="&#xf1;" horiz-adv-x="526" 
d="M116 485l8 -61q37 37 82.5 57t93.5 20q82 0 121 -40q22 -22 31.5 -55.5t9.5 -83.5v-322h-60v311q0 38 -6 63.5t-21 40.5q-13 14 -33 20t-49 6q-42 0 -86.5 -21t-79.5 -59v-361h-60v485h49zM124 628q21 42 46 61t48 19q19 0 32.5 -7t29.5 -18l17 -13q10 -6 20 -10.5
t21 -4.5q28 0 49 41l36 -33q-13 -32 -35.5 -51t-52.5 -19q-18 0 -32.5 6t-29.5 17l-15 11q-11 8 -19.5 12.5t-19.5 4.5q-17 0 -30.5 -14t-24.5 -36z" />
    <glyph glyph-name="ncommaaccent" unicode="&#x146;" horiz-adv-x="526" 
d="M116 485l8 -61q37 37 82.5 57t93.5 20q82 0 121 -40q22 -22 31.5 -55.5t9.5 -83.5v-322h-60v311q0 38 -6 63.5t-21 40.5q-13 14 -33 20t-49 6q-42 0 -86.5 -21t-79.5 -59v-361h-60v485h49zM224 -113q0 47 43 47q20 0 33 -12t13 -38q0 -51 -40 -146l-39 14q8 21 14 39
t9 35q-12 4 -22.5 15t-10.5 34v12z" />
    <glyph glyph-name="napostrophe" unicode="&#x149;" horiz-adv-x="526" 
d="M116 485l8 -61q37 37 82.5 57t93.5 20q82 0 121 -40q22 -22 31.5 -55.5t9.5 -83.5v-322h-60v311q0 38 -6 63.5t-21 40.5q-13 14 -33 20t-49 6q-42 0 -86.5 -21t-79.5 -59v-361h-60v485h49zM-35 666q0 47 43 47q20 0 33 -12t13 -38q0 -51 -40 -146l-39 14q8 21 14 39t9 35
q-12 4 -22.5 15t-10.5 34v12z" />
    <glyph glyph-name="eng" unicode="&#x14b;" horiz-adv-x="526" 
d="M116 485l8 -61q37 37 82.5 57t93.5 20q85 0 123.5 -41.5t38.5 -137.5v-347q0 -95 -35 -138t-118 -43h-8t-10 1l3 52h6q27 0 47.5 6.5t33.5 23.5q11 14 16 35.5t5 56.5v342q0 71 -23.5 100.5t-85.5 29.5q-42 0 -86.5 -21t-79.5 -59v-361h-60v485h49z" />
    <glyph glyph-name="ograve" unicode="&#xf2;" horiz-adv-x="519" 
d="M47 243q0 125 52 191.5t160 66.5q109 0 161 -66t52 -191v-2q0 -125 -52 -191.5t-161 -66.5q-108 0 -160 66.5t-52 191.5v1zM260 447q-78 0 -113.5 -51.5t-35.5 -153.5q0 -101 35.5 -152.5t113.5 -51.5t113 51.5t35 152.5q0 102 -35 153.5t-113 51.5zM369 591l-29 -47
l-198 112l38 59z" />
    <glyph glyph-name="oacute" unicode="&#xf3;" horiz-adv-x="519" 
d="M47 243q0 125 52 191.5t160 66.5q109 0 161 -66t52 -191v-2q0 -125 -52 -191.5t-161 -66.5q-108 0 -160 66.5t-52 191.5v1zM260 447q-78 0 -113.5 -51.5t-35.5 -153.5q0 -101 35.5 -152.5t113.5 -51.5t113 51.5t35 152.5q0 102 -35 153.5t-113 51.5zM357 715l39 -59
l-199 -112l-28 47z" />
    <glyph glyph-name="ocircumflex" unicode="&#xf4;" horiz-adv-x="519" 
d="M47 243q0 125 52 191.5t160 66.5q109 0 161 -66t52 -191v-2q0 -125 -52 -191.5t-161 -66.5q-108 0 -160 66.5t-52 191.5v1zM260 447q-78 0 -113.5 -51.5t-35.5 -153.5q0 -101 35.5 -152.5t113.5 -51.5t113 51.5t35 152.5q0 102 -35 153.5t-113 51.5zM282 726l120 -121
l-45 -36l-93 92h-6l-95 -92l-43 36l120 121h42z" />
    <glyph glyph-name="otilde" unicode="&#xf5;" horiz-adv-x="519" 
d="M47 243q0 125 52 191.5t160 66.5q109 0 161 -66t52 -191v-2q0 -125 -52 -191.5t-161 -66.5q-108 0 -160 66.5t-52 191.5v1zM260 447q-78 0 -113.5 -51.5t-35.5 -153.5q0 -101 35.5 -152.5t113.5 -51.5t113 51.5t35 152.5q0 102 -35 153.5t-113 51.5zM112 628q21 42 46 61
t48 19q19 0 32.5 -7t29.5 -18l17 -13q10 -6 20 -10.5t21 -4.5q28 0 49 41l36 -33q-13 -32 -35.5 -51t-52.5 -19q-18 0 -32.5 6t-29.5 17l-15 11q-11 8 -19.5 12.5t-19.5 4.5q-17 0 -30.5 -14t-24.5 -36z" />
    <glyph glyph-name="odieresis" unicode="&#xf6;" horiz-adv-x="519" 
d="M47 243q0 125 52 191.5t160 66.5q109 0 161 -66t52 -191v-2q0 -125 -52 -191.5t-161 -66.5q-108 0 -160 66.5t-52 191.5v1zM260 447q-78 0 -113.5 -51.5t-35.5 -153.5q0 -101 35.5 -152.5t113.5 -51.5t113 51.5t35 152.5q0 102 -35 153.5t-113 51.5zM293 641
q0 26 14.5 38.5t33.5 12.5q20 0 34 -12.5t14 -38.5v-5q0 -26 -14 -37.5t-34 -11.5q-19 0 -33.5 11.5t-14.5 37.5v5zM137 641q0 26 14 38.5t33 12.5q21 0 34.5 -12.5t13.5 -38.5v-5q0 -26 -13.5 -37.5t-34.5 -11.5q-19 0 -33 11.5t-14 37.5v5z" />
    <glyph glyph-name="omacron" unicode="&#x14d;" horiz-adv-x="519" 
d="M47 243q0 125 52 191.5t160 66.5q109 0 161 -66t52 -191v-2q0 -125 -52 -191.5t-161 -66.5q-108 0 -160 66.5t-52 191.5v1zM260 447q-78 0 -113.5 -51.5t-35.5 -153.5q0 -101 35.5 -152.5t113.5 -51.5t113 51.5t35 152.5q0 102 -35 153.5t-113 51.5zM383 651v-57h-248v57
h248z" />
    <glyph glyph-name="obreve" unicode="&#x14f;" horiz-adv-x="519" 
d="M47 243q0 125 52 191.5t160 66.5q109 0 161 -66t52 -191v-2q0 -125 -52 -191.5t-161 -66.5q-108 0 -160 66.5t-52 191.5v1zM260 447q-78 0 -113.5 -51.5t-35.5 -153.5q0 -101 35.5 -152.5t113.5 -51.5t113 51.5t35 152.5q0 102 -35 153.5t-113 51.5zM191 696
q7 -24 23.5 -40.5t44.5 -16.5q26 0 44.5 16.5t23.5 40.5l63 -9q-11 -48 -44.5 -76.5t-86.5 -28.5t-86 28.5t-45 76.5z" />
    <glyph glyph-name="ohungarumlaut" unicode="&#x151;" horiz-adv-x="519" 
d="M47 243q0 125 52 191.5t160 66.5q109 0 161 -66t52 -191v-2q0 -125 -52 -191.5t-161 -66.5q-108 0 -160 66.5t-52 191.5v1zM260 447q-78 0 -113.5 -51.5t-35.5 -153.5q0 -101 35.5 -152.5t113.5 -51.5t113 51.5t35 152.5q0 102 -35 153.5t-113 51.5zM323 695l-137 -156
l-43 32l122 160zM476 695l-137 -156l-42 32l121 160z" />
    <glyph glyph-name="oslash" unicode="&#xf8;" horiz-adv-x="519" 
d="M47 243q0 125 52 191.5t160 66.5q47 0 86 -14l38 83l47 -20l-40 -87q82 -63 82 -219v-2q0 -125 -52 -191.5t-161 -66.5q-48 0 -81 13l-37 -81l-47 21l38 82q-44 31 -64.5 87t-20.5 136v1zM322 436q-28 11 -62 11q-78 0 -113.5 -51.5t-35.5 -153.5q0 -57 11 -98.5
t35 -67.5zM201 48q12 -5 27 -7.5t32 -2.5q78 0 113 51.5t35 152.5q0 115 -44 163z" />
    <glyph glyph-name="oslashacute" unicode="&#x1ff;" horiz-adv-x="519" 
d="M349 715l39 -59l-199 -112l-28 47zM47 243q0 125 52 191.5t160 66.5q47 0 86 -14l38 83l47 -20l-40 -87q82 -63 82 -219v-2q0 -125 -52 -191.5t-161 -66.5q-48 0 -81 13l-37 -81l-47 21l38 82q-44 31 -64.5 87t-20.5 136v1zM322 436q-28 11 -62 11q-78 0 -113.5 -51.5
t-35.5 -153.5q0 -57 11 -98.5t35 -67.5zM201 48q12 -5 27 -7.5t32 -2.5q78 0 113 51.5t35 152.5q0 115 -44 163z" />
    <glyph glyph-name="oe" unicode="&#x153;" horiz-adv-x="863" 
d="M47 243q0 125 52 191.5t160 66.5q133 0 184 -108q23 51 66.5 79.5t107.5 28.5q85 0 132.5 -47t61.5 -135q3 -17 4.5 -39.5t1.5 -42.5v-21h-344q5 -86 44.5 -131t116.5 -45q36 0 74.5 8.5t63.5 21.5l10 -53q-30 -15 -70.5 -24t-79.5 -9q-48 0 -88.5 13t-67.5 40
q-10 10 -18.5 22t-16.5 29q-27 -52 -71.5 -78t-110.5 -26q-108 0 -160 66.5t-52 191.5v1zM408 250q-1 98 -36.5 147.5t-111.5 49.5q-78 0 -113.5 -51.5t-35.5 -153.5q0 -101 35.5 -152.5t113.5 -51.5q148 0 148 194v18zM752 269q-4 81 -35.5 127.5t-96.5 46.5q-61 0 -96 -37
q-24 -24 -36.5 -59.5t-15.5 -77.5h280z" />
    <glyph glyph-name="thorn" unicode="&#xfe;" horiz-adv-x="522" 
d="M127 684v-240q41 32 82.5 44.5t70.5 12.5q39 0 74.5 -13.5t62.5 -44.5q28 -31 43 -79.5t15 -108.5v-5q0 -70 -18.5 -124.5t-53.5 -89.5q-54 -52 -140 -52q-35 0 -69 8t-67 25v-207h-60v874h60zM127 77q26 -17 58.5 -26.5t61.5 -9.5q48 0 79.5 17t50 45t26.5 64.5t8 75.5
q0 40 -8 83.5t-36 74.5q-36 39 -98 39q-42 0 -79 -18.5t-63 -42.5v-302z" />
    <glyph glyph-name="racute" unicode="&#x155;" horiz-adv-x="303" 
d="M290 715l39 -59l-199 -112l-28 47zM116 485l7 -67q29 31 69 53t91 26v-68q-45 -2 -86 -21t-70 -47v-361h-60v485h49z" />
    <glyph glyph-name="rcaron" unicode="&#x159;" horiz-adv-x="303" 
d="M79 724l93 -92h6l95 92l43 -36l-120 -121h-42l-120 121zM116 485l7 -67q29 31 69 53t91 26v-68q-45 -2 -86 -21t-70 -47v-361h-60v485h49z" />
    <glyph glyph-name="rcommaaccent" unicode="&#x157;" horiz-adv-x="303" 
d="M53 -113q0 47 43 47q20 0 33 -12t13 -38q0 -51 -40 -146l-39 14q8 21 14 39t9 35q-12 4 -22.5 15t-10.5 34v12zM116 485l7 -67q29 31 69 53t91 26v-68q-45 -2 -86 -21t-70 -47v-361h-60v485h49z" />
    <glyph glyph-name="sacute" unicode="&#x15b;" horiz-adv-x="401" 
d="M328 430q-24 8 -51 12.5t-48 4.5q-63 0 -91 -22.5t-28 -59.5q0 -22 7.5 -36.5t21 -24.5t31.5 -16.5t39 -12.5l25 -8q36 -11 60.5 -23.5t39.5 -28t22 -36t7 -48.5q0 -41 -12.5 -69t-35.5 -45t-55.5 -25t-71.5 -8q-35 0 -72 8t-65 20l5 53q29 -13 64 -21t62 -8q25 0 47 3.5
t38.5 13t25.5 27t9 45.5q0 35 -22.5 54t-67.5 32l-28 8q-25 7 -49.5 16.5t-43.5 24.5t-30.5 39t-11.5 60q0 37 14 64t38 44.5t55.5 25.5t67.5 8q26 0 55.5 -5t54.5 -13zM305 715l39 -59l-199 -112l-28 47z" />
    <glyph glyph-name="scircumflex" unicode="&#x15d;" horiz-adv-x="401" 
d="M328 430q-24 8 -51 12.5t-48 4.5q-63 0 -91 -22.5t-28 -59.5q0 -22 7.5 -36.5t21 -24.5t31.5 -16.5t39 -12.5l25 -8q36 -11 60.5 -23.5t39.5 -28t22 -36t7 -48.5q0 -41 -12.5 -69t-35.5 -45t-55.5 -25t-71.5 -8q-35 0 -72 8t-65 20l5 53q29 -13 64 -21t62 -8q25 0 47 3.5
t38.5 13t25.5 27t9 45.5q0 35 -22.5 54t-67.5 32l-28 8q-25 7 -49.5 16.5t-43.5 24.5t-30.5 39t-11.5 60q0 37 14 64t38 44.5t55.5 25.5t67.5 8q26 0 55.5 -5t54.5 -13zM230 726l120 -121l-45 -36l-93 92h-6l-95 -92l-43 36l120 121h42z" />
    <glyph glyph-name="scaron" unicode="&#x161;" horiz-adv-x="401" 
d="M328 430q-24 8 -51 12.5t-48 4.5q-63 0 -91 -22.5t-28 -59.5q0 -22 7.5 -36.5t21 -24.5t31.5 -16.5t39 -12.5l25 -8q36 -11 60.5 -23.5t39.5 -28t22 -36t7 -48.5q0 -41 -12.5 -69t-35.5 -45t-55.5 -25t-71.5 -8q-35 0 -72 8t-65 20l5 53q29 -13 64 -21t62 -8q25 0 47 3.5
t38.5 13t25.5 27t9 45.5q0 35 -22.5 54t-67.5 32l-28 8q-25 7 -49.5 16.5t-43.5 24.5t-30.5 39t-11.5 60q0 37 14 64t38 44.5t55.5 25.5t67.5 8q26 0 55.5 -5t54.5 -13zM115 724l93 -92h6l95 92l43 -36l-120 -121h-42l-120 121z" />
    <glyph glyph-name="scedilla" unicode="&#x15f;" horiz-adv-x="401" 
d="M328 430q-24 8 -51 12.5t-48 4.5q-63 0 -91 -22.5t-28 -59.5q0 -22 7.5 -36.5t21 -24.5t31.5 -16.5t39 -12.5l25 -8q36 -11 60.5 -23.5t39.5 -28t22 -36t7 -48.5q0 -73 -39 -106.5t-105 -39.5l-9 -43q92 -6 92 -83q0 -45 -30 -68.5t-80 -23.5q-23 0 -45.5 4t-37.5 9
l12 48q17 -5 34 -7.5t31 -2.5q29 0 41 9.5t12 28.5q0 21 -15 31.5t-55 10.5h-10t-11 -1l-5 6l21 82q-30 2 -60 9.5t-53 17.5l5 53q29 -13 64 -21t62 -8q25 0 47 3.5t38.5 13t25.5 27t9 45.5q0 35 -22.5 53.5t-67.5 31.5l-28 8q-25 7 -49.5 16.5t-43.5 25t-30.5 39.5
t-11.5 60q0 37 14 64t38 44.5t55.5 25.5t67.5 8q26 0 55.5 -5t54.5 -13z" />
    <glyph glyph-name="scommaaccent" unicode="&#x219;" horiz-adv-x="401" 
d="M328 430q-24 8 -51 12.5t-48 4.5q-63 0 -91 -22.5t-28 -59.5q0 -22 7.5 -36.5t21 -24.5t31.5 -16.5t39 -12.5l25 -8q36 -11 60.5 -23.5t39.5 -28t22 -36t7 -48.5q0 -41 -12.5 -69t-35.5 -45t-55.5 -25t-71.5 -8q-35 0 -72 8t-65 20l5 53q29 -13 64 -21t62 -8q25 0 47 3.5
t38.5 13t25.5 27t9 45.5q0 35 -22.5 54t-67.5 32l-28 8q-25 7 -49.5 16.5t-43.5 24.5t-30.5 39t-11.5 60q0 37 14 64t38 44.5t55.5 25.5t67.5 8q26 0 55.5 -5t54.5 -13zM164 -113q0 47 43 47q20 0 33 -12t13 -38q0 -51 -40 -146l-39 14q8 21 14 39t9 35q-12 4 -22.5 15
t-10.5 34v12z" />
    <glyph glyph-name="germandbls" unicode="&#xdf;" horiz-adv-x="498" 
d="M127 -145h-60v821q74 23 148 23q41 0 77.5 -10t63.5 -30.5t43 -52.5t16 -76q0 -51 -24 -91t-70 -57v-2q36 -8 62 -25.5t42.5 -41t24.5 -50t8 -53.5q0 -51 -18.5 -90t-49.5 -66t-72 -40.5t-86 -13.5q-8 0 -18 0.5t-18 1.5l2 48q9 -1 13 -1h8q37 0 69.5 10t56 29.5t37 49.5
t13.5 71q0 35 -12 61.5t-34 44.5t-51.5 27.5t-65.5 9.5v49q59 4 91 34.5t32 90.5q0 32 -11 54.5t-30 37t-44.5 21t-54.5 6.5q-25 0 -47.5 -3.5t-40.5 -9.5v-777z" />
    <glyph glyph-name="tcaron" unicode="&#x165;" horiz-adv-x="315" 
d="M211 666q0 47 43 47q20 0 33 -12t13 -38q0 -51 -40 -146l-39 14q8 21 14 39t9 35q-12 4 -22.5 15t-10.5 34v12zM155 630v-145h126l-3 -52h-123v-259q0 -44 4.5 -71t16 -42t31 -20.5t49.5 -5.5q5 0 12.5 0.5t14.5 1.5l5 -50q-13 -2 -27.5 -2.5t-19.5 -0.5
q-42 0 -70.5 10.5t-45 31.5t-23.5 51.5t-7 70.5v285h-76v52h76v136z" />
    <glyph glyph-name="tcommaaccent" unicode="&#x163;" horiz-adv-x="315" 
d="M145 -113q0 47 43 47q20 0 33 -12t13 -38q0 -51 -40 -146l-39 14q8 21 14 39t9 35q-12 4 -22.5 15t-10.5 34v12zM155 630v-145h126l-3 -52h-123v-259q0 -44 4.5 -71t16 -42t31 -20.5t49.5 -5.5q5 0 12.5 0.5t14.5 1.5l5 -50q-13 -2 -27.5 -2.5t-19.5 -0.5
q-42 0 -70.5 10.5t-45 31.5t-23.5 51.5t-7 70.5v285h-76v52h76v136z" />
    <glyph glyph-name="uni021B" unicode="&#x21b;" horiz-adv-x="315" 
d="M145 -113q0 47 43 47q20 0 33 -12t13 -38q0 -51 -40 -146l-39 14q8 21 14 39t9 35q-12 4 -22.5 15t-10.5 34v12zM155 630v-145h126l-3 -52h-123v-259q0 -44 4.5 -71t16 -42t31 -20.5t49.5 -5.5q5 0 12.5 0.5t14.5 1.5l5 -50q-13 -2 -27.5 -2.5t-19.5 -0.5
q-42 0 -70.5 10.5t-45 31.5t-23.5 51.5t-7 70.5v285h-76v52h76v136z" />
    <glyph glyph-name="tbar" unicode="&#x167;" horiz-adv-x="315" 
d="M155 630v-145h126l-3 -52h-123v-160h111l-5 -53h-106v-46q0 -44 4.5 -71t16 -42t31 -20.5t49.5 -5.5q5 0 12.5 0.5t14.5 1.5l5 -50q-13 -2 -27.5 -2.5t-19.5 -0.5q-42 0 -70.5 10.5t-45 31.5t-23.5 51.5t-7 70.5v72h-76v53h76v160h-76v52h76v136z" />
    <glyph glyph-name="ugrave" unicode="&#xf9;" horiz-adv-x="512" 
d="M124 485v-263q0 -35 1 -59.5t4.5 -43t10 -31.5t18.5 -23q19 -16 44 -21.5t54 -5.5t54 5.5t44 21.5q12 10 18.5 23t10 31.5t4.5 43t1 59.5v263h60v-264q0 -55 -5.5 -99t-25 -74.5t-58 -47t-103.5 -16.5t-103 16.5t-58 47t-25.5 74.5t-5.5 99v264h60zM355 591l-29 -47
l-198 112l38 59z" />
    <glyph glyph-name="uacute" unicode="&#xfa;" horiz-adv-x="512" 
d="M124 485v-263q0 -35 1 -59.5t4.5 -43t10 -31.5t18.5 -23q19 -16 44 -21.5t54 -5.5t54 5.5t44 21.5q12 10 18.5 23t10 31.5t4.5 43t1 59.5v263h60v-264q0 -55 -5.5 -99t-25 -74.5t-58 -47t-103.5 -16.5t-103 16.5t-58 47t-25.5 74.5t-5.5 99v264h60zM358 715l39 -59
l-199 -112l-28 47z" />
    <glyph glyph-name="ucircumflex" unicode="&#xfb;" horiz-adv-x="512" 
d="M124 485v-263q0 -35 1 -59.5t4.5 -43t10 -31.5t18.5 -23q19 -16 44 -21.5t54 -5.5t54 5.5t44 21.5q12 10 18.5 23t10 31.5t4.5 43t1 59.5v263h60v-264q0 -55 -5.5 -99t-25 -74.5t-58 -47t-103.5 -16.5t-103 16.5t-58 47t-25.5 74.5t-5.5 99v264h60zM280 726l120 -121
l-45 -36l-93 92h-6l-95 -92l-43 36l120 121h42z" />
    <glyph glyph-name="utilde" unicode="&#x169;" horiz-adv-x="512" 
d="M124 485v-263q0 -35 1 -59.5t4.5 -43t10 -31.5t18.5 -23q19 -16 44 -21.5t54 -5.5t54 5.5t44 21.5q12 10 18.5 23t10 31.5t4.5 43t1 59.5v263h60v-264q0 -55 -5.5 -99t-25 -74.5t-58 -47t-103.5 -16.5t-103 16.5t-58 47t-25.5 74.5t-5.5 99v264h60zM109 628q21 42 46 61
t48 19q19 0 32.5 -7t29.5 -18l17 -13q10 -6 20 -10.5t21 -4.5q28 0 49 41l36 -33q-13 -32 -35.5 -51t-52.5 -19q-18 0 -32.5 6t-29.5 17l-15 11q-11 8 -19.5 12.5t-19.5 4.5q-17 0 -30.5 -14t-24.5 -36z" />
    <glyph glyph-name="udieresis" unicode="&#xfc;" horiz-adv-x="512" 
d="M124 485v-263q0 -35 1 -59.5t4.5 -43t10 -31.5t18.5 -23q19 -16 44 -21.5t54 -5.5t54 5.5t44 21.5q12 10 18.5 23t10 31.5t4.5 43t1 59.5v263h60v-264q0 -55 -5.5 -99t-25 -74.5t-58 -47t-103.5 -16.5t-103 16.5t-58 47t-25.5 74.5t-5.5 99v264h60zM286 641
q0 26 14.5 38.5t33.5 12.5q20 0 34 -12.5t14 -38.5v-5q0 -26 -14 -37.5t-34 -11.5q-19 0 -33.5 11.5t-14.5 37.5v5zM130 641q0 26 14 38.5t33 12.5q21 0 34.5 -12.5t13.5 -38.5v-5q0 -26 -13.5 -37.5t-34.5 -11.5q-19 0 -33 11.5t-14 37.5v5z" />
    <glyph glyph-name="umacron" unicode="&#x16b;" horiz-adv-x="512" 
d="M124 485v-263q0 -35 1 -59.5t4.5 -43t10 -31.5t18.5 -23q19 -16 44 -21.5t54 -5.5t54 5.5t44 21.5q12 10 18.5 23t10 31.5t4.5 43t1 59.5v263h60v-264q0 -55 -5.5 -99t-25 -74.5t-58 -47t-103.5 -16.5t-103 16.5t-58 47t-25.5 74.5t-5.5 99v264h60zM380 651v-57h-248v57
h248z" />
    <glyph glyph-name="ubreve" unicode="&#x16d;" horiz-adv-x="512" 
d="M124 485v-263q0 -35 1 -59.5t4.5 -43t10 -31.5t18.5 -23q19 -16 44 -21.5t54 -5.5t54 5.5t44 21.5q12 10 18.5 23t10 31.5t4.5 43t1 59.5v263h60v-264q0 -55 -5.5 -99t-25 -74.5t-58 -47t-103.5 -16.5t-103 16.5t-58 47t-25.5 74.5t-5.5 99v264h60zM188 696
q7 -24 23.5 -40.5t44.5 -16.5q26 0 44.5 16.5t23.5 40.5l63 -9q-11 -48 -44.5 -76.5t-86.5 -28.5t-86 28.5t-45 76.5z" />
    <glyph glyph-name="uring" unicode="&#x16f;" horiz-adv-x="512" 
d="M124 485v-263q0 -35 1 -59.5t4.5 -43t10 -31.5t18.5 -23q19 -16 44 -21.5t54 -5.5t54 5.5t44 21.5q12 10 18.5 23t10 31.5t4.5 43t1 59.5v263h60v-264q0 -55 -5.5 -99t-25 -74.5t-58 -47t-103.5 -16.5t-103 16.5t-58 47t-25.5 74.5t-5.5 99v264h60zM256 741
q38 0 62 -24.5t24 -61.5q0 -38 -24 -62.5t-62 -24.5q-37 0 -61.5 24.5t-24.5 62.5q0 37 24.5 61.5t61.5 24.5zM256 696q-19 0 -29.5 -11.5t-10.5 -29.5q0 -19 10.5 -30.5t29.5 -11.5t29.5 11.5t10.5 30.5q0 18 -10.5 29.5t-29.5 11.5z" />
    <glyph glyph-name="uhungarumlaut" unicode="&#x171;" horiz-adv-x="512" 
d="M124 485v-263q0 -35 1 -59.5t4.5 -43t10 -31.5t18.5 -23q19 -16 44 -21.5t54 -5.5t54 5.5t44 21.5q12 10 18.5 23t10 31.5t4.5 43t1 59.5v263h60v-264q0 -55 -5.5 -99t-25 -74.5t-58 -47t-103.5 -16.5t-103 16.5t-58 47t-25.5 74.5t-5.5 99v264h60zM322 695l-137 -156
l-43 32l122 160zM475 695l-137 -156l-42 32l121 160z" />
    <glyph glyph-name="uogonek" unicode="&#x173;" horiz-adv-x="512" 
d="M124 485v-263q0 -35 1 -59.5t4.5 -43t10 -31.5t18.5 -23q19 -16 44 -21.5t54 -5.5t54 5.5t44 21.5q12 10 18.5 23t10 31.5t4.5 43t1 59.5v263h60v-264q0 -41 -3 -75.5t-12 -62t-26 -48t-45 -33.5q-54 -24 -85 -61.5t-31 -71.5q0 -25 12 -35.5t37 -10.5q23 0 45 10l11 -50
q-13 -7 -31 -11.5t-40 -4.5q-51 0 -77 22t-26 64q0 38 24.5 73t65.5 58h-11q-65 0 -103 16.5t-58 47t-25.5 74.5t-5.5 99v264h60z" />
    <glyph glyph-name="wgrave" unicode="&#x1e81;" horiz-adv-x="668" 
d="M78 485q9 -37 23.5 -88t30.5 -106t32.5 -109t30.5 -98q11 36 25 83.5t29.5 101t30.5 109.5t27 107h54q12 -51 27 -107t30 -109.5t29 -101t25 -83.5q13 44 30 98t33.5 109t31 106t23.5 88h63q-14 -54 -33.5 -119.5t-41.5 -131.5t-43 -127t-38 -107h-54q-17 58 -32 108
t-28 95.5t-25 89t-24 89.5q-12 -46 -23.5 -89.5t-25 -89t-28.5 -95.5t-33 -108h-53q-17 46 -38.5 107t-43 127t-41.5 131.5t-33 119.5h63zM423 591l-29 -47l-198 112l38 59z" />
    <glyph glyph-name="wacute" unicode="&#x1e83;" horiz-adv-x="668" 
d="M78 485q9 -37 23.5 -88t30.5 -106t32.5 -109t30.5 -98q11 36 25 83.5t29.5 101t30.5 109.5t27 107h54q12 -51 27 -107t30 -109.5t29 -101t25 -83.5q13 44 30 98t33.5 109t31 106t23.5 88h63q-14 -54 -33.5 -119.5t-41.5 -131.5t-43 -127t-38 -107h-54q-17 58 -32 108
t-28 95.5t-25 89t-24 89.5q-12 -46 -23.5 -89.5t-25 -89t-28.5 -95.5t-33 -108h-53q-17 46 -38.5 107t-43 127t-41.5 131.5t-33 119.5h63zM441 715l39 -59l-199 -112l-28 47z" />
    <glyph glyph-name="wcircumflex" unicode="&#x175;" horiz-adv-x="668" 
d="M78 485q9 -37 23.5 -88t30.5 -106t32.5 -109t30.5 -98q11 36 25 83.5t29.5 101t30.5 109.5t27 107h54q12 -51 27 -107t30 -109.5t29 -101t25 -83.5q13 44 30 98t33.5 109t31 106t23.5 88h63q-14 -54 -33.5 -119.5t-41.5 -131.5t-43 -127t-38 -107h-54q-17 58 -32 108
t-28 95.5t-25 89t-24 89.5q-12 -46 -23.5 -89.5t-25 -89t-28.5 -95.5t-33 -108h-53q-17 46 -38.5 107t-43 127t-41.5 131.5t-33 119.5h63zM356 726l120 -121l-45 -36l-93 92h-6l-95 -92l-43 36l120 121h42z" />
    <glyph glyph-name="wdieresis" unicode="&#x1e85;" horiz-adv-x="668" 
d="M78 485q9 -37 23.5 -88t30.5 -106t32.5 -109t30.5 -98q11 36 25 83.5t29.5 101t30.5 109.5t27 107h54q12 -51 27 -107t30 -109.5t29 -101t25 -83.5q13 44 30 98t33.5 109t31 106t23.5 88h63q-14 -54 -33.5 -119.5t-41.5 -131.5t-43 -127t-38 -107h-54q-17 58 -32 108
t-28 95.5t-25 89t-24 89.5q-12 -46 -23.5 -89.5t-25 -89t-28.5 -95.5t-33 -108h-53q-17 46 -38.5 107t-43 127t-41.5 131.5t-33 119.5h63zM365 641q0 26 14.5 38.5t33.5 12.5q20 0 34 -12.5t14 -38.5v-5q0 -26 -14 -37.5t-34 -11.5q-19 0 -33.5 11.5t-14.5 37.5v5zM209 641
q0 26 14 38.5t33 12.5q21 0 34.5 -12.5t13.5 -38.5v-5q0 -26 -13.5 -37.5t-34.5 -11.5q-19 0 -33 11.5t-14 37.5v5z" />
    <glyph glyph-name="ygrave" unicode="&#x1ef3;" horiz-adv-x="435" 
d="M332 591l-29 -47l-198 112l38 59zM77 485q33 -152 71.5 -264t80.5 -184q35 79 70 192t61 256h65q-20 -83 -39 -154t-39 -133.5t-41.5 -119t-46.5 -110.5q-23 -51 -45.5 -84.5t-45 -53.5t-46.5 -28t-50 -8q-30 0 -54 6l4 49q11 -3 22.5 -4.5t19.5 -1.5q17 0 31.5 3.5
t27.5 14.5q23 19 41.5 48.5t34.5 68.5q-53 82 -99 210t-90 297h67z" />
    <glyph glyph-name="yacute" unicode="&#xfd;" horiz-adv-x="435" 
d="M338 715l39 -59l-199 -112l-28 47zM77 485q33 -152 71.5 -264t80.5 -184q35 79 70 192t61 256h65q-20 -83 -39 -154t-39 -133.5t-41.5 -119t-46.5 -110.5q-23 -51 -45.5 -84.5t-45 -53.5t-46.5 -28t-50 -8q-30 0 -54 6l4 49q11 -3 22.5 -4.5t19.5 -1.5q17 0 31.5 3.5
t27.5 14.5q23 19 41.5 48.5t34.5 68.5q-53 82 -99 210t-90 297h67z" />
    <glyph glyph-name="ycircumflex" unicode="&#x177;" horiz-adv-x="435" 
d="M244 726l120 -121l-45 -36l-93 92h-6l-95 -92l-43 36l120 121h42zM77 485q33 -152 71.5 -264t80.5 -184q35 79 70 192t61 256h65q-20 -83 -39 -154t-39 -133.5t-41.5 -119t-46.5 -110.5q-23 -51 -45.5 -84.5t-45 -53.5t-46.5 -28t-50 -8q-30 0 -54 6l4 49
q11 -3 22.5 -4.5t19.5 -1.5q17 0 31.5 3.5t27.5 14.5q23 19 41.5 48.5t34.5 68.5q-53 82 -99 210t-90 297h67z" />
    <glyph glyph-name="ydieresis" unicode="&#xff;" horiz-adv-x="435" 
d="M251 641q0 26 14.5 38.5t33.5 12.5q20 0 34 -12.5t14 -38.5v-5q0 -26 -14 -37.5t-34 -11.5q-19 0 -33.5 11.5t-14.5 37.5v5zM95 641q0 26 14 38.5t33 12.5q21 0 34.5 -12.5t13.5 -38.5v-5q0 -26 -13.5 -37.5t-34.5 -11.5q-19 0 -33 11.5t-14 37.5v5zM77 485
q33 -152 71.5 -264t80.5 -184q35 79 70 192t61 256h65q-20 -83 -39 -154t-39 -133.5t-41.5 -119t-46.5 -110.5q-23 -51 -45.5 -84.5t-45 -53.5t-46.5 -28t-50 -8q-30 0 -54 6l4 49q11 -3 22.5 -4.5t19.5 -1.5q17 0 31.5 3.5t27.5 14.5q23 19 41.5 48.5t34.5 68.5
q-53 82 -99 210t-90 297h67z" />
    <glyph glyph-name="zacute" unicode="&#x17a;" horiz-adv-x="411" 
d="M304 715l39 -59l-199 -112l-28 47zM375 485v-52l-271 -381h275l-12 -52h-325l-10 49l273 384h-263v52h333z" />
    <glyph glyph-name="zcaron" unicode="&#x17e;" horiz-adv-x="411" 
d="M111 724l93 -92h6l95 92l43 -36l-120 -121h-42l-120 121zM375 485v-52l-271 -381h275l-12 -52h-325l-10 49l273 384h-263v52h333z" />
    <glyph glyph-name="zdotaccent" unicode="&#x17c;" horiz-adv-x="411" 
d="M207 706q22 0 37 -16.5t15 -39.5q0 -24 -15.5 -40t-38.5 -16t-38 16t-15 40q0 23 16 39.5t39 16.5zM375 485v-52l-271 -381h275l-12 -52h-325l-10 49l273 384h-263v52h333z" />
    <glyph glyph-name="apple" unicode="&#xf8ff;" horiz-adv-x="589" 
d="M489 526v-64h-195v-64h195v-196h-261v64h196v67h-196v193h261zM489 656v-64h-324v-527h72v-65h-137v656h389z" />
    </font>
</defs>
</svg>
