<?xml version="1.0" encoding="utf-8"?>
<!-- Generator: Adobe Illustrator 17.1.0, SVG Export Plug-In . SVG Version: 6.00 Build 0)  -->
<!DOCTYPE svg PUBLIC "-//W3C//DTD SVG 1.1//EN" "http://www.w3.org/Graphics/SVG/1.1/DTD/svg11.dtd">
<svg version="1.1" id="Layer_1" xmlns="http://www.w3.org/2000/svg" xmlns:xlink="http://www.w3.org/1999/xlink" x="0px" y="0px"
	 viewBox="0 0 14.2 20.2" enable-background="new 0 0 14.2 20.2" xml:space="preserve">
<path fill="#FFFFFF" d="M10.7,7.5v-2c0-2-1.6-3.6-3.6-3.6S3.6,3.6,3.6,5.5v2H10.7z M8.2,16.2v-2.3c0.5-0.3,0.7-0.9,0.7-1.5
	c0-1-0.8-1.8-1.8-1.8s-1.8,0.8-1.8,1.8c0,0.6,0.3,1.1,0.8,1.5v2.3H8.2z M0,20.2V7.6h1.5v-2C1.5,2.5,4,0,7.1,0s5.6,2.5,5.6,5.6v2h1.5
	v12.6H0z"/>
</svg>
