<?xml version="1.0" encoding="iso-8859-1"?>
<!-- Generator: Adobe Illustrator 16.0.0, SVG Export Plug-In . SVG Version: 6.00 Build 0)  -->
<!DOCTYPE svg PUBLIC "-//W3C//DTD SVG 1.1//EN" "http://www.w3.org/Graphics/SVG/1.1/DTD/svg11.dtd">
<svg version="1.1" id="Layer_1" xmlns="http://www.w3.org/2000/svg" xmlns:xlink="http://www.w3.org/1999/xlink" x="0px" y="0px"
	 width="11.891px" height="9.281px" viewBox="0 0 11.891 9.281" style="enable-background:new 0 0 11.891 9.281;"
	 xml:space="preserve">
<g>
	<path style="fill:#EAFF00;" d="M0,4.641c0-0.208,0.073-0.385,0.219-0.531l1.063-1.063c0.146-0.146,0.323-0.219,0.531-0.219
		c0.208,0,0.385,0.073,0.531,0.219l2.297,2.305l5.125-5.133C9.911,0.073,10.089,0,10.297,0s0.386,0.073,0.531,0.219l1.063,1.063
		c0.146,0.146,0.219,0.323,0.219,0.531c0,0.208-0.073,0.386-0.219,0.531L6.234,8L5.172,9.063C5.026,9.209,4.849,9.281,4.641,9.281
		c-0.208,0-0.386-0.072-0.531-0.219L3.047,8L0.219,5.172C0.073,5.026,0,4.849,0,4.641z"/>
</g>
</svg>
