<?xml version="1.0" standalone="no"?>
<!DOCTYPE svg PUBLIC "-//W3C//DTD SVG 1.1//EN" "http://www.w3.org/Graphics/SVG/1.1/DTD/svg11.dtd" >
<svg xmlns="http://www.w3.org/2000/svg">
<metadata>
This is a custom SVG webfont generated by Font Squirrel.
Copyright   : Copyright  1990 1991 2002 Adobe Systems Incorporated  All Rights Reserved  1981 2002 Heidelberger Druckmaschinen AG All rights reserved
Designer    : Unknown
Foundry URL : httpwwwadobecomtype
</metadata>
<defs>
<font id="HelveticaRoundedLTStdBdCn" horiz-adv-x="491" >
<font-face units-per-em="2048" ascent="1501" descent="-547" />
<missing-glyph horiz-adv-x="500" />
<glyph unicode=" " />
<glyph unicode="!" horiz-adv-x="569" d="M129 129.5q0 63.5 46 109.5t109.5 46t109.5 -46t46 -109.5t-46 -110t-109.5 -46.5t-109.5 46.5t-46 110zM147 1042v316q0 143 137.5 143t137.5 -143v-316q0 -59 -8 -143l-39 -434q-4 -59 -22.5 -84t-67.5 -25t-67.5 25t-22.5 84l-39 434q-9 84 -9 143z" />
<glyph unicode="&#x22;" horiz-adv-x="872" d="M119 1071v309q0 55 33.5 92t83 37t83 -36.5t33.5 -92.5v-309q0 -55 -33.5 -92t-83 -37t-83 37t-33.5 92zM520 1071v309q0 55 34 92t83 37t83 -36.5t34 -92.5v-309q0 -55 -34 -92t-83 -37t-83 37t-34 92z" />
<glyph unicode="#" horiz-adv-x="983" d="M0 502q0 41 22.5 69.5t67.5 28.5h105l32 248h-80q-45 0 -67.5 28.5t-22.5 69.5t22.5 69.5t67.5 28.5h105l41 322q14 109 110 109q37 0 61.5 -26t24.5 -60q0 -10 -8 -68l-37 -277h177l43 322q10 109 110 109q35 0 59.5 -26t24.5 -60q0 -10 -8 -68l-39 -277h80 q45 0 68.5 -29.5t23.5 -68.5t-23.5 -68.5t-68.5 -29.5h-105l-32 -248h80q45 0 67.5 -28.5t22.5 -69.5t-22.5 -70t-67.5 -29h-105l-41 -321q-14 -109 -110 -109q-37 0 -61.5 26t-24.5 60q0 10 8 68l37 276h-177l-43 -321q-10 -109 -110 -109q-35 0 -59.5 26t-24.5 60 q0 10 8 68l39 276h-80q-45 0 -67.5 29t-22.5 70zM387 600h176l31 248h-176z" />
<glyph unicode="$" horiz-adv-x="983" d="M70 338q0 59 28.5 99t83.5 40q106 0 121 -135q16 -160 137 -172v446l-131 84q-225 143 -225 390q0 166 95 273t261 112v53q0 55 47.5 55t47.5 -55v-53q143 0 241 -86t98 -224q0 -51 -31.5 -84.5t-80.5 -33.5q-59 0 -84 29.5t-37 90.5q-12 55 -41 83t-65 28v-404l118 -69 q127 -74 193.5 -168t66.5 -231q0 -197 -99 -310.5t-279 -122.5v-157q0 -53 -47.5 -53.5t-47.5 53.5v157q-160 0 -265 104.5t-105 260.5zM317 1116q0 -55 25 -93t98 -97v352q-123 -21 -123 -162zM535 170q57 8 93 63.5t36 124.5q0 137 -129 209v-397z" />
<glyph unicode="%" horiz-adv-x="1781" d="M90 1102q0 184 70.5 278.5t245 94.5t245 -94.5t70.5 -278.5t-70.5 -278.5t-245 -94.5t-245 94.5t-70.5 278.5zM297 1079q0 -195 108.5 -194.5t108.5 194.5v68q0 172 -108.5 172t-108.5 -172v-68zM494 -14q0 31 12 59l620 1428q25 53 88 53q35 0 53.5 -19.5t18.5 -44.5 q0 -33 -12 -59l-621 -1428q-25 -53 -88 -53q-35 0 -53 19.5t-18 44.5zM1061 346q0 184 70.5 278.5t244.5 94.5t245 -94.5t71 -278.5t-71 -278.5t-245 -94.5t-244.5 94.5t-70.5 278.5zM1268 324q0 -195 108.5 -195t108.5 195v67q0 172 -108.5 172t-108.5 -172v-67z" />
<glyph unicode="&#x26;" horiz-adv-x="1290" d="M129 403q0 285 281 467q-117 186 -117 297q0 141 94 224.5t242 83.5q150 0 230.5 -81t80.5 -198q0 -106 -57.5 -203.5t-163.5 -167.5l180 -309q23 59 45 195q8 57 34 80.5t75 23.5q109 0 108 -127q0 -76 -39 -195.5t-88 -203.5l58 -94q41 -68 41 -111q0 -53 -38 -86 t-94 -33q-61 0 -106 70l-37 53q-121 -115 -311 -115q-195 0 -306.5 118.5t-111.5 311.5zM379 434q0 -102 59.5 -173t141.5 -71q98 0 174 82l-232 402q-63 -47 -103 -113t-40 -127zM526 1208q0 -57 27 -102l55 -94l27 24q49 43 68.5 78t19.5 84q0 43 -27.5 71.5t-68.5 28.5 q-43 0 -72 -25.5t-29 -64.5z" />
<glyph unicode="'" horiz-adv-x="454" d="M111 1071v309q0 55 33.5 92t82.5 37t83 -36.5t34 -92.5v-309q0 -55 -34 -92t-83 -37t-82.5 37t-33.5 92z" />
<glyph unicode="(" horiz-adv-x="606" d="M104 567q0 207 42 398.5t102.5 313.5t123 194.5t105.5 72.5q88 0 88 -90q0 -18 -30.5 -89t-68.5 -162t-68.5 -264t-30.5 -373.5t30.5 -374t68.5 -264.5t68.5 -161.5t30.5 -89.5q0 -90 -88 -90q-43 0 -105.5 73t-123 194.5t-102.5 313t-42 398.5z" />
<glyph unicode=")" horiz-adv-x="606" d="M41 -322q0 18 30.5 89t68.5 162t69 264.5t31 374t-31 373.5t-69 264t-68.5 162t-30.5 89q0 90 88 90q43 0 105.5 -72.5t123 -194.5t102.5 -313.5t42 -398.5t-42 -398.5t-102.5 -313t-123 -194.5t-105.5 -73q-88 0 -88 90z" />
<glyph unicode="*" horiz-adv-x="757" d="M61 1270q20 70 107 41l139 -45v147q0 88 72 88t72 -88v-147h2l139 45q84 31 104 -41q23 -68 -61 -96l-139 -46l86 -118q53 -72 -7 -113q-57 -43 -110 29l-86 118l-86 -118q-53 -72 -111 -29q-59 41 -6 113l86 118l-139 48q-87 26 -62 94z" />
<glyph unicode="+" horiz-adv-x="1228" d="M35 580q0 45 40 76.5t103 31.5h328v328q0 63 30.5 103t78 40t78 -40t30.5 -103v-328h328q63 0 103 -31.5t40 -76.5t-40 -77t-103 -32h-328v-328q0 -63 -30.5 -103t-78 -40t-78 40t-30.5 103v328h-328q-63 0 -103 32t-40 77z" />
<glyph unicode="," d="M82 123q0 68 46 115t118 47q78 0 121 -60.5t43 -136.5q0 -154 -89.5 -262.5t-183.5 -108.5q-23 0 -39 16.5t-16 35.5q0 39 53 57q43 14 87 57t57 92q-18 -2 -43 -2q-76 0 -115 48.5t-39 101.5z" />
<glyph unicode="-" horiz-adv-x="681" d="M80 579.5q0 49.5 32.5 83t94.5 33.5h268q61 0 94 -33.5t33 -83t-32.5 -83t-94.5 -33.5h-268q-61 0 -94 33.5t-33 83z" />
<glyph unicode="." d="M90 129.5q0 63.5 45 109.5t110.5 46t110.5 -46t45 -109.5t-45 -110t-110.5 -46.5t-110.5 46.5t-45 110z" />
<glyph unicode="/" horiz-adv-x="681" d="M-6 39q0 41 12 72l469 1308q14 39 45 64.5t70 25.5q41 0 69.5 -20.5t28.5 -52.5q0 -41 -12 -72l-469 -1309q-35 -90 -115 -90q-41 0 -69.5 20.5t-28.5 53.5z" />
<glyph unicode="0" horiz-adv-x="983" d="M80 475v496q0 82 6 144.5t29.5 134t66.5 117.5t122 77t187.5 31t187.5 -31t122 -77t66.5 -117.5t29.5 -134t6 -144.5v-496q0 -82 -6 -143.5t-29.5 -133t-66.5 -117.5t-122 -77t-187.5 -31t-187.5 31t-122 77t-66.5 117.5t-29.5 133t-6 143.5zM354 438q0 -147 29 -207.5 t108.5 -60.5t108.5 60.5t29 207.5v572q0 147 -29 207.5t-108.5 60.5t-108.5 -60.5t-29 -207.5v-572z" />
<glyph unicode="1" horiz-adv-x="681" d="M-29 1118q0 78 86 92q115 18 175.5 58.5t99.5 113.5q37 70 58.5 87.5t74.5 17.5q37 0 62.5 -27.5t25.5 -83.5v-1261q0 -63 -40 -102.5t-97.5 -39.5t-97 39t-39.5 103v919h-191q-117 0 -117 84z" />
<glyph unicode="2" horiz-adv-x="983" d="M74 117q0 104 61.5 247.5t212.5 294.5l96 97q104 104 141.5 173.5t37.5 153.5q0 86 -35 135.5t-103 49.5q-74 0 -105.5 -50.5t-39.5 -150.5q-4 -57 -39 -87t-86 -30q-125 0 -125 152q0 168 103.5 270.5t281.5 102.5q205 0 313.5 -100.5t108.5 -295.5q0 -215 -180 -395 l-170 -170q-154 -154 -189 -281h404q74 0 110.5 -26.5t36.5 -90t-36.5 -90t-110.5 -26.5h-567q-121 0 -121 117z" />
<glyph unicode="3" horiz-adv-x="983" d="M68 348q0 76 31.5 120t93.5 44q129 0 137 -154q10 -188 151 -188q147 0 148 254q0 150 -39 200t-131 58q-82 8 -111 29.5t-29 66.5t25 64.5t102 34.5q88 16 121 63t33 166q0 172 -129 172q-109 0 -131 -137q-18 -125 -133 -125q-55 0 -86 34.5t-31 90.5q0 150 95.5 242 t281.5 92q211 0 309 -103.5t98 -275.5q0 -244 -167 -303q111 -41 153.5 -128t42.5 -239q0 -453 -426 -453q-123 0 -210 40t-127 103.5t-56 120t-16 111.5z" />
<glyph unicode="4" horiz-adv-x="983" d="M25 408q0 57 41 145l399 833q31 61 63.5 81t104.5 20t105.5 -36t33.5 -93v-846h47q45 0 79 -26.5t34 -82t-34 -82t-79 -26.5h-47v-172q0 -150 -125 -150t-125 150v172h-348q-149 0 -149 113zM246 512h276v592h-4z" />
<glyph unicode="5" horiz-adv-x="983" d="M80 336q0 70 30.5 115t96.5 45q127 0 135 -134q10 -193 139 -192q86 0 117 71.5t31 231.5q0 178 -37 252t-127 74q-43 0 -73 -22.5t-44 -50.5t-48 -50.5t-85 -22.5q-57 0 -86 36t-29 85q0 10 4 68l27 504q4 102 90 102h498q74 0 110.5 -26.5t36.5 -90t-36.5 -90.5 t-110.5 -27h-375l-18 -296q78 78 219 77q168 0 263 -108.5t95 -374.5q0 -125 -17.5 -215t-61.5 -168t-130 -117t-213 -39q-125 0 -211 40t-123.5 103.5t-52 116t-14.5 103.5z" />
<glyph unicode="6" horiz-adv-x="983" d="M74 649v156q0 338 91 504t335 166q176 0 269 -70t93 -174q0 -53 -32.5 -86t-88.5 -33q-45 0 -68.5 16.5t-51.5 69.5q-31 51 -51.5 65.5t-63.5 14.5q-158 0 -158 -291v-84q84 82 215 82q346 0 346 -463q0 -119 -17.5 -210t-60.5 -172t-126.5 -124t-206.5 -43 q-113 0 -192 34t-124 87t-69.5 146.5t-31.5 183.5t-7 225zM348 477q0 -160 30 -233.5t113.5 -73.5t113.5 73.5t30 233.5q0 158 -30 229.5t-113.5 71.5t-113.5 -71.5t-30 -229.5z" />
<glyph unicode="7" horiz-adv-x="909" d="M20 1323q0 45 33 85t97 40h628q68 0 99.5 -21.5t31.5 -80.5q0 -37 -80 -191q-102 -197 -192 -500t-113 -540q-14 -141 -149 -142q-125 0 -125 142q0 147 114.5 496.5t253.5 590.5h-468q-61 0 -95.5 40t-34.5 81z" />
<glyph unicode="8" horiz-adv-x="983" d="M72 410q0 293 186 378q-162 82 -162 295q0 186 99.5 289t296 103t296 -102.5t99.5 -289.5q0 -213 -162 -295q186 -86 186 -378q0 -88 -16 -158t-58 -136.5t-129 -104.5t-216.5 -38t-216.5 38t-129 104.5t-58 136.5t-16 158zM346 377q0 -207 145.5 -207t145.5 207v108 q0 207 -145.5 207t-145.5 -207v-108zM358 1083.5q0 -194.5 133.5 -194.5t133.5 194.5t-133.5 194.5t-133.5 -194.5z" />
<glyph unicode="9" horiz-adv-x="983" d="M74 926q0 119 17.5 210t60.5 172t126.5 124t206.5 43q113 0 192 -34t124 -87.5t69.5 -146.5t31.5 -183t7 -225v-156q0 -338 -91 -504t-335 -166q-176 0 -269 70t-93 174q0 53 32.5 86t88.5 33q45 0 68.5 -16.5t51.5 -69.5q31 -51 51.5 -65.5t63.5 -14.5q158 0 158 291v84 q-84 -82 -215 -82q-346 0 -346 463zM348 971q0 -158 30 -229.5t113.5 -71.5t113.5 71.5t30 229.5q0 160 -30 233.5t-113.5 73.5t-113.5 -73.5t-30 -233.5z" />
<glyph unicode=":" d="M90 129.5q0 63.5 45 109.5t110.5 46t110.5 -46t45 -109.5t-45 -110t-110.5 -46.5t-110.5 46.5t-45 110zM90 952.5q0 63.5 45 109.5t110.5 46t110.5 -46t45 -109.5t-45 -109.5t-110.5 -46t-110.5 46t-45 109.5z" />
<glyph unicode=";" d="M82 123q0 68 46 115t118 47q78 0 121 -60.5t43 -136.5q0 -154 -89.5 -262.5t-183.5 -108.5q-23 0 -39 16.5t-16 35.5q0 39 53 57q43 14 87 57t57 92q-18 -2 -43 -2q-76 0 -115 48.5t-39 101.5zM90 952.5q0 63.5 45 109.5t110.5 46t110.5 -46t45 -109.5t-45 -109.5 t-110.5 -46t-110.5 46t-45 109.5z" />
<glyph unicode="&#x3c;" horiz-adv-x="1228" d="M47 579.5q0 79.5 76 116.5l833 383q59 29 113 29q47 0 80 -25.5t33 -52.5q0 -80 -97 -121l-751 -329l751 -330q96 -41 97 -121q0 -27 -33 -52.5t-80 -25.5q-53 0 -113 29l-833 383q-76 37 -76 116.5z" />
<glyph unicode="=" horiz-adv-x="1228" d="M35 338q0 45 40 76.5t103 31.5h873q63 0 103 -31.5t40 -76.5t-40 -77t-103 -32h-873q-63 0 -103 32t-40 77zM35 821q0 45 40 77t103 32h873q63 0 103 -32t40 -77t-40 -76.5t-103 -31.5h-873q-63 0 -103 31.5t-40 76.5z" />
<glyph unicode="&#x3e;" horiz-adv-x="1228" d="M47 129q0 80 96 121l752 330l-752 329q-96 41 -96 121q0 27 33 52.5t80 25.5q53 0 112 -29l834 -383q76 -37 76 -116.5t-76 -116.5l-834 -383q-59 -29 -112 -29q-47 0 -80 25.5t-33 52.5z" />
<glyph unicode="?" horiz-adv-x="985" d="M104 1171q0 145 97.5 237.5t263.5 92.5q399 0 399 -383q0 -98 -36.5 -178t-116.5 -168l-60 -65q-70 -76 -93 -122t-32 -122q-4 -47 -33.5 -77t-82.5 -30q-51 0 -84 35t-33 94q0 166 119 303l73 84q117 133 117 265q0 70 -32.5 113.5t-94.5 43.5q-47 0 -80 -30.5 t-41 -81.5q-8 -76 -37.5 -105.5t-89.5 -29.5q-55 0 -89 33.5t-34 90.5zM254 129.5q0 63.5 45 109.5t110.5 46t110.5 -46t45 -109.5t-45 -110t-110.5 -46.5t-110.5 46.5t-45 110z" />
<glyph unicode="@" horiz-adv-x="1638" d="M47 735q0 330 235.5 552t571.5 222q311 0 524 -174t213 -461q0 -131 -41 -236.5t-101 -166.5t-134 -101t-131.5 -54.5t-102.5 -14.5q-125 0 -143 88h-4q-82 -88 -229 -88q-127 0 -215.5 99.5t-88.5 283.5q0 174 125 313.5t285 139.5q90 0 147.5 -31t110.5 -98l8 36 q16 76 94 76q41 0 68 -23.5t27 -66.5q0 -18 -9 -57l-69 -340q-10 -61 -10 -92q0 -39 41 -39q72 0 129 80t57 235q0 244 -151.5 375t-405.5 131q-236 0 -401.5 -171t-165.5 -417q0 -270 164.5 -426.5t420.5 -156.5q139 0 235.5 32.5t143.5 64.5t70 32q35 0 58.5 -20.5 t23.5 -53.5q0 -39 -71 -94.5t-199 -101.5t-261 -46q-342 0 -580.5 218t-238.5 552zM635 690q0 -172 141 -172q104 0 164.5 63.5t60.5 157.5q0 74 -40.5 119t-118.5 45q-88 0 -147.5 -63.5t-59.5 -149.5z" />
<glyph unicode="A" horiz-adv-x="1062" d="M27 92q0 47 16 113l262 1104q27 115 70 153.5t155 38.5q104 0 151.5 -40t74.5 -152l260 -1096q20 -90 20 -113q0 -63 -39 -95t-96 -32q-76 0 -110.5 38t-55.5 141l-43 217h-338l-55 -267q-14 -70 -46 -99.5t-97 -29.5q-61 0 -95 32t-34 87zM399 586h250l-121 612h-4z" />
<glyph unicode="B" horiz-adv-x="1062" d="M115 147v1180q0 147 147 148h369q326 0 325 -381q0 -111 -41 -194t-112 -109q195 -72 194 -334q0 -199 -91 -328t-290 -129h-354q-147 0 -147 147zM389 207h164q158 0 158 244q0 217 -162 217h-160v-461zM389 874h125q168 0 168 203q0 190 -147 191h-146v-394z" />
<glyph unicode="C" horiz-adv-x="1024" d="M82 606v234q0 379 108.5 524t364.5 145q197 0 305.5 -104.5t108.5 -263.5q0 -164 -140 -164q-78 0 -106.5 35t-40.5 131q-20 150 -127 149q-70 0 -105.5 -30.5t-58 -140t-22.5 -324.5v-82q0 -102 1 -162.5t7 -130.5t17.5 -106.5t30.5 -71.5t49 -48.5t73 -13.5q53 0 94 44 t43 106q6 129 35 177t112 48q139 0 140 -162q0 -221 -119 -325.5t-328 -104.5q-90 0 -159.5 21.5t-115.5 54.5t-79 88t-49.5 103.5t-25.5 123t-11 123.5t-2 127z" />
<glyph unicode="D" horiz-adv-x="1099" d="M115 147v1180q0 147 147 148h359q211 0 304 -154t93 -492v-190q0 -639 -410 -639h-346q-147 0 -147 147zM389 217h127q115 0 165 100.5t50 372.5v119q0 252 -42 350t-165 98h-135v-1040z" />
<glyph unicode="E" horiz-adv-x="1024" d="M115 147v1180q0 147 147 148h535q143 0 143 -123t-143 -123h-408v-340h381q143 0 143 -123t-143 -123h-381v-397h422q143 0 143 -123t-143 -123h-549q-147 0 -147 147z" />
<glyph unicode="F" horiz-adv-x="983" d="M115 115v1212q0 147 147 148h508q143 0 143 -123t-143 -123h-381v-340h381q143 0 143 -123t-143 -123h-381v-528q0 -63 -40 -102.5t-97 -39.5t-97 39.5t-40 102.5z" />
<glyph unicode="G" horiz-adv-x="1062" d="M82 682v149q0 373 107.5 525.5t361.5 152.5q205 0 311.5 -107.5t106.5 -250.5q0 -164 -138 -164q-70 0 -98 39t-39 137q-12 129 -155 129q-84 0 -127 -82t-43 -317v-205q0 -281 35.5 -389.5t146.5 -108.5q86 0 121 77t35 222v84h-113q-55 0 -83 33t-28 84q0 117 119 117 h229q74 0 106 -33t32 -102v-586q0 -113 -107 -113q-53 0 -80.5 34t-27.5 87v39h-4q-90 -160 -275 -160q-94 0 -164.5 34t-113.5 93.5t-70 151.5t-36 193.5t-9 236.5z" />
<glyph unicode="H" horiz-adv-x="1138" d="M115 115v1245q0 63 40 102t97 39t97 -39t40 -102v-471h361v471q0 63 39.5 102t97 39t97.5 -39t40 -102v-1245q0 -63 -40 -102.5t-97.5 -39.5t-97 39t-39.5 103v557h-361v-557q0 -63 -40 -102.5t-97 -39.5t-97 39.5t-40 102.5z" />
<glyph unicode="I" horiz-adv-x="528" d="M127 115v1245q0 63 40 102t97.5 39t97 -39t39.5 -102v-1245q0 -63 -39.5 -102.5t-97 -39.5t-97.5 39.5t-40 102.5z" />
<glyph unicode="J" horiz-adv-x="909" d="M49 348q0 86 38 129t97 43q76 0 108 -47t32 -145q0 -145 94 -146q53 0 77.5 35t24.5 117v1026q0 63 40 102t97.5 39t97.5 -39t40 -102v-1032q0 -362 -381 -363q-365 0 -365 383z" />
<glyph unicode="K" horiz-adv-x="1062" d="M115 115v1245q0 63 40 102t97 39t97 -39t40 -102v-541h4l328 596q27 49 55.5 67.5t71.5 18.5q57 0 97 -33.5t40 -85.5q0 -47 -37 -106l-268 -432l319 -658q29 -57 29 -94q0 -51 -39 -85t-106 -34q-59 0 -89 25t-59 86l-233 489l-113 -170v-288q0 -63 -40 -102.5 t-97 -39.5t-97 39.5t-40 102.5z" />
<glyph unicode="L" horiz-adv-x="985" d="M115 147v1213q0 63 40 102t97 39t97 -39t40 -102v-1114h412q143 0 143 -123t-143 -123h-539q-147 0 -147 147z" />
<glyph unicode="M" horiz-adv-x="1441" d="M119 115v1183q0 106 47 154.5t174 48.5q106 0 162.5 -48t81.5 -171l135 -709h4l135 709q25 123 81 171t163 48q127 0 174 -48t47 -155v-1183q0 -63 -40 -102.5t-97.5 -39.5t-97 39t-39.5 103v1059h-5l-225 -1111q-10 -43 -29.5 -66.5t-68.5 -23.5t-68.5 23.5t-29.5 66.5 l-226 1111h-4v-1059q0 -63 -40 -102.5t-97 -39.5t-97 39.5t-40 102.5z" />
<glyph unicode="N" horiz-adv-x="1175" d="M115 115v1245q0 66 40 103.5t111 37.5q70 0 113 -27.5t78 -111.5l325 -807h4v805q0 63 40 102t97.5 39t97.5 -39t40 -102v-1233q0 -72 -40 -113t-97 -41q-86 0 -129 28t-76 112l-326 819h-4v-817q0 -63 -40 -102.5t-97 -39.5t-97 39.5t-40 102.5z" />
<glyph unicode="O" horiz-adv-x="1064" d="M82 594v311q0 156 25.5 269.5t65.5 177t102.5 100.5t121 47t136 10t136 -10t121 -47t102.5 -100.5t65.5 -177t25.5 -269.5v-311q0 -162 -23.5 -278.5t-61.5 -183t-98.5 -105.5t-122 -50.5t-145 -11.5t-145 11.5t-122 50.5t-98.5 105.5t-61.5 183t-23.5 278.5zM369 594 q0 -176 19.5 -267t51 -118t93 -27t93 27t51 118t19.5 267v311q0 227 -39 307t-125 80t-124.5 -79.5t-38.5 -307.5v-311z" />
<glyph unicode="P" horiz-adv-x="1024" d="M115 115v1212q0 147 147 148h342q373 0 373 -416q0 -186 -89 -309t-261 -123h-238v-512q0 -63 -40 -102.5t-97 -39.5t-97 39.5t-40 102.5zM389 834h123q178 0 178 213q0 221 -164 221h-137v-434z" />
<glyph unicode="Q" horiz-adv-x="1064" d="M82 594v311q0 156 25.5 269.5t65.5 177t102.5 100.5t121 47t136 10t136 -10t121 -47t102.5 -100.5t65.5 -177t25.5 -269.5v-311q0 -301 -80 -449l78 -73q59 -57 59 -107q0 -35 -28.5 -61.5t-61.5 -26.5q-51 0 -125 74l-57 59q-82 -45 -236 -45q-84 0 -145 11.5 t-121.5 50.5t-98.5 105.5t-61.5 183t-23.5 278.5zM369 594q0 -176 19.5 -267t51 -118t92.5 -27q31 0 56 8l-13 13q-37 37 -36.5 78t29 66.5t67.5 25.5q25 0 47 -23q14 84 14 244v311q0 227 -39 307t-125 80t-124.5 -79.5t-38.5 -307.5v-311z" />
<glyph unicode="R" horiz-adv-x="1062" d="M115 115v1212q0 147 147 148h377q174 0 253 -103.5t79 -275.5q0 -143 -41 -219t-137 -115q102 -37 136 -105.5t34 -207.5v-158q0 -41 9 -117t9 -112.5t-34 -62.5t-97 -26q-162 0 -168 140l-12 376q-6 154 -162 154h-119v-528q0 -63 -40 -102.5t-97 -39.5t-97 39.5 t-40 102.5zM389 850h107q188 0 188 209q0 113 -40 161t-136 48h-119v-418z" />
<glyph unicode="S" horiz-adv-x="1024" d="M76 356q0 186 139 187q66 0 97.5 -41t37.5 -137q4 -82 45 -132.5t119 -50.5t119 48.5t41 123.5q0 72 -31 118t-108 101l-265 187q-102 74 -144 160t-42 204q0 186 124 285.5t310 99.5q109 0 192 -35.5t128 -93t66.5 -119t21.5 -122.5q0 -68 -37 -104t-98 -36 q-78 0 -103.5 34t-36.5 122q-16 137 -147 137q-63 0 -104.5 -37.5t-41.5 -103.5q0 -61 28 -109.5t120 -109.5l203 -133q123 -80 181 -174.5t58 -245.5q0 -195 -117.5 -304.5t-349.5 -109.5q-102 0 -180 35t-119 82t-66.5 106.5t-32.5 99t-7 68.5z" />
<glyph unicode="T" horiz-adv-x="1064" d="M35 1352q0 123 143 123h709q143 0 143 -123t-143 -123h-217v-1114q0 -63 -40 -102.5t-97.5 -39.5t-97.5 39t-40 103v1114h-217q-143 0 -143 123z" />
<glyph unicode="U" horiz-adv-x="1099" d="M104 391v969q0 63 40 102t97.5 39t97.5 -39t40 -102v-942q0 -236 172 -236q80 0 125 58.5t45 177.5v942q0 63 40 102t97 39t97 -39t40 -102v-969q0 -199 -113.5 -312.5t-330.5 -113.5t-332 113.5t-115 312.5z" />
<glyph unicode="V" horiz-adv-x="1024" d="M39 1368q0 53 40 93t101 40q63 0 95 -27.5t44 -93.5l209 -1089h4l181 1065q12 72 41.5 108.5t95.5 36.5q63 0 99 -32.5t36 -92.5q0 -35 -14 -110l-244 -1145q-18 -90 -64.5 -119t-148.5 -29q-100 0 -142 38t-61 120l-254 1133q-18 86 -18 104z" />
<glyph unicode="W" horiz-adv-x="1554" d="M41 1380q0 53 39 87t108 34q111 0 127 -115l168 -1028h4l166 1031q10 59 37 85.5t88.5 26.5t88 -26.5t36.5 -85.5l184 -1031h5l147 1020q18 123 141 123q133 0 133 -127q0 -37 -12 -98l-209 -1153q-18 -98 -53 -124t-141.5 -26t-138 29t-48.5 131l-135 787h-4l-137 -834 q-12 -68 -49 -90.5t-127 -22.5q-92 0 -130 29t-50 92l-224 1180q-14 81 -14 106z" />
<glyph unicode="X" horiz-adv-x="1024" d="M51 96q0 45 43 133l260 525l-256 518q-33 68 -32 106q0 53 40.5 88t100.5 35q53 0 89 -27.5t69 -105.5l145 -364l176 397q45 100 127 100q66 0 104.5 -32.5t38.5 -88.5q0 -41 -22 -86l-268 -540l282 -576q25 -53 25 -80q0 -51 -38 -88t-104 -37q-100 0 -143 103l-184 420 l-191 -437q-37 -86 -127 -86q-59 0 -97 34t-38 89z" />
<glyph unicode="Y" horiz-adv-x="985" d="M33 1376q0 61 39 93t96 32q63 0 91 -25.5t58 -103.5l177 -467l186 488q25 63 57.5 85.5t83.5 22.5q55 0 93 -33.5t38 -76.5q0 -39 -20 -84l-301 -686v-506q0 -63 -40 -102.5t-97.5 -39.5t-97.5 39t-40 103v491l-299 674q-24 57 -24 96z" />
<glyph unicode="Z" horiz-adv-x="1062" d="M47 129q0 47 45 125l557 975h-424q-143 0 -143 123t143 123h631q145 0 145 -121q0 -61 -51 -146l-559 -962h481q143 0 143.5 -123t-143.5 -123h-682q-68 0 -105.5 40t-37.5 89z" />
<glyph unicode="[" horiz-adv-x="606" d="M141 -219v1573q0 147 158 147h170q43 0 70.5 -26.5t27.5 -71.5t-27.5 -71.5t-70.5 -26.5h-78v-1475h78q43 0 70.5 -26.5t27.5 -71.5t-27.5 -72t-70.5 -27h-170q-158 1 -158 148z" />
<glyph unicode="\" horiz-adv-x="681" d="M-6 1436q0 33 28.5 53t69.5 20q80 0 115 -90l469 -1308q12 -31 12 -72q0 -33 -28.5 -53.5t-69.5 -20.5q-39 0 -70 25.5t-45 64.5l-469 1309q-12 31 -12 72z" />
<glyph unicode="]" horiz-adv-x="606" d="M39 -268q0 45 27.5 71.5t70.5 26.5h78v1475h-78q-43 0 -70.5 26.5t-27.5 71.5t27.5 71.5t70.5 26.5h170q158 0 158 -147v-1573q0 -147 -158 -148h-170q-43 0 -70.5 27t-27.5 72z" />
<glyph unicode="^" horiz-adv-x="1228" d="M137 723q0 39 27 90l315 573q47 88 135 88.5t136 -88.5l315 -573q27 -51 27 -90q0 -74 -97 -74q-88 0 -133 82l-248 457l-247 -457q-45 -82 -134 -82q-96 0 -96 74z" />
<glyph unicode="_" horiz-adv-x="1024" d="M-25 -205q0 51 25 51h1024q25 0 25 -51t-25 -51h-1024q-25 0 -25 51z" />
<glyph unicode="`" d="M14 1483q0 39 28 63.5t62 24.5q47 0 80 -33l172 -174q31 -31 31 -68q0 -39 -23.5 -64.5t-62.5 -25.5q-37 0 -74 33l-161 150q-52 47 -52 94z" />
<glyph unicode="a" horiz-adv-x="909" d="M78 270q0 127 41 205t137 129l223 117q80 41 80 117q0 47 -25.5 78.5t-70.5 31.5q-61 0 -88 -30.5t-35 -100.5q-4 -37 -37 -58.5t-82 -21.5t-90 25.5t-41 77.5q0 139 98.5 217t249.5 78q121 0 199 -25t113.5 -74t47 -100t11.5 -129v-569q0 -41 7 -97.5t7 -68.5 q0 -98 -125 -99q-131 0 -131 142l-4 -2q-63 -139 -227 -140q-117 0 -187.5 73.5t-70.5 223.5zM340 301q0 -61 23.5 -96t64.5 -35q59 0 95 58.5t36 148.5v196l-88 -61q-82 -57 -106.5 -98t-24.5 -113z" />
<glyph unicode="b" horiz-adv-x="948" d="M121 123v1229q0 150 125 149.5t125 -149.5v-346h4q70 129 221 129q82 0 136 -34t82 -98.5t38 -135t10 -165.5v-296q0 -94 -10 -165t-38 -135.5t-82 -98.5t-136 -34q-156 0 -221 129h-4q0 -55 -35 -92t-90 -37q-125 0 -125 150zM371 451q0 -270 125 -271q63 0 83.5 68.5 t20.5 222.5v145q0 182 -21.5 247t-84.5 65q-123 0 -123 -269v-208z" />
<glyph unicode="c" horiz-adv-x="872" d="M86 453v202q0 92 6 153.5t27.5 128.5t59.5 106.5t107.5 65.5t166.5 26q82 0 145.5 -22.5t100 -55.5t60 -76t32 -79t8.5 -71q0 -70 -34 -105.5t-89 -35.5q-66 0 -96.5 33t-30.5 108q0 51 -26.5 79t-67.5 28q-37 0 -59.5 -18.5t-32 -58.5t-12.5 -79t-3 -104v-246 q0 -141 23.5 -201.5t83.5 -60.5q92 0 94 113q4 102 33.5 141t93.5 39q55 0 89 -39t34 -107q0 -39 -7.5 -78.5t-30 -89t-59 -87t-101 -63.5t-148.5 -26q-96 0 -166 26t-108 65.5t-59.5 106.5t-27.5 128.5t-6 153.5z" />
<glyph unicode="d" horiz-adv-x="948" d="M86 406v296q0 94 10 165t38 135.5t82 98.5t136 34q152 0 221 -129h5v346q0 150 124.5 149.5t124.5 -149.5v-1229q0 -150 -125 -150q-55 0 -89.5 37t-34.5 92h-5q-66 -129 -221 -129q-82 0 -136 34t-82 98.5t-38 135.5t-10 165zM348 471q0 -154 20.5 -222.5t84.5 -68.5 q125 0 125 271v208q0 268 -123 269q-63 0 -85 -64.5t-22 -247.5v-145z" />
<glyph unicode="e" horiz-adv-x="872" d="M78 438v232q0 119 12 193.5t50 142t116 98.5t203 31q190 0 269 -105.5t79 -331.5q0 -90 -26.5 -134t-112.5 -44h-328v-112q0 -119 21.5 -178.5t91.5 -59.5q39 0 66.5 35t29.5 80q2 76 33.5 104.5t89.5 28.5q127 0 127 -123q0 -150 -93.5 -236t-246.5 -86q-125 0 -203 31 t-116 98.5t-50 142t-12 193.5zM340 696h217v92q0 150 -108.5 150t-108.5 -150v-92z" />
<glyph unicode="f" horiz-adv-x="530" d="M0 1014q0 94 111 94h26v147q0 137 64.5 191.5t210.5 54.5q125 0 125 -110q0 -84 -76 -86q-45 -2 -59.5 -22.5t-14.5 -72.5v-102h39q111 0 111 -94q0 -92 -111 -92h-39v-799q0 -150 -125 -150t-125 150v799h-26q-111 0 -111 92z" />
<glyph unicode="g" horiz-adv-x="948" d="M86 432v287q0 416 266 416q74 0 137.5 -40t92.5 -110h4q0 150 123 150q55 0 86.5 -38t31.5 -112v-1046q0 -186 -93 -274.5t-281 -88.5q-147 0 -237.5 51t-90.5 156q0 51 35 81t90 30q80 0 110 -74q29 -68 86 -68q78 0 105 50.5t27 168.5v154h-5q-41 -74 -89 -99.5 t-132 -25.5q-82 0 -136 34t-82 98.5t-38 135t-10 164.5zM348 508q0 -182 21.5 -246.5t85.5 -64.5q123 0 123 268v194q0 102 -21.5 167t-45.5 83.5t-52 18.5q-111 0 -111 -244v-176z" />
<glyph unicode="h" horiz-adv-x="948" d="M111 123v1229q0 150 124.5 149.5t124.5 -149.5v-361h5q29 70 93 107t140 37q109 0 174.5 -69t65.5 -206v-737q0 -150 -125 -150t-125 150v678q0 59 -26.5 88t-69.5 29q-131 0 -132 -199v-596q0 -150 -124.5 -150t-124.5 150z" />
<glyph unicode="i" d="M102 1366q0 59 42 101t101.5 42t101.5 -42t42 -101t-42 -101t-101.5 -42t-101.5 42t-42 101zM121 123v862q0 150 125 150t125 -150v-862q0 -150 -125 -150t-125 150z" />
<glyph unicode="j" d="M0 -317q0 49 20.5 68.5t63.5 29.5q37 8 37 88v1116q0 150 125 150t125 -150v-1171q0 -238 -254 -238q-117 1 -117 107zM102 1366q0 59 42 101t101.5 42t101.5 -42t42 -101t-42 -101t-101.5 -42t-101.5 42t-42 101z" />
<glyph unicode="k" horiz-adv-x="909" d="M111 123v1229q0 150 124.5 149.5t124.5 -149.5v-662h5l217 340q66 104 135 105q45 0 84 -29t39 -78q0 -39 -33 -86l-189 -270l228 -525q14 -31 14 -71q0 -45 -36 -74t-87 -29q-94 0 -137 97l-160 376l-80 -102v-221q0 -150 -124.5 -150t-124.5 150z" />
<glyph unicode="l" d="M121 123v1229q0 150 125 149.5t125 -149.5v-1229q0 -150 -125 -150t-125 150z" />
<glyph unicode="m" horiz-adv-x="1404" d="M102 123v862q0 150 125 150t125 -144h4q29 70 93.5 107t140.5 37q84 0 135 -29t88 -96q55 68 112.5 96.5t137.5 28.5q109 0 174.5 -69t65.5 -206v-737q0 -150 -125 -150t-125 150v678q0 59 -27 88t-70 29q-129 0 -129 -199v-596q0 -150 -124.5 -150t-124.5 150v678 q0 59 -27 88t-70 29q-129 0 -129 -199v-596q0 -150 -125 -150t-125 150z" />
<glyph unicode="n" horiz-adv-x="948" d="M111 123v862q0 150 124.5 150t124.5 -144h5q29 70 93 107t140 37q109 0 174.5 -69t65.5 -206v-737q0 -150 -125 -150t-125 150v678q0 59 -26.5 88t-69.5 29q-131 0 -132 -199v-596q0 -150 -124.5 -150t-124.5 150z" />
<glyph unicode="o" horiz-adv-x="909" d="M78 403v302q0 199 84 314.5t293 115.5t292.5 -116t83.5 -314v-302q0 -199 -83.5 -314.5t-292.5 -115.5t-293 115.5t-84 314.5zM340 424q0 -150 25.5 -202t89 -52t89 52t25.5 202v264q0 143 -27.5 196.5t-87 53.5t-87 -53.5t-27.5 -196.5v-264z" />
<glyph unicode="p" horiz-adv-x="948" d="M121 -274v1259q0 150 125 150t125 -150h4q31 70 92 110t129 40q82 0 136 -34t82 -98.5t38 -135t10 -165.5v-296q0 -94 -10 -165t-38 -135.5t-82 -98.5t-136 -34q-154 0 -221 125h-4v-372q0 -150 -125 -150t-125 150zM371 440q0 -270 125 -270q63 0 83.5 68.5t20.5 222.5 v155q0 182 -21.5 247t-84.5 65q-123 0 -123 -269v-219z" />
<glyph unicode="q" horiz-adv-x="948" d="M86 406v296q0 94 10 165t38 135.5t82 98.5t136 34q68 0 129.5 -40t91.5 -110h5q0 150 124.5 150t124.5 -150v-1259q0 -150 -124.5 -150t-124.5 150v372h-5q-68 -125 -221 -125q-82 0 -136 34t-82 98.5t-38 135.5t-10 165zM348 461q0 -154 20.5 -222.5t84.5 -68.5 q125 0 125 270v219q0 268 -123 269q-63 0 -85 -64.5t-22 -247.5v-155z" />
<glyph unicode="r" horiz-adv-x="681" d="M111 123v876q0 135 116.5 135.5t116.5 -135.5v-104h4q63 240 187 240q53 0 87.5 -41t34.5 -121q0 -63 -36.5 -106.5t-118.5 -43.5q-61 0 -101.5 -40t-40.5 -111v-549q0 -150 -124.5 -150t-124.5 150z" />
<glyph unicode="s" horiz-adv-x="833" d="M63 279q0 66 34 95t85 29q68 0 96.5 -35.5t34.5 -117.5q8 -90 109 -90q98 0 98 102q0 41 -18.5 70.5t-69.5 68.5l-190 142q-102 76 -135 137t-33 156q0 145 93 222t249 77q94 0 163.5 -29t104.5 -74t51.5 -88t16.5 -82q0 -123 -131 -123q-96 0 -103 97q-6 113 -108 112 q-39 0 -62.5 -23.5t-23.5 -62.5q0 -66 55 -106l153 -117q131 -98 184.5 -167t53.5 -173q0 -158 -101.5 -242t-260.5 -84q-182 0 -263.5 93.5t-81.5 212.5z" />
<glyph unicode="t" horiz-adv-x="530" d="M0 1014q0 94 111 94h26v190q0 150 125 150t125 -150v-190h57q111 0 111 -94q0 -92 -111 -92h-57v-652q0 -39 13.5 -57t54.5 -20q92 -4 92 -89q0 -61 -38 -88.5t-120 -27.5q-133 0 -192.5 58t-59.5 147v729h-26q-111 0 -111 92z" />
<glyph unicode="u" horiz-adv-x="948" d="M111 248v737q0 150 124.5 150t124.5 -150v-678q0 -117 97 -117q131 0 131 199v596q0 150 125 150t125 -150v-862q0 -150 -125 -150t-125 144h-4q-29 -70 -93.5 -107t-140.5 -37q-109 0 -174 69t-65 206z" />
<glyph unicode="v" horiz-adv-x="872" d="M45 1020q0 53 38 84t89 31q63 0 96 -31t45 -100l131 -728h5l124 728q12 66 41 98.5t90.5 32.5t92 -32t30.5 -75q0 -41 -12 -86l-201 -856q-14 -59 -52 -86t-124 -27q-94 0 -130 35t-56 123l-197 832q-10 41 -10 57z" />
<glyph unicode="w" horiz-adv-x="1327" d="M53 1008q0 59 35 93t92 34q115 0 135 -148l103 -686h4l104 629q18 113 46 159t90 46q96 0 116 -115l140 -719h4l102 698q20 135 133 136q51 0 84 -34t33 -91q0 -27 -8 -66l-168 -815q-16 -84 -50 -120t-118 -36q-86 0 -123 43t-55 144l-88 461h-5l-94 -510 q-25 -137 -166 -138q-76 0 -113.5 39t-56.5 129l-168 793q-8 35 -8 74z" />
<glyph unicode="x" horiz-adv-x="833" d="M39 88q0 41 33 100l200 373l-176 330q-41 80 -41 127q0 55 38 86t89 31q53 0 79 -20.5t52 -80.5l109 -227l117 244q41 84 116 84q57 0 92 -33t35 -84q0 -39 -45 -123l-178 -324l193 -356q43 -82 43 -125q0 -49 -39 -83t-97 -34q-86 0 -120 80l-125 275l-138 -277 q-39 -78 -104 -78q-57 0 -95 32t-38 83z" />
<glyph unicode="y" horiz-adv-x="872" d="M39 1018q0 53 36 85t97 32q113 0 129 -97l145 -772h5l122 731q12 68 42 103t94 35q55 0 90 -30t35 -81q0 -23 -15 -80l-260 -1096q-39 -166 -98.5 -219t-214.5 -53q-117 0 -117 109q0 43 21.5 65.5t76.5 28.5q29 2 41.5 5t25.5 18.5t13 46t-8 61.5l-250 1042 q-10 56 -10 66z" />
<glyph unicode="z" horiz-adv-x="872" d="M53 104q0 49 35 111l395 676h-301q-125 0 -125 106q0 111 125 111h502q129 0 129 -86q0 -49 -45 -129l-395 -676h321q125 0 125 -106q0 -111 -125 -111h-520q-121 0 -121 104z" />
<glyph unicode="{" horiz-adv-x="643" d="M8 567q0 39 21.5 69t62.5 30q27 0 43.5 7t29.5 38.5t13 91.5v426q0 272 242 272h133q82 0 82 -98t-82 -98h-45q-80 0 -80 -121v-404q0 -68 -19.5 -111.5t-56.5 -63t-60.5 -26t-58.5 -10.5v-4q35 -4 58.5 -10t60.5 -25.5t56.5 -63.5t19.5 -112v-403q0 -121 80 -121h45 q82 0 82 -98.5t-82 -98.5h-133q-242 0 -242 273v426q0 84 -22.5 110.5t-63.5 26.5t-62.5 29.5t-21.5 68.5z" />
<glyph unicode="|" horiz-adv-x="454" d="M111 115v1245q0 74 31.5 111.5t85 37.5t85 -37.5t31.5 -111.5v-1245q0 -74 -31.5 -112t-85 -38t-85 38t-31.5 112z" />
<glyph unicode="}" horiz-adv-x="643" d="M8 -268.5q0 98.5 82 98.5h45q80 0 80 121v403q0 68 19.5 112t56.5 63.5t60.5 25.5t58.5 10v4q-35 4 -58.5 10.5t-60.5 26t-56.5 63.5t-19.5 111v404q0 121 -80 121h-45q-82 0 -82 98t82 98h133q242 0 242 -272v-426q0 -84 22.5 -110.5t63.5 -26.5t62.5 -30t21.5 -69 t-21.5 -68.5t-62.5 -29.5q-27 0 -43 -7t-29.5 -39t-13.5 -91v-426q0 -272 -242 -273h-133q-82 0 -82 98.5z" />
<glyph unicode="~" horiz-adv-x="1228" d="M84 518q0 86 81 155.5t208 69.5q104 0 254 -55q154 -55 202 -55q59 0 124 48t104 48q88 0 88 -88t-83 -156.5t-218 -68.5q-82 0 -244 55t-201 55q-59 0 -123.5 -49t-103.5 -49q-88 0 -88 90z" />
<glyph unicode="&#xa0;" />
<glyph unicode="&#xa1;" horiz-adv-x="569" d="M129 978.5q0 65.5 46 111t109.5 45.5t109.5 -45.5t46 -111t-46 -110.5t-109.5 -45t-109.5 45t-46 110.5zM147 66q0 59 9 143l39 434q4 59 22.5 84t67.5 25t67.5 -25t22.5 -84l39 -434q8 -84 8 -143v-316q0 -143 -137.5 -143t-137.5 143v316z" />
<glyph unicode="&#xa2;" horiz-adv-x="983" d="M125 453v202q0 92 6 153.5t27.5 129.5t61.5 106.5t110.5 64.5t171.5 26q53 0 82 -5l22 91q20 76 64 75q12 0 23.5 -10t11.5 -22q0 -20 -9 -47l-26 -103q199 -53 198 -299q0 -53 -26.5 -88t-81.5 -35q-63 0 -86 28t-33 111q-6 47 -25 70l-180 -713q25 -18 74 -18 q123 0 127 133q2 164 119 164q115 0 114 -143q0 -201 -98 -276t-280 -75q-63 0 -107 9l-39 -150q-14 -57 -55 -57q-37 0 -37 41q0 25 8 55l35 141q-104 47 -138 155t-34 286zM375 408q0 -55 2 -78h4l154 606q-2 2 -13 2q-96 0 -121.5 -61.5t-25.5 -288.5v-180z" />
<glyph unicode="&#xa3;" horiz-adv-x="983" d="M45 702.5q0 34.5 24.5 61.5t71.5 27h33q-72 160 -72 280q0 182 123 293t312 111q190 0 293.5 -101.5t103.5 -247.5q0 -133 -135 -133q-61 0 -89 32t-38 99q-20 143 -146 144q-80 0 -120.5 -57.5t-40.5 -139.5q0 -113 79 -280h228q47 0 71.5 -27t24.5 -61.5t-24.5 -61.5 t-71.5 -27h-166q16 -45 16 -86q0 -74 -49 -161.5t-143 -165.5l4 -4q84 31 160 30q59 0 124.5 -18.5t102.5 -18.5q35 0 76 13.5t69 13.5q41 0 69 -25.5t28 -72.5q0 -72 -72 -109t-174 -37q-66 0 -183.5 29t-168.5 29q-43 0 -111 -23q-57 -20 -98 -20q-39 0 -61.5 33.5 t-22.5 78.5q0 29 31.5 66t68.5 71.5t68.5 95t31.5 128.5q0 86 -20 153h-111q-47 0 -71.5 27t-24.5 61.5z" />
<glyph unicode="&#xa4;" horiz-adv-x="983" d="M0 722.5q0 149.5 80 272.5l-47 41q-29 27 -29 66t29.5 69.5t68.5 30.5q49 0 80 -33l37 -36q117 82 273 81q158 0 270 -81l37 36q33 33 80 33q39 0 68.5 -30.5t29.5 -69.5t-29 -66l-47 -41q82 -127 82 -272t-82 -272l47 -41q29 -27 29 -66t-29.5 -69.5t-68.5 -30.5 q-45 0 -80 32l-37 37q-113 -82 -270 -82q-156 0 -273 82l-37 -37q-33 -33 -80 -32q-39 0 -68.5 30.5t-29.5 69.5t29 66l47 41q-80 122 -80 271.5zM250 723q0 -123 64.5 -190.5t177 -67.5t177 67.5t64.5 190.5t-64.5 190.5t-177 67.5t-177 -67.5t-64.5 -190.5z" />
<glyph unicode="&#xa5;" horiz-adv-x="983" d="M39 1366q0 45 36 77t95 32q47 0 74.5 -21.5t52.5 -87.5l195 -526l194 526q25 66 52.5 87.5t74.5 21.5q59 0 95 -32t36 -77q0 -37 -20 -82l-244 -545h133q100 0 100 -82q0 -84 -100 -84h-190v-131h190q100 0 100 -82q0 -84 -100 -84h-190v-163q0 -61 -39 -100.5 t-92.5 -39.5t-92.5 39t-39 101v163h-165q-100 0 -101 84q0 82 101 82h165v131h-165q-100 0 -101 84q0 82 101 82h108l-244 545q-20 45 -20 82z" />
<glyph unicode="&#xa6;" horiz-adv-x="454" d="M111 115v342q0 74 31.5 111.5t85 37.5t85 -38t31.5 -111v-342q0 -74 -31.5 -112t-85 -38t-85 38t-31.5 112zM111 1018v342q0 74 31.5 111.5t85 37.5t85 -37.5t31.5 -111.5v-342q0 -74 -31.5 -112t-85 -38t-85 38t-31.5 112z" />
<glyph unicode="&#xa7;" horiz-adv-x="985" d="M70 635q0 203 157 305q-90 92 -90 227.5t88 238.5t275 103q174 0 265 -79.5t91 -184.5q0 -51 -37 -84t-92 -33q-82 0 -115 97q-29 88 -104 88q-66 0 -93.5 -38t-27.5 -83q0 -82 123 -174l182 -139q123 -96 173 -174t50 -181q0 -182 -161 -291l24 -28q80 -94 80 -213 q0 -174 -107.5 -268.5t-277.5 -94.5q-184 0 -275.5 91.5t-91.5 193.5q0 123 127 123q90 0 115 -100q27 -111 137 -111q59 0 91 36t32 91q0 92 -143 199l-203 151q-192 150 -192 332zM303 674q0 -68 92 -139l213 -168q74 49 74 114q0 43 -27.5 81t-99.5 93l-178 142 q-74 -43 -74 -123z" />
<glyph unicode="&#xa8;" d="M-82 1364q0 57 40 97t97.5 40t97.5 -40t40 -97t-40 -97t-97.5 -40t-97.5 40t-40 97zM299 1364q0 57 40 97t97.5 40t97 -40t39.5 -97t-39.5 -97t-97 -40t-97.5 40t-40 97z" />
<glyph unicode="&#xa9;" horiz-adv-x="1638" d="M47 737.5q0 319.5 226.5 545.5t546 226t545.5 -226t226 -545.5t-226 -546t-545.5 -226.5t-546 226.5t-226.5 546zM281 737.5q0 -245.5 151.5 -400.5t387 -155t387 155t151.5 400.5t-151.5 400t-387 154.5t-387 -154.5t-151.5 -400zM442 743q0 195 111 321t295 126 q150 0 245 -80t95 -170q0 -43 -22.5 -71.5t-63.5 -28.5q-72 0 -109 88q-29 76 -147 76q-86 0 -136.5 -69t-50.5 -187q0 -117 51.5 -190t139.5 -73q47 0 87 23.5t58 56.5q47 92 115 92q39 0 62.5 -24.5t23.5 -65.5q0 -76 -98.5 -172t-245.5 -96q-182 0 -296 127t-114 317z " />
<glyph unicode="&#xaa;" horiz-adv-x="591" d="M25 956q0 154 114 201l172 70q51 23 51 67q0 25 -16 43.5t-45 18.5q-39 0 -57.5 -19.5t-22.5 -60.5q-6 -47 -112 -47q-31 0 -57.5 15.5t-26.5 45.5q0 90 68.5 137.5t189.5 47.5q172 0 224 -49.5t52 -147.5v-340q0 -25 4 -58.5t4 -41.5q0 -59 -80 -60q-61 0 -89.5 19.5 t-26.5 64.5h-4q-43 -84 -174 -84q-76 0 -122 44t-46 134zM221 983q0 -74 58 -74q39 0 61 33t22 84v111l-55 -33q-53 -31 -69.5 -54.5t-16.5 -66.5z" />
<glyph unicode="&#xab;" horiz-adv-x="872" d="M68 579.5q0 71.5 73 137.5l148 133q29 29 63 29q37 0 63.5 -24t26.5 -67q0 -29 -55 -77l-149 -131l149 -131q55 -49 55 -78q0 -43 -26.5 -66.5t-63.5 -23.5q-35 0 -63 28l-148 133q-73 66 -73 137.5zM430 579.5q0 71.5 74 137.5l147 133q29 29 64 29q37 0 63.5 -24 t26.5 -67q0 -29 -55 -77l-150 -131l150 -131q55 -49 55 -78q0 -43 -26.5 -66.5t-63.5 -23.5q-35 0 -64 28l-147 133q-74 66 -74 137.5z" />
<glyph unicode="&#xac;" horiz-adv-x="1228" d="M35 821q0 45 40 77t103 32h873q63 0 103 -33t40 -84v-440q0 -63 -32 -103.5t-77 -40.5t-76.5 40t-31.5 104v340h-799q-63 0 -103 31.5t-40 76.5z" />
<glyph unicode="&#xad;" horiz-adv-x="681" d="M80 579.5q0 49.5 32.5 83t94.5 33.5h268q61 0 94 -33.5t33 -83t-32.5 -83t-94.5 -33.5h-268q-61 0 -94 33.5t-33 83z" />
<glyph unicode="&#xae;" horiz-adv-x="1638" d="M47 737.5q0 319.5 226.5 545.5t546 226t545.5 -226t226 -545.5t-226 -546t-545.5 -226.5t-546 226.5t-226.5 546zM281 737.5q0 -245.5 151.5 -400.5t387 -155t387 155t151.5 400.5t-151.5 400t-387 154.5t-387 -154.5t-151.5 -400zM514 440v629q0 43 27.5 67.5t66.5 24.5 h258q150 0 224.5 -55t74.5 -193q0 -104 -53 -165.5t-117 -67.5l142 -195q16 -20 16 -53q0 -37 -24.5 -61.5t-71.5 -24.5q-35 0 -55.5 14.5t-49.5 55.5l-190 264h-62v-240q0 -45 -26.5 -69.5t-65.5 -24.5t-66.5 24.5t-27.5 69.5zM700 823h150q51 0 79.5 19.5t28.5 77.5 q0 98 -108 98h-150v-195z" />
<glyph unicode="&#xaf;" d="M-98 1360q0 88 100 88h487q100 0 100.5 -88t-100.5 -88h-487q-100 0 -100 88z" />
<glyph unicode="&#xb0;" horiz-adv-x="819" d="M117 1182q0 123 85 208t207.5 85t207.5 -85t85 -208t-85 -208t-207.5 -85t-207.5 85t-85 208zM272 1181.5q0 -57.5 40 -97.5t97.5 -40t97.5 40t40 97.5t-40 97.5t-97.5 40t-97.5 -40t-40 -97.5z" />
<glyph unicode="&#xb1;" horiz-adv-x="1228" d="M35 108.5q0 45.5 40 77t103 31.5h873q63 0 103 -31.5t40 -77t-40 -77t-103 -31.5h-873q-63 0 -103 31.5t-40 77zM35 745.5q0 45.5 40 77t103 31.5h328v162q0 63 30.5 103t78 40t78 -40t30.5 -103v-162h328q63 0 103 -31.5t40 -77t-40 -77t-103 -31.5h-328v-162 q0 -63 -30.5 -103t-78 -40t-78 40t-30.5 103v162h-328q-63 0 -103 31.5t-40 77z" />
<glyph unicode="&#xb2;" horiz-adv-x="638" d="M33 657q0 156 180 326l61 57q68 61 92.5 102.5t24.5 86.5q0 43 -21.5 72.5t-56.5 29.5q-72 0 -82 -121q-6 -70 -94 -69q-92 0 -92 98q0 109 68.5 172.5t195.5 63.5q141 0 215 -57.5t74 -164.5q0 -131 -117 -239l-110 -101q-98 -90 -123 -170h262q49 0 72.5 -16t23.5 -61 q0 -78 -96 -78h-397q-80 -1 -80 69z" />
<glyph unicode="&#xb3;" horiz-adv-x="647" d="M25 799q0 98 94 98q96 0 102 -86q6 -106 98 -106q96 0 97 139q0 84 -25.5 113.5t-85.5 33.5q-53 4 -72.5 18.5t-19.5 45.5q0 33 16.5 46t67.5 21q55 10 76.5 37t21.5 90q0 94 -82 94q-72 0 -86 -75q-12 -68 -98 -68q-88 0 -88 74q0 90 65.5 145.5t202.5 55.5 q293 0 293 -228q0 -147 -115 -180v-4q76 -25 106 -76t30 -141q0 -272 -308 -273q-88 0 -149.5 24t-90 62.5t-39.5 72.5t-11 67z" />
<glyph unicode="&#xb4;" d="M104 1296q0 37 31 68l172 174q33 33 80 33q35 0 62.5 -24.5t27.5 -63.5q0 -47 -51 -94l-162 -150q-37 -33 -74 -33q-39 0 -62.5 25.5t-23.5 64.5z" />
<glyph unicode="&#xb5;" horiz-adv-x="948" d="M111 -274v1259q0 150 124.5 150t124.5 -150v-678q0 -117 97 -117q131 0 131 199v596q0 150 125 150t125 -150v-862q0 -150 -125 -150t-125 144h-4q-25 -57 -74 -97q-57 -47 -113 -47q-27 0 -32 19h-5v-266q0 -150 -124.5 -150t-124.5 150z" />
<glyph unicode="&#xb6;" horiz-adv-x="985" d="M41 1110q0 104 29.5 180t80 114t104.5 54.5t116 16.5h432q45 0 72.5 -34t27.5 -89v-1565q0 -55 -27.5 -89t-74.5 -34q-49 0 -77 34t-28 89v1501h-157v-1501q0 -55 -28 -89t-77 -34q-47 0 -74.5 34t-27.5 89v973q-123 0 -207 95t-84 255z" />
<glyph unicode="&#xb7;" d="M90 624.5q0 63.5 45 109.5t110.5 46t110.5 -46t45 -109.5t-45 -109.5t-110.5 -46t-110.5 46t-45 109.5z" />
<glyph unicode="&#xb8;" d="M39 -365q0 23 12 37.5t29 14.5q18 0 54 -11.5t50 -11.5q37 0 63.5 18.5t26.5 55.5q0 27 -20.5 46t-48.5 19q-10 0 -32.5 -3t-31.5 -3q-16 0 -27.5 10.5t-11.5 22.5q0 14 23 47l78 123h106l-73 -115h26q178 0 178 -143q0 -82 -69.5 -133t-171.5 -51q-68 0 -114 21t-46 56z " />
<glyph unicode="&#xb9;" d="M10 1245q0 55 56 64q133 18 178 102q25 43 40 53.5t60 10.5q72 0 72 -68v-748q0 -39 -29 -62.5t-76 -23.5q-45 0 -73.5 24t-28.5 62v529h-123q-76 0 -76 57z" />
<glyph unicode="&#xba;" horiz-adv-x="591" d="M25 1036v181q0 123 58 190.5t212 67.5t213 -69t59 -189v-181q0 -121 -59 -189.5t-213 -68.5t-212 68.5t-58 189.5zM221 1061q0 -90 15.5 -121t58.5 -31t59.5 31t16.5 121v129q0 90 -16.5 121.5t-59.5 31.5t-58.5 -30.5t-15.5 -122.5v-129z" />
<glyph unicode="&#xbb;" horiz-adv-x="872" d="M68 371q0 29 55 78l149 131l-149 131q-55 49 -55 77q0 43 26.5 67t63.5 24q35 0 63 -29l148 -133q74 -66 73.5 -137.5t-73.5 -137.5l-148 -133q-29 -29 -63 -28q-37 0 -63.5 23.5t-26.5 66.5zM430 371q0 29 55 78l150 131l-150 131q-55 49 -55 77q0 43 26.5 67t63.5 24 q35 0 64 -29l147 -133q74 -66 74 -137.5t-74 -137.5l-147 -133q-29 -29 -64 -28q-37 0 -63.5 23.5t-26.5 66.5z" />
<glyph unicode="&#xbc;" horiz-adv-x="1515" d="M-4 1245q0 55 55 64q133 18 178 102q25 43 40.5 53.5t60.5 10.5q72 0 71 -68v-748q0 -39 -28.5 -62.5t-75.5 -23.5q-45 0 -73.5 24t-28.5 62v529h-123q-76 0 -76 57zM334 -14q0 31 12 59l621 1428q25 53 88 53q35 0 53 -19.5t18 -44.5q0 -33 -12 -59l-620 -1428 q-25 -53 -88 -53q-35 0 -53.5 19.5t-18.5 44.5zM852 219q0 47 27 98l266 508q27 49 123 49q111 0 110 -77v-502h31q74 0 74 -78t-74 -78h-31v-76q0 -90 -94 -90q-92 0 -92 90v76h-236q-55 0 -79.5 17.5t-24.5 62.5zM1012 295h180v350h-4z" />
<glyph unicode="&#xbd;" horiz-adv-x="1515" d="M-4 1245q0 55 55 64q133 18 178 102q25 43 40.5 53.5t60.5 10.5q72 0 71 -68v-748q0 -39 -28.5 -62.5t-75.5 -23.5q-45 0 -73.5 24t-28.5 62v529h-123q-76 0 -76 57zM326 -14q0 31 12 59l620 1428q25 53 89 53q35 0 53 -19.5t18 -44.5q0 -33 -12 -59l-621 -1428 q-25 -53 -88 -53q-35 0 -53 19.5t-18 44.5zM909 70q0 156 181 325l61 58q68 61 92.5 102t24.5 86q0 43 -21.5 72.5t-56.5 29.5q-72 0 -82 -120q-6 -70 -94 -70q-92 0 -92 98q0 109 68.5 172.5t195.5 63.5q141 0 215 -57.5t74 -163.5q0 -131 -117 -240l-111 -100 q-98 -90 -123 -170h262q49 0 73 -16.5t24 -61.5q0 -78 -97 -78h-397q-80 0 -80 70z" />
<glyph unicode="&#xbe;" horiz-adv-x="1515" d="M23 799q0 98 94 98q96 0 102 -86q6 -106 98 -106q96 0 97 139q0 84 -26 113.5t-85 33.5q-53 4 -72.5 18.5t-19.5 45.5q0 33 16.5 46t67.5 21q55 10 76.5 37t21.5 90q0 94 -82 94q-72 0 -86 -75q-12 -68 -98 -68q-88 0 -88 74q0 90 65.5 145.5t202.5 55.5q293 0 293 -228 q0 -147 -115 -180v-4q76 -25 106 -76t30 -141q0 -272 -308 -273q-88 0 -149.5 24t-90 62.5t-39.5 72.5t-11 67zM399 -14q0 31 13 59l620 1428q25 53 88 53q35 0 53.5 -19.5t18.5 -44.5q0 -33 -12 -59l-621 -1428q-25 -53 -88 -53q-35 0 -53.5 19.5t-18.5 44.5zM852 219 q0 47 27 98l266 508q27 49 123 49q111 0 110 -77v-502h31q74 0 74 -78t-74 -78h-31v-76q0 -90 -94 -90q-92 0 -92 90v76h-236q-55 0 -79.5 17.5t-24.5 62.5zM1012 295h180v350h-4z" />
<glyph unicode="&#xbf;" horiz-adv-x="985" d="M121 -10q0 98 37 178t116 168l60 65q70 76 93.5 122t31.5 122q4 47 33.5 77t82.5 30q51 0 84 -35t33 -94q0 -166 -119 -304l-73 -83q-117 -133 -117 -265q0 -70 33 -113.5t94 -43.5q47 0 80 30.5t41 81.5q8 76 37.5 105.5t89.5 29.5q55 0 89 -33.5t34 -90.5 q0 -145 -97.5 -237.5t-263.5 -92.5q-399 0 -399 383zM420 978.5q0 65.5 46 111t109.5 45.5t109.5 -45.5t46 -111t-46 -110.5t-109.5 -45t-109.5 45t-46 110.5z" />
<glyph unicode="&#xc0;" horiz-adv-x="1062" d="M27 92q0 47 16 113l262 1104q27 115 70 153.5t155 38.5q104 0 151.5 -40t74.5 -152l260 -1096q20 -90 20 -113q0 -63 -39 -95t-96 -32q-76 0 -110.5 38t-55.5 141l-43 217h-338l-55 -267q-14 -70 -46 -99.5t-97 -29.5q-61 0 -95 32t-34 87zM313 1849q0 39 28 63.5 t62 24.5q47 0 80 -32l172 -174q31 -31 31 -68q0 -39 -23.5 -64.5t-62.5 -25.5q-37 0 -74 33l-161 149q-52 47 -52 94zM399 586h250l-121 612h-4z" />
<glyph unicode="&#xc1;" horiz-adv-x="1062" d="M27 92q0 47 16 113l262 1104q27 115 70 153.5t155 38.5q104 0 151.5 -40t74.5 -152l260 -1096q20 -90 20 -113q0 -63 -39 -95t-96 -32q-76 0 -110.5 38t-55.5 141l-43 217h-338l-55 -267q-14 -70 -46 -99.5t-97 -29.5q-61 0 -95 32t-34 87zM399 586h250l-121 612h-4z M403 1663q0 37 31 68l172 174q33 33 80 32q35 0 62.5 -24.5t27.5 -63.5q0 -47 -51 -94l-162 -149q-37 -33 -74 -33q-39 0 -62.5 25.5t-23.5 64.5z" />
<glyph unicode="&#xc2;" horiz-adv-x="1062" d="M27 92q0 47 16 113l262 1104q27 115 70 153.5t155 38.5q104 0 151.5 -40t74.5 -152l260 -1096q20 -90 20 -113q0 -63 -39 -95t-96 -32q-76 0 -110.5 38t-55.5 141l-43 217h-338l-55 -267q-14 -70 -46 -99.5t-97 -29.5q-61 0 -95 32t-34 87zM283 1657q0 29 24 63l88 133 q55 84 149.5 84t149.5 -84l88 -133q25 -35 25 -63q0 -37 -25.5 -60.5t-64.5 -23.5q-45 0 -74 45l-98 164l-99 -164q-29 -45 -73 -45q-39 0 -64.5 23.5t-25.5 60.5zM399 586h250l-121 612h-4z" />
<glyph unicode="&#xc3;" horiz-adv-x="1062" d="M27 92q0 47 16 113l262 1104q27 115 70 153.5t155 38.5q104 0 151.5 -40t74.5 -152l260 -1096q20 -90 20 -113q0 -63 -39 -95t-96 -32q-76 0 -110.5 38t-55.5 141l-43 217h-338l-55 -267q-14 -70 -46 -99.5t-97 -29.5q-61 0 -95 32t-34 87zM207 1667q0 59 65.5 116.5 t135.5 57.5q59 0 142 -26.5t97 -26.5q33 0 79 36t75 36q35 0 58.5 -20.5t23.5 -53.5q0 -66 -61.5 -125t-137.5 -59q-20 0 -130 26.5t-122 26.5q-27 0 -67.5 -35t-69.5 -35q-39 0 -63.5 22.5t-24.5 59.5zM399 586h250l-121 612h-4z" />
<glyph unicode="&#xc4;" horiz-adv-x="1062" d="M27 92q0 47 16 113l262 1104q27 115 70 153.5t155 38.5q104 0 151.5 -40t74.5 -152l260 -1096q20 -90 20 -113q0 -63 -39 -95t-96 -32q-76 0 -110.5 38t-55.5 141l-43 217h-338l-55 -267q-14 -70 -46 -99.5t-97 -29.5q-61 0 -95 32t-34 87zM217 1730.5q0 57.5 40 97.5 t97.5 40t97.5 -40t40 -97.5t-40 -97.5t-97.5 -40t-97.5 40t-40 97.5zM399 586h250l-121 612h-4zM598 1730.5q0 57.5 40 97.5t97.5 40t97 -40t39.5 -97.5t-39.5 -97.5t-97 -40t-97.5 40t-40 97.5z" />
<glyph unicode="&#xc5;" horiz-adv-x="1062" d="M27 92q0 47 16 113l262 1104q27 115 70 153.5t155 38.5q104 0 151.5 -40t74.5 -152l260 -1096q20 -90 20 -113q0 -63 -39 -95t-96 -32q-76 0 -110.5 38t-55.5 141l-43 217h-338l-55 -267q-14 -70 -46 -99.5t-97 -29.5q-61 0 -95 32t-34 87zM315 1759q0 90 63.5 153.5 t154 63.5t154 -63.5t63.5 -153.5t-63.5 -153.5t-154 -63.5t-154 63.5t-63.5 153.5zM399 586h250l-121 612h-4zM434 1759q0 -41 29 -69.5t69.5 -28.5t69.5 28.5t29 69.5t-29 70t-69.5 29t-69.5 -29t-29 -70z" />
<glyph unicode="&#xc6;" horiz-adv-x="1593" d="M12 92q0 20 15 74l342 1198q31 111 147 111h864q143 0 143.5 -123t-143.5 -123h-407v-340h383q143 0 143 -123t-143 -123h-383v-397h407q143 0 143.5 -123t-143.5 -123h-534q-147 0 -148 147v222h-336l-67 -248q-20 -72 -51 -110t-94.5 -38t-100.5 37t-37 82zM422 586 h276v655h-98z" />
<glyph unicode="&#xc7;" horiz-adv-x="1024" d="M82 606v234q0 379 108.5 524t364.5 145q197 0 305.5 -104.5t108.5 -263.5q0 -164 -140 -164q-78 0 -106.5 35t-40.5 131q-20 150 -127 149q-70 0 -105.5 -30.5t-58 -140t-22.5 -324.5v-82q0 -102 1 -162.5t7 -130.5t17.5 -106.5t30.5 -71.5t49 -48.5t73 -13.5q53 0 94 44 t43 106q6 129 35 177t112 48q139 0 140 -162q0 -207 -104.5 -312.5t-291.5 -117.5l-53 -80h27q178 0 178 -143q0 -82 -69.5 -133t-172.5 -51q-68 0 -113.5 21.5t-45.5 55.5q0 23 12 37.5t29 14.5q18 0 54 -11.5t50 -11.5q37 0 63.5 18.5t26.5 55.5q0 27 -20.5 46t-48.5 19 q-10 0 -33 -3t-31 -3q-16 0 -27.5 10.5t-11.5 22.5q0 14 23 47l57 88q-78 6 -139.5 33t-102.5 60.5t-68.5 88t-43 101.5t-23.5 117.5t-9 118.5t-1 122z" />
<glyph unicode="&#xc8;" horiz-adv-x="1024" d="M115 147v1180q0 147 147 148h535q143 0 143 -123t-143 -123h-408v-340h381q143 0 143 -123t-143 -123h-381v-397h422q143 0 143 -123t-143 -123h-549q-147 0 -147 147zM305 1849q0 39 27.5 63.5t62.5 24.5q47 0 80 -32l172 -174q31 -31 31 -68q0 -39 -23.5 -64.5 t-62.5 -25.5q-37 0 -74 33l-162 149q-51 47 -51 94z" />
<glyph unicode="&#xc9;" horiz-adv-x="1024" d="M115 147v1180q0 147 147 148h535q143 0 143 -123t-143 -123h-408v-340h381q143 0 143 -123t-143 -123h-381v-397h422q143 0 143 -123t-143 -123h-549q-147 0 -147 147zM395 1663q0 37 31 68l172 174q33 33 80 32q35 0 62.5 -24.5t27.5 -63.5q0 -47 -51 -94l-162 -149 q-37 -33 -74 -33q-39 0 -62.5 25.5t-23.5 64.5z" />
<glyph unicode="&#xca;" horiz-adv-x="1024" d="M115 147v1180q0 147 147 148h535q143 0 143 -123t-143 -123h-408v-340h381q143 0 143 -123t-143 -123h-381v-397h422q143 0 143 -123t-143 -123h-549q-147 0 -147 147zM274 1657q0 29 25 63l88 133q55 84 149.5 84t149.5 -84l88 -133q25 -35 25 -63q0 -37 -25.5 -60.5 t-64.5 -23.5q-45 0 -74 45l-98 164l-99 -164q-29 -45 -73 -45q-39 0 -65 23.5t-26 60.5z" />
<glyph unicode="&#xcb;" horiz-adv-x="1024" d="M115 147v1180q0 147 147 148h535q143 0 143 -123t-143 -123h-408v-340h381q143 0 143 -123t-143 -123h-381v-397h422q143 0 143 -123t-143 -123h-549q-147 0 -147 147zM209 1730.5q0 57.5 40 97.5t97 40t97 -40t40 -97.5t-40 -97.5t-97 -40t-97 40t-40 97.5zM590 1730.5 q0 57.5 40 97.5t97 40t97 -40t40 -97.5t-40 -97.5t-97 -40t-97 40t-40 97.5z" />
<glyph unicode="&#xcc;" horiz-adv-x="528" d="M45 1849q0 39 27.5 63.5t62.5 24.5q47 0 80 -32l172 -174q31 -31 31 -68q0 -39 -23.5 -64.5t-62.5 -25.5q-37 0 -74 33l-162 149q-51 47 -51 94zM127 115v1245q0 63 40 102t97.5 39t97 -39t39.5 -102v-1245q0 -63 -39.5 -102.5t-97 -39.5t-97.5 39.5t-40 102.5z" />
<glyph unicode="&#xcd;" horiz-adv-x="528" d="M127 115v1245q0 63 40 102t97.5 39t97 -39t39.5 -102v-1245q0 -63 -39.5 -102.5t-97 -39.5t-97.5 39.5t-40 102.5zM135 1663q0 37 31 68l172 174q33 33 80 32q35 0 62.5 -24.5t27.5 -63.5q0 -47 -51 -94l-162 -149q-37 -33 -74 -33q-39 0 -62.5 25.5t-23.5 64.5z" />
<glyph unicode="&#xce;" horiz-adv-x="528" d="M2 1657q0 29 25 63l88 133q55 84 149 84t150 -84l88 -133q25 -35 24 -63q0 -37 -25.5 -60.5t-64.5 -23.5q-45 0 -74 45l-98 164l-98 -164q-29 -45 -74 -45q-39 0 -64.5 23.5t-25.5 60.5zM127 115v1245q0 63 40 102t97.5 39t97 -39t39.5 -102v-1245q0 -63 -39.5 -102.5 t-97 -39.5t-97.5 39.5t-40 102.5z" />
<glyph unicode="&#xcf;" horiz-adv-x="528" d="M-63 1730.5q0 57.5 39.5 97.5t97 40t97.5 -40t40 -97.5t-40 -97.5t-97.5 -40t-97 40t-39.5 97.5zM127 115v1245q0 63 40 102t97.5 39t97 -39t39.5 -102v-1245q0 -63 -39.5 -102.5t-97 -39.5t-97.5 39.5t-40 102.5zM317 1730.5q0 57.5 40 97.5t97.5 40t97.5 -40t40 -97.5 t-40 -97.5t-97.5 -40t-97.5 40t-40 97.5z" />
<glyph unicode="&#xd0;" horiz-adv-x="1099" d="M-35 770q0 51 22.5 77.5t57.5 26.5h70v453q0 147 147 148h359q211 0 304 -154t93 -492v-190q0 -639 -410 -639h-346q-147 0 -147 147v521h-70q-35 0 -57.5 26.5t-22.5 75.5zM389 217h127q115 0 165 100.5t50 372.5v119q0 252 -42 350t-165 98h-135v-383h123 q35 0 57.5 -26.5t22.5 -77.5q0 -49 -22.5 -75.5t-57.5 -26.5h-123v-451z" />
<glyph unicode="&#xd1;" horiz-adv-x="1175" d="M115 115v1245q0 66 40 103.5t111 37.5q70 0 113 -27.5t78 -111.5l325 -807h4v805q0 63 40 102t97.5 39t97.5 -39t40 -102v-1233q0 -72 -40 -113t-97 -41q-86 0 -129 28t-76 112l-326 819h-4v-817q0 -63 -40 -102.5t-97 -39.5t-97 39.5t-40 102.5zM250 1667 q0 59 65.5 116.5t135.5 57.5q59 0 142 -26.5t97 -26.5q33 0 79 36t75 36q35 0 58.5 -20.5t23.5 -53.5q0 -66 -61.5 -125t-137.5 -59q-20 0 -130 26.5t-122 26.5q-27 0 -67.5 -35t-69.5 -35q-39 0 -63.5 22.5t-24.5 59.5z" />
<glyph unicode="&#xd2;" horiz-adv-x="1064" d="M82 594v311q0 156 25.5 269.5t65.5 177t102.5 100.5t121 47t136 10t136 -10t121 -47t102.5 -100.5t65.5 -177t25.5 -269.5v-311q0 -162 -23.5 -278.5t-61.5 -183t-98.5 -105.5t-122 -50.5t-145 -11.5t-145 11.5t-122 50.5t-98.5 105.5t-61.5 183t-23.5 278.5zM301 1849 q0 39 27.5 63.5t62.5 24.5q47 0 80 -32l172 -174q31 -31 31 -68q0 -39 -23.5 -64.5t-62.5 -25.5q-37 0 -74 33l-162 149q-51 47 -51 94zM369 594q0 -176 19.5 -267t51 -118t93 -27t93 27t51 118t19.5 267v311q0 227 -39 307t-125 80t-124.5 -79.5t-38.5 -307.5v-311z" />
<glyph unicode="&#xd3;" horiz-adv-x="1064" d="M82 594v311q0 156 25.5 269.5t65.5 177t102.5 100.5t121 47t136 10t136 -10t121 -47t102.5 -100.5t65.5 -177t25.5 -269.5v-311q0 -162 -23.5 -278.5t-61.5 -183t-98.5 -105.5t-122 -50.5t-145 -11.5t-145 11.5t-122 50.5t-98.5 105.5t-61.5 183t-23.5 278.5zM369 594 q0 -176 19.5 -267t51 -118t93 -27t93 27t51 118t19.5 267v311q0 227 -39 307t-125 80t-124.5 -79.5t-38.5 -307.5v-311zM391 1663q0 37 31 68l172 174q33 33 80 32q35 0 62.5 -24.5t27.5 -63.5q0 -47 -51 -94l-162 -149q-37 -33 -74 -33q-39 0 -62.5 25.5t-23.5 64.5z" />
<glyph unicode="&#xd4;" horiz-adv-x="1064" d="M82 594v311q0 156 25.5 269.5t65.5 177t102.5 100.5t121 47t136 10t136 -10t121 -47t102.5 -100.5t65.5 -177t25.5 -269.5v-311q0 -162 -23.5 -278.5t-61.5 -183t-98.5 -105.5t-122 -50.5t-145 -11.5t-145 11.5t-122 50.5t-98.5 105.5t-61.5 183t-23.5 278.5zM270 1657 q0 29 25 63l88 133q55 84 149.5 84t149.5 -84l88 -133q25 -35 25 -63q0 -37 -26 -60.5t-64 -23.5q-45 0 -74 45l-99 164l-98 -164q-29 -45 -74 -45q-39 0 -64.5 23.5t-25.5 60.5zM369 594q0 -176 19.5 -267t51 -118t93 -27t93 27t51 118t19.5 267v311q0 227 -39 307t-125 80 t-124.5 -79.5t-38.5 -307.5v-311z" />
<glyph unicode="&#xd5;" horiz-adv-x="1064" d="M82 594v311q0 156 25.5 269.5t65.5 177t102.5 100.5t121 47t136 10t136 -10t121 -47t102.5 -100.5t65.5 -177t25.5 -269.5v-311q0 -162 -23.5 -278.5t-61.5 -183t-98.5 -105.5t-122 -50.5t-145 -11.5t-145 11.5t-122 50.5t-98.5 105.5t-61.5 183t-23.5 278.5zM195 1667 q0 59 65.5 116.5t134.5 57.5q59 0 142.5 -26.5t97.5 -26.5q33 0 79 36t74 36q35 0 58.5 -20.5t23.5 -53.5q0 -66 -61 -125t-137 -59q-20 0 -130 26.5t-122 26.5q-27 0 -68 -35t-69 -35q-39 0 -63.5 22.5t-24.5 59.5zM369 594q0 -176 19.5 -267t51 -118t93 -27t93 27t51 118 t19.5 267v311q0 227 -39 307t-125 80t-124.5 -79.5t-38.5 -307.5v-311z" />
<glyph unicode="&#xd6;" horiz-adv-x="1064" d="M82 594v311q0 156 25.5 269.5t65.5 177t102.5 100.5t121 47t136 10t136 -10t121 -47t102.5 -100.5t65.5 -177t25.5 -269.5v-311q0 -162 -23.5 -278.5t-61.5 -183t-98.5 -105.5t-122 -50.5t-145 -11.5t-145 11.5t-122 50.5t-98.5 105.5t-61.5 183t-23.5 278.5zM205 1730.5 q0 57.5 40 97.5t97 40t97 -40t40 -97.5t-40 -97.5t-97 -40t-97 40t-40 97.5zM369 594q0 -176 19.5 -267t51 -118t93 -27t93 27t51 118t19.5 267v311q0 227 -39 307t-125 80t-124.5 -79.5t-38.5 -307.5v-311zM586 1730.5q0 57.5 40 97.5t97 40t97 -40t40 -97.5t-40 -97.5 t-97 -40t-97 40t-40 97.5z" />
<glyph unicode="&#xd7;" horiz-adv-x="1228" d="M127 182q0 66 51 117l283 281l-283 280q-51 51 -51 117q0 33 28.5 61.5t65.5 28.5q59 0 113 -53l280 -281l281 281q53 53 113 53q37 0 65.5 -28.5t28.5 -61.5q0 -66 -51 -117l-283 -280l283 -281q51 -51 51 -117q0 -33 -29 -61.5t-65 -28.5q-59 0 -113 53l-281 281 l-280 -281q-53 -53 -113 -53q-37 0 -65.5 28.5t-28.5 61.5z" />
<glyph unicode="&#xd8;" horiz-adv-x="1064" d="M51 -10q0 20 31 73l65 113q-66 125 -65 418v311q0 156 25.5 269.5t65.5 177t102.5 100.5t121 47t135.5 10q223 0 324 -110l39 65q20 37 34.5 50.5t35 13.5t35 -13.5t14.5 -31.5q0 -20 -25 -60l-71 -123q66 -150 65 -395v-311q0 -162 -23.5 -278.5t-61.5 -183 t-98.5 -105.5t-122 -50.5t-145.5 -11.5q-227 0 -323 111l-29 -51q-43 -78 -82 -78q-20 0 -33.5 14.5t-13.5 28.5zM369 561h4l313 537q-12 104 -49 149t-105 45q-86 0 -124.5 -79.5t-38.5 -307.5v-344zM379 373q14 -109 48 -150t105 -41q61 0 93 27t51.5 118t19.5 267v321h-4 z" />
<glyph unicode="&#xd9;" horiz-adv-x="1099" d="M104 391v969q0 63 40 102t97.5 39t97.5 -39t40 -102v-942q0 -236 172 -236q80 0 125 58.5t45 177.5v942q0 63 40 102t97 39t97 -39t40 -102v-969q0 -199 -113.5 -312.5t-330.5 -113.5t-332 113.5t-115 312.5zM319 1849q0 39 28 63.5t63 24.5q47 0 79 -32l173 -174 q31 -31 30 -68q0 -39 -23.5 -64.5t-62.5 -25.5q-37 0 -74 33l-161 149q-52 47 -52 94z" />
<glyph unicode="&#xda;" horiz-adv-x="1099" d="M104 391v969q0 63 40 102t97.5 39t97.5 -39t40 -102v-942q0 -236 172 -236q80 0 125 58.5t45 177.5v942q0 63 40 102t97 39t97 -39t40 -102v-969q0 -199 -113.5 -312.5t-330.5 -113.5t-332 113.5t-115 312.5zM410 1663q0 37 30 68l172 174q33 33 80 32q35 0 62.5 -24.5 t27.5 -63.5q0 -47 -51 -94l-162 -149q-37 -33 -73 -33q-39 0 -62.5 25.5t-23.5 64.5z" />
<glyph unicode="&#xdb;" horiz-adv-x="1099" d="M104 391v969q0 63 40 102t97.5 39t97.5 -39t40 -102v-942q0 -236 172 -236q80 0 125 58.5t45 177.5v942q0 63 40 102t97 39t97 -39t40 -102v-969q0 -199 -113.5 -312.5t-330.5 -113.5t-332 113.5t-115 312.5zM289 1657q0 29 24 63l88 133q55 84 149.5 84t149.5 -84 l88 -133q25 -35 25 -63q0 -37 -25.5 -60.5t-64.5 -23.5q-45 0 -74 45l-98 164l-98 -164q-29 -45 -74 -45q-39 0 -64.5 23.5t-25.5 60.5z" />
<glyph unicode="&#xdc;" horiz-adv-x="1099" d="M104 391v969q0 63 40 102t97.5 39t97.5 -39t40 -102v-942q0 -236 172 -236q80 0 125 58.5t45 177.5v942q0 63 40 102t97 39t97 -39t40 -102v-969q0 -199 -113.5 -312.5t-330.5 -113.5t-332 113.5t-115 312.5zM223 1730.5q0 57.5 40 97.5t97.5 40t97.5 -40t40 -97.5 t-40 -97.5t-97.5 -40t-97.5 40t-40 97.5zM604 1730.5q0 57.5 40 97.5t97.5 40t97.5 -40t40 -97.5t-40 -97.5t-97.5 -40t-97.5 40t-40 97.5z" />
<glyph unicode="&#xdd;" horiz-adv-x="985" d="M33 1376q0 61 39 93t96 32q63 0 91 -25.5t58 -103.5l177 -467l186 488q25 63 57.5 85.5t83.5 22.5q55 0 93 -33.5t38 -76.5q0 -39 -20 -84l-301 -686v-506q0 -63 -40 -102.5t-97.5 -39.5t-97.5 39t-40 103v491l-299 674q-24 57 -24 96zM352 1663q0 37 31 68l172 174 q33 33 80 32q35 0 62.5 -24.5t27.5 -63.5q0 -47 -51 -94l-162 -149q-37 -33 -74 -33q-39 0 -62.5 25.5t-23.5 64.5z" />
<glyph unicode="&#xde;" horiz-adv-x="1024" d="M115 115v1245q0 63 40 102t97 39t97 -39t40 -102v-123h215q373 0 373 -416q0 -186 -89 -309t-261 -123h-238v-274q0 -63 -40 -102.5t-97 -39.5t-97 39.5t-40 102.5zM389 596h123q178 0 178 213q0 221 -164 221h-137v-434z" />
<glyph unicode="&#xdf;" horiz-adv-x="985" d="M111 123v1044q0 162 97 248t286 86q172 0 266 -90t94 -250q0 -209 -145 -268v-4q96 -27 133 -112t37 -228q0 -82 -3.5 -140.5t-12.5 -129t-30.5 -117.5t-54.5 -90t-86 -63.5t-123 -20.5q-51 0 -89 26.5t-38 77.5q0 43 18.5 66.5t78.5 44.5q47 16 62 75.5t15 221.5 q0 131 -19 193.5t-79 82.5q-72 25 -72 101q0 47 16.5 68.5t57.5 39.5q72 35 72 137q0 172 -109 172q-123 0 -123 -159v-1012q0 -150 -124.5 -150t-124.5 150z" />
<glyph unicode="&#xe0;" horiz-adv-x="909" d="M78 270q0 127 41 205t137 129l223 117q80 41 80 117q0 47 -25.5 78.5t-70.5 31.5q-61 0 -88 -30.5t-35 -100.5q-4 -37 -37 -58.5t-82 -21.5t-90 25.5t-41 77.5q0 139 98.5 217t249.5 78q121 0 199 -25t113.5 -74t47 -100t11.5 -129v-569q0 -41 7 -97.5t7 -68.5 q0 -98 -125 -99q-131 0 -131 142l-4 -2q-63 -139 -227 -140q-117 0 -187.5 73.5t-70.5 223.5zM223 1483q0 39 28 63.5t62 24.5q47 0 80 -33l172 -174q31 -31 31 -68q0 -39 -23.5 -64.5t-62.5 -25.5q-37 0 -74 33l-162 150q-51 47 -51 94zM340 301q0 -61 23.5 -96t64.5 -35 q59 0 95 58.5t36 148.5v196l-88 -61q-82 -57 -106.5 -98t-24.5 -113z" />
<glyph unicode="&#xe1;" horiz-adv-x="909" d="M78 270q0 127 41 205t137 129l223 117q80 41 80 117q0 47 -25.5 78.5t-70.5 31.5q-61 0 -88 -30.5t-35 -100.5q-4 -37 -37 -58.5t-82 -21.5t-90 25.5t-41 77.5q0 139 98.5 217t249.5 78q121 0 199 -25t113.5 -74t47 -100t11.5 -129v-569q0 -41 7 -97.5t7 -68.5 q0 -98 -125 -99q-131 0 -131 142l-4 -2q-63 -139 -227 -140q-117 0 -187.5 73.5t-70.5 223.5zM313 1296q0 37 31 68l172 174q33 33 80 33q35 0 62.5 -24.5t27.5 -63.5q0 -47 -51 -94l-162 -150q-37 -33 -74 -33q-39 0 -62.5 25.5t-23.5 64.5zM340 301q0 -61 23.5 -96 t64.5 -35q59 0 95 58.5t36 148.5v196l-88 -61q-82 -57 -106.5 -98t-24.5 -113z" />
<glyph unicode="&#xe2;" horiz-adv-x="909" d="M78 270q0 127 41 205t137 129l223 117q80 41 80 117q0 47 -25.5 78.5t-70.5 31.5q-61 0 -88 -30.5t-35 -100.5q-4 -37 -37 -58.5t-82 -21.5t-90 25.5t-41 77.5q0 139 98.5 217t249.5 78q121 0 199 -25t113.5 -74t47 -100t11.5 -129v-569q0 -41 7 -97.5t7 -68.5 q0 -98 -125 -99q-131 0 -131 142l-4 -2q-63 -139 -227 -140q-117 0 -187.5 73.5t-70.5 223.5zM193 1290q0 29 24 64l88 133q55 84 149.5 84t149.5 -84l88 -133q25 -35 25 -64q0 -37 -25.5 -60.5t-64.5 -23.5q-45 0 -74 45l-98 164l-99 -164q-29 -45 -73 -45 q-39 0 -64.5 23.5t-25.5 60.5zM340 301q0 -61 23.5 -96t64.5 -35q59 0 95 58.5t36 148.5v196l-88 -61q-82 -57 -106.5 -98t-24.5 -113z" />
<glyph unicode="&#xe3;" horiz-adv-x="909" d="M78 270q0 127 41 205t137 129l223 117q80 41 80 117q0 47 -25.5 78.5t-70.5 31.5q-61 0 -88 -30.5t-35 -100.5q-4 -37 -37 -58.5t-82 -21.5t-90 25.5t-41 77.5q0 139 98.5 217t249.5 78q121 0 199 -25t113.5 -74t47 -100t11.5 -129v-569q0 -41 7 -97.5t7 -68.5 q0 -98 -125 -99q-131 0 -131 142l-4 -2q-63 -139 -227 -140q-117 0 -187.5 73.5t-70.5 223.5zM117 1300q0 59 65.5 117t134.5 58q59 0 142.5 -27t97.5 -27q33 0 79 36t75 36q35 0 58.5 -20.5t23.5 -53.5q0 -66 -61.5 -125t-137.5 -59q-20 0 -130 26.5t-122 26.5 q-27 0 -68 -34.5t-69 -34.5q-39 0 -63.5 22t-24.5 59zM340 301q0 -61 23.5 -96t64.5 -35q59 0 95 58.5t36 148.5v196l-88 -61q-82 -57 -106.5 -98t-24.5 -113z" />
<glyph unicode="&#xe4;" horiz-adv-x="909" d="M78 270q0 127 41 205t137 129l223 117q80 41 80 117q0 47 -25.5 78.5t-70.5 31.5q-61 0 -88 -30.5t-35 -100.5q-4 -37 -37 -58.5t-82 -21.5t-90 25.5t-41 77.5q0 139 98.5 217t249.5 78q121 0 199 -25t113.5 -74t47 -100t11.5 -129v-569q0 -41 7 -97.5t7 -68.5 q0 -98 -125 -99q-131 0 -131 142l-4 -2q-63 -139 -227 -140q-117 0 -187.5 73.5t-70.5 223.5zM127 1364q0 57 40 97t97.5 40t97 -40t39.5 -97t-39.5 -97t-97 -40t-97.5 40t-40 97zM340 301q0 -61 23.5 -96t64.5 -35q59 0 95 58.5t36 148.5v196l-88 -61q-82 -57 -106.5 -98 t-24.5 -113zM508 1364q0 57 40 97t97 40t97 -40t40 -97t-40 -97t-97 -40t-97 40t-40 97z" />
<glyph unicode="&#xe5;" horiz-adv-x="909" d="M78 270q0 127 41 205t137 129l223 117q80 41 80 117q0 47 -25.5 78.5t-70.5 31.5q-61 0 -88 -30.5t-35 -100.5q-4 -37 -37 -58.5t-82 -21.5t-90 25.5t-41 77.5q0 139 98.5 217t249.5 78q121 0 199 -25t113.5 -74t47 -100t11.5 -129v-569q0 -41 7 -97.5t7 -68.5 q0 -98 -125 -99q-131 0 -131 142l-4 -2q-63 -139 -227 -140q-117 0 -187.5 73.5t-70.5 223.5zM258 1423q0 90 63.5 153.5t153.5 63.5t153.5 -63.5t63.5 -153.5t-63.5 -153.5t-153.5 -63.5t-153.5 63.5t-63.5 153.5zM340 301q0 -61 23.5 -96t64.5 -35q59 0 95 58.5t36 148.5 v196l-88 -61q-82 -57 -106.5 -98t-24.5 -113zM377 1423q0 -41 28.5 -69.5t69.5 -28.5t69.5 28.5t28.5 69.5t-28.5 70t-69.5 29t-69.5 -29t-28.5 -70z" />
<glyph unicode="&#xe6;" horiz-adv-x="1327" d="M78 270q0 127 41 205t137 129l223 117q80 41 80 117q0 47 -25.5 78.5t-70.5 31.5q-61 0 -88 -30.5t-35 -100.5q-4 -37 -37 -58.5t-82 -21.5t-90 25.5t-41 77.5q0 139 98.5 217t249.5 78q164 0 246 -82q96 82 229 82q190 0 269.5 -105.5t79.5 -331.5q0 -90 -27 -134 t-113 -44h-329v-112q0 -119 21.5 -178.5t90.5 -59.5q41 0 68.5 35t30.5 80q2 76 33.5 104.5t88.5 28.5q127 0 127 -123q0 -150 -93 -236t-247 -86q-117 0 -188.5 34t-120.5 112q-96 -145 -268 -146q-117 0 -187.5 73.5t-70.5 223.5zM340 301q0 -61 23.5 -96t64.5 -35 q59 0 95 58.5t36 148.5v196l-88 -61q-82 -57 -106.5 -98t-24.5 -113zM793 696h219v92q0 150 -111 150q-109 0 -108 -150v-92z" />
<glyph unicode="&#xe7;" horiz-adv-x="872" d="M86 453v202q0 92 6 153.5t27.5 128.5t59.5 106.5t107.5 65.5t166.5 26q82 0 145.5 -22.5t100 -55.5t60 -76t32 -79t8.5 -71q0 -70 -34 -105.5t-89 -35.5q-66 0 -96.5 33t-30.5 108q0 51 -26.5 79t-67.5 28q-37 0 -59.5 -18.5t-32 -58.5t-12.5 -79t-3 -104v-246 q0 -141 23.5 -201.5t83.5 -60.5q92 0 94 113q4 102 33.5 141t93.5 39q55 0 89 -39t34 -107q0 -47 -12.5 -95t-41 -103.5t-92 -93t-151.5 -45.5l-60 -95h27q178 0 178 -143q0 -82 -69.5 -133t-171.5 -51q-68 0 -114 21.5t-46 55.5q0 23 12 37.5t29 14.5q18 0 54 -11.5 t50 -11.5q37 0 63.5 18.5t26.5 55.5q0 27 -20.5 46t-48.5 19q-10 0 -33 -3t-31 -3q-16 0 -27.5 10.5t-11.5 22.5q0 14 23 47l63 100q-82 6 -140 36t-90 70t-50.5 103.5t-23.5 122t-5 144.5z" />
<glyph unicode="&#xe8;" horiz-adv-x="872" d="M78 438v232q0 119 12 193.5t50 142t116 98.5t203 31q190 0 269 -105.5t79 -331.5q0 -90 -26.5 -134t-112.5 -44h-328v-112q0 -119 21.5 -178.5t91.5 -59.5q39 0 66.5 35t29.5 80q2 76 33.5 104.5t89.5 28.5q127 0 127 -123q0 -150 -93.5 -236t-246.5 -86q-125 0 -203 31 t-116 98.5t-50 142t-12 193.5zM217 1483q0 39 27.5 63.5t62.5 24.5q47 0 80 -33l172 -174q31 -31 31 -68q0 -39 -23.5 -64.5t-62.5 -25.5q-37 0 -74 33l-162 150q-51 47 -51 94zM340 696h217v92q0 150 -108.5 150t-108.5 -150v-92z" />
<glyph unicode="&#xe9;" horiz-adv-x="872" d="M78 438v232q0 119 12 193.5t50 142t116 98.5t203 31q190 0 269 -105.5t79 -331.5q0 -90 -26.5 -134t-112.5 -44h-328v-112q0 -119 21.5 -178.5t91.5 -59.5q39 0 66.5 35t29.5 80q2 76 33.5 104.5t89.5 28.5q127 0 127 -123q0 -150 -93.5 -236t-246.5 -86q-125 0 -203 31 t-116 98.5t-50 142t-12 193.5zM307 1296q0 37 31 68l172 174q33 33 80 33q35 0 62.5 -24.5t27.5 -63.5q0 -47 -51 -94l-162 -150q-37 -33 -74 -33q-39 0 -62.5 25.5t-23.5 64.5zM340 696h217v92q0 150 -108.5 150t-108.5 -150v-92z" />
<glyph unicode="&#xea;" horiz-adv-x="872" d="M78 438v232q0 119 12 193.5t50 142t116 98.5t203 31q190 0 269 -105.5t79 -331.5q0 -90 -26.5 -134t-112.5 -44h-328v-112q0 -119 21.5 -178.5t91.5 -59.5q39 0 66.5 35t29.5 80q2 76 33.5 104.5t89.5 28.5q127 0 127 -123q0 -150 -93.5 -236t-246.5 -86q-125 0 -203 31 t-116 98.5t-50 142t-12 193.5zM186 1290q0 29 25 64l88 133q55 84 149.5 84t149.5 -84l88 -133q25 -35 25 -64q0 -37 -26 -60.5t-64 -23.5q-45 0 -74 45l-98 164l-99 -164q-29 -45 -74 -45q-39 0 -64.5 23.5t-25.5 60.5zM340 696h217v92q0 150 -108.5 150t-108.5 -150v-92z " />
<glyph unicode="&#xeb;" horiz-adv-x="872" d="M78 438v232q0 119 12 193.5t50 142t116 98.5t203 31q190 0 269 -105.5t79 -331.5q0 -90 -26.5 -134t-112.5 -44h-328v-112q0 -119 21.5 -178.5t91.5 -59.5q39 0 66.5 35t29.5 80q2 76 33.5 104.5t89.5 28.5q127 0 127 -123q0 -150 -93.5 -236t-246.5 -86q-125 0 -203 31 t-116 98.5t-50 142t-12 193.5zM121 1364q0 57 40 97t97 40t97 -40t40 -97t-40 -97t-97 -40t-97 40t-40 97zM340 696h217v92q0 150 -108.5 150t-108.5 -150v-92zM502 1364q0 57 40 97t97 40t97 -40t40 -97t-40 -97t-97 -40t-97 40t-40 97z" />
<glyph unicode="&#xec;" d="M14 1483q0 39 28 63.5t62 24.5q47 0 80 -33l172 -174q31 -31 31 -68q0 -39 -23.5 -64.5t-62.5 -25.5q-37 0 -74 33l-161 150q-52 47 -52 94zM121 123v862q0 150 125 150t125 -150v-862q0 -150 -125 -150t-125 150z" />
<glyph unicode="&#xed;" d="M104 1296q0 37 31 68l172 174q33 33 80 33q35 0 62.5 -24.5t27.5 -63.5q0 -47 -51 -94l-162 -150q-37 -33 -74 -33q-39 0 -62.5 25.5t-23.5 64.5zM121 123v862q0 150 125 150t125 -150v-862q0 -150 -125 -150t-125 150z" />
<glyph unicode="&#xee;" d="M-16 1290q0 29 24 64l88 133q55 84 149.5 84t149.5 -84l88 -133q25 -35 25 -64q0 -37 -25.5 -60.5t-64.5 -23.5q-45 0 -74 45l-98 164l-99 -164q-29 -45 -73 -45q-39 0 -64.5 23.5t-25.5 60.5zM121 123v862q0 150 125 150t125 -150v-862q0 -150 -125 -150t-125 150z" />
<glyph unicode="&#xef;" d="M-82 1364q0 57 40 97t97.5 40t97.5 -40t40 -97t-40 -97t-97.5 -40t-97.5 40t-40 97zM121 123v862q0 150 125 150t125 -150v-862q0 -150 -125 -150t-125 150zM299 1364q0 57 40 97t97.5 40t97 -40t39.5 -97t-39.5 -97t-97 -40t-97.5 40t-40 97z" />
<glyph unicode="&#xf0;" horiz-adv-x="909" d="M78 356v269q0 383 352 383q92 0 145 -72l5 4q-18 147 -95 283l-96 -52q-57 -29 -96 -28q-31 0 -51.5 17.5t-20.5 43.5q0 59 70 94l78 39q-27 23 -74 43.5t-74.5 39t-27.5 48.5q0 84 96 84q141 0 268 -116l86 45q57 29 96 28q31 0 51.5 -17t20.5 -44q0 -59 -70 -94 l-75 -41q78 -104 121.5 -247.5t43.5 -289.5v-420q0 -178 -83.5 -280.5t-292.5 -102.5t-293 102.5t-84 280.5zM340 377q0 -135 23.5 -181t91 -46t91 46t23.5 181v227q0 137 -23.5 182t-91 45t-91 -45t-23.5 -182v-227z" />
<glyph unicode="&#xf1;" horiz-adv-x="948" d="M111 123v862q0 150 124.5 150t124.5 -144h5q29 70 93 107t140 37q109 0 174.5 -69t65.5 -206v-737q0 -150 -125 -150t-125 150v678q0 59 -26.5 88t-69.5 29q-131 0 -132 -199v-596q0 -150 -124.5 -150t-124.5 150zM150 1300q0 59 65.5 117t134.5 58q59 0 142 -27t98 -27 q33 0 79 36t74 36q35 0 58.5 -20.5t23.5 -53.5q0 -66 -61.5 -125t-136.5 -59q-20 0 -130 26.5t-122 26.5q-27 0 -68 -34.5t-69 -34.5q-39 0 -63.5 22t-24.5 59z" />
<glyph unicode="&#xf2;" horiz-adv-x="909" d="M78 403v302q0 199 84 314.5t293 115.5t292.5 -116t83.5 -314v-302q0 -199 -83.5 -314.5t-292.5 -115.5t-293 115.5t-84 314.5zM223 1483q0 39 28 63.5t62 24.5q47 0 80 -33l172 -174q31 -31 31 -68q0 -39 -23.5 -64.5t-62.5 -25.5q-37 0 -74 33l-162 150q-51 47 -51 94z M340 424q0 -150 25.5 -202t89 -52t89 52t25.5 202v264q0 143 -27.5 196.5t-87 53.5t-87 -53.5t-27.5 -196.5v-264z" />
<glyph unicode="&#xf3;" horiz-adv-x="909" d="M78 403v302q0 199 84 314.5t293 115.5t292.5 -116t83.5 -314v-302q0 -199 -83.5 -314.5t-292.5 -115.5t-293 115.5t-84 314.5zM313 1296q0 37 31 68l172 174q33 33 80 33q35 0 62.5 -24.5t27.5 -63.5q0 -47 -51 -94l-162 -150q-37 -33 -74 -33q-39 0 -62.5 25.5 t-23.5 64.5zM340 424q0 -150 25.5 -202t89 -52t89 52t25.5 202v264q0 143 -27.5 196.5t-87 53.5t-87 -53.5t-27.5 -196.5v-264z" />
<glyph unicode="&#xf4;" horiz-adv-x="909" d="M78 403v302q0 199 84 314.5t293 115.5t292.5 -116t83.5 -314v-302q0 -199 -83.5 -314.5t-292.5 -115.5t-293 115.5t-84 314.5zM193 1290q0 29 24 64l88 133q55 84 149.5 84t149.5 -84l88 -133q25 -35 25 -64q0 -37 -25.5 -60.5t-64.5 -23.5q-45 0 -74 45l-98 164 l-99 -164q-29 -45 -73 -45q-39 0 -64.5 23.5t-25.5 60.5zM340 424q0 -150 25.5 -202t89 -52t89 52t25.5 202v264q0 143 -27.5 196.5t-87 53.5t-87 -53.5t-27.5 -196.5v-264z" />
<glyph unicode="&#xf5;" horiz-adv-x="909" d="M78 403v302q0 199 84 314.5t293 115.5t292.5 -116t83.5 -314v-302q0 -199 -83.5 -314.5t-292.5 -115.5t-293 115.5t-84 314.5zM117 1300q0 59 65.5 117t134.5 58q59 0 142.5 -27t97.5 -27q33 0 79 36t75 36q35 0 58.5 -20.5t23.5 -53.5q0 -66 -61.5 -125t-137.5 -59 q-20 0 -130 26.5t-122 26.5q-27 0 -68 -34.5t-69 -34.5q-39 0 -63.5 22t-24.5 59zM340 424q0 -150 25.5 -202t89 -52t89 52t25.5 202v264q0 143 -27.5 196.5t-87 53.5t-87 -53.5t-27.5 -196.5v-264z" />
<glyph unicode="&#xf6;" horiz-adv-x="909" d="M78 403v302q0 199 84 314.5t293 115.5t292.5 -116t83.5 -314v-302q0 -199 -83.5 -314.5t-292.5 -115.5t-293 115.5t-84 314.5zM127 1364q0 57 40 97t97.5 40t97 -40t39.5 -97t-39.5 -97t-97 -40t-97.5 40t-40 97zM340 424q0 -150 25.5 -202t89 -52t89 52t25.5 202v264 q0 143 -27.5 196.5t-87 53.5t-87 -53.5t-27.5 -196.5v-264zM508 1364q0 57 40 97t97 40t97 -40t40 -97t-40 -97t-97 -40t-97 40t-40 97z" />
<glyph unicode="&#xf7;" horiz-adv-x="1228" d="M35 580q0 45 40 76.5t103 31.5h873q63 0 103 -31.5t40 -76.5t-40 -77t-103 -32h-873q-63 0 -103 32t-40 77zM459 145.5q0 63.5 45 109.5t110.5 46t110.5 -46t45 -109.5t-45 -109.5t-110.5 -46t-110.5 46t-45 109.5zM459 1013.5q0 63.5 45 109.5t110.5 46t110.5 -46 t45 -109.5t-45 -109.5t-110.5 -46t-110.5 46t-45 109.5z" />
<glyph unicode="&#xf8;" horiz-adv-x="909" d="M70 -12q0 23 20 55l49 82q-61 100 -61 278v302q0 199 84 314.5t293 115.5q162 0 254 -76l36 61q23 37 58 37q12 0 24.5 -11t12.5 -26q0 -20 -21 -55l-49 -82q61 -100 61 -278v-302q0 -199 -83.5 -314.5t-292.5 -115.5q-166 0 -254 78l-37 -61q-27 -41 -51 -41 q-16 0 -29.5 11.5t-13.5 27.5zM340 455h4l217 362q-20 121 -106 121q-59 0 -87 -53.5t-28 -196.5v-233zM348 291q10 -68 35 -94.5t72 -26.5q63 0 88.5 52t25.5 202v231h-4z" />
<glyph unicode="&#xf9;" horiz-adv-x="948" d="M111 248v737q0 150 124.5 150t124.5 -150v-678q0 -117 97 -117q131 0 131 199v596q0 150 125 150t125 -150v-862q0 -150 -125 -150t-125 144h-4q-29 -70 -93.5 -107t-140.5 -37q-109 0 -174 69t-65 206zM256 1483q0 39 27.5 63.5t62.5 24.5q47 0 80 -33l172 -174 q31 -31 31 -68q0 -39 -23.5 -64.5t-62.5 -25.5q-37 0 -74 33l-162 150q-51 47 -51 94z" />
<glyph unicode="&#xfa;" horiz-adv-x="948" d="M111 248v737q0 150 124.5 150t124.5 -150v-678q0 -117 97 -117q131 0 131 199v596q0 150 125 150t125 -150v-862q0 -150 -125 -150t-125 144h-4q-29 -70 -93.5 -107t-140.5 -37q-109 0 -174 69t-65 206zM346 1296q0 37 31 68l172 174q33 33 80 33q35 0 62.5 -24.5 t27.5 -63.5q0 -47 -51 -94l-162 -150q-37 -33 -74 -33q-39 0 -62.5 25.5t-23.5 64.5z" />
<glyph unicode="&#xfb;" horiz-adv-x="948" d="M111 248v737q0 150 124.5 150t124.5 -150v-678q0 -117 97 -117q131 0 131 199v596q0 150 125 150t125 -150v-862q0 -150 -125 -150t-125 144h-4q-29 -70 -93.5 -107t-140.5 -37q-109 0 -174 69t-65 206zM225 1290q0 29 25 64l88 133q55 84 149.5 84t149.5 -84l88 -133 q25 -35 25 -64q0 -37 -26 -60.5t-65 -23.5q-45 0 -73 45l-99 164l-98 -164q-29 -45 -74 -45q-39 0 -64.5 23.5t-25.5 60.5z" />
<glyph unicode="&#xfc;" horiz-adv-x="948" d="M111 248v737q0 150 124.5 150t124.5 -150v-678q0 -117 97 -117q131 0 131 199v596q0 150 125 150t125 -150v-862q0 -150 -125 -150t-125 144h-4q-29 -70 -93.5 -107t-140.5 -37q-109 0 -174 69t-65 206zM160 1364q0 57 40 97t97 40t97 -40t40 -97t-40 -97t-97 -40t-97 40 t-40 97zM541 1364q0 57 40 97t97 40t97 -40t40 -97t-40 -97t-97 -40t-97 40t-40 97z" />
<glyph unicode="&#xfd;" horiz-adv-x="872" d="M39 1018q0 53 36 85t97 32q113 0 129 -97l145 -772h5l122 731q12 68 42 103t94 35q55 0 90 -30t35 -81q0 -23 -15 -80l-260 -1096q-39 -166 -98.5 -219t-214.5 -53q-117 0 -117 109q0 43 21.5 65.5t76.5 28.5q29 2 41.5 5t25.5 18.5t13 46t-8 61.5l-250 1042 q-10 56 -10 66zM295 1296q0 37 31 68l172 174q33 33 80 33q35 0 62.5 -24.5t27.5 -63.5q0 -47 -52 -94l-161 -150q-37 -33 -74 -33q-39 0 -62.5 25.5t-23.5 64.5z" />
<glyph unicode="&#xfe;" horiz-adv-x="948" d="M121 -274v1626q0 150 125 149.5t125 -149.5v-367h4q31 70 92 110t129 40q82 0 136 -34t82 -98.5t38 -135t10 -165.5v-296q0 -94 -10 -165t-38 -135.5t-82 -98.5t-136 -34q-154 0 -221 125l-4 4v-376q0 -150 -125 -150t-125 150zM371 440q0 -270 125 -270q63 0 83.5 68.5 t20.5 222.5v155q0 182 -21.5 247t-84.5 65q-123 0 -123 -269v-219z" />
<glyph unicode="&#xff;" horiz-adv-x="872" d="M39 1018q0 53 36 85t97 32q113 0 129 -97l145 -772h5l122 731q12 68 42 103t94 35q55 0 90 -30t35 -81q0 -23 -15 -80l-260 -1096q-39 -166 -98.5 -219t-214.5 -53q-117 0 -117 109q0 43 21.5 65.5t76.5 28.5q29 2 41.5 5t25.5 18.5t13 46t-8 61.5l-250 1042 q-10 56 -10 66zM109 1364q0 57 39.5 97t97 40t97.5 -40t40 -97t-40 -97t-97.5 -40t-97 40t-39.5 97zM489 1364q0 57 40 97t97.5 40t97.5 -40t40 -97t-40 -97t-97.5 -40t-97.5 40t-40 97z" />
<glyph unicode="&#x152;" horiz-adv-x="1630" d="M82 594v311q0 156 25.5 269.5t65.5 177t102.5 100.5t121 47t135.5 10q164 0 242 -79v-5h4q18 49 94 50h545q143 0 143.5 -123t-143.5 -123h-446v-340h415q143 0 143.5 -123t-143.5 -123h-415v-397h446q143 0 143.5 -123t-143.5 -123h-497q-121 0 -146 43 q-76 -78 -242 -78q-84 0 -145 11.5t-121.5 50.5t-98.5 105.5t-61.5 183t-23.5 278.5zM369 594q0 -176 19.5 -267t51 -118t93 -27t93 27t51 118t19.5 267v311q0 227 -39 307t-125 80t-124.5 -79.5t-38.5 -307.5v-311z" />
<glyph unicode="&#x153;" horiz-adv-x="1366" d="M94 436v275q0 424 365 424q147 0 260 -86v2q106 84 233 84q190 0 269 -105.5t79 -331.5q0 -90 -26.5 -134t-112.5 -44h-327v-112q0 -119 21.5 -178.5t90.5 -59.5q39 0 66.5 35t29.5 80q2 76 34 104.5t89 28.5q127 0 127 -123q0 -150 -93 -236t-247 -86q-170 0 -264 88 q-80 -88 -235 -88q-199 0 -279 116t-80 347zM356 463q0 -152 21.5 -222.5t93.5 -70.5t92.5 62.5t20.5 205.5v232q0 143 -20.5 205.5t-92.5 62.5t-93.5 -70.5t-21.5 -222.5v-182zM834 696h217v92q0 150 -108.5 150t-108.5 -150v-92z" />
<glyph unicode="&#x178;" horiz-adv-x="985" d="M33 1376q0 61 39 93t96 32q63 0 91 -25.5t58 -103.5l177 -467l186 488q25 63 57.5 85.5t83.5 22.5q55 0 93 -33.5t38 -76.5q0 -39 -20 -84l-301 -686v-506q0 -63 -40 -102.5t-97.5 -39.5t-97.5 39t-40 103v491l-299 674q-24 57 -24 96zM166 1730.5q0 57.5 40 97.5t97 40 t97 -40t40 -97.5t-40 -97.5t-97 -40t-97 40t-40 97.5zM547 1730.5q0 57.5 40 97.5t97 40t97 -40t40 -97.5t-40 -97.5t-97 -40t-97 40t-40 97.5z" />
<glyph unicode="&#x2c6;" d="M-16 1290q0 29 24 64l88 133q55 84 149.5 84t149.5 -84l88 -133q25 -35 25 -64q0 -37 -25.5 -60.5t-64.5 -23.5q-45 0 -74 45l-98 164l-99 -164q-29 -45 -73 -45q-39 0 -64.5 23.5t-25.5 60.5z" />
<glyph unicode="&#x2dc;" d="M-92 1300q0 59 65.5 117t135.5 58q59 0 142 -27t97 -27q33 0 79 36t75 36q35 0 58.5 -20.5t23.5 -53.5q0 -66 -61.5 -125t-137.5 -59q-20 0 -130 26.5t-122 26.5q-27 0 -67.5 -34.5t-69.5 -34.5q-39 0 -63.5 22t-24.5 59z" />
<glyph unicode="&#x2000;" horiz-adv-x="987" />
<glyph unicode="&#x2001;" horiz-adv-x="1976" />
<glyph unicode="&#x2002;" horiz-adv-x="987" />
<glyph unicode="&#x2003;" horiz-adv-x="1976" />
<glyph unicode="&#x2004;" horiz-adv-x="657" />
<glyph unicode="&#x2005;" horiz-adv-x="493" />
<glyph unicode="&#x2006;" horiz-adv-x="327" />
<glyph unicode="&#x2007;" horiz-adv-x="327" />
<glyph unicode="&#x2008;" horiz-adv-x="245" />
<glyph unicode="&#x2009;" horiz-adv-x="395" />
<glyph unicode="&#x200a;" horiz-adv-x="108" />
<glyph unicode="&#x2010;" horiz-adv-x="681" d="M80 579.5q0 49.5 32.5 83t94.5 33.5h268q61 0 94 -33.5t33 -83t-32.5 -83t-94.5 -33.5h-268q-61 0 -94 33.5t-33 83z" />
<glyph unicode="&#x2011;" horiz-adv-x="681" d="M80 579.5q0 49.5 32.5 83t94.5 33.5h268q61 0 94 -33.5t33 -83t-32.5 -83t-94.5 -33.5h-268q-61 0 -94 33.5t-33 83z" />
<glyph unicode="&#x2012;" horiz-adv-x="681" d="M80 579.5q0 49.5 32.5 83t94.5 33.5h268q61 0 94 -33.5t33 -83t-32.5 -83t-94.5 -33.5h-268q-61 0 -94 33.5t-33 83z" />
<glyph unicode="&#x2013;" horiz-adv-x="1024" d="M20 579.5q0 49.5 33 83t94 33.5h730q61 0 94 -33.5t33 -83t-33 -83t-94 -33.5h-730q-61 0 -94 33.5t-33 83z" />
<glyph unicode="&#x2014;" horiz-adv-x="2048" d="M20 579.5q0 49.5 33 83t94 33.5h1754q61 0 94 -33.5t33 -83t-33 -83t-94 -33.5h-1754q-61 0 -94 33.5t-33 83z" />
<glyph unicode="&#x2018;" horiz-adv-x="454" d="M63 1130q0 154 89.5 262.5t183.5 108.5q25 0 40 -15.5t15 -35.5q0 -39 -53 -57q-43 -14 -87 -57.5t-56 -92.5q18 2 43 2q76 0 114.5 -48t38.5 -101q0 -68 -46 -115t-118 -47q-78 0 -121 60t-43 136z" />
<glyph unicode="&#x2019;" horiz-adv-x="454" d="M63 985q0 39 54 57q43 14 87 57.5t56 92.5q-18 -2 -43 -2q-76 0 -115 48t-39 101q0 68 46.5 115t117.5 47q78 0 121 -60.5t43 -135.5q0 -154 -89 -262.5t-183 -108.5q-25 0 -40.5 16.5t-15.5 34.5z" />
<glyph unicode="&#x201a;" horiz-adv-x="454" d="M63 123q0 68 46.5 115t117.5 47q78 0 121 -60.5t43 -136.5q0 -154 -89 -262.5t-183 -108.5q-25 0 -40.5 16.5t-15.5 35.5q0 39 54 57q43 14 87 57t56 92q-18 -2 -43 -2q-76 0 -115 48.5t-39 101.5z" />
<glyph unicode="&#x201c;" horiz-adv-x="872" d="M74 1130q0 154 89 262.5t183 108.5q23 0 39 -15.5t16 -35.5q0 -39 -53 -57q-43 -14 -87 -57.5t-56 -92.5q18 2 43 2q76 0 114.5 -48t38.5 -101q0 -68 -46 -115t-117 -47q-78 0 -121 60t-43 136zM471 1130q0 154 89 262.5t183 108.5q23 0 39.5 -15.5t16.5 -35.5 q0 -39 -54 -57q-43 -14 -87 -57.5t-56 -92.5q18 2 43 2q76 0 115 -48t39 -101q0 -68 -46 -115t-118 -47q-78 0 -121 60t-43 136z" />
<glyph unicode="&#x201d;" horiz-adv-x="872" d="M74 985q0 39 53 57q43 14 87 57.5t56 92.5q-18 -2 -43 -2q-76 0 -114.5 48t-38.5 101q0 68 46 115t118 47q78 0 120.5 -60.5t42.5 -135.5q0 -154 -89 -262.5t-183 -108.5q-23 0 -39 16.5t-16 34.5zM471 985q0 39 53 57q43 14 87 57.5t57 92.5q-18 -2 -43 -2 q-76 0 -115 48t-39 101q0 68 46 115t118 47q78 0 121 -60.5t43 -135.5q0 -154 -89 -262.5t-184 -108.5q-23 0 -39 16.5t-16 34.5z" />
<glyph unicode="&#x201e;" horiz-adv-x="872" d="M74 123q0 68 46 115t118 47q78 0 120.5 -60.5t42.5 -136.5q0 -154 -89 -262.5t-183 -108.5q-23 0 -39 16.5t-16 35.5q0 39 53 57q43 14 87 57t56 92q-18 -2 -43 -2q-76 0 -114.5 48.5t-38.5 101.5zM471 123q0 68 46 115t118 47q78 0 121 -60.5t43 -136.5 q0 -154 -89 -262.5t-184 -108.5q-23 0 -39 16.5t-16 35.5q0 39 53 57q43 14 87 57t57 92q-18 -2 -43 -2q-76 0 -115 48.5t-39 101.5z" />
<glyph unicode="&#x2022;" horiz-adv-x="1024" d="M143 737.5q0 151.5 108.5 260t260.5 108.5t260.5 -108.5t108.5 -260t-108.5 -260t-260.5 -108.5t-260.5 108.5t-108.5 260z" />
<glyph unicode="&#x2026;" horiz-adv-x="2048" d="M186 129.5q0 63.5 46.5 109.5t110 46t109.5 -46t46 -109.5t-46 -110t-109.5 -46.5t-110 46.5t-46.5 110zM868 129.5q0 63.5 45 109.5t111 46t111 -46t45 -109.5t-45 -110t-111 -46.5t-111 46.5t-45 110zM1550 129.5q0 63.5 46 109.5t109.5 46t110 -46t46.5 -109.5 t-46.5 -110t-110 -46.5t-109.5 46.5t-46 110z" />
<glyph unicode="&#x202f;" horiz-adv-x="395" />
<glyph unicode="&#x2039;" horiz-adv-x="530" d="M78 579.5q0 71.5 74 137.5l147 133q29 29 63 29q37 0 64 -24t27 -67q0 -29 -56 -77l-149 -131l149 -131q55 -49 56 -78q0 -43 -27 -66.5t-64 -23.5q-35 0 -63 28l-147 133q-74 66 -74 137.5z" />
<glyph unicode="&#x203a;" horiz-adv-x="530" d="M78 371q0 29 55 78l150 131l-150 131q-55 49 -55 77q0 43 26.5 67t63.5 24q35 0 63 -29l148 -133q74 -66 74 -137.5t-74 -137.5l-148 -133q-29 -29 -63 -28q-37 0 -63.5 23.5t-26.5 66.5z" />
<glyph unicode="&#x205f;" horiz-adv-x="493" />
<glyph unicode="&#x20ac;" horiz-adv-x="983" d="M20 868q0 86 123 82q43 236 166 379.5t320 143.5q367 0 366 -175q0 -49 -28.5 -81.5t-75.5 -32.5q-39 0 -109.5 36.5t-136.5 36.5q-88 0 -144.5 -86t-82.5 -221h272q37 0 57.5 -3t39 -21.5t18.5 -53.5q0 -51 -30 -67.5t-85 -16.5h-293v-114h238q37 0 57.5 -3t39 -21.5 t18.5 -53.5q0 -51 -30 -67.5t-85 -16.5h-221q51 -322 233 -322q59 0 138 43t116 43q43 0 66.5 -29.5t23.5 -76.5q0 -59 -39 -101t-102.5 -60.5t-118.5 -27t-113 -8.5q-205 0 -326.5 145.5t-156.5 393.5q-53 0 -82.5 15.5t-29.5 64.5q0 78 100 82v35q0 53 2 79 q-105 0 -105 80z" />
<glyph unicode="&#x2122;" horiz-adv-x="2048" d="M55 1382.5q0 36.5 24.5 64.5t76.5 28h506q51 0 74.5 -28t23.5 -64.5t-23.5 -65.5t-74.5 -29h-138v-543q0 -72 -40 -102.5t-76.5 -30.5t-76.5 31t-40 102v543h-135q-51 0 -76 29t-25 65.5zM864 745v558q0 100 52.5 142t119.5 42q156 0 219 -158l134 -342l133 342 q63 158 219 158q68 0 120 -42t52 -142v-558q0 -59 -32 -96t-77 -37t-76.5 37t-31.5 96v424h-4l-187 -448q-43 -109 -116.5 -109t-116.5 109l-187 448h-4v-424q0 -59 -31.5 -96t-76.5 -37t-77 37t-32 96z" />
<glyph unicode="&#xe000;" horiz-adv-x="1135" d="M0 1135h1135v-1135h-1135v1135z" />
<glyph unicode="&#xfb01;" horiz-adv-x="1024" d="M0 1014q0 94 111 94h26v147q0 137 64.5 191.5t210.5 54.5q125 0 125 -110q0 -84 -76 -86q-45 -2 -59.5 -22.5t-14.5 -72.5v-102h39q111 0 111 -94q0 -92 -111 -92h-39v-799q0 -150 -125 -150t-125 150v799h-26q-111 0 -111 92zM635 1366q0 59 42 101t101.5 42t101.5 -42 t42 -101t-42 -101t-101.5 -42t-101.5 42t-42 101zM653 123v862q0 150 125 150t125 -150v-862q0 -150 -125 -150t-125 150z" />
<glyph unicode="&#xfb02;" horiz-adv-x="1024" d="M0 1014q0 94 111 94h26v147q0 137 64.5 191.5t210.5 54.5q125 0 125 -110q0 -84 -76 -86q-45 -2 -59.5 -22.5t-14.5 -72.5v-102h39q111 0 111 -94q0 -92 -111 -92h-39v-799q0 -150 -125 -150t-125 150v799h-26q-111 0 -111 92zM653 123v1229q0 150 125 149.5t125 -149.5 v-1229q0 -150 -125 -150t-125 150z" />
<glyph unicode="&#xfb03;" horiz-adv-x="1552" d="M1163 1366q0 59 42 101t101.5 42t101.5 -42t42 -101t-42 -101t-101.5 -42t-101.5 42t-42 101zM1182 123v862q0 150 125 150t125 -150v-862q0 -150 -125 -150t-125 150zM530 1014q0 94 111 94h26v147q0 137 64.5 191.5t210.5 54.5q125 0 125 -110q0 -84 -76 -86 q-45 -2 -59.5 -22.5t-14.5 -72.5v-102h39q111 0 111 -94q0 -92 -111 -92h-39v-799q0 -150 -125 -150t-125 150v799h-26q-111 0 -111 92zM0 1014q0 94 111 94h26v147q0 137 64.5 191.5t210.5 54.5q125 0 125 -110q0 -84 -76 -86q-45 -2 -59.5 -22.5t-14.5 -72.5v-102h39 q111 0 111 -94q0 -92 -111 -92h-39v-799q0 -150 -125 -150t-125 150v799h-26q-111 0 -111 92z" />
<glyph unicode="&#xfb04;" horiz-adv-x="1552" d="M1182 123v1229q0 150 125 149.5t125 -149.5v-1229q0 -150 -125 -150t-125 150zM530 1014q0 94 111 94h26v147q0 137 64.5 191.5t210.5 54.5q125 0 125 -110q0 -84 -76 -86q-45 -2 -59.5 -22.5t-14.5 -72.5v-102h39q111 0 111 -94q0 -92 -111 -92h-39v-799 q0 -150 -125 -150t-125 150v799h-26q-111 0 -111 92zM0 1014q0 94 111 94h26v147q0 137 64.5 191.5t210.5 54.5q125 0 125 -110q0 -84 -76 -86q-45 -2 -59.5 -22.5t-14.5 -72.5v-102h39q111 0 111 -94q0 -92 -111 -92h-39v-799q0 -150 -125 -150t-125 150v799h-26 q-111 0 -111 92z" />
</font>
</defs>
</svg>
