<?xml version="1.0" encoding="utf-8"?>
<!-- Generator: Adobe Illustrator 17.1.0, SVG Export Plug-In . SVG Version: 6.00 Build 0)  -->
<!DOCTYPE svg PUBLIC "-//W3C//DTD SVG 1.1//EN" "http://www.w3.org/Graphics/SVG/1.1/DTD/svg11.dtd">
<svg version="1.1" id="Layer_1" xmlns="http://www.w3.org/2000/svg" xmlns:xlink="http://www.w3.org/1999/xlink" x="0px" y="0px"
	 viewBox="0 0 3237.3 395.8" enable-background="new 0 0 3237.3 395.8" xml:space="preserve">
<path fill="#32AED6" d="M1224.7,330c0,28.3,10.9,65.8,105.4,65.8h223.4v-22h-230.9c-27.6,0-53.4-7-64.2-19
	c-9.1-10.6-6.6-19.7-7.3-41l-0.5-23.3h209.6c30.7,0,54.9-0.2,71.8-12.1c15.5-11,23.1-32.2,23.1-52.9v-56c0-19.8-8.3-34.2-26-45.3
	c-17.8-11.1-42.4-16.7-73.1-16.7h-141.5c-28.8,0-51.5,6.3-67.4,18.8c-15.1,11.8-22.4,26.8-22.4,45.8V330z M1247.7,176.7
	c0-18.4,8.6-49.2,66.4-49.2h157.3c24,0.3,62.3,14.9,62.3,50v37c0,26.7-0.6,54.2-61.4,54.2h-192.7c-30.4,0-31.9-21-31.9-25.2V176.7z"
	/>
<path fill="#231F20" d="M2342.8,327.4c0,28.3,5.1,65.8,99.6,65.8h223.4v-25.1H2435c-27.6,0-46.3-5.8-57.2-17.9
	c-9-10.6-7.8-26-8.4-47.3l-0.5-15.1h203.7c30.7,0,54.9-6,71.8-18c15.5-10.9,23.1-26.3,23.1-47v-56c0-19.8-8.3-34.2-26-45.3
	c-17.7-11.1-42.4-16.7-73.1-16.7h-141.6c-28.8,0-45.6,6.3-61.6,18.8c-15.1,11.8-22.4,26.8-22.4,45.8V327.4z M2370.2,180
	c0-18.4,8.6-49.2,66.5-49.2h141.3c17.4,0,32.7,3.7,45.3,11c15,8.7,17,22.2,17,39v37c0,20.3-14.6,48.4-73.1,48.4h-165
	c-30.4,0-31.9-21-31.9-25.2V180z"/>
<g>
	<path fill="#32AED6" d="M1003.3,246.6c0,1.1,1.6,4.7,7.8,9.8l154.1,136.9h35L1034,246.6l156.8-140H1158l-145,126.6
		C1005.4,240.1,1003.3,244.9,1003.3,246.6z"/>
	<rect x="960" y="0" fill="#32AED6" width="27.3" height="393.3"/>
</g>
<path fill="#231F20" d="M1937.8,105.7h-27.3v195.5c0,24.2,1.3,64.8-68.6,64.8h-126c-28.8,0-54.2-5.1-65.8-15.6
	c-14.2-13.4-15.4-30.5-15.4-50.8V105.7h-27.3v201.9c0,58.4,32.3,85.6,101.6,85.6h127.2c69.3,0,101.6-27.2,101.6-85.6V105.7z"/>
<path fill="#231F20" d="M2284.5,332.9v-38.8c0-16.7-7-30.1-21.4-41c-15.4-11.7-35.8-17.7-60.4-17.7h-120.3
	c-61.2,0-68.2-25.8-68.2-47.5v-13.1c0-11-1.2-26.2,20.7-36.4c10.7-5.2,25.7-7.7,45.8-7.7h204.7v-25.1h-201.1c-29.8,0-51.7,4-65,11.9
	c-21.3,11.8-31.6,26.2-31.6,44.3v42.5c0,16.5,8.5,29.2,26.6,40.1c17.8,10.6,41.1,16,69.1,16h109c54.9,0,63.1,29.5,63.1,47.1
	c0,20.3-3.5,33.9-10.9,43c-10.3,11.9-27.5,17.6-53,17.6h-204.7v25.1h206.9c17.9,0,31.4-1,40.1-3l0.6-0.1c9.4-1.7,18.6-6.6,27.4-14.6
	C2277.3,362.6,2284.5,348.8,2284.5,332.9z"/>
<path fill="#CF3428" d="M2945.1,393.3c31.5,0,55-4.8,69.6-14.1c20.2-12,29.5-27.7,29.5-49.6v-158c0-23.1-9.3-39.9-28.3-51.5
	c-14.5-9.6-38.2-14.3-70.8-14.3h-128.5c-32.8,0-57.3,4.8-72.8,14.3c-20.2,12.4-30.1,29.3-30.1,51.5v158c0,19.3,7.6,34.2,23.2,45.4
	c16.9,12.1,43.7,18.3,79.7,18.3H2945.1z M2741,314V186.3c0-19.8,2.8-35.2,19.3-44.5c12.3-7.9,35.4-11.8,58.5-11.8H2942
	c22.4,0,44.9,3.9,56.7,12c15.7,9.4,18.2,24.7,18.2,44.4v128.5c0,18.3-2.5,32.9-18.2,42.3c-11.2,7.5-32.1,11.1-51.6,11.1h-133.7
	c-20,0-41.3-3.6-53-10.9C2743.9,347.9,2741,332.9,2741,314z"/>
<path fill="#CF3428" d="M3237.3,106.6H3125v-29c0-16.4,7.4-30.6,21.5-41c12.9-9.6,47-14.5,66.7-14.5h24.1V0h-40.6
	c-29.6,0-54.3,6.2-73.4,18.5c-17.6,11.3-25.7,25.1-25.7,43.5v331.2h27.3l0.4-262.5h111.9V106.6z"/>
<path fill="#32AED6" d="M893.6,171.5c0-28.3-5.1-65.8-99.6-65.8H570.6v25.1h230.9c27.6,0,46.3,5.8,57.2,17.9c9,10.6,9.4,26,10,47.3
	l0.5,15.1H663.8c-30.7,0-54.9,6-71.8,18c-15.5,10.9-23.1,26.3-23.1,47v56c0,19.8,8.3,34.2,26,45.3c17.7,11.1,42.4,16.7,73.1,16.7
	h141.6c28.8,0,45.6-6.3,61.6-18.8c15.1-11.8,22.4-26.8,22.4-45.8L893.6,171.5z M868.7,318.9c0,18.4-11,49.2-68.8,49.2H658.5
	c-17.4,0-32.7-3.7-45.3-11c-15-8.7-17-22.2-17-39v-37c0-20.3,14.6-48.4,73.1-48.4h165c30.4,0,34.3,21,34.3,25.2V318.9z"/>
<path fill="#32AED6" d="M412.4,105.6h-83.1c-31.3,0-60.7,16.3-77.4,42.9c-16.7-26.5-46-42.9-77.4-42.9H91.5
	C41,105.6,0,146.7,0,197.1v196.7h29.3V197.1c0-34.3,27.9-62.2,62.2-62.2h83.1c34.3,0,62.2,27.9,62.2,62.2v196.7h30.4V197.1
	c0-34.3,27.9-62.2,62.2-62.2h83.1c34.3,0,62.2,27.9,62.2,62.2v196.7h29.3V197.1C503.9,146.7,462.8,105.6,412.4,105.6z"/>
</svg>
