<?xml version="1.0" encoding="UTF-8" standalone="no"?>
<svg width="208px" height="36px" viewBox="0 0 208 36" version="1.1" xmlns="http://www.w3.org/2000/svg" xmlns:xlink="http://www.w3.org/1999/xlink" xmlns:sketch="http://www.bohemiancoding.com/sketch/ns">
    <!-- Generator: Sketch Beta 3.2.2 (9983) - http://www.bohemiancoding.com/sketch -->
    <title>Icons/web/ic_logo_coursera_medium</title>
    <desc>Created with Sketch Beta.</desc>
    <defs></defs>
    <g id="Styles,-Block,-Components" stroke="none" stroke-width="1" fill="none" fill-rule="evenodd" sketch:type="MSPage">
        <g id="Iconography" sketch:type="MSArtboardGroup" transform="translate(-1020.000000, -108.000000)">
            <g id="slices" sketch:type="MSLayerGroup" transform="translate(1020.000000, 108.000000)"></g>
            <g id="Coursera-Logo" sketch:type="MSLayerGroup" transform="translate(1020.000000, 108.000000)">
                <rect id="BG" stroke="#0083EA" opacity="0" fill-opacity="0.5" fill="#0083EB" sketch:type="MSShapeGroup" x="0" y="0" width="208" height="36"></rect>
                <path d="M104.5,12.9640288 C104.6,10.647482 105.5,8.63309353 106.8,7.12230216 L106.8,5.10791367 L105,5.10791367 C101.5,5.10791367 98.5,6.51798561 96.7,9.53956835 L96.6,9.53956835 L96.6,5.51079137 L87.5,5.51079137 L87.5,30.5899281 L96.6,30.5899281 L96.6,20.5179856 C96.6,16.1870504 97.8,12.9640288 102.9,12.9640288 C103.5,12.8633094 104,12.8633094 104.5,12.9640288 Z M173.2,12.8633094 C174,10.647482 175.2,8.63309353 176.8,7.12230216 L176.8,5.10791367 L175,5.10791367 C171.5,5.10791367 168.5,6.51798561 166.7,9.53956835 L166.6,9.53956835 L166.6,5.51079137 L157.5,5.51079137 L157.5,30.5899281 L166.6,30.5899281 L166.6,20.5179856 C166.6,16.1870504 167.8,12.9640288 172.9,12.9640288 L173.2,12.8633094 Z M122.9,11.9568345 C121.5,11.2517986 119.6,10.7482014 118,10.7482014 C117,10.7482014 115.2,11.1510791 115.2,12.4604317 C115.2,14.1726619 118,14.3741007 119.3,14.676259 C123.5,15.4820144 126.7,17.4964029 126.7,22.1294964 C126.7,28.7769784 120.6,31.4964029 114.6,31.4964029 C111,31.4964029 107.4,30.4892086 104.3,28.5755396 L107.6,22.3309353 C109.4,23.6402878 112.5,24.8489209 114.8,24.8489209 C115.9,24.8489209 117.6,24.3453237 117.6,22.9352518 C117.6,21.0215827 114.8,20.9208633 111.9,20.1151079 C109.1,19.4100719 106.2,18 106.2,13.4676259 C106.2,7.32374101 111.9,4.60431655 117.5,4.60431655 C120.4,4.60431655 123.3,5.00719424 125.9,6.21582734 L122.9,11.9568345 Z M204,30.4892086 L194.9,30.4892086 L194.9,27.6690647 L194.8,27.6690647 C193.2,30.1870504 190.1,31.294964 187.1,31.294964 C179.5,31.294964 174.2,25.0503597 174.2,17.8992806 C174.2,10.7482014 179.4,4.60431655 187,4.60431655 C189.9,4.60431655 193,5.71223022 194.9,7.82733813 L194.9,5.51079137 L204,5.51079137 L204,30.4892086 L204,30.4892086 Z M183.5,18 C183.5,21.2230216 185.6,23.6402878 189.3,23.6402878 C193,23.6402878 195.1,21.2230216 195.1,18 C195.1,14.8776978 193,12.3597122 189.3,12.3597122 C185.7,12.3597122 183.5,14.9784173 183.5,18 Z M156.1,19.5107914 L137,19.5107914 C137,23.1366906 138.9,25.0503597 142.7,25.0503597 C144.6,25.0503597 146,24.4460432 147,22.7338129 L155.7,22.7338129 C154.3,28.676259 148.5,31.294964 142.7,31.294964 C134.2,31.294964 127.9,26.5611511 127.9,18 C127.9,9.64028777 133.7,4.60431655 142.1,4.60431655 C151,4.60431655 156.1,9.94244604 156.1,18.5035971 L156.1,19.5107914 Z M147.7,14.3741007 C147.3,11.9568345 145,10.4460432 142.6,10.4460432 C140,10.4460432 137.8,11.8561151 137.2,14.3741007 L147.7,14.3741007 Z M59,17.5971223 L59,16.9928058 C59,14.676259 57.9,12.4604317 56.6,10.5467626 C56,9.64028777 55.3,8.83453237 54.6,8.1294964 C53.5,7.12230216 52.2,6.21582734 50.8,5.51079137 C48.7,4.50359712 46.3,4 43.8,4 L43,4 C41.2,4.10071942 39.5,4.4028777 37.9,5.00719424 C36.3,5.61151079 34.9,6.41726619 33.7,7.32374101 C33.5,7.52517986 33.2,7.72661871 32.9,8.02877698 L32.7,8.02877698 L32.6,8.02877698 L32.5,8.33093525 L32.4,8.5323741 L32.1,8.9352518 C31.9,9.23741007 31.6,9.53956835 31.4,9.74100719 C31,10.2446043 30.6,10.8489209 30.3,11.352518 C30.1,11.6546763 29.9,11.9568345 29.7,12.3597122 L27,17.6978417 L26.9,18 L26.6,18.6043165 C26,19.8129496 25.4,20.9208633 24.7,21.9280576 C23.2,23.6402878 21.4,24.4460432 19.2,24.4460432 L18.7,24.4460432 C17.4,24.3453237 16.2,24.0431655 15.2,23.4388489 C15.1,23.3381295 15,23.3381295 14.9,23.2374101 C14.1,22.6330935 13.4,21.9280576 13,21.0215827 C12.5,20.0143885 12.2,19.0071942 12.3,17.8992806 L12.3,17.7985612 C12.4,16.0863309 13,14.676259 14.4,13.5683453 C14.7,13.2661871 15.1,13.0647482 15.4,12.8633094 C15.5,12.8633094 15.5,12.7625899 15.5,12.7625899 C16.5,12.2589928 17.6,11.9568345 18.9,11.9568345 L19.3,11.9568345 C21.4,12.057554 22.9,12.6618705 24.2,13.971223 L28.2,6.82014388 C27.3,6.21582734 26.2,5.61151079 25,5.20863309 C25,5.20863309 24.9,5.20863309 24.9,5.10791367 C24.8,5.10791367 24.6,5.00719424 24.5,4.90647482 C23.1,4.4028777 21.8,4 20.5,4 L20.4,4 L19.8,4 L19.1,4 L19,4 C16.5,4 14.1,4.50359712 12,5.51079137 C9.7,6.71942446 7.7,8.33093525 6.3,10.5467626 C4.9,12.6618705 4.1,15.0791367 4,17.5971223 L4,18.2014388 C4,21.8273381 5.3,24.9496403 7.9,27.5683453 C10.6,30.3884892 14.1,31.8992806 18.3,32 L19.1,32 C21.5,32 23.7,31.5971223 25.7,30.6906475 C26.2,30.4892086 26.7,30.1870504 27.2,29.9856115 C27.5,29.7841727 27.7,29.6834532 28,29.4820144 L28.2,29.381295 L28.5,29.1798561 C28.9,28.8776978 29.2,28.5755396 29.6,28.2733813 L29.7,28.1726619 C29.9,27.971223 30.1,27.7697842 30.3,27.5683453 L31,26.7625899 L31.3,26.4604317 L31.4,26.2589928 L31.6,26.057554 C32.7,24.2446043 36.1,17.7985612 36.1,17.7985612 L36.3,17.3956835 L36.4,17.0935252 C36.9,16.1870504 37.3,15.4820144 37.7,14.7769784 C38.8,13.1654676 40.8,11.9568345 43,11.7553957 C46.8,11.4532374 50.2,13.971223 50.5,17.3956835 C50.8,20.8201439 47.9,23.942446 44.1,24.2446043 C43.3,24.3453237 42.5,24.2446043 41.8,24.1438849 C39,23.5395683 37.2,21.5251799 36.3,20.5179856 L32.6,27.3669065 C32.6,27.3669065 33.7,28.5755396 34.5,29.0791367 C35.3,29.6834532 36.3,30.1870504 37.1,30.5899281 C39.1,31.3956835 41.2,31.8992806 43.6,31.8992806 L44.1,31.8992806 C48.3,31.6978417 52.2,30.0863309 54.9,27.2661871 C57.5,24.647482 59,21.6258993 59,18 L59,17.8992806 C59,18 59,17.7985612 59,17.5971223 Z M72.8,31.3956835 C70.9,31.3956835 69.2,31.1942446 67.6,30.6906475 C66,30.2877698 64.7,29.5827338 63.6,28.5755396 C62.5,27.5683453 61.6,26.3597122 61,24.8489209 C60.4,23.3381295 60.1,21.5251799 60.1,19.4100719 L60.1,5.41007194 L68.9,5.41007194 L68.9,19.3093525 C68.9,20.9208633 69.3,22.028777 70,22.7338129 C70.7,23.4388489 71.7,23.8417266 72.9,23.8417266 C74.1,23.8417266 75,23.5395683 75.8,22.8345324 C76.5,22.1294964 76.9,21.0215827 76.9,19.5107914 L76.9,5.41007194 L85.7,5.41007194 L85.7,19.2086331 C85.7,21.4244604 85.4,23.2374101 84.8,24.7482014 C84.2,26.2589928 83.3,27.5683453 82.2,28.4748201 C81.1,29.4820144 79.7,30.1870504 78.2,30.5899281 C76.5,31.1942446 74.7,31.3956835 72.8,31.3956835 Z" id="4:4" fill="#FFFFFF" sketch:type="MSShapeGroup"></path>
            </g>
        </g>
    </g>
</svg>