<?xml version="1.0" standalone="no"?>
<!DOCTYPE svg PUBLIC "-//W3C//DTD SVG 1.1//EN" "http://www.w3.org/Graphics/SVG/1.1/DTD/svg11.dtd" >
<svg xmlns="http://www.w3.org/2000/svg">
<metadata></metadata>
<defs>
<font id="Executive" horiz-adv-x="1331" >
<font-face units-per-em="2048" ascent="1597" descent="-451" />
<missing-glyph horiz-adv-x="614" />
<glyph unicode="&#xfb00;" horiz-adv-x="1480" d="M61 862v144h209v135q0 56 3 93.5t19.5 86.5t47.5 82q76 82 215 82q113 0 209 -47l-49 -127q-75 30 -140 30q-51 0 -78.5 -14t-43.5 -43q-19 -34 -19 -158v-120h510v135q0 56 3 93.5t19.5 86.5t47.5 82q76 82 215 82q117 0 227 -62l-49 -118q-81 36 -158 36 q-89 0 -123 -59q-18 -33 -18 -156v-120h276v-144h-276v-862h-164v862h-510v-862h-164v862h-209z" />
<glyph unicode="fi" horiz-adv-x="1302" d="M61 862v144h209v135q0 56 3 93.5t19.5 86.5t47.5 82q76 82 215 82q117 0 227 -62l-49 -118q-81 36 -158 36q-51 0 -78 -15t-44 -44q-19 -34 -19 -156v-120h674v-1006h-164v862h-510v-862h-164v862h-209zM938 1214v226h176v-226h-176z" />
<glyph unicode="fl" horiz-adv-x="1302" d="M61 862v144h209v135q0 181 78 264q74 80 232 80q77 0 228.5 -25t299.5 -26v-1434h-164v1311q-64 3 -171 15.5t-183 12.5q-112 0 -141 -77q-15 -40 -15 -142v-114h279v-144h-279v-862h-164v862h-209z" />
<glyph unicode="&#xfb03;" horiz-adv-x="2103" d="M188 862v144h209v135q0 56 3 93.5t19.5 86.5t47.5 82q76 82 215 82q113 0 209 -47l-49 -127q-75 30 -140 30q-51 0 -78.5 -14t-43.5 -43q-19 -34 -19 -158v-120h510v135q0 56 3 93.5t19.5 86.5t47.5 82q76 82 215 82q117 0 227 -62l-49 -118q-81 36 -158 36 q-89 0 -123 -59q-18 -33 -18 -156v-120h674v-1006h-164v862h-510v-862h-164v862h-510v-862h-164v862h-209zM1739 1214v226h176v-226h-176z" />
<glyph unicode="&#xfb04;" horiz-adv-x="1974" d="M61 862v144h209v135q0 56 3 93.5t19.5 86.5t47.5 82q76 82 215 82q113 0 209 -47l-49 -127q-75 30 -140 30q-51 0 -78.5 -14t-43.5 -43q-19 -34 -19 -158v-120h508v135q0 181 78 264q74 80 231 80q77 0 229 -25t300 -26v-1434h-164v1311q-64 3 -171 15.5t-183 12.5 q-113 0 -142 -77q-14 -38 -14 -142v-114h278v-144h-278v-862h-164v862h-508v-862h-164v862h-209z" />
<glyph horiz-adv-x="0" />
<glyph horiz-adv-x="0" />
<glyph unicode="&#xd;" horiz-adv-x="1024" />
<glyph unicode=" "  horiz-adv-x="614" />
<glyph unicode="&#x09;" horiz-adv-x="614" />
<glyph unicode="&#xa0;" horiz-adv-x="614" />
<glyph unicode="!" horiz-adv-x="724" d="M256 0v219h213v-219h-213zM260 1454h199q-4 -309 -13.5 -586t-17.5 -400l-8 -122h-115q-37 413 -45 1108z" />
<glyph unicode="&#x22;" horiz-adv-x="976" d="M246 1229v225h166v-225l-47 -420h-72zM565 1229v225h166v-225l-47 -420h-72z" />
<glyph unicode="#" horiz-adv-x="1187" d="M20 430v127h277l61 328h-252v127h277l76 409h145l-76 -409h234l76 409h145l-76 -409h262v-127h-286l-62 -328h264v-127h-286l-80 -430h-146l80 430h-233l-80 -430h-145l79 430h-254zM442 557h236l59 328h-233z" />
<glyph unicode="$" horiz-adv-x="1187" d="M123 424l174 33q0 -306 250 -326v567l-103 50q-135 65 -203.5 154.5t-68.5 225.5q0 153 102.5 247t272.5 106v182h110v-180q88 -7 156 -35.5t108 -67t65.5 -90.5t34.5 -100t9 -100l-172 -23q0 112 -50 178t-151 78v-489l117 -56q157 -73 223 -168t66 -231 q0 -176 -109 -284t-297 -122v-188h-110v186q-113 8 -196 45.5t-132 99t-72.5 138t-23.5 170.5zM352 1139q0 -89 44 -147t151 -107v440q-94 -12 -144.5 -61t-50.5 -125zM657 129q101 11 163.5 72t62.5 161q0 97 -49.5 162.5t-176.5 120.5v-516z" />
<glyph unicode="%" horiz-adv-x="1918" d="M225 1051q0 192 83.5 288.5t207.5 96.5t207.5 -96.5t83.5 -288.5t-83.5 -290.5t-207.5 -98.5t-207.5 98.5t-83.5 290.5zM358 1051q0 -271 158 -271t158 271q0 268 -158 268t-158 -268zM477 18l856 1452l109 -63l-854 -1450zM1112 377q0 192 83.5 288.5t207.5 96.5 t207.5 -96.5t83.5 -288.5t-83.5 -290.5t-207.5 -98.5t-207.5 98.5t-83.5 290.5zM1245 377q0 -271 158 -271t158 271q0 268 -158 268t-158 -268z" />
<glyph unicode="&#x26;" horiz-adv-x="1284" d="M164 367q0 152 73.5 266t221.5 225l-47 72q-2 4 -23.5 34.5t-27 39.5t-21 37.5t-21 47.5t-11 48t-5.5 59q0 116 86.5 195t228.5 79q82 0 147 -25t102 -65.5t56 -85t19 -88.5q0 -115 -61.5 -199.5t-206.5 -183.5l237 -364q9 50 9 108q0 61 -19 162h156q16 -82 16 -168 q0 -158 -53 -270l192 -291h-202l-90 141q-61 -76 -144.5 -121t-216.5 -45q-102 0 -192 47.5t-146.5 138.5t-56.5 206zM338 377q0 -113 65.5 -184.5t165.5 -71.5q95 0 166.5 48.5t98.5 102.5l-293 457q-111 -88 -157 -171t-46 -181zM477 1188q0 -71 55 -150l58 -86 q106 72 144 123.5t38 114.5q0 58 -40.5 97.5t-106.5 39.5q-61 0 -104.5 -40.5t-43.5 -98.5z" />
<glyph unicode="'" horiz-adv-x="686" d="M260 1229v225h166v-225l-47 -420h-72z" />
<glyph unicode="(" horiz-adv-x="724" d="M180 545q0 263 94.5 504.5t284.5 482.5l109 -78q-168 -235 -241 -450.5t-73 -458.5q0 -246 72.5 -460.5t241.5 -449.5l-109 -77q-190 241 -284.5 482.5t-94.5 504.5z" />
<glyph unicode=")" horiz-adv-x="724" d="M57 -365q169 235 241.5 449.5t72.5 460.5q0 243 -73 458.5t-241 450.5l109 78q190 -241 284.5 -482.5t94.5 -504.5t-94.5 -504.5t-284.5 -482.5z" />
<glyph unicode="*" horiz-adv-x="913" d="M102 1266l138 80q18 9 47 20.5t49 19.5l20 7q-77 29 -116 49l-136 78l62 112l137 -78q18 -10 44 -28.5t43 -31.5l16 -13q-17 78 -17 125v157h135v-157q0 -20 -4 -51t-8 -53l-4 -21q65 49 102 69l135 82l64 -112l-135 -80q-17 -10 -43 -22t-43 -18l-17 -7q62 -25 101 -45 l139 -80l-63 -113l-136 80q-18 10 -43.5 28t-42.5 31l-16 13q14 -78 14 -129v-154h-135v154q0 21 4.5 53.5t8.5 54.5l4 23q-74 -60 -101 -74l-141 -82z" />
<glyph unicode="+" d="M180 461v127h420v416h131v-416h420v-127h-420v-416h-131v416h-420z" />
<glyph unicode="," horiz-adv-x="686" d="M236 0v219h213v-153q0 -86 -9.5 -148t-31 -105t-44 -69.5t-59.5 -58.5l-57 55q55 52 74.5 106t19.5 138v16h-106z" />
<glyph unicode="-" horiz-adv-x="940" d="M164 514v148h612v-148h-612z" />
<glyph unicode="." horiz-adv-x="686" d="M236 0v219h213v-219h-213z" />
<glyph unicode="/" horiz-adv-x="933" d="M61 -31l660 1516h162l-660 -1516h-162z" />
<glyph unicode="0" horiz-adv-x="1187" d="M106 707q0 343 125 536t363 193t362.5 -193t124.5 -536t-125 -537.5t-362 -194.5t-362.5 194.5t-125.5 537.5zM287 707q0 -290 79 -435t228 -145t228 145t79 435t-79 433.5t-228 143.5t-228 -143.5t-79 -433.5z" />
<glyph unicode="1" horiz-adv-x="1187" d="M102 1004q273 199 476 407h153v-1259h346v-152h-901v152h379v1024q-144 -142 -358 -295z" />
<glyph unicode="2" horiz-adv-x="1187" d="M156 0v156q90 73 190.5 171t263.5 267q60 62 103 123t63.5 104t32 90.5t13 71t1.5 57.5q0 113 -60 178.5t-173 65.5q-122 0 -187 -77t-65 -220l-180 17q0 189 114 310.5t318 121.5q194 0 304 -112t110 -277q0 -136 -57.5 -260.5t-211.5 -288.5q-181 -190 -370 -351 q210 5 253 5h375v-152h-837z" />
<glyph unicode="3" horiz-adv-x="1187" d="M125 393l178 25q6 -150 75 -222.5t208 -72.5q125 0 203.5 76.5t78.5 212.5q0 74 -23.5 128t-58.5 84t-87.5 48t-99.5 23t-105 5h-62v144h62q331 0 331 237q0 95 -62.5 149t-168.5 54q-109 0 -176.5 -50t-77.5 -159l-178 21q11 154 127.5 247t312.5 93q181 0 291.5 -98 t110.5 -244q0 -249 -248 -314v-4q37 -5 74 -18.5t77.5 -41.5t71 -66.5t50.5 -97.5t20 -130q0 -206 -124 -328.5t-347 -122.5q-114 0 -201.5 33t-141 91.5t-81 133.5t-29.5 164z" />
<glyph unicode="4" horiz-adv-x="1187" d="M121 309v176l592 926h145v-950h217v-152h-217v-309h-176v309h-561zM285 461h397v631z" />
<glyph unicode="5" horiz-adv-x="1187" d="M137 350l178 35q15 -125 93.5 -193.5t199.5 -68.5q131 0 212 91.5t81 260.5q0 150 -73 241t-210 91q-202 0 -290 -184h-150l39 788h764v-151h-612l-27 -429q109 130 309 130q192 0 311 -132.5t119 -339.5q0 -240 -127.5 -379t-349.5 -139q-183 0 -310.5 102.5 t-156.5 276.5z" />
<glyph unicode="6" horiz-adv-x="1187" d="M141 672q0 367 152 575q65 91 158 140t204 49q78 0 142 -20.5t106 -54t72.5 -80t46.5 -95t22 -103.5l-178 -20q-14 118 -64 169.5t-155 51.5q-134 0 -223 -133q-105 -155 -105 -418q48 81 135.5 131.5t198.5 50.5q194 0 312 -124t118 -318q0 -143 -50 -253.5t-156 -177.5 t-256 -67q-135 0 -237 61t-161 175q-82 160 -82 461zM338 453q0 -154 82.5 -240t210.5 -86q121 0 196.5 83.5t75.5 238.5q0 147 -72.5 231t-203.5 84q-119 0 -204 -87t-85 -224z" />
<glyph unicode="7" horiz-adv-x="1187" d="M160 1260v151h878l-2 -141q-220 -263 -330.5 -575t-134.5 -695h-184q31 385 141 683t328 577h-696z" />
<glyph unicode="8" horiz-adv-x="1187" d="M123 397q0 83 28 152.5t71.5 112.5t90 69t90.5 33v4q-90 26 -155.5 105.5t-65.5 199.5q0 159 117.5 261t296.5 102t296.5 -102t117.5 -261q0 -120 -66 -200.5t-156 -106.5v-4q44 -7 90.5 -32.5t90.5 -68.5t72 -112t28 -152q0 -187 -130 -304.5t-343 -117.5t-343 117.5 t-130 304.5zM303 406q0 -126 82.5 -202.5t210.5 -76.5t210.5 76.5t82.5 202.5q0 124 -79 199t-214 75t-214 -75t-79 -199zM360 1063q0 -102 62 -168t174 -66t173.5 66t61.5 168q0 104 -63 163.5t-172 59.5t-172.5 -59.5t-63.5 -163.5z" />
<glyph unicode="9" horiz-adv-x="1187" d="M123 977q0 200 126.5 329.5t332.5 129.5q234 0 356 -158q65 -83 96 -194t31 -271q0 -174 -18.5 -301.5t-45 -199t-69.5 -140.5q-120 -197 -371 -197q-173 0 -280.5 94t-114.5 261l176 24q14 -227 219 -227q163 0 238 137q86 154 86 393q-49 -76 -134 -118.5t-202 -42.5 q-196 0 -311 135t-115 346zM303 965q0 -149 73 -232.5t197 -83.5q142 0 219.5 86t77.5 242q0 135 -79.5 221t-208.5 86q-135 0 -207 -87t-72 -232z" />
<glyph unicode=":" horiz-adv-x="686" d="M236 0v219h213v-219h-213zM236 786v220h213v-220h-213z" />
<glyph unicode=";" horiz-adv-x="686" d="M236 0v219h213v-153q0 -89 -9.5 -151t-31.5 -104.5t-43.5 -67.5t-59.5 -58l-53 55q58 53 77 105.5t19 138.5v16h-112zM236 786v220h213v-220h-213z" />
<glyph unicode="&#x3c;" d="M164 442v123l938 457l55 -115l-618 -289q-159 -74 -263 -112v-4q94 -34 263 -113l618 -289l-55 -114z" />
<glyph unicode="=" d="M180 299v127h971v-127h-971zM180 623v127h971v-127h-971z" />
<glyph unicode="&#x3e;" d="M174 100l619 289q172 80 262 113v4q-100 36 -262 112l-619 289l55 115l938 -457v-123l-938 -456z" />
<glyph unicode="?" horiz-adv-x="1107" d="M158 1122q0 160 108.5 261.5t288.5 101.5q98 0 176 -31t126 -83.5t73.5 -118t25.5 -138.5q0 -88 -28 -159t-77 -117t-107 -74.5t-126 -40.5v-356h-167v462q333 29 333 271q0 107 -59 172t-170 65t-169 -63.5t-60 -173.5zM428 0v219h213v-219h-213z" />
<glyph unicode="@" horiz-adv-x="1730" d="M156 442q0 279 103 491t288 326.5t424 114.5q140 0 258 -53.5t198.5 -147t125 -222t44.5 -275.5q0 -283 -109.5 -444.5t-293.5 -161.5q-77 0 -128.5 39t-68.5 114h-4q-32 -67 -88 -110t-137 -43q-126 0 -194 97.5t-68 260.5q0 90 24 180t69.5 168t120 127t165.5 49 q65 0 115 -37t63 -98h6l41 107h152q-37 -109 -64 -283l-43 -266q-10 -65 -10 -101q0 -38 26 -59.5t56 -21.5q114 0 176.5 123.5t62.5 345.5q0 266 -136.5 429.5t-366.5 163.5q-302 0 -488 -218t-186 -595q0 -137 34.5 -249.5t94 -190t141 -130t175 -77t196.5 -24.5 q126 0 261 56t195 128l66 -80q-68 -86 -221.5 -153.5t-306.5 -67.5q-119 0 -228.5 28.5t-208.5 90.5t-172 152t-116 223t-43 294zM672 438q0 -118 33 -171.5t102 -53.5q48 0 86 34t60.5 84t37 113t20 114t5.5 93q0 72 -30.5 116t-94.5 44q-55 0 -99.5 -37.5t-69 -95.5 t-37.5 -120t-13 -120z" />
<glyph unicode="A" horiz-adv-x="1210" d="M61 0l455 1454h172l461 -1454h-201l-88 315h-518l-90 -315h-191zM387 475h426l-137 479q-62 211 -74 279h-4q-14 -80 -72 -281z" />
<glyph unicode="B" horiz-adv-x="1280" d="M211 0v1454h442q99 0 172 -20q124 -35 196.5 -120.5t72.5 -213.5q0 -122 -69 -204.5t-187 -119.5v-4q60 -18 109 -46t90.5 -70t65 -103t23.5 -135q0 -170 -92 -271.5t-248 -132.5q-79 -14 -147 -14h-428zM391 154h236q165 0 240 73t75 201q0 113 -79.5 188.5t-217.5 75.5 h-254v-538zM391 842h232q135 0 210.5 67t75.5 176q0 105 -67.5 160t-198.5 55h-252v-458z" />
<glyph unicode="C" horiz-adv-x="1220" d="M133 715q0 175 32 315t95 242.5t163.5 157.5t231.5 55q98 0 180 -34t135.5 -91t85 -128t38.5 -149l-179 -32q-13 138 -81 207t-183 69q-89 0 -154 -44t-104 -126t-57.5 -189.5t-18.5 -244.5q0 -133 19 -239.5t57.5 -187.5t103.5 -125t152 -44q259 0 277 346l182 -24 q-4 -73 -20.5 -139t-52 -129.5t-86.5 -109.5t-130 -74t-178 -28q-164 0 -279.5 94.5t-172 261t-56.5 390.5z" />
<glyph unicode="D" horiz-adv-x="1306" d="M211 0v1454h405q86 0 156 -18q108 -28 187.5 -97t125.5 -166t67.5 -206.5t21.5 -233.5q0 -612 -402 -713q-76 -20 -182 -20h-379zM391 156h219q379 0 379 571q0 93 -11 173.5t-38 155.5t-69 127t-108 83.5t-151 31.5h-221v-1142z" />
<glyph unicode="E" horiz-adv-x="1118" d="M211 0v1454h809v-158h-629v-471h510v-157h-510v-510h629v-158h-809z" />
<glyph unicode="F" horiz-adv-x="1077" d="M211 0v1454h809v-158h-629v-471h510v-157h-510v-668h-180z" />
<glyph unicode="G" horiz-adv-x="1306" d="M133 727q0 358 143 558t394 200q105 0 187.5 -33t131.5 -88.5t76.5 -120t34.5 -135.5l-176 -35q-16 124 -78.5 189t-183.5 65q-73 0 -133.5 -32.5t-109 -101.5t-75.5 -187.5t-27 -278.5q0 -162 26 -279.5t75 -186.5t112.5 -101.5t143.5 -32.5q123 0 196.5 106.5 t73.5 284.5v123h-301v154h469v-795h-113l-18 182h-4q-38 -91 -125 -152t-203 -61q-112 0 -205 46t-163 137t-109 238t-39 337z" />
<glyph unicode="H" horiz-adv-x="1288" d="M211 0v1454h180v-625h506v625h180v-1454h-180v666h-506v-666h-180z" />
<glyph unicode="I" horiz-adv-x="610" d="M215 0v1454h180v-1454h-180z" />
<glyph unicode="J" horiz-adv-x="1105" d="M92 334q0 36 2 59l178 21q-2 -18 -2 -47q0 -68 12.5 -109t41.5 -70q61 -61 180 -61q128 0 184 80q43 62 43 182v1065h180v-1048q0 -181 -65 -283q-98 -154 -352 -154q-200 0 -310 113q-92 92 -92 252z" />
<glyph unicode="K" horiz-adv-x="1214" d="M211 0v1454h180v-690l529 690h223l-488 -612l508 -842h-215l-401 709l-156 -197v-512h-180z" />
<glyph unicode="L" horiz-adv-x="1046" d="M211 0v1454h180v-1294h604v-160h-784z" />
<glyph unicode="M" horiz-adv-x="1646" d="M211 0v1454h272l269 -942q41 -147 69 -289h4q24 113 74 291l264 940h273v-1454h-170v903q0 193 4 367h-4q-49 -203 -76 -295l-293 -975h-149l-291 971q-35 121 -78 301h-4q4 -176 4 -369v-903h-168z" />
<glyph unicode="N" horiz-adv-x="1380" d="M211 0v1454h248l436 -967q71 -161 98 -254h4q-8 230 -8 297v924h180v-1454h-247l-433 954q-62 135 -102 267h-4q8 -153 8 -297v-924h-180z" />
<glyph unicode="O" horiz-adv-x="1306" d="M133 727q0 359 135 558.5t385 199.5t385.5 -199.5t135.5 -558.5t-135.5 -558.5t-385.5 -199.5t-385 199.5t-135 558.5zM317 727q0 -600 336 -600t336 600t-336 600t-336 -600z" />
<glyph unicode="P" horiz-adv-x="1236" d="M211 0v1454h453q231 0 358 -127q113 -113 113 -289q0 -195 -121.5 -311.5t-349.5 -116.5h-273v-610h-180zM391 766h252q160 0 233.5 68t73.5 198q0 119 -75 192.5t-222 73.5h-262v-532z" />
<glyph unicode="Q" horiz-adv-x="1306" d="M133 727q0 362 134 560t386 198q251 0 386 -198.5t135 -559.5q0 -346 -119 -535.5t-324 -218.5v-59q0 -47 17 -65.5t53 -18.5q57 0 117 31l47 -99q-38 -25 -93.5 -42t-109.5 -17q-93 0 -135.5 45t-48.5 141l-7 86q-200 26 -319 216t-119 536zM317 727q0 -600 336 -600 t336 600t-336 600t-336 -600z" />
<glyph unicode="R" horiz-adv-x="1290" d="M211 0v1454h483q212 0 332 -104q123 -111 123 -297q0 -191 -98 -289q-55 -55 -150 -94l266 -670h-202l-236 631h-338v-631h-180zM391 786h293q137 0 209 68t72 186q0 258 -283 258h-291v-512z" />
<glyph unicode="S" horiz-adv-x="1239" d="M131 381l180 45q7 -160 86 -229.5t232 -69.5q80 0 145 25t107.5 79.5t42.5 130.5q0 89 -52.5 151t-164.5 114l-240 114q-153 73 -224 160.5t-71 226.5q0 120 63 202t164 118.5t232 36.5q91 0 165 -20t122.5 -53.5t82.5 -79t49.5 -93.5t18.5 -100l-176 -45 q-10 125 -76 180t-194 55q-121 0 -194 -50t-73 -140q0 -86 45.5 -138t155.5 -104l240 -113q165 -76 238 -172t73 -233q0 -191 -131.5 -300.5t-358.5 -109.5q-120 0 -214 32t-152 89t-88.5 130.5t-32.5 160.5z" />
<glyph unicode="T" horiz-adv-x="1081" d="M68 1294v160h946v-160h-383v-1294h-180v1294h-383z" />
<glyph unicode="U" horiz-adv-x="1314" d="M205 430v1024h180v-1008q0 -153 47 -223q67 -98 225 -98q159 0 226 98q47 70 47 223v1008h180v-1024q0 -205 -98 -321q-119 -140 -355 -140q-235 0 -354 140q-98 116 -98 321z" />
<glyph unicode="V" horiz-adv-x="1216" d="M55 1454h193l280 -981q43 -145 80 -291h4q12 41 35 129t45 164l281 979h188l-444 -1454h-217z" />
<glyph unicode="W" horiz-adv-x="1775" d="M102 1454h187l200 -946q28 -137 46 -277h4q19 138 47 277l192 946h217l197 -946q31 -149 45 -277h4q14 128 45 277l203 946h184l-334 -1454h-200l-195 887q-31 149 -57 332h-4q-23 -183 -56 -332l-190 -887h-209z" />
<glyph unicode="X" horiz-adv-x="1173" d="M72 0l411 752l-381 702h209l277 -516l278 516h201l-381 -694l416 -760h-209l-309 571l-314 -571h-198z" />
<glyph unicode="Y" horiz-adv-x="1150" d="M37 1454h221l324 -627l321 627h211l-444 -825v-629h-181v629z" />
<glyph unicode="Z" horiz-adv-x="1157" d="M119 0v172l710 1124q-113 -2 -219 -2h-467v160h879v-172l-715 -1124q103 2 209 2h533v-160h-930z" />
<glyph unicode="[" horiz-adv-x="724" d="M262 -410v1895h422v-133h-258v-1628h258v-134h-422z" />
<glyph unicode="\" horiz-adv-x="933" d="M51 1485h162l659 -1516h-161z" />
<glyph unicode="]" horiz-adv-x="724" d="M41 -276h258v1628h-258v133h422v-1895h-422v134z" />
<glyph unicode="^" d="M145 612l459 842h117l463 -842l-115 -61l-403 739h-4l-402 -739z" />
<glyph unicode="_" horiz-adv-x="1024" d="M0 -121h1024v-94h-1024v94z" />
<glyph unicode="`" horiz-adv-x="450" d="M-55 1339l75 146l410 -262l-43 -80z" />
<glyph unicode="a" horiz-adv-x="1107" d="M123 266q0 225 283 303q233 63 264 72q47 13 60 28.5t13 47.5v16q0 74 -44 114t-154 40q-213 0 -213 -166l-170 18q2 130 99 210.5t282 80.5q192 0 278 -80.5t86 -216.5v-467q0 -83 22 -117.5t93 -44.5l-18 -120q-121 0 -178.5 43t-75.5 141q-119 -193 -320 -193 q-137 0 -222 78.5t-85 212.5zM297 266q0 -67 41 -108t115 -41q169 0 290 235v189q-20 -17 -71 -33q-9 -3 -101.5 -31t-136.5 -43q-74 -25 -105.5 -66.5t-31.5 -101.5z" />
<glyph unicode="b" horiz-adv-x="1179" d="M195 0q10 245 10 324v1130h164v-450l-4 -146h4q24 65 99.5 118.5t182.5 53.5q186 0 298 -142.5t112 -387.5q0 -244 -114 -384.5t-296 -140.5q-101 0 -175.5 50t-106.5 122h-4q0 -50 -9 -147h-161zM367 504q0 -173 70 -279t198 -106q252 0 252 393q0 171 -68 273t-192 102 q-123 0 -191.5 -105t-68.5 -278z" />
<glyph unicode="c" horiz-adv-x="1064" d="M119 512q0 142 51.5 258.5t155.5 188t243 71.5q168 0 263.5 -85t115.5 -220l-162 -31q-28 193 -217 193q-126 0 -201 -102t-75 -281q0 -194 75.5 -288.5t196.5 -94.5q203 0 230 217l168 -25q-9 -50 -25 -94.5t-48 -90.5t-74.5 -79t-108.5 -53.5t-146 -20.5 q-206 0 -324 145.5t-118 391.5z" />
<glyph unicode="d" horiz-adv-x="1179" d="M119 508q0 249 114 385.5t306 136.5q98 0 171.5 -49t100.5 -123h4q-4 72 -4 135v461h164v-1128q0 -81 10 -326h-162q-8 86 -8 147h-4q-26 -69 -97.5 -120.5t-183.5 -51.5q-176 0 -293.5 140t-117.5 393zM293 496q0 -185 70.5 -281t193.5 -96q86 0 145.5 54.5t85 139 t25.5 191.5q0 172 -66.5 277.5t-197.5 105.5q-122 0 -189 -95.5t-67 -295.5z" />
<glyph unicode="e" horiz-adv-x="1093" d="M119 506q0 239 118 381.5t318 142.5q191 0 307.5 -133t116.5 -358q0 -45 -4 -99h-678q16 -321 264 -321q92 0 147.5 49t75.5 135l164 -31q-14 -55 -41.5 -103.5t-72 -94t-115 -72.5t-158.5 -27q-210 0 -326 142.5t-116 388.5zM299 584h502q-3 146 -68 224.5t-182 78.5 q-130 0 -197 -109q-49 -78 -55 -194z" />
<glyph unicode="f" horiz-adv-x="788" d="M61 862v144h209v135q0 56 3 93.5t19.5 86.5t47.5 82q76 82 215 82q113 0 209 -47l-49 -127q-75 30 -140 30q-51 0 -78.5 -14t-43.5 -43q-19 -34 -19 -158v-120h277v-144h-277v-862h-164v862h-209z" />
<glyph unicode="g" horiz-adv-x="1167" d="M119 508q0 247 114.5 384.5t303.5 137.5q50 0 92.5 -12t70.5 -30t51.5 -42.5t35.5 -44t22 -41.5h4q0 64 8 146h162q-10 -170 -10 -326v-649q0 -232 -92 -348q-100 -125 -314 -125q-102 0 -179 24.5t-120.5 67t-65.5 90.5t-26 104l162 23q17 -178 227 -178q141 0 199 84 q27 40 36 95t9 148q0 37 4 131h-4q-10 -26 -30 -52t-53 -53.5t-86.5 -44.5t-117.5 -17q-178 0 -290.5 140.5t-112.5 387.5zM293 508q0 -183 63.5 -284t180.5 -101q144 0 210 105q64 103 64 274v10q-2 174 -68 274.5t-186 100.5q-264 0 -264 -379z" />
<glyph unicode="h" horiz-adv-x="1144" d="M195 0v1454h163v-424q0 -54 -4 -160h4q37 69 108.5 114.5t170.5 45.5q95 0 165.5 -35t108.5 -94q60 -92 60 -250v-651h-164v623q0 136 -37 188q-53 76 -168 76q-103 0 -173.5 -79t-70.5 -230v-578h-163z" />
<glyph unicode="i" horiz-adv-x="552" d="M188 1214v226h177v-226h-177zM195 0v1006h163v-1006h-163z" />
<glyph unicode="j" horiz-adv-x="567" d="M-121 -383l49 127q76 -31 140 -31q89 0 122 58q19 34 19 157v1078h164v-1092q0 -56 -3 -93.5t-19.5 -86.5t-47.5 -82q-76 -82 -215 -82q-113 0 -209 47zM203 1214v226h176v-226h-176z" />
<glyph unicode="k" horiz-adv-x="1073" d="M195 0v1454h163v-913l439 465h221l-389 -412l403 -594h-201l-315 477l-158 -160v-317h-163z" />
<glyph unicode="l" horiz-adv-x="552" d="M195 0v1454h163v-1454h-163z" />
<glyph unicode="m" horiz-adv-x="1456" d="M184 1006h160q6 -58 6 -127h4q23 63 82 107t150 44q80 0 138 -43.5t73 -109.5h4q67 153 243 153q79 0 132.5 -36t78.5 -95q27 -67 27 -186v-713h-164v684q0 68 -12 117q-10 37 -40 61.5t-77 24.5q-43 0 -82.5 -25t-58.5 -65q-25 -51 -25 -150v-647h-164v682q0 81 -18 129 q-13 34 -43 55t-74 21q-42 0 -81.5 -26t-59.5 -66q-25 -51 -25 -154v-641h-163v686q0 165 -11 320z" />
<glyph unicode="n" horiz-adv-x="1153" d="M184 1006h160q8 -86 8 -142h4q92 166 308 166q81 0 150 -34.5t110 -96.5q55 -80 55 -233v-666h-164v639q0 99 -27 152q-51 94 -180 94q-65 0 -121.5 -32t-87.5 -87q-41 -73 -41 -188v-578h-163v686q0 165 -11 320z" />
<glyph unicode="o" horiz-adv-x="1122" d="M123 504q0 239 120 382.5t318 143.5t318 -143.5t120 -382.5t-120 -384t-318 -145t-318 145t-120 384zM297 504q0 -184 69.5 -285.5t194.5 -101.5t194.5 101.5t69.5 285.5t-69.5 284.5t-194.5 100.5t-194.5 -100.5t-69.5 -284.5z" />
<glyph unicode="p" horiz-adv-x="1169" d="M184 1006h162q8 -78 8 -148h4q24 63 102 117.5t185 54.5q180 0 293 -142.5t113 -383.5q0 -242 -112 -385.5t-294 -143.5q-104 0 -178 50t-109 122h-4q4 -80 4 -143v-414h-163v1088q0 173 -11 328zM356 506q0 -188 69.5 -287.5t199.5 -99.5q113 0 182.5 101t69.5 294 q0 183 -70.5 278t-188.5 95q-124 0 -193 -101.5t-69 -279.5z" />
<glyph unicode="q" horiz-adv-x="1169" d="M119 504q0 240 114.5 383t292.5 143q107 0 184 -54t101 -118h4q0 66 8 148h162q-10 -141 -10 -328v-1088h-164v414l4 143h-4q-32 -72 -101 -122t-173 -50q-185 0 -301.5 144t-116.5 385zM293 494q0 -190 74 -282.5t190 -92.5q126 0 191 100.5t65 284.5q0 181 -68 282 t-200 101q-124 0 -188 -101.5t-64 -291.5z" />
<glyph unicode="r" horiz-adv-x="808" d="M184 1006h156q8 -94 8 -207h4q44 106 122.5 168.5t178.5 62.5q55 0 95 -12v-168q-49 14 -111 14q-51 0 -100.5 -22t-81.5 -60q-50 -59 -73.5 -145t-23.5 -236v-401h-163v686q0 133 -11 320z" />
<glyph unicode="s" horiz-adv-x="1062" d="M123 281l172 30q12 -103 72.5 -147.5t169.5 -44.5q115 0 168 41.5t53 109.5q0 70 -44.5 102.5t-146.5 61.5l-141 39q-52 15 -86.5 27t-74.5 34.5t-63 50t-39 71t-16 98.5q0 127 98.5 201.5t280.5 74.5q176 0 270.5 -74t104.5 -192l-162 -33q-10 86 -61.5 122t-153.5 36 q-101 0 -154 -32t-53 -91q0 -60 40.5 -92t138.5 -58l147 -38q143 -37 216 -103t73 -190q0 -148 -101.5 -229t-302.5 -81q-190 0 -292 86t-113 220z" />
<glyph unicode="t" horiz-adv-x="811" d="M61 862v144h209v319l164 74v-393h271v-144h-271v-528q0 -132 25 -168q34 -47 116 -47q76 0 150 31l49 -127q-98 -48 -219 -48q-139 0 -215 82q-42 46 -56 110.5t-14 147.5v547h-209z" />
<glyph unicode="u" horiz-adv-x="1157" d="M180 328v678h164v-646q0 -126 48.5 -183.5t156.5 -57.5q75 0 134.5 38.5t90.5 106.5q25 55 25 168v574h164v-689q0 -154 10 -317h-162q-6 87 -6 143h-4q-82 -168 -289 -168q-145 0 -238.5 91.5t-93.5 261.5z" />
<glyph unicode="v" horiz-adv-x="976" d="M51 1006h182l195 -578q40 -118 61 -221h5q29 128 61 221l197 578h174l-359 -1006h-157z" />
<glyph unicode="w" horiz-adv-x="1372" d="M82 1006h170l131 -598q30 -146 39 -218h4q7 79 35 216l127 600h200l130 -598q23 -115 34 -222h4q11 106 37 222l131 598h166l-248 -1006h-176l-135 571q-33 145 -41 240h-4q-10 -86 -45 -240l-129 -571h-186z" />
<glyph unicode="x" horiz-adv-x="1007" d="M47 0l365 518l-340 488h196l238 -351l233 351h197l-342 -486l367 -520h-205l-256 379l-252 -379h-201z" />
<glyph unicode="y" horiz-adv-x="974" d="M-12 -367l57 123q82 -45 154 -45q66 0 100 31q29 29 47 80l62 182l-367 1002h184l201 -578q36 -102 59 -205h4q12 51 64 205l197 578h174l-430 -1217q-37 -109 -91 -158q-67 -61 -194 -61q-110 0 -221 63z" />
<glyph unicode="z" horiz-adv-x="1017" d="M98 0v123l586 743q-105 -4 -199 -4h-346v144h768v-121l-583 -744q75 4 163 4h441v-145h-830z" />
<glyph unicode="{" horiz-adv-x="768" d="M154 469v139q108 3 131 56q14 31 14 145v332q0 92 14 150t54 108q73 86 198 86h101v-142h-76q-73 0 -98 -38q-16 -23 -20.5 -59.5t-4.5 -102.5v-344q0 -107 -23 -160q-29 -67 -114 -98v-4q84 -31 114 -99q23 -53 23 -159v-347q0 -66 4.5 -102t20.5 -59q26 -39 98 -39h76 v-142h-101q-125 0 -198 86q-40 50 -54 108t-14 150v334q0 115 -14 146q-12 28 -43 40.5t-88 14.5z" />
<glyph unicode="|" horiz-adv-x="573" d="M215 -483v2203h143v-2203h-143z" />
<glyph unicode="}" horiz-adv-x="768" d="M102 -268h76q72 0 98 39q16 23 20.5 59t4.5 102v347q0 106 23 159q30 68 114 99v4q-85 31 -114 98q-23 53 -23 160v344q0 66 -4.5 102.5t-20.5 59.5q-25 38 -98 38h-76v142h101q125 0 198 -86q40 -50 54 -108t14 -150v-332q0 -114 14 -145q23 -53 131 -56v-139 q-57 -2 -88 -14.5t-43 -40.5q-14 -31 -14 -146v-334q0 -92 -14 -150t-54 -108q-73 -86 -198 -86h-101v142z" />
<glyph unicode="~" d="M156 434q52 106 121 167t169 61q72 0 131 -25.5t189 -108.5q31 -20 58 -28t71 -8q48 0 87 32.5t87 118.5l109 -59q-52 -105 -121.5 -166.5t-169.5 -61.5q-74 0 -134 25t-186 108q-32 20 -59 28.5t-70 8.5q-48 0 -87 -32.5t-87 -118.5z" />
<glyph unicode="&#xa1;" horiz-adv-x="724" d="M256 1235v219h213v-219h-213zM266 0q4 309 13.5 586t17.5 400l8 122h115q37 -413 45 -1108h-199z" />
<glyph unicode="&#xa2;" horiz-adv-x="1187" d="M182 512q0 201 103.5 345.5t283.5 168.5v135h107v-133q150 -10 233 -92.5t103 -210.5l-162 -31q-25 171 -174 189v-760q161 24 182 217l168 -27q-11 -62 -34 -115.5t-63 -102t-104.5 -80t-148.5 -38.5v-133h-107v133q-180 20 -283.5 163.5t-103.5 371.5zM356 504 q0 -168 58 -261.5t155 -115.5v752q-100 -25 -156.5 -122.5t-56.5 -252.5z" />
<glyph unicode="&#xa3;" horiz-adv-x="1187" d="M145 758v123h144q-15 108 -15 166q0 174 64 276q101 162 358 162q93 0 166 -28.5t116 -77.5t65 -109.5t22 -128.5q0 -40 -10 -88l-152 -21q6 38 6 76q0 233 -219 233q-150 0 -211 -98q-39 -62 -39 -184q0 -55 15 -178h348v-123h-330q29 -207 29 -295q0 -256 -129 -326 q99 6 258 6h411v-143h-874v135q45 6 76.5 24.5t49.5 43.5t28 66t13 79.5t3 95.5q0 88 -33 314h-160z" />
<glyph unicode="&#xa4;" horiz-adv-x="1187" d="M115 291l125 121q-93 113 -93 270q0 143 89 266l-121 117l94 94l121 -119q117 88 268 88q148 0 266 -88l123 121l86 -94l-117 -117q88 -117 88 -268q0 -154 -90 -268l119 -121l-88 -90l-119 119q-122 -91 -268 -91q-153 0 -268 91q-48 -50 -121 -119zM299 680 q0 -133 83 -219t214 -86t214 86t83 219t-83 218t-214 85t-214 -85t-83 -218z" />
<glyph unicode="&#xa5;" horiz-adv-x="1187" d="M63 1454h218l319 -551l318 551h206l-397 -674h281v-121h-322v-145h322v-121h-322v-393h-176v393h-320v121h320v145h-320v121h277z" />
<glyph unicode="&#xa6;" horiz-adv-x="573" d="M215 -276v761h143v-761h-143zM215 958v762h143v-762h-143z" />
<glyph unicode="&#xa7;" horiz-adv-x="1277" d="M143 727q0 74 23 132t61.5 92t84 51.5t94.5 17.5q58 0 100 -19q-135 125 -135 242q0 111 73.5 176.5t206.5 65.5q125 0 203 -60.5t78 -162.5q0 -24 -6 -66l-158 -14q4 25 4 59q0 50 -31.5 77.5t-85.5 27.5q-120 0 -120 -101q0 -47 20.5 -79t91.5 -103l252 -250 q120 -120 178 -215t58 -209q0 -74 -23 -132t-61.5 -92t-84 -51.5t-94.5 -17.5q-58 0 -100 19q135 -125 135 -242q0 -111 -73.5 -176.5t-206.5 -65.5q-124 0 -202.5 61t-78.5 163q0 23 6 65l158 14q-4 -25 -4 -59q0 -50 31.5 -77t85.5 -27q120 0 120 100q0 47 -20.5 79 t-91.5 103l-252 250q-120 120 -178 215t-58 209zM305 737q0 -71 47 -147.5t148 -177.5q186 -183 327 -183q65 0 105.5 40.5t40.5 109.5q0 72 -47 148.5t-148 177.5q-185 182 -327 182q-65 0 -105.5 -40.5t-40.5 -109.5z" />
<glyph unicode="&#xa8;" horiz-adv-x="450" d="M-45 1196v221h180v-221h-180zM315 1196v221h181v-221h-181z" />
<glyph unicode="&#xa9;" horiz-adv-x="1765" d="M123 727q0 208 100.5 381.5t275 274t384.5 100.5q157 0 298 -59t242 -160t160 -241t59 -296t-59 -296t-160 -241t-242 -160t-298 -59q-210 0 -384.5 100.5t-275 274t-100.5 381.5zM233 727q0 -133 50.5 -254t137 -209t207.5 -140t255 -52q179 0 328.5 88t235 238.5 t85.5 328.5t-85.5 328.5t-235 238.5t-328.5 88q-134 0 -255 -52t-207.5 -140t-137 -209t-50.5 -254zM477 733q0 207 112.5 343t291.5 136q75 0 137 -26t101 -68.5t61 -93t26 -102.5l-119 -19q-27 201 -210 201q-117 0 -196 -99.5t-79 -271.5q0 -170 79.5 -269t195.5 -99 q102 0 156 56t65 148l123 -12q-7 -54 -28 -103t-60 -95.5t-106 -74.5t-155 -28q-172 0 -283.5 136.5t-111.5 340.5z" />
<glyph unicode="&#xaa;" horiz-adv-x="927" d="M137 918q0 82 47.5 137t159.5 86q30 8 124.5 27.5t109.5 23.5q33 10 43 21.5t10 33.5v15q0 110 -166 110q-85 0 -131.5 -32t-46.5 -91l-121 11q0 96 80.5 156.5t218.5 60.5q142 0 213.5 -60t71.5 -155v-338q0 -61 17 -86.5t69 -32.5l-15 -92q-88 0 -131.5 33t-54.5 104 q-35 -59 -110.5 -101t-157.5 -42q-101 0 -165.5 56.5t-64.5 154.5zM264 918q0 -47 30.5 -74t86.5 -27q69 0 139 44t111 126v135q-17 -14 -51 -24q-19 -6 -104 -28t-114 -32q-98 -33 -98 -120z" />
<glyph unicode="&#xab;" horiz-adv-x="966" d="M102 516l299 402l95 -66l-238 -336l238 -336l-95 -65zM446 516l299 402l95 -66l-238 -336l238 -336l-95 -65z" />
<glyph unicode="&#xac;" d="M156 639v133h1020v-467h-138v334h-882z" />
<glyph unicode="&#xad;" horiz-adv-x="940" d="M164 514v148h612v-148h-612z" />
<glyph unicode="&#xae;" horiz-adv-x="1765" d="M123 727q0 208 100.5 381.5t275 274t384.5 100.5q157 0 298 -59t242 -160t160 -241t59 -296t-59 -296t-160 -241t-242 -160t-298 -59q-210 0 -384.5 100.5t-275 274t-100.5 381.5zM233 727q0 -133 50.5 -254t137 -209t207.5 -140t255 -52q179 0 328.5 88t235 238.5 t85.5 328.5t-85.5 328.5t-235 238.5t-328.5 88q-134 0 -255 -52t-207.5 -140t-137 -209t-50.5 -254zM625 270v926h309q125 0 210 -69.5t85 -184.5q0 -192 -168 -252l164 -420h-142l-137 400h-198v-400h-123zM748 778h174q184 0 184 158q0 72 -46.5 111.5t-131.5 39.5h-180 v-309z" />
<glyph unicode="&#xaf;" horiz-adv-x="450" d="M-31 1241v119h512v-119h-512z" />
<glyph unicode="&#xb0;" horiz-adv-x="950" d="M164 1143q0 129 91 220t220 91t220 -91t91 -220t-91 -220.5t-220 -91.5t-220 91.5t-91 220.5zM289 1143q0 -77 55 -132t131 -55q77 0 132 55t55 132q0 76 -55 131t-132 55t-131.5 -54.5t-54.5 -131.5z" />
<glyph unicode="&#xb1;" d="M180 0v127h971v-127h-971zM180 537v127h420v329h131v-329h420v-127h-420v-330h-131v330h-420z" />
<glyph unicode="&#xb2;" horiz-adv-x="800" d="M139 674v121q170 117 285 227q36 34 58.5 63t31 55t10.5 40.5t2 38.5q0 43 -31 71.5t-89 28.5q-62 0 -100 -35.5t-38 -107.5l-129 12q0 114 75 181t192 67q113 0 183 -61t70 -152q0 -73 -23 -129t-106 -136q-75 -72 -217 -170q46 5 111 5h231v-119h-516z" />
<glyph unicode="&#xb3;" horiz-adv-x="839" d="M139 879l129 18q14 -125 148 -125q60 0 99.5 34.5t39.5 92.5q0 64 -42.5 95.5t-137.5 31.5h-58v100h58q157 0 157 105q0 39 -36 66.5t-86 27.5q-57 0 -92 -31.5t-37 -79.5l-129 15q6 93 79.5 150t178.5 57q115 0 184.5 -58t69.5 -141q0 -58 -32 -97t-83 -55v-6 q56 -20 96.5 -67t40.5 -115q0 -106 -75 -170.5t-197 -64.5q-121 0 -193.5 55.5t-81.5 161.5z" />
<glyph unicode="&#xb4;" horiz-adv-x="450" d="M20 1223l410 262l76 -146l-443 -196z" />
<glyph unicode="&#xb5;" horiz-adv-x="1157" d="M184 -410v1416h164v-648q0 -124 51 -182.5t154 -58.5q75 0 134.5 38.5t90.5 106.5q25 55 25 168v576h164v-691q0 -152 10 -315h-162q-4 86 -6 141h-4q-82 -168 -268 -168q-63 0 -115.5 26t-73.5 60h-4q4 -131 4 -260v-209h-164z" />
<glyph unicode="&#xb6;" horiz-adv-x="1335" d="M123 1020q0 192 128 311t322 119h537v-1743h-143v1628h-248v-1628h-144l-2 883q-194 0 -322 119t-128 311z" />
<glyph unicode="&#xb7;" horiz-adv-x="579" d="M168 428v219h213v-219h-213z" />
<glyph unicode="&#xb8;" horiz-adv-x="450" d="M23 -336l40 66q48 -39 115 -39q39 0 62.5 18.5t23.5 48.5q0 35 -18.5 51.5t-48.5 16.5q-39 0 -70 -27l-47 37l94 164h78l-70 -111l2 -2q34 15 80 15q52 0 94.5 -35.5t42.5 -93.5q0 -77 -54.5 -120.5t-162.5 -43.5q-43 0 -87.5 15t-73.5 40z" />
<glyph unicode="&#xb9;" horiz-adv-x="722" d="M113 1176q129 102 278 247h127v-749h-133v583q-78 -75 -199 -172z" />
<glyph unicode="&#xba;" horiz-adv-x="944" d="M131 1092q0 178 95 280.5t247 102.5t246 -102.5t94 -280.5t-94 -279.5t-246 -101.5q-153 0 -247.5 101.5t-94.5 279.5zM256 1092q0 -135 60 -207t157 -72t156 72t59 207t-59 207.5t-156 72.5t-157 -72.5t-60 -207.5z" />
<glyph unicode="&#xbb;" horiz-adv-x="966" d="M127 180l238 336l-238 336l94 66l299 -402l-299 -401zM471 180l238 336l-238 336l94 66l299 -402l-299 -401z" />
<glyph unicode="&#xbc;" horiz-adv-x="1679" d="M111 1176q140 110 280 247h127v-749h-133v581q-78 -75 -199 -172zM328 18l856 1452l108 -63l-854 -1450zM885 168v86l334 496h116v-476h117v-106h-117v-168h-129v168h-321zM1024 274h182v170q0 64 2 109h-4q-24 -47 -59 -100z" />
<glyph unicode="&#xbd;" horiz-adv-x="1679" d="M113 1176q140 110 280 247h127v-749h-133v581q-78 -75 -199 -172zM328 18l856 1452l108 -63l-854 -1450zM987 0v121q170 117 285 227q36 34 58.5 63t31 55t10.5 40.5t2 38.5q0 43 -31.5 71.5t-89.5 28.5q-62 0 -99.5 -35.5t-37.5 -107.5l-129 12q0 114 74.5 181t191.5 67 q113 0 183.5 -61t70.5 -152q0 -73 -23 -128.5t-106 -135.5q-75 -72 -217 -170q37 4 111 4h231v-119h-516z" />
<glyph unicode="&#xbe;" horiz-adv-x="1679" d="M158 879l129 18q14 -125 147 -125q60 0 99.5 34.5t39.5 92.5q0 64 -42.5 95.5t-137.5 31.5h-57v100h57q158 0 158 105q0 39 -36.5 66.5t-86.5 27.5q-57 0 -92 -31.5t-37 -79.5l-129 15q6 93 79.5 150t178.5 57q115 0 184.5 -58t69.5 -141q0 -58 -32 -97t-83 -55v-6 q56 -20 97 -67t41 -115q0 -105 -75.5 -170t-197.5 -65q-120 0 -192.5 55.5t-81.5 161.5zM428 18l856 1452l109 -63l-854 -1450zM987 168v86l334 496h117v-476h116v-106h-116v-168h-129v168h-322zM1126 274h183v170q0 64 2 109h-4q-21 -40 -60 -100z" />
<glyph unicode="&#xbf;" horiz-adv-x="1107" d="M152 340q0 88 28 159t76.5 117t106.5 74.5t126 40.5v356h168v-462q-333 -29 -333 -271q0 -107 59 -172t170 -65t169 63.5t60 173.5l168 -22q0 -160 -108.5 -261.5t-288.5 -101.5q-98 0 -176 31t-126 83.5t-73.5 118t-25.5 138.5zM467 1235v219h213v-219h-213z" />
<glyph unicode="&#xc0;" horiz-adv-x="1210" d="M61 0l455 1454h172l461 -1454h-201l-88 315h-518l-90 -315h-191zM358 1769l76 146l410 -262l-43 -80zM387 475h426l-137 479q-62 211 -74 279h-4q-14 -80 -72 -281z" />
<glyph unicode="&#xc1;" horiz-adv-x="1210" d="M61 0l455 1454h172l461 -1454h-201l-88 315h-518l-90 -315h-191zM358 1653l410 262l76 -146l-443 -196zM387 475h426l-137 479q-62 211 -74 279h-4q-14 -80 -72 -281z" />
<glyph unicode="&#xc2;" horiz-adv-x="1210" d="M61 0l455 1454h172l461 -1454h-201l-88 315h-518l-90 -315h-191zM295 1651l305 264l305 -264l-69 -78l-236 170l-235 -170zM387 475h426l-137 479q-62 211 -74 279h-4q-14 -80 -72 -281z" />
<glyph unicode="&#xc3;" horiz-adv-x="1210" d="M61 0l455 1454h172l461 -1454h-201l-88 315h-518l-90 -315h-191zM299 1618q0 91 51 151t137 60q80 0 154 -64q39 -34 90 -34q75 0 78 86h92q0 -91 -51 -151t-137 -60q-81 0 -154 63q-41 35 -90 35q-75 0 -78 -86h-92zM387 475h426l-137 479q-62 211 -74 279h-4 q-14 -80 -72 -281z" />
<glyph unicode="&#xc4;" horiz-adv-x="1210" d="M61 0l455 1454h172l461 -1454h-201l-88 315h-518l-90 -315h-191zM334 1626v221h180v-221h-180zM387 475h426l-137 479q-62 211 -74 279h-4q-14 -80 -72 -281zM694 1626v221h180v-221h-180z" />
<glyph unicode="&#xc5;" horiz-adv-x="1210" d="M61 0l455 1454h172l461 -1454h-201l-88 315h-518l-90 -315h-191zM387 475h426l-137 479q-62 211 -74 279h-4q-14 -80 -72 -281zM403 1708q0 82 57.5 139.5t139.5 57.5q83 0 141 -57.5t58 -139.5t-58.5 -140.5t-140.5 -58.5q-80 0 -138.5 59t-58.5 140zM489 1708 q0 -46 32.5 -78.5t78.5 -32.5t78.5 32.5t32.5 78.5t-32.5 78.5t-78.5 32.5t-78.5 -32.5t-32.5 -78.5z" />
<glyph unicode="&#xc6;" horiz-adv-x="1622" d="M51 0l692 1454h781v-154h-596v-475h477v-153h-477v-518h596v-154h-772v338h-353l-155 -338h-193zM469 489h283v611z" />
<glyph unicode="&#xc7;" horiz-adv-x="1220" d="M133 715q0 175 32 315t95 242.5t163.5 157.5t231.5 55q98 0 180 -34t135.5 -91t85 -128t38.5 -149l-179 -32q-13 138 -81 207t-183 69q-89 0 -154 -44t-104 -126t-57.5 -189.5t-18.5 -244.5q0 -133 19 -239.5t57.5 -187.5t103.5 -125t152 -44q259 0 277 346l182 -24 q-6 -87 -29 -163t-68.5 -145t-124.5 -113.5t-184 -54.5l-65 -104l2 -2q31 14 80 14q52 0 94.5 -35.5t42.5 -93.5q0 -77 -54.5 -120.5t-162.5 -43.5q-43 0 -88 15.5t-74 40.5l41 65q48 -39 115 -39q39 0 62.5 19t23.5 49q0 67 -68 67q-39 0 -69 -26l-47 37l88 155 q-158 5 -269.5 100.5t-166 259.5t-54.5 384z" />
<glyph unicode="&#xc8;" horiz-adv-x="1118" d="M211 0v1454h809v-158h-629v-471h510v-157h-510v-510h629v-158h-809zM383 1769l76 146l409 -262l-43 -80z" />
<glyph unicode="&#xc9;" horiz-adv-x="1118" d="M211 0v1454h809v-158h-629v-471h510v-157h-510v-510h629v-158h-809zM383 1653l410 262l75 -146l-442 -196z" />
<glyph unicode="&#xca;" horiz-adv-x="1118" d="M211 0v1454h809v-158h-629v-471h510v-157h-510v-510h629v-158h-809zM317 1653l306 264l305 -264l-70 -78l-235 170l-236 -170z" />
<glyph unicode="&#xcb;" horiz-adv-x="1118" d="M211 0v1454h809v-158h-629v-471h510v-157h-510v-510h629v-158h-809zM344 1626v221h180v-221h-180zM705 1626v221h180v-221h-180z" />
<glyph unicode="&#xcc;" horiz-adv-x="610" d="M53 1769l76 146l410 -262l-43 -80zM215 0v1454h180v-1454h-180z" />
<glyph unicode="&#xcd;" horiz-adv-x="610" d="M74 1653l409 262l76 -146l-442 -196zM215 0v1454h180v-1454h-180z" />
<glyph unicode="&#xce;" horiz-adv-x="610" d="M0 1655l305 264l305 -264l-69 -78l-236 170l-235 -170zM215 0v1454h180v-1454h-180z" />
<glyph unicode="&#xcf;" horiz-adv-x="610" d="M35 1626v221h180v-221h-180zM215 0v1454h180v-1454h-180zM395 1626v221h180v-221h-180z" />
<glyph unicode="&#xd0;" horiz-adv-x="1306" d="M49 664v131h162v659h407q121 0 217 -40t158.5 -107.5t104 -161.5t59 -195.5t17.5 -216.5q0 -131 -17.5 -238.5t-59.5 -201t-108 -157.5t-166.5 -100t-230.5 -36h-381v664h-162zM391 154h219q379 0 379 573q0 94 -11 174.5t-38 155.5t-69 127.5t-108 84t-151 31.5h-221 v-505h264v-131h-264v-510z" />
<glyph unicode="&#xd1;" horiz-adv-x="1380" d="M211 0v1454h248l436 -967q71 -161 98 -254h4q-8 230 -8 297v924h180v-1454h-247l-433 954q-62 135 -102 267h-4q8 -153 8 -297v-924h-180zM397 1618q0 91 51.5 151t137.5 60q79 0 153 -64q39 -34 90 -34q75 0 78 86h92q0 -91 -51 -151t-137 -60q-81 0 -154 63 q-41 35 -90 35q-75 0 -78 -86h-92z" />
<glyph unicode="&#xd2;" horiz-adv-x="1306" d="M133 727q0 359 135 558.5t385 199.5t385.5 -199.5t135.5 -558.5t-135.5 -558.5t-385.5 -199.5t-385 199.5t-135 558.5zM317 727q0 -600 336 -600t336 600t-336 600t-336 -600zM422 1769l76 146l409 -262l-43 -80z" />
<glyph unicode="&#xd3;" horiz-adv-x="1306" d="M133 727q0 359 135 558.5t385 199.5t385.5 -199.5t135.5 -558.5t-135.5 -558.5t-385.5 -199.5t-385 199.5t-135 558.5zM317 727q0 -600 336 -600t336 600t-336 600t-336 -600zM401 1653l410 262l76 -146l-443 -196z" />
<glyph unicode="&#xd4;" horiz-adv-x="1306" d="M133 727q0 359 135 558.5t385 199.5t385.5 -199.5t135.5 -558.5t-135.5 -558.5t-385.5 -199.5t-385 199.5t-135 558.5zM317 727q0 -600 336 -600t336 600t-336 600t-336 -600zM348 1655l305 264l305 -264l-69 -78l-236 170l-235 -170z" />
<glyph unicode="&#xd5;" horiz-adv-x="1306" d="M133 727q0 359 135 558.5t385 199.5t385.5 -199.5t135.5 -558.5t-135.5 -558.5t-385.5 -199.5t-385 199.5t-135 558.5zM317 727q0 -600 336 -600t336 600t-336 600t-336 -600zM352 1618q0 91 51.5 151t137.5 60q79 0 153 -64q39 -34 90 -34q75 0 78 86h92q0 -91 -51 -151 t-137 -60q-81 0 -154 63q-41 35 -90 35q-75 0 -78 -86h-92z" />
<glyph unicode="&#xd6;" horiz-adv-x="1306" d="M133 727q0 359 135 558.5t385 199.5t385.5 -199.5t135.5 -558.5t-135.5 -558.5t-385.5 -199.5t-385 199.5t-135 558.5zM317 727q0 -600 336 -600t336 600t-336 600t-336 -600zM383 1626v221h180v-221h-180zM743 1626v221h181v-221h-181z" />
<glyph unicode="&#xd7;" d="M242 190l333 334l-333 334l90 90l334 -334l333 334l91 -90l-334 -334l334 -334l-91 -90l-333 334l-334 -334z" />
<glyph unicode="&#xd8;" horiz-adv-x="1306" d="M133 104l96 132q-96 190 -96 491q0 359 135 558.5t385 199.5q234 0 369 -176l76 102l76 -55l-99 -133q99 -196 99 -496q0 -359 -135.5 -558.5t-385.5 -199.5q-236 0 -372 181l-72 -99zM317 727q0 -195 35 -326l561 760q-83 170 -260 170q-336 0 -336 -604zM391 297 q83 -174 262 -174q336 0 336 604q0 192 -37 330z" />
<glyph unicode="&#xd9;" horiz-adv-x="1314" d="M205 430v1024h180v-1008q0 -153 47 -223q67 -98 225 -98q159 0 226 98q47 70 47 223v1008h180v-1024q0 -205 -98 -321q-119 -140 -355 -140q-235 0 -354 140q-98 116 -98 321zM416 1769l76 146l409 -262l-43 -80z" />
<glyph unicode="&#xda;" horiz-adv-x="1314" d="M205 430v1024h180v-1008q0 -153 47 -223q67 -98 225 -98q159 0 226 98q47 70 47 223v1008h180v-1024q0 -205 -98 -321q-119 -140 -355 -140q-235 0 -354 140q-98 116 -98 321zM416 1653l409 262l76 -146l-442 -196z" />
<glyph unicode="&#xdb;" horiz-adv-x="1314" d="M205 430v1024h180v-1008q0 -153 47 -223q67 -98 225 -98q159 0 226 98q47 70 47 223v1008h180v-1024q0 -205 -98 -321q-119 -140 -355 -140q-235 0 -354 140q-98 116 -98 321zM352 1649l305 264l306 -264l-70 -78l-236 170l-235 -170z" />
<glyph unicode="&#xdc;" horiz-adv-x="1314" d="M205 430v1024h180v-1008q0 -153 47 -223q67 -98 225 -98q159 0 226 98q47 70 47 223v1008h180v-1024q0 -205 -98 -321q-119 -140 -355 -140q-235 0 -354 140q-98 116 -98 321zM387 1626v221h180v-221h-180zM748 1626v221h180v-221h-180z" />
<glyph unicode="&#xdd;" horiz-adv-x="1150" d="M37 1454h221l324 -627l321 627h211l-444 -825v-629h-181v629zM352 1653l410 262l76 -146l-443 -196z" />
<glyph unicode="&#xde;" horiz-adv-x="1206" d="M211 0v1454h180v-223h273q231 0 358 -127q113 -113 113 -289q0 -195 -121.5 -311.5t-349.5 -116.5h-273v-387h-180zM391 543h252q160 0 233.5 68t73.5 198q0 119 -75 192.5t-222 73.5h-262v-532z" />
<glyph unicode="&#xdf;" horiz-adv-x="1236" d="M195 0v1092q0 171 106 282t295 111q204 0 312 -101t108 -258q0 -105 -66.5 -192.5t-165.5 -104.5v-4q124 -23 201.5 -124.5t77.5 -241.5q0 -234 -114.5 -359t-315.5 -125q-75 0 -148 25l31 137q56 -18 109 -18q138 0 201 79t63 238q0 154 -86.5 236t-245.5 82h-45v135h45 q146 0 215.5 60.5t69.5 164.5q0 103 -59.5 163t-176.5 60q-112 0 -180 -68.5t-68 -195.5v-1073h-163z" />
<glyph unicode="&#xe0;" horiz-adv-x="1107" d="M123 266q0 225 283 303q233 63 264 72q47 13 60 28.5t13 47.5v16q0 74 -44 114t-154 40q-213 0 -213 -166l-170 18q2 130 99 210.5t282 80.5q192 0 278 -80.5t86 -216.5v-467q0 -83 22 -117.5t93 -44.5l-18 -120q-121 0 -178.5 43t-75.5 141q-119 -193 -320 -193 q-137 0 -222 78.5t-85 212.5zM297 266q0 -67 41 -108t115 -41q169 0 290 235v189q-20 -17 -71 -33q-9 -3 -101.5 -31t-136.5 -43q-74 -25 -105.5 -66.5t-31.5 -101.5zM305 1339l76 146l410 -262l-43 -80z" />
<glyph unicode="&#xe1;" horiz-adv-x="1107" d="M123 266q0 225 283 303q233 63 264 72q47 13 60 28.5t13 47.5v16q0 74 -44 114t-154 40q-213 0 -213 -166l-170 18q2 130 99 210.5t282 80.5q192 0 278 -80.5t86 -216.5v-467q0 -83 22 -117.5t93 -44.5l-18 -120q-121 0 -178.5 43t-75.5 141q-119 -193 -320 -193 q-137 0 -222 78.5t-85 212.5zM297 266q0 -67 41 -108t115 -41q169 0 290 235v189q-20 -17 -71 -33q-9 -3 -101.5 -31t-136.5 -43q-74 -25 -105.5 -66.5t-31.5 -101.5zM299 1223l410 262l75 -146l-442 -196z" />
<glyph unicode="&#xe2;" horiz-adv-x="1107" d="M123 266q0 225 283 303q233 63 264 72q47 13 60 28.5t13 47.5v16q0 74 -44 114t-154 40q-213 0 -213 -166l-170 18q2 130 99 210.5t282 80.5q192 0 278 -80.5t86 -216.5v-467q0 -83 22 -117.5t93 -44.5l-18 -120q-121 0 -178.5 43t-75.5 141q-119 -193 -320 -193 q-137 0 -222 78.5t-85 212.5zM246 1204l305 264l305 -264l-70 -78l-235 170l-236 -170zM297 266q0 -67 41 -108t115 -41q169 0 290 235v189q-20 -17 -71 -33q-9 -3 -101.5 -31t-136.5 -43q-74 -25 -105.5 -66.5t-31.5 -101.5z" />
<glyph unicode="&#xe3;" horiz-adv-x="1107" d="M123 266q0 225 283 303q233 63 264 72q47 13 60 28.5t13 47.5v16q0 74 -44 114t-154 40q-213 0 -213 -166l-170 18q2 130 99 210.5t282 80.5q192 0 278 -80.5t86 -216.5v-467q0 -83 22 -117.5t93 -44.5l-18 -120q-121 0 -178.5 43t-75.5 141q-119 -193 -320 -193 q-137 0 -222 78.5t-85 212.5zM236 1204q0 91 51 151t137 60q81 0 154 -63q41 -35 90 -35q74 0 77 86h93q0 -91 -51.5 -151t-137.5 -60q-80 0 -153 63q-41 35 -90 35q-75 0 -78 -86h-92zM297 266q0 -67 41 -108t115 -41q169 0 290 235v189q-20 -17 -71 -33q-9 -3 -101.5 -31 t-136.5 -43q-74 -25 -105.5 -66.5t-31.5 -101.5z" />
<glyph unicode="&#xe4;" horiz-adv-x="1107" d="M123 266q0 225 283 303q233 63 264 72q47 13 60 28.5t13 47.5v16q0 74 -44 114t-154 40q-213 0 -213 -166l-170 18q2 130 99 210.5t282 80.5q192 0 278 -80.5t86 -216.5v-467q0 -83 22 -117.5t93 -44.5l-18 -120q-121 0 -178.5 43t-75.5 141q-119 -193 -320 -193 q-137 0 -222 78.5t-85 212.5zM266 1196v221h180v-221h-180zM297 266q0 -67 41 -108t115 -41q169 0 290 235v189q-20 -17 -71 -33q-9 -3 -101.5 -31t-136.5 -43q-74 -25 -105.5 -66.5t-31.5 -101.5zM627 1196v221h180v-221h-180z" />
<glyph unicode="&#xe5;" horiz-adv-x="1107" d="M123 266q0 225 283 303q233 63 264 72q47 13 60 28.5t13 47.5v16q0 74 -44 114t-154 40q-213 0 -213 -166l-170 18q2 130 99 210.5t282 80.5q192 0 278 -80.5t86 -216.5v-467q0 -83 22 -117.5t93 -44.5l-18 -120q-121 0 -178.5 43t-75.5 141q-119 -193 -320 -193 q-137 0 -222 78.5t-85 212.5zM297 266q0 -67 41 -108t115 -41q169 0 290 235v189q-20 -17 -71 -33q-9 -3 -101.5 -31t-136.5 -43q-74 -25 -105.5 -66.5t-31.5 -101.5zM338 1321q0 82 57.5 139.5t139.5 57.5q83 0 140.5 -57.5t57.5 -139.5t-58 -140.5t-140 -58.5 q-80 0 -138.5 59t-58.5 140zM424 1321q0 -46 32.5 -78.5t78.5 -32.5t78 32.5t32 78.5t-32 78.5t-78 32.5t-78.5 -32.5t-32.5 -78.5z" />
<glyph unicode="&#xe6;" horiz-adv-x="1699" d="M123 287q0 152 106 224.5t283 72.5h242v149q0 74 -45.5 114t-155.5 40q-113 0 -163 -41.5t-50 -122.5l-166 12q0 130 96 212.5t281 82.5q229 0 317 -131q118 131 299 131q190 0 304 -132.5t114 -358.5q0 -43 -4 -97h-663v-30q23 -293 256 -293q86 0 146 50.5t79 133.5 l160 -29q-11 -44 -29.5 -84t-51 -80t-74.5 -69.5t-103.5 -47.5t-133.5 -18q-128 0 -221.5 59t-142.5 173q-48 -106 -148 -169t-206 -63q-137 0 -231.5 88.5t-94.5 223.5zM295 276q0 -69 50.5 -114t127.5 -45q87 0 161 59.5t120 159.5v108h-191q-50 0 -80.5 -2t-71 -11 t-62.5 -26t-38 -49.5t-16 -79.5zM918 584h489q-3 147 -65.5 225t-178.5 78q-110 0 -175.5 -79t-69.5 -224z" />
<glyph unicode="&#xe7;" horiz-adv-x="1064" d="M119 512q0 142 51.5 258.5t155.5 188t243 71.5q168 0 263.5 -85t115.5 -220l-162 -31q-28 193 -217 193q-126 0 -201 -102t-75 -281q0 -194 75.5 -288.5t196.5 -94.5q203 0 230 217l168 -25q-9 -48 -24.5 -91t-45 -88t-69 -77.5t-100 -55.5t-134.5 -26l-53 -86l2 -2 q34 15 79 15q52 0 95 -35.5t43 -93.5q0 -77 -54.5 -120.5t-162.5 -43.5q-43 0 -88 15t-74 40l41 66q48 -39 114 -39q39 0 62.5 18.5t23.5 48.5q0 35 -18.5 51.5t-48.5 16.5q-39 0 -70 -27l-47 37l80 141q-185 17 -290 160.5t-105 374.5z" />
<glyph unicode="&#xe8;" horiz-adv-x="1093" d="M119 506q0 239 118 381.5t318 142.5q191 0 307.5 -133t116.5 -358q0 -45 -4 -99h-678q16 -321 264 -321q92 0 147.5 49t75.5 135l164 -31q-14 -55 -41.5 -103.5t-72 -94t-115 -72.5t-158.5 -27q-210 0 -326 142.5t-116 388.5zM299 584h502q-3 146 -68 224.5t-182 78.5 q-130 0 -197 -109q-49 -78 -55 -194zM299 1339l76 146l409 -262l-43 -80z" />
<glyph unicode="&#xe9;" horiz-adv-x="1093" d="M119 506q0 239 118 381.5t318 142.5q191 0 307.5 -133t116.5 -358q0 -45 -4 -99h-678q16 -321 264 -321q92 0 147.5 49t75.5 135l164 -31q-14 -55 -41.5 -103.5t-72 -94t-115 -72.5t-158.5 -27q-210 0 -326 142.5t-116 388.5zM299 584h502q-3 146 -68 224.5t-182 78.5 q-130 0 -197 -109q-49 -78 -55 -194zM309 1223l410 262l76 -146l-443 -196z" />
<glyph unicode="&#xea;" horiz-adv-x="1093" d="M119 506q0 239 118 381.5t318 142.5q191 0 307.5 -133t116.5 -358q0 -45 -4 -99h-678q16 -321 264 -321q92 0 147.5 49t75.5 135l164 -31q-14 -55 -41.5 -103.5t-72 -94t-115 -72.5t-158.5 -27q-210 0 -326 142.5t-116 388.5zM246 1204l305 264l305 -264l-70 -78 l-235 170l-236 -170zM299 584h502q-3 146 -68 224.5t-182 78.5q-130 0 -197 -109q-49 -78 -55 -194z" />
<glyph unicode="&#xeb;" horiz-adv-x="1093" d="M119 506q0 239 118 381.5t318 142.5q191 0 307.5 -133t116.5 -358q0 -45 -4 -99h-678q16 -321 264 -321q92 0 147.5 49t75.5 135l164 -31q-14 -55 -41.5 -103.5t-72 -94t-115 -72.5t-158.5 -27q-210 0 -326 142.5t-116 388.5zM281 1196v221h180v-221h-180zM299 584h502 q-3 146 -68 224.5t-182 78.5q-130 0 -197 -109q-49 -78 -55 -194zM641 1196v221h180v-221h-180z" />
<glyph unicode="&#xec;" horiz-adv-x="552" d="M35 1339l76 146l409 -262l-43 -80zM195 0v1006h163v-1006h-163z" />
<glyph unicode="&#xed;" horiz-adv-x="552" d="M35 1223l409 262l76 -146l-442 -196zM195 0v1006h163v-1006h-163z" />
<glyph unicode="&#xee;" horiz-adv-x="552" d="M-29 1204l305 264l306 -264l-70 -78l-236 170l-235 -170zM195 0v1006h163v-1006h-163z" />
<glyph unicode="&#xef;" horiz-adv-x="552" d="M6 1196v221h180v-221h-180zM195 0v1006h163v-1006h-163zM367 1196v221h180v-221h-180z" />
<glyph unicode="&#xf0;" horiz-adv-x="1183" d="M139 461q0 197 119.5 327t302.5 130q94 0 166.5 -41.5t106.5 -106.5h4q-25 257 -203 432l-266 -135l-47 94l225 115q-87 63 -203 108l41 107q181 -64 289 -148l209 107l47 -94l-170 -88q250 -244 250 -684q0 -293 -109 -451q-52 -77 -138.5 -120.5t-199.5 -43.5 q-107 0 -190.5 42t-133.5 112.5t-75 156.5t-25 181zM315 451q0 -89 22 -156t58.5 -104t78.5 -54.5t89 -17.5q65 0 117 25.5t82 70.5q59 91 59 244q0 139 -68 224t-180 85q-114 0 -186 -80t-72 -237z" />
<glyph unicode="&#xf1;" horiz-adv-x="1153" d="M184 1006h160q8 -86 8 -142h4q92 166 308 166q81 0 150 -34.5t110 -96.5q55 -80 55 -233v-666h-164v639q0 99 -27 152q-51 94 -180 94q-65 0 -121.5 -32t-87.5 -87q-41 -73 -41 -188v-578h-163v686q0 165 -11 320zM285 1204q0 91 51 151t137 60q81 0 154 -63 q41 -35 90 -35q75 0 78 86h92q0 -91 -51.5 -151t-137.5 -60q-80 0 -153 63q-41 35 -90 35q-75 0 -78 -86h-92z" />
<glyph unicode="&#xf2;" horiz-adv-x="1114" d="M119 504q0 239 120 382.5t318 143.5t318 -143.5t120 -382.5t-120 -384t-318 -145t-318 145t-120 384zM293 504q0 -184 69.5 -285.5t194.5 -101.5t194.5 101.5t69.5 285.5t-69.5 284.5t-194.5 100.5t-194.5 -100.5t-69.5 -284.5zM326 1339l75 146l410 -262l-43 -80z" />
<glyph unicode="&#xf3;" horiz-adv-x="1114" d="M119 504q0 239 120 382.5t318 143.5t318 -143.5t120 -382.5t-120 -384t-318 -145t-318 145t-120 384zM293 504q0 -184 69.5 -285.5t194.5 -101.5t194.5 101.5t69.5 285.5t-69.5 284.5t-194.5 100.5t-194.5 -100.5t-69.5 -284.5zM305 1223l410 262l76 -146l-443 -196z" />
<glyph unicode="&#xf4;" horiz-adv-x="1114" d="M119 504q0 239 120 382.5t318 143.5t318 -143.5t120 -382.5t-120 -384t-318 -145t-318 145t-120 384zM252 1204l305 264l305 -264l-69 -78l-236 170l-235 -170zM293 504q0 -184 69.5 -285.5t194.5 -101.5t194.5 101.5t69.5 285.5t-69.5 284.5t-194.5 100.5t-194.5 -100.5 t-69.5 -284.5z" />
<glyph unicode="&#xf5;" horiz-adv-x="1114" d="M119 504q0 239 120 382.5t318 143.5t318 -143.5t120 -382.5t-120 -384t-318 -145t-318 145t-120 384zM256 1204q0 91 51 151t137 60q81 0 154 -63q41 -35 90 -35q75 0 78 86h92q0 -91 -51 -151t-137 -60q-81 0 -154 63q-41 35 -90 35q-75 0 -78 -86h-92zM293 504 q0 -184 69.5 -285.5t194.5 -101.5t194.5 101.5t69.5 285.5t-69.5 284.5t-194.5 100.5t-194.5 -100.5t-69.5 -284.5z" />
<glyph unicode="&#xf6;" horiz-adv-x="1114" d="M119 504q0 239 120 382.5t318 143.5t318 -143.5t120 -382.5t-120 -384t-318 -145t-318 145t-120 384zM287 1196v221h180v-221h-180zM293 504q0 -184 69.5 -285.5t194.5 -101.5t194.5 101.5t69.5 285.5t-69.5 284.5t-194.5 100.5t-194.5 -100.5t-69.5 -284.5zM647 1196 v221h180v-221h-180z" />
<glyph unicode="&#xf7;" d="M180 461v127h971v-127h-971zM559 57v219h213v-219h-213zM559 774v219h213v-219h-213z" />
<glyph unicode="&#xf8;" horiz-adv-x="1114" d="M119 -47l121 164q-121 143 -121 385q0 239 120 383.5t318 144.5q169 0 279 -104l90 121l69 -52l-100 -135q100 -143 100 -358q0 -239 -120 -383t-318 -144q-150 0 -256 80l-113 -151zM293 502q0 -152 47 -248l401 545q-70 90 -184 90q-125 0 -194.5 -101.5t-69.5 -285.5z M391 180q63 -63 166 -63q125 0 194.5 100.5t69.5 284.5q0 119 -33 213z" />
<glyph unicode="&#xf9;" horiz-adv-x="1157" d="M180 328v678h164v-646q0 -126 48.5 -183.5t156.5 -57.5q75 0 134.5 38.5t90.5 106.5q25 55 25 168v574h164v-689q0 -154 10 -317h-162q-6 87 -6 143h-4q-82 -168 -289 -168q-145 0 -238.5 91.5t-93.5 261.5zM340 1339l76 146l409 -262l-43 -80z" />
<glyph unicode="&#xfa;" horiz-adv-x="1157" d="M180 328v678h164v-646q0 -126 48.5 -183.5t156.5 -57.5q75 0 134.5 38.5t90.5 106.5q25 55 25 168v574h164v-689q0 -154 10 -317h-162q-6 87 -6 143h-4q-82 -168 -289 -168q-145 0 -238.5 91.5t-93.5 261.5zM319 1223l410 262l76 -146l-443 -196z" />
<glyph unicode="&#xfb;" horiz-adv-x="1157" d="M180 328v678h164v-646q0 -126 48.5 -183.5t156.5 -57.5q75 0 134.5 38.5t90.5 106.5q25 55 25 168v574h164v-689q0 -154 10 -317h-162q-6 87 -6 143h-4q-82 -168 -289 -168q-145 0 -238.5 91.5t-93.5 261.5zM264 1204l305 264l305 -264l-69 -78l-236 170l-235 -170z" />
<glyph unicode="&#xfc;" horiz-adv-x="1157" d="M180 328v678h164v-646q0 -126 48.5 -183.5t156.5 -57.5q75 0 134.5 38.5t90.5 106.5q25 55 25 168v574h164v-689q0 -154 10 -317h-162q-6 87 -6 143h-4q-82 -168 -289 -168q-145 0 -238.5 91.5t-93.5 261.5zM299 1196v221h180v-221h-180zM659 1196v221h181v-221h-181z " />
<glyph unicode="&#xfd;" horiz-adv-x="974" d="M-12 -367l57 123q82 -45 154 -45q66 0 100 31q29 29 47 80l62 182l-367 1002h184l201 -578q36 -102 59 -205h4q12 51 64 205l197 578h174l-430 -1217q-37 -109 -91 -158q-67 -61 -194 -61q-110 0 -221 63zM276 1223l410 262l76 -146l-443 -196z" />
<glyph unicode="&#xfe;" horiz-adv-x="1169" d="M195 -410v1864h163v-432q0 -86 -4 -164h4q24 64 101 118t184 54q177 0 292.5 -143t115.5 -383q0 -241 -113 -385t-293 -144q-104 0 -178 50t-109 122h-4q4 -74 4 -143v-414h-163zM356 506q0 -188 69.5 -287.5t199.5 -99.5q113 0 182.5 101t69.5 294q0 183 -71 278 t-190 95q-124 0 -192 -101.5t-68 -279.5z" />
<glyph unicode="&#xff;" horiz-adv-x="974" d="M-12 -367l57 123q82 -45 154 -45q66 0 100 31q29 29 47 80l62 182l-367 1002h184l201 -578q36 -102 59 -205h4q12 51 64 205l197 578h174l-430 -1217q-37 -109 -91 -158q-67 -61 -194 -61q-110 0 -221 63zM217 1196v221h180v-221h-180zM578 1196v221h180v-221h-180z" />
<glyph unicode="&#x100;" horiz-adv-x="1210" d="M61 0l455 1454h172l461 -1454h-201l-88 315h-518l-90 -315h-191zM344 1669v119h512v-119h-512zM387 475h426l-137 479q-62 211 -74 279h-4q-14 -80 -72 -281z" />
<glyph unicode="&#x101;" horiz-adv-x="1107" d="M123 266q0 225 283 303q233 63 264 72q47 13 60 28.5t13 47.5v16q0 74 -44 114t-154 40q-213 0 -213 -166l-170 18q2 130 99 210.5t282 80.5q192 0 278 -80.5t86 -216.5v-467q0 -83 22 -117.5t93 -44.5l-18 -120q-121 0 -178.5 43t-75.5 141q-119 -193 -320 -193 q-137 0 -222 78.5t-85 212.5zM283 1241v119h512v-119h-512zM297 266q0 -67 41 -108t115 -41q169 0 290 235v189q-20 -17 -71 -33q-9 -3 -101.5 -31t-136.5 -43q-74 -25 -105.5 -66.5t-31.5 -101.5z" />
<glyph unicode="&#x102;" horiz-adv-x="1210" d="M61 0l455 1454h172l461 -1454h-201l-88 315h-518l-90 -315h-191zM328 1794h88q21 -111 186 -111t186 111h89q-4 -59 -28.5 -102.5t-63.5 -67t-84 -34.5t-99 -11q-42 0 -79 6.5t-72 22t-60.5 39.5t-42.5 61.5t-20 85.5zM387 475h426l-137 479q-62 211 -74 279h-4 q-14 -80 -72 -281z" />
<glyph unicode="&#x103;" horiz-adv-x="1107" d="M123 266q0 225 283 303q233 63 264 72q47 13 60 28.5t13 47.5v16q0 74 -44 114t-154 40q-213 0 -213 -166l-170 18q2 130 99 210.5t282 80.5q192 0 278 -80.5t86 -216.5v-467q0 -83 22 -117.5t93 -44.5l-18 -120q-121 0 -178.5 43t-75.5 141q-119 -193 -320 -193 q-137 0 -222 78.5t-85 212.5zM268 1386h88q20 -110 187 -110q166 0 186 110h88q-3 -48 -20 -85.5t-42.5 -61.5t-60.5 -39.5t-72 -22t-79 -6.5q-54 0 -99 11t-84 34.5t-63.5 67t-28.5 102.5zM297 266q0 -67 41 -108t115 -41q169 0 290 235v189q-20 -17 -71 -33 q-9 -3 -101.5 -31t-136.5 -43q-74 -25 -105.5 -66.5t-31.5 -101.5z" />
<glyph unicode="&#x104;" horiz-adv-x="1210" d="M61 0l455 1454h172l461 -1454h-98q-140 -99 -140 -205q0 -39 25 -62.5t55 -23.5q63 0 101 47l57 -55q-65 -82 -182 -82q-82 0 -138.5 36t-56.5 114q0 40 14.5 74t43.5 63.5t53.5 48.5t64.5 45l-88 315h-518l-90 -315h-191zM387 475h426l-137 479q-62 211 -74 279h-4 q-14 -80 -72 -281z" />
<glyph unicode="&#x105;" horiz-adv-x="1107" d="M123 266q0 225 283 303q233 63 264 72q47 13 60 28.5t13 47.5v16q0 74 -44 114t-154 40q-213 0 -213 -166l-170 18q2 130 99 210.5t282 80.5q192 0 278 -80.5t86 -216.5v-467q0 -83 22 -117.5t93 -44.5l-18 -120q-7 0 -21 1t-20 1q-119 -89 -119 -191q0 -39 25 -62.5 t55 -23.5q62 0 100 47l57 -55q-65 -82 -182 -82q-82 0 -138 36t-56 114q0 40 14 74t42.5 63.5t53.5 48.5t64 45q-108 33 -129 168q-119 -193 -320 -193q-137 0 -222 78.5t-85 212.5zM297 266q0 -67 41 -108t115 -41q169 0 290 235v189q-20 -17 -71 -33q-9 -3 -101.5 -31 t-136.5 -43q-74 -25 -105.5 -66.5t-31.5 -101.5z" />
<glyph unicode="&#x106;" horiz-adv-x="1220" d="M133 715q0 175 32 315t95 242.5t163.5 157.5t231.5 55q98 0 180 -34t135.5 -91t85 -128t38.5 -149l-179 -32q-13 138 -81 207t-183 69q-89 0 -154 -44t-104 -126t-57.5 -189.5t-18.5 -244.5q0 -133 19 -239.5t57.5 -187.5t103.5 -125t152 -44q259 0 277 346l182 -24 q-4 -73 -20.5 -139t-52 -129.5t-86.5 -109.5t-130 -74t-178 -28q-164 0 -279.5 94.5t-172 261t-56.5 390.5zM395 1653l410 262l76 -146l-443 -196z" />
<glyph unicode="&#x107;" horiz-adv-x="1064" d="M119 512q0 142 51.5 258.5t155.5 188t243 71.5q168 0 263.5 -85t115.5 -220l-162 -31q-28 193 -217 193q-126 0 -201 -102t-75 -281q0 -194 75.5 -288.5t196.5 -94.5q203 0 230 217l168 -25q-9 -50 -25 -94.5t-48 -90.5t-74.5 -79t-108.5 -53.5t-146 -20.5 q-206 0 -324 145.5t-118 391.5zM313 1223l410 262l76 -146l-443 -196z" />
<glyph unicode="&#x108;" horiz-adv-x="1220" d="M133 715q0 175 32 315t95 242.5t163.5 157.5t231.5 55q98 0 180 -34t135.5 -91t85 -128t38.5 -149l-179 -32q-13 138 -81 207t-183 69q-89 0 -154 -44t-104 -126t-57.5 -189.5t-18.5 -244.5q0 -133 19 -239.5t57.5 -187.5t103.5 -125t152 -44q259 0 277 346l182 -24 q-4 -73 -20.5 -139t-52 -129.5t-86.5 -109.5t-130 -74t-178 -28q-164 0 -279.5 94.5t-172 261t-56.5 390.5zM344 1653l305 264l305 -264l-69 -78l-236 170l-235 -170z" />
<glyph unicode="&#x109;" horiz-adv-x="1064" d="M119 512q0 142 51.5 258.5t155.5 188t243 71.5q168 0 263.5 -85t115.5 -220l-162 -31q-28 193 -217 193q-126 0 -201 -102t-75 -281q0 -194 75.5 -288.5t196.5 -94.5q203 0 230 217l168 -25q-9 -50 -25 -94.5t-48 -90.5t-74.5 -79t-108.5 -53.5t-146 -20.5 q-206 0 -324 145.5t-118 391.5zM264 1204l305 264l305 -264l-69 -78l-236 170l-235 -170z" />
<glyph unicode="&#x10a;" horiz-adv-x="1220" d="M133 715q0 175 32 315t95 242.5t163.5 157.5t231.5 55q98 0 180 -34t135.5 -91t85 -128t38.5 -149l-179 -32q-13 138 -81 207t-183 69q-89 0 -154 -44t-104 -126t-57.5 -189.5t-18.5 -244.5q0 -133 19 -239.5t57.5 -187.5t103.5 -125t152 -44q259 0 277 346l182 -24 q-4 -73 -20.5 -139t-52 -129.5t-86.5 -109.5t-130 -74t-178 -28q-164 0 -279.5 94.5t-172 261t-56.5 390.5zM561 1642v226h176v-226h-176z" />
<glyph unicode="&#x10b;" horiz-adv-x="1064" d="M119 512q0 142 51.5 258.5t155.5 188t243 71.5q168 0 263.5 -85t115.5 -220l-162 -31q-28 193 -217 193q-126 0 -201 -102t-75 -281q0 -194 75.5 -288.5t196.5 -94.5q203 0 230 217l168 -25q-9 -50 -25 -94.5t-48 -90.5t-74.5 -79t-108.5 -53.5t-146 -20.5 q-206 0 -324 145.5t-118 391.5zM481 1214v226h176v-226h-176z" />
<glyph unicode="&#x10c;" horiz-adv-x="1220" d="M133 715q0 175 32 315t95 242.5t163.5 157.5t231.5 55q98 0 180 -34t135.5 -91t85 -128t38.5 -149l-179 -32q-13 138 -81 207t-183 69q-89 0 -154 -44t-104 -126t-57.5 -189.5t-18.5 -244.5q0 -133 19 -239.5t57.5 -187.5t103.5 -125t152 -44q259 0 277 346l182 -24 q-4 -73 -20.5 -139t-52 -129.5t-86.5 -109.5t-130 -74t-178 -28q-164 0 -279.5 94.5t-172 261t-56.5 390.5zM346 1837l70 78l235 -170l236 170l69 -78l-305 -264z" />
<glyph unicode="&#x10d;" horiz-adv-x="1064" d="M119 512q0 142 51.5 258.5t155.5 188t243 71.5q168 0 263.5 -85t115.5 -220l-162 -31q-28 193 -217 193q-126 0 -201 -102t-75 -281q0 -194 75.5 -288.5t196.5 -94.5q203 0 230 217l168 -25q-9 -50 -25 -94.5t-48 -90.5t-74.5 -79t-108.5 -53.5t-146 -20.5 q-206 0 -324 145.5t-118 391.5zM264 1391l70 77l235 -170l236 170l69 -77l-305 -265z" />
<glyph unicode="&#x10e;" horiz-adv-x="1306" d="M211 0v1454h405q86 0 156 -18q108 -28 187.5 -97t125.5 -166t67.5 -206.5t21.5 -233.5q0 -612 -402 -713q-76 -20 -182 -20h-379zM313 1837l70 78l235 -170l236 170l70 -78l-306 -264zM391 156h219q379 0 379 571q0 93 -11 173.5t-38 155.5t-69 127t-108 83.5t-151 31.5 h-221v-1142z" />
<glyph unicode="&#x10f;" horiz-adv-x="1382" d="M119 508q0 249 114 385.5t306 136.5q98 0 171.5 -49t100.5 -123h4q-4 72 -4 135v461h164v-1128q0 -81 10 -326h-162q-8 86 -8 147h-4q-26 -69 -97.5 -120.5t-183.5 -51.5q-176 0 -293.5 140t-117.5 393zM293 496q0 -185 70.5 -281t193.5 -96q86 0 145.5 54.5t85 139 t25.5 191.5q0 172 -66.5 277.5t-197.5 105.5q-122 0 -189 -95.5t-67 -295.5zM1128 1094l103 376l153 -61l-172 -348z" />
<glyph unicode="&#x110;" horiz-adv-x="1306" d="M49 664v131h162v659h407q121 0 217 -40t158.5 -107.5t104 -161.5t59 -195.5t17.5 -216.5q0 -131 -17.5 -238.5t-59.5 -201t-108 -157.5t-166.5 -100t-230.5 -36h-381v664h-162zM391 154h219q379 0 379 573q0 94 -11 174.5t-38 155.5t-69 127.5t-108 84t-151 31.5h-221 v-505h264v-131h-264v-510z" />
<glyph unicode="&#x111;" horiz-adv-x="1179" d="M119 508q0 249 114 385.5t306 136.5q98 0 171.5 -49t100.5 -123h4q-4 72 -4 135v166h-240v119h240v176h164v-176h172v-119h-172v-833q0 -81 10 -326h-162q-8 86 -8 147h-4q-26 -69 -97.5 -120.5t-183.5 -51.5q-176 0 -293.5 140t-117.5 393zM293 496q0 -185 70.5 -281 t193.5 -96q86 0 145.5 54.5t85 139t25.5 191.5q0 172 -66.5 277.5t-197.5 105.5q-122 0 -189 -95.5t-67 -295.5z" />
<glyph unicode="&#x112;" horiz-adv-x="1118" d="M211 0v1454h809v-158h-629v-471h510v-157h-510v-510h629v-158h-809zM365 1669v119h512v-119h-512z" />
<glyph unicode="&#x113;" horiz-adv-x="1093" d="M119 506q0 239 118 381.5t318 142.5q191 0 307.5 -133t116.5 -358q0 -45 -4 -99h-678q16 -321 264 -321q92 0 147.5 49t75.5 135l164 -31q-14 -55 -41.5 -103.5t-72 -94t-115 -72.5t-158.5 -27q-210 0 -326 142.5t-116 388.5zM291 1241v119h512v-119h-512zM299 584h502 q-3 146 -68 224.5t-182 78.5q-130 0 -197 -109q-49 -78 -55 -194z" />
<glyph unicode="&#x114;" horiz-adv-x="1118" d="M211 0v1454h809v-158h-629v-471h510v-157h-510v-510h629v-158h-809zM346 1794h88q21 -111 187 -111q165 0 186 111h88q-3 -48 -20 -85.5t-42.5 -61.5t-60.5 -39.5t-72 -22t-79 -6.5q-54 0 -99 11t-84 34.5t-63.5 67t-28.5 102.5z" />
<glyph unicode="&#x115;" horiz-adv-x="1093" d="M119 506q0 239 118 381.5t318 142.5q191 0 307.5 -133t116.5 -358q0 -45 -4 -99h-678q16 -321 264 -321q92 0 147.5 49t75.5 135l164 -31q-14 -55 -41.5 -103.5t-72 -94t-115 -72.5t-158.5 -27q-210 0 -326 142.5t-116 388.5zM274 1386h88q20 -110 187 -110 q166 0 186 110h88q-3 -48 -20 -85.5t-42.5 -61.5t-60.5 -39.5t-72 -22t-79 -6.5q-54 0 -99 11t-84 34.5t-63.5 67t-28.5 102.5zM299 584h502q-3 146 -68 224.5t-182 78.5q-130 0 -197 -109q-49 -78 -55 -194z" />
<glyph unicode="&#x116;" horiz-adv-x="1118" d="M211 0v1454h809v-158h-629v-471h510v-157h-510v-510h629v-158h-809zM528 1622v225h177v-225h-177z" />
<glyph unicode="&#x117;" horiz-adv-x="1093" d="M119 506q0 239 118 381.5t318 142.5q191 0 307.5 -133t116.5 -358q0 -45 -4 -99h-678q16 -321 264 -321q92 0 147.5 49t75.5 135l164 -31q-14 -55 -41.5 -103.5t-72 -94t-115 -72.5t-158.5 -27q-210 0 -326 142.5t-116 388.5zM299 584h502q-3 146 -68 224.5t-182 78.5 q-130 0 -197 -109q-49 -78 -55 -194zM461 1214v226h176v-226h-176z" />
<glyph unicode="&#x118;" horiz-adv-x="1118" d="M211 0v1454h809v-158h-629v-471h510v-157h-510v-510h629v-158q-139 -98 -139 -205q0 -39 25 -62.5t55 -23.5q62 0 100 47l57 -55q-65 -82 -182 -82q-82 0 -138.5 36t-56.5 114q0 40 14.5 74t44 63.5t54 48.5t64.5 45h-707z" />
<glyph unicode="&#x119;" horiz-adv-x="1093" d="M119 506q0 239 118 381.5t318 142.5q191 0 307.5 -133t116.5 -358q0 -45 -4 -99h-678q16 -321 264 -321q92 0 147.5 49t75.5 135l164 -31q-24 -89 -82.5 -163.5t-156.5 -108.5q-138 -97 -138 -205q0 -39 25 -62.5t55 -23.5q63 0 101 47l57 -55q-65 -82 -182 -82 q-82 0 -138.5 36t-56.5 114q0 64 37.5 113.5t101.5 92.5h-10q-210 0 -326 142.5t-116 388.5zM299 584h502q-3 146 -68 224.5t-182 78.5q-130 0 -197 -109q-49 -78 -55 -194z" />
<glyph unicode="&#x11a;" horiz-adv-x="1118" d="M211 0v1454h809v-158h-629v-471h510v-157h-510v-510h629v-158h-809zM313 1837l70 78l235 -170l236 170l70 -78l-306 -264z" />
<glyph unicode="&#x11b;" horiz-adv-x="1093" d="M119 506q0 239 118 381.5t318 142.5q191 0 307.5 -133t116.5 -358q0 -45 -4 -99h-678q16 -321 264 -321q92 0 147.5 49t75.5 135l164 -31q-14 -55 -41.5 -103.5t-72 -94t-115 -72.5t-158.5 -27q-210 0 -326 142.5t-116 388.5zM242 1391l69 77l236 -170l235 170l70 -77 l-305 -265zM299 584h502q-3 146 -68 224.5t-182 78.5q-130 0 -197 -109q-49 -78 -55 -194z" />
<glyph unicode="&#x11c;" horiz-adv-x="1306" d="M133 727q0 358 143 558t394 200q105 0 187.5 -33t131.5 -88.5t76.5 -120t34.5 -135.5l-176 -35q-16 124 -78.5 189t-183.5 65q-73 0 -133.5 -32.5t-109 -101.5t-75.5 -187.5t-27 -278.5q0 -162 26 -279.5t75 -186.5t112.5 -101.5t143.5 -32.5q123 0 196.5 106.5 t73.5 284.5v123h-301v154h469v-795h-113l-18 182h-4q-38 -91 -125 -152t-203 -61q-112 0 -205 46t-163 137t-109 238t-39 337zM358 1653l306 264l305 -264l-70 -78l-235 170l-236 -170z" />
<glyph unicode="&#x11d;" horiz-adv-x="1167" d="M119 508q0 247 114.5 384.5t303.5 137.5q50 0 92.5 -12t70.5 -30t51.5 -42.5t35.5 -44t22 -41.5h4q0 64 8 146h162q-10 -170 -10 -326v-649q0 -232 -92 -348q-100 -125 -314 -125q-102 0 -179 24.5t-120.5 67t-65.5 90.5t-26 104l162 23q17 -178 227 -178q141 0 199 84 q27 40 36 95t9 148q0 37 4 131h-4q-10 -26 -30 -52t-53 -53.5t-86.5 -44.5t-117.5 -17q-178 0 -290.5 140.5t-112.5 387.5zM266 1204l305 264l306 -264l-70 -78l-236 170l-235 -170zM293 508q0 -183 63.5 -284t180.5 -101q144 0 210 105.5t64 283.5q-2 174 -68 274.5 t-186 100.5q-264 0 -264 -379z" />
<glyph unicode="&#x11e;" horiz-adv-x="1306" d="M133 727q0 358 143 558t394 200q105 0 187.5 -33t131.5 -88.5t76.5 -120t34.5 -135.5l-176 -35q-16 124 -78.5 189t-183.5 65q-73 0 -133.5 -32.5t-109 -101.5t-75.5 -187.5t-27 -278.5q0 -162 26 -279.5t75 -186.5t112.5 -101.5t143.5 -32.5q123 0 196.5 106.5 t73.5 284.5v123h-301v154h469v-795h-113l-18 182h-4q-38 -91 -125 -152t-203 -61q-112 0 -205 46t-163 137t-109 238t-39 337zM385 1794h88q21 -111 186 -111q166 0 187 111h88q-4 -59 -28.5 -102.5t-63.5 -67t-84 -34.5t-99 -11q-42 0 -79 6.5t-72 22t-60.5 39.5 t-42.5 61.5t-20 85.5z" />
<glyph unicode="&#x11f;" horiz-adv-x="1167" d="M119 508q0 247 114.5 384.5t303.5 137.5q50 0 92.5 -12t70.5 -30t51.5 -42.5t35.5 -44t22 -41.5h4q0 64 8 146h162q-10 -170 -10 -326v-649q0 -232 -92 -348q-100 -125 -314 -125q-102 0 -179 24.5t-120.5 67t-65.5 90.5t-26 104l162 23q17 -178 227 -178q141 0 199 84 q27 40 36 95t9 148q0 37 4 131h-4q-10 -26 -30 -52t-53 -53.5t-86.5 -44.5t-117.5 -17q-178 0 -290.5 140.5t-112.5 387.5zM291 1386h88q20 -110 186 -110q167 0 187 110h88q-4 -59 -28.5 -102.5t-63.5 -67t-84 -34.5t-99 -11q-42 0 -79 6.5t-72 22t-60.5 39.5t-42.5 61.5 t-20 85.5zM293 508q0 -183 63.5 -284t180.5 -101q144 0 210 105.5t64 283.5q-2 174 -68 274.5t-186 100.5q-264 0 -264 -379z" />
<glyph unicode="&#x120;" horiz-adv-x="1306" d="M133 727q0 358 143 558t394 200q105 0 187.5 -33t131.5 -88.5t76.5 -120t34.5 -135.5l-176 -35q-16 124 -78.5 189t-183.5 65q-73 0 -133.5 -32.5t-109 -101.5t-75.5 -187.5t-27 -278.5q0 -162 26 -279.5t75 -186.5t112.5 -101.5t143.5 -32.5q123 0 196.5 106.5 t73.5 284.5v123h-301v154h469v-795h-113l-18 182h-4q-38 -91 -125 -152t-203 -61q-112 0 -205 46t-163 137t-109 238t-39 337zM573 1642v226h177v-226h-177z" />
<glyph unicode="&#x121;" horiz-adv-x="1167" d="M119 508q0 247 114.5 384.5t303.5 137.5q50 0 92.5 -12t70.5 -30t51.5 -42.5t35.5 -44t22 -41.5h4q0 64 8 146h162q-10 -170 -10 -326v-649q0 -232 -92 -348q-100 -125 -314 -125q-102 0 -179 24.5t-120.5 67t-65.5 90.5t-26 104l162 23q17 -178 227 -178q141 0 199 84 q27 40 36 95t9 148q0 37 4 131h-4q-10 -26 -30 -52t-53 -53.5t-86.5 -44.5t-117.5 -17q-178 0 -290.5 140.5t-112.5 387.5zM293 508q0 -183 63.5 -284t180.5 -101q144 0 210 105.5t64 283.5q-2 174 -68 274.5t-186 100.5q-264 0 -264 -379zM496 1214v226h176v-226h-176z" />
<glyph unicode="&#x122;" horiz-adv-x="1306" d="M133 727q0 358 143 558t394 200q105 0 187.5 -33t131.5 -88.5t76.5 -120t34.5 -135.5l-176 -35q-16 124 -78.5 189t-183.5 65q-73 0 -133.5 -32.5t-109 -101.5t-75.5 -187.5t-27 -278.5q0 -162 26 -279.5t75 -186.5t112.5 -101.5t143.5 -32.5q123 0 196.5 106.5 t73.5 284.5v123h-301v154h469v-795h-113l-18 182h-4q-38 -91 -125 -152t-203 -61q-112 0 -205 46t-163 137t-109 238t-39 337zM549 -152h213v-133q0 -114 -44 -163.5t-140 -71.5l-19 78q50 11 75 35.5t25 72.5h-110v182z" />
<glyph unicode="&#x123;" horiz-adv-x="1167" d="M119 508q0 247 114.5 384.5t303.5 137.5q50 0 92.5 -12t70.5 -30t51.5 -42.5t35.5 -44t22 -41.5h4q0 64 8 146h162q-10 -170 -10 -326v-649q0 -232 -92 -348q-100 -125 -314 -125q-102 0 -179 24.5t-120.5 67t-65.5 90.5t-26 104l162 23q17 -178 227 -178q141 0 199 84 q27 40 36 95t9 148q0 37 4 131h-4q-10 -26 -30 -52t-53 -53.5t-86.5 -44.5t-117.5 -17q-178 0 -290.5 140.5t-112.5 387.5zM293 508q0 -183 63.5 -284t180.5 -101q144 0 210 105.5t64 283.5q-2 174 -68 274.5t-186 100.5q-264 0 -264 -379zM444 1272v133q0 113 44 163 t141 72l18 -77q-49 -11 -74.5 -36t-25.5 -73h110v-182h-213z" />
<glyph unicode="&#x124;" horiz-adv-x="1288" d="M211 0v1454h180v-625h506v625h180v-1454h-180v666h-506v-666h-180zM338 1653l305 264l305 -264l-69 -78l-236 170l-235 -170z" />
<glyph unicode="&#x125;" horiz-adv-x="1144" d="M-29 1655l305 264l306 -264l-70 -78l-236 170l-235 -170zM195 0v1454h163v-424q0 -54 -4 -160h4q37 69 108.5 114.5t170.5 45.5q95 0 165.5 -35t108.5 -94q60 -92 60 -250v-651h-164v623q0 136 -37 188q-53 76 -168 76q-103 0 -173.5 -79t-70.5 -230v-578h-163z" />
<glyph unicode="&#x126;" horiz-adv-x="1288" d="M211 0v1454h180v-360h506v360h180v-1454h-180v666h-506v-666h-180zM391 829h506v146h-506v-146z" />
<glyph unicode="&#x127;" horiz-adv-x="1144" d="M45 1159v119h150v176h163v-176h240v-119h-240v-129q0 -54 -4 -160h4q37 69 108.5 114.5t170.5 45.5q95 0 165.5 -35t108.5 -94q60 -92 60 -250v-651h-164v623q0 136 -37 188q-53 76 -168 76q-104 0 -176 -79t-72 -230v-578h-159v1159h-150z" />
<glyph unicode="&#x128;" horiz-adv-x="610" d="M4 1653q0 91 51.5 151t137.5 60q79 0 153 -64q41 -35 90 -35q75 0 78 86h92q0 -91 -51 -151t-137 -60q-80 0 -154 64q-41 35 -90 35q-75 0 -78 -86h-92zM215 0v1454h180v-1454h-180z" />
<glyph unicode="&#x129;" horiz-adv-x="552" d="M-25 1204q0 91 51.5 151t137.5 60q80 0 153 -63q41 -35 91 -35q74 0 77 86h93q0 -91 -51.5 -151t-137.5 -60q-80 0 -153 63q-41 35 -91 35q-74 0 -77 -86h-93zM195 0v1006h163v-1006h-163z" />
<glyph unicode="&#x12a;" horiz-adv-x="610" d="M49 1669v119h512v-119h-512zM215 0v1454h180v-1454h-180z" />
<glyph unicode="&#x12b;" horiz-adv-x="552" d="M20 1241v119h512v-119h-512zM195 0v1006h163v-1006h-163z" />
<glyph unicode="&#x12c;" horiz-adv-x="610" d="M31 1794h88q21 -111 186 -111q166 0 187 111h88q-4 -59 -28.5 -102.5t-63.5 -67t-84 -34.5t-99 -11q-42 0 -79 6.5t-72 22t-60.5 39.5t-42.5 61.5t-20 85.5zM215 0v1454h180v-1454h-180z" />
<glyph unicode="&#x12d;" horiz-adv-x="552" d="M2 1386h88q20 -110 186 -110q167 0 187 110h88q-4 -59 -28.5 -102.5t-63.5 -67t-84 -34.5t-99 -11q-42 0 -79 6.5t-72 22t-60.5 39.5t-42.5 61.5t-20 85.5zM195 0v1006h163v-1006h-163z" />
<glyph unicode="&#x12e;" horiz-adv-x="610" d="M117 -231q0 40 14.5 74t43.5 63.5t53.5 48.5t64.5 45h-78v1454h180v-1454q-139 -98 -139 -205q0 -39 25 -62.5t55 -23.5q62 0 100 47l58 -55q-65 -82 -183 -82q-82 0 -138 36t-56 114z" />
<glyph unicode="&#x12f;" horiz-adv-x="552" d="M80 -231q0 40 14.5 74t43.5 63.5t53.5 48.5t64.5 45h-61v1006h163v-1006q-139 -98 -139 -205q0 -39 25 -62.5t55 -23.5q62 0 100 47l58 -55q-65 -82 -183 -82q-82 0 -138 36t-56 114zM188 1214v226h177v-226h-177z" />
<glyph unicode="&#x130;" horiz-adv-x="610" d="M215 0v1454h180v-1454h-180zM217 1642v226h176v-226h-176z" />
<glyph unicode="&#x131;" horiz-adv-x="552" d="M195 0v1006h163v-1006h-163z" />
<glyph unicode="&#x132;" horiz-adv-x="1675" d="M215 0v1454h180v-1454h-180zM662 334q0 36 2 59l178 21q-2 -18 -2 -47q0 -68 12 -109t41 -70q61 -61 180 -61q128 0 184 80q43 62 43 182v1065h181v-1048q0 -179 -66 -283q-98 -154 -352 -154q-199 0 -309 113q-92 92 -92 252z" />
<glyph unicode="&#x133;" horiz-adv-x="1120" d="M188 1214v226h177v-226h-177zM195 0v1006h163v-1006h-163zM432 -383l49 127q76 -31 140 -31q89 0 122 58q19 34 19 157v1078h164v-1092q0 -56 -3 -93.5t-19.5 -86.5t-47.5 -82q-76 -82 -215 -82q-113 0 -209 47zM756 1214v226h176v-226h-176z" />
<glyph unicode="&#x134;" horiz-adv-x="1105" d="M92 334q0 36 2 59l178 21q-2 -18 -2 -47q0 -68 12.5 -109t41.5 -70q61 -61 180 -61q128 0 184 80q43 62 43 182v1065h180v-1048q0 -181 -65 -283q-98 -154 -352 -154q-200 0 -310 113q-92 92 -92 252zM516 1653l305 264l305 -264l-69 -78l-236 170l-235 -170z" />
<glyph unicode="&#x135;" horiz-adv-x="567" d="M-121 -383l49 127q76 -31 140 -31q89 0 122 58q19 34 19 157v1078h164v-1092q0 -56 -3 -93.5t-19.5 -86.5t-47.5 -82q-76 -82 -215 -82q-113 0 -209 47zM-12 1204l305 264l305 -264l-70 -78l-235 170l-236 -170z" />
<glyph unicode="&#x136;" horiz-adv-x="1214" d="M211 0v1454h180v-690l529 690h223l-488 -612l508 -842h-215l-401 709l-156 -197v-512h-180zM508 -152h213v-133q0 -114 -44 -163.5t-140 -71.5l-19 78q50 11 75 35.5t25 72.5h-110v182z" />
<glyph unicode="&#x137;" horiz-adv-x="1073" d="M195 0v1454h163v-913l439 465h221l-389 -412l403 -594h-201l-315 477l-158 -160v-317h-163zM442 -152h213v-133q0 -114 -44 -163.5t-140 -71.5l-18 78q50 11 75 35.5t25 72.5h-111v182z" />
<glyph unicode="&#x138;" horiz-adv-x="1073" d="M195 0v1006h163v-465l347 368q55 58 104.5 77.5t157.5 19.5v-152q-56 0 -84.5 -10.5t-63.5 -48.5l-190 -201l403 -594h-201l-315 477l-158 -160v-317h-163z" />
<glyph unicode="&#x139;" horiz-adv-x="1046" d="M72 1653l409 262l76 -146l-442 -196zM211 0v1454h180v-1294h604v-160h-784z" />
<glyph unicode="&#x13a;" horiz-adv-x="552" d="M37 1651l409 262l76 -146l-442 -196zM195 0v1454h163v-1454h-163z" />
<glyph unicode="&#x13b;" horiz-adv-x="1046" d="M211 0v1454h180v-1294h604v-160h-784zM485 -152h213v-133q0 -114 -44 -163.5t-140 -71.5l-18 78q50 11 75 35.5t25 72.5h-111v182z" />
<glyph unicode="&#x13c;" horiz-adv-x="552" d="M170 -152h213v-133q0 -114 -44 -163.5t-140 -71.5l-19 78q50 11 75.5 35.5t25.5 72.5h-111v182zM195 0v1454h163v-1454h-163z" />
<glyph unicode="&#x13d;" horiz-adv-x="1046" d="M211 0v1454h180v-1294h604v-160h-784zM580 1094l102 376l154 -61l-172 -348z" />
<glyph unicode="&#x13e;" horiz-adv-x="782" d="M195 0v1454h163v-1454h-163zM526 1094l103 376l153 -61l-172 -348z" />
<glyph unicode="&#x13f;" horiz-adv-x="1046" d="M211 0v1454h180v-1294h604v-160h-784zM616 780v226h197v-226h-197z" />
<glyph unicode="&#x140;" horiz-adv-x="819" d="M195 0v1454h163v-1454h-163zM535 780v226h196v-226h-196z" />
<glyph unicode="&#x141;" horiz-adv-x="1050" d="M57 477v146l158 96v735h180v-623l381 236v-145l-381 -236v-526h604v-160h-784v573z" />
<glyph unicode="&#x142;" horiz-adv-x="561" d="M18 475v146l181 110v723h163v-623l187 115v-145l-187 -115v-686h-163v586z" />
<glyph unicode="&#x143;" horiz-adv-x="1380" d="M211 0v1454h248l436 -967q71 -161 98 -254h4q-8 230 -8 297v924h180v-1454h-247l-433 954q-62 135 -102 267h-4q8 -153 8 -297v-924h-180zM502 1653l409 262l76 -146l-442 -196z" />
<glyph unicode="&#x144;" horiz-adv-x="1153" d="M184 1006h160q8 -86 8 -142h4q92 166 308 166q81 0 150 -34.5t110 -96.5q55 -80 55 -233v-666h-164v639q0 99 -27 152q-51 94 -180 94q-65 0 -121.5 -32t-87.5 -87q-41 -73 -41 -188v-578h-163v686q0 165 -11 320zM328 1223l409 262l76 -146l-442 -196z" />
<glyph unicode="&#x145;" horiz-adv-x="1380" d="M211 0v1454h248l436 -967q71 -161 98 -254h4q-8 230 -8 297v924h180v-1454h-247l-433 954q-62 135 -102 267h-4q8 -153 8 -297v-924h-180zM604 -152h213v-133q0 -114 -44 -163.5t-140 -71.5l-19 78q50 11 75.5 35.5t25.5 72.5h-111v182z" />
<glyph unicode="&#x146;" horiz-adv-x="1153" d="M184 1006h160q8 -86 8 -142h4q92 166 308 166q81 0 150 -34.5t110 -96.5q55 -80 55 -233v-666h-164v639q0 99 -27 152q-51 94 -180 94q-65 0 -121.5 -32t-87.5 -87q-41 -73 -41 -188v-578h-163v686q0 165 -11 320zM475 -152h213v-133q0 -114 -44 -163.5t-140 -71.5 l-19 78q50 11 75.5 35.5t25.5 72.5h-111v182z" />
<glyph unicode="&#x147;" horiz-adv-x="1380" d="M211 0v1454h248l436 -967q71 -161 98 -254h4q-8 230 -8 297v924h180v-1454h-247l-433 954q-62 135 -102 267h-4q8 -153 8 -297v-924h-180zM385 1837l70 78l235 -170l236 170l69 -78l-305 -264z" />
<glyph unicode="&#x148;" horiz-adv-x="1153" d="M184 1006h160q8 -86 8 -142h4q92 166 308 166q81 0 150 -34.5t110 -96.5q55 -80 55 -233v-666h-164v639q0 99 -27 152q-51 94 -180 94q-65 0 -121.5 -32t-87.5 -87q-41 -73 -41 -188v-578h-163v686q0 165 -11 320zM276 1391l70 77l236 -170l235 170l70 -77l-305 -265z " />
<glyph unicode="&#x149;" horiz-adv-x="1153" d="M104 1006h160q8 -86 8 -142h4q92 166 308 166q81 0 150 -34.5t110 -96.5q55 -80 55 -233v-666h-164v639q0 101 -26 152q-51 94 -181 94q-65 0 -121.5 -32t-87.5 -87q-40 -71 -40 -188v-578h-164v686q0 165 -11 320zM113 1454v182h213v-133q0 -113 -44 -163t-141 -72 l-18 78q50 11 75 35.5t25 72.5h-110z" />
<glyph unicode="&#x14a;" horiz-adv-x="1380" d="M211 0v1454h180l475 -872q79 -145 123 -246h4q-4 115 -4 276v842h180v-1442q0 -217 -84.5 -326.5t-271.5 -109.5q-169 0 -295 117l107 125q84 -84 190 -84q174 0 174 252v14l-475 868q-72 133 -127 271h-4q8 -153 8 -297v-842h-180z" />
<glyph unicode="&#x14b;" horiz-adv-x="1153" d="M184 1006h160q8 -86 8 -142h4q92 166 308 166q81 0 150 -34.5t110 -96.5q55 -80 55 -233v-752q0 -56 -3 -93.5t-19.5 -86.5t-47.5 -82q-76 -82 -215 -82q-113 0 -209 47l50 127q76 -31 139 -31q90 0 123 58q18 33 18 157v711q0 99 -27 152q-51 94 -180 94 q-65 0 -121.5 -32t-87.5 -87q-41 -73 -41 -188v-578h-163v686q0 165 -11 320z" />
<glyph unicode="&#x14c;" horiz-adv-x="1306" d="M133 727q0 359 135 558.5t385 199.5t385.5 -199.5t135.5 -558.5t-135.5 -558.5t-385.5 -199.5t-385 199.5t-135 558.5zM317 727q0 -600 336 -600t336 600t-336 600t-336 -600zM397 1669v119h512v-119h-512z" />
<glyph unicode="&#x14d;" horiz-adv-x="1122" d="M123 504q0 239 120 382.5t318 143.5t318 -143.5t120 -382.5t-120 -384t-318 -145t-318 145t-120 384zM297 504q0 -184 69.5 -285.5t194.5 -101.5t194.5 101.5t69.5 285.5t-69.5 284.5t-194.5 100.5t-194.5 -100.5t-69.5 -284.5zM305 1241v119h512v-119h-512z" />
<glyph unicode="&#x14e;" horiz-adv-x="1306" d="M133 727q0 359 135 558.5t385 199.5t385.5 -199.5t135.5 -558.5t-135.5 -558.5t-385.5 -199.5t-385 199.5t-135 558.5zM317 727q0 -600 336 -600t336 600t-336 600t-336 -600zM379 1794h88q21 -111 186 -111q166 0 187 111h88q-4 -59 -28.5 -102.5t-63.5 -67t-84 -34.5 t-99 -11q-42 0 -79 6.5t-72 22t-60.5 39.5t-42.5 61.5t-20 85.5z" />
<glyph unicode="&#x14f;" horiz-adv-x="1122" d="M123 504q0 239 120 382.5t318 143.5t318 -143.5t120 -382.5t-120 -384t-318 -145t-318 145t-120 384zM287 1386h88q20 -110 186 -110q167 0 187 110h88q-4 -59 -28.5 -102.5t-63.5 -67t-84 -34.5t-99 -11q-42 0 -79 6.5t-72 22t-60.5 39.5t-42.5 61.5t-20 85.5zM297 504 q0 -184 69.5 -285.5t194.5 -101.5t194.5 101.5t69.5 285.5t-69.5 284.5t-194.5 100.5t-194.5 -100.5t-69.5 -284.5z" />
<glyph unicode="&#x150;" horiz-adv-x="1306" d="M133 727q0 359 135 558.5t385 199.5t385.5 -199.5t135.5 -558.5t-135.5 -558.5t-385.5 -199.5t-385 199.5t-135 558.5zM317 727q0 -600 336 -600t336 600t-336 600t-336 -600zM328 1651l352 266l82 -139l-387 -203zM739 1651l353 266l82 -139l-388 -203z" />
<glyph unicode="&#x151;" horiz-adv-x="1122" d="M123 504q0 239 120 382.5t318 143.5t318 -143.5t120 -382.5t-120 -384t-318 -145t-318 145t-120 384zM256 1202l352 266l82 -139l-387 -203zM297 504q0 -184 69.5 -285.5t194.5 -101.5t194.5 101.5t69.5 285.5t-69.5 284.5t-194.5 100.5t-194.5 -100.5t-69.5 -284.5z M668 1202l352 266l82 -139l-387 -203z" />
<glyph unicode="&#x152;" horiz-adv-x="1708" d="M133 727q0 357 140.5 557.5t392.5 200.5q97 0 180 -31h764v-156h-606v-473h485v-155h-485v-514h606v-156h-764q-83 -31 -180 -31q-252 0 -392.5 200.5t-140.5 557.5zM317 727q0 -162 26.5 -281t74.5 -188.5t109.5 -102t138.5 -32.5q94 0 157 27v1150q-73 31 -157 31 q-77 0 -138.5 -32.5t-109.5 -102t-74.5 -188.5t-26.5 -281z" />
<glyph unicode="&#x153;" horiz-adv-x="1794" d="M119 504q0 238 120 382t318 144q223 0 348 -194q123 194 350 194q191 0 307.5 -133t116.5 -358q0 -43 -4 -97h-678q17 -323 265 -323q86 0 146 50.5t79 133.5l160 -29q-13 -55 -41.5 -105t-74.5 -95t-117.5 -72t-158.5 -27q-228 0 -350 189q-122 -189 -348 -189 q-198 0 -318 145t-120 384zM293 504q0 -184 69.5 -285.5t194.5 -101.5t194.5 101.5t69.5 285.5t-69.5 284.5t-194.5 100.5t-194.5 -100.5t-69.5 -284.5zM999 584h502q-3 146 -68 224.5t-182 78.5q-109 0 -176 -79.5t-76 -223.5z" />
<glyph unicode="&#x154;" horiz-adv-x="1290" d="M211 0v1454h483q212 0 332 -104q123 -111 123 -297q0 -191 -98 -289q-55 -55 -150 -94l266 -670h-202l-236 631h-338v-631h-180zM385 1671l410 262l75 -145l-442 -197zM391 786h293q137 0 209 68t72 186q0 258 -283 258h-291v-512z" />
<glyph unicode="&#x155;" horiz-adv-x="808" d="M172 1223l410 262l75 -146l-442 -196zM184 1006h156q8 -94 8 -207h4q44 106 122.5 168.5t178.5 62.5q55 0 95 -12v-168q-49 14 -111 14q-51 0 -100.5 -22t-81.5 -60q-50 -59 -73.5 -145t-23.5 -236v-401h-163v686q0 133 -11 320z" />
<glyph unicode="&#x156;" horiz-adv-x="1290" d="M211 0v1454h483q212 0 332 -104q123 -111 123 -297q0 -191 -98 -289q-55 -55 -150 -94l266 -670h-202l-236 631h-338v-631h-180zM391 786h293q137 0 209 68t72 186q0 258 -283 258h-291v-512zM559 -152h213v-133q0 -114 -44 -163.5t-140 -71.5l-19 78q50 11 75.5 35.5 t25.5 72.5h-111v182z" />
<glyph unicode="&#x157;" horiz-adv-x="808" d="M172 -152h213v-133q0 -114 -44 -163.5t-140 -71.5l-19 78q50 11 75.5 35.5t25.5 72.5h-111v182zM184 1006h156q8 -94 8 -207h4q44 106 122.5 168.5t178.5 62.5q55 0 95 -12v-168q-49 14 -111 14q-51 0 -100.5 -22t-81.5 -60q-50 -59 -73.5 -145t-23.5 -236v-401h-163v686 q0 133 -11 320z" />
<glyph unicode="&#x158;" horiz-adv-x="1290" d="M211 0v1454h483q212 0 332 -104q123 -111 123 -297q0 -191 -98 -289q-55 -55 -150 -94l266 -670h-202l-236 631h-338v-631h-180zM319 1839l70 78l236 -170l235 170l70 -78l-305 -264zM391 786h293q137 0 209 68t72 186q0 258 -283 258h-291v-512z" />
<glyph unicode="&#x159;" horiz-adv-x="808" d="M121 1391l69 77l236 -170l236 170l69 -77l-305 -265zM184 1006h156q8 -94 8 -207h4q44 106 122.5 168.5t178.5 62.5q55 0 95 -12v-168q-49 14 -111 14q-51 0 -100.5 -22t-81.5 -60q-50 -59 -73.5 -145t-23.5 -236v-401h-163v686q0 133 -11 320z" />
<glyph unicode="&#x15a;" horiz-adv-x="1239" d="M131 381l180 45q7 -160 86 -229.5t232 -69.5q80 0 145 25t107.5 79.5t42.5 130.5q0 89 -52.5 151t-164.5 114l-240 114q-153 73 -224 160.5t-71 226.5q0 120 63 202t164 118.5t232 36.5q91 0 165 -20t122.5 -53.5t82.5 -79t49.5 -93.5t18.5 -100l-176 -45 q-10 125 -76 180t-194 55q-121 0 -194 -50t-73 -140q0 -86 45.5 -138t155.5 -104l240 -113q165 -76 238 -172t73 -233q0 -191 -131.5 -300.5t-358.5 -109.5q-120 0 -214 32t-152 89t-88.5 130.5t-32.5 160.5zM367 1653l409 262l76 -146l-442 -196z" />
<glyph unicode="&#x15b;" horiz-adv-x="1062" d="M123 281l172 30q12 -103 72.5 -147.5t169.5 -44.5q115 0 168 41.5t53 109.5q0 70 -44.5 102.5t-146.5 61.5l-141 39q-52 15 -86.5 27t-74.5 34.5t-63 50t-39 71t-16 98.5q0 127 98.5 201.5t280.5 74.5q176 0 270.5 -74t104.5 -192l-162 -33q-10 86 -61.5 122t-153.5 36 q-101 0 -154 -32t-53 -91q0 -60 40.5 -92t138.5 -58l147 -38q143 -37 216 -103t73 -190q0 -148 -101.5 -229t-302.5 -81q-190 0 -292 86t-113 220zM270 1223l410 262l76 -146l-443 -196z" />
<glyph unicode="&#x15c;" horiz-adv-x="1239" d="M131 381l180 45q7 -160 86 -229.5t232 -69.5q80 0 145 25t107.5 79.5t42.5 130.5q0 89 -52.5 151t-164.5 114l-240 114q-153 73 -224 160.5t-71 226.5q0 120 63 202t164 118.5t232 36.5q91 0 165 -20t122.5 -53.5t82.5 -79t49.5 -93.5t18.5 -100l-176 -45 q-10 125 -76 180t-194 55q-121 0 -194 -50t-73 -140q0 -86 45.5 -138t155.5 -104l240 -113q165 -76 238 -172t73 -233q0 -191 -131.5 -300.5t-358.5 -109.5q-120 0 -214 32t-152 89t-88.5 130.5t-32.5 160.5zM315 1653l306 264l305 -264l-70 -78l-235 170l-236 -170z" />
<glyph unicode="&#x15d;" horiz-adv-x="1062" d="M123 281l172 30q12 -103 72.5 -147.5t169.5 -44.5q115 0 168 41.5t53 109.5q0 70 -44.5 102.5t-146.5 61.5l-141 39q-52 15 -86.5 27t-74.5 34.5t-63 50t-39 71t-16 98.5q0 127 98.5 201.5t280.5 74.5q176 0 270.5 -74t104.5 -192l-162 -33q-10 86 -61.5 122t-153.5 36 q-101 0 -154 -32t-53 -91q0 -60 40.5 -92t138.5 -58l147 -38q143 -37 216 -103t73 -190q0 -148 -101.5 -229t-302.5 -81q-190 0 -292 86t-113 220zM221 1204l305 264l305 -264l-69 -78l-236 170l-235 -170z" />
<glyph unicode="&#x15e;" horiz-adv-x="1239" d="M131 381l180 45q7 -160 86 -229.5t232 -69.5q80 0 145 25t107.5 79.5t42.5 130.5q0 89 -52.5 151t-164.5 114l-240 114q-153 73 -224 160.5t-71 226.5q0 120 63 202t164 118.5t232 36.5q91 0 165 -20t122.5 -53.5t82.5 -79t49.5 -93.5t18.5 -100l-176 -45 q-10 125 -76 180t-194 55q-121 0 -194 -50t-73 -140q0 -86 45.5 -138t155.5 -104l240 -113q165 -76 238 -172t73 -233q0 -187 -125.5 -295.5t-343.5 -114.5l-49 -80l2 -2q34 15 80 15q52 0 94.5 -35.5t42.5 -93.5q0 -77 -54.5 -120.5t-162.5 -43.5q-43 0 -88 15t-74 40 l41 66q48 -39 115 -39q39 0 62.5 18.5t23.5 48.5q0 35 -19 51.5t-49 16.5q-38 0 -69 -27l-48 37l78 135q-210 13 -319.5 126t-114.5 284z" />
<glyph unicode="&#x15f;" horiz-adv-x="1062" d="M123 281l172 30q12 -103 72.5 -147.5t169.5 -44.5q115 0 168 41.5t53 109.5q0 70 -44.5 102.5t-146.5 61.5l-141 39q-52 15 -86.5 27t-74.5 34.5t-63 50t-39 71t-16 98.5q0 127 98.5 201.5t280.5 74.5q176 0 270.5 -74t104.5 -192l-162 -33q-10 86 -61.5 122t-153.5 36 q-101 0 -154 -32t-53 -91q0 -60 40.5 -92t138.5 -58l147 -38q143 -37 216 -103t73 -190q0 -143 -94.5 -223.5t-282.5 -86.5l-53 -86l2 -2q34 15 80 15q52 0 94.5 -35.5t42.5 -93.5q0 -77 -54.5 -120.5t-162.5 -43.5q-43 0 -88 15t-74 40l41 66q48 -39 115 -39 q39 0 62.5 18.5t23.5 48.5q0 35 -19 51.5t-49 16.5q-39 0 -70 -27l-47 37l80 141q-166 10 -256 94.5t-100 209.5z" />
<glyph unicode="&#x160;" horiz-adv-x="1222" d="M119 381l180 45q7 -160 85.5 -229.5t231.5 -69.5q80 0 145 25t107.5 79.5t42.5 130.5q0 89 -52.5 151t-164.5 114l-239 114q-153 73 -224 160.5t-71 226.5q0 120 62.5 202t163.5 118.5t232 36.5q91 0 165 -20t123 -53.5t83 -79t49.5 -93.5t18.5 -100l-176 -45 q-10 125 -76.5 180t-194.5 55q-121 0 -193.5 -50t-72.5 -140q0 -86 45.5 -138t155.5 -104l239 -113q166 -76 239 -172.5t73 -232.5q0 -191 -131.5 -300.5t-358.5 -109.5q-120 0 -214 32t-152 89t-88.5 130.5t-32.5 160.5zM324 1821l69 77l236 -169l235 169l70 -77l-305 -265 z" />
<glyph unicode="&#x161;" horiz-adv-x="1062" d="M123 281l172 30q12 -103 72.5 -147.5t169.5 -44.5q115 0 168 41.5t53 109.5q0 70 -44.5 102.5t-146.5 61.5l-141 39q-52 15 -86.5 27t-74.5 34.5t-63 50t-39 71t-16 98.5q0 127 98.5 201.5t280.5 74.5q176 0 270.5 -74t104.5 -192l-162 -33q-10 86 -61.5 122t-153.5 36 q-101 0 -154 -32t-53 -91q0 -60 40.5 -92t138.5 -58l147 -38q143 -37 216 -103t73 -190q0 -148 -101.5 -229t-302.5 -81q-190 0 -292 86t-113 220zM217 1391l70 77l235 -170l236 170l69 -77l-305 -265z" />
<glyph unicode="&#x162;" horiz-adv-x="1081" d="M68 1294v160h946v-160h-383v-1294h-58l-69 -111l2 -2q34 15 80 15q52 0 94.5 -35.5t42.5 -93.5q0 -77 -54.5 -120.5t-162.5 -43.5q-43 0 -88 15t-74 40l41 66q48 -39 115 -39q39 0 62.5 18.5t23.5 48.5q0 35 -19 51.5t-49 16.5q-38 0 -69 -27l-48 37l95 164h-45v1294 h-383z" />
<glyph unicode="&#x163;" horiz-adv-x="811" d="M61 862v144h209v319l164 74v-393h271v-144h-271v-528q0 -132 25 -168q34 -47 116 -47q76 0 150 31l49 -127q-98 -48 -219 -48q-7 0 -21 1t-20 1l-55 -88l2 -2q34 15 80 15q52 0 94.5 -35.5t42.5 -93.5q0 -77 -54.5 -120.5t-162.5 -43.5q-43 0 -88 15t-74 40l41 66 q48 -39 115 -39q39 0 62.5 18.5t23.5 48.5q0 35 -19 51.5t-49 16.5q-39 0 -70 -27l-47 37l88 156q-63 17 -104 65q-42 46 -56 110.5t-14 147.5v547h-209z" />
<glyph unicode="&#x164;" horiz-adv-x="1081" d="M68 1294v160h946v-160h-383v-1294h-180v1294h-383zM236 1819l69 77l236 -170l235 170l70 -77l-305 -265z" />
<glyph unicode="&#x165;" horiz-adv-x="811" d="M61 862v144h209v319l164 74v-393h271v-144h-271v-528q0 -132 25 -168q34 -47 116 -47q76 0 150 31l49 -127q-98 -48 -219 -48q-139 0 -215 82q-42 46 -56 110.5t-14 147.5v547h-209zM567 1094l103 376l153 -61l-172 -348z" />
<glyph unicode="&#x166;" horiz-adv-x="1081" d="M68 1294v160h946v-160h-383v-344h268v-119h-268v-831h-180v831h-269v119h269v344h-383z" />
<glyph unicode="&#x167;" horiz-adv-x="811" d="M27 522v119h243v221h-209v144h209v319l164 74v-393h271v-144h-271v-221h289v-119h-289v-188q0 -132 25 -168q34 -47 116 -47q76 0 150 31l49 -127q-98 -48 -219 -48q-139 0 -215 82q-42 46 -56 110.5t-14 147.5v207h-243z" />
<glyph unicode="&#x168;" horiz-adv-x="1314" d="M205 430v1024h180v-1008q0 -153 47 -223q67 -98 225 -98q159 0 226 98q47 70 47 223v1008h180v-1024q0 -205 -98 -321q-119 -140 -355 -140q-235 0 -354 140q-98 116 -98 321zM356 1618q0 91 51.5 151t137.5 60q79 0 153 -64q39 -34 90 -34q75 0 78 86h92q0 -91 -51 -151 t-137 -60q-81 0 -154 63q-41 35 -90 35q-74 0 -77 -86h-93z" />
<glyph unicode="&#x169;" horiz-adv-x="1157" d="M180 328v678h164v-646q0 -126 48.5 -183.5t156.5 -57.5q75 0 134.5 38.5t90.5 106.5q25 55 25 168v574h164v-689q0 -154 10 -317h-162q-6 87 -6 143h-4q-82 -168 -289 -168q-145 0 -238.5 91.5t-93.5 261.5zM274 1204q0 91 51.5 151t137.5 60q80 0 153 -63q41 -35 91 -35 q74 0 77 86h93q0 -91 -51.5 -151t-137.5 -60q-80 0 -153 63q-41 35 -91 35q-74 0 -77 -86h-93z" />
<glyph unicode="&#x16a;" horiz-adv-x="1314" d="M205 430v1024h180v-1008q0 -153 47 -223q67 -98 225 -98q159 0 226 98q47 70 47 223v1008h180v-1024q0 -205 -98 -321q-119 -140 -355 -140q-235 0 -354 140q-98 116 -98 321zM401 1669v119h512v-119h-512z" />
<glyph unicode="&#x16b;" horiz-adv-x="1157" d="M180 328v678h164v-646q0 -126 48.5 -183.5t156.5 -57.5q75 0 134.5 38.5t90.5 106.5q25 55 25 168v574h164v-689q0 -154 10 -317h-162q-6 87 -6 143h-4q-82 -168 -289 -168q-145 0 -238.5 91.5t-93.5 261.5zM322 1241v119h512v-119h-512z" />
<glyph unicode="&#x16c;" horiz-adv-x="1314" d="M205 430v1024h180v-1008q0 -153 47 -223q67 -98 225 -98q159 0 226 98q47 70 47 223v1008h180v-1024q0 -205 -98 -321q-119 -140 -355 -140q-235 0 -354 140q-98 116 -98 321zM383 1794h88q21 -111 186 -111q166 0 187 111h88q-4 -59 -28.5 -102.5t-63.5 -67t-84 -34.5 t-99 -11q-42 0 -79 6.5t-72 22t-60.5 39.5t-42.5 61.5t-20 85.5z" />
<glyph unicode="&#x16d;" horiz-adv-x="1157" d="M180 328v678h164v-646q0 -126 48.5 -183.5t156.5 -57.5q75 0 134.5 38.5t90.5 106.5q25 55 25 168v574h164v-689q0 -154 10 -317h-162q-6 87 -6 143h-4q-82 -168 -289 -168q-145 0 -238.5 91.5t-93.5 261.5zM299 1386h88q20 -110 186 -110q167 0 187 110h88 q-4 -59 -28.5 -102.5t-63.5 -67t-84 -34.5t-99 -11q-42 0 -79 6.5t-72 22t-60.5 39.5t-42.5 61.5t-20 85.5z" />
<glyph unicode="&#x16e;" horiz-adv-x="1314" d="M205 430v1024h180v-1008q0 -153 47 -223q67 -98 225 -98q159 0 226 98q47 70 47 223v1008h180v-1024q0 -205 -98 -321q-119 -140 -355 -140q-235 0 -354 140q-98 116 -98 321zM463 1708q0 82 57 139.5t139 57.5q83 0 141 -57.5t58 -139.5t-58.5 -140.5t-140.5 -58.5 q-80 0 -138 58.5t-58 140.5zM549 1708q0 -46 32 -78.5t78 -32.5t78.5 32.5t32.5 78.5t-32.5 78.5t-78.5 32.5t-78 -32.5t-32 -78.5z" />
<glyph unicode="&#x16f;" horiz-adv-x="1157" d="M180 328v678h164v-646q0 -126 48.5 -183.5t156.5 -57.5q75 0 134.5 38.5t90.5 106.5q25 55 25 168v574h164v-689q0 -154 10 -317h-162q-6 87 -6 143h-4q-82 -168 -289 -168q-145 0 -238.5 91.5t-93.5 261.5zM377 1321q0 82 57 139.5t139 57.5q83 0 141 -57.5t58 -139.5 t-58.5 -140.5t-140.5 -58.5q-80 0 -138 58.5t-58 140.5zM463 1321q0 -46 32 -78.5t78 -32.5t78.5 32.5t32.5 78.5t-32.5 78.5t-78.5 32.5t-78 -32.5t-32 -78.5z" />
<glyph unicode="&#x170;" horiz-adv-x="1314" d="M205 430v1024h180v-1008q0 -153 47 -223q67 -98 225 -98q159 0 226 98q47 70 47 223v1008h180v-1024q0 -205 -98 -321q-119 -140 -355 -140q-235 0 -354 140q-98 116 -98 321zM377 1649l352 266l82 -139l-387 -203zM788 1649l353 266l82 -139l-387 -203z" />
<glyph unicode="&#x171;" horiz-adv-x="1157" d="M180 328v678h164v-646q0 -126 48.5 -183.5t156.5 -57.5q75 0 134.5 38.5t90.5 106.5q25 55 25 168v574h164v-689q0 -154 10 -317h-162q-6 87 -6 143h-4q-82 -168 -289 -168q-145 0 -238.5 91.5t-93.5 261.5zM283 1202l352 266l82 -139l-387 -203zM694 1202l353 266 l81 -139l-387 -203z" />
<glyph unicode="&#x172;" horiz-adv-x="1314" d="M205 430v1024h180v-1008q0 -153 47 -223q67 -98 225 -98q159 0 226 98q47 70 47 223v1008h180v-1024q0 -205 -98 -321q-94 -110 -264 -134q-107 -86 -107 -180q0 -39 25 -62.5t55 -23.5q62 0 100 47l58 -55q-65 -82 -183 -82q-82 0 -138 36t-56 114q0 63 35 110t96 90 q-220 9 -330 140q-98 116 -98 321z" />
<glyph unicode="&#x173;" horiz-adv-x="1157" d="M180 328v678h164v-646q0 -126 48.5 -183.5t156.5 -57.5q75 0 134.5 38.5t90.5 106.5q25 55 25 168v574h164v-689q0 -154 10 -317q-139 -98 -139 -205q0 -39 24.5 -62.5t54.5 -23.5q63 0 101 47l57 -55q-65 -82 -182 -82q-82 0 -138.5 36t-56.5 114q0 40 14.5 74 t43.5 63.5t53.5 48.5t64.5 45h-59q-6 87 -6 143h-4q-82 -168 -289 -168q-145 0 -238.5 91.5t-93.5 261.5z" />
<glyph unicode="&#x174;" horiz-adv-x="1775" d="M102 1454h187l200 -946q28 -137 46 -277h4q19 138 47 277l192 946h217l197 -946q31 -149 45 -277h4q14 128 45 277l203 946h184l-334 -1454h-200l-195 887q-31 149 -57 332h-4q-23 -183 -56 -332l-190 -887h-209zM582 1653l305 264l305 -264l-70 -78l-235 170l-236 -170z " />
<glyph unicode="&#x175;" horiz-adv-x="1372" d="M82 1006h170l131 -598q30 -146 39 -218h4q7 79 35 216l127 600h200l130 -598q23 -115 34 -222h4q11 106 37 222l131 598h166l-248 -1006h-176l-135 571q-33 145 -41 240h-4q-10 -86 -45 -240l-129 -571h-186zM381 1204l305 264l305 -264l-69 -78l-236 170l-235 -170z" />
<glyph unicode="&#x176;" horiz-adv-x="1150" d="M37 1454h221l324 -627l321 627h211l-444 -825v-629h-181v629zM270 1651l305 264l306 -264l-70 -78l-236 170l-235 -170z" />
<glyph unicode="&#x177;" horiz-adv-x="974" d="M-12 -367l57 123q82 -45 154 -45q66 0 100 31q29 29 47 80l62 182l-367 1002h184l201 -578q36 -102 59 -205h4q12 51 64 205l197 578h174l-430 -1217q-37 -109 -91 -158q-67 -61 -194 -61q-110 0 -221 63zM182 1204l305 264l306 -264l-70 -78l-236 170l-235 -170z" />
<glyph unicode="&#x178;" horiz-adv-x="1150" d="M37 1454h221l324 -627l321 627h211l-444 -825v-629h-181v629zM313 1626v221h181v-221h-181zM674 1626v221h180v-221h-180z" />
<glyph unicode="&#x179;" horiz-adv-x="1157" d="M119 0v172l710 1124q-113 -2 -219 -2h-467v160h879v-172l-715 -1124q103 2 209 2h533v-160h-930zM340 1653l410 262l75 -146l-442 -196z" />
<glyph unicode="&#x17a;" horiz-adv-x="1017" d="M98 0v123l586 743q-105 -4 -199 -4h-346v144h768v-121l-583 -744q75 4 163 4h441v-145h-830zM274 1223l410 262l76 -146l-443 -196z" />
<glyph unicode="&#x17b;" horiz-adv-x="1157" d="M119 0v172l710 1124q-113 -2 -219 -2h-467v160h879v-172l-715 -1124q103 2 209 2h533v-160h-930zM510 1642v226h176v-226h-176z" />
<glyph unicode="&#x17c;" horiz-adv-x="1017" d="M98 0v123l586 743q-105 -4 -199 -4h-346v144h768v-121l-583 -744q75 4 163 4h441v-145h-830zM442 1214v226h176v-226h-176z" />
<glyph unicode="&#x17d;" horiz-adv-x="1157" d="M119 0v172l710 1124q-113 -2 -219 -2h-467v160h879v-172l-715 -1124q103 2 209 2h533v-160h-930zM299 1819l70 77l235 -170l236 170l69 -77l-305 -265z" />
<glyph unicode="&#x17e;" horiz-adv-x="1017" d="M125 0v123l586 743q-105 -4 -199 -4h-346v144h768v-121l-584 -744q76 4 164 4h440v-145h-829zM256 1391l70 77l235 -170l236 170l69 -77l-305 -265z" />
<glyph unicode="&#x17f;" horiz-adv-x="788" d="M61 862v144h209v135q0 56 3 93.5t19.5 86.5t47.5 82q76 82 215 82q113 0 209 -47l-49 -127q-75 30 -140 30q-51 0 -78.5 -14t-43.5 -43q-19 -34 -19 -158v-1126h-164v862h-209z" />
<glyph unicode="&#x192;" horiz-adv-x="1187" d="M31 -291l61 109q73 -51 148 -51q54 0 84.5 37.5t48.5 119.5l182 858h-203l27 140h203l55 284q25 134 95 206.5t208 72.5q111 0 205 -82l-62 -109q-74 52 -147 52q-55 0 -86.5 -38.5t-46.5 -119.5l-51 -266h247l-24 -140h-252l-184 -876q-14 -65 -35 -113t-56 -87t-88 -59 t-124 -20q-111 0 -205 82z" />
<glyph unicode="&#x1fa;" horiz-adv-x="1210" d="M61 0l435 1389q-88 42 -88 137q0 70 53 112.5t143 42.5t144.5 -43t54.5 -112q0 -94 -94 -137l440 -1389h-201l-88 315h-518l-90 -315h-191zM360 1716l379 230l60 -123l-398 -176zM387 475h426l-137 479q-62 211 -74 279h-4q-14 -80 -72 -281zM494 1526q0 -70 110 -70 q111 0 111 70q0 69 -111 69q-110 0 -110 -69z" />
<glyph unicode="&#x1fb;" horiz-adv-x="1107" d="M123 266q0 225 283 303q233 63 264 72q47 13 60 28.5t13 47.5v16q0 74 -44 114t-154 40q-213 0 -213 -166l-170 18q2 130 99 210.5t282 80.5q192 0 278 -80.5t86 -216.5v-467q0 -83 22 -117.5t93 -44.5l-18 -120q-121 0 -178.5 43t-75.5 141q-119 -193 -320 -193 q-137 0 -222 78.5t-85 212.5zM276 1610l410 262l76 -146l-443 -196zM297 266q0 -67 41 -108t115 -41q169 0 290 235v189q-20 -17 -71 -33q-9 -3 -101.5 -31t-136.5 -43q-74 -25 -105.5 -66.5t-31.5 -101.5zM322 1321q0 82 57 139.5t139 57.5q83 0 141 -57.5t58 -139.5 t-58.5 -140.5t-140.5 -58.5q-80 0 -138 58.5t-58 140.5zM408 1321q0 -46 32 -78.5t78 -32.5t78.5 32.5t32.5 78.5t-32.5 78.5t-78.5 32.5t-78 -32.5t-32 -78.5z" />
<glyph unicode="&#x1fc;" horiz-adv-x="1622" d="M51 0l692 1454h781v-154h-596v-475h477v-153h-477v-518h596v-154h-772v338h-353l-155 -338h-193zM469 489h283v611zM848 1653l409 262l76 -146l-442 -196z" />
<glyph unicode="&#x1fd;" horiz-adv-x="1699" d="M123 287q0 152 106 224.5t283 72.5h242v149q0 74 -45.5 114t-155.5 40q-113 0 -163 -41.5t-50 -122.5l-166 12q0 130 96 212.5t281 82.5q229 0 317 -131q118 131 299 131q190 0 304 -132.5t114 -358.5q0 -43 -4 -97h-663v-30q23 -293 256 -293q86 0 146 50.5t79 133.5 l160 -29q-11 -44 -29.5 -84t-51 -80t-74.5 -69.5t-103.5 -47.5t-133.5 -18q-128 0 -221.5 59t-142.5 173q-48 -106 -148 -169t-206 -63q-137 0 -231.5 88.5t-94.5 223.5zM295 276q0 -69 50.5 -114t127.5 -45q87 0 161 59.5t120 159.5v108h-191q-50 0 -80.5 -2t-71 -11 t-62.5 -26t-38 -49.5t-16 -79.5zM662 1223l409 262l76 -146l-442 -196zM918 584h489q-3 147 -65.5 225t-178.5 78q-110 0 -175.5 -79t-69.5 -224z" />
<glyph unicode="&#x1fe;" horiz-adv-x="1306" d="M133 104l96 132q-96 190 -96 491q0 359 135 558.5t385 199.5q234 0 369 -176l76 102l76 -55l-99 -133q99 -196 99 -496q0 -359 -135.5 -558.5t-385.5 -199.5q-236 0 -372 181l-72 -99zM317 727q0 -195 35 -326l561 760q-83 170 -260 170q-336 0 -336 -604zM391 297 q83 -174 262 -174q336 0 336 604q0 192 -37 330zM393 1653l410 262l76 -146l-443 -196z" />
<glyph unicode="&#x1ff;" horiz-adv-x="1122" d="M119 -47l121 164q-121 143 -121 385q0 239 120 383.5t318 144.5q169 0 279 -104l90 121l69 -52l-100 -135q100 -143 100 -358q0 -239 -120 -383t-318 -144q-150 0 -256 80l-113 -151zM293 502q0 -152 47 -248l401 545q-70 90 -184 90q-125 0 -194.5 -101.5t-69.5 -285.5z M307 1223l410 262l76 -146l-443 -196zM391 180q63 -63 166 -63q125 0 194.5 100.5t69.5 284.5q0 119 -33 213z" />
<glyph unicode="&#x218;" horiz-adv-x="1239" d="M131 381l180 45q7 -160 86 -229.5t232 -69.5q80 0 145 25t107.5 79.5t42.5 130.5q0 89 -52.5 151t-164.5 114l-240 114q-153 73 -224 160.5t-71 226.5q0 120 63 202t164 118.5t232 36.5q91 0 165 -20t122.5 -53.5t82.5 -79t49.5 -93.5t18.5 -100l-176 -45 q-10 125 -76 180t-194 55q-121 0 -194 -50t-73 -140q0 -86 45.5 -138t155.5 -104l240 -113q165 -76 238 -172t73 -233q0 -191 -131.5 -300.5t-358.5 -109.5q-120 0 -214 32t-152 89t-88.5 130.5t-32.5 160.5zM535 -152h213v-133q0 -113 -44 -163t-141 -72l-18 78 q50 11 75 35.5t25 72.5h-110v182z" />
<glyph unicode="&#x219;" horiz-adv-x="1062" d="M123 281l172 30q12 -103 72.5 -147.5t169.5 -44.5q115 0 168 41.5t53 109.5q0 70 -44.5 102.5t-146.5 61.5l-141 39q-52 15 -86.5 27t-74.5 34.5t-63 50t-39 71t-16 98.5q0 127 98.5 201.5t280.5 74.5q176 0 270.5 -74t104.5 -192l-162 -33q-10 86 -61.5 122t-153.5 36 q-101 0 -154 -32t-53 -91q0 -60 40.5 -92t138.5 -58l147 -38q143 -37 216 -103t73 -190q0 -148 -101.5 -229t-302.5 -81q-190 0 -292 86t-113 220zM426 -152h213v-133q0 -114 -44 -163.5t-140 -71.5l-19 78q50 11 75.5 35.5t25.5 72.5h-111v182z" />
<glyph unicode="&#x21a;" horiz-adv-x="1081" d="M68 1294v160h946v-160h-383v-1294h-180v1294h-383zM434 -152h213v-133q0 -114 -44 -163.5t-140 -71.5l-19 78q50 11 75.5 35.5t25.5 72.5h-111v182z" />
<glyph unicode="&#x21b;" horiz-adv-x="811" d="M61 862v144h209v319l164 74v-393h271v-144h-271v-528q0 -132 25 -168q34 -47 116 -47q76 0 150 31l49 -127q-98 -48 -219 -48q-139 0 -215 82q-42 46 -56 110.5t-14 147.5v547h-209zM299 -152h213v-133q0 -114 -44 -163.5t-140 -71.5l-19 78q50 11 75.5 35.5t25.5 72.5 h-111v182z" />
<glyph unicode="&#x2c6;" horiz-adv-x="450" d="M-80 1204l305 264l305 -264l-69 -78l-236 170l-235 -170z" />
<glyph unicode="&#x2c7;" horiz-adv-x="450" d="M-80 1391l70 77l235 -170l236 170l69 -77l-305 -265z" />
<glyph unicode="&#x2d8;" horiz-adv-x="450" d="M-49 1386h88q20 -110 186 -110q167 0 187 110h88q-4 -59 -28.5 -102.5t-63.5 -67t-84 -34.5t-99 -11q-42 0 -79 6.5t-72 22t-60.5 39.5t-42.5 61.5t-20 85.5z" />
<glyph unicode="&#x2d9;" horiz-adv-x="450" d="M137 1214v226h176v-226h-176z" />
<glyph unicode="&#x2da;" horiz-adv-x="450" d="M29 1321q0 82 57 139.5t139 57.5q83 0 141 -57.5t58 -139.5t-58.5 -140.5t-140.5 -58.5q-80 0 -138 58.5t-58 140.5zM115 1321q0 -46 32 -78.5t78 -32.5t78.5 32.5t32.5 78.5t-32.5 78.5t-78.5 32.5t-78 -32.5t-32 -78.5z" />
<glyph unicode="&#x2db;" horiz-adv-x="450" d="M29 -231q0 40 14.5 74t43.5 63.5t53.5 48.5t64.5 45h102q-139 -98 -139 -205q0 -39 25 -62.5t55 -23.5q62 0 100 47l58 -55q-65 -82 -183 -82q-82 0 -138 36t-56 114z" />
<glyph unicode="&#x2dc;" horiz-adv-x="450" d="M-76 1204q0 91 51.5 151t137.5 60q80 0 153 -63q41 -35 90 -35q75 0 78 86h92q0 -91 -51 -151t-137 -60q-81 0 -154 63q-41 35 -90 35q-75 0 -78 -86h-92z" />
<glyph unicode="&#x2dd;" horiz-adv-x="450" d="M-137 1202l352 266l82 -139l-387 -203zM274 1202l353 266l82 -139l-387 -203z" />
<glyph unicode="&#x394;" horiz-adv-x="1300" d="M61 -2l523 1456h125l530 -1456h-1178zM272 139h756l-381 1080z" />
<glyph unicode="&#x3a9;" horiz-adv-x="1277" d="M133 885q0 282 134.5 441t371.5 159t371.5 -159t134.5 -441q0 -415 -295 -555v-201h262v-129h-399v406q141 51 204.5 157.5t63.5 313.5q0 241 -90.5 356t-251.5 115t-251.5 -115t-90.5 -356q0 -207 63.5 -313.5t204.5 -157.5v-406h-399v129h262v201q-295 140 -295 555z " />
<glyph unicode="&#x3bc;" horiz-adv-x="1157" d="M184 -410v1416h164v-648q0 -124 51 -182.5t154 -58.5q75 0 134.5 38.5t90.5 106.5q25 55 25 168v576h164v-691q0 -152 10 -315h-162q-4 86 -6 141h-4q-82 -168 -268 -168q-63 0 -115.5 26t-73.5 60h-4q4 -131 4 -260v-209h-164z" />
<glyph unicode="&#x3c0;" horiz-adv-x="1214" d="M82 872v134h1036v-134h-209v-655q0 -70 19 -94.5t67 -24.5q45 0 99 25l49 -103q-78 -43 -160 -43q-103 0 -162 61t-59 165v669h-334v-872h-147v872h-199z" />
<glyph unicode="&#x1e80;" horiz-adv-x="1775" d="M102 1454h187l200 -946q28 -137 46 -277h4q19 138 47 277l192 946h217l197 -946q31 -149 45 -277h4q14 128 45 277l203 946h184l-334 -1454h-200l-195 887q-31 149 -57 332h-4q-23 -183 -56 -332l-190 -887h-209zM643 1769l76 146l409 -262l-43 -80z" />
<glyph unicode="&#x1e81;" horiz-adv-x="1372" d="M82 1006h170l131 -598q30 -146 39 -218h4q7 79 35 216l127 600h200l130 -598q23 -115 34 -222h4q11 106 37 222l131 598h166l-248 -1006h-176l-135 571q-33 145 -41 240h-4q-10 -86 -45 -240l-129 -571h-186zM446 1339l76 146l410 -262l-43 -80z" />
<glyph unicode="&#x1e82;" horiz-adv-x="1775" d="M102 1454h187l200 -946q28 -137 46 -277h4q19 138 47 277l192 946h217l197 -946q31 -149 45 -277h4q14 128 45 277l203 946h184l-334 -1454h-200l-195 887q-31 149 -57 332h-4q-23 -183 -56 -332l-190 -887h-209zM643 1653l410 262l75 -146l-442 -196z" />
<glyph unicode="&#x1e83;" horiz-adv-x="1372" d="M82 1006h170l131 -598q30 -146 39 -218h4q7 79 35 216l127 600h200l130 -598q23 -115 34 -222h4q11 106 37 222l131 598h166l-248 -1006h-176l-135 571q-33 145 -41 240h-4q-10 -86 -45 -240l-129 -571h-186zM442 1223l410 262l76 -146l-443 -196z" />
<glyph unicode="&#x1e84;" horiz-adv-x="1775" d="M102 1454h187l200 -946q28 -137 46 -277h4q19 138 47 277l192 946h217l197 -946q31 -149 45 -277h4q14 128 45 277l203 946h184l-334 -1454h-200l-195 887q-31 149 -57 332h-4q-23 -183 -56 -332l-190 -887h-209zM616 1645v221h181v-221h-181zM977 1645v221h180v-221 h-180z" />
<glyph unicode="&#x1e85;" horiz-adv-x="1372" d="M82 1006h170l131 -598q30 -146 39 -218h4q7 79 35 216l127 600h200l130 -598q23 -115 34 -222h4q11 106 37 222l131 598h166l-248 -1006h-176l-135 571q-33 145 -41 240h-4q-10 -86 -45 -240l-129 -571h-186zM416 1196v221h180v-221h-180zM776 1196v221h180v-221h-180z " />
<glyph unicode="&#x1ef2;" horiz-adv-x="1150" d="M37 1454h221l324 -627l321 627h211l-444 -825v-629h-181v629zM334 1788l76 145l409 -262l-43 -80z" />
<glyph unicode="&#x1ef3;" horiz-adv-x="974" d="M-12 -367l57 123q82 -45 154 -45q66 0 100 31q29 29 47 80l62 182l-367 1002h184l201 -578q36 -102 59 -205h4q12 51 64 205l197 578h174l-430 -1217q-37 -109 -91 -158q-67 -61 -194 -61q-110 0 -221 63zM250 1339l76 146l409 -262l-43 -80z" />
<glyph unicode="&#x2000;" horiz-adv-x="973" />
<glyph unicode="&#x2001;" horiz-adv-x="1946" />
<glyph unicode="&#x2002;" horiz-adv-x="1024" />
<glyph unicode="&#x2003;" horiz-adv-x="2048" />
<glyph unicode="&#x2004;" horiz-adv-x="681" />
<glyph unicode="&#x2005;" horiz-adv-x="512" />
<glyph unicode="&#x2006;" horiz-adv-x="324" />
<glyph unicode="&#x2007;" horiz-adv-x="324" />
<glyph unicode="&#x2008;" horiz-adv-x="243" />
<glyph unicode="&#x2009;" horiz-adv-x="272" />
<glyph unicode="&#x200a;" horiz-adv-x="153" />
<glyph unicode="&#x2010;" horiz-adv-x="940" d="M164 514v148h612v-148h-612z" />
<glyph unicode="&#x2011;" horiz-adv-x="940" d="M164 514v148h612v-148h-612z" />
<glyph unicode="&#x2012;" horiz-adv-x="940" d="M164 514v148h612v-148h-612z" />
<glyph unicode="&#x2013;" horiz-adv-x="1433" d="M205 514v148h1024v-148h-1024z" />
<glyph unicode="&#x2014;" horiz-adv-x="2048" d="M266 514v148h1516v-148h-1516z" />
<glyph unicode="&#x2018;" horiz-adv-x="686" d="M238 983v199q0 163 51 221q50 59 153 70v-80q-65 -9 -86 -47q-18 -33 -18 -127v-17h113v-219h-213z" />
<glyph unicode="&#x2019;" horiz-adv-x="686" d="M236 1235v219h213v-199q0 -161 -52 -221q-27 -32 -62.5 -47.5t-90.5 -21.5v79q64 9 86 48q18 33 18 127v16h-112z" />
<glyph unicode="&#x201a;" horiz-adv-x="686" d="M236 0v219h213v-199q0 -161 -52 -221q-27 -32 -62.5 -47.5t-90.5 -21.5v80q65 9 86 47q18 33 18 127v16h-112z" />
<glyph unicode="&#x201c;" horiz-adv-x="976" d="M205 983v199q0 163 51 221q50 58 154 70v-80q-65 -9 -86 -47q-19 -34 -19 -127v-17h113v-219h-213zM559 983v199q0 163 51 221q50 58 154 70v-80q-65 -9 -86 -47q-19 -34 -19 -127v-17h113v-219h-213z" />
<glyph unicode="&#x201d;" horiz-adv-x="976" d="M205 1235v219h213v-199q0 -163 -51 -221q-27 -32 -63 -47.5t-91 -21.5v79q64 9 86 48q18 33 18 127v16h-112zM559 1235v219h213v-199q0 -163 -51 -221q-27 -32 -63 -47.5t-91 -21.5v79q64 9 86 48q19 34 19 127v16h-113z" />
<glyph unicode="&#x201e;" horiz-adv-x="976" d="M205 0v219h213v-199q0 -163 -51 -221q-27 -32 -63 -47.5t-91 -21.5v80q65 9 86 47q18 33 18 127v16h-112zM559 0v219h213v-199q0 -163 -51 -221q-27 -32 -63 -47.5t-91 -21.5v80q65 9 86 47q19 34 19 127v16h-113z" />
<glyph unicode="&#x2020;" horiz-adv-x="1048" d="M82 868v138l371 -5v449h143v-449q254 5 371 5v-138l-371 4v-1048h-143v1048q-219 -4 -371 -4z" />
<glyph unicode="&#x2021;" horiz-adv-x="1048" d="M82 0v137l371 -4v739q-219 -4 -371 -4v138l371 -5v449h143v-449q254 5 371 5v-138l-371 4v-739q219 4 371 4v-137l-371 4v-448h-143v448q-219 -4 -371 -4z" />
<glyph unicode="&#x2022;" horiz-adv-x="1024" d="M160 741q0 146 103.5 248.5t248.5 102.5t247.5 -103t102.5 -248t-102 -248.5t-248 -103.5t-249 103t-103 249z" />
<glyph unicode="&#x2026;" horiz-adv-x="2048" d="M236 0v219h213v-219h-213zM918 0v219h212v-219h-212zM1599 0v219h213v-219h-213z" />
<glyph unicode="&#x202f;" horiz-adv-x="389" />
<glyph unicode="&#x2030;" horiz-adv-x="2623" d="M225 1051q0 192 83.5 288.5t207.5 96.5t207.5 -96.5t83.5 -288.5t-83.5 -290.5t-207.5 -98.5t-207.5 98.5t-83.5 290.5zM358 1051q0 -271 158 -271t158 271q0 268 -158 268t-158 -268zM477 18l856 1452l109 -63l-854 -1450zM1112 377q0 192 83.5 288.5t207.5 96.5 t207.5 -96.5t83.5 -288.5t-83.5 -290.5t-207.5 -98.5t-207.5 98.5t-83.5 290.5zM1245 377q0 -271 158 -271t158 271q0 268 -158 268t-158 -268zM1817 377q0 192 83 288.5t207 96.5t207.5 -96.5t83.5 -288.5t-83.5 -290.5t-207.5 -98.5t-207 98.5t-83 290.5zM1950 377 q0 -271 157 -271q158 0 158 271q0 268 -158 268q-157 0 -157 -268z" />
<glyph unicode="&#x2039;" horiz-adv-x="622" d="M102 516l299 402l95 -66l-238 -336l238 -336l-95 -65z" />
<glyph unicode="&#x203a;" horiz-adv-x="622" d="M127 180l238 336l-238 336l94 66l299 -402l-299 -401z" />
<glyph unicode="&#x2044;" horiz-adv-x="366" d="M-299 18l856 1452l109 -63l-854 -1450z" />
<glyph unicode="&#x205f;" horiz-adv-x="486" />
<glyph unicode="&#x20ac;" horiz-adv-x="1187" d="M68 565l26 111h121v35q0 59 2 88h-145l26 110h127q31 274 152.5 425t343.5 151q77 0 140.5 -19.5t107 -51.5t77 -77.5t53 -93t31.5 -102.5l-178 -35q-39 223 -235 223q-263 0 -309 -420h497l-26 -110h-480v-80v-43h459l-27 -111h-428q16 -211 89.5 -324.5t222.5 -113.5 q104 0 164 58.5t82 172.5l174 -34q-9 -54 -28 -102.5t-53.5 -95t-81 -80.5t-114.5 -54.5t-149 -20.5q-220 0 -342 156t-146 438h-153z" />
<glyph unicode="&#x2113;" horiz-adv-x="819" d="M45 408q92 72 170 145v569q0 157 61 240q39 53 97.5 83t126.5 30q126 0 189 -76.5t63 -194.5q0 -309 -394 -674v-215q0 -90 27 -143q40 -72 133 -72q70 0 144 41l49 -98q-97 -63 -211 -63q-140 0 -215 81q-44 47 -57 111.5t-13 151.5v82q-66 -55 -104 -84zM358 698 q260 288 260 498q0 58 -32.5 101.5t-89.5 43.5q-58 0 -99 -47q-39 -45 -39 -170v-426z" />
<glyph unicode="&#x2116;" horiz-adv-x="2048" d="M211 0v1454h248l436 -967q71 -161 98 -254h4q-8 230 -8 297v924h180v-1454h-247l-433 954q-62 135 -102 267h-4q8 -153 8 -297v-924h-180zM1333 616v121h551v-121h-551zM1333 1157q0 143 77 226t200 83q122 0 198 -82.5t76 -226.5q0 -143 -75.5 -225t-198.5 -82t-200 82 t-77 225zM1468 1157q0 -90 38.5 -139t103.5 -49q63 0 101 49t38 139t-38 140.5t-101 50.5q-64 0 -103 -50.5t-39 -140.5z" />
<glyph unicode="&#x2117;" horiz-adv-x="1765" d="M123 727q0 208 100.5 381.5t275 274t384.5 100.5q157 0 298 -59t242 -160t160 -241t59 -296t-59 -296t-160 -241t-242 -160t-298 -59q-210 0 -384.5 100.5t-275 274t-100.5 381.5zM233 727q0 -133 50.5 -254t137 -209t207.5 -140t255 -52q179 0 328.5 88t235 238.5 t85.5 328.5t-85.5 328.5t-235 238.5t-328.5 88q-134 0 -255 -52t-207.5 -140t-137 -209t-50.5 -254zM647 270v926h309q125 0 210 -69.5t85 -184.5q0 -121 -75 -196.5t-207 -75.5h-199v-400h-123zM770 778h174q184 0 184 158q0 72 -46.5 111.5t-131.5 39.5h-180v-309z" />
<glyph unicode="&#x2122;" horiz-adv-x="1730" d="M164 1358v96h569v-96h-231v-707h-111v707h-227zM834 651v803h145l158 -504q36 -125 43 -153h4q16 65 41 153l153 504h148v-803h-103v445q0 118 4 202h-4q-35 -126 -59 -198l-145 -449h-74l-152 449q-36 110 -61 203h-4q4 -88 4 -207v-445h-98z" />
<glyph unicode="&#x2126;" horiz-adv-x="1277" d="M133 885q0 282 134.5 441t371.5 159t371.5 -159t134.5 -441q0 -415 -295 -555v-201h262v-129h-399v406q141 51 204.5 157.5t63.5 313.5q0 241 -90.5 356t-251.5 115t-251.5 -115t-90.5 -356q0 -207 63.5 -313.5t204.5 -157.5v-406h-399v129h262v201q-295 140 -295 555z " />
<glyph unicode="&#x212e;" d="M172 504q0 150 61 271.5t176.5 193t264.5 71.5q223 0 362.5 -149.5t141.5 -386.5h-787v-354q112 -115 283 -115q123 0 214.5 55.5t162.5 177.5l67 -39q-91 -140 -192 -201t-252 -61q-149 0 -264.5 72t-176.5 193.5t-61 271.5zM391 573h567v285q-120 117 -286 117 q-167 0 -281 -117v-285z" />
<glyph unicode="&#x2190;" horiz-adv-x="1699" d="M123 727l571 479l88 -106l-231 -195q-51 -42 -141 -110q118 4 243 4h924v-146h-924q-125 0 -243 4q69 -49 141 -108l231 -195l-88 -106z" />
<glyph unicode="&#x2191;" horiz-adv-x="1699" d="M371 883l479 571l479 -571l-106 -88l-195 231q-42 51 -110 141q4 -118 4 -243v-924h-146v924q0 125 4 243q-49 -69 -108 -141l-195 -231z" />
<glyph unicode="&#x2192;" horiz-adv-x="1699" d="M123 653v146h924q125 0 243 -4q-90 68 -141 110l-231 195l88 106l571 -479l-571 -479l-88 106l231 195q72 59 141 108q-118 -4 -243 -4h-924z" />
<glyph unicode="&#x2193;" horiz-adv-x="1699" d="M371 571l106 88l195 -231q59 -72 108 -141q-4 118 -4 243v924h146v-924q0 -125 -4 -243q68 90 110 141l195 231l106 -88l-479 -571z" />
<glyph unicode="&#x2196;" horiz-adv-x="1699" d="M336 1241l743 -65l-14 -138l-301 27l-178 20q67 -58 176 -167l653 -654l-102 -102l-654 651q-47 47 -170 176q13 -77 23 -176l27 -301l-138 -14z" />
<glyph unicode="&#x2197;" horiz-adv-x="1699" d="M285 264l653 654q108 109 176 167l-178 -20l-301 -27l-14 138l743 65l-66 -743l-137 14l27 301q12 116 22 176q-123 -129 -170 -176l-653 -651z" />
<glyph unicode="&#x2198;" horiz-adv-x="1699" d="M285 1190l102 102l653 -653q116 -116 168 -176l-20 178l-27 301l137 14l66 -743l-743 66l14 137l301 -27q116 -12 176 -22q-129 123 -176 170z" />
<glyph unicode="&#x2199;" horiz-adv-x="1699" d="M336 213l65 743l138 -14l-27 -301l-20 -178q58 68 167 176l654 653l102 -102l-651 -653q-47 -47 -176 -170q60 10 176 22l301 27l14 -137z" />
<glyph unicode="&#x21a4;" horiz-adv-x="1699" d="M123 727l571 479l88 -106l-231 -195q-51 -42 -141 -110q118 4 243 4h777v387h147v-920h-147v387h-777q-125 0 -243 4q69 -49 141 -108l231 -195l-88 -106z" />
<glyph unicode="&#x21a5;" horiz-adv-x="1699" d="M371 883l479 571l479 -571l-106 -88l-195 231q-42 51 -110 141q4 -118 4 -243v-777h387v-147h-920v147h387v777q0 125 4 243q-49 -69 -108 -141l-195 -231z" />
<glyph unicode="&#x21a6;" horiz-adv-x="1699" d="M123 266v920h147v-387h777q125 0 243 -4q-90 68 -141 110l-231 195l88 106l571 -479l-571 -479l-88 106l231 195q72 59 141 108q-118 -4 -243 -4h-777v-387h-147z" />
<glyph unicode="&#x21a7;" horiz-adv-x="1699" d="M371 571l106 88l195 -231q59 -72 108 -141q-4 118 -4 243v777h-387v147h920v-147h-387v-777q0 -125 -4 -243q68 90 110 141l195 231l106 -88l-479 -571z" />
<glyph unicode="&#x21b0;" horiz-adv-x="1699" d="M123 727l571 479l88 -106l-231 -195q-51 -42 -141 -110q118 4 243 4h924v-533h-147v387h-777q-125 0 -243 4q69 -49 141 -108l231 -195l-88 -106z" />
<glyph unicode="&#x21b1;" horiz-adv-x="1699" d="M123 266v533h924q125 0 243 -4q-90 68 -141 110l-231 195l88 106l571 -479l-571 -479l-88 106l231 195q72 59 141 108q-118 -4 -243 -4h-777v-387h-147z" />
<glyph unicode="&#x21b2;" horiz-adv-x="1699" d="M123 727l571 479l88 -106l-231 -195q-72 -59 -141 -108q118 4 243 4h777v387h147v-533h-924q-125 0 -243 4q90 -68 141 -110l231 -195l-88 -106z" />
<glyph unicode="&#x21b3;" horiz-adv-x="1699" d="M123 655v533h147v-387h777q125 0 243 -4q-69 49 -141 108l-231 195l88 106l571 -479l-571 -479l-88 106l231 195q51 42 141 110q-118 -4 -243 -4h-924z" />
<glyph unicode="&#x21b4;" horiz-adv-x="1699" d="M371 571l106 88l195 -231q59 -72 108 -141q-4 118 -4 243v777h-387v147h533v-924q0 -125 -4 -243q68 90 110 141l195 231l106 -88l-479 -571z" />
<glyph unicode="&#x21b5;" horiz-adv-x="1699" d="M123 727l571 479l88 -106l-231 -195q-72 -59 -141 -108q118 4 243 4h777v387h147v-533h-924q-125 0 -243 4q90 -68 141 -110l231 -195l-88 -106z" />
<glyph unicode="&#x2202;" horiz-adv-x="1200" d="M168 412q0 217 116 356t304 139q157 0 282 -129q-4 170 -36 301q-66 269 -263 269q-97 0 -211 -91l-84 105q142 119 295 119q193 0 293 -123q89 -108 129.5 -296t40.5 -386q0 -208 -39 -342q-23 -80 -57.5 -143t-73.5 -104t-86 -68t-95 -38.5t-101 -11.5 q-187 0 -300.5 123.5t-113.5 319.5zM328 418q0 -148 67.5 -231t179.5 -83q138 0 216.5 129.5t78.5 360.5q-36 81 -114 131.5t-148 50.5q-129 0 -204.5 -95.5t-75.5 -262.5z" />
<glyph unicode="&#x2206;" horiz-adv-x="1300" d="M61 -2l523 1456h125l530 -1456h-1178zM272 139h756l-381 1080z" />
<glyph unicode="&#x220f;" horiz-adv-x="1343" d="M205 -442v2162h934v-2162h-158v2025h-619v-2025h-157z" />
<glyph unicode="&#x2211;" horiz-adv-x="1050" d="M102 -309l553 948l-553 954v127h846v-137h-663l549 -944l-549 -944h663v-137h-846v133z" />
<glyph unicode="&#x2212;" d="M180 461v127h971v-127h-971z" />
<glyph unicode="&#x2219;" horiz-adv-x="548" d="M168 428v219h213v-219h-213z" />
<glyph unicode="&#x221a;" horiz-adv-x="1124" d="M20 293l248 123l293 -602l406 1906h153l-469 -2158h-119l-339 680l-119 -56z" />
<glyph unicode="&#x221e;" horiz-adv-x="1327" d="M123 530q0 123 67.5 205t169.5 82q43 0 85.5 -17t82 -50.5t70 -66t68.5 -79.5q39 51 65 80.5t65 65t79.5 52.5t85.5 17q107 0 175 -79.5t68 -207.5q0 -125 -66.5 -205.5t-170.5 -80.5q-61 0 -118.5 31t-94 67.5t-88.5 99.5q-38 -46 -66.5 -76t-67 -61t-79.5 -46t-86 -15 q-107 0 -175.5 77.5t-68.5 206.5zM244 528q0 -79 31 -121t92 -42q59 0 112.5 42t118.5 119l-20 23q-38 44 -66.5 71.5t-71.5 52.5t-82 25q-55 0 -84.5 -48t-29.5 -122zM729 526q64 -74 121 -117.5t117 -43.5q58 0 87 43.5t29 119.5q0 79 -29.5 125.5t-88.5 46.5 q-40 0 -87 -30.5t-77.5 -62.5t-71.5 -81z" />
<glyph unicode="&#x2224;" horiz-adv-x="548" d="M168 428v219h213v-219h-213z" />
<glyph unicode="&#x2227;" horiz-adv-x="548" d="M168 428v219h213v-219h-213z" />
<glyph unicode="&#x222b;" horiz-adv-x="1034" d="M170 -360l66 96q55 -49 116 -49q44 0 65 24t21 84v1696q0 112 56 170.5t157 58.5q67 0 114.5 -22t90.5 -64l-65 -96q-55 49 -117 49q-44 0 -65 -24t-21 -84v-1696q0 -112 -56 -170.5t-157 -58.5q-67 0 -114.5 22t-90.5 64z" />
<glyph unicode="&#x2248;" d="M180 281q0 104 68.5 165.5t181.5 61.5q66 0 120 -18.5t155 -75.5q89 -50 125 -63t83 -13q61 0 89 28.5t28 75.5h123q0 -104 -68.5 -165.5t-181.5 -61.5q-66 0 -119 18.5t-155 75.5q-89 50 -125.5 63t-83.5 13q-61 0 -89 -28.5t-28 -75.5h-123zM180 604q0 104 68.5 165.5 t181.5 61.5q66 0 120 -18.5t155 -75.5q88 -50 124.5 -62.5t83.5 -12.5q61 0 89 28.5t28 75.5h123q0 -104 -68.5 -165.5t-181.5 -61.5q-66 0 -119 18.5t-155 75.5q-89 50 -125.5 63t-83.5 13q-61 0 -89 -29t-28 -76h-123z" />
<glyph unicode="&#x2260;" d="M180 299v127h373l84 197h-457v127h512l115 268l117 -51l-95 -217h322v-127h-375l-86 -197h461v-127h-514l-115 -268l-114 53l92 215h-320z" />
<glyph unicode="&#x2264;" d="M180 -59v127h971v-127h-971zM180 555v90l934 389l51 -116l-620 -250q-96 -39 -197 -66v-4q101 -27 197 -66l620 -249l-51 -117z" />
<glyph unicode="&#x2265;" d="M166 283l620 249q96 39 197 66v4q-101 27 -197 66l-620 250l51 116l934 -389v-90l-934 -389zM180 -59v127h971v-127h-971z" />
<glyph unicode="&#x22c5;" horiz-adv-x="548" d="M168 428v219h213v-219h-213z" />
<glyph unicode="&#x25ca;" horiz-adv-x="1220" d="M184 731l342 774h162l346 -776l-346 -774h-162zM350 729l258 -604l262 606l-262 602z" />
<glyph unicode="&#xe000;" horiz-adv-x="1003" d="M0 0v1004h1004v-1004h-1004z" />
<glyph unicode="&#xf8ff;" horiz-adv-x="1685" d="M82 739q0 155 60 296t162 243t242.5 162.5t295.5 60.5t296 -60.5t243 -162.5t162.5 -243t60.5 -296t-60.5 -295.5t-162.5 -242t-243 -161.5t-296 -60t-295.5 60t-242.5 161.5t-162 242t-60 295.5z" />
<glyph horiz-adv-x="1253" d="M139 707q0 343 125 536t363 193t362.5 -193t124.5 -536t-125 -537.5t-362 -194.5t-362.5 194.5t-125.5 537.5zM319 707q0 -290 79.5 -435t228.5 -145t228 145t79 435t-79 433.5t-228 143.5t-228.5 -143.5t-79.5 -433.5z" />
<glyph horiz-adv-x="956" d="M82 1004q270 196 475 407h154v-1411h-176v1176q-142 -139 -359 -295z" />
<glyph horiz-adv-x="1110" d="M123 0v156q152 122 455 438q60 62 103 123t63.5 104t32 90.5t13 71t1.5 57.5q0 113 -60.5 178.5t-173.5 65.5q-122 0 -187 -77t-65 -220l-180 17q0 189 114 310.5t318 121.5q194 0 304 -112t110 -277q0 -136 -57.5 -260.5t-211.5 -288.5q-181 -190 -370 -351q210 5 254 5 h375v-152h-838z" />
<glyph horiz-adv-x="1202" d="M139 393l178 25q6 -150 75 -222.5t208 -72.5q125 0 204 76.5t79 212.5q0 74 -23.5 128t-58.5 84t-88 48t-99.5 23t-105.5 5h-62v144h62q332 0 332 237q0 95 -62.5 149t-169.5 54q-109 0 -176.5 -50t-77.5 -159l-178 21q11 154 127.5 247t312.5 93q181 0 291.5 -98 t110.5 -244q0 -249 -248 -314v-4q37 -5 74 -18.5t77.5 -41.5t71 -66.5t50.5 -97.5t20 -130q0 -206 -124 -328.5t-347 -122.5q-114 0 -201.5 33t-141 91.5t-81 133.5t-29.5 164z" />
<glyph horiz-adv-x="1159" d="M113 309v176l592 926h145v-950h217v-152h-217v-309h-176v309h-561zM276 461h398v631z" />
<glyph horiz-adv-x="1220" d="M143 350l179 35q15 -125 93 -193.5t199 -68.5q131 0 212 91.5t81 260.5q0 150 -72.5 241t-209.5 91q-101 0 -175 -48t-116 -136h-150l39 788h764v-151h-612l-27 -429q109 130 309 130q192 0 311 -132.5t119 -339.5q0 -240 -127.5 -379t-349.5 -139q-183 0 -310.5 102.5 t-156.5 276.5z" />
<glyph horiz-adv-x="1204" d="M143 672q0 367 152 575q65 91 158 140t204 49q78 0 142 -20.5t106.5 -54t73 -80t46.5 -95.5t22 -103l-179 -20q-14 118 -64 169.5t-155 51.5q-134 0 -223 -133q-104 -153 -104 -418q48 81 135 131.5t198 50.5q194 0 312 -124t118 -318q0 -143 -50 -253.5t-156 -177.5 t-256 -67q-135 0 -237 61t-161 175q-82 160 -82 461zM340 453q0 -154 82.5 -240t210.5 -86q121 0 196.5 83.5t75.5 238.5q0 147 -72.5 231t-203.5 84q-119 0 -204 -87t-85 -224z" />
<glyph horiz-adv-x="1011" d="M61 1260v151h879l-2 -141q-220 -263 -330.5 -575t-134.5 -695h-184q31 385 141 683t328 577h-697z" />
<glyph horiz-adv-x="1232" d="M143 397q0 83 28 152.5t72 112.5t90.5 69t90.5 33v4q-90 26 -155.5 105.5t-65.5 199.5q0 159 117 261t296 102t296.5 -102t117.5 -261q0 -120 -66 -200.5t-155 -106.5v-4q44 -7 90.5 -32.5t90.5 -68.5t72 -112t28 -152q0 -187 -130.5 -304.5t-343.5 -117.5t-343 117.5 t-130 304.5zM324 406q0 -126 82 -202.5t210 -76.5t210.5 76.5t82.5 202.5q0 124 -79 199t-214 75t-213.5 -75t-78.5 -199zM381 1063q0 -102 61.5 -168t173.5 -66t174 66t62 168q0 104 -63.5 163.5t-172.5 59.5t-172 -59.5t-63 -163.5z" />
<glyph horiz-adv-x="1204" d="M119 977q0 200 126.5 329.5t332.5 129.5q234 0 356 -158q65 -83 96 -194t31 -271q0 -174 -18.5 -301.5t-45 -199t-69.5 -140.5q-120 -197 -371 -197q-173 0 -280.5 94t-114.5 261l176 24q14 -227 219 -227q163 0 238 137q86 154 86 393q-49 -76 -134 -118.5t-202 -42.5 q-196 0 -311 135t-115 346zM299 965q0 -149 73 -232.5t197 -83.5q142 0 219.5 86t77.5 242q0 135 -79.5 221t-208.5 86q-135 0 -207 -87t-72 -232z" />
<glyph horiz-adv-x="724" d="M180 719q0 263 94.5 504.5t284.5 482.5l109 -78q-168 -235 -241 -450.5t-73 -458.5q0 -246 72.5 -460t241.5 -449l-109 -78q-190 241 -284.5 482.5t-94.5 504.5z" />
<glyph horiz-adv-x="724" d="M57 -190q169 235 241.5 449t72.5 460q0 243 -73 458.5t-241 450.5l109 78q190 -241 284.5 -482.5t94.5 -504.5t-94.5 -504.5t-284.5 -482.5z" />
<glyph horiz-adv-x="940" d="M164 657v148h612v-148h-612z" />
<glyph horiz-adv-x="724" d="M262 -236v1895h422v-133h-258v-1628h258v-134h-422z" />
<glyph horiz-adv-x="724" d="M41 -102h258v1628h-258v133h422v-1895h-422v134z" />
<glyph horiz-adv-x="768" d="M154 643v139q108 3 131 56q14 31 14 145v332q0 92 14 150t54 108q73 86 198 86h101v-141h-76q-72 0 -98 -39q-16 -23 -20.5 -59.5t-4.5 -102.5v-344q0 -107 -23 -160q-29 -67 -114 -98v-4q84 -31 114 -99q23 -53 23 -159v-347q0 -66 4.5 -102t20.5 -59q26 -39 98 -39h76 v-142h-101q-125 0 -198 86q-40 50 -54 108.5t-14 150.5v333q0 115 -14 146q-12 28 -43 40.5t-88 14.5z" />
<glyph horiz-adv-x="768" d="M102 -94h76q72 0 98 39q16 23 20.5 59t4.5 102v347q0 106 23 159q30 68 114 99v4q-85 31 -114 98q-23 53 -23 160v344q0 66 -4.5 102.5t-20.5 59.5q-26 39 -98 39h-76v141h101q125 0 198 -86q40 -50 54 -108t14 -150v-332q0 -114 14 -145q23 -53 131 -56v-139 q-57 -2 -88 -14.5t-43 -40.5q-14 -31 -14 -146v-333q0 -92 -14 -150.5t-54 -108.5q-73 -86 -198 -86h-101v142z" />
<glyph horiz-adv-x="966" d="M102 659l299 402l95 -66l-238 -336l238 -335l-95 -66zM446 659l299 402l95 -66l-238 -336l238 -335l-95 -66z" />
<glyph horiz-adv-x="940" d="M164 657v148h612v-148h-612z" />
<glyph horiz-adv-x="966" d="M127 324l238 335l-238 336l94 66l299 -402l-299 -401zM471 324l238 335l-238 336l94 66l299 -402l-299 -401z" />
<glyph horiz-adv-x="1433" d="M205 657v148h1024v-148h-1024z" />
<glyph horiz-adv-x="2048" d="M266 657v148h1516v-148h-1516z" />
<glyph horiz-adv-x="622" d="M102 659l299 402l95 -66l-238 -336l238 -335l-95 -66z" />
<glyph horiz-adv-x="622" d="M127 324l238 335l-238 336l94 66l299 -402l-299 -401z" />
<glyph horiz-adv-x="686" d="M236 -152h213v-133q0 -113 -44 -163t-141 -72l-18 78q50 11 75 35.5t25 72.5h-110v182z" />
<glyph horiz-adv-x="686" d="M238 1272v133q0 114 44 163.5t140 71.5l18 -77q-49 -11 -74.5 -36t-25.5 -73h111v-182h-213z" />
<glyph horiz-adv-x="1918" d="M61 862v144h209v135q0 181 78 264q74 80 232 80q77 0 228.5 -25t299.5 -26v-430l-4 -146h4q24 65 100 118.5t183 53.5q186 0 297.5 -142.5t111.5 -387.5q0 -244 -113.5 -384.5t-295.5 -140.5q-101 0 -176 50t-107 122h-4q0 -61 -8 -147h-162q10 245 10 324v987 q-64 3 -171 15.5t-183 12.5q-112 0 -141 -77q-15 -40 -15 -142v-114h279v-144h-279v-862h-164v862h-209zM1106 504q0 -173 70 -279t198 -106q252 0 252 393q0 171 -68 273t-192 102q-123 0 -191.5 -105t-68.5 -278z" />
<glyph horiz-adv-x="1976" d="M61 862v144h209v135q0 56 3 93.5t19.5 86.5t47.5 82q76 82 215 82q113 0 209 -47l-49 -127q-75 30 -140 30q-51 0 -78.5 -14t-43.5 -43q-19 -34 -19 -158v-120h510v135q0 56 3 93.5t19.5 86.5t47.5 82q76 82 215 82q117 0 227 -62l-49 -118q-81 36 -158 36 q-89 0 -123 -59q-18 -33 -18 -156v-120h674v-1092q0 -56 -3 -93.5t-19.5 -86.5t-47.5 -82q-76 -82 -215 -82q-113 0 -209 47l49 127q76 -31 140 -31q89 0 122 58q19 34 19 157v934h-510v-862h-164v862h-510v-862h-164v862h-209zM1612 1214v226h176v-226h-176z" />
<glyph horiz-adv-x="2158" d="M61 862v144h209v135q0 56 3 93.5t19.5 86.5t47.5 82q76 82 215 82q113 0 209 -47l-49 -127q-75 30 -140 30q-51 0 -78.5 -14t-43.5 -43q-19 -34 -19 -158v-120h510v135q0 56 3 93.5t19.5 86.5t47.5 82q76 82 215 82q117 0 227 -62l-49 -118q-81 36 -158 36 q-89 0 -123 -59q-18 -33 -18 -156v-120h510v319l164 74v-393h270v-144h-270v-528q0 -133 24 -168q34 -47 117 -47q76 0 150 31l49 -127q-98 -48 -219 -48q-139 0 -215 82q-42 46 -56 110.5t-14 147.5v547h-510v-862h-164v862h-510v-862h-164v862h-209z" />
<glyph horiz-adv-x="1894" d="M61 862v144h209v135q0 181 78 264q74 80 232 80q77 0 228.5 -25t299.5 -26v-404q0 -54 -4 -160h4q37 70 108 115t170 45q95 0 166 -35t109 -94q59 -91 59 -250v-651h-164v623q0 137 -36 188q-53 76 -168 76q-103 0 -173.5 -79t-70.5 -230v-578h-164v1311q-64 3 -171 15.5 t-183 12.5q-112 0 -141 -77q-15 -40 -15 -142v-114h279v-144h-279v-862h-164v862h-209z" />
<glyph horiz-adv-x="1302" d="M61 862v144h209v135q0 56 3 93.5t19.5 86.5t47.5 82q76 82 215 82q117 0 227 -62l-49 -118q-81 36 -158 36q-51 0 -78 -15t-44 -44q-19 -34 -19 -156v-120h674v-1092q0 -56 -3 -93.5t-19.5 -86.5t-47.5 -82q-76 -82 -215 -82q-113 0 -209 47l50 127q76 -31 139 -31 q90 0 123 58q18 33 18 157v934h-510v-862h-164v862h-209zM938 1214v226h176v-226h-176z" />
<glyph horiz-adv-x="1822" d="M61 862v144h209v135q0 181 78 264q74 80 232 80q77 0 228.5 -25t299.5 -26v-893l438 465h221l-389 -412l404 -594h-201l-315 477l-158 -160v-317h-164v1311q-64 3 -171 15.5t-183 12.5q-112 0 -141 -77q-15 -40 -15 -142v-114h279v-144h-279v-862h-164v862h-209z" />
<glyph horiz-adv-x="1484" d="M61 862v144h209v135q0 56 3 93.5t19.5 86.5t47.5 82q76 82 215 82q117 0 227 -62l-49 -118q-81 36 -158 36q-51 0 -78 -15t-44 -44q-19 -34 -19 -156v-120h510v319l164 74v-393h270v-144h-270v-528q0 -132 25 -168q34 -47 116 -47q76 0 150 31l49 -127q-98 -48 -219 -48 q-139 0 -215 82q-42 46 -56 110.5t-14 147.5v547h-510v-862h-164v862h-209z" />
<glyph horiz-adv-x="1900" d="M61 862v144h209v135q0 56 3 93.5t19.5 86.5t47.5 82q76 82 215 82q117 0 227 -62l-49 -118q-81 36 -158 36q-51 0 -78 -15t-44 -44q-19 -34 -19 -156v-120h653v-646q0 -126 48.5 -183.5t156.5 -57.5q75 0 135 38.5t91 106.5q24 53 24 168v574h164v-689q0 -154 10 -317 h-162q-6 87 -6 143h-4q-82 -168 -289 -168q-145 0 -238 91.5t-93 261.5v534h-490v-862h-164v862h-209z" />
<glyph horiz-adv-x="1724" d="M61 862v144h209v135q0 56 3 93.5t19.5 86.5t47.5 82q76 82 215 82q113 0 209 -47l-49 -127q-75 30 -140 30q-51 0 -78.5 -14t-43.5 -43q-19 -34 -19 -158v-120h547l195 -578q40 -118 61 -221h4q27 118 62 221l196 578h174l-358 -1006h-158l-307 862h-416v-862h-164v862 h-209z" />
<glyph horiz-adv-x="2109" d="M61 862v144h209v135q0 56 3 93.5t19.5 86.5t47.5 82q76 82 215 82q113 0 209 -47l-49 -127q-75 30 -140 30q-51 0 -78.5 -14t-43.5 -43q-19 -34 -19 -158v-120h555l131 -598q30 -146 39 -218h4q7 79 35 216l127 600h201l129 -598q25 -126 35 -222h4q11 106 37 222 l131 598h166l-248 -1006h-176l-136 571q-33 145 -41 240h-4q-10 -86 -45 -240l-129 -571h-186l-209 862h-420v-862h-164v862h-209z" />
<glyph horiz-adv-x="1722" d="M61 862v144h209v135q0 56 3 93.5t19.5 86.5t47.5 82q76 82 215 82q113 0 209 -47l-49 -127q-75 30 -140 30q-51 0 -78.5 -14t-43.5 -43q-19 -34 -19 -158v-120h539l201 -578q36 -102 59 -205h4q14 61 63 205l197 578h174l-430 -1217q-37 -111 -90 -158q-67 -61 -195 -61 q-110 0 -221 63l58 123q82 -45 153 -45q67 0 101 31q29 29 47 80l61 182l-315 858h-406v-862h-164v862h-209z" />
<glyph horiz-adv-x="1505" d="M61 862v144h209v319l164 74v-393h553v135q0 56 3 93.5t19.5 86.5t47.5 82q76 82 215 82q113 0 209 -47l-49 -127q-75 30 -140 30q-51 0 -79 -14.5t-44 -42.5q-18 -33 -18 -158v-120h276v-144h-276v-862h-164v862h-553v-528q0 -132 25 -168q34 -47 116 -47q76 0 150 31 l49 -127q-98 -48 -219 -48q-139 0 -215 82q-42 46 -56 110.5t-14 147.5v547h-209z" />
<glyph horiz-adv-x="1345" d="M61 862v144h209v319l164 74v-393h717v-1006h-164v862h-553v-528q0 -132 25 -168q34 -47 116 -47q76 0 150 31l49 -127q-98 -48 -219 -48q-139 0 -215 82q-42 46 -56 110.5t-14 147.5v547h-209zM981 1214v226h176v-226h-176z" />
<glyph horiz-adv-x="1378" d="M61 862v144h209v319l164 74v-393h750v-1092q0 -56 -3 -93.5t-19.5 -86.5t-47.5 -82q-76 -82 -215 -82q-113 0 -209 47l49 127q76 -31 140 -31q89 0 122 58q19 34 19 157v934h-586v-528q0 -132 25 -168q34 -47 116 -47q76 0 150 31l49 -127q-98 -48 -219 -48 q-139 0 -215 82q-42 46 -56 110.5t-14 147.5v547h-209zM1014 1214v226h176v-226h-176z" />
<glyph horiz-adv-x="1527" d="M61 862v144h209v319l164 74v-393h553v319l164 74v-393h270v-144h-270v-528q0 -132 25 -168q34 -47 116 -47q76 0 150 31l49 -127q-98 -48 -219 -48q-139 0 -215 82q-42 46 -56 110.5t-14 147.5v547h-553v-528q0 -132 25 -168q34 -47 116 -47q76 0 150 31l49 -127 q-98 -48 -219 -48q-139 0 -215 82q-42 46 -56 110.5t-14 147.5v547h-209z" />
<glyph horiz-adv-x="2222" d="M61 862v144h209v319l164 74v-393h553v319l164 74v-393h553v135q0 56 3 93.5t19.5 86.5t47.5 82q76 82 215 82q113 0 209 -47l-50 -127q-75 30 -139 30q-51 0 -79 -14.5t-44 -42.5q-18 -33 -18 -158v-120h276v-144h-276v-862h-164v862h-553v-528q0 -132 25 -168 q34 -47 116 -47q76 0 150 31l49 -127q-98 -48 -219 -48q-139 0 -215 82q-42 46 -56 110.5t-14 147.5v547h-553v-528q0 -132 25 -168q34 -47 116 -47q76 0 150 31l49 -127q-98 -48 -219 -48q-139 0 -215 82q-42 46 -56 110.5t-14 147.5v547h-209z" />
<glyph horiz-adv-x="2115" d="M61 862v144h209v319l164 74v-393h574v319l163 74v-393h750v-1092q0 -56 -3 -93.5t-19.5 -86.5t-47.5 -82q-76 -82 -215 -82q-113 0 -209 47l50 127q76 -31 139 -31q90 0 123 58q18 33 18 157v934h-586v-528q0 -132 25 -168q34 -47 117 -47q75 0 149 31l49 -127 q-98 -48 -219 -48q-139 0 -215 82q-42 46 -55.5 110t-13.5 148v547h-574v-528q0 -132 25 -168q34 -47 116 -47q76 0 150 31l49 -127q-98 -48 -219 -48q-139 0 -215 82q-42 46 -56 110.5t-14 147.5v547h-209zM1751 1214v226h176v-226h-176z" />
<glyph horiz-adv-x="1943" d="M61 862v144h209v319l164 74v-393h696v-646q0 -126 48.5 -183.5t156.5 -57.5q75 0 135 38.5t91 106.5q24 53 24 168v574h164v-689q0 -154 10 -317h-162q-6 87 -6 143h-4q-82 -168 -289 -168q-145 0 -238 91.5t-93 261.5v534h-533v-528q0 -132 25 -168q34 -47 116 -47 q76 0 150 31l49 -127q-98 -48 -219 -48q-139 0 -215 82q-42 46 -56 110.5t-14 147.5v547h-209z" />
<glyph horiz-adv-x="1726" d="M61 862v144h209v319l164 74v-393h549l195 -578q40 -118 61 -221h4q27 118 62 221l196 578h174l-358 -1006h-158l-307 862h-418v-528q0 -132 25 -168q34 -47 116 -47q76 0 150 31l49 -127q-98 -48 -219 -48q-139 0 -215 82q-42 46 -56 110.5t-14 147.5v547h-209z" />
<glyph horiz-adv-x="2148" d="M61 862v144h209v319l164 74v-393h594l131 -598q30 -146 39 -218h4q7 79 35 216l127 600h201l129 -598q25 -126 35 -222h4q12 114 36 222l132 598h165l-247 -1006h-177l-135 571q-33 145 -41 240h-4q-10 -86 -45 -240l-129 -571h-186l-209 862h-459v-528q0 -132 25 -168 q34 -47 116 -47q76 0 150 31l49 -127q-98 -48 -219 -48q-139 0 -215 82q-42 46 -56 110.5t-14 147.5v547h-209z" />
<glyph horiz-adv-x="1755" d="M61 862v144h209v319l164 74v-393h572l200 -578q39 -110 60 -205h4q14 61 63 205l197 578h174l-430 -1217q-37 -111 -90 -158q-67 -61 -195 -61q-110 0 -221 63l57 123q82 -45 154 -45q66 0 100 31q29 29 47 80l62 182l-316 858h-438v-528q0 -132 25 -168q34 -47 116 -47 q76 0 150 31l49 -127q-98 -48 -219 -48q-139 0 -215 82q-42 46 -56 110.5t-14 147.5v547h-209z" />
<glyph horiz-adv-x="450" d="M117 1094l102 376l154 -61l-172 -348z" />
<glyph horiz-adv-x="2250" d="M123 727l725 727l98 -94l-358 -361q-149 -149 -213 -204q118 4 278 4h1475v-144h-1475q-160 0 -278 4q64 -55 213 -204l358 -361l-98 -94z" />
<glyph horiz-adv-x="2250" d="M397 1004l727 725l727 -725l-94 -99l-360 359q-156 156 -205 213q4 -118 4 -279v-1474h-143v1474q0 161 4 279q-49 -57 -205 -213l-360 -359z" />
<glyph horiz-adv-x="2250" d="M123 655v144h1474q161 0 279 -4q-64 55 -213 204l-358 361l98 94l725 -727l-725 -727l-98 94l358 361q149 149 213 204q-118 -4 -279 -4h-1474z" />
<glyph horiz-adv-x="2250" d="M397 449l95 98l360 -359q156 -156 205 -213q-4 118 -4 279v1475h143v-1475q0 -161 -4 -279q49 57 205 213l360 359l94 -98l-727 -725z" />
<glyph horiz-adv-x="2250" d="M416 410v1026h1030v-136h-508q-202 0 -295 5q65 -58 199 -193l1042 -1042l-100 -103l-1043 1043q-71 71 -194 200q6 -76 6 -295l-2 -505h-135z" />
<glyph horiz-adv-x="2250" d="M365 68l1042 1042q72 72 201 195q-89 -7 -295 -7h-510v138h1030l2 -1028l-137 -2v507q0 221 4 295q-49 -54 -193 -198l-1042 -1043z" />
<glyph horiz-adv-x="2250" d="M367 1384l100 103l1042 -1043q93 -92 195 -200q-6 76 -6 295v505h137v-1026l-1028 -2l-2 138h508q221 0 295 -4q-75 68 -199 192z" />
<glyph horiz-adv-x="2250" d="M416 18v1026h135v-505q0 -244 -4 -295q123 129 194 200l1043 1043l100 -103l-1042 -1042q-124 -124 -199 -192q74 4 295 4h508v-138z" />
<glyph horiz-adv-x="2250" d="M123 727l725 727l98 -94l-358 -361q-149 -149 -213 -204q118 4 278 4h1340v631h135v-1405h-135v630h-1340q-160 0 -278 4q64 -55 213 -204l358 -361l-98 -94z" />
<glyph horiz-adv-x="2250" d="M397 1004l727 725l727 -725l-94 -99l-360 359q-156 156 -205 213q4 -118 4 -279v-1339h631v-135h-1405v135h631v1339q0 161 4 279q-49 -57 -205 -213l-360 -359z" />
<glyph horiz-adv-x="2250" d="M123 25v1405h135v-631h1339q161 0 279 -4q-64 55 -213 204l-358 361l98 94l725 -727l-725 -727l-98 94l358 361q149 149 213 204q-118 -4 -279 -4h-1339v-630h-135z" />
<glyph horiz-adv-x="2250" d="M397 449l95 98l360 -359q156 -156 205 -213q-4 118 -4 279v1339h-631v136h1405v-136h-631v-1339q0 -161 -4 -279q49 57 205 213l360 359l94 -98l-727 -725z" />
<glyph horiz-adv-x="2250" d="M123 727l725 727l98 -94l-358 -361q-149 -149 -213 -204q118 4 278 4h1475v-774h-135v630h-1340q-160 0 -278 4q64 -55 213 -204l358 -361l-98 -94z" />
<glyph horiz-adv-x="2250" d="M123 25v774h1474q161 0 279 -4q-64 55 -213 204l-358 361l98 94l725 -727l-725 -727l-98 94l358 361q149 149 213 204q-118 -4 -279 -4h-1339v-630h-135z" />
<glyph horiz-adv-x="2250" d="M123 727l725 727l98 -94l-358 -361q-149 -149 -213 -204q118 4 278 4h1340v631h135v-775h-1475q-160 0 -278 4q64 -55 213 -204l358 -361l-98 -94z" />
<glyph horiz-adv-x="2250" d="M123 655v775h135v-631h1339q161 0 279 -4q-64 55 -213 204l-358 361l98 94l725 -727l-725 -727l-98 94l358 361q149 149 213 204q-118 -4 -279 -4h-1474z" />
<glyph horiz-adv-x="2250" d="M397 449l95 98l360 -359q156 -156 205 -213q-4 118 -4 279v1339h-631v136h774v-1475q0 -161 -4 -279q49 57 205 213l360 359l94 -98l-727 -725z" />
<glyph horiz-adv-x="2250" d="M123 727l725 727l98 -94l-358 -361q-149 -149 -213 -204q118 4 278 4h1340v631h135v-775h-1475q-160 0 -278 4q64 -55 213 -204l358 -361l-98 -94z" />
<glyph horiz-adv-x="1253" d="M139 707q0 343 125 536t363 193t362.5 -193t124.5 -536t-125 -537.5t-362 -194.5t-362.5 194.5t-125.5 537.5zM319 707q0 -213 39 -340l476 807q-76 110 -207 110q-149 0 -228.5 -143.5t-79.5 -433.5zM424 229q74 -102 203 -102q149 0 228 145t79 435q0 185 -37 323z" />
<glyph horiz-adv-x="1187" d="M109 707q0 343 124.5 536t362.5 193t362.5 -193t124.5 -536t-125 -537.5t-362 -194.5t-362 194.5t-125 537.5zM289 707q0 -213 39 -340l475 807q-76 110 -207 110q-149 0 -228 -143.5t-79 -433.5zM393 229q74 -102 203 -102q149 0 228 145t79 435q0 185 -37 323z" />
<glyph horiz-adv-x="1730" d="M156 604q0 279 103 491t288 326.5t424 114.5q140 0 258 -53.5t198.5 -147t125 -222t44.5 -275.5q0 -283 -110 -445t-293 -162q-76 0 -128 39.5t-69 114.5h-4q-32 -67 -88 -110.5t-137 -43.5q-126 0 -194 98t-68 261q0 90 24 180t69.5 168t120 127t165.5 49q65 0 115 -37 t63 -98h6l41 106h152q-37 -110 -64 -282l-43 -266q-10 -65 -10 -101q0 -38 26 -60t56 -22q114 0 176.5 123.5t62.5 345.5q0 266 -136.5 430t-366.5 164q-302 0 -488 -218t-186 -595q0 -137 34.5 -249.5t94 -190t141 -130.5t175 -77.5t196.5 -24.5q126 0 261 56.5t195 128.5 l66 -80q-68 -86 -221.5 -153.5t-306.5 -67.5q-119 0 -228.5 28.5t-208.5 90.5t-172 152t-116 223t-43 294zM672 600q0 -118 33 -171.5t102 -53.5q48 0 86 34t60.5 84t37 113t20 114t5.5 93q0 72 -30.5 116t-94.5 44q-55 0 -99.5 -37.5t-69 -95.5t-37.5 -120t-13 -120z" />
<glyph horiz-adv-x="573" d="M215 -381v2204h143v-2204h-143z" />
<glyph d="M180 662v126h420v416h131v-416h420v-126h-420v-416h-131v416h-420z" />
<glyph d="M180 662v126h971v-126h-971z" />
<glyph d="M180 0v127h971v-127h-971zM180 662v126h420v416h131v-416h420v-126h-420v-416h-131v416h-420z" />
<glyph d="M242 328l333 334l-333 333l90 90l334 -333l333 333l91 -90l-334 -333l334 -334l-91 -90l-333 333l-334 -333z" />
<glyph d="M180 662v126h971v-126h-971zM559 258v219h213v-219h-213zM559 975v219h213v-219h-213z" />
<glyph d="M180 434v127h971v-127h-971zM180 758v127h971v-127h-971z" />
<glyph d="M180 434v127h373l84 197h-457v127h512l115 268l117 -51l-95 -217h322v-127h-375l-86 -197h461v-127h-514l-115 -268l-114 53l92 215h-320z" />
<glyph d="M180 418q0 104 68.5 165.5t181.5 61.5q66 0 120 -18.5t155 -75.5q89 -50 125 -63t83 -13q61 0 89 29t28 76h123q0 -104 -68.5 -166t-181.5 -62q-66 0 -119 18.5t-155 75.5q-89 50 -125.5 63t-83.5 13q-61 0 -89 -28.5t-28 -75.5h-123zM180 741q0 104 68.5 166t181.5 62 q65 0 119 -18.5t156 -76.5q88 -50 124.5 -62.5t83.5 -12.5q61 0 89 28.5t28 75.5h123q0 -104 -68.5 -165.5t-181.5 -61.5q-66 0 -119 18.5t-155 75.5q-89 50 -125.5 63t-83.5 13q-61 0 -89 -29t-28 -76h-123z" />
<glyph d="M164 600v123l938 457l55 -115l-618 -289q-159 -74 -263 -112v-5q104 -38 263 -112l618 -289l-55 -115z" />
<glyph d="M174 258l619 289q162 76 262 112v5q-100 36 -262 112l-619 289l55 115l938 -457v-123l-938 -457z" />
<glyph d="M180 0v127h971v-127h-971zM180 614v91l934 389l51 -117l-620 -250q-89 -36 -197 -65v-5q108 -29 197 -65l620 -250l-51 -117z" />
<glyph d="M166 342l620 250q89 36 197 65v5q-108 29 -197 65l-620 250l51 117l934 -389v-91l-934 -389zM180 0v127h971v-127h-971z" />
<glyph d="M156 760v133h1020v-467h-138v334h-882z" />
<glyph horiz-adv-x="1327" d="M123 666q0 123 67 204.5t170 81.5q43 0 85.5 -17t82 -50.5t70 -66t68.5 -79.5q39 51 65 80.5t65 65t79.5 52.5t85.5 17q107 0 175 -79t68 -207q0 -125 -66.5 -206t-170.5 -81q-46 0 -88 15.5t-81 47t-66.5 61t-65.5 75.5q-80 -97 -147.5 -148t-151.5 -51 q-107 0 -175.5 78t-68.5 207zM244 664q0 -79 31 -121.5t92 -42.5q59 0 112 42.5t119 119.5l-20 22q-28 32 -49.5 54t-51 46.5t-59.5 37t-60 12.5q-55 0 -84.5 -48t-29.5 -122zM729 662q64 -74 121 -118t117 -44q58 0 87 44t29 120q0 79 -29.5 125.5t-88.5 46.5 q-40 0 -87 -30.5t-77.5 -62.5t-71.5 -81z" />
<glyph horiz-adv-x="612" d="M184 317v1137h164v-1122q0 -127 21 -164q29 -51 98 -51q54 0 104 33l68 -109q-47 -36 -89 -52t-104 -16q-122 0 -198 82q-22 24 -35.5 55.5t-19.5 69.5t-7.5 66.5t-1.5 70.5z" />
<glyph horiz-adv-x="1378" d="M61 862v144h209v135q0 181 78 264q74 80 232 80q77 0 228.5 -25t299.5 -26v-1102q0 -129 20 -164q29 -51 99 -51q54 0 104 33l68 -109q-47 -36 -89 -52t-104 -16q-122 0 -198 82q-22 24 -35.5 55.5t-19.5 69.5t-7.5 66.5t-1.5 70.5v994q-64 3 -171 15.5t-183 12.5 q-112 0 -141 -77q-15 -40 -15 -142v-114h279v-144h-279v-862h-164v862h-209z" />
<glyph horiz-adv-x="2050" d="M61 862v144h209v135q0 56 3 93.5t19.5 86.5t47.5 82q76 82 215 82q113 0 209 -47l-49 -127q-75 30 -140 30q-51 0 -78.5 -14t-43.5 -43q-19 -34 -19 -158v-120h508v135q0 181 78 264q74 80 231 80q77 0 229 -25t300 -26v-1102q0 -129 20 -164q29 -51 98 -51q55 0 105 33 l68 -109q-47 -36 -89 -52t-104 -16q-123 0 -199 82q-28 32 -43 81.5t-17.5 86t-2.5 94.5v994q-64 3 -171 15.5t-183 12.5q-113 0 -142 -77q-14 -38 -14 -142v-114h278v-144h-278v-862h-164v862h-508v-862h-164v862h-209z" />
</font>
</defs>
</svg>
