<?xml version="1.0" standalone="no"?>
<!DOCTYPE svg PUBLIC "-//W3C//DTD SVG 1.1//EN" "http://www.w3.org/Graphics/SVG/1.1/DTD/svg11.dtd" >
<svg xmlns="http://www.w3.org/2000/svg">
<metadata>
This is a custom SVG webfont generated by Font Squirrel.
Copyright   : Copyright c Jonathan Hares wwwlinetocom 2003 All rights reserved
Designer    : Jonathan Hares
Foundry     : Jonathan Hares wwwlinetocom
Foundry URL : wwwlinetocom
</metadata>
<defs>
<font id="Superstudio" horiz-adv-x="626" >
<font-face units-per-em="1024" ascent="819" descent="-205" />
<missing-glyph horiz-adv-x="500" />
<glyph unicode=" " />
<glyph unicode="!" d="M230 83q0 34 24.5 58.5t58.5 24.5q35 0 59.5 -24.5t24.5 -58.5t-24.5 -58.5t-59.5 -24.5t-59 24.5t-24 58.5zM244 664q0 17 6 30t16 21t22 12t24 4q25 0 47 -16t22 -51q0 -1 -1 -19t-3 -46t-4 -62.5t-5 -70.5l-15 -192q-1 -11 -6 -17.5t-11.5 -10.5t-13.5 -5t-10 -1 q-8 0 -23.5 6t-17.5 28l-13 192l-6 71l-4 62q-2 28 -3 46t-1 19z" />
<glyph unicode="&#x22;" d="M145 663q0 35 22 51.5t47 16.5t47 -17t22 -51q0 -3 -4 -31l-10 -61q-6 -38 -14 -84q-3 -19 -17.5 -25.5t-23.5 -6.5q-10 0 -24 7t-17 25l-13 85l-10 60q-5 28 -5 31zM344 663q0 35 22 51.5t47 16.5t46.5 -17t21.5 -51q0 -3 -4 -31l-9 -61q-6 -38 -14 -84 q-3 -19 -17.5 -25.5t-23.5 -6.5q-10 0 -24 7t-17 25l-14 85l-9 60q-5 28 -5 31z" />
<glyph unicode="#" d="M56 272q0 18 13 31t32 13h72l17 112h-51q-19 0 -32 13.5t-13 31.5t13 31t32 13h65l27 177q4 17 16.5 27t27.5 10q18 0 32 -12t14 -33l-10 -59q-4 -26 -8 -55.5t-8 -54.5h83l29 176q2 17 14.5 27.5t29.5 10.5t30.5 -12t13.5 -33l-10 -60q-4 -26 -8 -55t-8 -54h56 q19 0 32 -12.5t13 -31.5q0 -18 -12.5 -31.5t-32.5 -13.5h-71l-18 -112h56q18 0 31 -12.5t13 -31.5q0 -18 -13 -31.5t-31 -13.5h-70l-30 -189q-3 -17 -15 -27.5t-29 -10.5q-15 0 -24 5.5t-13.5 13.5t-5.5 15.5t0 11.5l11 73l10 60.5t7 47.5h-83l-31 -189q-3 -17 -15.5 -27.5 t-28.5 -10.5q-8 0 -16.5 3t-15.5 9t-10.5 15t-1.5 20l10 65q5 28 9.5 59t8.5 56h-58q-19 0 -32 13.5t-13 31.5zM263 316h84l18 112h-85z" />
<glyph unicode="$" d="M125 118q0 19 14 32t31 13q14 0 25.5 -8t16.5 -22q5 -17 20 -27t38 -15v207q-26 10 -51 23.5t-46 33.5t-34.5 48.5t-13.5 68.5q0 72 39 120t106 63v30q0 19 13.5 32t31.5 13t31 -12.5t13 -32.5v-28q52 -10 88.5 -34.5t52.5 -68.5q2 -8 2 -15q0 -18 -14 -31t-31 -13 q-14 0 -25.5 8t-16.5 21q-11 32 -56 42v-207q26 -10 51 -23.5t45.5 -33.5t33.5 -48.5t13 -67.5t-11.5 -70t-31 -54.5t-45.5 -39t-55 -22.5v-17q0 -18 -12.5 -31.5t-31.5 -13.5q-18 0 -31.5 13t-13.5 32v17q-55 6 -91 33t-52 70q-2 9 -2 15zM215 472q0 -28 13 -45t42 -32v167 q-29 -11 -42 -32.5t-13 -57.5zM359 95q24 10 39 32.5t15 58.5q0 27 -12.5 44t-41.5 31v-166z" />
<glyph unicode="%" d="M72 489q0 28 9 56.5t26.5 52t44 37.5t60.5 14q59 0 99.5 13t68 28.5t43.5 28t27 12.5q18 0 30.5 -14t12.5 -31q0 -8 -4 -16l-271 -666q-5 -12 -16.5 -19.5t-24.5 -7.5q-17 0 -30.5 12.5t-13.5 30.5q0 10 3 18l225 554q-20 -12 -41.5 -16.5t-29.5 -5.5q1 -6 1.5 -12 t0.5 -13q0 -28 -8.5 -57.5t-24.5 -54t-40 -40.5t-55 -16q-25 0 -43 10.5t-28.5 27.5t-15.5 37t-5 37zM156 483q0 -8 1.5 -13t5.5 -6l4 -1q8 0 14.5 9.5t11.5 23t7.5 28.5t2.5 25q0 8 -1 10q-24 -7 -35 -32t-11 -44zM344 178q0 24 7.5 52t23.5 52.5t40 41.5t56 17 q24 0 40.5 -8.5t28 -24t17 -35.5t5.5 -43q0 -29 -8.5 -58t-25 -52.5t-40 -38.5t-53.5 -15q-27 0 -44.5 11.5t-28 29t-14.5 37t-4 34.5zM424 178q0 -19 10 -23q1 -1 4 -1q8 0 16 8t14 19.5t9.5 25t3.5 23.5q0 9 -3 15.5t-10 6.5q-8 0 -16.5 -7t-14.5 -18.5t-9.5 -24.5 t-3.5 -24z" />
<glyph unicode="&#x26;" d="M82 205q0 36 12 68t31.5 60.5t44 54.5t47.5 47q-24 39 -43 74.5t-19 81.5q0 34 11 60t29 44t41 27t48 9t47.5 -9t41 -27t30 -43.5t11.5 -59.5q0 -23 -8 -46t-20 -45t-28 -42l-29 -37l115 -196q6 17 15.5 29t29.5 12q18 0 32 -12t14 -32q0 -7 -4.5 -19.5t-9.5 -25 t-11 -24.5l-10 -21q5 -7 12.5 -19l15 -24t12.5 -24.5t5 -20.5q0 -26 -22 -39q-9 -6 -22 -6q-12 0 -21.5 5.5t-16.5 14.5t-13 19l-11 19q-30 -27 -67.5 -42.5t-87.5 -15.5q-43 0 -80 16t-64 43.5t-42.5 65t-15.5 80.5zM170 205q0 -25 8.5 -46.5t24 -37t36 -24t45.5 -8.5 q36 0 63 13.5t47 34.5l-131 221q-40 -37 -66.5 -76.5t-26.5 -76.5zM245 592q0 -22 11 -46t24 -42q22 27 33.5 50.5t11.5 37.5q0 28 -13.5 39t-27.5 11q-13 0 -26 -10.5t-13 -39.5z" />
<glyph unicode="'" d="M245 663q0 35 22 51.5t46 16.5q25 0 47 -17t22 -51q0 -3 -4 -31l-9 -61q-6 -38 -15 -84q-3 -19 -17 -25.5t-24 -6.5t-24 7t-17 25l-13 85l-10 60q-4 28 -4 31z" />
<glyph unicode="(" d="M202 345q0 61 10 119t30 107.5t48.5 88t66.5 63.5q11 7 24 7q18 0 31 -12.5t13 -31.5q0 -10 -4.5 -20t-14.5 -17q-26 -16 -47 -45.5t-36.5 -68.5t-24 -87.5t-8.5 -102.5q0 -53 8 -100.5t23.5 -87t36 -70t44.5 -47.5q9 -6 14 -16t5 -20q0 -17 -13 -30.5t-31 -13.5 q-14 0 -26 8q-35 26 -63 65.5t-47 89t-29 106.5t-10 116z" />
<glyph unicode=")" d="M202 686q0 18 12.5 31t31.5 13q12 0 23 -7q38 -25 67 -63.5t48.5 -88t30 -107t10.5 -119.5q0 -59 -10.5 -116t-29 -106.5t-46.5 -89t-64 -65.5q-11 -8 -25 -8q-18 0 -31 13.5t-13 30.5q0 10 4.5 20t13.5 16q25 17 45.5 47.5t36 70t23.5 87t8 100.5q0 54 -9 102.5 t-24 87.5t-36 68.5t-47 45.5q-10 7 -14.5 17t-4.5 20z" />
<glyph unicode="*" d="M108 535q0 19 12.5 32t31.5 13h79l-51 84q-6 11 -6 22q0 18 13 31.5t31 13.5q11 0 22 -5t17 -16l54 -89l55 89q12 22 37 21q19 0 32.5 -13t13.5 -32q0 -12 -8 -22l-51 -84h85q18 0 31 -13t13 -32q0 -17 -12.5 -31.5t-31.5 -14.5h-85l51 -82q7 -10 8 -24q0 -17 -13 -31 t-33 -14q-11 0 -21 6t-16 16l-55 90l-54 -90q-6 -10 -17 -16t-22 -6q-18 0 -31 14t-13 31q0 13 6 24l51 82h-79q-18 0 -31 14.5t-13 31.5z" />
<glyph unicode="+" d="M53 366q0 18 13 31.5t31 13.5h171v171q0 19 13.5 32t31.5 13t31.5 -13t13.5 -32v-171h171q18 0 31 -13.5t13 -31.5q0 -17 -12.5 -30.5t-31.5 -13.5h-171v-171q0 -19 -13 -32.5t-32 -13.5q-18 0 -31.5 13t-13.5 33v171h-171q-18 0 -31 13.5t-13 30.5z" />
<glyph unicode="," d="M233 80q0 33 21.5 55t57.5 22q38 0 61.5 -26.5t23.5 -61.5q0 -52 -29.5 -90t-72.5 -65q-7 -4 -19 -4q-13 0 -23.5 9t-10.5 24q0 4 2 12q2 5 8 11l14 12l14 12q6 5 6 10q0 3 -6 6q-19 11 -33 30t-14 44z" />
<glyph unicode="-" d="M84 366q0 18 13 31.5t31 13.5h371q18 0 31 -13.5t13 -31.5q0 -17 -13 -30.5t-31 -13.5h-371q-18 0 -31 13.5t-13 30.5z" />
<glyph unicode="." d="M232 82q0 35 25.5 56t56.5 21q34 0 57.5 -23.5t23.5 -56.5q0 -36 -24.5 -57.5t-56.5 -21.5q-34 0 -58 24t-24 58z" />
<glyph unicode="/" d="M90 19q0 11 4 21l362 689q12 23 38 23q17 0 30 -11.5t13 -30.5q0 -11 -5 -21l-361 -689q-5 -10 -15.5 -16.5t-22.5 -6.5q-17 0 -30 12.5t-13 29.5z" />
<glyph unicode="0" d="M54 366q0 61 13 125.5t42.5 118t79.5 87.5t124 34q65 0 113.5 -26t81 -73.5t48.5 -115t16 -150.5t-15.5 -151t-48 -115.5t-81 -73.5t-113.5 -26q-75 0 -124.5 34.5t-79.5 87.5t-43 118.5t-13 125.5zM144 366q0 -12 1 -37.5t6.5 -56t15.5 -63t29 -59.5t47.5 -44t70.5 -17 q53 0 86 26t51.5 66.5t24.5 90t6 94.5t-6.5 94t-25 89.5t-51 66.5t-86.5 26q-41 0 -69.5 -17t-47.5 -43.5t-29 -59.5t-15.5 -63.5t-6.5 -55.5t-1 -37z" />
<glyph unicode="1" d="M268 45v642q0 19 14 31.5t31 12.5t31 -12t14 -32v-642q0 -19 -13 -32t-32 -13q-18 0 -31.5 13t-13.5 32z" />
<glyph unicode="2" d="M76 45q0 15 11 29l315 354q27 31 41 62.5t14 60.5q0 42 -27 66.5t-73 24.5q-43 0 -71 -16t-48 -36q-11 -10 -20 -19.5t-17 -16.5q-20 -18 -37 -18q-16 0 -30.5 12t-14.5 33q0 14 9 27q2 2 19 21t47 42t71.5 41.5t91.5 18.5q42 0 76.5 -13t59.5 -37.5t39 -57.5t14 -73 q0 -49 -20.5 -95t-56.5 -86l-88 -98l-69 -77l-53 -60l-40 -45h288q17 0 30.5 -13.5t13.5 -30.5q0 -19 -13 -32t-31 -13h-386q-18 0 -31.5 13.5t-13.5 31.5z" />
<glyph unicode="3" d="M76 45q0 14 10.5 29t32.5 15q27 1 62.5 4.5t73.5 12.5t75.5 23t66.5 35t47 49.5t18 66.5q0 40 -11.5 63t-30.5 35.5t-45.5 17t-57.5 7.5q-11 1 -23 3.5t-22.5 7t-17 13.5t-6.5 25q0 17 9 27l133 163h-248q-19 0 -32 14t-13 31q0 19 13.5 31.5t31.5 12.5h342q19 0 32 -12 t13 -32q0 -14 -10 -28l-140 -171q80 -18 126 -69.5t46 -138.5q0 -55 -22 -97.5t-58.5 -73.5t-82.5 -52t-94 -34t-93.5 -18t-80.5 -5q-23 0 -33.5 15t-10.5 30z" />
<glyph unicode="4" d="M76 216q0 10 7 25l299 470q8 11 19 15.5t21 4.5q18 0 30.5 -13t12.5 -31v-426h42q17 0 30.5 -13.5t13.5 -31.5t-13.5 -31.5t-30.5 -13.5h-42v-126q0 -19 -13 -32t-31 -13t-31.5 13t-13.5 32v126h-256q-18 0 -31 14t-13 31zM202 261h174v274z" />
<glyph unicode="5" d="M76 45q0 14 10.5 28.5t31.5 15.5q1 0 15.5 1t38.5 5q47 8 96.5 24t90.5 44t67.5 69.5t26.5 100.5q0 58 -25 83.5t-64 25.5q-28 0 -55.5 -7.5t-49.5 -16.5t-36 -17l-14 -8q-9 -8 -24 -8q-18 0 -31.5 13.5t-13.5 31.5v257q0 19 13.5 31.5t31.5 12.5h322q17 0 30.5 -12 t13.5 -32q0 -17 -13.5 -31t-30.5 -14h-278v-139q31 12 65 20.5t70 8.5q42 0 74.5 -14.5t55.5 -40.5t35 -63t12 -81q0 -57 -18 -102t-48 -78.5t-67 -58t-76.5 -41.5t-77.5 -28t-67 -16t-48 -7l-18 -2q-22 0 -33.5 14t-11.5 31z" />
<glyph unicode="6" d="M74 260q0 33 4 80t18 99.5t39.5 104.5t68.5 93.5t106.5 67.5t151.5 26q17 0 30.5 -12t13.5 -32q0 -18 -13.5 -31.5t-30.5 -13.5q-62 0 -108 -16t-78.5 -43.5t-53.5 -64.5t-34 -78q27 17 59 27t67 10q49 0 93 -19t76 -51t51 -75.5t19 -92.5t-19 -93t-51 -76t-75.5 -51 t-93.5 -19q-32 0 -73 12t-78.5 41.5t-63 79.5t-25.5 127zM164 247q0 -35 11.5 -64t32 -49.5t48.5 -32.5t58 -12q31 0 58 12t47.5 32t32.5 47.5t12 58.5t-12 58t-32.5 47t-47.5 31.5t-58 11.5t-58 -10.5t-47.5 -30t-32.5 -44.5t-12 -55z" />
<glyph unicode="7" d="M76 688q0 20 13.5 31.5t31.5 11.5h386q17 0 31 -11.5t14 -31.5q0 -5 -2 -13l-194 -643q-5 -15 -16.5 -23.5t-26.5 -8.5q-17 0 -31 12.5t-14 31.5q0 5 2 13l177 586h-326q-18 0 -31.5 13.5t-13.5 31.5z" />
<glyph unicode="8" d="M76 226q0 55 25.5 102t73.5 81q-37 28 -57 62.5t-20 77.5q0 40 17.5 73t47.5 57t68.5 38t81.5 14t82 -14t69 -38t47 -57t17 -73q0 -43 -20 -78t-56 -62q48 -34 73.5 -80.5t25.5 -102.5q0 -47 -19 -88.5t-51 -72t-76 -48t-92 -17.5t-91.5 17.5t-75.5 48t-51 72t-19 88.5z M165 226q0 -28 11 -53t31 -43t47.5 -29.5t58.5 -11.5q32 0 59 11.5t47 29.5t31.5 43.5t11.5 52.5q0 28 -11.5 53t-31.5 44t-47 30.5t-59 11.5t-59 -11.5t-47 -30.5t-31 -44t-11 -53zM187 549q0 -17 9.5 -34.5t26 -31t39.5 -21.5t51 -8q29 0 52 8t39.5 21.5t25.5 30.5t9 35 q0 17 -9 33.5t-25.5 30t-39.5 21.5t-52 8t-51.5 -8t-39 -21.5t-26 -30t-9.5 -33.5z" />
<glyph unicode="9" d="M74 493q0 49 19 92.5t51 75.5t75.5 51t92.5 19q32 0 73.5 -11.5t79 -41.5t63 -80t25.5 -127q0 -32 -4 -79.5t-18 -99.5t-39.5 -104.5t-68.5 -94t-106 -67.5t-152 -26q-17 0 -30.5 12.5t-13.5 31.5q0 18 13 31.5t31 13.5q62 0 107.5 16t78.5 43.5t54 64.5t33 78 q-27 -17 -58.5 -27t-67.5 -10q-49 0 -92.5 19t-75.5 51t-51 76t-19 93zM163 493q0 -31 11.5 -58t32 -47t48 -32t57.5 -12q31 0 58 11t47.5 30t33 45t12.5 54q0 35 -12 64.5t-32.5 49.5t-48 32t-58.5 12t-58 -12t-47.5 -31.5t-32 -47t-11.5 -58.5z" />
<glyph unicode=":" d="M231 351q0 36 25 57t56 21q34 0 58 -23.5t24 -57.5q0 -36 -25 -57.5t-57 -21.5q-34 0 -57.5 24t-23.5 58zM232 82q0 35 25.5 56t56.5 21q34 0 57.5 -23.5t23.5 -56.5q0 -36 -24.5 -57.5t-56.5 -21.5q-34 0 -58 24t-24 58z" />
<glyph unicode=";" d="M231 351q0 36 25 57t56 21q34 0 58 -23.5t24 -57.5q0 -36 -24.5 -57.5t-57.5 -21.5t-57 24t-24 58zM233 80q0 33 21.5 55t57.5 22q38 0 61.5 -26.5t23.5 -61.5q0 -52 -29.5 -90t-72.5 -65q-7 -4 -19 -4q-13 0 -23.5 9t-10.5 24q0 4 2 12q2 5 8 11l14 12l14 12q6 5 6 10 q0 3 -6 6q-19 11 -33 30t-14 44z" />
<glyph unicode="&#x3c;" d="M51 348q0 5 3 18t19 21l440 219q2 1 5 2q2 1 6 1h5q20 0 33 -13.5t13 -32.5q0 -5 -3 -18.5t-19 -21.5l-360 -175l360 -176q16 -8 19 -21t3 -18q0 -19 -13 -32.5t-33 -13.5q-7 0 -12.5 2t-10.5 4l-433 215q-15 8 -18.5 21.5t-3.5 18.5z" />
<glyph unicode="=" d="M42 267q0 20 13.5 33t33.5 13h449q20 0 33.5 -12.5t13.5 -33.5q0 -19 -13.5 -32.5t-33.5 -13.5h-449q-20 0 -33.5 13.5t-13.5 32.5zM42 454q0 19 13.5 33t33.5 14h449q20 0 33.5 -14t13.5 -33t-13.5 -32.5t-33.5 -13.5h-449q-20 0 -33.5 13.5t-13.5 32.5z" />
<glyph unicode="&#x3e;" d="M51 133q0 5 3 18t20 21l360 176l-360 175q-16 8 -19.5 21.5t-3.5 18.5q0 18 13 32t33 14q8 0 12 -1q3 -1 5 -2l440 -219q15 -8 18 -21t3 -18t-3 -18.5t-18 -21.5l-433 -215l-11 -4q-6 -2 -13 -2q-19 0 -32.5 13.5t-13.5 32.5z" />
<glyph unicode="?" d="M131 595q0 2 0.5 5t0.5 6q10 37 29.5 61.5t44 38.5t52.5 19.5t53 5.5q37 0 71 -9t59.5 -29t41 -51t15.5 -73q0 -30 -8 -52.5t-21 -42.5q-13 -19 -31 -36l-35 -32q-12 -11 -19.5 -20.5t-12 -19.5t-7 -21.5t-2.5 -28.5v-52q0 -17 -11.5 -31.5t-32.5 -14.5q-15 0 -24 5.5 t-14 13.5t-6.5 15.5t-1.5 11.5v52q0 17 1.5 35.5t9 38t22 40t40.5 42.5l23 21q11 10 20 21t15 25t6 30q0 40 -27.5 56.5t-70.5 16.5q-38 0 -57.5 -9.5t-34.5 -40.5q-7 -14 -15.5 -24.5t-29.5 -10.5q-15 0 -29 10t-14 28zM238 82q0 33 23.5 57t56.5 24q34 0 58 -24t24 -57 q0 -34 -24 -58t-58 -24t-57 24t-23 58z" />
<glyph unicode="@" d="M57 271q0 68 15 138t46 132q17 36 43.5 72.5t61 66.5t76 48t90.5 18q55 0 90 -23t55 -58t27.5 -77t7.5 -81q0 -26 -4 -61t-12.5 -72.5t-22 -75t-33 -66.5t-44.5 -47t-57 -18q-29 0 -49 17q-13 -14 -31 -23.5t-42 -9.5q-31 0 -48.5 15t-27.5 36.5t-12.5 45t-2.5 41.5 q0 35 11.5 79t34.5 83t58 66t83 27q7 0 20 -3t26 -9.5t23 -16t10 -22.5q0 -6 -8 -35l-16 -63q-9 -35 -16.5 -69t-7.5 -53q0 -13 6 -13q12 0 23.5 13.5t21 35.5t17 49t13 54.5t8.5 52.5t3 43q0 66 -28.5 106.5t-74.5 40.5q-31 0 -59.5 -14t-54 -37t-45.5 -53t-34 -61 q-24 -49 -35 -105t-11 -112q0 -48 9 -89.5t29 -72t52 -48.5t78 -18q39 0 60.5 9t35.5 21q13 12 26.5 26t33.5 14q19 0 32.5 -13t13.5 -33q0 -9 -3 -17t-8 -13q-75 -87 -191 -87q-74 0 -124 28t-80.5 73.5t-44 102.5t-13.5 115zM266 279q0 -8 1 -15.5t3 -13.5t6 -6 q14 0 27 25.5t22.5 60t16 68t8.5 48.5q-17 -7 -32.5 -24.5t-26.5 -39.5t-18 -46.5t-7 -45.5v-11z" />
<glyph unicode="A" d="M54 45q0 3 0.5 6t1.5 7l215 642q5 14 16.5 22.5t25.5 8.5t25.5 -8t16.5 -23l215 -642q2 -8 2 -13q0 -19 -13 -32t-32 -13q-14 0 -25.5 8t-16.5 23l-62 186h-219l-63 -186q-5 -14 -16 -22.5t-26 -8.5q-18 0 -31.5 13t-13.5 32zM232 306h162l-81 240z" />
<glyph unicode="B" d="M54 45v642q0 19 13.5 31.5t31.5 12.5h259q33 0 67.5 -10.5t62 -34.5t45.5 -63t18 -96q0 -52 -14.5 -88.5t-37.5 -64.5q33 -26 53 -66t20 -99q0 -61 -20 -101t-49.5 -64.5t-63 -34t-60.5 -9.5h-280q-19 0 -32 13t-13 32zM144 89h235q7 0 24 2.5t35 14.5t31 36t13 67 t-13 65t-31 33q-19 12 -45 16h-249v-234zM144 412h246q5 0 17 3.5t24 15.5t21.5 35t9.5 61q0 42 -13.5 65t-31.5 34t-34.5 13.5t-24.5 2.5h-214v-230z" />
<glyph unicode="C" d="M54 366q0 83 16 150.5t48.5 115t81 73t112.5 25.5q58 0 103 -18t77 -47t51.5 -67t27.5 -78q1 -3 1 -8q0 -20 -16.5 -31t-29.5 -11t-26 8.5t-17 26.5l-8 24q-7 22 -26 46.5t-51.5 45t-85.5 20.5q-50 0 -82 -22.5t-51.5 -61t-27.5 -88t-8 -103.5t8 -104t27.5 -88.5 t51.5 -61.5t82 -23q33 0 58.5 10t44.5 24.5t32 32t21 33t12 26.5t4 12q4 17 17 25t25 8q15 0 30 -10.5t15 -33.5q0 -8 -1 -12v-1q-1 -4 -7.5 -20.5t-19.5 -39t-33 -48t-48 -46.5t-65 -35t-84 -14q-66 0 -114 26t-80.5 73.5t-48.5 115.5t-16 151z" />
<glyph unicode="D" d="M54 45v642q0 19 13.5 31.5t31.5 12.5h194q69 0 121 -26t87.5 -73.5t53 -115t17.5 -150.5t-17.5 -151t-53 -115.5t-88.5 -73.5t-121 -26h-193q-19 0 -32 13t-13 32zM144 89h148q60 0 97.5 26.5t58 67.5t27.5 90t7 93q0 45 -7 93.5t-27.5 89t-57.5 67t-97 26.5h-149v-553z " />
<glyph unicode="E" d="M54 45v642q0 19 13.5 31.5t31.5 12.5h428q18 0 31.5 -12t13.5 -32q0 -17 -12.5 -31t-32.5 -14h-383v-231h255q18 0 31.5 -13.5t13.5 -30.5q0 -18 -13 -31.5t-32 -13.5h-255v-232h383q19 0 32 -14t13 -31q0 -19 -12.5 -32t-32.5 -13h-428q-19 0 -32 13t-13 32z" />
<glyph unicode="F" d="M54 45v642q0 19 13.5 31.5t31.5 12.5h428q18 0 31.5 -12t13.5 -32q0 -18 -12.5 -31.5t-32.5 -13.5h-383v-231h255q18 0 31.5 -13.5t13.5 -31.5q0 -17 -13 -30.5t-32 -13.5h-255v-277q0 -19 -13 -32t-32 -13t-32 13t-13 32z" />
<glyph unicode="G" d="M54 366q0 83 16.5 150.5t49 115t81 73t112.5 25.5q105 0 169 -56t89 -152q1 -3 1 -9q0 -10 -5 -18t-11.5 -13.5t-14 -8.5t-14.5 -3q-13 0 -26.5 8.5t-17.5 26.5q0 3 -7 24.5t-26 46t-51.5 45t-85.5 20.5q-50 0 -82.5 -22.5t-51.5 -61t-27 -88t-8 -103.5t8 -104t27 -88.5 t51.5 -61.5t82.5 -23q54 0 87 14t51.5 36t24.5 50t6 56v33h-147q-18 0 -31 13t-13 32t12.5 32t31.5 13h192q19 0 32 -13t13 -32v-78q0 -22 -3.5 -49t-13.5 -54t-28 -53t-47 -45.5t-69.5 -31.5t-97.5 -12q-65 0 -113 26t-80.5 73.5t-49 115.5t-16.5 151z" />
<glyph unicode="H" d="M52 47v636q0 20 13.5 34t33.5 14q19 0 33 -14t14 -34v-268h334v268q0 20 14 34t33 14q20 0 33.5 -14t13.5 -34v-636q0 -20 -13 -33.5t-34 -13.5q-19 0 -33 13.5t-14 33.5v275h-334v-275q0 -20 -13.5 -33.5t-33.5 -13.5t-33.5 13.5t-13.5 33.5z" />
<glyph unicode="I" d="M268 45v642q0 19 14 31.5t31 12.5t31 -12t14 -32v-642q0 -19 -13 -32t-32 -13q-18 0 -31.5 13t-13.5 32z" />
<glyph unicode="J" d="M109 205q0 18 12.5 31.5t32.5 13.5q17 0 30.5 -13.5t13.5 -31.5q0 -24 9 -45t25 -36.5t37 -25t45 -9.5t45 9.5t37 25t25 36.5t9 45v482q0 19 13.5 31.5t30.5 12.5q18 0 31.5 -12t13.5 -32v-482q0 -42 -16.5 -79.5t-44 -65t-65 -44t-79.5 -16.5q-43 0 -80 16.5t-65 44 t-44 65t-16 79.5z" />
<glyph unicode="K" d="M54 45v642q0 19 13.5 31.5t31.5 12.5q17 0 31 -12t14 -32v-267l333 281q6 6 14 9t16 3q17 0 30.5 -13.5t13.5 -31.5q0 -20 -16 -34l-259 -218l286 -343q10 -13 10 -28q0 -19 -12.5 -32t-32.5 -13q-19 0 -34 15l-284 343l-65 -54v-259q0 -19 -13 -32t-32 -13t-32 13 t-13 32z" />
<glyph unicode="L" d="M54 45v641q0 19 13 32t32 13q18 0 31.5 -12.5t13.5 -32.5v-597h383q19 0 32 -13.5t13 -30.5q0 -19 -12.5 -32t-32.5 -13h-428q-19 0 -32 13t-13 32z" />
<glyph unicode="M" d="M54 45v641q0 19 13.5 32t31.5 13q12 0 24 -7t17 -18l173 -382l173 382q5 11 17 18t24 7q18 0 31.5 -12.5t13.5 -32.5v-641q0 -19 -12.5 -32t-32.5 -13q-18 0 -31.5 13t-13.5 32v436l-128 -283q-5 -12 -16 -19.5t-25 -7.5q-13 0 -24 7t-17 20l-128 283v-436q0 -19 -13 -32 t-32 -13t-32 13t-13 32z" />
<glyph unicode="N" d="M54 45v641q0 19 13.5 32t31.5 13q23 0 37 -19l346 -521v495q0 19 13.5 32t31.5 13t31 -12t13 -31v-645q0 -24 -16 -33.5t-29 -9.5q-23 0 -38 19l-344 520v-494q0 -19 -13 -32t-32 -13t-32 13t-13 32z" />
<glyph unicode="O" d="M54 367q0 60 13 124.5t42.5 118t79.5 87.5t124 34q65 0 113.5 -25.5t81 -73t48.5 -115t16 -150.5t-16 -151.5t-48.5 -116t-81 -73.5t-113.5 -26q-75 0 -124.5 34.5t-79 88t-42.5 118.5t-13 126zM144 367q0 -12 1 -37.5t6.5 -56.5t15.5 -63.5t29 -59.5t47.5 -44t69.5 -17 q53 0 86 26.5t51.5 67t25 90t6.5 94.5t-6.5 93.5t-25 89t-51 66.5t-86.5 26q-41 0 -69.5 -17t-47.5 -43.5t-29 -59t-15.5 -63t-6.5 -55.5t-1 -37z" />
<glyph unicode="P" d="M54 45v641q0 19 13 32t32 13h284q20 0 52 -5.5t62.5 -26.5t52.5 -61t22 -109q0 -50 -12.5 -85t-32.5 -58.5t-43.5 -36t-44.5 -18.5t-37 -7.5t-20 -1.5h-238v-277q0 -19 -13 -32t-32 -13t-32 13t-13 32zM144 411h238q7 0 23.5 2.5t33.5 13.5t30 35t13 67q0 37 -8.5 59 t-23 34t-32 16t-35.5 4h-239v-231z" />
<glyph unicode="Q" d="M54 362q0 61 13 126.5t43 119.5t80 88.5t124 34.5q65 0 113.5 -26t81 -74.5t48 -117t15.5 -151.5q0 -115 -31 -198t-99 -129q3 -6 5 -8.5t4 -7.5t5.5 -15l11.5 -32q3 -9 3 -17q0 -18 -14 -31t-31 -13q-11 0 -22.5 6.5t-18.5 22.5l-25 62q-12 -2 -24 -2h-23 q-75 0 -124.5 34t-79 87t-42.5 117t-13 124zM144 362q0 -12 1 -37t6.5 -55t15.5 -62.5t29 -59t47.5 -43.5t70.5 -17h12l-22 56q-3 9 -3 17q0 20 15 32.5t32 12.5q11 0 22 -6.5t16 -23.5l14 -36q5 -12 7 -16q3 -4 2 -3q22 20 36 47t22.5 58.5t11.5 66.5t3 69q0 54 -7.5 105 t-26.5 90t-51 62t-83 23q-42 0 -70.5 -17.5t-47.5 -44t-29 -60t-15.5 -64t-6.5 -56.5t-1 -38z" />
<glyph unicode="R" d="M54 45v641q0 19 13 32t32 13h283q20 0 52 -5.5t62.5 -26.5t52.5 -61t22 -109q0 -43 -10 -75t-26.5 -55t-38 -38.5t-42.5 -24.5l115 -275q3 -7 3 -16q0 -19 -12.5 -32t-31.5 -13q-13 0 -24.5 7t-17.5 21l-124 294h-218v-277q0 -19 -13.5 -32t-31.5 -13q-19 0 -32 13 t-13 32zM144 411h237q7 0 23.5 2.5t33.5 13.5t30 35t13 67q0 37 -8.5 59t-23 34t-32 16t-35.5 4h-238v-231z" />
<glyph unicode="S" d="M109 131q0 22 14.5 32.5t29.5 10.5q14 0 22 -6t15 -15.5t14 -20.5t20 -20.5t34.5 -15.5t54.5 -6q17 0 37.5 5t38 18.5t29 35.5t11.5 57q0 26 -8.5 43t-25 30t-40.5 23.5t-56 22.5t-65.5 27t-61.5 37.5t-45.5 55.5t-17.5 81q0 46 15 83.5t42.5 64.5t64.5 42t82 15 q74 0 128.5 -28t74.5 -88q2 -4 2 -14q0 -18 -12.5 -31t-31.5 -13q-15 0 -23.5 6t-14.5 16l-13 21q-7 11 -20 20.5t-34 15.5t-56 6q-53 0 -84 -30.5t-31 -85.5q0 -39 19 -59.5t56 -37.5l46 -17.5l46 -17.5t45.5 -20.5t42.5 -26.5q29 -24 47 -58t18 -83q0 -53 -18.5 -91.5 t-47.5 -64t-65.5 -38t-73.5 -12.5q-74 0 -127.5 28t-74.5 87q-2 5 -2 16z" />
<glyph unicode="T" d="M54 686q0 19 13 32t32 13h428q19 0 32 -12.5t13 -32.5q0 -18 -12.5 -31.5t-32.5 -13.5h-169v-596q0 -19 -13 -32t-32 -13q-18 0 -31.5 13t-13.5 32v596h-169q-19 0 -32 14t-13 31z" />
<glyph unicode="U" d="M54 281v405q0 19 13 32t32 13q17 0 31 -12.5t14 -32.5v-405q0 -96 44 -144t125 -48t125 47.5t44 144.5v405q0 19 14 32t31 13q19 0 32 -12.5t13 -32.5v-405q0 -65 -17.5 -116.5t-51 -88t-81.5 -56.5t-109 -20q-60 0 -108 20t-81.5 56.5t-51.5 88t-18 116.5z" />
<glyph unicode="V" d="M109 686q0 19 12.5 32t31.5 13q14 0 27 -9t17 -26l116 -469l117 469q4 16 17 25.5t27 9.5q18 0 31 -12.5t13 -32.5q0 -7 -1 -10l-161 -642q-3 -15 -15 -24.5t-28 -9.5q-15 0 -27.5 9t-15.5 25l-160 642q-1 3 -1 10z" />
<glyph unicode="W" d="M54 685q-1 6 1 14t7.5 15t14 12t20.5 5q14 0 29 -9t17 -31l58 -429l69 245q4 14 16.5 23t26.5 9t26.5 -9t16.5 -23l70 -245l57 430q2 22 17.5 30.5t28.5 8.5q24 0 34 -17q9 -15 9 -29q0 -3 -1 -5l-86 -641q-2 -17 -14 -28t-30 -11q-14 0 -26 9t-16 24l-86 299l-86 -299 q-5 -17 -17.5 -25t-25.5 -8q-19 0 -30 12.5t-13 26.5z" />
<glyph unicode="X" d="M54 45q0 11 7 24l199 297l-199 296q-7 14 -7 24q0 19 13 32t32 13q23 0 37 -19l177 -266l177 266q14 19 37 19q19 0 32 -12.5t13 -32.5q0 -10 -7 -24l-198 -296l198 -297q7 -12 7 -24q0 -19 -12.5 -32t-32.5 -13q-23 0 -37 19l-177 266l-177 -266q-14 -19 -37 -19 q-19 0 -32 13t-13 32z" />
<glyph unicode="Y" d="M54 686q0 17 13 31t32 14q20 0 36 -17l178 -233l179 233q15 17 35 17q19 0 32 -13t13 -32q0 -14 -9 -27l-205 -265v-350q0 -18 -13 -31t-32 -13q-18 0 -31.5 13t-13.5 31v350l-205 265q-9 12 -9 27z" />
<glyph unicode="Z" d="M54 45q0 11 7 24l383 572h-345q-19 0 -32 14t-13 31q0 19 13 32t32 13h428q22 0 33.5 -14t11.5 -31q0 -10 -7 -24l-382 -573h344q19 0 32 -13.5t13 -30.5q0 -19 -12.5 -32t-32.5 -13h-428q-19 0 -32 13t-13 32z" />
<glyph unicode="[" d="M220 -45v731q0 19 13.5 32t31.5 13h111q19 0 32 -12.5t13 -32.5q0 -17 -13 -30.5t-32 -13.5h-66v-642h66q19 0 32 -13t13 -32q0 -17 -13 -30.5t-32 -13.5h-111q-18 0 -31.5 13.5t-13.5 30.5z" />
<glyph unicode="\" d="M81 724q0 20 13.5 32.5t30.5 12.5q12 0 23 -6t17 -19l377 -717q4 -11 4 -22q0 -18 -13 -31.5t-31 -13.5q-29 0 -40 25l-377 717q-4 12 -4 22z" />
<glyph unicode="]" d="M220 -45q0 19 13.5 32t31.5 13h66v642h-66q-17 0 -31 13.5t-14 30.5q0 19 14 32t31 13h111q19 0 32 -12.5t13 -32.5v-731q0 -17 -13 -30.5t-32 -13.5h-111q-18 0 -31.5 13.5t-13.5 30.5z" />
<glyph unicode="^" d="M191 573q0 15 10 28l79 97q13 16 33 17q20 0 34 -17l79 -97q9 -12 9 -28q0 -17 -12.5 -30.5t-30.5 -13.5q-19 0 -34 17q-8 11 -20 25.5l-25 30.5l-45 -56q-6 -8 -15 -12.5t-17 -4.5q-18 0 -31.5 13.5t-13.5 30.5z" />
<glyph unicode="_" d="M-44 -82q0 19 13.5 32t31.5 13h636q19 0 32 -12.5t13 -32.5q0 -17 -13 -30t-32 -13h-636q-18 0 -31.5 13t-13.5 30z" />
<glyph unicode="`" d="M207 676q0 18 13 37t40 19q20 0 39 -14q2 -1 17 -18l93 -91q6 -6 8.5 -13.5t2.5 -15.5q0 -19 -12.5 -30t-28.5 -11q-13 0 -24 7l-126 84q-3 2 -12.5 12.5t-9.5 33.5z" />
<glyph unicode="a" d="M83 164q0 43 21 76.5t56 58t80.5 37t94.5 12.5q23 0 50.5 -2.5t55.5 -7.5q-8 39 -32.5 55t-73.5 16q-35 0 -64 -6t-52 -14q-27 -9 -47 -20q-5 -2 -9 -4q-10 -4 -12 -5q-17 0 -31.5 12t-14.5 32t12.5 30t27.5 19q43 22 92 34t98 12q95 0 147.5 -49t52.5 -146v-259 q0 -19 -13 -32t-32 -13q-13 0 -23.5 6.5t-15.5 18.5q-39 -13 -73.5 -19t-61.5 -6q-49 0 -92 9.5t-74 29.5t-49 51t-18 74zM171 164q0 -35 34 -55t111 -20q24 0 59.5 4.5t70.5 20.5v133q-29 5 -58.5 8.5t-52.5 3.5q-40 0 -71 -8.5t-51 -22.5t-31 -31t-11 -33z" />
<glyph unicode="b" d="M97 45v642q0 19 13 31.5t32 12.5q17 0 30.5 -12t13.5 -32v-220q17 11 34.5 18t33.5 10t30.5 3.5t25.5 0.5q49 0 89 -20.5t69.5 -55t45 -81t15.5 -98.5q0 -56 -17 -102t-47.5 -77t-70 -48t-84.5 -17q-42 0 -72.5 8.5t-53.5 22.5q-5 -14 -16 -22.5t-26 -8.5q-19 0 -32 13 t-13 32zM186 141q24 -27 55 -39.5t69 -12.5q29 0 52.5 12t40.5 33t26.5 49t9.5 61q0 39 -10 70t-27.5 52.5t-41 33t-50.5 11.5q-44 0 -74.5 -14t-49.5 -60v-196z" />
<glyph unicode="c" d="M86 250q0 54 18.5 99.5t51 78.5t78 52t98.5 19q52 0 99 -17.5t84 -53.5q13 -13 13 -31q0 -22 -14 -33.5t-31 -11.5q-16 0 -27 9l-25 19q-14 11 -36.5 20t-62.5 9q-35 0 -63.5 -12t-49.5 -32.5t-33 -49.5t-12 -65q0 -35 13 -64.5t35.5 -51t53 -33.5t65.5 -12q34 0 55.5 10 t38 21t28.5 21t27 10q17 0 31.5 -12.5t14.5 -33.5q0 -16 -14 -31q-37 -36 -83 -55t-97 -19q-53 0 -100 19t-81.5 52.5t-54.5 79.5t-20 99z" />
<glyph unicode="d" d="M97 244q0 52 16 98.5t45 81t69 55t89 20.5q11 0 25.5 -0.5t31 -3.5t34 -10t33.5 -18v220q0 19 13.5 31.5t30.5 12.5q19 0 32 -12t13 -32v-642q0 -19 -12.5 -32t-32.5 -13q-14 0 -25.5 8t-16.5 23q-23 -13 -53.5 -22t-72.5 -9q-44 0 -83.5 17t-70 48t-48 77t-17.5 102z M187 244q0 -33 10 -61t27 -49t40.5 -33t51.5 -12q38 0 69.5 13t54.5 39v196q-18 46 -49 59.5t-75 13.5q-27 0 -50 -11.5t-40.5 -33t-28 -52t-10.5 -69.5z" />
<glyph unicode="e" d="M63 249q0 54 20.5 99.5t56 79.5t82.5 53t101 19q52 0 95.5 -18.5t75 -52t49 -79.5t17.5 -101q0 -18 -13 -31t-32 -13h-354q17 -57 60 -86.5t100 -29.5q47 0 72.5 11.5t41 24.5t26 24.5t26.5 11.5q17 0 31 -12t14 -32q0 -15 -7 -26q-34 -41 -85.5 -66t-118.5 -25 q-53 0 -100.5 19t-82.5 52t-55 79t-20 99zM161 294h304q-13 60 -51 87.5t-91 27.5q-56 0 -100.5 -29.5t-61.5 -85.5z" />
<glyph unicode="f" d="M140 454q0 18 13 31.5t32 13.5h65v81q0 75 47 113t126 38q18 0 31 -12.5t13 -31.5q0 -18 -13 -31.5t-31 -13.5q-44 0 -64.5 -14t-20.5 -48v-81h103q19 0 32 -13.5t13 -31.5t-12.5 -31t-32.5 -13h-103v-365q0 -19 -13 -32t-30 -13q-19 0 -32 13t-13 32v365h-65 q-19 0 -32 13t-13 31z" />
<glyph unicode="g" d="M85 -97q0 18 13 31t30 13q14 0 30 -13t37.5 -28t49.5 -27.5t67 -12.5q68 0 105.5 36t37.5 103v23q-30 -16 -61.5 -22t-62.5 -6q-53 0 -98.5 18.5t-78 51.5t-51 79t-18.5 101q0 49 18.5 94t51 79.5t78 55t98.5 20.5q73 0 126.5 -31t85.5 -95v-368q0 -51 -16.5 -93 t-46 -71.5t-72.5 -46t-96 -16.5q-57 0 -108 21.5t-93 57.5q-8 8 -17 20t-9 26zM173 250q0 -38 12.5 -67.5t33.5 -50.5t49.5 -32t62.5 -11q41 0 72 12.5t52 42.5v207q-20 33 -51 46t-73 13q-33 0 -61.5 -13t-50 -34.5t-34 -50.5t-12.5 -62z" />
<glyph unicode="h" d="M108 45v642q0 18 13 31t32 13q18 0 31.5 -12.5t13.5 -31.5v-240q38 20 79.5 36t82.5 16q50 0 81.5 -22t48.5 -56t23 -74t6 -75v-227q0 -19 -13 -32t-32 -13q-18 0 -31.5 13t-13.5 32v227q0 22 -1.5 46t-8 44.5t-21 34t-40.5 13.5q-18 0 -39 -6.5t-42 -15.5t-41.5 -21 t-37.5 -23v-299q0 -19 -13.5 -32t-31.5 -13t-31.5 13t-13.5 32z" />
<glyph unicode="i" d="M233 651q0 33 24 56.5t56 23.5q33 0 56.5 -23.5t23.5 -56.5q0 -16 -6 -30.5t-17 -25t-25.5 -17t-31.5 -6.5q-16 0 -31 6.5t-25.5 17t-17 25t-6.5 30.5zM269 44v411q0 17 13.5 30.5t30.5 13.5t30.5 -13.5t13.5 -30.5v-411q0 -18 -13 -31t-31 -13q-17 0 -30.5 13t-13.5 31z " />
<glyph unicode="j" d="M133 -45q0 18 11 31.5t33 13.5q24 0 33 -12.5t11 -26.5q4 -29 23.5 -49t51.5 -20q31 0 52 21.5t21 54.5v486q0 17 12 31t32 14q18 0 31.5 -14t13.5 -31v-486q0 -34 -13 -64t-35 -52.5t-51.5 -35.5t-63.5 -13q-31 0 -59.5 11t-51.5 31t-37 48t-14 62zM332 649q0 34 24 58 t58 24q33 0 56.5 -24t23.5 -58q0 -16 -6.5 -30.5t-17 -25t-25.5 -17.5t-31 -7q-34 0 -58 23.5t-24 56.5z" />
<glyph unicode="k" d="M97 45v641q0 18 13 31.5t32 13.5q18 0 31.5 -13t13.5 -32v-394l226 193q13 11 28 12q22 0 33.5 -14.5t11.5 -30.5q0 -19 -15 -34l-140 -120l188 -225q10 -13 10 -28q0 -19 -12.5 -32t-32.5 -13q-19 0 -33 15l-188 226l-76 -67v-129q0 -19 -13 -32t-32 -13t-32 13t-13 32z " />
<glyph unicode="l" d="M268 45v641q0 18 13.5 31.5t31.5 13.5t31.5 -13t13.5 -32v-641q0 -19 -13 -32t-32 -13q-18 0 -31.5 13t-13.5 32z" />
<glyph unicode="m" d="M54 45v409q0 17 13 31t32 14q12 0 24 -7.5t17 -18.5q14 11 34 18.5t37 7.5q34 0 61 -13.5t46 -36.5q20 23 47 36.5t60 13.5q37 0 64.5 -14.5t46 -40t27.5 -61t9 -76.5v-262q0 -19 -12.5 -32t-32.5 -13q-17 0 -31 13t-14 32v262q0 48 -12.5 75t-44.5 27q-11 0 -23 -7 t-21.5 -19.5t-16 -31t-6.5 -43.5v-263q0 -19 -13 -32t-32 -13q-18 0 -31.5 13t-13.5 32v262q0 48 -12.5 75t-44.5 27q-24 0 -45.5 -26t-21.5 -75v-263q0 -19 -13.5 -32t-31.5 -13q-19 0 -32 13t-13 32z" />
<glyph unicode="n" d="M109 45v409q0 17 12 31t32 14q18 0 31.5 -14t13.5 -31v-10q39 24 79.5 39.5t81.5 15.5q50 0 81.5 -21.5t48.5 -55t23 -73t6 -75.5v-229q0 -19 -12.5 -32t-31.5 -13q-18 0 -31.5 13t-13.5 32v229q0 22 -1.5 46t-8.5 44t-21.5 33.5t-41.5 13.5q-19 0 -41 -7.5t-43.5 -18.5 t-41 -26t-32.5 -29v-285q0 -19 -13.5 -32t-31.5 -13t-31 13t-13 32z" />
<glyph unicode="o" d="M61 250q0 54 19.5 99.5t53.5 78.5t80 52t99 19q54 0 100.5 -19t80 -52t53 -78.5t19.5 -99.5q0 -53 -19.5 -99.5t-53 -79.5t-79.5 -52t-101 -19q-53 0 -99 19t-80 52t-53.5 79.5t-19.5 99.5zM152 250q0 -35 12 -64.5t33.5 -51t51.5 -33.5t64 -12q36 0 66 12t51.5 33.5 t33.5 51t12 64.5h1q0 35 -12 64t-34 50t-52 33t-66 12q-35 0 -64.5 -12t-51 -33t-33.5 -50t-12 -64z" />
<glyph unicode="p" d="M93 -189v644q0 17 13 30.5t32 13.5q14 0 25.5 -9t15.5 -22q24 12 54.5 21.5t72.5 9.5q45 0 84.5 -17t69.5 -48.5t47.5 -76.5t17.5 -102q0 -52 -15.5 -98.5t-45 -81t-69.5 -55t-89 -20.5q-23 0 -56.5 4t-68.5 28v-221q0 -17 -12.5 -30t-30.5 -13t-31.5 13t-13.5 30z M181 161q19 -45 50 -58.5t75 -13.5q27 0 50.5 11.5t41 33t27.5 52t10 69.5q0 34 -9.5 62t-26.5 48.5t-40.5 32.5t-52.5 12q-78 0 -125 -52v-197z" />
<glyph unicode="q" d="M93 255q0 57 18 102t47.5 76.5t69.5 48.5t84 17q43 0 73.5 -9.5t52.5 -21.5q5 13 16.5 22t25.5 9q19 0 32 -13.5t13 -30.5v-644q0 -17 -12.5 -30t-31.5 -13q-18 0 -31.5 12.5t-13.5 30.5v221q-35 -24 -68 -28t-56 -4q-49 0 -89.5 20.5t-69 55t-44.5 81t-16 98.5zM183 255 q0 -39 10.5 -69.5t28 -52t41 -33t49.5 -11.5q44 0 75 13.5t49 58.5v197q-24 27 -55 39.5t-69 12.5q-29 0 -52 -12t-40 -32.5t-27 -48.5t-10 -62z" />
<glyph unicode="r" d="M108 45v409q0 18 13 31.5t32 13.5q18 0 31.5 -13.5t13.5 -31.5v-19q42 27 86 45.5t83 18.5q43 0 74.5 -12t64.5 -46q13 -13 13 -30q0 -20 -15 -32t-30 -12q-17 0 -32 12q-9 10 -16.5 16t-16 9.5t-18 4.5t-24.5 1q-16 0 -39 -8t-46 -20t-45 -27t-39 -29v-281 q0 -19 -13.5 -32t-31.5 -13t-31.5 13t-13.5 32z" />
<glyph unicode="s" d="M108 88q0 20 14 32t31 12q11 0 24 -8q36 -24 68.5 -30.5t77.5 -6.5q57 0 81.5 19t24.5 40q0 12 -4 21t-16.5 14.5t-35 10t-58.5 7.5q-34 3 -70 8.5t-67 21t-50.5 45t-19.5 80.5q0 38 16.5 65t46 45t69 26.5t84.5 8.5q12 0 40.5 -5.5t58 -16t52 -26.5t22.5 -37 q0 -20 -14.5 -32t-30.5 -12q-18 0 -30 10q-6 6 -18.5 11.5t-26 9t-28 6.5t-25.5 3q-37 0 -61 -5.5t-39 -13t-21 -17t-6 -20.5q0 -19 5.5 -30.5t19.5 -18t39 -10t63 -7.5q33 -3 67.5 -9.5t62.5 -20.5t46.5 -40.5t18.5 -71.5q0 -37 -16 -64t-43 -45.5t-62.5 -27.5t-73.5 -9 q-22 0 -45 1t-47 5.5t-50 15t-55 28.5q-19 13 -19 38z" />
<glyph unicode="t" d="M102 454q0 18 13 31.5t32 13.5h121v187q0 19 13.5 32t31.5 13t31.5 -12.5t13.5 -32.5v-187h121q19 0 32 -13.5t13 -31.5t-12.5 -31t-32.5 -13h-121v-365q0 -19 -13 -32t-32 -13q-18 0 -31.5 13t-13.5 32v365h-121q-19 0 -32 13t-13 31z" />
<glyph unicode="u" d="M108 223v231q0 18 13 31.5t32 13.5q18 0 31.5 -13.5t13.5 -31.5v-231q0 -48 7 -75t19.5 -40t28 -16t33.5 -3q27 0 49.5 6t41 15t32 19t20.5 18v307q0 18 13.5 31.5t31.5 13.5t31.5 -13.5t13.5 -31.5v-409q0 -19 -13 -32t-32 -13q-16 0 -29 10t-15 28q-32 -17 -67.5 -27.5 t-76.5 -10.5q-49 0 -83.5 15.5t-55.5 44t-30 70t-9 93.5z" />
<glyph unicode="v" d="M115 454q0 17 12.5 30.5t31.5 13.5q14 0 25.5 -8t16.5 -21l112 -298l112 298q5 13 17 21.5t25 8.5q18 0 31.5 -14t13.5 -31q0 -8 -3 -17l-154 -407q-5 -14 -16 -22t-26 -8q-14 0 -25.5 7.5t-16.5 22.5l-153 407q-3 9 -3 17z" />
<glyph unicode="w" d="M56 455q0 22 15.5 33t29.5 11t26.5 -9t17.5 -26l62 -255l61 192q5 15 17.5 23t24.5 8q13 0 25.5 -7.5t17.5 -23.5l62 -192l61 256q4 17 17 25.5t26 8.5q14 0 29.5 -11t15.5 -33q0 -7 -1 -11l-99 -409q-4 -17 -17 -26t-27 -9q-12 0 -24.5 7.5t-17.5 24.5l-68 210l-66 -210 q-5 -16 -17.5 -24t-25.5 -8t-26 8.5t-17 26.5l-100 407q-1 4 -1.5 7t-0.5 6z" />
<glyph unicode="x" d="M115 45q0 14 8 26l135 179l-134 177q-9 11 -9 27q0 18 13 31.5t32 13.5q23 0 36 -19l117 -156l117 156q15 18 36 19q18 0 31.5 -13.5t13.5 -31.5q0 -15 -8 -27l-134 -177l134 -179q9 -10 9 -26q0 -19 -14 -32t-31 -13q-10 0 -20 4.5t-16 12.5l-118 158l-117 -158 q-7 -8 -17 -12.5t-19 -4.5q-18 0 -31.5 13t-13.5 32z" />
<glyph unicode="y" d="M108 455q0 20 13.5 32t31.5 12q11 0 23.5 -7.5t18.5 -21.5l119 -322l118 322q5 15 18 22t24 7q17 0 31 -11.5t14 -32.5q0 -7 -3 -16l-235 -643q-5 -13 -16.5 -20.5t-24.5 -7.5q-19 0 -32 12.5t-13 31.5q0 8 3 16l69 191l-156 419q-3 10 -3 17z" />
<glyph unicode="z" d="M103 454q0 18 13 31.5t32 13.5h319q18 0 31.5 -13.5t13.5 -31.5q0 -15 -9 -27l-253 -338h229q19 0 32 -13.5t13 -30.5q0 -19 -12.5 -32t-32.5 -13h-319q-18 0 -31 13t-13 32q0 16 8 26l254 339h-230q-19 0 -32 13t-13 31z" />
<glyph unicode="{" d="M195 323q0 20 14.5 34t33.5 14q5 0 9.5 4.5t8 10.5t5.5 12t2 9v224q0 31 13 50t31 30t36.5 14.5t29.5 3.5q19 0 31.5 -13.5t12.5 -31.5t-13 -31.5t-31 -13.5q-13 0 -16.5 -3t-3.5 -5v-253q0 -15 -7.5 -31t-27.5 -23q20 -8 27.5 -22.5t7.5 -31.5v-253q0 -5 6.5 -10 t22.5 -5q13 0 24 -7t11 -31q0 -18 -14 -27.5t-32 -9.5q-25 0 -44.5 3.5t-33.5 13.5t-22 27.5t-8 45.5v227q0 7 -6 17.5t-19 10.5q-6 0 -15 4t-16 11t-12 16.5t-5 19.5z" />
<glyph unicode="|" d="M268 -135v822q0 18 13.5 31.5t31.5 13.5t31.5 -13t13.5 -32v-822q0 -18 -13 -31t-32 -13q-18 0 -31.5 13t-13.5 31z" />
<glyph unicode="}" d="M195 684q0 18 12.5 31.5t32.5 13.5q11 0 29.5 -3.5t36 -14.5t30 -30t12.5 -50v-224q0 -2 2 -8.5t5.5 -12.5t9 -10.5t10.5 -4.5q17 0 32 -14t15 -34q0 -22 -17 -36.5t-30 -14.5t-20 -10.5t-7 -17.5v-227q0 -29 -7.5 -46t-21.5 -27t-33.5 -13.5t-43.5 -3.5q-19 0 -32.5 9.5 t-13.5 27.5q0 24 10 31t23 7q17 0 23.5 5t6.5 10v253q0 16 7.5 30.5t28.5 23.5q-20 7 -28 22.5t-8 31.5v253q0 2 -3.5 5t-15.5 3q-19 0 -32 13.5t-13 31.5z" />
<glyph unicode="~" d="M133 425q0 16 10 32t25.5 29t35.5 20.5t40 7.5q24 0 42.5 -8t35 -18.5t31.5 -18.5t30 -8q9 0 14.5 6.5l12 14.5t15 15t24.5 7q17 0 31 -13.5t14 -32.5q0 -8 -6 -22q0 -1 -6.5 -11.5t-19.5 -23t-32.5 -22.5t-46.5 -10t-47.5 8t-37.5 18l-30 19q-13 8 -24 8q-9 0 -15 -6.5 t-12 -15t-14.5 -15t-24.5 -6.5q-17 0 -31 13.5t-14 32.5z" />
<glyph unicode="&#x2013;" d="M0 366q0 18 13.5 32t32.5 14h535q19 0 32.5 -14t13.5 -32q0 -19 -13.5 -33.5t-32.5 -14.5h-535q-19 0 -32.5 14.5t-13.5 33.5z" />
<glyph unicode="&#x2014;" d="M0 366q0 18 13.5 32t32.5 14h535q19 0 32.5 -14t13.5 -32q0 -19 -13.5 -33.5t-32.5 -14.5h-535q-19 0 -32.5 14.5t-13.5 33.5z" />
<glyph unicode="&#x2018;" d="M231 572q0 52 30 90t73 65q8 4 18 4q13 0 24 -8.5t11 -24.5q0 -4 -2 -12q-1 -5 -8 -11l-15 -12l-13 -11.5t-6 -10.5q0 -3 6 -6q19 -11 32.5 -30t13.5 -43q0 -34 -21.5 -56t-57.5 -22q-38 0 -61.5 26t-23.5 62z" />
<glyph unicode="&#x2019;" d="M231 654q0 34 21.5 55.5t57.5 21.5q38 0 61.5 -26t23.5 -62q0 -52 -29.5 -90t-72.5 -64q-8 -5 -19 -5q-13 0 -23.5 9.5t-10.5 23.5q0 4 2 12q2 5 8 12l14 12l14 12q6 6 6 9t-6 7q-19 11 -33 30t-14 43z" />
<glyph unicode="&#x201c;" d="M133 572q0 52 30 90t73 65q7 4 17 4q13 0 24.5 -8.5t11.5 -24.5q0 -6 -3 -12q-1 -5 -8 -11l-15 -12l-13 -11.5t-6 -10.5q0 -3 6 -6q19 -11 32.5 -30t13.5 -43q0 -34 -21.5 -56t-57.5 -22q-38 0 -61 26t-23 62zM331 572q0 52 29.5 90t72.5 65q7 4 19 4q13 0 23.5 -8.5 t10.5 -24.5q0 -4 -2 -12q-1 -5 -8 -11l-14.5 -12l-14 -11.5t-6.5 -10.5q0 -2 8 -6q19 -11 32 -30t13 -43q0 -34 -21 -56t-57 -22q-38 0 -61.5 26t-23.5 62z" />
<glyph unicode="&#x201d;" d="M133 654q0 34 21 55.5t57 21.5q38 0 61.5 -26t23.5 -62q0 -52 -29.5 -90t-72.5 -64q-8 -5 -19 -5q-13 0 -24 9.5t-11 23.5q0 4 2 12q2 5 9 11.5t14.5 12.5t13.5 11.5t6 9.5q0 3 -7 7q-19 11 -32 30t-13 43zM331 654q0 34 21.5 55.5t57.5 21.5q38 0 61 -26t23 -62 q0 -52 -29.5 -90t-72.5 -64q-10 -5 -18 -5q-13 0 -24.5 9.5t-11.5 23.5q0 3 1 6l2 6q2 5 9 12l14 12l13 12q6 6 6 9t-6 7q-19 11 -32.5 30t-13.5 43z" />
<glyph unicode="&#x2026;" d="M18 87q0 35 24.5 60t60.5 25q17 0 33.5 -6t28.5 -17.5t20 -27.5t8 -34q0 -36 -26 -61.5t-62 -25.5t-61.5 25.5t-25.5 61.5zM226 87q0 36 26 61t61 25q36 0 61.5 -25t25.5 -61t-25.5 -61.5t-61.5 -25.5t-61.5 25.5t-25.5 61.5zM434 87q0 36 25 60t61 24q34 0 61 -23 t27 -61q0 -36 -25.5 -61.5t-61.5 -25.5q-17 0 -33 6.5t-27.5 18.5t-19 28t-7.5 34z" />
<glyph unicode="&#xe000;" horiz-adv-x="500" d="M0 500h500v-500h-500v500z" />
</font>
</defs>
</svg>
