<svg xmlns="http://www.w3.org/2000/svg" viewBox="0 0 80 80">
  <path fill="#02B3E4" fill-rule="evenodd" d="M33.347,20 L20,27.656 L20.001,45.291 L20.001,45.291 C19.976,53.39 26.522,59.975 34.621,60 C37.299,60.008 39.812,59.298 41.976,58.051 L41.976,58.051 L52.788,51.839 C57.053,49.626 59.973,45.176 59.989,40.038 L59.99,21.621 L59.99,21.621 L59.99,21.621 L57.344,20.073 L46.002,26.199 L46.003,26.2 L46.003,26.2 L45.999,45.372 C45.997,46.188 45.938,47.002 45.774,47.792 C45.614,48.561 45.377,49.316 45.069,50.038 C44.989,50.225 44.904,50.41 44.815,50.593 C44.367,50.596 41.956,49.722 40.629,48.825 C40.065,48.441 39.534,48.001 39.053,47.516 C38.571,47.031 38.134,46.498 37.754,45.932 C37.371,45.361 37.042,44.751 36.777,44.118 C36.507,43.475 36.3,42.802 36.163,42.118 C36.021,41.415 35.99,40.69 35.992,39.965 L35.992,39.965 L36.001,21.549 L33.347,20 L33.347,20 Z M39.753,56.22 C39.029,56.524 38.02,56.923 37.251,57.078 C36.46,57.237 35.731,57.317 34.915,57.314 C34.099,57.312 33.285,57.227 32.495,57.063 C31.726,56.903 30.97,56.666 30.248,56.358 C29.539,56.055 28.854,55.681 28.214,55.246 C26.563,54.086 25.711,53.081 24.98,51.992 C24.549,51.349 24.179,50.663 23.88,49.951 C23.576,49.227 23.344,48.47 23.189,47.7 C23.03,46.909 22.997,46.094 22.999,45.278 L23.002,29.182 L32.999,23.073 L32.999,39.951 L32.998,39.951 C32.978,46.364 37.701,51.718 43.731,53.011 C43.495,53.293 43.324,53.565 43.063,53.824 C41.942,54.962 41,55.691 39.753,56.22 L39.753,56.22 Z M56.826,42.212 C56.684,42.895 56.473,43.567 56.2,44.209 C55.931,44.84 55.598,45.448 55.212,46.017 C54.828,46.581 53.635,48.071 51.988,49.012 C50.341,49.953 48.906,50.224 47.967,50.403 C48.573,48.803 48.994,47.195 49,45.383 L49,45.383 L49,27.746 L49,27.746 L57,23.152 L57.003,40.03 C57,40.755 56.972,41.51 56.826,42.212 L56.826,42.212 Z"/>
</svg>
