<svg xmlns="http://www.w3.org/2000/svg" viewBox="0 0 50 50" enable-background="new 0 0 50 50"><path fill="none" d="M29.6 9.1c-2.5-2-5.8-3.1-9.2-3.1-3.4 0-6.7 1.1-9.2 3.2-.5.4-1.1.9-1.5 1.4-5 5.6-4.3 14 1.6 18.7 2.5 2 5.8 3.1 9.2 3.1 3.4 0 6.7-1.1 9.2-3.2.5-.4 1-.9 1.5-1.4 2.4-2.7 3.6-6.1 3.3-9.7-.3-3.5-2-6.7-4.9-9z"/><path fill="#01B3E3" d="M48.7 42.1L37.1 30.4l.5-.7c2.5-3.6 3.7-7.8 3.3-12.1-.4-5.1-3-9.8-7.1-13.1C30 1.6 25.3 0 20.4 0c-5 0-9.7 1.7-13.4 4.6-.7.7-1.5 1.4-2.1 2.1-7.3 8.1-6.3 20.3 2.3 27.1 3.7 2.9 8.4 4.5 13.2 4.5 2.9 0 5.6-.5 8.2-1.6l.8-.3.6.6c.1.1.1.1.2.2l11.2 11.2c1.1 1.1 2.6 1.6 4.1 1.5 1.1-.1 2.2-.5 3-1.2 1.9-1.7 2-4.7.2-6.6zM31.2 27.8c-.5.5-1 1-1.5 1.4-2.5 2.1-5.8 3.2-9.2 3.2-3.4 0-6.6-1.1-9.2-3.1-5.9-4.7-6.7-13.1-1.6-18.7.5-.5 1-1 1.5-1.4C13.7 7.1 17 6 20.4 6c3.4 0 6.6 1.1 9.2 3.1 2.9 2.3 4.6 5.5 4.9 9 .3 3.5-.8 7-3.3 9.7z"/></svg>