<?xml version="1.0" encoding="utf-8"?>
<!-- Generator: Adobe Illustrator 19.2.0, SVG Export Plug-In . SVG Version: 6.00 Build 0)  -->
<svg version="1.1" id="Layer_1" xmlns="http://www.w3.org/2000/svg" xmlns:xlink="http://www.w3.org/1999/xlink" x="0px" y="0px"
	 width="240px" height="500px" viewBox="0 0 240 500" enable-background="new 0 0 240 500" xml:space="preserve">
<title>sprites</title>
<polygon fill="#5EBA7D" points="48,280.8 48,288.4 56.5,296 73,281.2 73,273 56.5,287.9 "/>
<polygon fill="#5EBA7D" points="22.4,324 22.4,327.5 26.5,331.1 33.4,324.9 33.4,321.1 26.5,327.3 "/>
<polygon fill="#C9CBCF" points="8,280.8 8,288.4 16.6,296 33,281.2 33,273 16.6,287.9 "/>
<polygon fill="#F48024" points="45,191 74,191 59.6,176 "/>
<polygon fill="#858C93" points="5,191 34,191 19.5,176 "/>
<polygon fill="#F48024" points="59.6,243 74,228 45,228 "/>
<polygon fill="#F48024" points="6.5,322.3 0,329.3 13,329.3 "/>
<polygon fill="#858C93" points="7.2,386.5 0.2,380 0.2,393 "/>
<polygon fill="#858C93" points="54.1,473.6 47.1,467.2 47.1,480.2 "/>
<polygon fill="#858C93" points="6.5,473.7 13.5,480.2 13.5,467.2 "/>
<polygon fill="#858C93" points="26.8,390 33.2,383 20.2,383 "/>
<polygon fill="#BBBFC3" points="6.5,341.3 0,348.3 13,348.3 "/>
<polygon fill="#858C93" points="19.5,243 34,228 5,228 "/>
<polygon fill="#C9CBCF" points="19.5,120 22.4,129.2 32,129.2 24.3,134.8 27.3,144 19.5,138.3 11.7,144 14.7,134.8 7,129.2 
	16.6,129.2 "/>
<polygon fill="#FFD83D" points="59.6,120 62.5,129.2 72.1,129.2 64.4,134.8 67.4,144 59.6,138.3 51.8,144 54.8,134.8 47.1,129.2 
	56.7,129.2 "/>
<path fill="#EAC328" d="M59.6,123.3l2.2,6.9H69l-5.8,4.2l2.3,6.9l-5.9-4.3l-5.9,4.3l2.3-6.9l-5.8-4.2h7.3L59.6,123.3 M59.6,120
	l-2.9,9.2h-9.6l7.7,5.6l-3,9.2l7.8-5.7l7.8,5.7l-3-9.2l7.7-5.6h-9.6L59.6,120L59.6,120L59.6,120z"/>
<circle fill="#D1A684" cx="65" cy="405" r="3"/>
<circle fill="#B4B8BC" cx="85" cy="405" r="3"/>
<circle fill="#FFCC01" cx="105" cy="405" r="3"/>
<rect x="47.2" y="367" fill="#93999F" width="2" height="2"/>
<rect x="50.2" y="370" fill="#93999F" width="2" height="2"/>
<rect x="56.2" y="370" fill="#93999F" width="2" height="2"/>
<rect x="62.2" y="370" fill="#93999F" width="2" height="2"/>
<rect x="68.2" y="370" fill="#93999F" width="2" height="2"/>
<rect x="53.3" y="367" fill="#93999F" width="2" height="2"/>
<rect x="59.3" y="367" fill="#93999F" width="2" height="2"/>
<rect x="65.3" y="367" fill="#93999F" width="2" height="2"/>
<rect x="71.4" y="367" fill="#93999F" width="2" height="2"/>
<path fill="#C9CBCF" d="M0.2,400v31h3.4c0.2-5.2,3.4-9.9,8.3-11.8V418c-3.1-2.1-3.9-6.3-1.8-9.4s6.3-3.9,9.4-1.8s3.9,6.3,1.8,9.4
	c-0.5,0.7-1.1,1.4-1.8,1.8v1.2c4.9,1.9,8.1,6.6,8.3,11.8h3.4v-31H0.2z"/>
<path fill="#FFFFFF" d="M3.7,431H28c-0.2-5.2-3.4-9.9-8.3-11.8V418c3.1-2.1,3.9-6.3,1.8-9.4s-6.3-3.9-9.4-1.8s-3.9,6.3-1.8,9.4
	c0.5,0.7,1.1,1.4,1.8,1.8v1.2C7.2,421.1,3.9,425.8,3.7,431z"/>
<rect x="60.3" y="340" fill="#BBBFC3" width="1.9" height="14"/>
<rect x="63.2" y="341" fill="#C9CBCF" width="10.1" height="8"/>
<rect x="60.3" y="320.1" fill="#DD3C4C" width="1.9" height="14"/>
<rect x="63.2" y="321.1" fill="#EEC4C8" width="10.1" height="8"/>
<rect x="80.3" y="320.1" fill="#FE6502" width="14" height="14"/>
<path fill="#FFFFFF" d="M83.5,329.5c-0.8,0-1.4,0.6-1.4,1.4s0.6,1.4,1.4,1.4s1.4-0.6,1.4-1.4l0,0C84.9,330.1,84.3,329.5,83.5,329.5z
	 M82.1,325.5v2c2.6,0,4.8,2.1,4.8,4.8l0,0h2c0.1-3.7-2.9-6.7-6.6-6.8C82.3,325.5,82.2,325.5,82.1,325.5z M82.1,321.9v2
	c4.6,0,8.4,3.8,8.4,8.4h2C92.5,326.6,87.8,321.9,82.1,321.9z"/>
<polygon fill="#6C737A" points="22.6,347.1 21.9,350.3 25.1,349.6 "/>
<rect x="23.9" y="344.1" transform="matrix(0.7071 -0.7071 0.7071 0.7071 -236.8119 119.966)" fill="#6C737A" width="5.1" height="3.5"/>
<path fill="#6C737A" d="M29.1,341.3c-0.4,0-0.8,0.1-1.1,0.4l-0.7,0.7l2.5,2.5l0.7-0.7c0.2-0.3,0.4-0.7,0.4-1.1
	C30.9,342.1,30.1,341.3,29.1,341.3L29.1,341.3z"/>
<circle fill="#C91D2E" cx="107" cy="451.8" r="6.5"/>
<path fill="#FFFFFF" d="M110.2,453.7L110.2,453.7l-1.9-1.9l1.9-1.9l0,0v-0.3l-0.9-0.9c-0.1-0.1-0.1-0.1-0.2,0H109l-1.9,1.9l-1.9-1.9
	h-0.3l-0.9,0.9c-0.1,0.1-0.1,0.1,0,0.2v0.1l0,0l1.9,1.9l-1.9,1.9l0,0v0.3l0.9,0.9c0.1,0.1,0.1,0.1,0.2,0h0.1l1.9-1.9l1.9,1.9h0.3
	l0.9-0.9V453.7L110.2,453.7z"/>
<circle fill="#C91D2E" cx="47.2" cy="346.9" r="6.5"/>
<path fill="#FFFFFF" d="M50.4,348.8L50.4,348.8l-1.9-1.9l1.9-1.9l0,0v-0.3l-0.9-0.9c-0.1-0.1-0.1-0.1-0.2,0h-0.1l-1.9,1.9l-1.9-1.9
	h-0.3l-0.9,0.9c-0.1,0.1-0.1,0.1,0,0.2v0.1l0,0l1.9,1.9l-1.9,1.9l0,0v0.3l0.9,0.9c0.1,0.1,0.1,0.1,0.2,0h0.1l1.9-1.9l1.9,1.9h0.3
	l0.9-0.9V348.8L50.4,348.8z"/>
<circle fill="#C9CBCF" cx="47.2" cy="326.1" r="6.5"/>
<path fill="#FFFFFF" d="M50.4,328.1L50.4,328.1l-1.9-1.9l1.9-1.9l0,0V324l-0.9-0.9c-0.1-0.1-0.1-0.1-0.2,0h-0.1l-2,1.8l-1.9-1.9H45
	l-0.9,0.9c-0.1,0.1-0.1,0.1,0,0.2v0.1l0,0l1.9,1.9l-1.9,1.9l0,0v0.3l0.9,0.9c0.1,0.1,0.1,0.1,0.2,0h0.1l1.9-1.9l1.9,1.9h0.3l0.9-0.9
	C50.4,328.3,50.4,328.2,50.4,328.1L50.4,328.1L50.4,328.1z"/>
<path fill="#222426" d="M42.8,31.4l-2.2-0.2c-1.7-0.1-2.3-0.8-2.3-2c0-1.4,1-2.2,3-2.2c1.3-0.1,2.6,0.3,3.6,1.1l1.3-1.3
	c-1.4-1-3.1-1.5-4.8-1.4c-2.9,0-4.9,1.5-4.9,3.9c0,2.2,1.4,3.4,4,3.6l2.2,0.2c1.6,0.1,2.2,0.8,2.2,2c0,1.6-1.4,2.4-3.6,2.4
	c-1.6,0.1-3.1-0.5-4.2-1.6l-1.3,1.3c1.5,1.4,3.5,2,5.5,1.9c3.2,0,5.5-1.5,5.5-4.1S45.2,31.6,42.8,31.4z M59.6,25.3
	c-2.2,0-3.5,0.4-4.7,1.9l1.3,1.3c0.8-1.1,2.1-1.7,3.4-1.5c2.5,0,3.4,1,3.4,2.9v1.3h-4c-3,0-4.6,1.5-4.6,3.9c0,1,0.3,2,1,2.7
	c0.8,0.9,1.9,1.2,3.8,1.2c1.4,0.1,2.9-0.4,3.9-1.4v1.3h2v-9.1C65,26.9,63.2,25.3,59.6,25.3z M63,34.2c0.1,0.8-0.1,1.7-0.7,2.3
	c-0.8,0.7-1.9,1-3,0.9c-2.1,0-3.1-0.7-3.1-2.3s1-2.4,3-2.4H63V34.2z M72.7,27.1c1.2,0,2.4,0.5,3.1,1.5l1.3-1.3
	c-1.1-1.3-2.7-2.1-4.4-2c-3.4,0-5.9,2.3-5.9,6.9s2.6,6.9,5.9,6.9c1.7,0.1,3.3-0.7,4.4-2l-1.3-1.3c-0.7,1-1.9,1.5-3.1,1.5
	c-1.2,0.1-2.4-0.5-3.1-1.5c-0.7-1.1-1-2.3-0.9-3.6c-0.1-1.3,0.2-2.5,0.9-3.6C70.3,27.6,71.5,27,72.7,27.1z M89.5,25.5h-2.4L81,31.4
	V19.5h-2v19.4h2V34l2.4-2.4l4.5,7.3h2.4l-5.6-8.6L89.5,25.5z M98.7,24.8c-1.6-0.1-3.2,0.5-4.3,1.7c-1.3,1.3-1.6,2.9-1.6,5.4
	s0.3,4.1,1.6,5.4c1.1,1.1,2.7,1.7,4.3,1.7c1.6,0.1,3.2-0.5,4.3-1.7c1.3-1.3,1.6-2.9,1.6-5.4s-0.3-4.1-1.6-5.4
	C101.9,25.3,100.3,24.7,98.7,24.8z M100.4,35.3c-0.9,0.8-2.3,0.8-3.2,0c-0.7-0.7-0.8-2-0.8-3.4s0.1-2.7,0.8-3.4
	c0.9-0.8,2.3-0.8,3.2,0c0.7,0.7,0.8,1.9,0.8,3.4C101.2,33.4,101.1,34.6,100.4,35.3z M114,24.9l-2.8,8.6l-2.8-8.6h-3.7l5.2,14h2.7
	l5.1-14C117.7,24.9,114,24.9,114,24.9z M123.6,24.8c-3.6,0-6.1,2.6-6.1,7.1c0,5.7,3.2,7.2,6.5,7.2c2,0.1,4-0.7,5.3-2.2l-2.1-2.1
	c-0.8,0.9-2,1.4-3.2,1.3c-1.6,0.1-3-1.1-3.1-2.7c0-0.1,0-0.3,0-0.4h8.7v-1.6C129.7,27.6,127.5,24.8,123.6,24.8z M120.9,30.6
	c0-0.5,0.1-1,0.3-1.5c0.4-0.9,1.3-1.4,2.3-1.4c1-0.1,1.9,0.5,2.3,1.4c0.2,0.5,0.3,1,0.3,1.5H120.9L120.9,30.6z M134.8,26.3V25h-3.4
	v14h3.5v-8.4c-0.1-1.3,0.8-2.4,2.1-2.6c0.1,0,0.1,0,0.2,0c0.7,0,1.4,0.3,1.8,0.8l2.6-2.6c-0.8-0.9-2.1-1.4-3.3-1.3
	C137,24.8,135.7,25.3,134.8,26.3z M142.7,23.5v15.4h3.5v-11h2.6v-2.7h-2.6v-1.5c-0.1-0.6,0.3-1.2,0.9-1.3c0.1,0,0.2,0,0.3,0h1.3v-3
	h-2c-2.1-0.1-3.9,1.6-4,3.8C142.7,23.3,142.7,23.4,142.7,23.5z M163.1,24.8c-1.6-0.1-3.2,0.5-4.3,1.7c-1.3,1.3-1.6,2.9-1.6,5.4
	s0.3,4.1,1.6,5.4c1.1,1.1,2.7,1.7,4.3,1.7c1.6,0.1,3.2-0.5,4.3-1.7c1.3-1.3,1.6-2.9,1.6-5.4s-0.3-4.1-1.6-5.4
	C166.3,25.3,164.7,24.7,163.1,24.8L163.1,24.8z M164.8,35.3c-0.9,0.8-2.3,0.8-3.2,0c-0.7-0.7-0.8-2-0.8-3.4s0.1-2.7,0.8-3.4
	c0.9-0.8,2.3-0.8,3.2,0c0.7,0.7,0.8,1.9,0.8,3.4C165.6,33.4,165.5,34.6,164.8,35.3L164.8,35.3z M185.5,24.9l-2.3,8.6l-2.9-8.6h-2.5
	l-2.8,8.7l-2.3-8.6H169l4.3,14h2.9l2.9-8.8L182,39h3l4.3-14L185.5,24.9L185.5,24.9L185.5,24.9z M153.9,34.7V19.5h-3.5v15.4
	c-0.1,2.1,1.5,3.9,3.6,4c0.2,0,0.3,0,0.5,0h2v-3h-1.3c-0.6,0.1-1.1-0.2-1.3-0.8C153.9,35,153.9,34.8,153.9,34.7L153.9,34.7z
	 M54,25.8h-3.7v-4.4h-2v13.9c0,2,1.1,3.6,3.4,3.6h1.4v-1.7h-1c-1.3,0-1.8-0.7-1.8-2v-7.7h1.9L54,25.8z"/>
<polygon fill="#BCBBBB" points="26.5,42.2 26.5,32.3 29.8,32.3 29.8,45.5 0,45.5 0,32.3 3.3,32.3 3.3,42.2 "/>
<path fill="#F48024" d="M7,31.4l16.2,3.4l0.7-3.2L7.7,28.2L7,31.4z M9.1,23.6l15,7l1.4-3l-15-7L9.1,23.6z M13.3,16.2L26,26.8
	l2.1-2.5L15.4,13.7L13.3,16.2z M21.5,8.4l-2.7,2l9.9,13.3l2.7-2L21.5,8.4z M6.6,38.9h16.6v-3.3H6.6C6.6,35.6,6.6,38.9,6.6,38.9z"/>
</svg>
