<?xml version="1.0" encoding="utf-8"?>
<!-- Generator: Adobe Illustrator 19.0.1, SVG Export Plug-In . SVG Version: 6.00 Build 0)  -->
<svg version="1.1" id="Layer_1" xmlns="http://www.w3.org/2000/svg" xmlns:xlink="http://www.w3.org/1999/xlink" x="0px" y="0px"
	 width="322px" height="500px" viewBox="-318 31 322 500" style="enable-background:new -318 31 322 500;" xml:space="preserve">
<style type="text/css">
	.st0{fill:#44B449;}
	.st1{fill:#1A699B;}
	.st2{fill:#818185;}
	.st3{fill:#B8B8B8;}
	.st4{fill:#FFCC00;}
	.st5{fill:#C5C5C5;}
	.st6{fill:#CC9966;}
	.st7{fill:#9E9E9E;}
	.st8{fill:#FFFFFF;}
	.st9{fill:#CCCCCC;}
	.st10{fill:#D35F5F;}
	.st11{fill:#F89393;}
	.st12{fill:#FE6502;}
	.st13{fill:#7A7A7A;}
	.st14{fill:#C03433;}
	.st15{fill:#808080;}
	.st16{fill:#E4A82D;}
	.st17{fill:#88BE15;}
	.st18{fill:#E74C3C;}
	.st19{fill:#2C3E50;}
	.st20{fill:#EA4A34;}
</style>
<g id="Layer_2_1_">
</g>
<g>
	<polygon class="st0" points="-295.5,355.1 -295.5,358.6 -291.4,362.2 -284.5,356 -284.5,352.2 -291.4,358.4 	"/>
</g>
<polygon class="st1" points="-311.4,353.4 -317.9,360.4 -304.9,360.4 "/>
<polygon class="st2" points="-310.7,417.6 -317.7,411.1 -317.7,424.1 "/>
<polygon class="st2" points="-263.8,504.7 -270.8,498.3 -270.8,511.3 "/>
<polygon class="st2" points="-311.4,504.8 -304.4,511.3 -304.4,498.3 "/>
<polygon class="st2" points="-291.1,421.1 -284.7,414.1 -297.7,414.1 "/>
<polygon class="st3" points="-311.4,372.4 -317.9,379.4 -304.9,379.4 "/>
<circle class="st4" cx="-214.2" cy="436.1" r="3"/>
<circle class="st5" cx="-233.9" cy="436.1" r="3"/>
<circle class="st6" cx="-253.7" cy="436.1" r="3"/>
<rect x="-270.7" y="398.1" class="st7" width="2" height="2"/>
<rect x="-267.7" y="401.1" class="st7" width="2" height="2"/>
<rect x="-261.7" y="401.1" class="st7" width="2" height="2"/>
<rect x="-255.7" y="401.1" class="st7" width="2" height="2"/>
<rect x="-249.7" y="401.1" class="st7" width="2" height="2"/>
<rect x="-264.6" y="398.1" class="st7" width="2" height="2"/>
<rect x="-258.6" y="398.1" class="st7" width="2" height="2"/>
<rect x="-252.6" y="398.1" class="st7" width="2" height="2"/>
<rect x="-246.5" y="398.1" class="st7" width="2" height="2"/>
<g>
	<path class="st5" d="M-317.7,431.1v31h3.4c0.3-5.5,3.7-10.1,8.3-11.8v-1.2c-1.8-1.2-3-3.3-3-5.6c0-3.7,3-6.7,6.8-6.7s6.8,3,6.8,6.7
		c0,2.3-1.2,4.4-3,5.6v1.2c4.6,1.7,8,6.3,8.3,11.8h3.4v-31H-317.7z"/>
	<path class="st8" d="M-314.2,462.1h24.3c-0.3-5.5-3.7-10.1-8.3-11.8v-1.2c1.8-1.2,3-3.3,3-5.6c0-3.7-3-6.7-6.8-6.7s-6.8,3-6.8,6.7
		c0,2.3,1.2,4.4,3,5.6v1.2C-310.4,452-313.9,456.6-314.2,462.1z"/>
</g>
<g>
	<rect x="-257.6" y="371.1" class="st3" width="1.9" height="14"/>
	<rect x="-254.7" y="372.1" class="st9" width="10.1" height="8"/>
</g>
<g>
	<rect x="-257.6" y="351.2" class="st10" width="1.9" height="14"/>
	<rect x="-254.7" y="352.2" class="st11" width="10.1" height="8"/>
</g>
<g>
	<rect x="-237.6" y="351.2" class="st12" width="14" height="14"/>
	<path class="st8" d="M-234.4,360.6c-0.8,0-1.4,0.6-1.4,1.4s0.6,1.4,1.4,1.4s1.4-0.6,1.4-1.4C-233,361.3-233.6,360.6-234.4,360.6z
		 M-235.8,356.6v2c1.3,0,2.5,0.5,3.4,1.4s1.4,2.1,1.4,3.4h2C-228.9,359.6-232,356.6-235.8,356.6z M-235.8,353v2
		c4.6,0,8.4,3.8,8.4,8.4h2C-225.4,357.7-230.1,353-235.8,353z"/>
</g>
<g>
	<polygon class="st13" points="-295.3,378.2 -296,381.4 -292.8,380.7 	"/>
	
		<rect x="-293.2" y="374.5" transform="matrix(-0.7071 -0.7071 0.7071 -0.7071 -764.1253 437.5342)" class="st13" width="3.5" height="5.1"/>
	<path class="st13" d="M-288.8,372.4c-0.4,0-0.8,0.1-1.1,0.4l-0.7,0.7l2.5,2.5l0.7-0.7c0.2-0.3,0.4-0.7,0.4-1.1
		C-287,373.2-287.8,372.4-288.8,372.4z"/>
</g>
<g>
	<circle class="st14" cx="-210.9" cy="482.9" r="6.5"/>
	<path class="st8" d="M-207.7,484.8L-207.7,484.8l-1.9-1.9l1.9-1.9l0,0c0,0,0,0,0-0.1s0-0.2,0-0.2l-0.9-0.9c-0.1-0.1-0.1-0.1-0.2,0
		h-0.1l0,0l-1.9,1.9l-1.9-1.9l0,0c0,0,0,0-0.1,0s-0.2,0-0.2,0l-0.9,0.9c-0.1,0.1-0.1,0.1,0,0.2v0.1l0,0l1.9,1.9l-1.9,1.9l0,0
		c0,0,0,0,0,0.1s0,0.2,0,0.2l0.9,0.9c0.1,0.1,0.1,0.1,0.2,0h0.1l0,0l1.9-1.9l1.9,1.9l0,0c0,0,0,0,0.1,0s0.2,0,0.2,0l0.9-0.9
		C-207.7,485.1-207.7,485-207.7,484.8C-207.7,484.9-207.7,484.9-207.7,484.8z"/>
</g>
<g>
	<circle class="st14" cx="-270.7" cy="378" r="6.5"/>
	<path class="st8" d="M-267.5,379.9L-267.5,379.9l-1.9-1.9l1.9-1.9l0,0c0,0,0,0,0-0.1s0-0.2,0-0.2l-0.9-0.9c-0.1-0.1-0.1-0.1-0.2,0
		h-0.1l0,0l-1.9,1.9l-1.9-1.9l0,0c0,0,0,0-0.1,0s-0.2,0-0.2,0l-0.9,0.9c-0.1,0.1-0.1,0.1,0,0.2v0.1l0,0l1.9,1.9l-1.9,1.9l0,0
		c0,0,0,0,0,0.1s0,0.2,0,0.2l0.9,0.9c0.1,0.1,0.1,0.1,0.2,0h0.1l0,0l1.9-1.9l1.9,1.9l0,0c0,0,0,0,0.1,0s0.2,0,0.2,0l0.9-0.9
		C-267.5,380.1-267.5,380-267.5,379.9C-267.5,380-267.5,379.9-267.5,379.9z"/>
</g>
<g>
	<circle class="st9" cx="-270.7" cy="357.2" r="6.5"/>
	<path class="st8" d="M-267.5,359.2L-267.5,359.2l-1.9-1.9l1.9-1.9l0,0c0,0,0,0,0-0.1s0-0.2,0-0.2l-0.9-0.9c-0.1-0.1-0.1-0.1-0.2,0
		h-0.1l0,0l-2,1.8l-1.9-1.9l0,0c0,0,0,0-0.1,0s-0.2,0-0.2,0l-0.9,0.9c-0.1,0.1-0.1,0.1,0,0.2v0.1l0,0l1.9,1.9l-1.9,1.9l0,0
		c0,0,0,0,0,0.1s0,0.2,0,0.2l0.9,0.9c0.1,0.1,0.1,0.1,0.2,0h0.1l0,0l1.9-1.9l1.9,1.9l0,0c0,0,0,0,0.1,0s0.2,0,0.2,0l0.9-0.9
		C-267.5,359.4-267.5,359.3-267.5,359.2L-267.5,359.2z"/>
</g>
<g>
	<rect x="-299.4" y="201.9" class="st15" width="2" height="39.2"/>
	<g>
		<polygon class="st8" points="-310,232.2 -286,232.2 -298.4,207.2 		"/>
		<path class="st15" d="M-298.3,212l9,18.2h-17.4L-298.3,212 M-298.4,207.2l-11.6,25h24L-298.4,207.2L-298.4,207.2z"/>
	</g>
</g>
<g>
	<rect x="-299.4" y="251" class="st15" width="2" height="39.2"/>
	<g>
		<polygon class="st8" points="-310,259.9 -286,259.9 -298.4,284.9 		"/>
		<path class="st15" d="M-298.3,280.1l-8.5-18.2h17.4L-298.3,280.1 M-298.4,284.9l12.4-25h-24L-298.4,284.9L-298.4,284.9z"/>
	</g>
</g>
<rect x="-259.4" y="201.9" class="st1" width="2" height="39.2"/>
<g>
	<polygon class="st1" points="-270,232.2 -246,232.2 -258.4,207.2 	"/>
</g>
<rect x="-259.4" y="251" class="st1" width="2" height="39.2"/>
<g>
	<polygon class="st1" points="-270,259.9 -246,259.9 -258.4,284.9 	"/>
</g>
<g>
	<rect x="-299.4" y="151.1" class="st15" width="2" height="39.2"/>
	<g>
		<circle class="st8" cx="-298.4" cy="169.5" r="13.5"/>
		<path class="st15" d="M-298.4,158c6.3,0,11.5,5.2,11.5,11.5s-5.2,11.5-11.5,11.5s-11.5-5.1-11.5-11.5S-304.7,158-298.4,158
			 M-298.4,156c-7.5,0-13.5,6.1-13.5,13.5s6,13.5,13.5,13.5s13.5-6,13.5-13.5S-290.9,156-298.4,156L-298.4,156z"/>
	</g>
	<g>
		<g>
			<polygon class="st8" points="-298.4,157.3 -295.6,166 -286.6,166 -293.9,171.3 -291,180 -298.4,174.6 -305.8,180 -302.9,171.3 
				-310.2,166 -301.2,166 			"/>
			<path class="st15" d="M-298.4,163.9l0.9,2.7l0.4,1.4h1.5h2.9l-2.3,1.7l-1.2,0.9l0.5,1.4l0.9,2.7l-2.4-1.7l-1.2-0.9l-1.2,0.9
				l-2.3,1.7l0.9-2.7l0.5-1.4l-1.2-0.9l-2.3-1.7h2.9h1.5l0.4-1.4L-298.4,163.9 M-298.4,157.3l-2.8,8.7h-9.1l7.3,5.3l-2.9,8.7
				l7.4-5.4l7.4,5.4l-2.8-8.7l7.3-5.3h-9.1L-298.4,157.3L-298.4,157.3z"/>
		</g>
	</g>
</g>
<g>
	<rect x="-259.4" y="151.1" class="st16" width="2" height="39.2"/>
	<circle class="st8" cx="-258.4" cy="169.5" r="13.5"/>
	<path class="st16" d="M-258.4,158c6.3,0,11.5,5.2,11.5,11.5s-5.2,11.5-11.5,11.5c-6.3,0-11.5-5.1-11.5-11.5S-264.7,158-258.4,158
		 M-258.4,156c-7.5,0-13.5,6.1-13.5,13.5s6,13.5,13.5,13.5s13.5-6,13.5-13.5S-250.9,156-258.4,156L-258.4,156z"/>
	<g>
		<polygon class="st16" points="-258.4,157.3 -255.6,166 -246.6,166 -253.9,171.3 -251,180 -258.4,174.6 -265.8,180 -262.9,171.3 
			-270.2,166 -261.2,166 		"/>
		<path class="st16" d="M-258.4,157.3l-2.8,8.7h-9.1l7.3,5.3l-2.9,8.7l7.4-5.4l7.4,5.4l-2.8-8.7l7.3-5.3h-9.1L-258.4,157.3
			L-258.4,157.3z"/>
	</g>
	<polyline class="st8" points="-258.4,163.9 -257.5,166.6 -257.1,168 -255.6,168 -252.7,168 -255,169.7 -256.2,170.6 -255.8,172 
		-254.9,174.7 -257.2,173 -258.4,172.1 -259.6,173 -261.9,174.7 -261,172 -260.6,170.6 -261.8,169.7 -264.1,168 -261.2,168 
		-259.7,168 -259.3,166.6 -258.4,163.9 	"/>
</g>
<g>
	<rect x="-299.4" y="301.1" class="st15" width="2" height="39.2"/>
	<g>
		<path class="st8" d="M-298.4,332c-6.9,0-12.5-5.6-12.5-12.5s5.6-12.5,12.5-12.5s12.5,5.6,12.5,12.5S-291.5,332-298.4,332z"/>
		<path class="st15" d="M-298.4,308c6.3,0,11.5,5.2,11.5,11.5s-5.2,11.5-11.5,11.5s-11.5-5.1-11.5-11.5S-304.8,308-298.4,308
			 M-298.4,306c-7.5,0-13.5,6.1-13.5,13.5c0,7.5,6,13.5,13.5,13.5s13.5-6,13.5-13.5C-284.9,312.1-291,306-298.4,306L-298.4,306z"/>
	</g>
	<polygon class="st15" points="-298.4,325.6 -305.7,319.1 -304.3,317.6 -298.4,322.9 -287.9,313.2 -286.5,314.7 	"/>
</g>
<g>
	<rect x="-259.6" y="301.1" class="st17" width="2" height="39.2"/>
	<circle class="st8" cx="-258.6" cy="319.5" r="13.5"/>
	<path class="st17" d="M-258.6,308c6.3,0,11.5,5.2,11.5,11.5s-5.2,11.5-11.5,11.5c-6.3,0-11.5-5.2-11.5-11.5S-264.9,308-258.6,308
		 M-258.6,306c-7.5,0-13.5,6-13.5,13.5s6,13.5,13.5,13.5s13.5-6,13.5-13.5S-251.1,306-258.6,306L-258.6,306z"/>
	<polygon class="st17" points="-258.5,325.6 -265.8,319.1 -264.5,317.6 -258.6,322.9 -248,313.2 -246.7,314.7 	"/>
</g>
<g>
	<g>
		<path class="st18" d="M-245.8,69.4h-19.1c0-8.5,0-17,0-25.5h19.1v4.7h-14.3v5.9h13.8V59h-13.8v5.8h14.3L-245.8,69.4L-245.8,69.4z"
			/>
		<path class="st18" d="M-237.2,43.8v21.1h13.1v4.5h-18V43.8H-237.2z"/>
		<path class="st18" d="M-201.7,69.4h-19.1c0-8.5,0-17,0-25.5h19.1v4.7H-216v5.9h13.8V59H-216v5.8h14.3V69.4z"/>
		<path class="st18" d="M-175.4,66.2c-2.6,2.6-6,3.8-9.7,3.8c-9.5,0-13.5-6.5-13.5-13.2s4.3-13.5,13.5-13.5c3.5,0,6.8,1.3,9.4,3.9
			l-3.2,3.1c-1.7-1.6-3.9-2.4-6.2-2.4c-6.2,0-8.8,4.6-8.8,8.9c0,4.2,2.5,8.7,8.8,8.7c2.2,0,4.7-0.9,6.4-2.6L-175.4,66.2z"/>
		<path class="st18" d="M-166.5,48.2h-8.1v-4.4c7.4,0,13.6,0,21,0v4.4h-8.1v21.2h-4.8L-166.5,48.2L-166.5,48.2z"/>
		<path class="st18" d="M-128,69.4h-5.7l-7.4-8.5h-4.6v8.5h-4.8V43.8c4.1,0,8.1,0,12.2,0c6,0,9.2,4.1,9.2,8.5c0,3.5-1.6,7-6.5,8
			l7.7,8.7L-128,69.4L-128,69.4z M-145.8,48.3v8.2h7.3c3.1,0,4.4-2,4.4-4.1c0-2-1.4-4.1-4.4-4.1L-145.8,48.3z"/>
		<path class="st18" d="M-126,69.4V43.8h4.8v25.5L-126,69.4L-126,69.4z"/>
		<path class="st18" d="M-94.1,66.2c-2.6,2.6-6,3.8-9.7,3.8c-9.5,0-13.5-6.5-13.5-13.2s4.3-13.5,13.5-13.5c3.5,0,6.8,1.3,9.4,3.9
			l-3.2,3.1c-1.7-1.6-3.9-2.4-6.2-2.4c-6.2,0-8.8,4.6-8.8,8.9c0,4.2,2.5,8.7,8.8,8.7c2.2,0,4.7-0.9,6.4-2.6L-94.1,66.2z"/>
		<path class="st18" d="M-74.4,64.6h-13.4l-2.2,4.8h-5.2l11.5-25.5h5.3L-67,69.4h-5.3L-74.4,64.6z M-81.1,49.2l-4.7,10.9h9.5
			L-81.1,49.2z"/>
		<path class="st18" d="M-59.6,43.8v21.1h13.1v4.5h-18V43.8H-59.6z"/>
	</g>
	<g>
		<path class="st19" d="M-255.8,88.4h-9.1c0-4,0-8.1,0-12.2h9.1v2.2h-6.8v2.8h6.6v2.1h-6.6V86h6.8L-255.8,88.4L-255.8,88.4z"/>
		<path class="st19" d="M-241.3,76.3h2.3v12.2h-1.4l0,0l-6.4-8.2v8.2h-2.3V76.3h1.9l6,7.5v-7.5H-241.3z"/>
		<path class="st19" d="M-223.5,79.2c-0.8-0.8-2-1.2-3.1-1.2c-2.6,0-4.2,2-4.2,4.5c0,2,1.2,4.1,4.2,4.1c1,0,1.8-0.2,2.7-1v-2.2h-3.1
			v-2.1h5.2v5.1c-1.2,1.4-2.7,2.2-4.8,2.2c-4.6,0-6.4-3-6.4-6.2c0-3.4,2.1-6.6,6.4-6.6c1.6,0,3.3,0.6,4.5,1.9L-223.5,79.2z"/>
		<path class="st19" d="M-215.5,88.4V76.3h2.3v12.2L-215.5,88.4L-215.5,88.4z"/>
		<path class="st19" d="M-198.8,76.3h2.3v12.2h-1.4l0,0l-6.4-8.2v8.2h-2.3V76.3h1.9l6,7.5v-7.5H-198.8z"/>
		<path class="st19" d="M-181,88.4h-9.1c0-4,0-8.1,0-12.2h9.1v2.2h-6.8v2.8h6.6v2.1h-6.6V86h6.8V88.4z"/>
		<path class="st19" d="M-165.8,88.4h-9.1c0-4,0-8.1,0-12.2h9.1v2.2h-6.8v2.8h6.6v2.1h-6.6V86h6.8V88.4z"/>
		<path class="st19" d="M-148.9,88.4h-2.7l-3.5-4.1h-2.2v4.1h-2.3V76.3c1.9,0,3.9,0,5.8,0c2.9,0,4.4,1.9,4.4,4
			c0,1.7-0.8,3.4-3.1,3.8L-148.9,88.4L-148.9,88.4L-148.9,88.4z M-157.3,78.4v3.9h3.5c1.5,0,2.1-1,2.1-1.9c0-1-0.6-1.9-2.1-1.9
			L-157.3,78.4L-157.3,78.4z"/>
		<path class="st19" d="M-143.6,88.4V76.3h2.3v12.2L-143.6,88.4L-143.6,88.4z"/>
		<path class="st19" d="M-126.8,76.3h2.3v12.2h-1.4l0,0l-6.4-8.2v8.2h-2.3V76.3h1.9l6,7.5L-126.8,76.3L-126.8,76.3z"/>
		<path class="st19" d="M-109,79.2c-0.8-0.8-2-1.2-3.1-1.2c-2.6,0-4.2,2-4.2,4.5c0,2,1.2,4.1,4.2,4.1c1,0,1.8-0.2,2.7-1v-2.2h-3.1
			v-2.1h5.2v5.1c-1.2,1.4-2.7,2.2-4.8,2.2c-4.6,0-6.4-3-6.4-6.2c0-3.4,2.1-6.6,6.4-6.6c1.6,0,3.3,0.6,4.5,1.9L-109,79.2z"/>
	</g>
</g>
<g>
	<path class="st20" d="M-294.2,89.5c-13.1,0-23.8-10.7-23.8-23.8s10.7-23.8,23.8-23.8s23.8,10.7,23.8,23.8S-281,89.5-294.2,89.5z
		 M-294.2,44.8c-11.5,0-20.8,9.4-20.8,20.8s9.4,20.8,20.8,20.8s20.8-9.4,20.8-20.8S-282.7,44.8-294.2,44.8z"/>
	<rect x="-302" y="56" transform="matrix(-0.866 -0.5 0.5 -0.866 -568.8791 -37.5036)" class="st20" width="25.1" height="3"/>
	
		<rect x="-283.9" y="29.7" transform="matrix(-0.866 -0.5001 0.5001 -0.866 -549.638 -56.7848)" class="st20" width="3" height="31.2"/>
	<path class="st20" d="M-288.7,82.1l-22.5-13l22.5-13V82.1z M-305.1,69.1l13.5,7.8V61.3L-305.1,69.1z"/>
	
		<rect x="-307.8" y="71.2" transform="matrix(-0.866 -0.5001 0.5001 -0.866 -614.9769 8.741)" class="st20" width="3" height="31.2"/>
</g>
</svg>
