<svg width="32" height="24" viewBox="0 0 32 24" xmlns="http://www.w3.org/2000/svg"><g stroke="#FFF" stroke-width=".5" fill="#FFF" fill-rule="evenodd"><path d="M4.18 4.906L16.268 9.08l-.208-.572-2.92 4.655.48-.163L1.537 8.72l.204.575 2.912-4.55-.474.16zm.268-.737a.407.407 0 0 0-.474.16L1.06 8.88a.387.387 0 0 0 .204.575l12.08 4.28c.18.063.38-.006.48-.164l2.92-4.654a.387.387 0 0 0-.208-.573L4.448 4.17z"/><path d="M4.65 10.75v6.713c0 .153.09.29.233.355l11.114 4.992a.41.41 0 0 0 .335 0l11.114-4.992a.39.39 0 0 0 .234-.355V10.75h-.803v6.713l.233-.355L15.997 22.1h.335L5.22 17.108l.232.355V10.75H4.65z"/><path d="M28.015 4.17l-12.09 4.173a.387.387 0 0 0-.207.573l2.92 4.655c.1.16.3.228.48.164l12.08-4.28a.387.387 0 0 0 .204-.573L28.49 4.33a.407.407 0 0 0-.475-.16zm.268.736l-.475-.162 2.913 4.55.204-.573L18.844 13l.48.163-2.92-4.655-.21.572 12.09-4.174z"/><path d="M4.486 4.91L16.27 1.768h-.207L28 4.803l.202-.756-11.936-3.033a.41.41 0 0 0-.207 0L4.273 4.157l.212.754zM16.227 9.358V21.23c0 .216.18.39.4.39.223 0 .402-.174.402-.39V9.358c0-.216-.18-.39-.402-.39-.222 0-.4.174-.4.39z"/></g></svg>