<svg width="20" height="16" viewBox="0 0 20 16" xmlns="http://www.w3.org/2000/svg"><title>cc-on</title><path d="M0 2.5C0 1.12 1.118 0 2.493 0h15.014A2.5 2.5 0 0 1 20 2.5v11c0 1.38-1.118 2.5-2.493 2.5H2.493A2.5 2.5 0 0 1 0 13.5v-11zM7.578 11c1.114 0 1.68-.678 2.01-1.356l-.868-.348c-.198.487-.594.853-1.142.853-.925 0-1.51-.908-1.51-2.15 0-1.245.585-2.15 1.51-2.15.53 0 .916.322 1.142.783l.86-.357C9.25 5.636 8.683 5 7.578 5 5.992 5 5 6.252 5 8s.992 3 2.578 3zm5.184 0c1.114 0 1.68-.678 2.01-1.356l-.867-.348c-.2.487-.595.853-1.143.853-.925 0-1.51-.908-1.51-2.15 0-1.245.585-2.15 1.51-2.15.53 0 .916.322 1.143.783l.86-.357C14.432 5.636 13.865 5 12.76 5c-1.586 0-2.578 1.252-2.578 3s.992 3 2.578 3z" fill="#FFF" fill-rule="evenodd"/></svg>