<svg width="32" height="32" viewBox="0 0 32 32" xmlns="http://www.w3.org/2000/svg"><title>icon-error</title><g fill="#FFF" fill-rule="evenodd"><path d="M16 2.237c.088-.176.105-.19 0-.19a.26.26 0 0 1-.155-.04c.037.03.094.106.155.23l13.71 27.42c.163.325.152.343-.208.343H2.498c-.362 0-.372-.017-.21-.342L16 2.238zm-1.79-.895L.5 28.762C-.328 30.42.65 32 2.498 32h27.004c1.847 0 2.824-1.584 1.998-3.237L17.79 1.343c-.865-1.73-2.716-1.727-3.58 0z"/><path d="M15 11.996c0-.55.444-.996 1-.996.552 0 1 .445 1 .996v9.008c0 .55-.444.996-1 .996-.552 0-1-.445-1-.996v-9.008zM16 26a1 1 0 1 0 0-2 1 1 0 0 0 0 2z"/></g></svg>