<svg width="20" height="20" viewBox="0 0 20 20" xmlns="http://www.w3.org/2000/svg"><title>icon-fullscreen</title><path d="M17.498 2h-5.995a.507.507 0 0 0-.503.5c0 .268.225.5.503.5h4.79l-2.67 2.67-2.477 2.476a.502.502 0 0 0 .708.708l2.475-2.476L17 3.708v4.79c0 .27.224.502.5.502.268 0 .5-.225.5-.503V2.503a.503.503 0 0 0-.146-.357.504.504 0 0 0-.356-.146zM2.502 18h5.995c.27 0 .503-.224.503-.5 0-.268-.225-.5-.503-.5h-4.79l2.67-2.67 2.477-2.476a.502.502 0 0 0-.708-.708L5.67 13.622 3 16.292v-4.79A.506.506 0 0 0 2.5 11c-.268 0-.5.225-.5.503v5.994c0 .13.048.258.146.357.1.098.227.146.356.146z" fill="#FFF" fill-rule="evenodd"/></svg>