<svg width="20" height="20" viewBox="0 0 20 20" xmlns="http://www.w3.org/2000/svg"><title>icon-volume-off-alt</title><g fill="none" fill-rule="evenodd"><path d="M6.55 6.5H3.498c-1.1 0-1.997.898-1.997 2.006v2.988c0 1.12.896 2.006 2 2.006h3.05l3.544 3.594c.776.788 1.406.534 1.406-.58V3.484c0-1.105-.632-1.362-1.406-.577L6.55 6.5z" stroke="#FFF"/><path d="M14.737 7.12a.44.44 0 0 0-.61.006.436.436 0 0 0-.005.61L15.885 9.5l-1.763 1.764a.436.436 0 0 0 .005.61c.17.17.45.164.61.005l1.763-1.767 1.763 1.764a.44.44 0 0 0 .61-.006.436.436 0 0 0 .005-.61L17.115 9.5l1.763-1.764a.436.436 0 0 0-.005-.61.44.44 0 0 0-.61-.005L16.5 8.888 14.737 7.12z" fill="#FFF"/></g></svg>