<svg width="32" height="32" viewBox="0 0 32 32" xmlns="http://www.w3.org/2000/svg"><title>icon-replay-big</title><path d="M18.504 4.917l-3.21-3.21A1 1 0 1 1 16.707.292l5 5c.195.195.293.45.293.707 0 .25-.098.51-.293.7l-5 5a1 1 0 0 1-1.414 0c-.39-.39-.39-1.03 0-1.42l3.317-3.31A12.59 12.59 0 0 0 16 6.69c-6.633 0-12 5.22-12 11.65C4 24.77 9.367 30 16 30s12-5.222 12-11.65c0-1.712-.38-3.37-1.104-4.89a1 1 0 1 1 1.805-.86 13.2 13.2 0 0 1 1.3 5.75C30 25.894 23.73 32 16 32S2 25.893 2 18.35C2 10.805 8.274 4.7 16 4.7c.847 0 1.683.073 2.504.217z" fill="#FFF" fill-rule="evenodd"/></svg>