<svg width="20" height="20" viewBox="0 0 20 20" xmlns="http://www.w3.org/2000/svg"><title>icon-cc</title><g transform="translate(0 2)" fill="none" fill-rule="evenodd"><rect stroke="#FFF" x=".5" y=".5" width="19" height="15" rx="2"/><path d="M7.578 11c1.114 0 1.68-.678 2.01-1.356l-.868-.348c-.198.487-.594.853-1.142.853-.925 0-1.51-.906-1.51-2.15 0-1.243.585-2.148 1.51-2.148.53 0 .916.322 1.142.783l.86-.357C9.25 5.635 8.683 5 7.578 5 5.992 5 5 6.252 5 8s.992 3 2.578 3zm5.184 0c1.114 0 1.68-.678 2.01-1.356l-.867-.348c-.2.487-.595.853-1.143.853-.925 0-1.51-.906-1.51-2.15 0-1.243.585-2.148 1.51-2.148.53 0 .916.322 1.143.783l.86-.357C14.432 5.635 13.866 5 12.76 5c-1.586 0-2.578 1.252-2.578 3s.992 3 2.578 3z" fill="#FFF"/></g></svg>