<svg width="20" height="20" viewBox="0 0 20 20" xmlns="http://www.w3.org/2000/svg"><title>Slice 1</title><g fill="none" fill-rule="evenodd"><path d="M18.5 18H.5a.498.498 0 0 1-.5-.5v-13A.498.498 0 0 1 .5 4h6a.5.5 0 0 1 0 1H1v12h17v-2.5a.5.5 0 0 1 1 0v3a.498.498 0 0 1-.5.5z" fill="#FFF"/><path d="M6.26 14c-.156-.027-.26-.16-.26-.35 0-7.178 5.588-8.315 6.996-8.503V2.35c0-.134.078-.24.182-.322.104-.054.26-.027.365.054l6.327 5.33c.078.055.13.162.13.27a.334.334 0 0 1-.13.27l-6.3 5.072c-.105.08-.235.108-.366.027a.375.375 0 0 1-.182-.32v-2.715c-1.226.162-5.25.922-6.396 3.772-.052.134-.157.215-.287.215h-.08z" stroke="#FFF"/></g></svg>