<?xml version="1.0" standalone="no"?>
<!DOCTYPE svg PUBLIC "-//W3C//DTD SVG 1.1//EN" "http://www.w3.org/Graphics/SVG/1.1/DTD/svg11.dtd" >
<svg xmlns="http://www.w3.org/2000/svg">
<metadata>Generated by IcoMoon</metadata>
<defs>
<font id="jiveglyphs" horiz-adv-x="512">
<font-face units-per-em="512" ascent="480" descent="-32" />
<missing-glyph horiz-adv-x="512" />
<glyph unicode="&#x20;" d="" horiz-adv-x="256" />
<glyph unicode="&#x26a1;" d="M320 256h-128l96 224-288-288h128l-96-224 288 288z" horiz-adv-x="320" />
<glyph unicode="&#xe001;" d="M512 184.778l-256 198.713-256-198.714v81.019l256 198.713 256-198.714zM448 192v-192h-128v128h-128v-128h-128v192l192 144z" />
<glyph unicode="&#xe00c;" d="M448 352v64h-448v-352c0-17.673 14.327-32 32-32h432c26.511 0 48 21.489 48 48v272h-64zM416 64h-384v320h384v-320zM64 320h320v-32h-320zM256 256h128v-32h-128zM256 192h128v-32h-128zM256 128h96v-32h-96zM64 256h160v-160h-160z" />
<glyph unicode="&#xe00d;" d="M432 480c44.182 0 80-35.817 80-80 0-18.010-5.955-34.629-16-48l-32-32-112 112 32 32c13.371 10.045 29.989 16 48 16zM32 112l-32-144 144 32 296 296-112 112-296-296zM357.789 298.211l-224-224-27.578 27.578 224 224 27.578-27.578z" />
<glyph unicode="&#xe00e;" d="M397.042 365.044c-40.701 40.526-58.654 88.728-40.099 107.663s66.592 1.432 107.293-39.095c0.23-0.229 0.459-0.458 0.688-0.688 40.701-40.526 58.654-88.729 40.099-107.663s-66.592-1.431-107.293 39.095c-0.23 0.229-0.459 0.458-0.688 0.688zM195.896 73.026l225.637 225.637c13.607-7.621 27.189-13.070 40.16-16.048l-237.693-237.693-224-76.922 76.922 224 237.69 237.691c1.169-5.179 2.738-10.47 4.718-15.841 2.948-8.001 6.768-16.154 11.348-24.302l-225.65-225.653 26.869-26.869 220.66 220.661c5.448-6.685 11.333-13.223 17.62-19.511 6.339-6.339 12.858-12.233 19.485-17.645l-220.635-220.636 26.869-26.869z" />
<glyph unicode="&#xe011;" d="M424 312l-216-216h-80v80l216 216zM451 339l-80 80 28.029 28.029c9.334 9.334 24.607 9.334 33.941 0l46.059-46.059c9.334-9.334 9.334-24.607 0-33.941l-28.029-28.029zM384 198.209v-166.209h-320v320h176l64 64h-256c-26.4 0-48-21.6-48-48v-352c0-26.4 21.6-48 48-48h352c26.4 0 48 21.6 48 48v239.681l-64-57.472z" />
<glyph unicode="&#xe02b;" d="M448 384h-384v-320h384v320zM512 448v0-448h-512v448h512zM416 96h-320v64l96 160 131.5-160 92.5 64v-32zM320 304c0 26.51 21.49 48 48 48s48-21.49 48-48c0-26.51-21.49-48-48-48s-48 21.49-48 48z" />
<glyph unicode="&#xe042;" d="M490.594 399.946c-71.816 10.325-151.166 16.054-234.593 16.054-83.43 0-162.778-5.729-234.597-16.054-13.765-53.863-21.404-113.375-21.404-175.946 0-62.57 7.639-122.083 21.404-175.945 71.819-10.326 151.168-16.055 234.597-16.055 83.427 0 162.776 5.729 234.593 16.055 13.766 53.862 21.406 113.375 21.406 175.945 0 62.571-7.64 122.083-21.406 175.946zM192.001 128v192l160-96-160-96z" />
<glyph unicode="&#xe08e;" d="M416 352h-96v32l-96 96h-224v-384h192v-128h320v288l-96 96zM416 306.745l50.745-50.745h-50.745v50.745zM224 434.745l50.745-50.745h-50.745v50.745zM32 448h160v-96h96v-224h-256v320zM480 0h-256v96h96v224h64v-96h96v-224z" />
<glyph unicode="&#xe096;" d="M512 320l-256 128-256-128 256-128 256 128zM256 405.515l171.029-85.515-171.029-85.515-171.029 85.515 171.029 85.515zM460.722 249.639l51.278-25.639-256-128-256 128 51.278 25.639 204.722-102.361zM460.722 153.639l51.278-25.639-256-128-256 128 51.278 25.639 204.722-102.361z" />
<glyph unicode="&#xe097;" d="M256 192l-256 128 256 128 256-128zM460.722 249.639l51.278-25.639-256-128-256 128 51.278 25.639 204.722-102.361zM460.722 153.639l51.278-25.639-256-128-256 128 51.278 25.639 204.722-102.361z" />
<glyph unicode="&#xe098;" d="M0 320h512l-32-320h-448l-32 320zM464 384l16-32h-448l32 64h176l16-32h208z" />
<glyph unicode="&#xe0a4;" d="M210.745 384l64-64h205.255v-288h-448v352h178.745zM224 416h-224v-416h512v352h-224l-64 64z" />
<glyph unicode="&#xe0b7;" d="M463.906 480h-144.281c-26.453 0-63.398-15.303-82.102-34.007l-223.495-223.495c-18.704-18.704-18.704-49.312 0-68.016l172.455-172.453c18.704-18.705 49.311-18.705 68.015 0l223.495 223.494c18.704 18.705 34.007 55.651 34.007 82.102v144.281c0 26.452-21.643 48.094-48.094 48.094zM400 320c-26.51 0-48 21.49-48 48s21.49 48 48 48 48-21.49 48-48-21.49-48-48-48z" />
<glyph unicode="&#xe0ba;" d="M496 448h-112c-26.4 0-63.273-15.273-81.941-33.941l-188.118-188.118c-18.667-18.667-18.667-49.214 0-67.882l140.118-140.117c18.667-18.668 49.214-18.668 67.882 0l188.117 188.117c18.669 18.668 33.942 55.541 33.942 81.941v112c0 26.4-21.6 48-48 48zM432 288c-26.51 0-48 21.49-48 48s21.49 48 48 48 48-21.49 48-48-21.49-48-48-48zM43.313 180.687l171.189-171.189c-18.132-9.58-41.231-6.769-56.443 8.444l-140.118 140.117c-18.667 18.668-18.667 49.215 0 67.882l188.118 188.118c18.668 18.668 55.541 33.941 81.941 33.941l-244.687-244.686c-6.222-6.223-6.222-16.404 0-22.627z" horiz-adv-x="544" />
<glyph unicode="&#xe0d9;" d="M256 480c-141.385 0-256-114.615-256-256s114.615-256 256-256 256 114.615 256 256-114.615 256-256 256zM160 224c0 53.020 42.98 96 96 96s96-42.98 96-96-42.98-96-96-96-96 42.98-96 96zM462.99 138.262v0l-88.71 36.745c6.259 15.092 9.72 31.638 9.72 48.993s-3.461 33.901-9.72 48.993l88.71 36.745c10.954-26.411 17.010-55.365 17.010-85.738s-6.057-59.327-17.010-85.738v0zM341.739 430.99v0 0l-36.745-88.71c-15.092 6.259-31.638 9.72-48.994 9.72s-33.901-3.461-48.993-9.72l-36.745 88.711c26.411 10.952 55.366 17.009 85.738 17.009 30.373 0 59.327-6.057 85.739-17.010zM49.010 309.738l88.711-36.745c-6.259-15.092-9.721-31.638-9.721-48.993s3.461-33.901 9.72-48.993l-88.71-36.745c-10.953 26.411-17.010 55.365-17.010 85.738s6.057 59.327 17.010 85.738zM170.262 17.010l36.745 88.71c15.092-6.259 31.638-9.72 48.993-9.72s33.901 3.461 48.993 9.72l36.745-88.71c-26.411-10.952-55.365-17.010-85.738-17.010s-59.327 6.057-85.738 17.010z" />
<glyph unicode="&#xe0e8;" d="M32 256h48v-80h-48zM32 352h48v-80h-48zM32 160h48v-80h-48zM32 64h48v-80h-48zM96 480v-512h384v512h-384zM288 351.835c35.255 0 63.835-28.58 63.835-63.835s-28.58-63.835-63.835-63.835c-35.255 0-63.835 28.58-63.835 63.835s28.58 63.835 63.835 63.835zM384 96h-192v32c0 35.347 28.654 64 64 64v0h64c35.348 0 64-28.653 64-64v-32zM32 448h48v-80h-48z" />
<glyph unicode="&#xe0ec;" d="M325.608 214.818l186.392-128.554v295.947zM0 382.211v-295.947l186.388 128.572zM256 152.309l-44.501 39.955-211.499-128.264h512l-211.505 128.264zM496.64 384h-481.28l240.64-180.926z" />
<glyph unicode="&#xe0ed;" d="M607.984 352h-415.969l207.985-166.389zM400 134.389l-26.209 20.965-171.291-91.354h394.999l-171.29 91.354zM460.21 182.557l179.79-95.89v239.721zM160 326.388v-239.721l179.791 95.89zM128 288l-128 8v16l128 8zM128 192l-128 8v16l128 8zM128 96l-128 8v16l128 8z" horiz-adv-x="640" />
<glyph unicode="&#xe107;" d="M240 448c-132.548 0-240-107.452-240-240s107.452-240 240-240c132.549 0 240 107.451 240 240s-107.451 240-240 240zM240 0c-114.875 0-208 93.125-208 208s93.125 208 208 208 208-93.125 208-208-93.125-208-208-208zM256 253.258v130.742h-32v-130.742c-18.641-6.59-32-24.36-32-45.258 0-26.51 21.49-48 48-48 20.898 0 38.667 13.359 45.258 32h98.742v32h-98.742c-4.82 13.635-15.622 24.437-29.258 29.258z" />
<glyph unicode="&#xe10c;" d="M512 64c-53.021 0-96 42.98-96 96v142.545c0 70.369-54.971 129.064-128 142.542v34.913h-64v-34.912c-73.032-13.479-128-72.173-128-142.542v-142.546c0-53.020-42.981-96-96-96v-32h214.799c-2.604-5.712-4.055-12.059-4.055-18.745 0-24.993 20.262-45.255 45.256-45.255 24.992 0 45.255 20.262 45.255 45.255 0 6.688-1.451 13.033-4.056 18.745h214.801v32z" />
<glyph unicode="&#xe113;" d="M160 288h64v-64h-64zM256 288h64v-64h-64zM352 288h64v-64h-64zM64 96h64v-64h-64zM160 96h64v-64h-64zM256 96h64v-64h-64zM160 192h64v-64h-64zM256 192h64v-64h-64zM352 192h64v-64h-64zM64 192h64v-64h-64zM416 480v-32h-64v32h-224v-32h-64v32h-64v-512h480v512h-64zM448 0h-416v352h416v-352z" />
<glyph unicode="&#xe12b;" d="M128 448h-96c-17.6 0-32-14.4-32-32v-384c0-17.6 14.4-32 32-32h96c17.6 0 32 14.4 32 32v384c0 17.6-14.4 32-32 32zM96 76c0-6.6-5.4-12-12-12h-8c-6.6 0-12 5.4-12 12v8c0 6.6 5.4 12 12 12h8c6.6 0 12-5.4 12-12v-8zM128 160h-96v160h96v-160zM128 352h-96v32h96v-32zM320 448h-96c-17.6 0-32-14.4-32-32v-384c0-17.6 14.4-32 32-32h96c17.6 0 32 14.4 32 32v384c0 17.6-14.4 32-32 32zM288 76c0-6.6-5.4-12-12-12h-8c-6.6 0-12 5.4-12 12v8c0 6.6 5.4 12 12 12h8c6.6 0 12-5.4 12-12v-8zM320 160h-96v160h96v-160zM320 352h-96v32h96v-32zM512 448h-96c-17.6 0-32-14.4-32-32v-384c0-17.6 14.4-32 32-32h96c17.6 0 32 14.4 32 32v384c0 17.6-14.4 32-32 32zM480 76c0-6.6-5.4-12-12-12h-8c-6.6 0-12 5.4-12 12v8c0 6.6 5.4 12 12 12h8c6.6 0 12-5.4 12-12v-8zM512 160h-96v160h96v-160zM512 352h-96v32h96v-32z" horiz-adv-x="544" />
<glyph unicode="&#xe12d;" d="M352 384h-192l-160-192v-128c0-17.673 14.327-32 32-32h448c17.674 0 32 14.327 32 32v128l-160 192zM320 128h-128l-32 32h192l-32-32zM41.655 192l133.333 160h162.024l133.333-160h-428.69zM142.482 288h227.036l-26.667 32h-173.703zM89.149 224h333.703l-26.667 32h-280.37z" />
<glyph unicode="&#xe12f;" d="M32 416h448v-64h-448zM64 32h384v288h-384v-288zM192 288h128v-32h-128v32z" />
<glyph unicode="&#xe13e;" d="M448 192c0 123.711-100.288 224-224 224s-224-100.289-224-224c0-86.687 49.246-161.865 121.283-199.104-53.31 32.995-89.283 95.463-89.283 167.104 0 106.039 78.798 192 176 192 87.206 0 159.577-69.196 173.543-160h-61.543l96-112 96 112h-64z" />
<glyph unicode="&#xe150;" d="M256 448c141.385 0 256-93.125 256-208s-114.615-208-256-208c-13.578 0-26.905 0.867-39.912 2.522-54.989-54.989-120.625-64.85-184.088-66.298v13.458c34.268 16.789 64 47.37 64 82.318 0 4.877-0.379 9.665-1.082 14.348-57.898 38.132-94.918 96.377-94.918 161.652 0 114.875 114.615 208 256 208z" />
<glyph unicode="&#xe163;" d="M464 384h-320c-26.4 0-48-21.6-48-48v-224c0-26.4 21.6-48 48-48h77.714l82.286-96 82.286 96h77.714c26.4 0 48 21.6 48 48v224c0 26.4-21.599 48-48 48zM448 128h-75.149l-68.851-77.658-68.85 77.658h-75.15v192h288v-192zM64 416v-256h-16c-26.4 0-48 21.6-48 48v224c0 26.4 21.6 48 48 48h320c26.401 0 48-21.6 48-48v-16h-352z" />
<glyph unicode="&#xe164;" d="M464 448c26.4 0 48-21.6 48-48v-256c0-26.4-21.6-48-48-48h-182.4l-153.6-128v128h-80c-26.4 0-48 21.6-48 48v256c0 26.4 21.6 48 48 48h416z" />
<glyph unicode="&#xe167;" d="M464 448h-416c-26.4 0-48-21.6-48-48v-256c0-26.4 21.6-48 48-48h80v-128l153.6 128h182.4c26.4 0 48 21.6 48 48v256c0 26.4-21.6 48-48 48zM448 160h-189.571l-98.429-87.357v87.357h-96v224h384v-224z" />
<glyph unicode="&#xe185;" d="M311.413 128.632c-11.055 1.759-11.307 32.157-11.307 32.157s32.484 32.158 39.564 75.401c19.045 0 30.809 45.973 11.761 62.148 0.795 17.027 24.48 133.662-95.431 133.662s-96.225-116.635-95.432-133.662c-19.047-16.175-7.285-62.148 11.761-62.148 7.079-43.243 39.564-75.401 39.564-75.401s-0.252-30.398-11.307-32.157c-35.61-5.666-168.586-64.317-168.586-128.632h448c0 64.315-132.976 122.966-168.587 128.632z" />
<glyph unicode="&#xe188;" d="M448 192v64h-64v-64h-64v-64h64v-64h64v64h64v64zM384 57.257c-41.683 38.573-112.118 67.481-136.587 71.375-11.056 1.759-11.308 32.157-11.308 32.157s32.484 32.158 39.564 75.401c19.045 0 30.809 45.973 11.761 62.148 0.797 17.027 24.481 133.662-95.43 133.662s-96.225-116.635-95.432-133.662c-19.047-16.175-7.285-62.148 11.761-62.148 7.079-43.243 39.564-75.401 39.564-75.401s-0.252-30.398-11.307-32.157c-24.468-3.894-94.904-32.802-136.586-71.375v-57.257h384v57.257z" />
<glyph unicode="&#xe18a;" d="M320 192h192v-64h-192zM384 57.257c-41.683 38.573-112.118 67.481-136.587 71.375-11.056 1.759-11.308 32.157-11.308 32.157s32.484 32.158 39.564 75.401c19.045 0 30.809 45.973 11.761 62.148 0.797 17.027 24.481 133.662-95.43 133.662s-96.225-116.635-95.432-133.662c-19.047-16.175-7.285-62.148 11.761-62.148 7.079-43.243 39.564-75.401 39.564-75.401s-0.252-30.398-11.307-32.157c-24.468-3.894-94.904-32.802-136.586-71.375v-57.257h384v57.257z" />
<glyph unicode="&#xe18d;" d="M152.983 188c-0.493-2.762-1.188-5.575-2.164-8h49.679c-0.688 2.631-1.245 5.306-1.662 8h-45.853zM9.399 92c-1.724-2.638-3.245-5.306-4.529-8h194.986c5.639 2.821 11.325 5.508 16.946 8h-207.403zM41.145 124c-3.452-2.599-6.777-5.269-9.945-8h202.902c-1.456 2.549-2.89 5.219-4.28 8h-188.677zM138.285 172c-6.406-1.61-14.68-4.332-24.004-8h92.448c-1.359 2.521-2.583 5.191-3.661 8h-64.783zM65.208 140c-4.316-2.558-8.585-5.228-12.75-8h173.643c-1.117 2.591-2.186 5.255-3.182 8h-157.711zM1.796 76c-0.776-2.649-1.306-5.317-1.575-8h170.856c0.318 0.198 0.628 0.396 0.949 0.595 4.079 2.511 8.32 4.987 12.661 7.405h-182.891zM15.32 100h221.067c2.17 0.808 4.317 1.587 6.409 2.307-1.259 1.793-2.542 3.699-3.829 5.693h-216.388c-2.602-2.621-5.025-5.292-7.259-8zM124.279 404h135.453c-2.175 2.818-4.63 5.498-7.394 8h-120.669c-2.764-2.502-5.215-5.183-7.39-8zM108.402 356h154.566c3.915 1.792 8 3.374 12.259 4.734-0.104 1.083-0.226 2.172-0.362 3.266h-165.731c-0.336-2.704-0.574-5.377-0.732-8zM79.513 148h139.747c-2.667 2.341-5.145 5.021-7.404 8h-116.194c-5.285-2.455-10.704-5.127-16.149-8zM133.849 228h70.037c0.404 0.855 0.826 1.697 1.269 2.525-0.159 1.705-0.313 3.543-0.453 5.475h-75.065c1.35-2.799 2.767-5.47 4.212-8zM112.354 268c2.376-2.069 5.055-3.283 7.928-3.283 0.263-1.593 0.581-3.161 0.921-4.717h83.138c0.127 2.611 0.314 5.279 0.581 8h-92.568zM108.801 332c0.248-3.018 0.528-5.713 0.775-8h114.753c1.916 2.729 4.008 5.4 6.284 8h-121.812zM108.141 348c-0.014-2.779 0.048-5.453 0.156-8h130.18c3.217 2.898 6.626 5.564 10.224 8h-140.56zM112.378 380c-0.776-2.656-1.424-5.33-1.958-8h163.155c-0.534 2.67-1.182 5.344-1.958 8h-159.239zM119.006 396c-1.456-2.603-2.729-5.278-3.839-8h153.67c-1.109 2.722-2.381 5.397-3.836 8h-145.995zM198.009 204h-46.956c1.94-2.176 3.142-3.359 3.142-3.359s-0.018-1.878-0.225-4.641h44.044c-0.141 2.685-0.146 5.36-0.005 8zM163.364 428c-7.931-1.915-14.756-4.643-20.622-8h98.528c-5.857 3.354-12.666 6.085-20.583 8h-57.323zM138.783 220c1.968-2.971 3.896-5.648 5.69-8h54.435c0.471 2.743 1.096 5.417 1.889 8h-62.014zM204.128 252h-80.822c0.846-2.745 1.796-5.413 2.82-8h78.136c-0.093 2.555-0.145 5.224-0.134 8zM103.475 284c0.755-2.85 1.761-5.56 2.979-8h99.473c0.403 2.643 0.885 5.312 1.459 8h-103.911zM108.591 316c-2.11-2.245-3.676-4.977-4.76-8h111.377c1.226 2.693 2.57 5.365 4.062 8h-110.679zM102.089 300c-0.256-2.622-0.25-5.319-0.014-8h107.282c0.754 2.668 1.621 5.338 2.585 8h-109.853zM367.497 77.313c-9.476 1.494-9.692 27.327-9.692 27.327s27.844 27.328 33.912 64.076c16.326 0 26.407 39.069 10.082 52.814 0.681 14.47 20.984 113.588-81.799 113.588s-82.479-99.118-81.799-113.588c-16.327-13.745-6.244-52.814 10.081-52.814 6.067-36.748 33.913-64.076 33.913-64.076s-0.216-25.833-9.692-27.327c-30.524-4.816-144.503-54.658-144.503-109.313h384c0 54.655-113.979 104.497-144.503 109.313z" />
<glyph unicode="&#xe19c;" d="M448 384h-384c-35.2 0-64-28.8-64-64v-224c0-35.2 28.8-64 64-64h384c35.2 0 64 28.8 64 64v224c0 35.2-28.8 64-64 64zM64 96c0 70.692 35.817 128 80 128-26.51 0-48 21.49-48 48s21.49 48 48 48 48-21.49 48-48-21.49-48-48-48 80-57.308 80-128h-160zM448 96h-160v32h160v-32zM448 192h-160v32h160v-32zM448 288h-160v32h160v-32z" />
<glyph unicode="&#xe1a8;" d="M512 224c-0.639 33.431-7.892 66.758-21.288 97.231-13.352 30.5-32.731 58.129-56.521 80.96-23.776 22.848-51.972 40.91-82.492 52.826-30.502 11.962-63.298 17.676-95.699 16.983-32.405-0.641-64.666-7.687-94.167-20.678-29.524-12.948-56.271-31.735-78.367-54.788-22.112-23.041-39.58-50.354-51.093-79.899-11.557-29.531-17.064-61.26-16.373-92.635 0.643-31.38 7.482-62.574 20.067-91.103 12.544-28.55 30.738-54.414 53.055-75.774 22.305-21.377 48.736-38.252 77.307-49.36 28.559-11.152 59.223-16.451 89.571-15.763 30.354 0.645 60.481 7.277 88.038 19.457 27.575 12.141 52.558 29.74 73.183 51.322 20.641 21.57 36.922 47.118 47.627 74.715 6.517 16.729 10.94 34.2 13.271 51.899 0.623-0.036 1.249-0.060 1.881-0.060 17.673 0 32 14.326 32 32 0 0.898-0.047 1.786-0.119 2.666h0.119zM461.153 139.026c-11.736-26.601-28.742-50.7-49.589-70.59-20.835-19.905-45.5-35.593-72.122-45.895-26.614-10.339-55.145-15.226-83.442-14.541-28.302 0.649-56.298 6.868-81.91 18.237-25.625 11.333-48.842 27.745-67.997 47.856-19.169 20.099-34.264 43.882-44.161 69.529-9.935 25.642-14.614 53.107-13.932 80.378 0.651 27.276 6.664 54.206 17.627 78.845 10.929 24.65 26.749 46.985 46.123 65.405 19.365 18.434 42.265 32.935 66.937 42.428 24.669 9.53 51.068 14.003 77.313 13.322 26.25-0.653 52.114-6.459 75.781-17.017 23.676-10.525 45.128-25.751 62.812-44.391 17.698-18.629 31.605-40.647 40.695-64.344 9.124-23.696 13.391-49.029 12.712-74.248h0.119c-0.072-0.88-0.119-1.768-0.119-2.666 0-16.506 12.496-30.087 28.543-31.812-3.112-17.411-8.265-34.409-15.39-50.496z" />
<glyph unicode="&#xe1ba;" d="M496.131 44.302l-121.276 103.147c-12.537 11.283-25.945 16.463-36.776 15.963 28.628 33.534 45.921 77.039 45.921 124.588 0 106.039-85.961 192-192 192s-192-85.961-192-192 85.961-192 192-192c47.549 0 91.054 17.293 124.588 45.922-0.5-10.831 4.68-24.239 15.963-36.776l103.147-121.276c17.661-19.623 46.511-21.277 64.11-3.678s15.946 46.449-3.677 64.11zM192 160c-70.692 0-128 57.308-128 128s57.308 128 128 128 128-57.308 128-128-57.307-128-128-128z" />
<glyph unicode="&#xe1cd;" d="M336 471.917c-74.945 0-135.917-60.972-135.917-135.917 0-28.822 9.025-55.572 24.388-77.588l-209.442-209.441c-9.373-9.373-9.373-24.568 0-33.941 4.687-4.687 10.829-7.030 16.971-7.030s12.284 2.343 16.971 7.029l11.029 11.030 51.029-51.029c4.687-4.687 10.829-7.030 16.971-7.030s12.284 2.343 16.971 7.029c9.373 9.373 9.373 24.568 0 33.941l-51.030 51.030 27.059 27.059 51.029-51.029c4.687-4.687 10.829-7.030 16.971-7.030s12.284 2.343 16.971 7.029c9.373 9.373 9.373 24.568 0 33.941l-51.030 51.030 103.471 103.471c22.016-15.362 48.766-24.388 77.588-24.388 74.945 0 135.917 60.972 135.917 135.917s-60.972 135.917-135.917 135.917zM336 248.083c-48.478 0-87.917 39.439-87.917 87.917s39.439 87.917 87.917 87.917 87.917-39.439 87.917-87.917-39.439-87.917-87.917-87.917z" />
<glyph unicode="&#xe1d3;" d="M392 256h-8v96c0 52.935-43.065 96-96 96h-64c-52.935 0-96-43.065-96-96v-96h-8c-13.2 0-24-10.8-24-24v-240c0-13.2 10.8-24 24-24h272c13.2 0 24 10.8 24 24v240c0 13.2-10.8 24-24 24zM192 352c0 17.645 14.355 32 32 32h64c17.645 0 32-14.355 32-32v-96h-128v96z" />
<glyph unicode="&#xe1d4;" d="M384 448c52.935 0 96-43.065 96-96v-96h-64v96c0 17.645-14.355 32-32 32h-64c-17.645 0-32-14.355-32-32v-96h8c13.2 0 24-10.8 24-24v-240c0-13.2-10.8-24-24-24h-272c-13.2 0-24 10.8-24 24v240c0 13.2 10.8 24 24 24h200v96c0 52.935 43.065 96 96 96h64z" />
<glyph unicode="&#xe1df;" d="M466.895 174.875c-26.863 46.527-10.708 106.152 36.076 133.244l-50.313 87.146c-14.375-8.427-31.088-13.259-48.923-13.259-53.768 0-97.354 43.873-97.354 97.995h-100.629c0.133-16.705-4.037-33.641-12.979-49.126-26.862-46.528-86.578-62.351-133.431-35.379l-50.312-87.146c14.485-8.236 27.025-20.294 35.943-35.739 26.819-46.454 10.756-105.96-35.854-133.112l50.313-87.146c14.325 8.348 30.958 13.127 48.7 13.127 53.598 0 97.072-43.596 97.35-97.479h100.627c-0.043 16.537 4.136 33.285 12.983 48.609 26.818 46.453 86.388 62.297 133.207 35.506l50.313 87.145c-14.39 8.233-26.846 20.249-35.717 35.614zM256 120.334c-57.254 0-103.668 46.412-103.668 103.667 0 57.254 46.413 103.667 103.668 103.667s103.666-46.413 103.666-103.667c-0.001-57.255-46.412-103.667-103.666-103.667z" />
<glyph unicode="&#xe207;" d="M32 96h96v-128h-96zM160 160h96v-192h-96zM288 192h96v-224h-96zM416 288h96v-320h-96zM512 480v-144l-55.029 55.029-168.971-168.97-96 96-126.059-126.059h-33.941v33.941l160 160 96-96 135.029 135.030-55.029 55.029z" />
<glyph unicode="&#xe213;" d="M272 448h64l-112-224 112-224h-64l-112 224z" />
<glyph unicode="&#xe214;" d="M240 448h-64l112-224-112-224h64l112 224z" />
<glyph unicode="&#xe22c;" d="M358.774 480c-84.382-139.493-151.15-70.891-248.795-171.215-86.168-88.533-56.291-195.153 16.262-231.872 71.615 36.594 144.884 118.411 199.225 236.862 0 0 48.833-149.572-100.745-293.687 72.634-85.074 195.914-25.886 230.363 109.459 37.449 147.137-60.194 296.948-96.31 350.453zM48.506-3.121c0.058-1.453 1.711-28.879 37.683-28.879 26.172 0 158.916 72.339 227.133 260.102-103.219-182.607-253.060-227.919-264.816-231.223z" />
<glyph unicode="&#xe24f;" d="M96-32h320l32 352h-384zM320 416v64h-128v-64h-160v-96l32 32h384l32-32v96h-160zM288 416h-64v32h64v-32z" />
<glyph unicode="&#xe29d;" d="M0 480h128v-128h-128zM192 480h320v-128h-320zM0 288h128v-128h-128zM192 288h320v-128h-320zM0 96h128v-128h-128zM192 96h320v-128h-320z" />
<glyph unicode="&#xe2a0;" d="M0 480h128v-128h-128zM192 480h128v-128h-128zM384 480h128v-128h-128zM0 288h128v-128h-128zM192 288h128v-128h-128zM384 288h128v-128h-128zM0 96h128v-128h-128zM192 96h128v-128h-128zM384 96h128v-128h-128z" />
<glyph unicode="&#xe2a1;" d="M0 416c0 35.346 28.654 64 64 64s64-28.654 64-64c0-35.346-28.654-64-64-64s-64 28.654-64 64zM192 416c0 35.346 28.654 64 64 64s64-28.654 64-64c0-35.346-28.654-64-64-64s-64 28.654-64 64zM384 416c0 35.346 28.654 64 64 64s64-28.654 64-64c0-35.346-28.654-64-64-64s-64 28.654-64 64zM0 224c0 35.346 28.654 64 64 64s64-28.654 64-64c0-35.346-28.654-64-64-64s-64 28.654-64 64zM192 224c0 35.346 28.654 64 64 64s64-28.654 64-64c0-35.346-28.654-64-64-64s-64 28.654-64 64zM384 224c0 35.346 28.654 64 64 64s64-28.654 64-64c0-35.346-28.654-64-64-64s-64 28.654-64 64zM0 32c0 35.346 28.654 64 64 64s64-28.654 64-64c0-35.346-28.654-64-64-64s-64 28.654-64 64zM192 32c0 35.346 28.654 64 64 64s64-28.654 64-64c0-35.346-28.654-64-64-64s-64 28.654-64 64zM384 32c0 35.346 28.654 64 64 64s64-28.654 64-64c0-35.346-28.654-64-64-64s-64 28.654-64 64z" />
<glyph unicode="&#xe2a6;" d="M488 128h-50.411l-117.589 195.98v100.020c0 13.2-10.8 24-24 24h-80c-13.2 0-24-10.8-24-24v-100.019l-117.588-195.981h-50.412c-13.2 0-24-10.8-24-24v-80c0-13.2 10.8-24 24-24h80c13.2 0 24 10.8 24 24v100.020l117.588 195.98h20.823l117.589-195.98v-100.020c0-13.2 10.8-24 24-24h80c13.2 0 24 10.8 24 24v80c0 13.2-10.8 24-24 24z" />
<glyph unicode="&#xe2a7;" d="M488 96h-8v104c0 30.878-25.121 56-56 56h-136v64h8c13.2 0 24 10.8 24 24v80c0 13.2-10.8 24-24 24h-80c-13.2 0-24-10.8-24-24v-80c0-13.2 10.8-24 24-24h8v-64h-136c-30.878 0-56-25.122-56-56v-104h-8c-13.2 0-24-10.8-24-24v-80c0-13.2 10.8-24 24-24h80c13.2 0 24 10.8 24 24v80c0 13.2-10.8 24-24 24h-8v96h128v-96h-8c-13.2 0-24-10.8-24-24v-80c0-13.2 10.8-24 24-24h80c13.2 0 24 10.8 24 24v80c0 13.2-10.8 24-24 24h-8v96h128v-96h-8c-13.2 0-24-10.8-24-24v-80c0-13.2 10.8-24 24-24h80c13.2 0 24 10.8 24 24v80c0 13.2-10.8 24-24 24z" />
<glyph unicode="&#xe2b8;" d="M448 128v-64h-384v64h-64v-128h512v128zM384 288h-96v160h-64v-160h-96l128-192z" />
<glyph unicode="&#xe2b9;" d="M448 128v-64h-384v64h-64v-128h512v128zM128 256h96v-160h64v160h96l-128 192z" />
<glyph unicode="&#xe2ce;" d="M159.965 127.966c8.803-8.803 23.209-8.803 32.012 0l160.059 160.059c8.805 8.803 8.805 23.208 0 32.012-8.802 8.803-23.208 8.803-32.012 0l-160.059-160.059c-8.803-8.803-8.803-23.209 0-32.012zM489.457 406.695l-50.765 50.763c-30.056 30.056-79.237 30.056-109.294 0l-82.775-82.775c-21.994-21.995-27.891-54.229-17.695-81.719l119.669 119.668c12.449 12.45 32.822 12.45 45.271 0l50.764-50.763c12.448-12.45 12.448-32.822 0-45.271l-119.667-119.667c27.487-10.195 59.723-4.301 81.717 17.695l82.775 82.773c30.058 30.058 30.058 79.239 0 109.296zM163.403 35.368c-12.449-12.449-32.821-12.449-45.271 0l-50.762 50.764c-12.449 12.45-12.449 32.822 0 45.271l119.666 119.667c-27.489 10.196-59.725 4.3-81.719-17.695l-82.774-82.773c-30.057-30.060-30.057-79.24 0-109.297l50.764-50.763c30.056-30.058 79.239-30.058 109.293 0l82.777 82.774c21.994 21.994 27.891 54.229 17.694 81.719l-119.668-119.667z" />
<glyph unicode="&#xe2d1;" d="M416 393.847c38.233 0 72.546 20.811 96 36.553v-297.845c-23.454-15.743-57.767-36.555-96-36.555s-72.546 11.335-96 27.078c-23.454 15.74-57.767 27.075-96 27.075s-72.545-19.458-96-35.198v297.845c23.455 15.742 57.767 35.2 96 35.2s72.546-11.334 96-27.076c23.454-15.742 57.767-27.077 96-27.077zM64 480c17.673 0 32-14.327 32-32v-480h-64v480c0 17.673 14.327 32 32 32z" />
<glyph unicode="&#xe2d7;" d="M348.916 316.476l-32.476 32.461-162.405-162.371c-26.907-26.896-26.907-70.524 0-97.422 26.902-26.896 70.53-26.896 97.437 0l194.886 194.854c44.857 44.831 44.857 117.531 0 162.363-44.833 44.852-117.556 44.852-162.391 0l-204.615-204.589c-0.145-0.152-0.306-0.288-0.438-0.423-62.551-62.548-62.551-163.928 0-226.453 62.527-62.528 163.934-62.528 226.494 0 0.137 0.137 0.258 0.284 0.41 0.438l0.016-0.017 139.666 139.646-32.493 32.46-139.665-139.631c-0.148-0.134-0.282-0.285-0.423-0.422-44.537-44.529-116.99-44.529-161.538 0-44.531 44.521-44.531 116.961 0 161.489 0.152 0.152 0.302 0.291 0.444 0.423l-0.023 0.030 204.64 204.583c26.856 26.869 70.572 26.869 97.443 0 26.856-26.867 26.856-70.574 0-97.42l-194.886-194.85c-8.968-8.961-23.527-8.961-32.486 0-8.947 8.943-8.947 23.516 0 32.46l162.403 162.391z" />
<glyph unicode="&#xe2d9;" d="M256 384c-111.659 0-208.441-65.021-256-160 47.559-94.979 144.341-160 256-160 111.657 0 208.439 65.021 256 160-47.558 94.979-144.343 160-256 160zM382.225 299.148c30.081-19.187 55.571-44.887 74.717-75.148-19.146-30.261-44.637-55.961-74.718-75.149-37.797-24.108-81.445-36.851-126.224-36.851-44.78 0-88.428 12.743-126.225 36.852-30.080 19.186-55.57 44.886-74.717 75.148 19.146 30.262 44.637 55.962 74.717 75.148 1.959 1.25 3.938 2.461 5.929 3.65-4.979-13.664-7.704-28.411-7.704-43.798 0-70.692 57.308-128 128-128s128 57.308 128 128c0 15.387-2.725 30.134-7.704 43.799 1.99-1.189 3.969-2.401 5.929-3.651zM256 275c0-26.51-21.49-48-48-48s-48 21.49-48 48 21.49 48 48 48 48-21.49 48-48z" />
<glyph unicode="&#xe2e3;" d="M96 480v-512l160 160 160-160v512z" />
<glyph unicode="&#xe2e4;" d="M96 480v-512l160 160 160-160v512h-320zM384 45.255l-128 128-128-128v402.745h256v-402.745z" />
<glyph unicode="&#xe2ff;" d="M512 281.475l-176.89 25.704-79.11 160.291-79.108-160.291-176.892-25.704 128-124.769-30.216-176.176 158.216 83.179 158.216-83.179-30.217 176.176 128.001 124.769zM256 103.251l-111.731-58.74 21.338 124.415-90.393 88.111 124.92 18.152 55.866 113.198 55.868-113.198 124.918-18.152-90.394-88.111 21.339-124.415-111.731 58.74z" />
<glyph unicode="&#xe300;" d="M512 281.475l-176.89 25.704-79.11 160.291-79.108-160.291-176.892-25.704 128-124.769-30.216-176.176 158.216 83.179 158.216-83.179-30.217 176.176 128.001 124.769zM256 103.251l-0.471-0.248 0.471 285.384 55.868-113.198 124.918-18.152-90.394-88.111 21.339-124.415-111.731 58.74z" />
<glyph unicode="&#xe301;" d="M512 281.475l-176.89 25.704-79.11 160.291-79.108-160.291-176.892-25.704 128-124.769-30.216-176.176 158.216 83.179 158.216-83.179-30.217 176.176 128.001 124.769z" />
<glyph unicode="&#xe310;" d="M496 144c0 16.458-8.978 30.977-22.654 39.624 4.222 7.146 6.654 15.476 6.654 24.376 0 26.51-21.49 48-48 48h-93.904c11.228 40.455 16.904 82.296 16.904 125 0 36.944-30.056 67-67 67-36.943 0-67-30.056-67-67 0-51.986-19.361-91.975-57.545-118.855-10.5-7.392-22.371-13.743-35.455-19.033v44.888h-128v-320h128v31.499c29.945-1.966 44.484-9.461 58.595-16.747 14.044-7.253 28.566-14.752 53.405-14.752h160c26.51 0 48 21.49 48 48 0 6.249-1.207 12.213-3.38 17.688 20.385 5.543 35.38 24.171 35.38 46.312 0 8.9-2.432 17.23-6.654 24.376 13.676 8.647 22.654 23.166 22.654 39.624zM48 0c-8.836 0-16 7.163-16 16s7.164 16 16 16 16-7.163 16-16-7.164-16-16-16zM444 128h-28v-32h16c8.822 0 16-7.178 16-16s-7.178-16-16-16h-32v-32c8.822 0 16-7.178 16-16s-7.178-16-16-16h-160c-17.064 0-26.149 4.691-38.723 11.185-15.874 8.196-35.193 18.16-73.277 20.364v171.111c21.468 7.214 40.714 16.715 57.329 28.412 48.196 33.928 73.671 85.772 73.671 149.928 0 15.991 13.010 29 29 29s29-13.009 29-29c0-42.83-6.207-84.706-18.48-125-3.099-11.509-6.033-22.913-8.012-32h141.492c8.822 0 16-7.178 16-16s-7.178-16-16-16h-16v-32h28c10.841 0 20-7.327 20-16s-9.159-16-20-16z" />
<glyph unicode="&#xe313;" d="M464 192c36.5 0 16-96-16-96 16 0 0-80-32-80 0-32-32-48-64-48-135.176 0-87.632 33.825-224 48v256c120.461 36.134 240 126.712 240 208 26.5 0 96-32 0-192 0 0 80 0 96 0 48 0 32-96 0-96zM96 272v-256h32v-16h-64c-17.6 0-32 21.6-32 48v192c0 26.4 14.4 48 32 48h64v-16h-32z" />
<glyph unicode="&#xe314;" d="M48 256c-36.5 0-16 96 16 96-16 0 0 80 32 80 0 32 32 48 64 48 135.176 0 87.632-33.825 224-48v-256c-120.461-36.134-240-126.712-240-208-26.5 0-96 32 0 192 0 0-80 0-96 0-48 0-32 96 0 96zM416 176v256h-32v16h64c17.6 0 32-21.6 32-48v-192c0-26.4-14.4-48-32-48h-64v16h32z" />
<glyph unicode="&#xe355;" d="M256 400.638l-172.417-368.638h344.834l-172.417 368.638zM256 480v0c11.035 0 22.070-7.441 30.442-22.324l218.536-435.556c16.745-29.766 2.5-54.12-31.651-54.12h-434.654c-34.152 0-48.395 24.354-31.652 54.12l218.537 435.556c8.372 14.883 19.407 22.324 30.442 22.324zM224 96c0 17.673 14.327 32 32 32s32-14.327 32-32c0-17.673-14.327-32-32-32s-32 14.327-32 32zM256 288c17.673 0 32-14.327 32-32l-10-96h-44l-10 96c0 17.673 14.327 32 32 32z" />
<glyph unicode="&#xe356;" d="M504.978 22.12l-218.537 435.556c-8.371 14.883-19.406 22.324-30.441 22.324s-22.070-7.441-30.442-22.324l-218.537-435.556c-16.743-29.766-2.5-54.12 31.652-54.12h434.654c34.151 0 48.396 24.354 31.651 54.12zM256 32c-17.673 0-32 14.327-32 32s14.327 32 32 32c17.674 0 32-14.326 32-32s-14.326-32-32-32zM278 128h-44l-10 128c0 17.673 14.327 32 32 32s32-14.327 32-32l-10-128z" />
<glyph unicode="&#xe357;" d="M256 432c-55.559 0-107.792-21.636-147.078-60.922s-60.922-91.519-60.922-147.078c0-55.559 21.636-107.792 60.922-147.078s91.519-60.922 147.078-60.922c55.559 0 107.792 21.636 147.078 60.922s60.922 91.519 60.922 147.078c0 55.559-21.636 107.792-60.922 147.078s-91.519 60.922-147.078 60.922zM256 480v0c141.385 0 256-114.615 256-256s-114.615-256-256-256c-141.385 0-256 114.615-256 256s114.615 256 256 256zM224 128h64v-64h-64zM224 384h64v-192h-64z" />
<glyph unicode="&#xe358;" d="M256 480c-141.385 0-256-114.615-256-256s114.615-256 256-256 256 114.615 256 256-114.615 256-256 256zM288 64h-64v64h64v-64zM288 192h-64v192h64v-192z" />
<glyph unicode="&#xe35b;" d="M320 384c35.29 0 64-28.71 64-64v-64c0-35.29-28.71-64-64-64h-31.941c-0.021-0.018-0.041-0.038-0.059-0.059v-31.941h-64v32c0 35.29 28.71 64 64 64h31.942c0.020 0.016 0.041 0.037 0.058 0.057v63.885c-0.017 0.020-0.037 0.041-0.058 0.058h-159.942v64h160zM224 128h64v-64h-64zM256 432c-55.559 0-107.792-21.636-147.078-60.922s-60.922-91.519-60.922-147.078c0-55.559 21.636-107.792 60.922-147.078s91.519-60.922 147.078-60.922c55.559 0 107.792 21.636 147.078 60.922s60.922 91.519 60.922 147.078c0 55.559-21.636 107.792-60.922 147.078s-91.519 60.922-147.078 60.922zM256 480v0c141.385 0 256-114.615 256-256s-114.615-256-256-256c-141.385 0-256 114.615-256 256s114.615 256 256 256z" />
<glyph unicode="&#xe35c;" d="M256 480c-141.385 0-256-114.615-256-256s114.613-256 256-256c141.385 0 256 114.615 256 256s-114.615 256-256 256zM288 64h-64v64h64v-64zM384 256c0-35.29-28.71-64-64-64h-31.942c-0.020-0.017-0.041-0.038-0.058-0.058v-31.942h-64v32c0 35.29 28.71 64 64 64h31.942c0.020 0.017 0.041 0.038 0.058 0.057v63.885c-0.017 0.020-0.037 0.041-0.058 0.058h-159.942v64h160c35.29 0 64-28.71 64-64v-64z" />
<glyph unicode="&#xe35e;" d="M256 480c-141.385 0-256-114.615-256-256s114.615-256 256-256 256 114.615 256 256-114.615 256-256 256zM256 32c-106.039 0-192 85.961-192 192s85.961 192 192 192c106.039 0 192-85.961 192-192s-85.961-192-192-192zM384 192h-96v-96h-64v96h-96v64h96v96h64v-96h96z" />
<glyph unicode="&#xe35f;" d="M256 480c-141.385 0-256-114.615-256-256s114.615-256 256-256 256 114.615 256 256-114.615 256-256 256zM288 192v-128h-64v128h-128v64h128v128h64v-128h128v-64h-128z" />
<glyph unicode="&#xe360;" d="M256 480c-141.385 0-256-114.615-256-256s114.615-256 256-256 256 114.615 256 256-114.615 256-256 256zM256 32c-106.039 0-192 85.961-192 192s85.961 192 192 192c106.039 0 192-85.961 192-192s-85.961-192-192-192zM128 256h256v-64h-256z" />
<glyph unicode="&#xe361;" d="M256 480c-141.385 0-256-114.615-256-256s114.615-256 256-256 256 114.615 256 256-114.615 256-256 256zM416 192h-320v64h320v-64z" />
<glyph unicode="&#xe362;" d="M256 480c-141.385 0-256-114.615-256-256s114.615-256 256-256 256 114.615 256 256-114.615 256-256 256zM256 16c-114.875 0-208 93.125-208 208s93.125 208 208 208 208-93.125 208-208-93.125-208-208-208zM224 352h64v-64h-64zM320 96h-128v32h32v96h-32v32h96v-128h32z" />
<glyph unicode="&#xe363;" d="M256 480c-141.385 0-256-114.615-256-256s114.615-256 256-256 256 114.615 256 256-114.615 256-256 256zM224 384h64v-64h-64v64zM320 64h-128v32h32v128h-32v32h96v-160h32v-32z" />
<glyph unicode="&#xe365;" d="M256 480c-141.385 0-256-114.615-256-256s114.615-256 256-256 256 114.615 256 256-114.615 256-256 256zM256 32c-106.039 0-192 85.961-192 192s85.961 192 192 192c106.039 0 192-85.961 192-192s-85.961-192-192-192zM352 173.256v-45.256h-45.256l-50.744 50.744-50.745-50.744h-45.255v45.256l50.745 50.744-50.745 50.745v45.255h45.255l50.745-50.745 50.744 50.745h45.256v-45.255l-50.744-50.745z" />
<glyph unicode="&#xe366;" d="M256 480c-141.385 0-256-114.615-256-256s114.615-256 256-256 256 114.615 256 256-114.615 256-256 256zM384 306.745l-82.744-82.745 82.744-82.744v-45.256h-45.256l-82.744 82.744-82.745-82.744h-45.255v45.256l82.745 82.744-82.745 82.745v45.255h45.255l82.745-82.745 82.744 82.745h45.256v-45.255z" />
<glyph unicode="&#xe36b;" d="M507.331 68.67c-0.002 0.002-0.004 0.004-0.006 0.005l-155.322 155.325 155.322 155.325c0.002 0.002 0.004 0.003 0.006 0.005 1.672 1.673 2.881 3.627 3.656 5.708 2.123 5.688 0.912 12.341-3.662 16.915l-73.373 73.373c-4.574 4.573-11.225 5.783-16.914 3.66-2.080-0.775-4.035-1.984-5.709-3.655 0-0.002-0.002-0.003-0.004-0.005l-155.324-155.326-155.324 155.325c-0.002 0.002-0.003 0.003-0.005 0.005-1.673 1.671-3.627 2.88-5.707 3.655-5.69 2.124-12.341 0.913-16.915-3.66l-73.374-73.374c-4.574-4.574-5.784-11.226-3.661-16.914 0.776-2.080 1.985-4.036 3.656-5.708 0.002-0.001 0.003-0.003 0.005-0.005l155.325-155.324-155.325-155.326c-0.001-0.002-0.003-0.003-0.004-0.005-1.671-1.673-2.88-3.627-3.657-5.707-2.124-5.688-0.913-12.341 3.661-16.915l73.374-73.373c4.575-4.574 11.226-5.784 16.915-3.661 2.080 0.776 4.035 1.985 5.708 3.656 0.001 0.002 0.003 0.003 0.005 0.005l155.324 155.325 155.324-155.325c0.002-0.001 0.004-0.003 0.006-0.004 1.674-1.672 3.627-2.881 5.707-3.657 5.689-2.123 12.342-0.913 16.914 3.661l73.373 73.374c4.574 4.574 5.785 11.227 3.662 16.915-0.776 2.080-1.985 4.034-3.657 5.707z" />
<glyph unicode="&#xe36c;" d="M121.372 313.372l45.256 45.256 89.372-89.373 89.373 89.372 45.255-45.255-89.373-89.372 89.372-89.373-45.254-45.254-89.373 89.372-89.372-89.373-45.256 45.255 89.373 89.373-89.373 89.372z" />
<glyph unicode="&#xe370;" d="M432 416l-240-240-112 112-80-80 192-192 320 320z" />
<glyph unicode="&#xe371;" d="M198.717 21.152l-198.934 195.8 98.689 97.135 100.245-98.666 214.81 211.426 98.689-97.135-313.499-308.56zM53.956 216.952l144.762-142.481 259.328 255.241-44.518 43.816-214.81-211.426-100.245 98.667-44.517-43.817z" />
<glyph unicode="&#xe375;" d="M0 272v-96c0-8.836 7.164-16 16-16h480c8.836 0 16 7.164 16 16v96c0 8.836-7.164 16-16 16h-480c-8.836 0-16-7.164-16-16z" />
<glyph unicode="&#xe376;" d="M374.003 255.468h-86.536v86.536c0 4.344-3.522 7.867-7.867 7.867h-47.202c-4.345 0-7.867-3.522-7.867-7.867v-86.536h-86.536c-4.345 0-7.867-3.522-7.867-7.867v-47.202c0-4.344 3.522-7.867 7.867-7.867h86.536v-86.536c0-4.344 3.522-7.867 7.867-7.867h47.202c4.344 0 7.867 3.522 7.867 7.867v86.536h86.536c4.344 0 7.867 3.522 7.867 7.867v47.202c0 4.345-3.522 7.867-7.867 7.867z" />
<glyph unicode="&#xe377;" d="M496 288h-176.001v176c0 8.836-7.163 16-16 16h-96c-8.835 0-16-7.163-16-16v-176h-176c-8.835 0-16-7.163-16-16v-96c0-8.836 7.163-16 16-16h176v-176.001c0-8.836 7.163-16 16-16h96c8.836 0 16 7.165 16 16v176.001h176.001c8.836 0 16 7.163 16 16v96c0 8.836-7.163 16-16 16z" />
<glyph unicode="&#xe379;" d="M448 448h-352c-17.6 0-32-14.4-32-32v-128h64v96h288v-352h-288v96h-64v-128c0-17.6 14.399-32 32-32h352c17.6 0 32 14.4 32 32v416c0 17.6-14.4 32-32 32zM192 64l144 144-144 144v-96h-192v-96h192z" />
<glyph unicode="&#xe37a;" d="M496 208l-144 144v-96h-192v-96h192v-96zM416 384v32c0 17.6-14.4 32-32 32h-352c-17.6 0-32-14.4-32-32v-416c0-17.6 14.399-32 32-32h352c17.6 0 32 14.4 32 32v32h-352v352h352z" />
<glyph unicode="&#xe3a5;" d="M64 320h320v-96l128 128-128 128v-96h-384v-192h64zM448 128h-320v96l-128-128 128-128v96h384v192h-64z" />
<glyph unicode="&#xe3ab;" d="M384 128v64l128-96-128-96v64h-92c-12.621 0-25.021 6.379-32.36 16.648l-148.107 207.352h-111.533v64h124c12.624 0 25.025-6.381 32.363-16.653l51.637-72.292 51.64 72.297c7.339 10.269 19.739 16.648 32.36 16.648h92v64l128-96-128-96v64h-79.532l-57.143-80 57.143-80h79.532zM111.533 128l33.735 47.23 39.325-55.056-28.23-39.521c-7.338-10.272-19.739-16.653-32.363-16.653h-124v64h111.533z" />
<glyph unicode="&#xe3b0;" d="M0 160l96-96 160 160 160-160 96 96-255.999 256z" />
<glyph unicode="&#xe3b1;" d="M192 480l-96-96 160-160-160-160 96-96 256 256z" />
<glyph unicode="&#xe3b2;" d="M512 288l-96 96-160-160-160 160-96-96 256-255.999z" />
<glyph unicode="&#xe3b3;" d="M320-32l96 96-160 160 160 160-96 96-256-256z" />
<glyph unicode="&#xe3b4;" d="M384 160l-128 128-128-128z" />
<glyph unicode="&#xe3b5;" d="M192.001 96l128 128-128 128z" />
<glyph unicode="&#xe3b6;" d="M128 288l128-128 128 128z" />
<glyph unicode="&#xe3b7;" d="M320.001 352l-128-128 128-128.001z" />
<glyph unicode="&#xe418;" d="M384 256l-128 128-128-128zM128 160l128-128 128 128z" />
<glyph unicode="&#xe438;" d="M256 480c-141.385 0-256-114.615-256-256s114.615-256 256-256 256 114.615 256 256-114.615 256-256 256zM256 32c-106.039 0-192 85.961-192 192s85.961 192 192 192c106.039 0 192-85.961 192-192s-85.961-192-192-192zM160 224c0 53.019 42.981 96 96 96s96-42.981 96-96c0-53.019-42.981-96-96-96s-96 42.981-96 96z" />
<glyph unicode="&#xe439;" d="M256 480c-141.385 0-256-114.615-256-256s114.615-256 256-256 256 114.615 256 256-114.615 256-256 256zM256 32c-106.039 0-192 85.961-192 192s85.961 192 192 192c106.039 0 192-85.961 192-192s-85.961-192-192-192z" />
<glyph unicode="&#xe43a;" d="M256 480c-141.385 0-256-114.615-256-256s114.615-256 256-256 256 114.615 256 256-114.615 256-256 256zM256 0c-123.712 0-224 100.288-224 224s100.288 224 224 224 224-100.288 224-224-100.288-224-224-224z" />
<glyph unicode="&#xe43b;" d="M0 224c0 141.385 114.615 256 256 256s256-114.615 256-256c0-141.385-114.615-256-256-256s-256 114.615-256 256z" />
<glyph unicode="&#xe47b;" d="M128 160c0 0 29.412 96 192 96v-96l192 128-192 128v-96c-128 0-192-79.836-192-160zM352 96h-288v192h62.938c5.047 5.959 10.456 11.667 16.244 17.090 21.982 20.595 48.281 36.326 78.057 46.91h-221.239v-320h416v134.312l-64-42.667v-27.645z" />
<glyph unicode="&#xe47c;" d="M352 192l64 64v-256h-384v384h256l-64-64h-128v-256h256zM480 448v-176l-65.372 65.372-177.373-177.372h-45.255v45.256l177.372 177.372-65.372 65.372z" />
<glyph unicode="&#xe48c;" d="M432 128c-22.58 0-42.96-9.369-57.506-24.415l-215.502 107.751c0.657 4.126 1.008 8.353 1.008 12.664s-0.351 8.538-1.008 12.663l215.502 107.751c14.546-15.045 34.926-24.414 57.506-24.414 44.183 0 80 35.817 80 80s-35.817 80-80 80-80-35.817-80-80c0-4.311 0.352-8.538 1.008-12.663l-215.502-107.752c-14.546 15.045-34.926 24.415-57.506 24.415-44.183 0-80-35.818-80-80 0-44.184 35.817-80 80-80 22.58 0 42.96 9.369 57.506 24.414l215.502-107.751c-0.656-4.125-1.008-8.352-1.008-12.663 0-44.184 35.817-80 80-80s80 35.816 80 80c0 44.182-35.817 80-80 80z" />
<glyph unicode="&#xe4a1;" d="M426.67 480h-341.327c-46.938 0-85.343-38.406-85.343-85.344v-341.314c0-46.967 38.406-85.342 85.344-85.342h341.326c46.938 0 85.33 38.374 85.33 85.342v341.314c0 46.938-38.392 85.344-85.33 85.344zM139.472 64.376c-23.985 0-43.472 19.346-43.472 43.314 0 23.842 19.486 43.406 43.472 43.406 24.079 0 43.53-19.564 43.53-43.406-0.001-23.968-19.452-43.314-43.53-43.314zM248.734 64.002c0 40.905-15.904 79.409-44.73 108.222-28.857 28.875-67.188 44.813-107.952 44.813v62.593c118.826 0 215.563-96.721 215.563-215.627l-62.881-0.001zM359.814 64.002c0 145.531-118.329 263.97-263.688 263.97v62.624c180.001 0 326.473-146.562 326.473-326.596l-62.785 0.002z" />
<glyph unicode="&#xe4e1;" d="M267.313 468.686c-6.222 6.222-18.513 11.314-27.313 11.314h-192c-8.8 0-16-7.2-16-16v-480c0-8.8 7.2-16 16-16h384c8.8 0 16 7.2 16 16v288c0 8.8-5.091 21.091-11.313 27.313l-169.374 169.373zM416 0h-352v448h175.579c1.458-0.24 4.204-1.377 5.405-2.239l168.778-168.777c0.861-1.201 1.998-3.947 2.238-5.405v-271.579zM432 480h-96c-8.8 0-10.909-5.091-4.687-11.313l105.373-105.373c6.223-6.223 11.314-4.114 11.314 4.686v96c0 8.8-7.2 16-16 16z" />
<glyph unicode="&#xe4e2;" d="M421.006 185.26c-6.824 6.723-21.957 10.283-44.986 10.586-15.589 0.172-34.351-1.201-54.085-3.964-8.837 5.099-17.946 10.647-25.094 17.329-19.231 17.958-35.284 42.886-45.288 70.297 0.652 2.56 1.207 4.81 1.724 7.106 0 0 10.833 61.53 7.965 82.333-0.395 2.853-0.637 3.681-1.404 5.898l-0.941 2.417c-2.948 6.796-8.724 13.997-17.783 13.604l-5.458 0.172c-10.1 0-18.332-5.166-20.493-12.887-6.569-24.217 0.209-60.446 12.491-107.369l-3.144-7.643c-8.794-21.438-19.815-43.030-29.539-62.079l-1.264-2.476c-10.23-20.019-19.512-37.013-27.927-51.411l-8.688-4.594c-0.632-0.334-15.522-8.209-19.014-10.322-29.628-17.691-49.261-37.77-52.518-53.708-1.036-5.085-0.265-11.593 5.007-14.607l8.403-4.229c3.645-1.826 7.489-2.751 11.427-2.751 21.102 0 45.6 26.286 79.348 85.183 38.965 12.684 83.327 23.228 122.207 29.045 29.629-16.684 66.071-28.273 89.071-28.273 4.084 0 7.606 0.389 10.466 1.148 4.411 1.168 8.129 3.683 10.396 7.096 4.463 6.716 5.367 15.966 4.156 25.438-0.361 2.812-2.606 6.288-5.035 8.661zM105.823 72.976c3.848 10.521 19.080 31.322 41.602 49.778 1.416 1.148 4.904 4.416 8.097 7.451-23.551-37.562-39.323-52.533-49.699-57.229zM239.217 380.157c6.783 0 10.642-17.097 10.962-33.127s-3.429-27.28-8.079-35.604c-3.851 12.324-5.713 31.75-5.713 44.452 0 0-0.283 24.279 2.83 24.279zM199.426 161.253c4.725 8.458 9.641 17.378 14.665 26.839 12.246 23.158 19.979 41.278 25.739 56.173 11.455-20.842 25.722-38.56 42.493-52.756 2.092-1.771 4.309-3.551 6.637-5.325-34.105-6.748-63.582-14.955-89.534-24.931zM414.452 163.174c-2.077-1.299-8.027-2.050-11.854-2.050-12.353 0-27.636 5.647-49.063 14.833 8.234 0.609 15.781 0.919 22.55 0.919 12.391 0 16.060 0.054 28.175-3.036s12.269-9.367 10.192-10.666zM451.716 380.285l-71.432 71.431c-15.556 15.556-46.284 28.284-68.284 28.284h-240c-22 0-40-18-40-40v-432c0-22 18-40 40-40h368c22 0 40 18 40 40v304c0 22-12.728 52.729-28.284 68.285zM429.089 357.657c1.565-1.565 3.125-3.487 4.64-5.657h-81.729v81.728c2.17-1.515 4.092-3.075 5.657-4.64l71.432-71.431zM448 8c0-4.336-3.664-8-8-8h-368c-4.336 0-8 3.664-8 8v432c0 4.336 3.664 8 8 8h240c2.416 0 5.127-0.305 8-0.852v-127.148h127.148c0.547-2.873 0.852-5.583 0.852-8v-304z" />
<glyph unicode="&#xe600;" d="M342.504 472.021h-107.225v-78.305c35.71-2.276 71.431-4.215 107.225-5.741v84.045zM1064.449 313.145c0 22.037-3.015 45.966-10.686 68.406-6.444 19.368-16.324 38.043-30.391 53.589-12.184 14.067-27.684 25.858-46.761 33.481-17.401 7.184-37.958 11.379-61.54 11.379-50.545 0-90.452-19.368-118.641-49.056-11.042-11.697-20.239-25.053-27.731-39.41 44.683 3.016 89.468 6.809 134.553 11.679 36.928-0.384 70.7-10.264 71.918-53.233-71.018-7.258-146.813-11.969-225.221-14.188-1.986-10.976-3.072-22.159-3.259-33.322-0.403-47.118 15.509-94.235 49.375-128.101 28.855-29.623 71.514-49.421 128.11-50.948 23.985-0.768 47.923 1.124 69.576 4.908 23.938 4.233 45.263 10.695 61.541 17.495 0 0.402 0 0.815 0 1.171l-53.927 70.344c-10.284-3.063-21.325-5.32-32.33-6.49-11.37-1.489-23.217-1.892-34.221-1.892-12.54 0-24.716 1.536-35.711 4.954-10.284 3.025-19.789 7.97-27.413 14.451-5.273 4.533-9.833 9.881-13.261 15.968-3.784 5.675-6.078 12.531-7.98 20.126l-0.412 2.295 213.279 14.432c0.777 7.633 1.133 23.601 1.133 31.965zM50.91 112.012c0-15.144-5.273-27.685-14.432-37.2-9.113-9.506-21.691-15.959-36.478-18.666l38.736-88.147c38.417 8.392 68.406 23.536 88.606 44.458 20.557 21.279 31.15 48.241 31.15 80.618v273.096c-37.2 5.001-73.135 10.62-107.581 16.745v-270.905zM534.047 383.667l-9.468 29.81-19.031 58.918h-115.916l32.563-87.221c25.652-0.646 51.267-1.105 76.918-1.33 11.669-0.159 23.301-0.159 34.933-0.178zM158.492 472.021h-107.581v-63.685c35.804-3.381 71.692-6.472 107.581-9.225v72.91zM235.279 125.724h107.225v221.024c-36.394 2.894-72.189 6.247-107.225 10.058v-231.083zM749.18 472.396h-114.352c-9.29-30.297-18.263-59.536-27.328-88.26-5.236-16.558-10.367-32.966-15.64-49.272-6.903-21.503-13.982-42.922-21.203-64.294h-0.899c-1.536 4.907-3.025 10.237-4.598 15.154-1.442 5.357-2.969 10.667-4.87 15.978l-10.957 34.156c-15.827 0.431-31.664 0.974-47.623 1.574-20.96 0.815-41.892 1.808-62.758 2.95l80.252-214.675h97.756l79.625 208.728 20.248 53.187 32.349 84.776z" horiz-adv-x="1065" />
<glyph unicode="&#xe601;" d="M322.624 457.056l-28.8-86.336-86.304-86.4-28.8 28.832-86.336-28.832 86.336-86.272-28.8-28.8-119.424-178.304 177.024 120.736 28.736 28.768-45.216 45.248 131.584-131.584 28.736 86.336-28.736 28.8 86.304 86.304 86.4 28.768z" />
<glyph unicode="&#xe602;" d="M44.518 257.773l95.403-0.986 97.408 126.219 82.969-176.307 77.023 79.916 28.811-29.829h126.411l0.986-62.617-123.421-0.986-30.402 20.671-84.178-132.358-80.204 188.232-53.649-76.546h-137.16v64.589z" horiz-adv-x="663" />
<glyph unicode="&#xe603;" d="M363.968 10.944c-39.2-19.328-79.104-26.624-126.816-26.624-116.832 0-215.84 79.872-215.84 207.648 0 137.088 101.856 255.552 260 255.552 123.968 0 207.328-81.216 207.328-192.352 0-99.84-59.84-158.4-126.816-158.4-28.512 0-54.848 17.984-52.704 58.56h-2.88c-24.928-39.264-57.696-58.56-100.448-58.56-41.312 0-76.928 31.296-76.928 83.872 0 82.528 69.824 157.728 168.832 157.728 30.656 0 57.728-5.984 76.256-13.984l-24.224-120.48c-10.688-50.56-2.144-73.888 21.376-74.528 36.32-0.672 76.928 44.608 76.928 121.792 0 96.512-62.016 165.728-172.416 165.728-116.128 0-213.728-85.856-213.728-220.96 0-111.136 77.664-179.712 183.104-179.712 40.608 0 78.368 8 107.584 23.328l11.392-28.608zM324.768 298.432c-7.104 2.016-19.232 4.672-35.616 4.672-62.688 0-113.28-55.264-113.28-119.808 0-29.28 15.68-50.592 47.040-50.592 41.312 0 79.072 49.248 86.912 90.528l14.944 75.2z" />
<glyph unicode="&#xe604;" d="M480 480h-480v-512h512v512h-32zM192 416h32v-32h-32v32zM128 416h32v-32h-32v32zM64 416h32v-32h-32v32zM448 32h-384v139.968h384v-139.968zM448 226.848h-384v125.152h384v-125.152z" />
<glyph unicode="&#xe605;" d="M480 480h-480v-512h512v512h-32zM192 416h32v-32h-32v32zM128 416h32v-32h-32v32zM64 416h32v-32h-32v32zM448 32h-384v320h384v-320z" />
<glyph unicode="&#xe606;" d="M-96 638.016v0 0 0-4.032zM64 96c0-22.048 17.92-40 40-40h304c22.048 0 40 17.952 40 40s-17.952 40-40 40h-304c-22.080 0-40-17.952-40-40 0 0 0 22.048 0 0z" />
<glyph unicode="&#xe607;" d="M-96 638.016v0 0 0-4.032zM64 96c0-22.048 17.92-40 40-40h304c22.048 0 40 17.952 40 40s-17.952 40-40 40h-304c-22.080 0-40-17.952-40-40 0 0 0 22.048 0 0zM64 224c0-22.048 17.92-40 40-40h304c22.048 0 40 17.952 40 40 0 22.080-17.952 40-40 40h-304c-22.080 0-40-17.92-40-40 0 0 0 22.080 0 0z" />
<glyph unicode="&#xe608;" d="M-96 638.016v0 0 0-4.032zM64 96c0-22.048 17.92-40 40-40h304c22.048 0 40 17.952 40 40s-17.952 40-40 40h-304c-22.080 0-40-17.952-40-40 0 0 0 22.048 0 0zM64 224c0-22.048 17.92-40 40-40h304c22.048 0 40 17.952 40 40 0 22.080-17.952 40-40 40h-304c-22.080 0-40-17.92-40-40 0 0 0 22.080 0 0zM64 352c0-22.080 17.92-40 40-40h304c22.048 0 40 17.92 40 40s-17.952 40-40 40h-304c-22.080 0-40-17.92-40-40 0 0 0 22.080 0 0z" />
<glyph unicode="&#xe609;" d="M73.968 298.32c-40.864 0-73.968-33.28-73.968-74.32 0-41.024 33.104-74.336 73.968-74.336 40.848 0 73.968 33.296 73.968 74.336-0.016 41.040-33.136 74.32-73.968 74.32zM256 298.32c-40.848 0-73.968-33.28-73.968-74.32 0-41.024 33.12-74.336 73.968-74.336s73.968 33.296 73.968 74.336c0 41.040-33.12 74.32-73.968 74.32zM438.032 298.32c-40.848 0-73.952-33.28-73.952-74.32 0-41.024 33.12-74.336 73.952-74.336 40.848 0 73.968 33.296 73.968 74.336s-33.104 74.32-73.968 74.32z" />
<glyph unicode="&#xe60a;" d="M406.974 480h-301.949c-58.001 0-105.025-47.025-105.025-105.025v-301.949c0-58 47.025-105.025 105.025-105.025h301.949c58 0 105.026 47.025 105.026 105.025v301.949c0 58-47.025 105.026-105.025 105.026zM324.433 107.868l-0.114 72.372c-26.58 0-212.467 52.863-265.61-72.371 0 31.307 26.572 187.839 265.724 187.839v62.622l132.866-125.226-132.866-125.235z" />
<glyph unicode="&#xe60b;" d="M406.974 480h-301.949c-58.001 0-105.025-47.025-105.025-105.025v-301.949c0-58 47.025-105.025 105.025-105.025h301.949c58 0 105.026 47.025 105.026 105.025v301.949c0 58-47.025 105.026-105.025 105.026zM234.969 337.524c1.313 3.833 3.466 7.44 6.441 10.809 2.984 3.379 6.949 6.214 11.911 8.534 4.963 2.311 11.133 3.466 18.554 3.466 4.621 0 8.997-0.525 13.102-1.584 4.096-1.068 7.667-2.678 10.712-4.875 3.046-2.18 5.462-5.050 7.247-8.629 1.776-3.58 2.67-7.807 2.67-12.691 0-4.516-0.726-8.875-2.171-13.102-1.462-4.236-3.772-8.008-6.949-11.308-3.177-3.309-7.177-5.987-12.008-8.035-4.84-2.048-10.608-3.072-17.356-3.072-11.649 0-20.244 2.731-25.802 8.227s-8.341 12.795-8.341 21.933c0 3.054 0.665 6.486 1.987 10.327zM321.685 123.202c-4.752-4.358-10.695-9.024-17.758-13.995-7.080-4.954-14.721-9.522-22.913-13.68s-16.577-7.64-25.11-10.415c-8.524-2.783-16.629-4.166-24.296-4.166-6.879 0-12.673 0.954-17.373 2.862-4.7 1.934-8.499 4.595-11.404 8.052-2.915 3.431-5.006 7.632-6.258 12.586-1.261 4.962-1.881 10.415-1.881 16.375 0 8.332 0.945 18.020 2.88 29.066 1.908 11.054 4.262 22.484 7.036 34.326 2.783 11.851 5.724 23.639 8.831 35.42s5.855 22.633 8.236 32.558c0.919 3.44 2.774 6.371 5.558 8.822 2.774 2.451 5.917 4.428 9.417 5.96 3.51 1.514 7.15 2.635 10.923 3.369 3.763 0.726 7.168 1.094 10.214 1.094 5.549 0 9.321-1.033 11.308-3.081s2.976-4.787 2.976-8.236c0-2.905-0.674-7.106-1.978-12.594-1.339-5.496-2.985-11.71-4.971-18.651-1.986-6.932-4.105-14.415-6.354-22.414-2.24-8.008-4.368-16.017-6.345-24.024s-3.641-15.815-4.953-23.403c-1.321-7.623-1.987-14.467-1.987-20.55 0-5.952 0.665-10.678 1.987-14.178 1.313-3.519 4.035-5.269 8.131-5.269 4.761 0 10.056 1.646 15.885 4.954 5.82 3.3 11.711 7.308 17.653 12.008 5.969 4.7 11.781 9.548 17.469 14.59 5.68 5.024 10.721 9.313 15.080 12.892v-40.277z" />
<glyph unicode="&#xe60c;" d="M206.724 95.67l-6.088 10.696c-7.007 12.288-17.166 22.368-29.398 29.162-16.863 9.339-37.123 11.93-55.969 7.209l-12.109-3.038-22.48 161.013 13.544-0.684c17.939-0.818 35.99 4.002 51.451 14.037 16.234 10.539 28.579 26.101 34.779 43.804l4.305 12.322 143.389-76.084-5.628-10.012c-14.464-25.709-14.048-56.126 1.077-79.403 1.592-2.455 3.498-4.955 6.032-7.882l8.14-9.396-131.044-91.746zM134.284 167.503c16.695 0 33.232-4.283 47.829-12.378 12.266-6.795 22.906-16.145 31.292-27.39l91.724 64.233c-0.123 0.18-0.236 0.359-0.348 0.538-17.659 27.178-20.036 61.654-6.896 92.296l-101.299 53.738c-8.622-17.367-22.042-32.459-38.703-43.277-15.595-10.113-33.198-16.078-51.373-17.446l15.506-111.065c4.081 0.493 8.184 0.751 12.266 0.751zM98.328 277.424c-34.14 0-65.174 16.403-83.023 43.894-29.88 46.014-14.53 109.192 34.208 140.843 17.984 11.671 38.58 17.838 59.557 17.838 34.129 0 65.163-16.403 83.012-43.894 14.553-22.402 18.937-49.456 12.356-76.162-6.525-26.448-23.063-49.411-46.563-64.681-17.972-11.671-38.569-17.838-59.546-17.838zM109.069 457.577c-16.639 0-33.008-4.911-47.347-14.228-38.367-24.913-50.756-74.178-27.603-109.82 13.69-21.089 37.694-33.68 64.21-33.68 16.638 0 33.007 4.911 47.347 14.228 18.702 12.143 31.841 30.339 36.999 51.238 5.090 20.63 1.749 41.439-9.385 58.582-13.701 21.089-37.706 33.68-64.222 33.68zM133.331-32c-16.728 0-33.333 4.305-48.031 12.445-23.254 12.882-40.071 34.095-47.359 59.703s-4.182 52.55 8.757 75.87c17.625 31.797 51.115 51.552 87.397 51.552 16.728 0 33.333-4.305 48.031-12.445 47.976-26.606 65.298-87.418 38.602-135.563-17.625-31.808-51.103-51.564-87.397-51.564zM134.105 145.147c-28.142 0-54.108-15.327-67.787-39.993-10.035-18.084-12.445-39.006-6.794-58.851 5.639-19.845 18.668-36.259 36.662-46.226 11.38-6.301 24.229-9.642 37.156-9.642 28.142 0 54.108 15.327 67.787 39.993 20.697 37.336 7.287 84.481-29.869 105.077-11.38 6.301-24.229 9.642-37.156 9.642zM387.784 148.567c-34.129 0-65.163 16.414-83.012 43.894-14.553 22.413-18.937 49.456-12.366 76.173 6.526 26.448 23.051 49.422 46.541 64.681 17.984 11.683 38.568 17.849 59.558 17.849 34.129 0 65.163-16.403 83.012-43.894 14.553-22.401 18.937-49.455 12.366-76.173-6.526-26.449-23.051-49.422-46.529-64.681-17.984-11.671-38.58-17.849-59.569-17.849zM398.514 328.752c-16.639 0-33.007-4.922-47.347-14.239-18.702-12.143-31.841-30.351-36.988-51.238-5.079-20.63-1.749-41.439 9.396-58.593 13.701-21.089 37.694-33.692 64.21-33.692 16.639 0 33.019 4.922 47.359 14.25 18.702 12.142 31.831 30.339 36.976 51.238 5.079 20.63 1.749 41.439-9.396 58.593-13.701 21.089-37.705 33.68-64.21 33.68zM133.69 167.571c-55.005 0-99.595-44.589-99.595-99.595 0-54.994 44.59-99.595 99.595-99.595s99.584 44.601 99.584 99.595c0 55.005-44.589 99.595-99.584 99.595v0z" horiz-adv-x="497" />
<glyph unicode="&#xe60d;" d="M206.724 95.67l-6.088 10.696c-7.007 12.288-17.166 22.368-29.398 29.162-16.863 9.339-37.123 11.93-55.969 7.209l-12.109-3.038-22.48 161.013 13.544-0.684c17.939-0.818 35.99 4.002 51.451 14.037 16.234 10.539 28.579 26.101 34.779 43.804l4.305 12.322 143.389-76.084-5.628-10.012c-14.464-25.709-14.048-56.126 1.077-79.403 1.592-2.455 3.498-4.955 6.032-7.882l8.14-9.396-131.044-91.746zM134.284 167.503c16.695 0 33.232-4.283 47.829-12.378 12.266-6.795 22.906-16.145 31.292-27.39l91.724 64.233c-0.123 0.18-0.236 0.359-0.348 0.538-17.659 27.178-20.036 61.654-6.896 92.296l-101.299 53.738c-8.622-17.367-22.042-32.459-38.703-43.277-15.595-10.113-33.198-16.078-51.373-17.446l15.506-111.065c4.081 0.493 8.184 0.751 12.266 0.751zM98.328 277.424c-34.14 0-65.174 16.403-83.023 43.894-29.88 46.014-14.53 109.192 34.208 140.843 17.984 11.671 38.58 17.838 59.557 17.838 34.129 0 65.163-16.403 83.012-43.894 14.553-22.402 18.937-49.456 12.356-76.162-6.525-26.448-23.063-49.411-46.563-64.681-17.972-11.671-38.569-17.838-59.546-17.838zM109.069 457.577c-16.639 0-33.008-4.911-47.347-14.228-38.367-24.913-50.756-74.178-27.603-109.82 13.69-21.089 37.694-33.68 64.21-33.68 16.638 0 33.007 4.911 47.347 14.228 18.702 12.143 31.841 30.339 36.999 51.238 5.090 20.63 1.749 41.439-9.385 58.582-13.701 21.089-37.706 33.68-64.222 33.68zM133.331-32c-16.728 0-33.333 4.305-48.031 12.445-23.254 12.882-40.071 34.095-47.359 59.703s-4.182 52.55 8.757 75.87c17.625 31.797 51.115 51.552 87.397 51.552 16.728 0 33.333-4.305 48.031-12.445 47.976-26.606 65.298-87.418 38.602-135.563-17.625-31.808-51.103-51.564-87.397-51.564zM134.105 145.147c-28.142 0-54.108-15.327-67.787-39.993-10.035-18.084-12.445-39.006-6.794-58.851 5.639-19.845 18.668-36.259 36.662-46.226 11.38-6.301 24.229-9.642 37.156-9.642 28.142 0 54.108 15.327 67.787 39.993 20.697 37.336 7.287 84.481-29.869 105.077-11.38 6.301-24.229 9.642-37.156 9.642zM387.784 148.567c-34.129 0-65.163 16.414-83.012 43.894-14.553 22.413-18.937 49.456-12.366 76.173 6.526 26.448 23.051 49.422 46.541 64.681 17.984 11.683 38.568 17.849 59.558 17.849 34.129 0 65.163-16.403 83.012-43.894 14.553-22.401 18.937-49.455 12.366-76.173-6.526-26.449-23.051-49.422-46.529-64.681-17.984-11.671-38.58-17.849-59.569-17.849zM398.514 328.752c-16.639 0-33.007-4.922-47.347-14.239-18.702-12.143-31.841-30.351-36.988-51.238-5.079-20.63-1.749-41.439 9.396-58.593 13.701-21.089 37.694-33.692 64.21-33.692 16.639 0 33.019 4.922 47.359 14.25 18.702 12.142 31.831 30.339 36.976 51.238 5.079 20.63 1.749 41.439-9.396 58.593-13.701 21.089-37.705 33.68-64.21 33.68z" horiz-adv-x="497" />
<glyph unicode="&#xe60e;" d="M489.027 245.19c0 0.124 0.022 0.246 0.022 0.381 0 0.964-0.123 1.895-0.146 2.848-0.067 2.344-0.135 4.675-0.348 7.007-0.067 0.661-0.19 1.3-0.269 1.951-0.303 2.724-0.695 5.438-1.233 8.118-0.045 0.236-0.112 0.448-0.157 0.684-5.673 27.436-22.682 52.337-48.996 66.924-14.699 8.151-31.293 12.445-48.020 12.445-16.538 0-32.391-4.272-46.518-11.739-0.56-0.291-1.132-0.538-1.659-0.841-2.052-1.132-4.014-2.354-5.987-3.632-1.39-0.897-2.758-1.839-4.103-2.803-1.615-1.155-3.218-2.298-4.754-3.554-2.736-2.22-5.382-4.552-7.87-7.052-0.707-0.707-1.334-1.491-2.029-2.22-2.13-2.276-4.171-4.653-6.099-7.13-0.594-0.774-1.177-1.536-1.76-2.332l-104.685 55.543c0.011 0.056 0.034 0.101 0.045 0.157 6.582 26.718 2.197 53.761-12.356 76.162-17.861 27.492-48.895 43.894-83.035 43.894-20.977 0-41.573-6.166-59.557-17.838-48.738-31.651-64.087-94.83-34.208-140.843 15.27-23.511 40.217-38.827 68.471-42.785l16.325-116.894c-37.032-13.286-63.829-47.808-65.769-88.943-0.068-1.356-0.202-2.702-0.213-4.058 0-0.224-0.033-0.438-0.033-0.661 0-1.021 0.123-2.018 0.157-3.038 0.056-2.197 0.123-4.406 0.337-6.604 0.078-0.885 0.236-1.738 0.347-2.613 0.303-2.5 0.651-4.99 1.144-7.478 0.101-0.482 0.236-0.964 0.337-1.447 0.471-2.22 0.919-4.44 1.547-6.649 7.288-25.608 24.105-46.82 47.359-59.703 14.698-8.151 31.303-12.445 48.031-12.445 19.822 0 38.703 6.065 54.725 16.594 0.942 0.628 1.861 1.255 2.78 1.906 1.995 1.401 3.969 2.825 5.852 4.373 1.401 1.155 2.714 2.411 4.048 3.632 2.276 2.096 4.463 4.26 6.559 6.57 1.57 1.726 3.095 3.487 4.541 5.315 0.964 1.222 1.895 2.478 2.803 3.745 1.827 2.557 3.52 5.191 5.101 7.904 0.303 0.527 0.695 0.986 0.987 1.525 0.089 0.168 0.157 0.337 0.246 0.505 1.189 2.152 2.231 4.406 3.262 6.66 0.325 0.717 0.729 1.424 1.042 2.152 1.211 2.837 2.276 5.752 3.229 8.7 0.056 0.19 0.146 0.37 0.202 0.56 0.785 2.489 1.401 5.046 1.984 7.613 0.157 0.673 0.37 1.312 0.505 1.985 0.28 1.346 0.426 2.747 0.65 4.115 0.314 1.906 0.673 3.812 0.875 5.729 0.101 0.986 0.101 2.007 0.179 3.016 0.168 2.31 0.337 4.62 0.347 6.929 0 0.157 0.023 0.303 0.023 0.459 0 1.166-0.135 2.31-0.179 3.476-0.067 1.962-0.112 3.913-0.292 5.853-0.157 1.704-0.448 3.386-0.684 5.068-0.224 1.502-0.404 3.016-0.695 4.507-0.347 1.783-0.796 3.521-1.233 5.281-0.347 1.401-0.673 2.814-1.077 4.193-0.471 1.581-1.020 3.106-1.57 4.653-0.549 1.581-1.099 3.161-1.726 4.709-0.347 0.863-0.729 1.693-1.11 2.557l94.773 66.374c6.357-6.279 13.555-11.772 21.583-16.212 0.438-0.236 0.92-0.404 1.368-0.651 2.87-1.547 5.83-2.938 8.846-4.193 1.424-0.594 2.882-1.065 4.339-1.592 2.142-0.774 4.317-1.514 6.526-2.13 1.514-0.438 3.038-0.818 4.575-1.177 2.265-0.527 4.563-0.953 6.896-1.323 1.447-0.236 2.892-0.505 4.35-0.673 3.229-0.37 6.514-0.572 9.833-0.628 0.438-0.011 0.863-0.089 1.3-0.089 0.056 0 0.101 0.011 0.157 0.011 0.067 0 0.135-0.011 0.202-0.011 4.26 0 8.42 0.348 12.524 0.875 0.505 0.067 0.998 0.157 1.502 0.224 47.224 6.683 83.73 46.394 85.389 95.054 0.034 1.009 0.146 2.030 0.146 3.049zM34.117 333.529c-23.152 35.642-10.764 84.908 27.604 109.82 14.34 9.317 30.709 14.228 47.347 14.228 26.516 0 50.51-12.591 64.21-33.68 11.144-17.143 14.475-37.952 9.385-58.582-0.617-2.511-1.368-4.978-2.208-7.4l-0.011-0.022c-1.48-4.238-3.363-8.331-5.516-12.277-0.157-0.281-0.292-0.561-0.448-0.841-2.153-3.846-4.631-7.535-7.377-11.033-0.224-0.28-0.448-0.56-0.673-0.841-2.769-3.442-5.797-6.693-9.082-9.698-0.292-0.269-0.617-0.527-0.93-0.796-3.363-3.016-6.94-5.83-10.774-8.319-3.801-2.466-7.758-4.597-11.828-6.424-0.527-0.236-1.088-0.393-1.625-0.617-3.621-1.536-7.299-2.904-11.055-3.946-0.471-0.135-0.942-0.191-1.401-0.314-3.823-0.987-7.703-1.749-11.605-2.209-0.628-0.067-1.255-0.078-1.883-0.135-3.812-0.359-7.636-0.527-11.469-0.381-25.070 1.065-47.583 13.331-60.656 33.467zM213.406 127.724c-0.023 0.034-0.056 0.067-0.089 0.101-8.14 10.887-18.567 20.305-31.191 27.301-1.671 0.92-3.442 1.625-5.146 2.444-1.614 0.774-3.196 1.615-4.855 2.298-1.682 0.695-3.419 1.267-5.135 1.884-1.883 0.673-3.767 1.312-5.707 1.873-1.671 0.471-3.341 0.897-5.046 1.289-2.108 0.493-4.25 0.885-6.413 1.233-1.57 0.247-3.128 0.538-4.698 0.717-3.117 0.348-6.279 0.538-9.463 0.606-0.516 0.011-1.031 0.101-1.559 0.101-0.056 0-0.124-0.011-0.179-0.011-0.078 0-0.157 0.011-0.236 0.011-3.958 0-7.837-0.291-11.671-0.74l-15.506 110.986c1.054 0.079 2.085 0.325 3.128 0.438 2.601 0.269 5.168 0.617 7.736 1.077 2.41 0.426 4.776 0.998 7.142 1.592 2.276 0.572 4.552 1.121 6.795 1.838 2.826 0.908 5.595 2.030 8.353 3.173 1.738 0.718 3.498 1.323 5.191 2.131 4.463 2.108 8.823 4.474 13.017 7.198 0.045 0.022 0.078 0.056 0.124 0.089 3.756 2.444 7.276 5.158 10.673 7.994 0.74 0.616 1.446 1.245 2.164 1.873 3.308 2.904 6.458 5.942 9.362 9.183 0.011 0.011 0.034 0.034 0.045 0.056 3.161 3.521 6.043 7.254 8.689 11.134 0.246 0.37 0.482 0.751 0.729 1.121 2.321 3.487 4.428 7.086 6.313 10.808 0.179 0.348 0.415 0.662 0.594 1.009l101.299-53.738c-0.034-0.079-0.056-0.18-0.089-0.258-1.39-3.274-2.59-6.626-3.632-10.057-0.684-2.22-1.177-4.451-1.716-6.693l-0.011-0.034c-0.112-0.471-0.258-0.931-0.359-1.402s-0.19-0.93-0.281-1.401c-5.202-25.048-0.93-51.003 12.995-72.44 0.112-0.18 0.236-0.359 0.348-0.538l-91.713-64.244z" horiz-adv-x="497" />
<glyph unicode="&#xe60f;" d="M489.027 245.19c0 0.124 0.022 0.246 0.022 0.381 0 0.964-0.123 1.895-0.146 2.848-0.067 2.344-0.135 4.675-0.348 7.007-0.067 0.661-0.19 1.3-0.269 1.951-0.303 2.724-0.695 5.438-1.233 8.118-0.045 0.236-0.112 0.448-0.157 0.684-5.673 27.436-22.682 52.337-48.996 66.924-14.699 8.151-31.293 12.445-48.020 12.445-16.538 0-32.391-4.272-46.518-11.739-0.56-0.291-1.132-0.538-1.659-0.841-2.052-1.132-4.014-2.354-5.987-3.632-1.39-0.897-2.758-1.839-4.103-2.803-1.615-1.155-3.218-2.298-4.754-3.554-2.736-2.22-5.382-4.552-7.87-7.052-0.707-0.707-1.334-1.491-2.029-2.22-2.13-2.276-4.171-4.653-6.099-7.13-0.594-0.774-1.177-1.536-1.76-2.332l-104.517 55.454c1.189 6.167 1.861 12.513 1.861 19.016 0 55.005-44.589 99.595-99.595 99.595s-99.617-44.589-99.617-99.595c0-46.877 32.425-86.084 76.050-96.68l16.818-120.404c-37.032-13.286-63.829-47.808-65.769-88.943-0.068-1.356-0.202-2.702-0.213-4.058 0-0.224-0.033-0.438-0.033-0.661 0-1.021 0.123-2.018 0.157-3.038 0.056-2.197 0.123-4.406 0.337-6.604 0.078-0.885 0.236-1.738 0.347-2.613 0.303-2.5 0.651-4.99 1.144-7.478 0.101-0.482 0.236-0.964 0.337-1.447 0.471-2.22 0.919-4.44 1.547-6.649 7.288-25.608 24.105-46.82 47.359-59.703 14.698-8.151 31.303-12.445 48.031-12.445 19.822 0 38.703 6.065 54.725 16.594 0.942 0.628 1.861 1.255 2.78 1.906 1.995 1.401 3.969 2.825 5.852 4.373 1.401 1.155 2.714 2.411 4.048 3.632 2.276 2.096 4.463 4.26 6.559 6.57 1.57 1.726 3.095 3.487 4.541 5.315 0.964 1.222 1.895 2.478 2.803 3.745 1.827 2.557 3.52 5.191 5.101 7.904 0.303 0.527 0.695 0.986 0.987 1.525 0.089 0.168 0.157 0.337 0.246 0.505 1.189 2.152 2.231 4.406 3.262 6.66 0.325 0.717 0.729 1.424 1.042 2.152 1.211 2.837 2.276 5.752 3.229 8.7 0.056 0.19 0.146 0.37 0.202 0.56 0.785 2.489 1.401 5.046 1.984 7.613 0.157 0.673 0.37 1.312 0.505 1.985 0.28 1.346 0.426 2.747 0.65 4.115 0.314 1.906 0.673 3.812 0.875 5.729 0.101 0.986 0.101 2.007 0.179 3.016 0.168 2.31 0.337 4.62 0.347 6.929 0 0.157 0.023 0.303 0.023 0.459 0 1.166-0.135 2.31-0.179 3.476-0.067 1.962-0.112 3.913-0.292 5.853-0.157 1.704-0.448 3.386-0.684 5.068-0.224 1.502-0.404 3.016-0.695 4.507-0.347 1.783-0.796 3.521-1.233 5.281-0.347 1.401-0.673 2.814-1.077 4.193-0.471 1.581-1.020 3.106-1.57 4.653-0.549 1.581-1.099 3.161-1.726 4.709-0.347 0.863-0.729 1.693-1.11 2.557l94.774 66.374c6.357-6.279 13.555-11.772 21.583-16.212 0.438-0.236 0.92-0.404 1.368-0.651 2.87-1.547 5.83-2.938 8.846-4.193 1.424-0.594 2.882-1.065 4.339-1.592 2.142-0.774 4.317-1.514 6.526-2.13 1.514-0.438 3.038-0.818 4.575-1.177 2.265-0.527 4.563-0.953 6.896-1.323 1.447-0.236 2.892-0.505 4.35-0.673 3.229-0.37 6.514-0.572 9.833-0.628 0.438-0.011 0.863-0.089 1.3-0.089 0.056 0 0.101 0.011 0.157 0.011 0.067 0 0.135-0.011 0.202-0.011 4.26 0 8.42 0.348 12.524 0.875 0.505 0.067 0.998 0.157 1.502 0.224 47.224 6.683 83.73 46.394 85.389 95.054 0.034 1.020 0.146 2.041 0.146 3.061zM213.406 127.724c-0.023 0.034-0.056 0.067-0.089 0.101-8.14 10.887-18.567 20.305-31.191 27.301-1.671 0.92-3.442 1.625-5.146 2.444-1.614 0.774-3.196 1.615-4.855 2.298-1.682 0.695-3.419 1.267-5.135 1.884-1.883 0.673-3.767 1.312-5.707 1.873-1.671 0.471-3.341 0.897-5.046 1.289-2.108 0.493-4.25 0.885-6.413 1.233-1.57 0.247-3.128 0.538-4.698 0.717-3.117 0.348-6.279 0.538-9.463 0.606-0.516 0.011-1.031 0.101-1.559 0.101-0.056 0-0.124-0.011-0.179-0.011-0.078 0-0.157 0.011-0.236 0.011-3.958 0-7.837-0.291-11.671-0.74l-15.506 110.986c5.695 0.426 11.29 1.469 16.829 2.781 33.255 5.572 60.892 27.547 74.301 57.382l100.234-53.178c-0.034-0.078-0.056-0.179-0.089-0.258-1.39-3.274-2.59-6.626-3.632-10.057-0.684-2.22-1.177-4.451-1.716-6.694l-0.011-0.034c-0.112-0.471-0.258-0.93-0.359-1.401s-0.19-0.93-0.281-1.401c-5.202-25.048-0.93-51.002 12.995-72.44 0.112-0.18 0.236-0.359 0.348-0.538l-91.724-64.255z" horiz-adv-x="497" />
<glyph unicode="&#xe610;" d="M406.974 480h-301.949c-58.001 0-105.025-47.025-105.025-105.025v-301.949c0-58 47.025-105.025 105.025-105.025h301.949c58 0 105.026 47.025 105.026 105.025v301.949c0 58-47.025 105.026-105.025 105.026zM319.252 102.153h-219.731c0 0-1.776 57.239 4.157 66.472 6.591 10.31 28.794 16.69 50.788 25.889 21.951 9.128 27.167 12.332 27.167 12.332l0.202 21.049c0 0-8.227 6.354-10.782 26.169-5.147-1.47-10.555 7.675-10.844 12.524-0.298 4.63 0.7 17.548 6.993 16.252-1.286 9.724-2.206 18.485-1.768 23.106 1.645 16.935 18.318 34.807 43.945 34.807s42.316-17.872 43.945-34.807c0.429-4.621-0.499-13.382-1.768-23.106 6.275 1.296 7.273-11.623 6.984-16.252-0.28-4.849-5.689-13.994-10.827-12.524-2.573-19.823-10.809-26.169-10.809-26.169l0.21-21.049c0 0 5.208-3.204 27.175-12.332 21.986-9.199 44.19-15.579 50.78-25.889 5.934-9.233 4.183-66.472 4.183-66.472zM419.35 102.153h-73.159c2.223 73.115-5.549 85.272-8.498 89.85-5.024 7.868-29.039 5.19-38.229 10.257l16.481 12.875c0 0-7.404 5.689-9.706 23.5-4.621-1.321-9.47 6.905-9.733 11.246-0.272 4.166 0.613 15.789 6.293 14.625-1.182 8.734-1.986 16.568-1.611 20.725 1.497 15.238 16.463 31.28 39.49 31.28 23.045 0 38.028-16.043 39.507-31.28 0.394-4.157-0.481-11.99-1.611-20.725 5.654 1.164 6.521-10.468 6.293-14.625-0.262-4.341-5.111-12.568-9.724-11.246-2.32-17.81-9.706-23.5-9.706-23.5l0.166-18.949c0 0 4.691-2.836 24.436-11.063 19.753-8.236 19.666-13.995 25.591-23.281 5.322-8.271 3.719-59.69 3.719-59.69z" />
<glyph unicode="&#xe611;" d="M414.496-2.256h-35.2v53.552h-57.296v89.392h57.296v51.792h36.704v39.52c0 13.2-10.8 24-24 24h-8v96c0 52.928-43.056 96-96 96h-64c-52.928 0-96-43.072-96-96v-96h-8c-13.2 0-24-10.8-24-24v-240c0-13.2 10.8-24 24-24h272c10.384 0 19.184 6.72 22.512 16h-0.016v13.744zM320 256h-128v96c0 17.648 14.352 32 32 32h64c17.664 0 32-14.352 32-32v-96zM496 114h-50v50h-36v-50h-50v-36h50v-50h36v50h50z" />
<glyph unicode="&#xe612;" d="M406.974 480h-301.949c-58.001 0-105.025-47.025-105.025-105.025v-301.949c0-58 47.025-105.025 105.025-105.025h301.949c58 0 105.026 47.025 105.026 105.025v301.949c0 58-47.025 105.026-105.025 105.026zM99.932 356.254h313.423c2.11 0 4.070-33.6 6.012-34.151l-116.657-99.844-15.474-12.612-30.641-35.945-30.51 35.892-15.492 12.594-116.692 99.906c1.943 0.56 3.921 34.159 6.030 34.159zM78.594 117.163v172.767c0 2.267 0.447 4.402 1.112 6.468l112.299-91.644-112.203-94.383c-0.727 2.127-1.208 4.385-1.208 6.791zM413.354 78.303h-313.432c-2.004 0-3.947 4.77-5.742 5.277l117.218 102.015 45.196-40.146 45.31 40.19 117.209-102.058c-1.838-0.517-3.789-5.277-5.759-5.277zM434.683 115.858c0-2.425-0.499-4.647-1.234-6.791l-106.873 95.757 106.951 90.252c0.7-2.048 1.156-4.201 1.156-6.476v-172.741z" />
<glyph unicode="&#xe613;" d="M505.696 4.72l-219.28 219.28 219.28 219.28c8.352 8.368 8.352 22.048 0 30.432-8.416 8.4-22.064 8.4-30.416 0l-219.28-219.296-219.28 219.248c-8.416 8.416-22.048 8.416-30.432 0-8.368-8.368-8.368-22.016 0-30.432l219.28-219.232-219.28-219.28c-8.368-8.432-8.368-22.080 0-30.432 8.4-8.336 22.016-8.336 30.464 0l219.248 219.28 219.28-219.28c8.416-8.416 22.064-8.336 30.416 0 8.368 8.352 8.448 22 0 30.432z" />
<glyph unicode="&#xe614;" d="M495.744 62.272l-160.992 160.992 161.056 161.040c21.664 21.696 21.712 56.944 0 78.624-21.776 21.728-57.024 21.76-78.704 0l-161.024-161.008-161.056 161.040c-21.728 21.728-56.944 21.728-78.656 0-21.728-21.712-21.728-56.96 0-78.656l160.976-161.008-160.976-161.024c-21.728-21.712-21.728-56.928 0-78.64 21.712-21.712 56.96-21.712 78.656-0.080l161.008 161.072 161.040-161.072c21.696-21.648 56.928-21.648 78.672 0.080 21.728 21.712 21.728 56.912 0 78.64z" />
<glyph unicode="&#xe615;" d="M375.632 224.016c37.136-37.216 74.256-74.416 111.44-111.648 77.12-77.392-42.432-197.28-119.68-119.808-37.088 37.248-74.24 74.416-111.376 111.6-37.12-37.168-74.288-74.336-111.424-111.6-77.232-77.392-196.848 42.432-119.632 119.808 37.152 37.216 74.304 74.416 111.424 111.648-37.12 37.232-74.272 74.416-111.424 111.6-77.216 77.36 42.4 197.216 119.616 119.856 37.136-37.232 74.304-74.432 111.424-111.632 37.152 37.232 74.288 74.432 111.376 111.632 77.248 77.328 196.896-42.496 119.68-119.856-37.152-37.184-74.288-74.368-111.424-111.6z" />
<glyph unicode="&#xe616;" d="M-531.727 869.663c-2.188-2.004-4.91-4.149-8.157-6.424s-6.756-4.376-10.52-6.284-7.606-3.51-11.527-4.779c-3.912-1.278-7.64-1.916-11.159-1.916-3.159 0-5.82 0.438-7.973 1.322s-3.904 2.11-5.234 3.693c-1.339 1.576-2.293 3.501-2.87 5.785s-0.866 4.779-0.866 7.518c0 3.824 0.438 8.271 1.322 13.347s1.961 10.327 3.23 15.762c1.278 5.435 2.625 10.853 4.052 16.261s2.687 10.389 3.781 14.949c0.42 1.576 1.278 2.923 2.556 4.052 1.278 1.12 2.722 2.031 4.323 2.731 1.611 0.7 3.282 1.216 5.015 1.549s3.291 0.508 4.691 0.508c2.556 0 4.28-0.473 5.19-1.418s1.365-2.197 1.365-3.781c0-1.331-0.307-3.264-0.91-5.785-0.612-2.52-1.365-5.374-2.275-8.568-0.91-3.186-1.881-6.616-2.914-10.293s-2.004-7.352-2.914-11.028-1.672-7.255-2.275-10.747c-0.604-3.492-0.91-6.634-0.91-9.435 0-2.731 0.307-4.91 0.91-6.512 0.604-1.611 1.856-2.416 3.737-2.416 2.188 0 4.612 0.762 7.29 2.276 2.669 1.514 5.374 3.352 8.105 5.514 2.731 2.153 5.409 4.385 8.017 6.696s4.918 4.28 6.923 5.916v-18.493zM-572.451 963.319c0 1.401 0.307 2.976 0.91 4.744 0.604 1.759 1.593 3.413 2.958 4.962s3.186 2.853 5.47 3.921 5.111 1.593 8.516 1.593c2.127 0 4.131-0.245 6.013-0.726 1.881-0.49 3.519-1.234 4.918-2.232 1.391-0.998 2.503-2.32 3.326-3.965s1.226-3.589 1.226-5.829c0-2.066-0.332-4.070-0.997-6.013-0.674-1.943-1.733-3.676-3.186-5.199-1.462-1.514-3.291-2.748-5.514-3.684s-4.875-1.409-7.973-1.409c-5.347 0-9.295 1.26-11.851 3.781s-3.816 5.864-3.816 10.056zM255.738 260.776c-12.97 0-23.263-5.076-30.869-15.22-7.614-10.153-11.422-22.554-11.422-37.214 0-4.516 0.429-9.024 1.269-13.539 0.857-4.507 2.328-8.524 4.446-12.051 2.118-3.51 5.076-6.416 8.883-8.664 3.798-2.25 8.665-3.378 14.59-3.378 8.734 0 15.999 1.541 21.775 4.647 5.767 3.099 10.363 7.115 13.75 12.051 3.37 4.928 5.689 10.424 6.976 16.489 1.26 6.065 1.899 12.051 1.899 17.977 0 11.273-2.538 20.577-7.615 27.911-5.085 7.326-12.988 10.993-23.684 10.993zM406.974 480h-301.949c-58.001 0-105.025-47.025-105.025-105.025v-301.949c0-58 47.025-105.025 105.025-105.025h301.949c58 0 105.026 47.025 105.026 105.025v301.949c0 58-47.025 105.026-105.025 105.026zM405.635 196.921c-3.527-10.993-8.043-20.288-13.522-27.902-5.505-7.623-11.719-13.82-18.625-18.625-6.906-4.788-13.802-8.446-20.707-10.984-6.914-2.538-13.531-4.306-19.876-5.286-6.346-0.989-11.623-1.479-15.859-1.479-11.851 0-20.296 2.389-25.373 7.195-5.076 4.779-7.755 9.995-8.034 15.632h-0.84c-5.654-5.645-12.69-10.853-21.154-15.632-8.454-4.805-19.456-7.195-32.978-7.195-9.032 0-17.276 1.759-24.743 5.286-7.475 3.519-13.889 8.376-19.246 14.59-5.357 6.188-9.505 13.671-12.472 22.406s-4.438 18.327-4.438 28.751c0 12.402 1.96 24.322 5.917 35.735 3.947 11.422 9.523 21.565 16.708 30.448 7.195 8.884 15.999 15.929 26.431 21.154 10.424 5.208 22.266 7.816 35.525 7.816 11.273 0 20.647-1.838 28.13-5.488 7.466-3.667 13.312-9.873 17.539-18.607h0.849l3.387 19.027h39.752l-15.649-83.294c-0.849-3.956-1.698-8.603-2.538-13.969-0.858-5.356-1.269-10.012-1.269-13.951 0-3.099 0.77-5.855 2.32-8.236 1.558-2.398 4.577-3.597 9.102-3.597 4.507 0 8.936 1.199 13.312 3.597 4.358 2.38 8.245 6.188 11.623 11.421 3.387 5.207 6.135 11.763 8.245 19.658 2.11 7.885 3.177 17.329 3.177 28.322 0 16.909-2.748 31.779-8.253 44.618-5.497 12.822-13.102 23.604-22.825 32.348-9.724 8.726-21.346 15.281-34.886 19.666-13.531 4.368-28.33 6.546-44.399 6.546-17.478 0-33.398-2.958-47.778-8.875s-26.712-14.239-36.995-24.943c-10.302-10.721-18.257-23.403-23.893-38.063-5.645-14.66-8.464-30.597-8.464-47.778 0-18.607 3.099-35.245 9.303-49.896 6.197-14.668 14.861-27.062 26.002-37.205 11.132-10.152 24.314-17.977 39.542-23.482 15.22-5.488 31.718-8.236 49.467-8.236 16.069 0 30.799 2.258 44.19 6.765s25.303 10.844 35.726 19.027h46.517c-15.22-20.865-34.177-36.724-56.871-47.577s-47.007-16.279-72.932-16.279c-22.563 0-43.769 3.868-63.645 11.632-19.876 7.755-37.284 18.529-52.224 32.339-14.948 13.811-26.703 30.378-35.306 49.695-8.603 19.298-12.892 40.373-12.892 63.216 0 22.554 4.228 43.402 12.691 62.578 8.446 19.167 20.007 35.796 34.667 49.905 14.651 14.082 31.779 25.162 51.375 33.188 19.588 8.035 40.523 12.052 62.788 12.052 18.607 0 36.855-3.028 54.753-9.084 17.907-6.074 33.897-15.010 47.996-26.852 14.082-11.841 25.433-26.431 34.037-43.761 8.594-17.338 12.901-37.144 12.901-59.409-0.009-14.966-1.776-27.937-5.286-38.93z" />
<glyph unicode="&#xe617;" d="M406.974 480h-301.949c-58.001 0-105.025-47.025-105.025-105.025v-301.949c0-58 47.025-105.025 105.025-105.025h301.949c58 0 105.026 47.025 105.026 105.025v301.949c0 58-47.025 105.026-105.025 105.026zM422.825 267.305l-73.238-58.306c-9.548-7.57-14.476-23.605-11.019-35.568l26.606-92.44c3.466-11.964-1.75-15.911-11.518-8.743l-75.496 55.112c-9.776 7.177-25.802 7.177-35.595 0l-75.434-55.112c-9.838-7.168-14.983-3.221-11.526 8.743l26.572 92.44c3.448 11.964-1.479 27.998-10.993 35.568l-73.264 58.307c-9.522 7.606-7.553 13.994 4.403 14.248l91.906 1.969c11.947 0.254 24.926 10.17 28.839 22.003l30.168 91.189c3.904 11.85 10.327 11.85 14.257 0l30.178-91.189c3.947-11.851 16.874-21.749 28.829-22.003l91.906-1.969c11.964-0.272 13.942-6.661 4.42-14.248z" />
<glyph unicode="&#xe618;" d="M0 480h704v-64h-704v64zM0 256h704v-64h-704v64zM0 32h704v-64h-704v64z" horiz-adv-x="704" />
<glyph unicode="&#xe619;" d="M305.28 161.008h-0.32c23.92 15.744 39.68 42.672 39.68 73.264l3.312 77.376c0 48.56-43.072 87.936-92.032 87.936-48.928 0-92.016-39.376-92.016-87.936l3.296-77.376c0-30.672 15.872-57.616 39.872-73.376h-0.064c0 0 13.328-41.696-33.184-53.456-46.208-7.856-82.96-24.352-106.944-53.952 46.88-51.488 114.176-84.048 189.12-84.048s142.24 32.56 189.088 84.032c-23.552 29.088-59.424 45.536-104.48 53.568-49.936 12.624-35.328 53.968-35.328 53.968zM256 478.56c-141.152 0-256-114.848-256-256 0-54.064 16.992-104.16 45.712-145.536l23.072 16.752c-25.312 36.672-40.272 80.992-40.272 128.784 0.016 125.44 102.064 227.472 227.488 227.472 125.44 0 227.472-102.032 227.472-227.472 0-46.72-14.304-90.112-38.544-126.304l23.104-16.8c27.68 40.88 43.968 90.128 43.968 143.104 0 141.152-114.832 256-256 256z" />
<glyph unicode="&#xf0d8;" d="M257 384c17 0.5 30.5 14 31 31 0.5 18.5-14.5 33.5-33 33-17-0.5-30.5-14-31-31-0.5-18.5 14.5-33.5 33-33zM489 192h-9l-63.5 123c9 1 18 4.5 26 8 12 5.5 14.5 21.5 5.5 31l-0.5 0.5c-5.5 5.5-14 7.5-21.5 4-7-3-17-6.5-26.5-6.5-28 0-40.5 32-143.5 32s-115.5-32-143.5-32c-10 0-19.5 3-26.5 6.5-7.5 3-16 1.5-21.5-4l-0.5-0.5c-9-9.5-6.5-25 5.5-31 8-4 17-7 26-8l-63.5-123h-9c-4 0-7-3.5-6.5-7.5 5.5-32 46-56.5 95.5-56.5s90 24.5 95.5 56.5c0.5 4-2.5 7.5-6.5 7.5h-9l-63.5 122.5c41.5 3.5 63.5 24.5 95.5 24.5v-243c-17.5 0-32-14.5-32-32h-35.5c-14 0-28.5-14.5-28.5-32h256c0 17.5-14.5 32-35.5 32h-28.5c0 17.5-14.5 32-32 32v243c32 0 54-21 95.5-24.5l-63.5-122.5h-9c-4 0-7-3.5-6.5-7.5 5.5-32 46-56.5 95.5-56.5s90 24.5 95.5 56.5c0.5 4-2.5 7.5-6.5 7.5zM160 192h-96l48 90 48-90zM352 192l48 90 48-90h-96z" />
<glyph unicode="&#xf0dd;" d="M0 164.572q0 7.428 5.428 12.857t12.857 5.428h256q7.428 0 12.857-5.428t5.428-12.857-5.428-12.857l-128-128q-5.428-5.428-12.857-5.428t-12.857 5.428l-128 128q-5.428 5.428-5.428 12.857z" horiz-adv-x="293" />
<glyph unicode="&#xf0de;" d="M0 274.286q0 7.429 5.428 12.857l128 128q5.428 5.428 12.857 5.428t12.857-5.428l128-128q5.428-5.428 5.428-12.857t-5.428-12.857-12.857-5.428h-256q-7.428 0-12.857 5.428t-5.428 12.857z" horiz-adv-x="293" />
<glyph unicode="&#xf0e8;" d="M0 27.429v91.428q0 11.428 8 19.428t19.428 8h27.428v54.857q0 14.857 10.857 25.714t25.715 10.857h146.286v54.857h-27.428q-11.428 0-19.428 8t-8 19.428v91.428q0 11.428 8 19.428t19.428 8h91.428q11.428 0 19.428-8t8-19.428v-91.428q0-11.428-8-19.428t-19.428-8h-27.428v-54.857h146.286q14.857 0 25.714-10.857t10.857-25.714v-54.857h27.428q11.428 0 19.428-8t8-19.428v-91.428q0-11.428-8-19.428t-19.428-8h-91.428q-11.428 0-19.428 8t-8 19.428v91.428q0 11.428 8 19.428t19.428 8h27.428v54.857h-146.286v-54.857h27.428q11.428 0 19.428-8t8-19.428v-91.428q0-11.428-8-19.428t-19.428-8h-91.428q-11.428 0-19.428 8t-8 19.428v91.428q0 11.428 8 19.428t19.428 8h27.428v54.857h-146.286v-54.857h27.428q11.428 0 19.428-8t8-19.428v-91.428q0-11.428-8-19.428t-19.428-8h-91.428q-11.428 0-19.428 8t-8 19.428z" />
<glyph unicode="&#xf104;" d="M12.857 201.143q0 3.714 2.857 6.572l133.143 133.143q2.857 2.857 6.571 2.857t6.572-2.857l14.286-14.286q2.857-2.857 2.857-6.571t-2.857-6.572l-112.285-112.286 112.285-112.286q2.857-2.857 2.857-6.572t-2.857-6.572l-14.286-14.286q-2.857-2.857-6.572-2.857t-6.572 2.857l-133.143 133.143q-2.857 2.857-2.857 6.572z" horiz-adv-x="183" />
<glyph unicode="&#xf105;" d="M3.715 82.286q0 3.714 2.857 6.572l112.285 112.286-112.285 112.286q-2.857 2.857-2.857 6.572t2.857 6.572l14.285 14.286q2.857 2.857 6.572 2.857t6.572-2.857l133.143-133.143q2.857-2.857 2.857-6.572t-2.857-6.572l-133.143-133.143q-2.857-2.857-6.572-2.857t-6.572 2.857l-14.286 14.286q-2.857 2.857-2.857 6.572z" horiz-adv-x="183" />
<glyph unicode="&#xf106;" d="M22 137.143q0 3.714 2.857 6.572l133.143 133.143q2.857 2.857 6.572 2.857t6.572-2.857l133.143-133.143q2.857-2.857 2.857-6.572t-2.857-6.572l-14.286-14.286q-2.857-2.857-6.572-2.857t-6.572 2.857l-112.286 112.286-112.285-112.286q-2.857-2.857-6.572-2.857t-6.572 2.857l-14.285 14.286q-2.857 2.857-2.857 6.572z" horiz-adv-x="329" />
<glyph unicode="&#xf107;" d="M22 269.714q0 3.714 2.857 6.572l14.285 14.286q2.857 2.857 6.572 2.857t6.572-2.857l112.285-112.286 112.285 112.286q2.857 2.857 6.572 2.857t6.572-2.857l14.286-14.286q2.857-2.857 2.857-6.572t-2.857-6.572l-133.143-133.143q-2.857-2.857-6.571-2.857t-6.572 2.857l-133.143 133.143q-2.857 2.857-2.857 6.571z" horiz-adv-x="329" />
<glyph unicode="&#xf137;" d="M0 219.429q0 59.714 29.428 110.143t79.857 79.857 110.143 29.428 110.143-29.428 79.857-79.857 29.428-110.143-29.428-110.143-79.857-79.857-110.143-29.428-110.143 29.428-79.857 79.857-29.428 110.143zM98.857 219.429q0-7.428 5.428-12.857l129.714-129.714q5.428-5.428 12.857-5.428t12.857 5.428l29.143 29.143q5.428 5.428 5.428 12.857t-5.428 12.857l-87.714 87.714 87.714 87.714q5.428 5.428 5.428 12.857t-5.428 12.857l-29.143 29.143q-5.428 5.428-12.857 5.428t-12.857-5.428l-129.714-129.714q-5.428-5.428-5.428-12.857z" />
<glyph unicode="&#xf138;" d="M0 219.429q0 59.714 29.428 110.143t79.857 79.857 110.143 29.428 110.143-29.428 79.857-79.857 29.428-110.143-29.428-110.143-79.857-79.857-110.143-29.428-110.143 29.428-79.857 79.857-29.428 110.143zM144.571 118.857q0-7.428 5.429-12.857l29.143-29.143q5.429-5.428 12.857-5.428t12.857 5.428l129.715 129.714q5.428 5.428 5.428 12.857t-5.428 12.857l-129.714 129.714q-5.428 5.429-12.857 5.429t-12.857-5.429l-29.143-29.143q-5.429-5.428-5.429-12.857t5.428-12.857l87.714-87.714-87.714-87.714q-5.428-5.428-5.428-12.857z" />
<glyph unicode="&#xf139;" d="M0 219.429q0 59.714 29.428 110.143t79.857 79.857 110.143 29.428 110.143-29.428 79.857-79.857 29.428-110.143-29.428-110.143-79.857-79.857-110.143-29.428-110.143 29.428-79.857 79.857-29.428 110.143zM71.428 192q0-7.428 5.428-12.857l29.143-29.143q5.428-5.428 12.857-5.428t12.857 5.428l87.714 87.714 87.714-87.714q5.428-5.428 12.857-5.428t12.857 5.428l29.143 29.143q5.428 5.428 5.428 12.857t-5.428 12.857l-129.714 129.714q-5.428 5.428-12.857 5.428t-12.857-5.428l-129.714-129.714q-5.428-5.428-5.428-12.857z" />
<glyph unicode="&#xf13a;" d="M0 219.429q0 59.714 29.428 110.143t79.857 79.857 110.143 29.428 110.143-29.428 79.857-79.857 29.428-110.143-29.428-110.143-79.857-79.857-110.143-29.428-110.143 29.428-79.857 79.857-29.428 110.143zM71.428 246.857q0-7.428 5.428-12.857l129.714-129.714q5.429-5.428 12.857-5.428t12.857 5.428l129.715 129.714q5.428 5.428 5.428 12.857t-5.428 12.857l-29.143 29.143q-5.428 5.429-12.857 5.429t-12.857-5.428l-87.714-87.714-87.714 87.714q-5.428 5.428-12.857 5.428t-12.857-5.428l-29.143-29.143q-5.428-5.428-5.428-12.857z" />
</font>
</defs>
</svg>
