<?xml version="1.0" standalone="no"?>
<!DOCTYPE svg PUBLIC "-//W3C//DTD SVG 1.1//EN" "http://www.w3.org/Graphics/SVG/1.1/DTD/svg11.dtd" >
<svg xmlns="http://www.w3.org/2000/svg">
<metadata>Generated by IcoMoon</metadata>
<defs>
<font id="Coursera" horiz-adv-x="1024">
<font-face units-per-em="1024" ascent="960" descent="-64" />
<missing-glyph horiz-adv-x="1024" />
<glyph unicode="&#x20;" horiz-adv-x="512" d="" />
<glyph unicode="&#xe600;" glyph-name="list-ol" d="M217.714 25.143q0-45.714-31.143-72t-77.429-26.286q-60.571 0-98.286 37.714l32.571 50.286q28-25.714 60.571-25.714 16.571 0 28.857 8.286t12.286 24.286q0 36.571-60 32l-14.857 32q4.571 5.714 18.571 24.857t24.286 30.857 21.143 22v0.571q-9.143 0-27.714-0.571t-27.714-0.571v-30.286h-60.571v86.857h190.286v-50.286l-54.286-65.714q29.143-6.857 46.286-28t17.143-50.286zM218.857 383.428v-90.857h-206.857q-3.429 20.571-3.429 30.857 0 29.143 13.429 53.143t32.286 38.857 37.714 27.143 32.286 24.857 13.429 25.714q0 14.286-8.286 22t-22.571 7.714q-26.286 0-46.286-33.143l-48.571 33.714q13.714 29.143 40.857 45.429t60.286 16.286q41.714 0 70.286-23.714t28.571-64.286q0-28.571-19.429-52.286t-42.857-36.857-43.143-28.857-20.286-30h72.571v34.286h60zM1024 201.143v-109.714q0-7.429-5.429-12.857t-12.857-5.429h-694.857q-7.429 0-12.857 5.429t-5.429 12.857v109.714q0 8 5.143 13.143t13.143 5.143h694.857q7.429 0 12.857-5.429t5.429-12.857zM219.429 714.857v-56.571h-191.429v56.571h61.143q0 23.429 0.286 69.714t0.286 69.143v6.857h-1.143q-4.571-9.714-28.571-30.857l-40.571 43.429 77.714 72.571h60.571v-230.857h61.714zM1024 493.714v-109.714q0-7.429-5.429-12.857t-12.857-5.429h-694.857q-7.429 0-12.857 5.429t-5.429 12.857v109.714q0 8 5.143 13.143t13.143 5.143h694.857q7.429 0 12.857-5.429t5.429-12.857zM1024 786.286v-109.714q0-7.429-5.429-12.857t-12.857-5.429h-694.857q-7.429 0-12.857 5.429t-5.429 12.857v109.714q0 7.429 5.429 12.857t12.857 5.429h694.857q7.429 0 12.857-5.429t5.429-12.857z" />
<glyph unicode="&#xe601;" glyph-name="list-ul" d="M219.429 146.286q0-45.714-32-77.714t-77.714-32-77.714 32-32 77.714 32 77.714 77.714 32 77.714-32 32-77.714zM219.429 438.857q0-45.714-32-77.714t-77.714-32-77.714 32-32 77.714 32 77.714 77.714 32 77.714-32 32-77.714zM1024 201.143v-109.714q0-7.429-5.429-12.857t-12.857-5.429h-694.857q-7.429 0-12.857 5.429t-5.429 12.857v109.714q0 7.429 5.429 12.857t12.857 5.429h694.857q7.429 0 12.857-5.429t5.429-12.857zM219.429 731.428q0-45.714-32-77.714t-77.714-32-77.714 32-32 77.714 32 77.714 77.714 32 77.714-32 32-77.714zM1024 493.714v-109.714q0-7.429-5.429-12.857t-12.857-5.429h-694.857q-7.429 0-12.857 5.429t-5.429 12.857v109.714q0 7.429 5.429 12.857t12.857 5.429h694.857q7.429 0 12.857-5.429t5.429-12.857zM1024 786.286v-109.714q0-7.429-5.429-12.857t-12.857-5.429h-694.857q-7.429 0-12.857 5.429t-5.429 12.857v109.714q0 7.429 5.429 12.857t12.857 5.429h694.857q7.429 0 12.857-5.429t5.429-12.857z" />
<glyph unicode="&#xe602;" glyph-name="captions" d="M57.626 34.661l-56.001 23.927v677.396l33.109 33.109h960.165l33.109-33.109v-562.856l-33.109-33.109h-827.145l-110.128-105.358zM67.843 702.875v-566.801l63.73 60.979 22.892 9.182h807.327v496.64h-893.949zM286.976 465.091c0-25.121-20.365-45.486-45.486-45.486s-45.486 20.365-45.486 45.486c0 25.121 20.365 45.486 45.486 45.486s45.486-20.365 45.486-45.486zM478.689 465.091c0-25.121-20.365-45.486-45.486-45.486s-45.486 20.365-45.486 45.486c0 25.121 20.365 45.486 45.486 45.486s45.486-20.365 45.486-45.486zM670.404 465.091c0-25.121-20.365-45.486-45.486-45.486s-45.486 20.365-45.486 45.486c0 25.121 20.365 45.486 45.486 45.486s45.486-20.365 45.486-45.486zM859.062 465.091c0-25.121-20.365-45.486-45.486-45.486s-45.486 20.365-45.486 45.486c0 25.121 20.365 45.486 45.486 45.486s45.486-20.365 45.486-45.486z" />
<glyph unicode="&#xe603;" horiz-adv-x="1041" d="M275.339 195.959c-25.648 0.017-46.414 20.784-46.423 46.432v375.567c0.009 25.648 20.775 46.414 46.423 46.423h484.203c25.648-0.009 46.414-20.775 46.423-46.423v-375.567c-0.009-25.648-20.775-46.414-46.423-46.432h-484.203zM517.44 950.344c-64.766 0-114.328-74.158-170.652-97.512-58.385-24.208-145.651-7.727-189.65-51.727s-27.519-131.266-51.735-189.65c-23.354-56.323-97.512-105.886-97.512-170.66 0-64.766 74.158-114.328 97.512-170.652 24.208-58.385 7.727-145.651 51.735-189.65 44-44 131.257-27.519 189.65-51.735 56.323-23.354 105.886-97.512 170.652-97.512s114.328 74.158 170.652 97.512c58.393 24.216 145.651 7.736 189.65 51.735s27.528 131.266 51.735 189.65c23.354 56.323 97.512 105.886 97.512 170.652 0 64.775-74.158 114.337-97.512 170.66-24.208 58.385-7.727 145.642-51.727 189.642-44.008 44.008-131.266 27.528-189.659 51.735-56.323 23.354-105.886 97.512-170.652 97.512z" />
<glyph unicode="&#xe604;" horiz-adv-x="1041" d="M759.542 213.207h-484.203c-16.11 0-29.175 13.065-29.175 29.184v375.567c0 16.11 13.065 29.175 29.175 29.175h484.203c16.11 0 29.175-13.065 29.175-29.175v-375.567c0-16.118-13.065-29.184-29.175-29.184z" />
<glyph unicode="&#xe605;" horiz-adv-x="1041" d="M759.542 213.207v17.248h-484.203c-6.58 0.017-11.918 5.356-11.927 11.936v375.567c0.009 6.58 5.347 11.918 11.927 11.927h484.203c6.58-0.009 11.918-5.347 11.927-11.927v-375.567c-0.009-6.58-5.347-11.918-11.927-11.936v-34.496c25.648 0.017 46.414 20.784 46.423 46.432v375.567c-0.009 25.648-20.775 46.414-46.423 46.423h-484.203c-25.648-0.009-46.414-20.775-46.423-46.423v-375.567c0.009-25.648 20.775-46.414 46.423-46.432h484.203v17.248z" />
<glyph unicode="&#xe606;" horiz-adv-x="1041" d="M737.887 357.513l-80.35-67.854-80.358 67.854v277.124h160.708v-277.124z" />
<glyph unicode="&#xe607;" horiz-adv-x="1041" d="M716.75 473.928c0-5.968-8.477-10.53-10.228-15.92-1.811-5.588 2.294-14.238-1.087-18.887-3.415-4.7-12.936-3.441-17.636-6.865-4.648-3.381-6.382-12.841-11.961-14.652-5.39-1.751-12.332 4.829-18.3 4.829-5.976 0-12.919-6.58-18.309-4.829-5.58 1.811-7.322 11.272-11.97 14.661-4.691 3.415-14.212 2.165-17.627 6.856-3.389 4.648 0.724 13.307-1.087 18.887-1.751 5.39-10.219 9.952-10.219 15.92 0 5.976 8.469 10.539 10.219 15.92 1.811 5.588-2.294 14.247 1.087 18.895 3.415 4.691 12.936 3.441 17.636 6.856 4.648 3.381 6.382 12.85 11.961 14.661 5.39 1.751 12.332-4.829 18.309-4.829 5.968 0 12.91 6.58 18.3 4.829 5.588-1.82 7.322-11.28 11.97-14.661 4.691-3.415 14.212-2.165 17.627-6.865 3.389-4.648-0.724-13.298 1.087-18.887 1.751-5.39 10.228-9.943 10.228-15.92z" />
<glyph unicode="&#xe608;" horiz-adv-x="1041" d="M716.75 473.928h-2.682c0.078-1.621-1.423-3.881-3.751-6.373-2.242-2.518-5.080-5.054-6.339-8.719-0.483-1.483-0.612-2.975-0.621-4.433 0.026-3.605 0.811-7.192 0.785-9.935 0.009-1.777-0.302-3.010-0.871-3.769-0.819-1.276-3.355-2.225-6.709-2.863-3.303-0.724-7.132-1.156-10.332-3.406-3.122-2.346-4.683-5.847-6.39-8.762-1.647-3.001-3.329-5.123-4.829-5.519l-1.13-0.164c-1.613-0.043-4.191 1.009-6.977 2.32-2.811 1.259-5.864 2.768-9.366 2.803-3.51-0.034-6.563-1.544-9.374-2.803-2.794-1.311-5.364-2.363-6.977-2.32l-1.13 0.164c-1.509 0.397-3.182 2.518-4.829 5.519-1.708 2.915-3.268 6.416-6.39 8.762-3.2 2.251-7.029 2.682-10.332 3.406-3.363 0.647-5.899 1.587-6.709 2.863-0.569 0.759-0.88 1.992-0.88 3.769-0.017 2.742 0.768 6.339 0.785 9.943 0 1.457-0.138 2.949-0.612 4.424-1.259 3.665-4.096 6.201-6.339 8.719-2.328 2.492-3.829 4.752-3.751 6.373-0.078 1.63 1.423 3.889 3.751 6.373 2.242 2.527 5.080 5.062 6.339 8.719 0.483 1.483 0.612 2.975 0.612 4.433-0.017 3.605-0.802 7.201-0.776 9.943-0.009 1.768 0.302 3.010 0.871 3.769 0.819 1.276 3.355 2.216 6.709 2.863 3.303 0.724 7.132 1.147 10.34 3.406 3.113 2.346 4.674 5.847 6.382 8.762 1.647 2.993 3.329 5.114 4.829 5.511l1.13 0.172c1.613 0.043 4.191-1.009 6.977-2.32 2.811-1.268 5.864-2.768 9.374-2.811 3.501 0.043 6.554 1.544 9.366 2.803 2.794 1.311 5.364 2.372 6.977 2.32l1.13-0.164c1.509-0.397 3.182-2.518 4.829-5.511 1.708-2.924 3.277-6.416 6.39-8.762 3.2-2.259 7.029-2.691 10.332-3.415 3.363-0.638 5.899-1.587 6.709-2.855 0.569-0.768 0.88-2.001 0.88-3.769 0.017-2.751-0.768-6.339-0.785-9.943 0-1.457 0.138-2.949 0.612-4.433 1.259-3.665 4.096-6.201 6.339-8.719 2.328-2.492 3.829-4.743 3.751-6.373h5.356c-0.078 4.346-2.811 7.356-5.157 9.987-2.432 2.596-4.7 5.036-5.192 6.761-0.241 0.724-0.362 1.664-0.354 2.777-0.026 2.777 0.759 6.365 0.785 9.943-0.009 2.285-0.345 4.76-1.897 6.916-2.604 3.415-6.537 4.2-9.969 4.959-3.484 0.673-6.77 1.328-8.262 2.492-1.526 1.035-3.156 3.958-4.873 7.072-1.785 3.036-3.76 6.554-7.839 7.969-0.931 0.302-1.871 0.431-2.786 0.431-3.432-0.052-6.399-1.561-9.202-2.811-2.786-1.302-5.381-2.354-7.141-2.32-1.768-0.034-4.364 1.018-7.141 2.32-2.811 1.25-5.778 2.768-9.21 2.811-0.914 0-1.854-0.129-2.786-0.431-4.079-1.414-6.054-4.933-7.831-7.969-1.725-3.113-3.346-6.037-4.881-7.072-1.492-1.164-4.778-1.811-8.262-2.492-3.432-0.759-7.365-1.535-9.961-4.959-1.561-2.156-1.897-4.631-1.897-6.916 0.017-3.579 0.802-7.167 0.776-9.943 0.009-1.104-0.112-2.053-0.354-2.777-0.483-1.725-2.76-4.157-5.192-6.761-2.346-2.63-5.080-5.64-5.157-9.987 0.078-4.346 2.811-7.356 5.157-9.987 2.432-2.596 4.709-5.036 5.192-6.761 0.241-0.716 0.362-1.664 0.354-2.768 0.026-2.777-0.759-6.365-0.785-9.943 0.009-2.285 0.345-4.76 1.897-6.925 2.604-3.415 6.537-4.191 9.969-4.95 3.484-0.681 6.77-1.337 8.262-2.492 1.526-1.044 3.156-3.967 4.873-7.080 1.785-3.036 3.76-6.546 7.839-7.969 0.931-0.302 1.871-0.423 2.786-0.423 3.432 0.043 6.399 1.552 9.202 2.803 2.786 1.302 5.381 2.363 7.149 2.32 1.759 0.043 4.355-1.018 7.141-2.32 2.803-1.25 5.769-2.76 9.202-2.803 0.906 0 1.854 0.121 2.786 0.423 4.079 1.414 6.054 4.933 7.831 7.969 1.725 3.113 3.346 6.037 4.881 7.072 1.492 1.164 4.778 1.82 8.262 2.492 3.432 0.759 7.365 1.544 9.961 4.959 1.561 2.156 1.897 4.631 1.906 6.925-0.026 3.579-0.811 7.158-0.785 9.935-0.009 1.112 0.112 2.053 0.354 2.777 0.492 1.725 2.76 4.165 5.192 6.761 2.346 2.63 5.080 5.64 5.157 9.987h-2.673z" />
<glyph unicode="&#xe609;" horiz-adv-x="1041" d="M299.943 333.512h236.694v-34.134h-236.694v34.134z" />
<glyph unicode="&#xe60a;" glyph-name="checkmark" horiz-adv-x="1061" d="M414.227 247.991l-162.382 162.382c-18.321 18.321-47.954 18.499-66.471 0.111v0c-18.39-18.259-18.451-47.907-0.096-66.263l195.747-195.747c18.335-18.335 48.254-18.15 66.302-0.099l496.549 496.55c18.282 18.281 18.427 47.776 0.041 66.164v0c-18.259 18.259-47.925 18.212-66.417-0.263l-463.273-462.834z" />
<glyph unicode="&#xe60b;" glyph-name="home" horiz-adv-x="1106" d="M122.88 421.805l439.653 439.653c15.912 15.912 15.956 41.667-0.151 57.775-8.023 8.023-18.57 11.999-28.867 12.083 10.408-0.012 20.785-4 28.716-11.932l175.050-175.050v83.764c0 22.282 18.319 40.838 40.917 40.838h41.045c22.786 0 40.917-18.284 40.917-40.838v-206.644l194.746-194.746c15.751-15.751 15.844-41.779-0.151-57.775-16.107-16.107-41.863-16.064-57.775-0.151l-54.9 54.9v-455.585c0-22.81-18.188-41.24-40.624-41.24h-246.096v409.6h-245.76v-409.6h-246.096c-21.975 0-40.624 18.464-40.624 41.24v453.707zM562.382 919.233c-15.996 15.996-42.023 15.903-57.775 0.151l-492.675-492.675c-15.912-15.912-15.956-41.667 0.151-57.775 15.996-15.996 42.023-15.903 57.775-0.151l492.675 492.675c15.912 15.912 15.956 41.667-0.151 57.775z" />
<glyph unicode="&#xe60c;" glyph-name="course-list" d="M113.778 950.857h-56.889c62.838 0 113.778-50.94 113.778-113.778v56.889c0-62.838-50.94-113.778-113.778-113.778h56.889c-62.838 0-113.778 50.94-113.778 113.778v-56.889c0 62.838 50.94 113.778 113.778 113.778zM341.333 922.413h625.778c31.419 0 56.889-25.47 56.889-56.889v56.889c0-31.419-25.47-56.889-56.889-56.889h-625.778c-31.419 0-56.889 25.47-56.889 56.889v-56.889c0 31.419 25.47 56.889 56.889 56.889zM113.778 694.857h-56.889c62.838 0 113.778-50.94 113.778-113.778v56.889c0-62.838-50.94-113.778-113.778-113.778h56.889c-62.838 0-113.778 50.94-113.778 113.778v-56.889c0 62.838 50.94 113.778 113.778 113.778zM341.333 637.968h625.778c31.419 0 56.889-25.47 56.889-56.889v56.889c0-31.419-25.47-56.889-56.889-56.889h-625.778c-31.419 0-56.889 25.47-56.889 56.889v-56.889c0 31.419 25.47 56.889 56.889 56.889zM113.778 410.413h-56.889c62.838 0 113.778-50.94 113.778-113.778v56.889c0-62.838-50.94-113.778-113.778-113.778h56.889c-62.838 0-113.778 50.94-113.778 113.778v-56.889c0 62.838 50.94 113.778 113.778 113.778zM341.333 353.524h625.778c31.419 0 56.889-25.47 56.889-56.889v56.889c0-31.419-25.47-56.889-56.889-56.889h-625.778c-31.419 0-56.889 25.47-56.889 56.889v-56.889c0 31.419 25.47 56.889 56.889 56.889zM113.778 125.968h-56.889c62.838 0 113.778-50.94 113.778-113.778v56.889c0-62.838-50.94-113.778-113.778-113.778h56.889c-62.838 0-113.778 50.94-113.778 113.778v-56.889c0 62.838 50.94 113.778 113.778 113.778zM341.333 69.079h625.778c31.419 0 56.889-25.47 56.889-56.889v56.889c0-31.419-25.47-56.889-56.889-56.889h-625.778c-31.419 0-56.889 25.47-56.889 56.889v-56.889c0 31.419 25.47 56.889 56.889 56.889z" />
<glyph unicode="&#xe60d;" glyph-name="item-video" horiz-adv-x="1067" d="M533.333-73.143c-282.77 0-512 229.23-512 512s229.23 512 512 512c282.77 0 512-229.23 512-512s-229.23-512-512-512zM533.333-30.476c259.206 0 469.333 210.128 469.333 469.333s-210.128 469.333-469.333 469.333c-259.206 0-469.333-210.128-469.333-469.333s210.128-469.333 469.333-469.333zM415.177 670.836c-4.846 3.584-11.794 3.584-20.571 0-7.040-4.928-10.606-11.469-10.606-19.533v-423.718c0-7.526 3.566-13.709 10.606-18.189 3.474-1.792 7.040-2.778 10.606-2.778 3.109 0 6.491 0.986 10.057 2.778l362.423 212.531c7.040 3.136 10.606 9.229 10.606 18.189-0.183 9.318-3.657 15.411-10.697 18.189l-362.423 212.531z" />
<glyph unicode="&#xe60e;" horiz-adv-x="1067" d="M1045.333 438.857c0-282.77-229.23-512-512-512s-512 229.23-512 512c0 282.77 229.23 512 512 512s512-229.23 512-512z" />
<glyph unicode="&#xe60f;" d="M1024 438.857c0-282.77-229.23-512-512-512s-512 229.23-512 512c0 282.77 229.23 512 512 512s512-229.23 512-512z" />
<glyph unicode="&#xe610;" d="M981.333 438.857c0-259.206-210.128-469.333-469.333-469.333s-469.333 210.128-469.333 469.333c0 259.206 210.128 469.333 469.333 469.333s469.333-210.128 469.333-469.333z" />
<glyph unicode="&#xe611;" d="M502.092 275.253l167.192-87.678c15.654-8.209 33.928 5.088 30.933 22.508l-31.931 185.706-6.153-18.91 135.261 131.518c12.688 12.337 5.703 33.869-11.812 36.408l-186.927 27.094 16.061-11.652-83.596 168.961c-7.832 15.831-30.41 15.831-38.242 0l-83.596-168.961 16.061 11.652-186.927-27.094c-17.515-2.539-24.5-24.071-11.812-36.408l135.261-131.518-6.153 18.91-31.931-185.706c-2.995-17.42 15.279-30.717 30.933-22.508l167.192 87.678h-19.816z" />
<glyph unicode="&#xe612;" glyph-name="prog-assignment" d="M512-73.143c-282.77 0-512 229.23-512 512s229.23 512 512 512c282.77 0 512-229.23 512-512s-229.23-512-512-512zM512-30.476c259.206 0 469.333 210.128 469.333 469.333s-210.128 469.333-469.333 469.333c-259.206 0-469.333-210.128-469.333-469.333s210.128-469.333 469.333-469.333zM691.35 333.621c-16.578-16.578-16.666-43.369 0.063-60.097v0c16.613-16.613 43.541-16.648 60.251 0.025l135.498 135.203c16.663 16.627 16.71 43.566 0 60.276l-135.498 135.498c-16.663 16.663-43.522 16.725-60.251-0.123v0c-16.613-16.731-16.617-43.756-0.063-60.31l105.236-105.236-105.236-105.236zM332.65 544.093c16.578 16.578 16.666 43.369-0.063 60.097v0c-16.613 16.613-43.541 16.648-60.251-0.025l-135.498-135.203c-16.663-16.627-16.71-43.566 0-60.276l135.498-135.498c16.663-16.663 43.522-16.725 60.251 0.123v0c16.613 16.731 16.617 43.756 0.063 60.31l-105.236 105.236 105.236 105.236zM628.743 759.605c22.143-8.059 33.56-32.543 25.501-54.686l-204.3-561.31c-8.059-22.143-32.543-33.56-54.686-25.501s-33.56 32.543-25.501 54.686l204.3 561.31c8.059 22.143 32.543 33.56 54.686 25.501z" />
<glyph unicode="&#xe613;" glyph-name="item-peer" d="M512-73.143c-282.77 0-512 229.23-512 512s229.23 512 512 512c282.77 0 512-229.23 512-512s-229.23-512-512-512zM512-30.476c259.206 0 469.333 210.128 469.333 469.333s-210.128 469.333-469.333 469.333c-259.206 0-469.333-210.128-469.333-469.333s210.128-469.333 469.333-469.333zM649.713 328.208c-9.545 4.122-18.56 8.002-24.998 12.086-5.939 3.773-11.501 6.829-16.625 9.651-20.445 11.252-29.775 16.383-29.775 50.178 0 42.331 36.407 69.646 36.753 69.898l1.905 1.397 1.059 2.047c12.204 23.775 6.234 43.815 2.17 52.845 26.536 56.017-5.582 102.364-12.397 111.22-17.277 47.336-54.122 57.327-82.135 57.327-33.219 0-62.719-13.871-63.188-14.123-30.723-11.708-51.687-30.39-62.281-55.523-17.114-40.575-1.589-85.156 4.034-98.843-13.782-31.709 2.109-53.36 2.822-54.31l2.139-2.076c0.367-0.262 36.692-27.005 36.692-69.859 0-41.506-23.888-49.092-54.152-58.704l-3.963-1.232c-34.044-10.67-104.871-32.854-104.871-104.963v-9.7h448.395l-0.183 9.875c-1.090 58.2-47.51 78.201-81.401 92.809v0zM853.16 274.024c-0.958 51.109-41.205 68.569-70.593 81.315-8.109 3.511-15.769 6.838-21.168 10.292-5.114 3.269-9.901 5.917-14.312 8.371-17.49 9.69-24.723 13.687-24.723 41.972 0 35.725 30.58 58.859 30.855 59.073l1.925 1.416 1.059 2.066c10.441 20.477 5.725 37.878 2.139 46.162 22.38 48.345-4.676 88.367-10.9 96.592-15.117 41.429-47.235 50.188-71.683 50.188-28.777 0-54.356-12.096-54.651-12.28-0.377-0.145-0.683-0.349-1.059-0.495 2.098-4.025 4.136-8.099 5.857-12.532 10.533-14.822 39.178-62.846 15.952-120.658 4.472-14.016 7.1-35.909-5.715-60.858l-3.158-6.159-5.715-4.171c-0.092-0.078-28.767-22.097-28.767-54.494 0-22.601 1.844-23.619 19.589-33.378 5.48-3.007 11.409-6.286 17.745-10.311 5.053-3.201 13.324-6.771 22.095-10.554 29.276-12.62 75.187-32.573 89.143-81.557h106.257l-0.173 10.001zM170.84 274.024c0.958 51.109 41.205 68.569 70.593 81.315 8.109 3.511 15.769 6.838 21.168 10.292 5.114 3.269 9.901 5.917 14.312 8.371 17.49 9.69 24.723 13.687 24.723 41.972 0 35.725-30.58 58.859-30.855 59.073l-1.925 1.416-1.059 2.066c-10.441 20.477-5.725 37.878-2.139 46.162-22.38 48.345 4.676 88.367 10.9 96.592 15.117 41.429 47.235 50.188 71.683 50.188 28.777 0 54.356-12.096 54.651-12.28 0.377-0.145 0.683-0.349 1.059-0.495-2.098-4.025-4.136-8.099-5.857-12.532-10.533-14.822-39.178-62.846-15.952-120.658-4.472-14.016-7.1-35.909 5.715-60.858l3.158-6.159 5.715-4.171c0.092-0.078 28.767-22.097 28.767-54.494 0-22.601-1.844-23.619-19.589-33.378-5.48-3.007-11.409-6.286-17.745-10.311-5.053-3.201-13.324-6.771-22.095-10.554-29.276-12.62-75.187-32.573-89.143-81.557h-106.257l0.173 10.001z" />
<glyph unicode="&#xe614;" glyph-name="item-formative" horiz-adv-x="1067" d="M533.333-73.143c-282.77 0-512 229.23-512 512s229.23 512 512 512c282.77 0 512-229.23 512-512s-229.23-512-512-512zM533.333-30.476c259.206 0 469.333 210.128 469.333 469.333s-210.128 469.333-469.333 469.333c-259.206 0-469.333-210.128-469.333-469.333s210.128-469.333 469.333-469.333zM523.426 275.253l167.192-87.678c15.654-8.209 33.928 5.088 30.933 22.508l-31.931 185.706-6.153-18.91 135.261 131.518c12.688 12.337 5.703 33.869-11.812 36.408l-186.927 27.094 16.061-11.652-83.596 168.961c-7.832 15.831-30.41 15.831-38.242 0l-83.596-168.961 16.061 11.652-186.927-27.094c-17.515-2.539-24.5-24.071-11.812-36.408l135.261-131.518-6.153 18.91-31.931-185.706c-2.995-17.42 15.279-30.717 30.933-22.508l167.192 87.678h-19.816z" />
<glyph unicode="&#xe615;" glyph-name="item-doc" d="M512-73.143c-282.77 0-512 229.23-512 512s229.23 512 512 512c282.77 0 512-229.23 512-512s-229.23-512-512-512zM512-30.476c259.206 0 469.333 210.128 469.333 469.333s-210.128 469.333-469.333 469.333c-259.206 0-469.333-210.128-469.333-469.333s210.128-469.333 469.333-469.333zM554.667 530.286h85.333v91.429h-85.333v-91.429zM704 694.857h-384c-11.776 0-21.333-8.192-21.333-18.286v-475.429c0-10.103 9.557-18.286 21.333-18.286h384c11.776 0 21.333 8.183 21.333 18.286v475.429c0 10.094-9.557 18.286-21.333 18.286v0zM373.333 640h106.667c5.899 0 10.667-4.096 10.667-9.143 0-5.056-4.768-9.143-10.667-9.143h-106.667c-5.899 0-10.667 4.087-10.667 9.143 0 5.047 4.768 9.143 10.667 9.143v0zM373.333 585.143h106.667c5.899 0 10.667-4.087 10.667-9.143s-4.768-9.143-10.667-9.143h-106.667c-5.899 0-10.667 4.087-10.667 9.143s4.768 9.143 10.667 9.143v0zM373.333 530.286h106.667c5.899 0 10.667-4.096 10.667-9.143 0-5.056-4.768-9.143-10.667-9.143h-106.667c-5.899 0-10.667 4.087-10.667 9.143 0 5.047 4.768 9.143 10.667 9.143v0zM586.667 237.714h-213.333c-5.899 0-10.667 4.087-10.667 9.143 0 5.047 4.768 9.143 10.667 9.143h213.333c5.899 0 10.667-4.096 10.667-9.143 0-5.056-4.768-9.143-10.667-9.143v0zM650.667 292.571h-277.333c-5.899 0-10.667 4.087-10.667 9.143s4.768 9.143 10.667 9.143h277.333c5.899 0 10.667-4.087 10.667-9.143s-4.768-9.143-10.667-9.143v0zM650.667 347.428h-277.333c-5.899 0-10.667 4.087-10.667 9.143 0 5.047 4.768 9.143 10.667 9.143h277.333c5.899 0 10.667-4.096 10.667-9.143 0-5.056-4.768-9.143-10.667-9.143v0zM650.667 402.286h-277.333c-5.899 0-10.667 4.087-10.667 9.143s4.768 9.143 10.667 9.143h277.333c5.899 0 10.667-4.087 10.667-9.143s-4.768-9.143-10.667-9.143v0zM650.667 457.143h-277.333c-5.899 0-10.667 4.087-10.667 9.143 0 5.047 4.768 9.143 10.667 9.143h277.333c5.899 0 10.667-4.096 10.667-9.143 0-5.056-4.768-9.143-10.667-9.143v0zM661.333 521.143c0-5.056-4.768-9.143-10.667-9.143h-106.667c-5.899 0-10.667 4.087-10.667 9.143v109.714c0 5.047 4.768 9.143 10.667 9.143h106.667c5.899 0 10.667-4.096 10.667-9.143v-109.714z" />
<glyph unicode="&#xe616;" glyph-name="close" horiz-adv-x="1088" d="M453.49 420.685l-384.722 384.722c-25.349 25.349-24.937 65.459 0.057 90.453 25.168 25.168 65.491 25.019 90.453 0.057l384.722-384.722 384.722 384.722c25.349 25.349 65.459 24.937 90.453-0.057 25.168-25.168 25.019-65.491 0.057-90.453l-384.722-384.722 384.722-384.722c25.349-25.349 24.937-65.459-0.057-90.453-25.168-25.168-65.491-25.019-90.453-0.057l-384.722 384.722-384.722-384.722c-25.349-25.349-65.459-24.937-90.453 0.057-25.168 25.168-25.019 65.491-0.057 90.453l384.722 384.722z" />
<glyph unicode="&#xe617;" glyph-name="discussions" horiz-adv-x="1228" d="M996.834 585.793c0-50.049-12.981-97.288-39.076-141.717s-61.692-83.103-106.656-115.889c-45.098-32.92-97.823-58.881-158.311-78.152-60.353-19.27-125.257-28.905-194.308-28.905-15.791 0-31.582 0.669-47.105 2.007-15.657 1.338-30.779 2.81-45.767 4.416-62.762-48.176-134.49-81.363-215.185-99.162-8.698-1.873-17.397-3.479-26.095-5.085-8.698-1.338-18.066-2.944-27.835-4.684-5.219-0.937-9.769 0.535-13.917 4.282-4.015 3.613-6.825 7.494-8.565 11.642v1.338c-1.74 5.219-1.071 9.367 1.873 12.579 2.944 3.078 6.825 6.959 11.509 11.241 7.762 7.628 15.122 15.389 22.214 23.285 7.093 8.029 13.382 16.995 18.869 26.898 5.487 10.037 10.706 21.947 15.657 35.596s9.1 30.511 12.579 50.584c-60.22 33.321-108.128 75.074-143.59 125.257s-53.127 104.916-53.127 164.466c0 50.584 13.114 98.225 39.343 142.386 26.363 44.161 61.959 82.835 107.057 115.622s97.689 58.881 157.909 78.152c60.22 19.27 124.855 28.905 194.175 28.905 69.186 0 133.955-9.635 194.442-28.905 60.353-19.136 113.079-45.365 158.177-78.152s80.56-71.461 106.656-115.622c26.095-44.161 39.076-91.801 39.076-142.386zM1228.077 394.161c0-59.283-17.798-114.15-53.261-164.332-35.329-50.317-83.237-91.935-143.456-125.257 3.346-20.073 7.494-36.935 12.178-50.584s10.17-25.426 16.326-35.73c6.156-9.903 12.579-19.003 19.136-26.764 6.557-8.029 13.784-15.657 21.545-23.419 4.282-4.282 7.895-8.297 11.107-11.91 3.346-3.613 4.015-7.494 2.409-11.776v-1.338c-0.937-4.951-3.479-9.234-8.029-12.445s-9.234-4.282-14.453-3.479c-9.769 1.606-19.003 3.346-27.835 4.818-8.698 1.472-17.397 3.078-25.961 4.818-40.949 8.431-79.356 21.278-115.354 38.407-35.73 16.995-69.186 37.336-99.831 60.889-14.988-1.873-30.244-3.212-45.767-4.55-15.657-1.204-31.314-2.007-47.105-2.007-60.22 0-116.826 7.628-169.819 22.482s-101.035 35.061-144.125 60.22c2.543 1.74 5.353 3.346 8.698 5.085 3.078 1.74 6.022 3.479 8.565 5.219 21.813-2.543 43.492-3.747 65.305-3.747 84.040 0 162.86 12.044 236.328 36.266 73.602 23.954 137.167 57.008 190.963 99.028s96.217 91.668 127.13 148.408c31.047 56.74 46.436 117.896 46.436 183.201 0 17.531-1.338 35.329-3.881 53.662 41.083-33.321 73.334-70.658 97.020-112.008 23.82-41.485 35.73-85.913 35.73-133.152z" />
<glyph unicode="&#xe618;" glyph-name="cancel-hint" d="M510.127 950.857c-282.273 0-510.439-228.864-510.439-512s228.166-512 510.439-512c282.273 0 510.439 228.864 510.439 512s-228.166 512-510.439 512v0zM729.36 218.953c-19.874-19.935-52.248-19.784-72.19 0.219l-147.044 147.493-147.044-147.493c-19.995-20.056-52.177-20.293-72.19-0.219v0c-19.874 19.935-19.724 52.408 0.218 72.411l147.044 147.493-147.044 147.493c-19.995 20.056-20.231 52.336-0.218 72.411v0c19.874 19.935 52.248 19.784 72.19-0.219l147.044-147.493 147.044 147.493c19.995 20.056 52.177 20.293 72.19 0.219v0c19.874-19.935 19.724-52.408-0.218-72.411l-147.044-147.493 147.044-147.493c19.995-20.056 20.231-52.336 0.218-72.411v0z" />
<glyph unicode="&#xe619;" glyph-name="back" d="M557.569 815.306c25.024 25.024 25.141 65.338-0.129 90.431-25.096 24.919-66.145 24.415-90.877-0.317l-421.127-421.127c-25.094-25.094-24.731-66.142 0-90.873l421.127-421.127c25.094-25.094 65.464-25.409 90.557-0.317 24.919 24.919 24.896 65.38-0.109 90.431l-311.891 312.449h715.141c35.202 0 63.739 28.407 63.739 64 0 35.346-28.644 64-63.739 64h-715.141l312.449 312.449z" />
<glyph unicode="&#xe61a;" glyph-name="lock" d="M348.505 490.951h332.188v124.57q0 68.773-48.66 117.434t-117.434 48.66-117.434-48.66-48.66-117.434v-124.57zM888.313 428.665v-373.714q0-25.952-18.167-44.119t-44.119-18.167h-622.854q-25.952 0-44.119 18.167t-18.167 44.119v373.714q0 25.952 18.167 44.119t44.119 18.167h20.763v124.57q0 119.381 85.643 205.023t205.023 85.643 205.023-85.643 85.643-205.023v-124.57h20.763q25.952 0 44.119-18.167t18.167-44.119z" />
<glyph unicode="&#xe61b;" glyph-name="info" d="M680.292 125.952v103.809q0 9.083-5.839 14.923t-14.923 5.839h-62.286v332.188q0 9.083-5.839 14.923t-14.923 5.839h-207.618q-9.083 0-14.923-5.839t-5.839-14.923v-103.809q0-9.083 5.839-14.923t14.923-5.839h62.286v-207.618h-62.286q-9.083 0-14.923-5.839t-5.839-14.923v-103.809q0-9.083 5.839-14.923t14.923-5.839h290.664q9.083 0 14.923 5.839t5.839 14.923zM597.245 707.283v103.809q0 9.083-5.839 14.923t-14.923 5.839h-124.57q-9.083 0-14.923-5.839t-5.839-14.923v-103.809q0-9.083 5.839-14.923t14.923-5.839h124.57q9.083 0 14.923 5.839t5.839 14.923zM1012.48 437.379q0-135.602-66.827-250.115t-181.341-181.341-250.115-66.827-250.115 66.827-181.341 181.341-66.827 250.115 66.827 250.115 181.341 181.341 250.115 66.827 250.115-66.827 181.341-181.341 66.827-250.115z" />
<glyph unicode="&#xe61c;" glyph-name="search" horiz-adv-x="951" d="M658.286 475.428q0 105.714-75.143 180.857t-180.857 75.143-180.857-75.143-75.143-180.857 75.143-180.857 180.857-75.143 180.857 75.143 75.143 180.857zM950.857 0q0-29.714-21.714-51.429t-51.429-21.714q-30.857 0-51.429 21.714l-196 195.429q-102.286-70.857-228-70.857-81.714 0-156.286 31.714t-128.571 85.714-85.714 128.571-31.714 156.286 31.714 156.286 85.714 128.571 128.571 85.714 156.286 31.714 156.286-31.714 128.571-85.714 85.714-128.571 31.714-156.286q0-125.714-70.857-228l196-196q21.143-21.143 21.143-51.429z" />
<glyph unicode="&#xe61d;" glyph-name="unlock" d="M798.010 446.163q24.355 0 41.404-17.049t17.049-41.404v-350.721q0-24.355-17.049-41.404t-41.404-17.049h-584.534q-24.355 0-41.404 17.049t-17.049 41.404v350.721q0 24.355 17.049 41.404t41.404 17.049h19.485v194.845q0 112.644 80.069 192.713t192.713 80.069 192.713-80.069 80.069-192.713q0-15.831-11.569-27.399t-27.399-11.569h-38.969q-15.831 0-27.399 11.569t-11.569 27.399q0 64.542-45.666 110.209t-110.209 45.666-110.209-45.666-45.666-110.209v-194.845h448.142z" />
<glyph unicode="&#xe61e;" glyph-name="upload" horiz-adv-x="951" d="M731.429 109.714q0 14.857-10.857 25.714t-25.714 10.857-25.714-10.857-10.857-25.714 10.857-25.714 25.714-10.857 25.714 10.857 10.857 25.714zM877.714 109.714q0 14.857-10.857 25.714t-25.714 10.857-25.714-10.857-10.857-25.714 10.857-25.714 25.714-10.857 25.714 10.857 10.857 25.714zM950.857 237.714v-182.857q0-22.857-16-38.857t-38.857-16h-841.143q-22.857 0-38.857 16t-16 38.857v182.857q0 22.857 16 38.857t38.857 16h244q12-32 40.286-52.571t63.143-20.571h146.286q34.857 0 63.143 20.571t40.286 52.571h244q22.857 0 38.857-16t16-38.857zM765.143 608q-9.714-22.857-33.714-22.857h-146.286v-256q0-14.857-10.857-25.714t-25.714-10.857h-146.286q-14.857 0-25.714 10.857t-10.857 25.714v256h-146.286q-24 0-33.714 22.857-9.714 22.286 8 39.429l256 256q10.286 10.857 25.714 10.857t25.714-10.857l256-256q17.714-17.143 8-39.429z" />
<glyph unicode="&#xe61f;" glyph-name="circle" d="M950.856 438.857q0-119.429-58.857-220.286t-159.714-159.714-220.286-58.857-220.286 58.857-159.714 159.714-58.857 220.286 58.857 220.286 159.714 159.714 220.286 58.857 220.286-58.857 159.714-159.714 58.857-220.286z" />
<glyph unicode="&#xe620;" glyph-name="plus-square" d="M804.571 402.286v73.143q0 14.857-10.857 25.714t-25.714 10.857h-182.857v182.857q0 14.857-10.857 25.714t-25.714 10.857h-73.143q-14.857 0-25.714-10.857t-10.857-25.714v-182.857h-182.857q-14.857 0-25.714-10.857t-10.857-25.714v-73.143q0-14.857 10.857-25.714t25.714-10.857h182.857v-182.857q0-14.857 10.857-25.714t25.714-10.857h73.143q14.857 0 25.714 10.857t10.857 25.714v182.857h182.857q14.857 0 25.714 10.857t10.857 25.714zM950.856 713.143v-548.571q0-68-48.286-116.286t-116.286-48.286h-548.571q-68 0-116.286 48.286t-48.286 116.286v548.571q0 68 48.286 116.286t116.286 48.286h548.571q68 0 116.286-48.286t48.286-116.286z" />
<glyph unicode="&#xe621;" glyph-name="plus" horiz-adv-x="805" d="M804.571 530.286v-109.714q0-22.857-16-38.857t-38.857-16h-237.714v-237.714q0-22.857-16-38.857t-38.857-16h-109.714q-22.857 0-38.857 16t-16 38.857v237.714h-237.714q-22.857 0-38.857 16t-16 38.857v109.714q0 22.857 16 38.857t38.857 16h237.714v237.714q0 22.857 16 38.857t38.857 16h109.714q22.857 0 38.857-16t16-38.857v-237.714h237.714q22.857 0 38.857-16t16-38.857z" />
<glyph unicode="&#xe622;" glyph-name="square" d="M950.856 713.143v-548.571q0-68-48.286-116.286t-116.286-48.286h-548.571q-68 0-116.286 48.286t-48.286 116.286v548.571q0 68 48.286 116.286t116.286 48.286h548.571q68 0 116.286-48.286t48.286-116.286z" />
<glyph unicode="&#xe623;" glyph-name="cog, settings" d="M658.285 438.857q0 60.571-42.857 103.429t-103.429 42.857-103.429-42.857-42.857-103.429 42.857-103.429 103.429-42.857 103.429 42.857 42.857 103.429zM950.856 501.143v-126.857q0-6.857-4.571-13.143t-11.429-7.429l-105.714-16q-10.857-30.857-22.286-52 20-28.571 61.143-78.857 5.714-6.857 5.714-14.286t-5.143-13.143q-15.429-21.143-56.571-61.714t-53.714-40.571q-6.857 0-14.857 5.143l-78.857 61.714q-25.143-13.143-52-21.714-9.143-77.714-16.571-106.286-4-16-20.571-16h-126.857q-8 0-14 4.857t-6.571 12.286l-16 105.143q-28 9.143-51.429 21.143l-80.571-61.143q-5.714-5.143-14.286-5.143-8 0-14.286 6.286-72 65.143-94.286 96-4 5.714-4 13.143 0 6.857 4.571 13.143 8.571 12 29.143 38t30.857 40.286q-15.429 28.571-23.429 56.571l-104.571 15.429q-7.429 1.143-12 7.143t-4.571 13.429v126.857q0 6.857 4.571 13.143t10.857 7.429l106.286 16q8 26.286 22.286 52.571-22.857 32.571-61.143 78.857-5.714 6.857-5.714 13.714 0 5.714 5.143 13.143 14.857 20.571 56.286 61.429t54 40.857q7.429 0 14.857-5.714l78.857-61.143q25.143 13.143 52 21.714 9.143 77.714 16.571 106.286 4 16 20.571 16h126.857q8 0 14-4.857t6.571-12.286l16-105.143q28-9.143 51.429-21.143l81.143 61.143q5.143 5.143 13.714 5.143 7.429 0 14.286-5.714 73.714-68 94.286-97.143 4-4.571 4-12.571 0-6.857-4.571-13.143-8.571-12-29.143-38t-30.857-40.286q14.857-28.571 23.429-56l104.571-16q7.429-1.143 12-7.143t4.571-13.429z" />
<glyph unicode="&#xe624;" glyph-name="pin" d="M713.771 756.438c-16.597 16.683-43.563 16.768-60.331 0.171-4.437-4.437-7.509-9.685-9.6-15.147-35.499-74.069-74.581-115.84-123.904-140.501-55.339-27.307-118.869-46.293-221.269-46.293-5.547 0-11.093-1.067-16.299-3.243-10.453-4.352-18.731-12.672-23.083-23.083-4.309-10.411-4.309-22.187 0-32.597 2.176-5.248 5.291-9.984 9.259-13.909l138.368-138.368-193.579-258.133 258.133 193.579 138.325-138.325c3.925-4.011 8.661-7.083 13.909-9.259 5.205-2.176 10.752-3.328 16.299-3.328s11.093 1.152 16.299 3.328c10.453 4.352 18.773 12.587 23.083 23.083 2.176 5.163 3.285 10.752 3.285 16.256 0 102.4 18.944 165.931 46.208 220.416 24.619 49.323 66.389 88.405 140.501 123.904 5.504 2.091 10.709 5.163 15.104 9.6 16.597 16.768 16.512 43.733-0.171 60.331l-170.539 171.52z" />
<glyph unicode="&#xe625;" glyph-name="expand" d="M504.571 347.428q0-7.429-5.714-13.143l-189.714-189.714 82.286-82.286q10.857-10.857 10.857-25.714t-10.857-25.714-25.714-10.857h-256q-14.857 0-25.714 10.857t-10.857 25.714v256q0 14.857 10.857 25.714t25.714 10.857 25.714-10.857l82.286-82.286 189.714 189.714q5.714 5.714 13.143 5.714t13.143-5.714l65.143-65.143q5.714-5.714 5.714-13.143zM950.856 841.143v-256q0-14.857-10.857-25.714t-25.714-10.857-25.714 10.857l-82.286 82.286-189.714-189.714q-5.714-5.714-13.143-5.714t-13.143 5.714l-65.143 65.143q-5.714 5.714-5.714 13.143t5.714 13.143l189.714 189.714-82.286 82.286q-10.857 10.857-10.857 25.714t10.857 25.714 25.714 10.857h256q14.857 0 25.714-10.857t10.857-25.714z" />
<glyph unicode="&#xe626;" glyph-name="refresh" d="M936.571 347.428q0-2.857-0.571-4-36.571-153.143-153.143-248.286t-273.143-95.143q-83.429 0-161.429 31.429t-139.143 89.714l-73.714-73.714q-10.857-10.857-25.714-10.857t-25.714 10.857-10.857 25.714v256q0 14.857 10.857 25.714t25.714 10.857h256q14.857 0 25.714-10.857t10.857-25.714-10.857-25.714l-78.286-78.286q40.571-37.714 92-58.286t106.857-20.571q76.571 0 142.857 37.143t106.286 102.286q6.286 9.714 30.286 66.857 4.571 13.143 17.143 13.143h109.714q7.429 0 12.857-5.429t5.429-12.857zM950.856 804.571v-256q0-14.857-10.857-25.714t-25.714-10.857h-256q-14.857 0-25.714 10.857t-10.857 25.714 10.857 25.714l78.857 78.857q-84.571 78.286-199.429 78.286-76.571 0-142.857-37.143t-106.286-102.286q-6.286-9.714-30.286-66.857-4.571-13.143-17.143-13.143h-113.714q-7.429 0-12.857 5.429t-5.429 12.857v4q37.143 153.143 154.286 248.286t274.286 95.143q83.429 0 162.286-31.714t140-89.429l74.286 73.714q10.857 10.857 25.714 10.857t25.714-10.857 10.857-25.714z" />
<glyph unicode="&#xe627;" glyph-name="download" horiz-adv-x="951" d="M731.429 182.857q0 14.857-10.857 25.714t-25.714 10.857-25.714-10.857-10.857-25.714 10.857-25.714 25.714-10.857 25.714 10.857 10.857 25.714zM877.714 182.857q0 14.857-10.857 25.714t-25.714 10.857-25.714-10.857-10.857-25.714 10.857-25.714 25.714-10.857 25.714 10.857 10.857 25.714zM950.857 310.857v-182.857q0-22.857-16-38.857t-38.857-16h-841.143q-22.857 0-38.857 16t-16 38.857v182.857q0 22.857 16 38.857t38.857 16h265.714l77.143-77.714q33.143-32 77.714-32t77.714 32l77.714 77.714h265.143q22.857 0 38.857-16t16-38.857zM765.143 636q9.714-23.429-8-40l-256-256q-10.286-10.857-25.714-10.857t-25.714 10.857l-256 256q-17.714 16.571-8 40 9.714 22.286 33.714 22.286h146.286v256q0 14.857 10.857 25.714t25.714 10.857h146.286q14.857 0 25.714-10.857t10.857-25.714v-256h146.286q24 0 33.714-22.286z" />
<glyph unicode="&#xe628;" glyph-name="file-o" d="M911.999 733.714q16-16 27.429-43.429t11.429-50.286v-658.286q0-22.857-16-38.857t-38.857-16h-768q-22.857 0-38.857 16t-16 38.857v914.286q0 22.857 16 38.857t38.857 16h512q22.857 0 50.286-11.429t43.429-27.429zM658.285 873.143v-214.857h214.857q-5.714 16.571-12.571 23.429l-178.857 178.857q-6.857 6.857-23.429 12.571zM877.713 0v585.143h-237.714q-22.857 0-38.857 16t-16 38.857v237.714h-438.857v-877.714h731.429z" />
<glyph unicode="&#xe629;" glyph-name="minus-square" d="M804.571 402.286v73.143q0 14.857-10.857 25.714t-25.714 10.857h-512q-14.857 0-25.714-10.857t-10.857-25.714v-73.143q0-14.857 10.857-25.714t25.714-10.857h512q14.857 0 25.714 10.857t10.857 25.714zM950.856 713.143v-548.571q0-68-48.286-116.286t-116.286-48.286h-548.571q-68 0-116.286 48.286t-48.286 116.286v548.571q0 68 48.286 116.286t116.286 48.286h548.571q68 0 116.286-48.286t48.286-116.286z" />
<glyph unicode="&#xe62a;" glyph-name="minus" horiz-adv-x="805" d="M804.571 530.286v-109.714q0-22.857-16-38.857t-38.857-16h-694.857q-22.857 0-38.857 16t-16 38.857v109.714q0 22.857 16 38.857t38.857 16h694.857q22.857 0 38.857-16t16-38.857z" />
<glyph unicode="&#xe62b;" glyph-name="compress" d="M438.857 402.286v-256q0-14.857-10.857-25.714t-25.714-10.857-25.714 10.857l-82.286 82.286-189.714-189.714q-5.714-5.714-13.143-5.714t-13.143 5.714l-65.143 65.143q-5.714 5.714-5.714 13.143t5.714 13.143l189.714 189.714-82.286 82.286q-10.857 10.857-10.857 25.714t10.857 25.714 25.714 10.857h256q14.857 0 25.714-10.857t10.857-25.714zM870.286 786.286q0-7.429-5.714-13.143l-189.714-189.714 82.286-82.286q10.857-10.857 10.857-25.714t-10.857-25.714-25.714-10.857h-256q-14.857 0-25.714 10.857t-10.857 25.714v256q0 14.857 10.857 25.714t25.714 10.857 25.714-10.857l82.286-82.286 189.714 189.714q5.714 5.714 13.143 5.714t13.143-5.714l65.143-65.143q5.714-5.714 5.714-13.143z" />
<glyph unicode="&#xe62c;" glyph-name="eye" d="M512 768c-223.318 0-416.882-130.042-512-320 95.118-189.958 288.682-320 512-320 223.312 0 416.876 130.042 512 320-95.116 189.958-288.688 320-512 320zM764.45 598.296c60.162-38.374 111.142-89.774 149.434-150.296-38.292-60.522-89.274-111.922-149.436-150.296-75.594-48.218-162.89-73.704-252.448-73.704-89.56 0-176.858 25.486-252.452 73.704-60.158 38.372-111.138 89.772-149.432 150.296 38.292 60.524 89.274 111.924 149.434 150.296 3.918 2.5 7.876 4.922 11.86 7.3-9.96-27.328-15.41-56.822-15.41-87.596 0-141.382 114.616-256 256-256 141.382 0 256 114.618 256 256 0 30.774-5.452 60.268-15.408 87.598 3.978-2.378 7.938-4.802 11.858-7.302v0zM512 544c0-53.020-42.98-96-96-96s-96 42.98-96 96 42.98 96 96 96 96-42.982 96-96z" />
<glyph unicode="&#xe62d;" glyph-name="film" horiz-adv-x="1097" d="M219.429 36.571v73.143q0 14.857-10.857 25.714t-25.714 10.857h-73.143q-14.857 0-25.714-10.857t-10.857-25.714v-73.143q0-14.857 10.857-25.714t25.714-10.857h73.143q14.857 0 25.714 10.857t10.857 25.714zM219.429 256v73.143q0 14.857-10.857 25.714t-25.714 10.857h-73.143q-14.857 0-25.714-10.857t-10.857-25.714v-73.143q0-14.857 10.857-25.714t25.714-10.857h73.143q14.857 0 25.714 10.857t10.857 25.714zM219.429 475.428v73.143q0 14.857-10.857 25.714t-25.714 10.857h-73.143q-14.857 0-25.714-10.857t-10.857-25.714v-73.143q0-14.857 10.857-25.714t25.714-10.857h73.143q14.857 0 25.714 10.857t10.857 25.714zM804.571 36.571v292.571q0 14.857-10.857 25.714t-25.714 10.857h-438.857q-14.857 0-25.714-10.857t-10.857-25.714v-292.571q0-14.857 10.857-25.714t25.714-10.857h438.857q14.857 0 25.714 10.857t10.857 25.714zM219.429 694.857v73.143q0 14.857-10.857 25.714t-25.714 10.857h-73.143q-14.857 0-25.714-10.857t-10.857-25.714v-73.143q0-14.857 10.857-25.714t25.714-10.857h73.143q14.857 0 25.714 10.857t10.857 25.714zM1024 36.571v73.143q0 14.857-10.857 25.714t-25.714 10.857h-73.143q-14.857 0-25.714-10.857t-10.857-25.714v-73.143q0-14.857 10.857-25.714t25.714-10.857h73.143q14.857 0 25.714 10.857t10.857 25.714zM804.571 475.428v292.571q0 14.857-10.857 25.714t-25.714 10.857h-438.857q-14.857 0-25.714-10.857t-10.857-25.714v-292.571q0-14.857 10.857-25.714t25.714-10.857h438.857q14.857 0 25.714 10.857t10.857 25.714zM1024 256v73.143q0 14.857-10.857 25.714t-25.714 10.857h-73.143q-14.857 0-25.714-10.857t-10.857-25.714v-73.143q0-14.857 10.857-25.714t25.714-10.857h73.143q14.857 0 25.714 10.857t10.857 25.714zM1024 475.428v73.143q0 14.857-10.857 25.714t-25.714 10.857h-73.143q-14.857 0-25.714-10.857t-10.857-25.714v-73.143q0-14.857 10.857-25.714t25.714-10.857h73.143q14.857 0 25.714 10.857t10.857 25.714zM1024 694.857v73.143q0 14.857-10.857 25.714t-25.714 10.857h-73.143q-14.857 0-25.714-10.857t-10.857-25.714v-73.143q0-14.857 10.857-25.714t25.714-10.857h73.143q14.857 0 25.714 10.857t10.857 25.714zM1097.143 786.286v-768q0-37.714-26.857-64.571t-64.571-26.857h-914.286q-37.714 0-64.571 26.857t-26.857 64.571v768q0 37.714 26.857 64.571t64.571 26.857h914.286q37.714 0 64.571-26.857t26.857-64.571z" />
<glyph unicode="&#xe62e;" glyph-name="camera" horiz-adv-x="1097" d="M548.571 566.857q68 0 116.286-48.286t48.286-116.286-48.286-116.286-116.286-48.286-116.286 48.286-48.286 116.286 48.286 116.286 116.286 48.286zM950.857 804.571q60.571 0 103.429-42.857t42.857-103.429v-512q0-60.571-42.857-103.429t-103.429-42.857h-804.571q-60.571 0-103.429 42.857t-42.857 103.429v512q0 60.571 42.857 103.429t103.429 42.857h128l29.143 77.714q10.857 28 39.714 48.286t59.143 20.286h292.571q30.286 0 59.143-20.286t39.714-48.286l29.143-77.714h128zM548.571 146.286q105.714 0 180.857 75.143t75.143 180.857-75.143 180.857-180.857 75.143-180.857-75.143-75.143-180.857 75.143-180.857 180.857-75.143z" />
<glyph unicode="&#xe62f;" glyph-name="caret-up" horiz-adv-x="585" d="M585.143 256q0-14.857-10.857-25.714t-25.714-10.857h-512q-14.857 0-25.714 10.857t-10.857 25.714 10.857 25.714l256 256q10.857 10.857 25.714 10.857t25.714-10.857l256-256q10.857-10.857 10.857-25.714z" />
<glyph unicode="&#xe630;" glyph-name="caret-down" horiz-adv-x="585" d="M585.143 548.571q0-14.857-10.857-25.714l-256-256q-10.857-10.857-25.714-10.857t-25.714 10.857l-256 256q-10.857 10.857-10.857 25.714t10.857 25.714 25.714 10.857h512q14.857 0 25.714-10.857t10.857-25.714z" />
<glyph unicode="&#xe631;" glyph-name="linkedin-square" d="M135.429 142.857h132v396.571h-132v-396.571zM276 661.714q-0.571 29.714-20.571 49.143t-53.143 19.429-54-19.429-20.857-49.143q0-29.143 20.286-48.857t52.857-19.714h0.571q33.714 0 54.286 19.714t20.571 48.857zM610.286 142.857h132v227.429q0 88-41.714 133.143t-110.286 45.143q-77.714 0-119.429-66.857h1.143v57.714h-132q1.714-37.714 0-396.571h132v221.714q0 21.714 4 32 8.571 20 25.714 34t42.286 14q66.286 0 66.286-89.714v-212zM877.714 713.143v-548.571q0-68-48.286-116.286t-116.286-48.286h-548.571q-68 0-116.286 48.286t-48.286 116.286v548.571q0 68 48.286 116.286t116.286 48.286h548.571q68 0 116.286-48.286t48.286-116.286z" />
<glyph unicode="&#xe632;" glyph-name="times-circle-o" d="M626.857 334.286l-83.429-83.429q-5.714-5.714-13.143-5.714t-13.143 5.714l-78.286 78.286-78.286-78.286q-5.714-5.714-13.143-5.714t-13.143 5.714l-83.429 83.429q-5.714 5.714-5.714 13.143t5.714 13.143l78.286 78.286-78.286 78.286q-5.714 5.714-5.714 13.143t5.714 13.143l83.429 83.429q5.714 5.714 13.143 5.714t13.143-5.714l78.286-78.286 78.286 78.286q5.714 5.714 13.143 5.714t13.143-5.714l83.429-83.429q5.714-5.714 5.714-13.143t-5.714-13.143l-78.286-78.286 78.286-78.286q5.714-5.714 5.714-13.143t-5.714-13.143zM749.714 438.857q0 84.571-41.714 156t-113.143 113.143-156 41.714-156-41.714-113.143-113.143-41.714-156 41.714-156 113.143-113.143 156-41.714 156 41.714 113.143 113.143 41.714 156zM877.714 438.857q0-119.429-58.857-220.286t-159.714-159.714-220.286-58.857-220.286 58.857-159.714 159.714-58.857 220.286 58.857 220.286 159.714 159.714 220.286 58.857 220.286-58.857 159.714-159.714 58.857-220.286z" />
<glyph unicode="&#xe633;" glyph-name="chain-broken" horiz-adv-x="951" d="M250.857 224.571l-146.286-146.286q-5.714-5.143-13.143-5.143-6.857 0-13.143 5.143-5.143 5.714-5.143 13.143t5.143 13.143l146.286 146.286q5.714 5.143 13.143 5.143t13.143-5.143q5.143-5.714 5.143-13.143t-5.143-13.143zM347.429 201.143v-182.857q0-8-5.143-13.143t-13.143-5.143-13.143 5.143-5.143 13.143v182.857q0 8 5.143 13.143t13.143 5.143 13.143-5.143 5.143-13.143zM219.429 329.143q0-8-5.143-13.143t-13.143-5.143h-182.857q-8 0-13.143 5.143t-5.143 13.143 5.143 13.143 13.143 5.143h182.857q8 0 13.143-5.143t5.143-13.143zM941.714 256q0-68.571-48.571-116l-84-83.429q-47.429-47.429-116-47.429-69.143 0-116.571 48.571l-190.857 191.429q-12 12-24 32l136.571 10.286 156-156.571q15.429-15.429 38.857-15.714t38.857 15.143l84 83.429q16 16 16 38.286 0 22.857-16 38.857l-156.571 157.143 10.286 136.571q20-12 32-24l192-192q48-49.143 48-116.571zM589.143 669.714l-136.571-10.286-156 156.571q-16 16-38.857 16-22.286 0-38.857-15.429l-84-83.429q-16-16-16-38.286 0-22.857 16-38.857l156.571-156.571-10.286-137.143q-20 12-32 24l-192 192q-48 49.143-48 116.571 0 68.571 48.571 116l84 83.429q47.429 47.429 116 47.429 69.143 0 116.571-48.571l190.857-191.429q12-12 24-32zM950.857 621.714q0-8-5.143-13.143t-13.143-5.143h-182.857q-8 0-13.143 5.143t-5.143 13.143 5.143 13.143 13.143 5.143h182.857q8 0 13.143-5.143t5.143-13.143zM640 932.571v-182.857q0-8-5.143-13.143t-13.143-5.143-13.143 5.143-5.143 13.143v182.857q0 8 5.143 13.143t13.143 5.143 13.143-5.143 5.143-13.143zM872.571 846.286l-146.286-146.286q-6.286-5.143-13.143-5.143t-13.143 5.143q-5.143 5.714-5.143 13.143t5.143 13.143l146.286 146.286q5.714 5.143 13.143 5.143t13.143-5.143q5.143-5.714 5.143-13.143t-5.143-13.143z" />
<glyph unicode="&#xe634;" glyph-name="envelope-o" d="M950.857 91.428v438.857q-18.286-20.571-39.429-37.714-153.143-117.714-243.429-193.143-29.143-24.571-47.429-38.286t-49.429-27.714-58.571-14h-1.143q-27.429 0-58.571 14t-49.429 27.714-47.429 38.286q-90.286 75.429-243.429 193.143-21.143 17.143-39.429 37.714v-438.857q0-7.429 5.429-12.857t12.857-5.429h841.143q7.429 0 12.857 5.429t5.429 12.857zM950.857 692v14t-0.286 7.429-1.714 7.143-3.143 5.143-5.143 4.286-8 1.429h-841.143q-7.429 0-12.857-5.429t-5.429-12.857q0-96 84-162.286 110.286-86.857 229.143-181.143 3.429-2.857 20-16.857t26.286-21.429 25.429-18 28.857-15.714 24.571-5.143h1.143q11.429 0 24.571 5.143t28.857 15.714 25.429 18 26.286 21.429 20 16.857q118.857 94.286 229.143 181.143 30.857 24.571 57.429 66t26.571 75.143zM1024 713.143v-621.714q0-37.714-26.857-64.571t-64.571-26.857h-841.143q-37.714 0-64.571 26.857t-26.857 64.571v621.714q0 37.714 26.857 64.571t64.571 26.857h841.143q37.714 0 64.571-26.857t26.857-64.571z" />
<glyph unicode="&#xe635;" glyph-name="google-plus" horiz-adv-x="951" d="M420 496q0-20.571 18.286-40.286t44.286-38.857 51.714-42 44-59.429 18.286-81.143q0-51.429-27.429-98.857-41.143-69.714-120.571-102.571t-170.286-32.857q-75.429 0-140.857 23.714t-98 78.571q-21.143 34.286-21.143 74.857 0 46.286 25.429 85.714t67.714 65.714q74.857 46.857 230.857 57.143-18.286 24-27.143 42.286t-8.857 41.714q0 20.571 12 48.571-26.286-2.286-38.857-2.286-84.571 0-142.571 55.143t-58 139.714q0 46.857 20.571 90.857t56.571 74.857q44 37.714 104.286 56t124.286 18.286h238.857l-78.857-50.286h-74.857q42.286-36 64-76t21.714-91.429q0-41.143-14-74t-33.714-53.143-39.714-37.143-34-35.143-14-37.714zM336.571 550.857q21.714 0 44.571 9.429t37.714 24.857q30.286 32.571 30.286 90.857 0 33.143-9.714 71.429t-27.714 74-48.286 59.143-66.857 23.429q-24 0-47.143-11.143t-37.429-30q-26.857-33.714-26.857-91.429 0-26.286 5.714-55.714t18-58.857 29.714-52.857 42.857-38.286 55.143-14.857zM337.714 52q33.143 0 63.714 7.429t56.571 22.286 41.714 41.714 15.714 62.286q0 14.286-4 28t-8.286 24-15.429 23.714-16.857 20-22 19.714-20.857 16.571-23.714 17.143-20.857 14.857q-9.143 1.143-27.429 1.143-30.286 0-60-4t-61.429-14.286-55.429-26.286-39.143-42.571-15.429-60.286q0-40 20-70.571t52.286-47.429 68-25.143 72.857-8.286zM800.571 552.571h121.714v-61.714h-121.714v-125.143h-60v125.143h-121.143v61.714h121.143v124h60v-124z" />
<glyph unicode="&#xe636;" glyph-name="twitter" horiz-adv-x="951" d="M925.714 717.714q-38.286-56-92.571-95.429 0.571-8 0.571-24 0-74.286-21.714-148.286t-66-142-105.429-120.286-147.429-83.429-184.571-31.143q-154.857 0-283.429 82.857 20-2.286 44.571-2.286 128.571 0 229.143 78.857-60 1.143-107.429 36.857t-65.143 91.143q18.857-2.857 34.857-2.857 24.571 0 48.571 6.286-64 13.143-106 63.714t-42 117.429v2.286q38.857-21.714 83.429-23.429-37.714 25.143-60 65.714t-22.286 88q0 50.286 25.143 93.143 69.143-85.143 168.286-136.286t212.286-56.857q-4.571 21.714-4.571 42.286 0 76.571 54 130.571t130.571 54q80 0 134.857-58.286 62.286 12 117.143 44.571-21.143-65.714-81.143-101.714 53.143 5.714 106.286 28.571z" />
<glyph unicode="&#xe637;" glyph-name="facebook" horiz-adv-x="585" d="M548 944v-150.857h-89.714q-49.143 0-66.286-20.571t-17.143-61.714v-108h167.429l-22.286-169.143h-145.143v-433.714h-174.857v433.714h-145.714v169.143h145.714v124.571q0 106.286 59.429 164.857t158.286 58.571q84 0 130.286-6.857z" />
<glyph unicode="&#xe638;" glyph-name="thumbs-o-down" d="M146.286 694.857q0 14.857-10.857 25.714t-25.714 10.857-25.714-10.857-10.857-25.714 10.857-25.714 25.714-10.857 25.714 10.857 10.857 25.714zM804.571 365.714q0 20-12.286 46.286t-30.571 26.857q8.571 9.714 14.286 27.143t5.714 31.714q0 39.429-30.286 68 10.286 18.286 10.286 39.429t-10 42-27.143 30q2.857 17.143 2.857 32 0 48.571-28 72t-77.714 23.429h-73.143q-74.857 0-195.429-41.714-2.857-1.143-16.571-6t-20.286-7.143-20-6.571-21.714-6.286-18.857-3.714-18-1.714h-18.286v-365.714h18.286q9.143 0 20.286-5.143t22.857-15.429 22-20.286 22.857-25.143 19.714-24.286 18-23.429 13.143-17.143q31.429-38.857 44-52 23.429-24.571 34-62.571t17.429-71.714 21.714-48.571q54.857 0 73.143 26.857t18.286 82.857q0 33.714-27.429 91.714t-27.429 91.143h201.143q28.571 0 50.857 22t22.286 51.143zM877.714 365.143q0-58.857-43.429-102.286t-102.857-43.429h-100.571q27.429-56.571 27.429-109.714 0-67.429-20-106.286-20-39.429-58.286-58t-86.286-18.571q-29.143 0-51.429 21.143-19.429 18.857-30.857 46.857t-14.571 51.714-10 48.286-17.714 36.571q-27.429 28.571-61.143 72.571-57.714 74.857-78.286 88.571h-156.571q-30.286 0-51.714 21.429t-21.429 51.714v365.714q0 30.286 21.429 51.714t51.714 21.429h164.571q12.571 0 78.857 22.857 73.143 25.143 127.429 37.714t114.286 12.571h64q80 0 129.429-45.143t48.857-123.429v-2.857q34.286-44 34.286-101.714 0-12.571-1.714-24.571 21.714-38.286 21.714-82.286 0-20.571-5.143-39.429 28-42.286 28-93.143z" />
<glyph unicode="&#xe639;" glyph-name="thumbs-o-up" d="M146.286 182.857q0 14.857-10.857 25.714t-25.714 10.857-25.714-10.857-10.857-25.714 10.857-25.714 25.714-10.857 25.714 10.857 10.857 25.714zM804.571 512q0 29.143-22.286 51.143t-50.857 22h-201.143q0 33.143 27.429 91.143t27.429 91.714q0 56-18.286 82.857t-73.143 26.857q-14.857-14.857-21.714-48.571t-17.429-71.714-34-62.571q-12.571-13.143-44-52-2.286-2.857-13.143-17.143t-18-23.429-19.714-24.286-22.857-25.143-22-20.286-22.857-15.429-20.286-5.143h-18.286v-365.714h18.286q7.429 0 18-1.714t18.857-3.714 21.714-6.286 20-6.571 20.286-7.143 16.571-6q120.571-41.714 195.429-41.714h69.143q109.714 0 109.714 95.429 0 14.857-2.857 32 17.143 9.143 27.143 30t10 42-10.286 39.429q30.286 28.571 30.286 68 0 14.286-5.714 31.714t-14.286 27.143q18.286 0.571 30.571 26.857t12.286 46.286zM877.714 512.571q0-50.857-28-93.143 5.143-18.857 5.143-39.429 0-44-21.714-82.286 1.714-12 1.714-24.571 0-57.714-34.286-101.714 0.571-79.429-48.571-125.429t-129.714-46h-73.714q-54.857 0-108.286 12.857t-123.714 37.429q-66.286 22.857-78.857 22.857h-164.571q-30.286 0-51.714 21.429t-21.429 51.714v365.714q0 30.286 21.429 51.714t51.714 21.429h156.571q20.571 13.714 78.286 88.571 33.143 42.857 61.143 73.143 13.714 14.286 20.286 48.857t17.429 72.286 35.429 61.714q22.286 21.143 51.429 21.143 48 0 86.286-18.571t58.286-58 20-106.286q0-53.143-27.429-109.714h100.571q59.429 0 102.857-43.429t43.429-102.286z" />
<glyph unicode="&#xe63a;" glyph-name="thumbs-down" horiz-adv-x="951" d="M146.286 621.714q0-14.857-10.857-25.714t-25.714-10.857q-15.429 0-26 10.857t-10.571 25.714q0 15.429 10.571 26t26 10.571q14.857 0 25.714-10.571t10.857-26zM237.714 329.143v365.714q0 14.857-10.857 25.714t-25.714 10.857h-164.571q-14.857 0-25.714-10.857t-10.857-25.714v-365.714q0-14.857 10.857-25.714t25.714-10.857h164.571q14.857 0 25.714 10.857t10.857 25.714zM882.857 414.286q31.429-34.857 31.429-85.143-0.571-44.571-32.857-77.143t-76.857-32.571h-158.286q2.286-8 4.571-13.714t6.286-12.571 5.714-10.286q10.286-21.143 15.429-32.571t10.857-33.429 5.714-43.714q0-13.714-0.286-22.286t-2.857-25.714-6.857-28.571-13.714-25.714-22.857-23.143-34.286-14.857-47.143-6q-14.857 0-25.714 10.857-11.429 11.429-19.429 28.571t-11.143 29.714-7.143 34.857q-5.143 24-7.714 34.571t-10 27.714-17.714 27.429q-18.857 18.857-57.714 68.571-28 36.571-57.714 69.143t-43.429 33.714q-14.286 1.143-24.571 11.714t-10.286 24.857v366.286q0 14.857 10.857 25.429t25.714 11.143q20 0.571 90.286 25.143 44 14.857 68.857 22.571t69.429 16.571 82.286 8.857h73.714q76-1.143 112.571-44.571 33.143-39.429 28-103.429 22.286-21.143 30.857-53.714 9.714-34.857 0-66.857 26.286-34.857 24.571-78.286 0-18.286-8.571-43.429z" />
<glyph unicode="&#xe63b;" glyph-name="thumbs-up" horiz-adv-x="951" d="M146.286 182.857q0 14.857-10.857 25.714t-25.714 10.857q-15.429 0-26-10.857t-10.571-25.714q0-15.429 10.571-26t26-10.571q14.857 0 25.714 10.571t10.857 26zM237.714 475.428v-365.714q0-14.857-10.857-25.714t-25.714-10.857h-164.571q-14.857 0-25.714 10.857t-10.857 25.714v365.714q0 14.857 10.857 25.714t25.714 10.857h164.571q14.857 0 25.714-10.857t10.857-25.714zM914.286 475.428q0-49.143-31.429-85.143 8.571-25.143 8.571-43.429 1.714-43.429-24.571-78.286 9.714-32 0-66.857-8.571-32.571-30.857-53.714 5.143-64-28-103.429-36.571-43.429-112.571-44.571h-73.714q-37.714 0-82.286 8.857t-69.429 16.571-68.857 22.571q-70.286 24.571-90.286 25.143-14.857 0.571-25.714 11.143t-10.857 25.429v366.286q0 14.286 10.286 24.857t24.571 11.714q13.714 1.143 43.429 33.714t57.714 69.143q38.857 49.714 57.714 68.571 10.286 10.286 17.714 27.429t10 27.714 7.714 34.571q4 22.286 7.143 34.857t11.143 29.714 19.429 28.571q10.857 10.857 25.714 10.857 26.286 0 47.143-6t34.286-14.857 22.857-23.143 13.714-25.714 6.857-28.571 2.857-25.714 0.286-22.286q0-21.714-5.429-43.429t-10.857-34.286-15.714-32q-1.714-3.429-5.714-10.286t-6.286-12.571-4.571-13.714h158.286q44.571 0 77.143-32.571t32.571-77.143z" />
<glyph unicode="&#xe63c;" glyph-name="flag-o" d="M950.857 353.714v352q-96.571-52-174.857-52-46.857 0-82.857 18.286-57.143 28-105.143 43.714t-101.714 15.714q-98.857 0-230.286-72.571v-342.286q140 64.571 247.429 64.571 31.429 0 59.143-4.286t56-14.857 44-17.714 47.143-22.571l16-8q25.143-12.571 57.714-12.571 68.571 0 167.429 52.571zM182.857 804.571q0-20-10-36.571t-26.571-26.286v-723.429q0-8-5.143-13.143t-13.143-5.143h-36.571q-8 0-13.143 5.143t-5.143 13.143v723.429q-16.571 9.714-26.571 26.286t-10 36.571q0 30.286 21.429 51.714t51.714 21.429 51.714-21.429 21.429-51.714zM1024 768v-436q0-22.286-20-32.571-5.714-2.857-9.714-5.143-124.571-66.286-210.857-66.286-50.286 0-90.286 20l-16 8q-36.571 18.857-56.571 27.429t-52 16.571-65.143 8q-58.286 0-134.571-25.143t-130.571-58.286q-8.571-5.143-18.857-5.143-9.143 0-18.286 4.571-18.286 10.857-18.286 32v424q0 20 17.714 31.429 20 12 44.857 24.286t65.143 29.714 87.143 28.286 88.571 10.857q64 0 119.429-17.714t119.429-49.143q21.714-10.857 50.857-10.857 69.714 0 177.143 64 12.571 6.857 17.714 9.714 17.714 9.143 35.429-1.143 17.714-11.429 17.714-31.429z" />
<glyph unicode="&#xe63d;" glyph-name="flag" d="M182.857 804.571q0-41.143-36.571-62.857v-723.429q0-7.429-5.429-12.857t-12.857-5.429h-36.571q-7.429 0-12.857 5.429t-5.429 12.857v723.429q-36.571 21.714-36.571 62.857 0 30.286 21.429 51.714t51.714 21.429 51.714-21.429 21.429-51.714zM1024 768v-436q0-14.286-7.143-22t-22.571-15.714q-122.857-66.286-210.857-66.286-34.857 0-70.571 12.571t-62 27.429-66 27.429-81.429 12.571q-109.714 0-265.143-83.429-9.714-5.143-18.857-5.143-14.857 0-25.714 10.857t-10.857 25.714v424q0 18.286 17.714 31.429 12 8 45.143 24.571 134.857 68.571 240.571 68.571 61.143 0 114.286-16.571t125.143-50.286q21.714-10.857 50.286-10.857 30.857 0 67.143 12t62.857 26.857 50.286 26.857 31.143 12q14.857 0 25.714-10.857t10.857-25.714z" />
<glyph unicode="&#xe63e;" glyph-name="check-circle-o" d="M669.143 486.286l-241.143-241.143q-10.857-10.857-25.714-10.857t-25.714 10.857l-168 168q-10.857 10.857-10.857 25.714t10.857 25.714l58.286 58.286q10.857 10.857 25.714 10.857t25.714-10.857l84-84 157.143 157.143q10.857 10.857 25.714 10.857t25.714-10.857l58.286-58.286q10.857-10.857 10.857-25.714t-10.857-25.714zM749.714 438.857q0 84.571-41.714 156t-113.143 113.143-156 41.714-156-41.714-113.143-113.143-41.714-156 41.714-156 113.143-113.143 156-41.714 156 41.714 113.143 113.143 41.714 156zM877.714 438.857q0-119.429-58.857-220.286t-159.714-159.714-220.286-58.857-220.286 58.857-159.714 159.714-58.857 220.286 58.857 220.286 159.714 159.714 220.286 58.857 220.286-58.857 159.714-159.714 58.857-220.286z" />
<glyph unicode="&#xe63f;" glyph-name="check" d="M954.857 627.428q0-22.857-16-38.857l-491.429-491.429q-16-16-38.857-16t-38.857 16l-284.571 284.571q-16 16-16 38.857t16 38.857l77.714 77.714q16 16 38.857 16t38.857-16l168-168.571 374.857 375.429q16 16 38.857 16t38.857-16l77.714-77.714q16-16 16-38.857z" />
<glyph unicode="&#xe640;" horiz-adv-x="1041" d="M299.943 583.505h236.694v-142.253h-236.694v142.253z" />
<glyph unicode="&#xe641;" horiz-adv-x="1041" d="M359.112 350.199c-5.131 0-10.513 1.63-13.617 5.873-2.742 3.769-4.7 10.599 1.613 21.758 4.76 8.417 14.385 15.704 25.579 20.034-2.803 2.38-6.96 3.286-12.444 2.665-29.347-3.234-53.805-48.407-54.047-48.855l-8.624 5.882c1.104 2.061 27.381 50.519 61.696 54.305 11.142 1.233 19.792-2.751 24.32-10.84 2.363 0.457 4.76 0.776 7.141 0.94 13.911 0.957 25.191-3.501 31.805-12.557 0.216-0.259 3.398-4.424 3.036-10.797-0.302-5.278-2.846-10.271-7.572-14.833l-0.354-0.345c3.122-1.181 12.401-0.94 21.965 8.883 20.62 21.181 32.064 15.092 40.55 6.33 1.173-1.207 2.337-2.544 3.536-3.924 6.658-7.658 10.823-11.78 19.025-6.968 14.437 8.469 20.844 31.34 20.844 38.601h10.064c0-9.788-7.555-37.721-26.269-48.7-15.178-8.917-24.613 1.923-30.848 9.090-1.061 1.233-2.104 2.432-3.139 3.501-4.631 4.778-10.383 10.728-26.985-6.347-11.435-11.737-24.208-14.135-31.814-11.272-4.071 1.518-6.787 4.614-7.46 8.469-0.388 2.294-0.354 6.813 4.346 11.341 2.544 2.449 3.95 4.838 4.062 6.899 0.086 1.509-0.595 2.613-0.595 2.622-6.252 8.546-17.446 9.064-23.587 8.658-1.483-0.112-2.975-0.285-4.476-0.535 1.587-15.239-6.778-32.711-18.826-38.118-2.423-1.087-5.623-1.759-8.926-1.759v0zM376.964 387.455c-9.469-3.458-17.731-9.314-21.37-15.747-2.553-4.51-3.010-7.46-2.328-8.391 1.414-1.94 7.512-2.363 11.056-0.776 7.374 3.303 13.074 15.066 12.643 24.915v0z" />
<glyph unicode="&#xe642;" horiz-adv-x="1067" d="M523.426 275.253l167.192-87.678c15.654-8.209 33.928 5.088 30.933 22.508l-31.931 185.706-6.153-18.91 135.261 131.518c12.688 12.337 5.703 33.869-11.812 36.408l-186.927 27.094 16.061-11.652-83.596 168.961c-7.832 15.831-30.41 15.831-38.242 0l-83.596-168.961 16.061 11.652-186.927-27.094c-17.515-2.539-24.5-24.071-11.812-36.408l135.261-131.518-6.153 18.91-31.931-185.706c-2.995-17.42 15.279-30.717 30.933-22.508l167.192 87.678h-19.816z" />
<glyph unicode="&#xe643;" glyph-name="assignment" d="M499.712 778.825c-2.048 6.144-4.096 10.24-4.096 14.336-4.096-12.288-12.288-45.056-28.672-96.256h57.344c-14.336 47.104-22.528 75.776-24.576 81.92zM856.064 950.857h-688.128c-16.384 0-28.672-12.288-28.672-28.672v-802.816h129.024c34.816 0 63.488-28.672 63.488-63.488v-129.024h524.288c16.384 0 28.672 12.288 28.672 28.672v966.656c0 16.384-12.288 28.672-28.672 28.672zM466.944 827.977h57.344l77.824-221.184h-49.152l-16.384 53.248h-79.872l-16.384-53.248h-51.2l77.824 221.184zM763.904 203.337h-503.808v43.008h503.808v-43.008zM763.904 330.313h-503.808v43.008h503.808v-43.008zM763.904 457.289h-503.808v43.008h503.808v-43.008zM765.952 698.953h-59.392v-57.344h-32.768v57.344h-59.392v32.768h59.392v57.344h32.768v-59.392h59.392v-30.72zM268.288 84.553h-129.024l157.696-157.696v129.024c0 16.384-12.288 28.672-28.672 28.672z" />
<glyph unicode="&#xe900;" glyph-name="doc" d="M585.273 595.591h146.157v156.734h-146.157v-156.734zM841.145 877.712h-658.285c-20.376 0-36.442-14.109-36.442-31.346v-815.019c0-17.242 16.455-31.346 36.442-31.346h658.285c20.376 0 36.442 14.109 36.442 31.346v815.019c0 17.242-16.066 31.346-36.442 31.346v0zM274.157 783.675h182.988c10.188 0 18.418-7.054 18.418-15.673s-8.23-15.673-18.418-15.673h-182.988c-10.188 0-18.418 7.054-18.418 15.673 0.394 8.619 8.619 15.673 18.418 15.673v0 0zM274.157 689.633h182.988c10.188 0 18.418-7.054 18.418-15.673s-8.23-15.673-18.418-15.673h-182.988c-10.188 0-18.418 7.054-18.418 15.673s8.619 15.673 18.418 15.673v0 0zM274.157 595.591h182.988c10.188 0 18.418-7.054 18.418-15.673s-8.23-15.673-18.418-15.673h-182.988c-10.188 0-18.418 7.054-18.418 15.673 0.394 8.619 8.619 15.673 18.418 15.673v0 0zM640.133 94.039h-365.582c-10.188 0-18.418 7.054-18.418 15.673s8.23 15.673 18.418 15.673h365.582c10.188 0 18.418-7.054 18.418-15.673-0.394-8.619-8.619-15.673-18.418-15.673v0zM749.843 188.081h-475.691c-10.188 0-18.418 7.054-18.418 15.673s8.23 15.673 18.418 15.673h475.297c10.188 0 18.418-7.054 18.418-15.673s-8.23-15.673-18.024-15.673v0zM749.843 282.123h-475.691c-10.188 0-18.418 7.054-18.418 15.673s8.23 15.673 18.418 15.673h475.297c10.188 0 18.418-7.054 18.418-15.673s-8.23-15.673-18.024-15.673v0zM749.843 376.166h-475.691c-10.188 0-18.418 7.054-18.418 15.673s8.23 15.673 18.418 15.673h475.297c10.188 0 18.418-7.054 18.418-15.673s-8.23-15.673-18.024-15.673v0zM749.843 470.203h-475.691c-10.188 0-18.418 7.054-18.418 15.673s8.23 15.673 18.418 15.673h475.297c10.188 0 18.418-7.054 18.418-15.673s-8.23-15.673-18.024-15.673v0zM767.867 579.918c0-8.619-8.23-15.673-18.418-15.673h-182.594c-10.188 0-18.418 7.054-18.418 15.673v188.079c0 8.619 8.23 15.673 18.418 15.673h182.988c10.188 0 18.418-7.054 18.418-15.673v-188.079z" />
<glyph unicode="&#xe901;" glyph-name="ellipsis-h" horiz-adv-x="805" d="M219.429 530.286v-109.714q0-22.857-16-38.857t-38.857-16h-109.714q-22.857 0-38.857 16t-16 38.857v109.714q0 22.857 16 38.857t38.857 16h109.714q22.857 0 38.857-16t16-38.857zM512 530.286v-109.714q0-22.857-16-38.857t-38.857-16h-109.714q-22.857 0-38.857 16t-16 38.857v109.714q0 22.857 16 38.857t38.857 16h109.714q22.857 0 38.857-16t16-38.857zM804.571 530.286v-109.714q0-22.857-16-38.857t-38.857-16h-109.714q-22.857 0-38.857 16t-16 38.857v109.714q0 22.857 16 38.857t38.857 16h109.714q22.857 0 38.857-16t16-38.857z" />
<glyph unicode="&#xe902;" glyph-name="circle-outline" horiz-adv-x="1030" d="M515.214-73.143c-282.77 0-512 229.23-512 512s229.23 512 512 512c282.77 0 512-229.23 512-512s-229.23-512-512-512zM515.214-30.476c259.206 0 469.333 210.128 469.333 469.333s-210.128 469.333-469.333 469.333c-259.206 0-469.333-210.128-469.333-469.333s210.128-469.333 469.333-469.333z" />
<glyph unicode="&#xe903;" glyph-name="event" d="M124.099 15.679h775.838v564.245h-775.838v-564.245zM335.692 685.717v158.694c0 5.143-1.652 9.368-4.958 12.674s-7.531 4.958-12.674 4.958h-35.265c-5.143 0-9.368-1.652-12.674-4.958s-4.958-7.531-4.958-12.674v-158.694c0-5.143 1.652-9.368 4.958-12.674s7.531-4.958 12.674-4.958h35.265c5.143 0 9.368 1.652 12.674 4.958s4.958 7.531 4.958 12.674v0zM758.876 685.717v158.694c0 5.143-1.652 9.368-4.958 12.674s-7.531 4.958-12.674 4.958h-35.265c-5.143 0-9.368-1.652-12.674-4.958s-4.958-7.531-4.958-12.674v-158.694c0-5.143 1.652-9.368 4.958-12.674s7.531-4.958 12.674-4.958h35.265c5.143 0 9.368 1.652 12.674 4.958s4.958 7.531 4.958 12.674v0zM970.466 720.981v-705.306c0-19.102-6.98-35.631-20.939-49.59s-30.488-20.939-49.59-20.939h-775.838c-19.102 0-35.631 6.98-49.59 20.939s-20.939 30.488-20.939 49.59v705.306c0 19.102 6.98 35.631 20.939 49.59s30.488 20.939 49.59 20.939h70.529v52.897c0 24.245 8.631 44.999 25.897 62.265s38.019 25.897 62.265 25.897h35.265c24.245 0 44.999-8.631 62.265-25.897s25.897-38.019 25.897-62.265v-52.897h211.59v52.897c0 24.245 8.631 44.999 25.897 62.265s38.019 25.897 62.265 25.897h35.265c24.245 0 44.999-8.631 62.265-25.897s25.897-38.019 25.897-62.265v-52.897h70.529c19.102 0 35.631-6.98 49.59-20.939s20.939-30.488 20.939-49.59v0z" />
<glyph unicode="&#xe904;" glyph-name="email2" d="M853.333 513.486v-287.352c0-15.924-5.67-29.556-17.010-40.895s-24.971-17.009-40.895-17.009h-532.724c-15.924 0-29.556 5.67-40.895 17.009s-17.010 24.971-17.010 40.895v287.352c10.616-11.822 22.8-22.317 36.552-31.486 87.34-59.353 147.295-100.971 179.867-124.857 13.752-10.133 24.911-18.035 33.476-23.705s19.965-11.46 34.2-17.371c14.235-5.911 27.505-8.867 39.81-8.867h0.724c12.305 0 25.575 2.956 39.81 8.867s25.635 11.702 34.2 17.371c8.565 5.67 19.724 13.571 33.476 23.705 41.016 29.676 101.092 71.295 180.229 124.857 13.752 9.41 25.816 19.905 36.19 31.486v0zM853.333 619.886c0-19.060-5.911-37.276-17.733-54.648s-26.54-32.209-44.152-44.514c-90.718-62.972-147.175-102.178-169.371-117.619-2.413-1.689-7.54-5.368-15.381-11.038s-14.356-10.254-19.543-13.752c-5.187-3.498-11.46-7.419-18.819-11.762s-14.295-7.6-20.81-9.771c-6.514-2.171-12.546-3.257-18.095-3.257h-0.724c-5.549 0-11.581 1.086-18.095 3.257s-13.451 5.429-20.81 9.771c-7.359 4.343-13.632 8.263-18.819 11.762s-11.702 8.083-19.543 13.752c-7.841 5.67-12.968 9.349-15.381 11.038-21.956 15.441-53.562 37.457-94.819 66.048s-65.987 45.781-74.19 51.571c-14.959 10.133-29.073 24.067-42.343 41.8s-19.905 34.2-19.905 49.4c0 18.819 5.006 34.502 15.019 47.048s24.308 18.819 42.886 18.819h532.724c15.683 0 29.254-5.67 40.714-17.010s17.19-24.971 17.19-40.895v0z" />
<glyph unicode="&#xe905;" glyph-name="facebook2" d="M676.267 746.057c29.971 0 55.596-10.641 76.878-31.922s31.922-46.907 31.922-76.878v-362.667c0-29.971-10.641-55.596-31.922-76.878s-46.907-31.922-76.878-31.922h-71.022v224.778h75.178l11.333 87.644h-86.511v55.911c0 14.104 2.959 24.681 8.878 31.733s17.441 10.578 34.567 10.578l46.089 0.378v78.2c-15.867 2.267-38.281 3.4-67.244 3.4-34.252 0-61.641-10.074-82.167-30.222s-30.789-48.607-30.789-85.378v-64.6h-75.556v-87.644h75.556v-224.778h-200.978c-29.971 0-55.596 10.641-76.878 31.922s-31.922 46.907-31.922 76.878v362.667c0 29.971 10.641 55.596 31.922 76.878s46.907 31.922 76.878 31.922h362.667z" />
<glyph unicode="&#xe906;" glyph-name="google-plus2" d="M600.489 468.279c0-51.358-10.741-97.099-32.222-137.222s-52.099-71.481-91.852-94.074c-39.753-22.593-85.308-33.889-136.667-33.889-36.79 0-71.975 7.16-105.556 21.481s-62.469 33.58-86.667 57.778c-24.198 24.198-43.457 53.086-57.778 86.667s-21.481 68.765-21.481 105.556c0 36.79 7.16 71.975 21.481 105.556s33.58 62.469 57.778 86.667c24.198 24.198 53.086 43.457 86.667 57.778s68.765 21.481 105.556 21.481c70.618 0 131.234-23.703 181.852-71.111l-73.704-70.741c-28.889 27.901-64.938 41.852-108.148 41.852-30.371 0-58.457-7.654-84.259-22.963s-46.234-36.111-61.296-62.407c-15.062-26.296-22.593-55-22.593-86.111s7.531-59.815 22.593-86.111c15.062-26.296 35.494-47.099 61.296-62.407s53.889-22.963 84.259-22.963c20.494 0 39.321 2.839 56.481 8.519s31.296 12.778 42.407 21.296c11.111 8.519 20.802 18.21 29.074 29.074s14.321 21.111 18.148 30.741c3.827 9.63 6.481 18.765 7.963 27.407h-154.074v93.333h256.296c2.963-15.556 4.444-30.617 4.444-45.185v0zM921.6 513.464v-77.778h-77.407v-77.407h-77.778v77.407h-77.407v77.778h77.407v77.407h77.778v-77.407h77.407z" />
<glyph unicode="&#xe907;" glyph-name="wechat2" d="M364 613.057c0 9.111-2.778 16.444-8.333 22s-12.889 8.333-22 8.333c-9.556 0-18-2.833-25.333-8.5s-11-12.944-11-21.833c0-8.667 3.667-15.833 11-21.5s15.778-8.5 25.333-8.5c9.111 0 16.444 2.722 22 8.167s8.333 12.722 8.333 21.833v0zM611.667 444.057c0 6.222-2.833 11.778-8.5 16.667s-12.944 7.333-21.833 7.333c-6 0-11.5-2.5-16.5-7.5s-7.5-10.5-7.5-16.5c0-6.222 2.5-11.833 7.5-16.833s10.5-7.5 16.5-7.5c8.889 0 16.167 2.444 21.833 7.333s8.5 10.556 8.5 17v0zM533 613.057c0 9.111-2.722 16.444-8.167 22s-12.722 8.333-21.833 8.333c-9.556 0-18-2.833-25.333-8.5s-11-12.944-11-21.833c0-8.667 3.667-15.833 11-21.5s15.778-8.5 25.333-8.5c9.111 0 16.389 2.722 21.833 8.167s8.167 12.722 8.167 21.833v0zM744.667 444.057c0 6.222-2.889 11.778-8.667 16.667s-13 7.333-21.667 7.333c-6 0-11.5-2.5-16.5-7.5s-7.5-10.5-7.5-16.5c0-6.222 2.5-11.833 7.5-16.833s10.5-7.5 16.5-7.5c8.667 0 15.889 2.444 21.667 7.333s8.667 10.556 8.667 17v0zM656 576.39c-6.889 0.889-14.667 1.333-23.333 1.333-37.556 0-72.111-8.555-103.667-25.667s-56.389-40.278-74.5-69.5c-18.111-29.222-27.167-61.166-27.167-95.833 0-17.333 2.556-34.222 7.667-50.667-7.778-0.667-15.333-1-22.667-1-5.778 0-11.333 0.167-16.667 0.5s-11.444 1.056-18.333 2.167c-6.889 1.111-11.833 1.889-14.833 2.333s-9.056 1.611-18.167 3.5c-9.111 1.889-14.667 3.056-16.667 3.5l-84.333-42.333 24 72.667c-64.445 45.111-96.667 99.555-96.667 163.333 0 37.556 10.833 72.111 32.5 103.667s51 56.389 88 74.5c37 18.111 77.389 27.167 121.167 27.167 39.111 0 76.055-7.333 110.833-22s63.889-34.944 87.333-60.833c23.445-25.889 38.611-54.833 45.5-86.833v0zM853.333 389.39c0-26-7.611-50.833-22.833-74.5s-35.833-45.167-61.833-64.5l18.333-60.333-66.333 36.333c-33.333-8.222-57.555-12.333-72.667-12.333-37.556 0-72.111 7.833-103.667 23.5s-56.389 36.944-74.5 63.833c-18.111 26.889-27.167 56.222-27.167 88s9.055 61.111 27.167 88c18.111 26.889 42.944 48.167 74.5 63.833s66.111 23.5 103.667 23.5c35.778 0 69.444-7.833 101-23.5s56.833-37 75.833-64c19-27 28.5-56.278 28.5-87.833v0z" />
<glyph unicode="&#xe908;" glyph-name="caret2" horiz-adv-x="1365" d="M682.667 950.857l682.667-1024h-1365.333l682.667 1024z" />
<glyph unicode="&#xe909;" glyph-name="stacked-file" horiz-adv-x="846" d="M44.522 772.77v0-801.391h623.304v801.391h-623.304zM44.522 817.292v0h667.826v-890.435h-712.348v890.435h44.522zM158.13 550.161h420.653v44.522h-445.217v-44.522h24.564zM158.13 461.118h420.653v44.522h-445.217v-44.522h24.564zM158.13 372.074h420.653v44.522h-445.217v-44.522h24.564zM158.13 283.031h420.653v44.522h-445.217v-44.522h24.564zM158.13 193.987h420.653v44.522h-445.217v-44.522h24.564zM554.218 104.944h24.564v44.522h-445.217v-44.522h420.653zM135.191 862.43h622.334v-801.651h-59.879v-44.522h104.401v890.695h-711.378v-111.44h44.522v66.919z" />
<glyph unicode="&#xe90a;" glyph-name="practice-quiz" horiz-adv-x="777" d="M0 915.547v0l35.31 35.31v-1024l-35.31 35.31h776.828l-35.31-35.31v812.138l10.342-24.968-211.862 211.862 24.968-10.342h-564.966zM0 950.857h564.966l211.862-211.862v-812.138h-776.828v1024zM317.793 597.754h282.483v-35.31h-282.483v35.31zM317.793 456.512h282.483v-35.31h-282.483v35.31zM317.793 315.271h282.483v-35.31h-282.483v35.31zM317.793 174.029h282.483v-35.31h-282.483v35.31zM529.655 950.857v-223.523h225.111v35.31h-207.455l17.655-17.655v205.868h-35.31zM141.241 209.34v-105.931h105.931v105.931h-105.931zM176.552 174.029h35.31v-35.31h-35.31v35.31zM141.241 633.064v-105.931h105.931v105.931h-105.931zM176.552 597.754h35.31v-35.31h-35.31v35.31zM141.241 350.581v-105.931h105.931v105.931h-105.931zM176.552 315.271h35.31v-35.31h-35.31v35.31zM141.241 491.823v-105.931h105.931v105.931h-105.931zM176.552 456.512h35.31v-35.31h-35.31v35.31z" />
<glyph unicode="&#xe90b;" glyph-name="broken-file" horiz-adv-x="652" d="M133.818 537.766h407.273v46.545h-407.273v-46.545zM133.818 258.493h407.273v46.545h-407.273v-46.545zM133.818 398.13h407.273v46.545h-407.273v-46.545zM133.818 118.857h407.273v46.545h-407.273v-46.545zM651.636-12.038v925.091h-411.094l-217.269-217.269v-745.492l91.862 45.931h-20.816l68.59-34.295 68.59 34.295h-20.816l68.59-34.295 68.59 34.295h-20.816l68.59-34.295 68.59 34.295h-20.816l68.59-34.295 68.59 34.295-20.812-0.002 91.858-45.906v37.648zM605.091-12.038l33.676 20.818-68.588 34.277-68.587-34.294h20.816l-68.59 34.295-68.59-34.295h20.816l-68.59 34.295-68.59-34.295h20.816l-68.59 34.295-68.59-34.295h20.816l-68.59 34.295-68.59-34.295 33.681-20.816v698.196l-6.816-16.456 203.636 203.636-16.456-6.816h378.182l-23.273 23.273v-901.818zM46.545 662.872h226.909v226.909h-46.545v-203.636l23.273 23.273h-203.636v-46.545z" />
<glyph unicode="&#xe90c;" glyph-name="full-star" horiz-adv-x="1088" d="M543.194 134.857l-319.281-168.105 60.977 356.053-258.304 252.158 356.967 51.947 159.641 323.947 159.641-323.947 356.967-51.947-258.304-252.158 60.977-356.053z" />
<glyph unicode="&#xe90d;" glyph-name="graded-quiz" horiz-adv-x="777" d="M0 915.547v0l35.31 35.31v-1024l-35.31 35.31h776.828l-35.31-35.31v812.138l10.342-24.968-211.862 211.862 24.968-10.342h-564.966zM0 950.857h564.966l211.862-211.862v-812.138h-776.828v1024zM474.897 230.65c-18.414 0-30.621 18-30.621 45.517s12 45.31 30.621 45.31c18.621 0 30.414-17.379 30.414-45.31 0-27.31-12.207-45.517-30.414-45.517v0zM474.897 204.167c37.241 0 63.517 29.793 63.517 72s-26.276 71.793-63.517 71.793c-37.241 0-63.724-29.793-63.724-71.793 0-42.207 26.483-72 63.724-72v0zM302.138 369.271c37.241 0 63.517 29.793 63.517 72s-26.276 71.793-63.517 71.793c-37.241 0-63.724-29.793-63.724-71.793 0-42.207 26.483-72 63.724-72v0zM298.828 209.34l218.276 298.552h-37.655l-218.69-298.552h38.069zM302.138 395.754c-18.414 0-30.621 18-30.621 45.517s12 45.31 30.621 45.31c18.621 0 30.414-17.379 30.414-45.31 0-27.31-12.207-45.517-30.414-45.517v0zM529.655 915.547v-223.523h225.111v35.31h-207.455l17.655-17.655v205.868h-35.31z" />
<glyph unicode="&#xe90e;" glyph-name="half-star" horiz-adv-x="576" d="M516.608 134.857l-319.281-168.105 60.977 356.053-258.304 252.158 356.967 51.947 159.641 323.947z" />
<glyph unicode="&#xe90f;" glyph-name="honors" horiz-adv-x="819" d="M409.6 125.968c-226.216 0-409.6 184.658-409.6 412.444s183.384 412.444 409.6 412.444c226.216 0 409.6-184.658 409.6-412.444s-183.384-412.444-409.6-412.444zM409.6 336.457c113.108 0 204.8 91.692 204.8 204.8s-91.692 204.8-204.8 204.8c-113.108 0-204.8-91.692-204.8-204.8s91.692-204.8 204.8-204.8zM167.136 277.845h484.929v-350.988l-242.464 167.018-242.464-167.018z" />
<glyph unicode="&#xe910;" glyph-name="language" horiz-adv-x="1126" d="M719.61 519.716v-80.859h80.859v80.859h-80.859zM477.034 519.716v-80.859h80.859v80.859h-80.859zM234.459 519.716v-80.859h80.859v80.859h-80.859zM563.2 166.106h537.6v759.151h-1075.2v-759.151h306.374l-25.6 25.6v-258.679l273.681 239.411-16.855-6.332zM563.2 217.306h-9.617l-238.464-208.604 42.455-19.268v227.872h-306.374l25.6-25.6v707.951l-25.6-25.6h1024l-25.6 25.6v-707.951l25.6 25.6h-512z" />
<glyph unicode="&#xe911;" glyph-name="peer-review" horiz-adv-x="777" d="M0 915.547v0l35.31 35.31v-1024l-35.31 35.31h776.828l-35.31-35.31v812.138l10.342-24.968-211.862 211.862 24.968-10.342zM0 950.857h564.966l211.862-211.862v-812.138h-776.828v1024zM531.849 922.872v-223.523h225.111v35.31h-207.455l17.655-17.655v205.868h-35.31zM216.96 357.089l113.894-122.357 263.153 266.070-25.105 24.83-250.215-252.988 25.476-0.386-101.358 108.889-25.846-24.058z" />
<glyph unicode="&#xe912;" glyph-name="reading" horiz-adv-x="777" d="M0 915.547v0l35.31 35.31v-1024l-35.31 35.31h776.828l-35.31-35.31v812.138l10.342-24.968-211.862 211.862 24.968-10.342h-564.966zM0 950.857h564.966l211.862-211.862v-812.138h-776.828v1024zM176.552 597.754h423.724v-35.31h-423.724v35.31zM176.552 491.823h423.724v-35.31h-423.724v35.31zM176.552 385.891h423.724v-35.31h-423.724v35.31zM176.552 279.96h423.724v-35.31h-423.724v35.31zM176.552 174.029h423.724v-35.31h-423.724v35.31zM529.655 915.547v-223.523h225.111v35.31h-207.455l17.655-17.655v205.868h-35.31z" />
<glyph unicode="&#xe913;" glyph-name="video" horiz-adv-x="777" d="M0 915.547v0l35.31 35.31v-1024l-35.31 35.31h776.828l-35.31-35.31v812.138l10.342-24.968-211.862 211.862 24.968-10.342h-564.966zM0 950.857h564.966l211.862-211.862v-812.138h-776.828v1024zM531.849 922.872v-223.523h225.111v35.31h-207.455l17.655-17.655v205.868h-35.31zM529.655 421.202l-247.172 176.552v-353.103z" />
<glyph unicode="&#xe914;" glyph-name="clock" horiz-adv-x="926" d="M743.814 673.218c153.441-153.399 153.441-402.152 0-555.551-153.434-153.476-402.186-153.476-555.6-0.006-153.432 153.404-153.432 402.158-0.005 555.557 153.418 153.446 402.172 153.446 555.601 0.002l0.003-0.003zM778.292 707.699c-172.473 172.488-452.105 172.488-624.563-0.001-172.471-172.44-172.471-452.073 0.003-624.515 172.453-172.516 452.088-172.516 624.561 0.004 172.486 172.438 172.486 452.073-0.005 624.515l0.003-0.003zM490.392 812.684v89.411l-24.381-24.381h89.411v48.762h-113.792v-113.792h48.762zM376.601 877.714h89.411v48.762h-89.411v-48.762zM488.902-21.815v59.607h-48.762v-59.607h48.762zM488.902 753.077v59.607h-48.762v-59.607h48.762zM48.762 415.759h59.607v48.762h-59.607v-48.762zM823.654 415.759h59.607v48.762h-59.607v-48.762zM188.947 638.004l42.172-42.157 34.474 34.486-42.172 42.157-34.474-34.486zM666.427 160.54l42.172-42.172 34.48 34.48-42.172 42.172-34.48-34.48zM708.599 672.487l-42.157-42.157 34.48-34.48 42.157 42.157-34.48 34.48zM231.134 195.023l-42.187-42.172 34.474-34.486 42.187 42.172-34.474 34.486zM440.14 604.060v-178.821h48.762v178.821h-48.762zM466.011 326.349c38.155 0 69.086 30.931 69.086 69.086s-30.931 69.086-69.086 69.086c-38.155 0-69.086-30.931-69.086-69.086s30.931-69.086 69.086-69.086v0zM466.011 375.111c-11.225 0-20.324 9.1-20.324 20.324s9.1 20.324 20.324 20.324c11.225 0 20.324-9.1 20.324-20.324s-9.1-20.324-20.324-20.324v0z" />
<glyph unicode="&#xe915;" glyph-name="tools" horiz-adv-x="1113" d="M708.965 349.25l-68.284 66.348 124.375 118.883h59.086c82.582 0 180.993 37.443 180.993 215.831v25.148l-144.433-65.789-49.987 50.584 63.183 141.937h-25.076c-183.593 0-222.128-96.101-222.128-175.863v-57.395l-122.45-120.77-199.817 194.152 52.62 51.128-193.613 112.888-51.073-49.625 116.181-188.141 52.62 51.144 199.981-194.312-403.845-398.249-32.776-109.211 48.835-44.653 112.825 27.115 411.019 392.765 68.498-66.524-49.362-47.963 335.891-326.369 121.989 118.531-335.891 326.369-49.362-47.963zM153.792 851.754l14.743 14.325 135.449-78.962-68.926-66.972-81.266 131.609zM189.547 29.356l-86.679-20.848-21.094 19.297 24.813 82.639 553.017 545.382v70.505c0 89.53 53.656 136.23 163.848 142.225l-51.698-115.686 81.644-81.808 118.041 53.75c-6.664-105.118-56.141-158.356-147.296-158.356h-72.545l-562.050-537.1zM972.228-2.475l-289.359 281.156 75.458 73.319 289.359-281.156-75.458-73.319z" />
<glyph unicode="&#xe916;" glyph-name="graduation-hat" horiz-adv-x="1536" d="M404.532 376.89l-309.427 150.588 0.592-56.471 679.869 361.412-17.173 0.773c52.101-33.236 157.056-90.95 300.858-166.483 11.669-6.125 11.669-6.125 23.351-12.243 78.339-40.999 162.259-84.216 246.177-126.964 29.37-14.961 56.642-28.795 81.119-41.165 14.689-7.424 25.185-12.712 30.789-15.527l1.568 57.262-326.115-126.673v-323.954l4.345 17.99c-5.717-10.535-24.235-29.731-61.42-50.289-65.296-36.099-160.605-58.054-291.423-58.054-134.624 0-231.047 17.584-292.328 47.229-38.51 18.629-56.171 39.224-56.171 43.124v292.335l-14.61 7.11zM375.256 348.504v-271.059c0-84.657 136.293-150.588 392.384-150.588 136.118 0 236.924 23.221 307.82 62.416 44.53 24.618 69.593 50.599 80.219 70.182l4.345 8.007v311.16l-15.968-28.98 375.309 145.782-63.595 31.951c-5.578 2.802-16.048 8.077-30.71 15.488-24.443 12.354-51.68 26.17-81.014 41.112-83.805 42.69-167.608 85.847-245.811 126.775-11.658 6.105-11.658 6.105-23.301 12.217-142.789 75.001-247.214 132.424-298.046 164.85l-8.467 5.401-743.751-395.371 365.195-177.728zM1097.362 127.12v251.501l0.852 11.813c-0.327-2.432-0.327-2.432-0.501-4.416-0.295-3.85-0.078-5.845-0.135-5.684-1.961 5.575-7.216 13.259-17.989 22.501-46.453 39.85-146.049 66.138-311.369 66.138-166.577 0-267.573-21.326-315.002-53.876-10.553-7.242-15.225-12.707-16.303-15.16 1.544 3.512 2.411 9.888 1.678 17.532-0.315 2.842-0.315 2.842-0.826 5.878l1.31-7.194v-289.034c-49.817-39.085-43.886-79.793-43.886-79.793v111.903c4.649 4.963 9.692 9.797 15.141 14.471 63.261 54.268 177.608 84.45 357.888 84.45s294.627-30.182 357.888-84.45c5.448-4.674 10.491-9.507 15.141-14.471v-111.903c0 0 5.932 40.708-43.886 79.793zM395 53.266l0.191 0.026v355.447c0 0-21.943 120.471 373.029 120.471s373.029-150.588 373.029-150.588v-325.33l0.191-0.026c-0.901 27.905-25.452 144.65-373.22 144.65s-372.319-116.745-373.22-144.65zM263.314 17.21v90.353h-43.886v-120.471h43.886v30.118zM307.2 17.21v512h-43.886v-542.118h43.886v30.118z" />
<glyph unicode="&#xe917;" glyph-name="check-list" d="M703.553 628.080l-308.089-310.311-116.521 116.521-43.942-43.942 138.245-138.245c6.172-6.172 14.565-11.109 21.971-11.109s15.553 4.937 21.724 10.862l330.060 331.788-43.448 44.436zM503.524 934.952c-269.363 0-487.619-218.235-487.619-487.572s218.256-487.572 487.619-487.572c269.363 0 487.619 218.235 487.619 487.572s-218.256 487.572-487.619 487.572v0zM503.524 0.361c-246.388 0-447.062 200.42-447.062 447.019 0 246.365 200.44 447.019 447.062 447.019 246.388 0 447.062-200.42 447.062-447.019 0-246.365-200.674-447.019-447.062-447.019v0z" />
<glyph unicode="&#xe918;" glyph-name="person" horiz-adv-x="935" d="M770.276-38.732l1.759 203.763c0.016 1.574 0.693 3.008 1.727 3.852 155.983 128.438 207.604 342.162 115.155 543.614-39.266 85.496-108.526 154.199-194.593 193.063-273.403 123.372-565.059-20.131-633.663-286.392l-59.254-244.704c-7.509-31.155 15.832-61.111 47.868-61.682l39.291-0.794c3.146-0.050 5.617-2.551 5.617-5.49l-0.32-186.473c0-24.557 17.752-45.438 41.993-49.431l153.7-25.282c2.718-0.456 4.66-2.68 4.706-5.226l1.761-79.515c0.272-12.291 10.457-22.035 22.748-21.762s22.035 10.457 21.762 22.748l-1.759 79.422c-0.431 24.018-18.107 44.259-41.924 48.253l-153.764 25.293c-2.745 0.452-4.702 2.754-4.702 5.462l0.32 186.473c0 27.328-22.016 49.614-49.34 50.042l-39.243 0.793c-3.69 0.066-6.248 3.349-5.437 6.713l59.17 244.366c61.684 239.391 324.134 368.523 572.154 256.606 76.283-34.446 137.675-95.343 172.449-171.059 83.934-182.896 37.548-374.945-102.915-490.604-11.292-9.211-17.88-23.164-18.025-37.874l-1.759-203.79c-0.106-12.294 9.774-22.346 22.068-22.452s22.346 9.774 22.452 22.068v0z" />
<glyph unicode="&#xe919;" glyph-name="certificate-form" horiz-adv-x="1365" d="M988.718 412.683v0c54.787 0 99.2 44.413 99.2 99.2s-44.413 99.2-99.2 99.2c-54.787 0-99.2-44.413-99.2-99.2s44.413-99.2 99.2-99.2v0zM988.718 365.421v0c-80.888 0-146.462 65.573-146.462 146.462s65.573 146.462 146.462 146.462c80.888 0 146.462-65.573 146.462-146.462s-65.573-146.462-146.462-146.462v0zM901.005 234.753l89.513 48.867 89.513-48.867v162.768h-47.262v-83.87l-42.251 23.793-42.251-23.793v85.172h-47.262zM52.513 767.062v0-787.692h1155.282v787.692h-1155.282zM52.513 819.575h1207.795v-892.718h-1260.308v892.718h52.513zM210.577 875.303h1094.579v-797.159h-46.602v-52.513h99.115v902.185h-1199.604v-121.326h52.513z" />
<glyph unicode="&#xe91a;" glyph-name="chevron-right-thin" d="M696.076 441.905c0-5.283-2.032-9.956-6.095-14.019l-284.038-284.038c-4.064-4.064-8.736-6.095-14.019-6.095s-9.956 2.032-14.019 6.095l-30.476 30.476c-4.064 4.064-6.095 8.736-6.095 14.019s2.032 9.956 6.095 14.019l239.543 239.543-239.543 239.543c-4.064 4.064-6.095 8.736-6.095 14.019s2.032 9.956 6.095 14.019l30.476 30.476c4.064 4.064 8.736 6.095 14.019 6.095s9.956-2.032 14.019-6.095l284.038-284.038c4.064-4.064 6.095-8.736 6.095-14.019v0z" />
<glyph unicode="&#xe91b;" glyph-name="open-book" horiz-adv-x="1165" d="M564.245 786.075v0c0 66.082-46.808 105.931-103.049 105.931h-461.196l35.31 35.31v-894.529l-35.284 35.31c4.465-0.003 4.465-0.003 24.038-0.017 25.747-0.017 25.747-0.017 61.084-0.037 35.322-0.019 69.839-0.034 102.24-0.044 96.81-0.028 162.192-0.001 181.381 0.097 37.701 0.201 64.053-1.083 91.105-6.452 49.417-9.809 82.752-32.106 82.752-75.708 0-5.874-0.541-5.111 0.427-5.484 1.776-0.683 4.658-0.947 6.582-0.81-0.005 0.001-0.005 0.001-0.691-0.079l4.491 0.576 4.491-0.576c4.319-0.554 6.318 1.211 6.318 5.678v800.833zM599.555 786.075v0-800.833c0-25.71-20.648-43.968-46.12-40.702 0 0-46.12-5.914-46.12 41.397 0 46.851-98.725 47.062-138.359 46.851-47.369-0.243-368.957 0-368.957 0v894.529h461.196c60.819 0 138.359-42.557 138.359-141.241v0zM574.719 786.075v0-800.833c0-4.467 1.999-6.232 6.318-5.678l4.491 0.576 4.491-0.576c-0.685 0.080-0.685 0.080-0.691 0.079 1.924-0.137 4.806 0.127 6.582 0.81 0.968 0.372 0.427-0.391 0.427 5.484 0 43.602 33.335 65.899 82.752 75.708 27.052 5.37 53.405 6.653 91.099 6.452 19.195-0.099 84.577-0.125 181.388-0.097 32.401 0.009 66.917 0.024 102.24 0.044 35.337 0.020 35.337 0.020 61.084 0.037 19.572 0.014 19.572 0.014 24.038 0.017l-35.284-35.31v894.529l35.31-35.31h-461.196c-56.24 0-103.049-39.849-103.049-105.931v0zM539.409 786.075c0 98.684 77.54 141.241 138.359 141.241h461.196v-894.529c0 0-321.588-0.243-368.957 0-39.634 0.211-138.359 0-138.359-46.851 0-47.31-46.12-41.397-46.12-41.397-25.471-3.266-46.12 14.991-46.12 40.702v800.833z" />
<glyph unicode="&#xe91c;" glyph-name="book" d="M1008.246 694.857c15.754-23.631 19.692-51.2 11.815-78.769l-169.354-559.262c-7.877-27.569-23.631-47.262-47.262-66.954s-47.262-27.569-74.831-27.569h-567.138c-31.508 0-63.015 11.815-90.585 31.508-27.569 23.631-51.2 47.262-63.015 82.708-7.877 27.569-11.815 55.138 0 78.769 0 0 0 7.877 0 15.754s3.938 15.754 3.938 23.631c0 3.938 0 7.877 0 11.815s-3.938 7.877 0 11.815c0 3.938 3.938 7.877 3.938 11.815 3.938 3.938 3.938 7.877 11.815 15.754s7.877 11.815 11.815 15.754c3.938 19.692 11.815 39.385 19.692 59.077 7.877 23.631 15.754 39.385 19.692 55.138 0 3.938 0 11.815 0 19.692s0 15.754 0 15.754c0 3.938 3.938 11.815 11.815 15.754 3.938 7.877 7.877 11.815 11.815 15.754 3.938 15.754 15.754 35.446 23.631 59.077s11.815 39.385 15.754 55.138c0 3.938 0 11.815 0 19.692s0 15.754 0 15.754c0 3.938 7.877 11.815 11.815 19.692 7.877 7.877 11.815 11.815 11.815 15.754 7.877 7.877 15.754 27.569 27.569 51.2 7.877 23.631 15.754 43.323 15.754 59.077 0 3.938 0 7.877 0 15.754s-3.938 11.815 0 15.754c0 3.938 3.938 7.877 3.938 11.815s3.938 7.877 11.815 11.815c3.938 3.938 7.877 7.877 11.815 11.815 0 7.877 3.938 11.815 7.877 19.692s3.938 15.754 7.877 23.631c3.938 7.877 7.877 15.754 7.877 23.631 7.877 3.938 11.815 11.815 15.754 15.754s7.877 11.815 15.754 15.754c7.877 3.938 11.815 7.877 19.692 7.877s19.692 0 27.569-3.938v0c19.692 3.938 27.569 3.938 35.446 3.938h468.677c31.508 0 55.138-11.815 70.892-35.446s19.692-51.2 11.815-78.769l-169.354-559.262c-15.754-47.262-27.569-78.769-43.323-94.523s-39.385-19.692-78.769-19.692h-539.569c-11.815 0-19.692-3.938-23.631-7.877-3.938-7.877-3.938-15.754 0-27.569 7.877-27.569 39.385-43.323 86.646-43.323h567.138c11.815 0 23.631 3.938 35.446 7.877 11.815 7.877 19.692 15.754 19.692 23.631l185.108 606.523c3.938 7.877 3.938 19.692 3.938 35.446 19.692-3.938 31.508-11.815 39.385-23.631zM303.262 537.319c0-3.938 0-11.815 0-15.754 3.938-3.938 7.877-3.938 11.815-3.938h374.154c3.938 0 11.815 0 15.754 3.938s7.877 7.877 11.815 15.754l11.815 39.385c0 3.938 0 11.815 0 15.754-3.938 3.938-7.877 3.938-11.815 3.938h-374.154c-7.877 0-11.815 0-15.754-3.938-7.877-3.938-7.877-11.815-11.815-15.754l-11.815-39.385zM354.462 694.857c0-3.938 0-11.815 0-15.754 3.938-3.938 7.877-3.938 11.815-3.938h374.154c3.938 0 11.815 0 15.754 3.938s7.877 7.877 11.815 15.754l11.815 39.385c0 3.938 0 11.815 0 15.754-3.938 3.938-7.877 3.938-11.815 3.938h-374.154c-7.877 0-11.815 0-15.754-3.938-7.877-3.938-7.877-11.815-11.815-15.754l-11.815-39.385z" />
<glyph unicode="&#xe91d;" glyph-name="browser" d="M1024 749.714v-621.714c0-25.6-7.314-47.543-25.6-65.829s-40.229-25.6-65.829-25.6h-841.143c-25.6 0-47.543 7.314-65.829 25.6s-25.6 40.229-25.6 65.829v621.714c0 25.6 7.314 47.543 25.6 65.829s40.229 25.6 65.829 25.6h841.143c25.6 0 47.543-7.314 65.829-25.6s25.6-40.229 25.6-65.829zM950.857 128v475.429c0 3.657 0 10.971-3.657 14.629s-10.971 3.657-14.629 3.657h-841.143c-3.657 0-10.971 0-14.629-3.657s-3.657-10.971-3.657-14.629v-475.429c0-3.657 0-10.971 3.657-14.629s10.971-3.657 14.629-3.657h841.143c3.657 0 10.971 0 14.629 3.657s3.657 10.971 3.657 14.629zM219.429 530.286v-36.571c0-3.657 0-10.971-3.657-14.629s-10.971-3.657-14.629-3.657h-36.571c-3.657 0-10.971 0-14.629 3.657s-3.657 10.971-3.657 14.629v36.571c0 3.657 0 10.971 3.657 14.629s10.971 3.657 14.629 3.657h36.571c3.657 0 10.971 0 14.629-3.657s3.657-10.971 3.657-14.629zM219.429 384v-36.571c0-3.657 0-10.971-3.657-14.629s-10.971-3.657-14.629-3.657h-36.571c-3.657 0-10.971 0-14.629 3.657s-3.657 10.971-3.657 14.629v36.571c0 3.657 0 10.971 3.657 14.629s10.971 3.657 14.629 3.657h36.571c3.657 0 10.971 0 14.629-3.657s3.657-10.971 3.657-14.629zM219.429 237.714v-36.571c0-3.657 0-10.971-3.657-14.629s-10.971-3.657-14.629-3.657h-36.571c-3.657 0-10.971 0-14.629 3.657s-3.657 10.971-3.657 14.629v36.571c0 3.657 0 10.971 3.657 14.629s10.971 3.657 14.629 3.657h36.571c3.657 0 10.971 0 14.629-3.657s3.657-10.971 3.657-14.629zM877.714 530.286v-36.571c0-3.657 0-10.971-3.657-14.629s-10.971-3.657-14.629-3.657h-548.571c-3.657 0-10.971 0-14.629 3.657s-3.657 10.971-3.657 14.629v36.571c0 3.657 0 10.971 3.657 14.629s10.971 3.657 14.629 3.657h548.571c3.657 0 10.971 0 14.629-3.657s3.657-10.971 3.657-14.629zM877.714 384v-36.571c0-3.657 0-10.971-3.657-14.629s-10.971-3.657-14.629-3.657h-548.571c-3.657 0-10.971 0-14.629 3.657s-3.657 10.971-3.657 14.629v36.571c0 3.657 0 10.971 3.657 14.629s10.971 3.657 14.629 3.657h548.571c3.657 0 10.971 0 14.629-3.657s3.657-10.971 3.657-14.629zM877.714 237.714v-36.571c0-3.657 0-10.971-3.657-14.629s-10.971-3.657-14.629-3.657h-548.571c-3.657 0-10.971 0-14.629 3.657s-3.657 10.971-3.657 14.629v36.571c0 3.657 0 10.971 3.657 14.629s10.971 3.657 14.629 3.657h548.571c3.657 0 10.971 0 14.629-3.657s3.657-10.971 3.657-14.629z" />
<glyph unicode="&#xe91e;" glyph-name="bullet-list" d="M369.179 767.615h652.126v-40.421h-652.126v40.421zM369.179 560.12h652.126v-40.421h-652.126v40.421zM369.179 355.32h652.126v-40.421h-652.126v40.421zM369.179 150.52h652.126v-40.421h-652.126v40.421zM218.274 732.583v-175.158h-172.463v175.158h172.463zM261.389 773.004h-258.695v-258.695h256v258.695h2.695zM218.274 320.289v-175.158h-172.463v175.158h172.463zM261.389 360.71h-258.695v-258.695h256v258.695h2.695z" />
<glyph unicode="&#xe91f;" glyph-name="check-box" d="M866.462 379.78v-196.923c0-47.262-15.754-90.585-51.2-126.031s-74.831-51.2-126.031-51.2h-512c-47.262 0-90.585 15.754-126.031 51.2s-51.2 78.769-51.2 126.031v512c0 47.262 15.754 90.585 51.2 126.031s78.769 51.2 126.031 51.2h512c27.569 0 51.2-3.938 70.892-15.754 7.877-3.938 7.877-7.877 11.815-15.754 0-7.877 0-11.815-3.938-19.692l-31.508-27.569c-3.938-3.938-7.877-7.877-15.754-7.877 0 0-3.938 0-3.938 0-7.877 7.877-19.692 7.877-27.569 7.877h-512c-27.569 0-51.2-7.877-70.892-27.569s-27.569-43.323-27.569-70.892v-512c0-27.569 7.877-51.2 27.569-70.892s43.323-27.569 70.892-27.569h512c27.569 0 51.2 7.877 70.892 27.569s27.569 43.323 27.569 70.892v157.538c0 3.938 0 7.877 3.938 11.815l39.385 39.385c3.938 3.938 7.877 7.877 15.754 7.877 3.938 0 3.938 0 7.877 0 7.877-7.877 11.815-11.815 11.815-19.692zM1008.246 679.103l-500.185-500.185c-11.815-11.815-23.631-15.754-35.446-15.754s-23.631 3.938-35.446 15.754l-263.877 263.877c-11.815 11.815-15.754 23.631-15.754 35.446s3.938 23.631 15.754 35.446l66.954 66.954c11.815 11.815 23.631 15.754 35.446 15.754s23.631-3.938 35.446-15.754l161.477-161.477 397.785 397.785c11.815 11.815 23.631 15.754 35.446 15.754s23.631-3.938 35.446-15.754l66.954-66.954c11.815-11.815 15.754-23.631 15.754-35.446s-3.938-23.631-15.754-35.446z" />
<glyph unicode="&#xe920;" glyph-name="discussion-bubble-o" d="M134.4 26.057c-22.4 0-38.4 16-44.8 35.2v3.2c-3.2 19.2 9.6 32 16 41.6l3.2 3.2c6.4 6.4 9.6 9.6 12.8 16 25.6 28.8 51.2 54.4 73.6 115.2-108.8 67.2-172.8 163.2-172.8 265.6 0 188.8 217.6 345.6 489.6 345.6s489.6-156.8 489.6-348.8c0-192-220.8-348.8-489.6-348.8-22.4 0-44.8 0-70.4 3.2-70.4-57.6-150.4-99.2-243.2-121.6-19.2-6.4-38.4-9.6-60.8-12.8l-3.2 3.2zM131.2 67.657c0 0 0 0 0 0 22.4 0 41.6 3.2 57.6 9.6 89.6 22.4 166.4 60.8 233.6 118.4l6.4 6.4h9.6c25.6-3.2 51.2-3.2 73.6-3.2 246.4 0 448 137.6 448 307.2s-201.6 307.2-448 307.2-448-140.8-448-310.4c0-92.8 60.8-179.2 166.4-236.8l16-9.6-3.2-16c-22.4-80-57.6-115.2-86.4-147.2-3.2-3.2-9.6-9.6-12.8-12.8l-3.2-3.2c-6.4 0-9.6-6.4-9.6-9.6v0 0zM278.4 416.457c-44.8 0-83.2 35.2-83.2 80s38.4 80 83.2 80c44.8 0 83.2-35.2 83.2-80s-38.4-80-83.2-80v0zM278.4 557.257c-35.2 0-60.8-25.6-60.8-60.8s28.8-60.8 60.8-60.8 60.8 25.6 60.8 60.8-28.8 60.8-60.8 60.8v0zM492.8 416.457c-44.8 0-83.2 35.2-83.2 80s38.4 80 83.2 80c44.8 0 83.2-35.2 83.2-80s-35.2-80-83.2-80v0zM492.8 557.257c-35.2 0-60.8-25.6-60.8-60.8s28.8-60.8 60.8-60.8 60.8 25.6 60.8 60.8-25.6 60.8-60.8 60.8v0zM704 416.457c-44.8 0-83.2 35.2-83.2 80s38.4 80 83.2 80c44.8 0 83.2-35.2 83.2-80s-38.4-80-83.2-80v0zM704 557.257c-35.2 0-60.8-25.6-60.8-60.8 0-32 28.8-60.8 60.8-60.8 35.2 0 60.8 25.6 60.8 60.8s-28.8 60.8-60.8 60.8v0z" />
<glyph unicode="&#xe921;" glyph-name="question-circle-o" d="M512-54.28c-272.168 0-493.137 220.968-493.137 493.137s220.968 493.137 493.137 493.137 493.137-220.968 493.137-493.137-220.968-493.137-493.137-493.137zM512 891.573c-247.916 0-452.716-204.8-452.716-452.716s204.8-452.716 452.716-452.716 452.716 204.8 452.716 452.716-204.8 452.716-452.716 452.716zM455.411 565.51c18.863 18.863 43.116 29.642 75.453 29.642 29.642 0 53.895-8.084 72.758-24.253s26.947-37.726 26.947-64.674c0-16.168-2.695-29.642-10.779-37.726s-18.863-24.253-40.421-43.116c-13.474-13.474-24.253-26.947-29.642-35.032-5.389-10.779-5.389-24.253-5.389-43.116h-40.421c0 21.558 2.695 37.726 8.084 51.2s16.168 26.947 35.032 45.811l18.863 18.863c5.389 5.389 10.779 10.779 13.474 16.168 5.389 10.779 8.084 18.863 8.084 29.642 0 13.474-5.389 26.947-13.474 37.726s-24.253 16.168-43.116 16.168c-24.253 0-43.116-8.084-53.895-26.947-5.389-10.779-8.084-24.253-8.084-45.811h-40.421c-2.695 29.642 8.084 53.895 26.947 75.453zM503.916 306.815h45.811v-45.811h-45.811v45.811z" />
<glyph unicode="&#xe922;" glyph-name="math" horiz-adv-x="1103" d="M388.513 233.801h-342.042v-292.774h994.53v298.915h-337.683v348.204h-314.805v-354.345zM467.282 509.376h157.267v-348.204h337.683v-141.377h-836.991v135.236h342.042v354.345zM119.65 855.137v-490.563h141.585v490.563h-141.585zM340.004 933.907v-648.101h-299.124v648.101zM395.1 675.682v-39.385h344.393v-348.527h295.36v645.203l-639.753-0.438v-256.854zM473.869 854.178h482.214v-487.638h-137.821v348.527h-344.393v139.111z" />
<glyph unicode="&#xe923;" glyph-name="business" horiz-adv-x="1152" d="M0 422.857v0l64 64v-481.152c0 9.568-7.52 17.152-17.408 17.152h1058.816c-9.76 0-17.408-7.68-17.408-17.152v481.152l64-64h-1152zM0 486.857h1152v-481.152c0-25.888-20.992-46.848-46.592-46.848h-1058.816c-25.728 0-46.592 21.344-46.592 46.848v481.152zM64 711.913v0-312.224l-64 64h1152l-64-64v312.224c0-9.472 7.488-17.056 17.408-17.056h-1058.816c9.792 0 17.408 7.68 17.408 17.056v0zM0 711.913c0 25.92 20.992 46.944 46.592 46.944h1058.816c25.728 0 46.592-21.376 46.592-46.944v-312.224h-1152v312.224zM400 809.097v0-98.24l-64 64h480l-64-64v98.24c0 15.904-13.92 29.76-30.848 29.76h-290.336c-17.12 0-30.848-13.536-30.848-29.76v0zM336 809.097c0 51.776 42.592 93.76 94.848 93.76h290.336c52.384 0 94.848-42.624 94.848-93.76v-98.24h-480v98.24zM240 534.857h96v-256h-96v256zM816 534.857h96v-256h-96v256z" />
<glyph unicode="&#xe924;" glyph-name="data_science" d="M186.624 389.097l145.76 218.624-53.248 35.488-163.488-245.248 53.248-35.488zM512.768 719.913l134.944-607.232 62.464 13.888-141.888 638.464-62.464-13.888zM389.664 685.961l82.816 77.344-43.68 46.784-82.816-77.344zM789.056 104.297l127.456 279.104-58.208 26.592-127.456-279.104zM99.488 255.145c51.488 0 93.6 40.832 93.6 91.712s-42.112 91.712-93.6 91.712c-51.488 0-93.6-40.832-93.6-91.712s42.112-91.712 93.6-91.712v0zM99.488 319.145c-16.576 0-29.6 12.64-29.6 27.712s13.024 27.712 29.6 27.712c16.576 0 29.6-12.64 29.6-27.712s-13.024-27.712-29.6-27.712v0zM304.8 573.609c51.488 0 93.6 40.832 93.6 91.712s-42.112 91.712-93.6 91.712c-51.488 0-93.6-40.832-93.6-91.712s42.112-91.712 93.6-91.712v0zM304.8 637.609c-16.576 0-29.6 12.64-29.6 27.712s13.024 27.712 29.6 27.712c16.576 0 29.6-12.64 29.6-27.712s-13.024-27.712-29.6-27.712v0zM510.112 732.841c51.488 0 93.6 40.832 93.6 91.712s-42.112 91.712-93.6 91.712c-51.488 0-93.6-40.832-93.6-91.712s42.112-91.712 93.6-91.712v0zM510.112 796.841c-16.576 0-29.6 12.64-29.6 27.712s13.024 27.712 29.6 27.712c16.576 0 29.6-12.64 29.6-27.712s-13.024-27.712-29.6-27.712v0zM715.456-23.479c51.488 0 93.6 40.832 93.6 91.712s-42.112 91.712-93.6 91.712c-51.488 0-93.6-40.832-93.6-91.712s42.112-91.712 93.6-91.712v0zM715.456 40.521c-16.576 0-29.6 12.64-29.6 27.712s13.024 27.712 29.6 27.712c16.576 0 29.6-12.64 29.6-27.712s-13.024-27.712-29.6-27.712v0zM920.768 374.569c51.488 0 93.6 40.832 93.6 91.712s-42.112 91.712-93.6 91.712c-51.488 0-93.6-40.832-93.6-91.712s42.112-91.712 93.6-91.712v0zM920.768 438.569c-16.576 0-29.6 12.64-29.6 27.712s13.024 27.712 29.6 27.712c16.576 0 29.6-12.64 29.6-27.712s-13.024-27.712-29.6-27.712v0z" />
<glyph unicode="&#xe925;" glyph-name="language1" horiz-adv-x="1344" d="M634.176 452.521c29.408 0 53.472 23.552 53.472 52.384v393.568c0 28.832-24.032 52.384-53.472 52.384h-580.672c-29.408 0-53.472-23.552-53.472-52.384v-393.568c0-28.832 24.032-52.384 53.472-52.384h93.472l1.056-139.2 95.488 139.2h390.656zM355.2 788.425c-3.072 1.088-6.72 2.912-11.040 5.408-4.256 2.4-8.8 5.344-13.6 8.64s-9.696 6.944-14.624 10.912c-4.992 3.936-9.632 7.968-14.048 12s-8.352 7.968-11.872 11.84c-3.424 3.808-6.112 7.392-7.904 10.592l32.32 29.024h0.224l60.096-71.968-19.328-16.448h-0.224zM254.464 619.753c0 8.352 1.504 15.648 4.544 22.016s7.168 12 12.48 16.736c5.376 4.832 11.584 8.928 18.816 12.288 7.168 3.36 14.944 6.080 23.296 8.352 8.288 2.112 17.024 3.744 25.984 4.768 9.024 1.024 18.080 1.6 27.104 1.824v8.032c0 12.8-2.688 21.856-8 27.296s-13.952 8.128-26.144 8.128c-6.112 0-12.32-0.448-18.592-1.376-6.208-0.96-12.16-2.112-17.856-3.584-5.76-1.312-11.040-2.912-15.904-4.672-4.768-1.696-8.96-3.36-12.384-4.896h-0.16l-10.080 22.464c2.4 1.888 6.432 4.384 12.096 7.456 5.76 3.072 12.608 6.080 20.608 8.992s16.8 5.408 26.496 7.52c9.696 2.112 19.712 3.232 30.016 3.232 12.704 0 23.456-1.376 32.256-4.032 8.896-2.72 16.064-6.816 21.568-12.448 5.6-5.632 9.632-12.64 12.16-21.216 2.624-8.544 3.872-18.656 3.872-30.272v-104.736h21.216v-20.64c-2.176-0.448-4.864-1.024-8-1.824-3.2-0.672-6.784-1.312-10.688-1.984-3.872-0.576-8-1.184-12.48-1.6s-9.024-0.672-13.728-0.672c-4.096 0-7.616 0.16-10.528 0.512s-5.216 1.088-7.008 2.336c-1.728 1.248-3.072 3.008-3.808 5.344-0.832 2.272-1.28 5.344-1.28 9.28v9.728c-1.856-2.56-4.544-5.408-8-8.544s-7.616-6.144-12.48-8.928c-4.864-2.784-10.368-5.12-16.512-6.944-6.208-1.824-12.992-2.784-20.384-2.784-8.128 0-15.744 1.088-22.784 3.232-7.104 2.112-13.28 5.408-18.592 9.888s-9.568 10.176-12.608 17.12c-3.072 6.944-4.64 15.2-4.64 24.64zM335.872 597.321c2.080 0 4.416 0.288 7.008 0.8 2.624 0.576 5.376 1.376 8.224 2.4 2.912 0.96 5.664 2.208 8.448 3.584 2.688 1.376 5.088 3.008 7.168 4.768v55.584c-11.040 0-20.384-1.024-27.84-3.072-7.456-1.984-13.44-4.672-17.92-8.032-4.416-3.36-7.616-7.168-9.472-11.552s-2.848-8.992-2.848-13.888c0-10.016 2.304-17.568 6.944-22.816 4.64-5.12 11.424-7.744 20.32-7.744v0zM638.048 121.929h390.656l-30.976 16.16 95.488-139.2c20.48-29.856 68.032-15.84 68.32 20.128l1.056 139.2-37.344-36.288h93.472c50.048 0 90.784 39.936 90.784 88.928v393.568c0 49.024-40.768 88.928-90.784 88.928h-580.672c-50.048 0-90.784-39.936-90.784-88.928v-393.568c0-49.024 40.768-88.928 90.784-88.928v0zM638.048 195.081c-8.8 0-16.128 7.168-16.128 15.808v393.568c0 8.608 7.328 15.808 16.128 15.808h580.672c8.8 0 16.128-7.168 16.128-15.808v-393.568c0-8.608-7.328-15.808-16.128-15.808h-93.472c-20.512 0-37.184-16.224-37.344-36.288l-1.056-139.2 68.32 20.128-95.488 139.2c-6.944 10.112-18.56 16.16-30.976 16.16h-390.656zM915.488 494.473l-51.072 66.912 17.984 14.272 49.888-40.896 50.336 41.12 17.696-14.272-51.456-67.136h-33.376zM838.56 290.409l93.024 128.352 21.888 23.488-61.984-2.496-7.392-31.904h-29.632v57.92h153.888l8-16.16-90.432-129.536-21.568-23.488 71.904 4.032 13.728 36.288 28.288-2.72-5.152-60.768h-165.984l-8.576 16.96z" />
<glyph unicode="&#xe926;" glyph-name="life_science" horiz-adv-x="1088" d="M275.296 874.153c227.008-155.456 339.264-300.96 358.368-434.304l19.584 32.608c-147.104-53.152-225.76-157.472-215.136-314.944l57.856 13.6c-16.8 40.288-32.416 73.312-49.088 104.64-9.824 18.464-40.448 72.352-38.048 68.032-14.080 25.312-23.712 45.312-33.28 70.208-5.92 15.392-11.648 32.352-17.376 51.68l-47.328 159.584-11.584-166.048c-5.28-75.552-3.648-132.928 4.96-192.032 4.256-29.152 10.208-59.040 19.136-97.504 5.44-23.488 30.304-124.96 28.416-117.184l37.888 35.936c-112.48 33.632-209.632 95.232-256.736 190.784-68.576 139.168-21.28 335.744 183.232 601.44l-40.896-6.464zM309.312 923.849l-23.52 16.096-17.376-22.592c-217.12-282.112-269.952-501.632-189.536-664.832 56.16-113.92 166.528-183.904 293.504-221.888l50.24-15.040-12.352 50.976c-46.752 192.96-39.616 162.272-46.496 209.248-7.968 54.624-9.472 107.712-4.48 179.136l-58.912-6.464c6.176-20.8 12.384-39.264 18.88-56.16 10.688-27.776 21.504-50.24 36.864-77.856-2.016 3.648 28.16-49.472 37.504-67.040 15.776-29.664 30.592-60.992 46.656-99.552l70.112-168.288-12.288 181.92c-8.704 128.864 52.288 209.728 175.52 254.24l23.040 8.32-3.488 24.256c-21.856 152.64-144.288 311.36-383.968 475.488v0zM1010.944 420.841c6.912-217.696-38.304-344.768-119.776-400.448-57.632-39.392-131.648-41.792-209.536-19.744l18.624-42.656c9.888 19.424 18.208 37.536 26.336 56.832 4.928 11.744 21.76 53.856 18.176 45.024 4.096 10.112 7.392 17.92 10.784 25.408 13.248 29.024 28.8 53.888 54.656 85.248l101.824 123.52-139.744-78.080c-32.576-18.208-56.864-34.304-77.312-51.168-14.432-11.904-27.008-24.192-40.64-39.328-7.712-8.544-53.728-63.488-72.384-84.256l50.784-10.016c-27.168 76.224-33.12 155.68-0.544 220.192 47.68 94.432 174.912 147.872 407.84 140.32l-29.12 29.152zM1071.168 422.761l-0.896 28.224-28.224 0.928c-254.016 8.224-403.616-54.56-463.584-173.376-41.664-82.56-34.592-177.312-2.4-267.584l16.992-47.648 33.792 37.664c19.552 21.792 65.536 76.672 72.32 84.192 11.776 13.088 22.272 23.328 34.208 33.184 17.408 14.368 38.72 28.512 68.352 45.056l-37.92 45.44c-29.184-35.424-47.552-64.736-62.976-98.56-3.84-8.384-7.456-16.992-11.84-27.84 3.36 8.288-13.184-33.088-17.856-44.224-7.584-18.016-15.296-34.784-24.48-52.864l-16.64-32.672 35.264-9.984c93.376-26.432 184.672-23.456 259.936 27.968 101.312 69.248 153.504 215.84 146.016 452.096v0z" />
</font>
</defs>
</svg>
