<?xml version="1.0" encoding="utf-8"?>
<!-- Generator: Adobe Illustrator 17.1.0, SVG Export Plug-In . SVG Version: 6.00 Build 0)  -->
<!DOCTYPE svg PUBLIC "-//W3C//DTD SVG 1.1//EN" "http://www.w3.org/Graphics/SVG/1.1/DTD/svg11.dtd">
<svg version="1.1" id="Layer_1" xmlns="http://www.w3.org/2000/svg" xmlns:xlink="http://www.w3.org/1999/xlink" x="0px" y="0px"
	 width="250px" height="107px" viewBox="0 0 250 107" enable-background="new 0 0 250 107" xml:space="preserve">
<g>
	<g>
		<g>
			<path fill="#FFFFFF" d="M237.5,7.1H237V6.3h1.8v0.8h-0.5v2.8h-0.8V7.1z M238.9,6.3h1l0.4,1.2l0.4,1.5l0.4-1.5l0.4-1.2h0.9v3.6
				h-0.8V8l-0.2,0.9l-0.3,1h-0.8l-0.3-1l-0.4-1v2h-0.7L238.9,6.3L238.9,6.3z"/>
		</g>
	</g>
</g>
<g>
	<path fill="#FFFFFF" d="M106.4,31.4c0-13.8-11.6-25-26-25l0,0c-1.3,0-2.7,0.1-4,0.3l0,0c-11.1,1.6-18.6,9.6-22.7,15.7l0,0
		C49.5,16.3,42.1,8.3,31,6.7l0,0c-1.3-0.2-2.7-0.3-4-0.3l0,0c-14.3,0-26,11.2-26,25l0,0c0,13.8,11.6,25,25.9,25l0,0
		c1.3,0,2.7-0.1,4-0.3l0,0c11.1-1.6,18.6-9.6,22.7-15.7l0,0c4.2,6.1,11.6,14.1,22.7,15.7l0,0c1.3,0.2,2.7,0.3,4,0.3l0,0
		C94.8,56.5,106.4,45.3,106.4,31.4L106.4,31.4z M29.7,47.4c-0.9,0.1-1.8,0.2-2.7,0.2l0,0c-9.4,0-17.1-7.3-17.1-16.2l0,0
		c0-8.9,7.7-16.2,17.1-16.2l0,0c0.9,0,1.8,0.1,2.7,0.2l0,0c10.5,1.5,16.9,11.8,19.1,16l0,0C46.6,35.6,40.2,45.9,29.7,47.4L29.7,47.4
		z M58.6,31.4c2.2-4.1,8.6-14.5,19.1-16l0,0c0.9-0.1,1.8-0.2,2.7-0.2l0,0c9.4,0,17.1,7.3,17.1,16.2l0,0c0,8.9-7.7,16.2-17.1,16.2
		l0,0c-0.9,0-1.8-0.1-2.7-0.2l0,0C67.2,45.9,60.8,35.6,58.6,31.4L58.6,31.4z"/>
	<polygon fill="#FFFFFF" points="19.8,34 35.4,34 35.4,34 35.4,29 35.4,29 19.8,29 19.8,29 	"/>
	<polygon fill="#FFFFFF" points="82.2,34 87.4,34 87.4,34 87.4,29 87.4,29 82.2,29 82.2,29 82.2,23.7 82.2,23.7 77.1,23.7 
		77.1,23.7 77.1,29 77.1,29 71.9,29 71.9,29 71.9,34 71.9,34 77.1,34 77.1,34 77.1,39.3 77.1,39.3 82.2,39.3 82.2,39.3 	"/>
	<path fill="#FFFFFF" d="M8.4,63.9L3.9,78.4l0,0h3.7l0,0l0.7-3l0,0h4.2l0,0l0.8,3l0,0h3.8l0,0l-4.6-14.5l0,0H8.4L8.4,63.9z M9,72.7
		l1.3-5.3l0,0l1.4,5.3l0,0H9L9,72.7z"/>
	<path fill="#FFFFFF" d="M30.7,68.8c0-2.8-1.5-4.8-5.5-4.8l0,0h-5.8l0,0v14.5l0,0H23l0,0v-4.6l0,0h1.8l0,0l2.2,4.6l0,0h4.2l0,0
		l-2.8-5.3l0,0C29.9,72.3,30.7,70.7,30.7,68.8L30.7,68.8z M24.8,70.9h-1.9l0,0v-4.1l0,0h1.8l0,0c1.7,0,2.1,0.6,2.1,1.9l0,0
		C26.9,70.4,26.1,70.9,24.8,70.9L24.8,70.9z"/>
	<path fill="#FFFFFF" d="M38.4,63.9h-4.7l0,0v14.5l0,0h4.8l0,0c6.2,0,7.2-4,7.2-7.4l0,0C45.6,66.5,43.8,63.9,38.4,63.9L38.4,63.9z
		 M38.6,75.4h-1.4l0,0v-8.6l0,0h1l0,0c3.2,0,3.5,1.5,3.5,4.3l0,0C41.8,73.6,41.5,75.4,38.6,75.4L38.6,75.4z"/>
	<path fill="#FFFFFF" d="M56.2,72.8c0,2.2-0.6,2.9-2.2,2.9l0,0c-1.4,0-2.2-0.6-2.2-3l0,0v-8.8l0,0h-3.6l0,0v9.5l0,0
		c0,4.4,3.2,5.2,5.6,5.2l0,0c2.6,0,5.8-0.9,5.8-5.2l0,0v-9.5l0,0h-3.5l0,0L56.2,72.8C56.1,72.8,56.2,72.8,56.2,72.8z"/>
	<polygon fill="#FFFFFF" points="62.9,66.9 66.6,66.9 66.6,66.9 66.6,75.4 66.6,75.4 62.9,75.4 62.9,75.4 62.9,78.4 62.9,78.4 
		74,78.4 74,78.4 74,75.4 74,75.4 70.2,75.4 70.2,75.4 70.2,66.9 70.2,66.9 74,66.9 74,66.9 74,63.9 74,63.9 62.9,63.9 62.9,63.9 	
		"/>
	<polygon fill="#FFFFFF" points="85.6,72.6 80.9,63.9 80.9,63.9 76.9,63.9 76.9,63.9 76.9,78.4 76.9,78.4 80.3,78.4 80.3,78.4 
		80.3,69.1 80.3,69.1 85.3,78.4 85.3,78.4 88.9,78.4 88.9,78.4 88.9,63.9 88.9,63.9 85.6,63.9 85.6,63.9 	"/>
	<path fill="#FFFFFF" d="M97.4,63.7c-4.4,0-6.1,3.2-6.1,7.6l0,0c0,4.8,1.9,7.3,6.1,7.3l0,0c4.7,0,6.2-3.3,6.2-7.5l0,0
		C103.6,65.6,101.5,63.7,97.4,63.7L97.4,63.7z M97.4,75.7c-2.1,0-2.3-1.5-2.3-4.4l0,0c0-3.5,0.3-4.7,2.3-4.7l0,0
		c2.1,0,2.4,1,2.4,4.5l0,0C99.8,74.5,99.5,75.7,97.4,75.7L97.4,75.7z"/>
</g>
<g enable-background="new    ">
	<path fill="#FFFFFF" d="M107.6,9.6c0,1.6-1.2,2.8-2.9,2.8c-1.6,0-2.9-1.2-2.9-2.8c0-1.5,1.3-2.8,2.9-2.8S107.6,8.1,107.6,9.6z
		 M102.6,9.6c0,1.2,0.9,2.2,2.2,2.2c1.2,0,2.1-1,2.1-2.2s-0.9-2.2-2.1-2.2C103.5,7.4,102.6,8.4,102.6,9.6z M104.3,11.1h-0.6V8.3
		c0.3-0.1,0.6-0.1,1.1-0.1s0.8,0.1,1,0.2c0.2,0.1,0.3,0.3,0.3,0.6s-0.2,0.5-0.6,0.6l0,0c0.3,0.1,0.4,0.3,0.5,0.7s0.1,0.6,0.2,0.7
		h-0.7c-0.1-0.1-0.1-0.4-0.2-0.7s-0.2-0.4-0.6-0.4h-0.3v1.2H104.3z M104.3,9.5h0.3c0.4,0,0.6-0.1,0.6-0.4c0-0.3-0.2-0.4-0.6-0.4
		c-0.2,0-0.3,0-0.4,0L104.3,9.5L104.3,9.5z"/>
</g>
<line opacity="0.69" fill="none" stroke="#FFFFFF" stroke-miterlimit="10" enable-background="new    " x1="119.3" y1="6.4" x2="119.3" y2="81.9"/>
<path fill="#FFFFFF" d="M133.5,6.3v23.2h23.2V6.3H133.5z M152.3,20.2h-4.8V25h-4.6v-4.8h-4.8v-4.6h4.8v-4.8h4.6v4.8h4.8L152.3,20.2
	L152.3,20.2z"/>
<path fill="#FFFFFF" d="M211.6,6.3v23.2h23.2V6.3H211.6z M230.4,20.2h-14.3v-4.6h14.2v4.6H230.4z"/>
<path fill="#FFFFFF" d="M159.6,6.3v23.2h23.2V6.3H159.6z M171.2,23.4c-5.1,0-9.2-5.5-9.2-5.5s4.1-5.5,9.2-5.5c5.1,0,9.2,5.5,9.2,5.5
	S176.3,23.4,171.2,23.4z"/>
<circle fill="#FFFFFF" cx="171.2" cy="17.9" r="2.5"/>
<path fill="#FFFFFF" d="M185.6,6.3v23.2h23.2V6.3H185.6z M198.7,21.3l-3.2,3.2l-3.2-3.2L189,18l3.2-3.2l3.3,3.3l6.8-6.8l3.2,3.2
	L198.7,21.3z"/>
<g>
	<path fill="#FFFFFF" d="M145.3,44.9v6.2c-1.7,0.9-3.4,1.4-5.1,1.4c-4.6,0-6.7-2.8-6.7-7.7c0-5.2,3.2-7.6,7.5-7.6
		c1.6,0,2.7,0.3,4.3,1l-1.3,3.3c-1.2-1-2-1.3-3.2-1.3c-2.2,0-3.4,1.2-3.4,4.6c0,3.5,1.3,4.8,3.5,4.8c0.3,0,0.5,0,0.7,0V45
		L145.3,44.9L145.3,44.9z"/>
	<path fill="#FFFFFF" d="M158.9,48.4l0.9,2.8c-1.5,0.8-2.8,1.3-5,1.3c-3,0-6-1.6-6-5.9c0-3.6,2.6-5.7,5.6-5.7c3.1,0,5.5,1.5,5.5,6
		c0,0.3,0,0.5,0,0.8h-7.2c0.4,1.7,1.8,2,3.1,2C156.6,49.7,157.9,49.2,158.9,48.4z M156.2,45.4c0.1-1.5-0.8-2-1.7-2
		c-1.2,0-1.8,0.5-2,2H156.2z"/>
	<path fill="#FFFFFF" d="M167.5,52.3h-3.7V41.2h3.3l0.1,1.6c1.1-1.4,2.6-2,4-2c2,0,3.7,1.1,3.7,3.9v7.5h-3.7V46
		c0-1.5-0.7-1.8-1.5-1.8s-1.7,0.5-2.3,1.2L167.5,52.3L167.5,52.3z"/>
	<path fill="#FFFFFF" d="M186.2,41.2h3.7v11.1h-3.2l-0.2-1.7c-1.1,1.4-2.5,2-3.9,2c-2,0-3.7-0.8-3.7-3.9v-7.4h3.7v6.4
		c0,1.6,0.6,1.8,1.3,1.8c0.8,0,1.8-0.7,2.4-1.4v-6.9C186.3,41.2,186.2,41.2,186.2,41.2z"/>
	<path fill="#FFFFFF" d="M194,49.4h3.4V44H194v-2.8h7v8.2h3.5v2.8H194V49.4z M199.2,35.6c1.1,0,2,0.9,2,2s-0.9,2-2,2s-2-0.9-2-2
		S198.1,35.6,199.2,35.6z"/>
	<path fill="#FFFFFF" d="M212.3,52.3h-3.7V41.2h3.3l0.1,1.6c1.1-1.4,2.6-2,4-2c2,0,3.7,1.1,3.7,3.9v7.5h-3.6V46
		c0-1.5-0.7-1.8-1.5-1.8s-1.7,0.5-2.3,1.2V52.3z"/>
	<path fill="#FFFFFF" d="M229.2,40.9c3.9,0,6,2.4,6,5.8c0,3.2-2.2,5.8-6,5.8c-3.7,0-6.1-2.2-6.1-5.8
		C223.1,43.4,225.5,40.9,229.2,40.9z M229.1,49.7c1.8,0,2.3-0.9,2.3-3c0-1.6-0.4-2.9-2.3-2.9c-1.6,0-2.1,1.1-2.1,2.9
		C227,48.7,227.7,49.7,229.1,49.7z"/>
</g>
<g>
	<rect x="3.9" y="85" fill="#008083" width="102.5" height="14.8"/>
	<g>
		<path fill="#FFFFFF" d="M37.7,89.8h0.8v3.4c0,1.3-0.9,2-2.2,2s-2.2-0.6-2.2-2v-3.5h1V93c0,1.1,0.4,1.4,1.3,1.4s1.3-0.4,1.3-1.4
			V89.8z"/>
		<path fill="#FFFFFF" d="M43,93.8c0-1.2-2.5-0.9-2.5-2.6c0-0.9,0.7-1.5,1.7-1.5c0.6,0,1.1,0.1,1.5,0.4l-0.3,0.8
			c-0.2-0.2-0.8-0.5-1.2-0.5c-0.5,0-0.9,0.2-0.9,0.7c0,1.1,2.5,0.8,2.5,2.6c0,0.9-0.8,1.5-1.9,1.5c-0.6,0-1.2-0.2-1.7-0.5l0.3-0.8
			c0.3,0.3,0.9,0.6,1.4,0.6C42.5,94.5,43,94.2,43,93.8z"/>
		<path fill="#FFFFFF" d="M45.1,95.1l1.9-5.4h1l1.9,5.4H49l-0.5-1.3h-2.1L46,95.1H45.1z M47.9,92l-0.4-1.4L47,92l-0.4,1.1h1.6
			L47.9,92z"/>
		<path fill="#FFFFFF" d="M59.7,92.4c0,1.6-1,2.8-2.5,2.8c-1.6,0-2.5-1-2.5-2.7c0-1.6,1-2.8,2.5-2.8C58.7,89.7,59.7,90.6,59.7,92.4z
			 M58.7,92.4c0-1.4-0.5-2-1.6-2s-1.6,0.7-1.6,2.1c0,1.3,0.4,2,1.6,2C58.2,94.5,58.7,93.7,58.7,92.4z"/>
		<path fill="#FFFFFF" d="M62.4,95.1h-0.8v-5.4h0.9l1.8,2.7l0.9,1.4v-1.3v-2.8h0.9v5.4h-0.9l-1.9-2.7L62.4,91v1.4V95.1z"/>
		<path fill="#FFFFFF" d="M69.1,89.8v4.6h2.3v0.8h-3.1v-5.4H69.1z"/>
		<path fill="#FFFFFF" d="M74.1,92.3l0.6-1.3l0.6-1.3h0.9L74.5,93v2.1h-0.9V93l-1.8-3.3h0.9l0.7,1.3L74.1,92.3z"/>
	</g>
</g>
<rect x="133.5" y="58.6" fill="#008083" width="101.1" height="14.8"/>
<g>
	<path fill="#FFFFFF" d="M161.1,66c0,1.6-1,2.8-2.5,2.8c-1.6,0-2.5-1-2.5-2.7c0-1.6,1-2.8,2.5-2.8C160.2,63.2,161.1,64.2,161.1,66z
		 M160.2,66c0-1.4-0.5-2-1.6-2s-1.6,0.7-1.6,2.1c0,1.3,0.4,2,1.6,2C159.7,68,160.2,67.3,160.2,66z"/>
	<path fill="#FFFFFF" d="M166.5,63.3h0.8v3.4c0,1.3-0.9,2-2.2,2s-2.2-0.6-2.2-2v-3.5h0.9v3.3c0,1.1,0.4,1.4,1.3,1.4
		c0.9,0,1.3-0.4,1.3-1.4L166.5,63.3L166.5,63.3z"/>
	<path fill="#FFFFFF" d="M173,64.1h-1.6v4.6h-0.9v-4.6h-1.7v-0.7h4.2V64.1z"/>
	<path fill="#FFFFFF" d="M176.9,67.3c0-1.2-2.5-0.9-2.5-2.6c0-0.9,0.7-1.5,1.7-1.5c0.6,0,1.1,0.1,1.5,0.4l-0.3,0.8
		c-0.2-0.2-0.8-0.5-1.2-0.5c-0.5,0-0.9,0.2-0.9,0.7c0,1.1,2.5,0.8,2.5,2.6c0,0.9-0.8,1.5-1.9,1.5c-0.6,0-1.2-0.2-1.7-0.5l0.3-0.8
		c0.3,0.3,0.9,0.6,1.4,0.6C176.4,68,176.9,67.8,176.9,67.3z"/>
	<path fill="#FFFFFF" d="M180.5,63.3v5.4h-0.9v-5.4C179.6,63.3,180.5,63.3,180.5,63.3z"/>
	<path fill="#FFFFFF" d="M182.7,63.3h1.9c1.9,0,2.6,1.2,2.6,2.6c0,1.6-0.5,2.8-2.6,2.8h-1.9V63.3z M183.6,64.1V68h1.1
		c1.4,0,1.6-0.8,1.6-1.9s-0.3-2-1.7-2H183.6z"/>
	<path fill="#FFFFFF" d="M192.4,63.3V64h-2.5v1.5h2.2v0.7h-2.2v1.6h2.5v0.8h-3.3v-5.4h3.3V63.3z"/>
	<path fill="#FFFFFF" d="M200.5,63.3h0.9v3.4c0,1.3-0.9,2-2.2,2s-2.2-0.6-2.2-2v-3.5h0.9v3.3c0,1.1,0.4,1.4,1.3,1.4s1.3-0.4,1.3-1.4
		V63.3z"/>
	<path fill="#FFFFFF" d="M205.8,67.3c0-1.2-2.5-0.9-2.5-2.6c0-0.9,0.7-1.5,1.7-1.5c0.6,0,1.1,0.1,1.5,0.4l-0.3,0.8
		c-0.2-0.2-0.8-0.5-1.2-0.5c-0.5,0-0.9,0.2-0.9,0.7c0,1.1,2.5,0.8,2.5,2.6c0,0.9-0.9,1.5-1.9,1.5c-0.6,0-1.2-0.2-1.7-0.5l0.3-0.8
		c0.3,0.3,0.9,0.6,1.4,0.6C205.3,68,205.8,67.8,205.8,67.3z"/>
	<path fill="#FFFFFF" d="M207.9,68.7l1.9-5.4h1l1.9,5.4h-0.9l-0.5-1.3h-2.1l-0.4,1.3H207.9z M210.7,65.6l-0.4-1.4l-0.4,1.4l-0.4,1.1
		h1.6L210.7,65.6z"/>
</g>
</svg>
