<?xml version="1.0" standalone="no"?>
<!DOCTYPE svg PUBLIC "-//W3C//DTD SVG 1.1//EN" "http://www.w3.org/Graphics/SVG/1.1/DTD/svg11.dtd" >
<svg>
<metadata></metadata>
<defs>
<font id="lloyds_bank_jack-web-regular" horiz-adv-x="527" >
  <font-face 
    font-family="Lloyds Bank Jack Web"
    font-weight="400"
    font-stretch="normal"
    units-per-em="1000"
    panose-1="2 0 5 3 4 0 0 2 0 4"
    ascent="750"
    descent="-250"
    x-height="485"
    cap-height="674"
    bbox="-138 -293 1053 1139"
    underline-thickness="50"
    underline-position="-50"
    unicode-range="U+000D-FB04"
  />
<missing-glyph 
d="M504 673v-673h-481v673h481zM264 379l163 247h-327zM292 337l164 -246v491zM100 48h327l-163 245zM72 91l163 246l-163 245v-491z" />
    <glyph glyph-name="fi" unicode="fi" horiz-adv-x="529" 
d="M95 485v40q0 94 50.5 136t149.5 42q36 0 72 -4t59 -9l-7 -73q-23 4 -54 7.5t-60 3.5q-68 0 -93.5 -25t-25.5 -86v-32h275v-485h-91v412h-184v-412h-91v412h-74v73h74z" />
    <glyph glyph-name="fl" unicode="fl" horiz-adv-x="530" 
d="M95 485v40q0 89 47.5 133.5t152.5 44.5q19 0 41.5 -1.5t45 -4.5t44 -7t39.5 -8v-682h-91v621q-18 4 -42 6t-42 2q-59 0 -81.5 -26t-22.5 -87v-31h106l-6 -73h-100v-412h-91v412h-74v73h74z" />
    <glyph glyph-name="f_f" unicode="ff" horiz-adv-x="586" 
d="M95 485v39q0 85 40 132t126 47q16 0 32 -1.5t32 -5.5l-8 -72q-5 2 -18 3t-20 1q-52 0 -72.5 -23.5t-20.5 -87.5v-32h188v39q0 85 39.5 132t126.5 47q33 0 64 -7l-8 -72q-6 2 -18.5 3t-20.5 1q-52 0 -72 -23.5t-20 -87.5v-32h108l-6 -73h-102v-412h-91v412h-188v-412h-91
v412h-74v73h74z" />
    <glyph glyph-name="f_f_i" unicode="ffi" horiz-adv-x="808" 
d="M95 485v39q0 85 40 132t126 47q16 0 32 -1.5t32 -5.5l-8 -72q-5 2 -18 3t-20 1q-52 0 -72.5 -23.5t-20.5 -87.5v-32h188v40q0 94 50.5 136t149.5 42q36 0 72 -4t59 -9l-7 -73q-23 4 -54 7.5t-61 3.5q-68 0 -93 -25t-25 -86v-32h275v-485h-91v412h-184v-412h-91v412h-188
v-412h-91v412h-74v73h74z" />
    <glyph glyph-name="f_f_l" unicode="ffl" horiz-adv-x="809" 
d="M95 485v39q0 85 40 132t126 47q16 0 32 -1.5t32 -5.5l-8 -72q-5 2 -18 3t-20 1q-52 0 -72.5 -23.5t-20.5 -87.5v-32h188v40q0 89 47.5 133.5t152.5 44.5q19 0 41.5 -1.5t45 -4.5t44 -7t39.5 -8v-682h-92v621q-18 4 -41.5 6t-41.5 2q-60 0 -82 -25.5t-22 -87.5v-31h106
l-6 -73h-100v-412h-91v412h-188v-412h-91v412h-74v73h74z" />
    <glyph glyph-name=".notdef" 
d="M504 673v-673h-481v673h481zM264 379l163 247h-327zM292 337l164 -246v491zM100 48h327l-163 245zM72 91l163 246l-163 245v-491z" />
    <glyph glyph-name=".null" horiz-adv-x="0" 
 />
    <glyph glyph-name=".null" horiz-adv-x="0" 
 />
    <glyph glyph-name="nonmarkingreturn" unicode="&#xd;" horiz-adv-x="181" 
 />
    <glyph glyph-name="nonbreakingspace" unicode="&#xa0;" horiz-adv-x="181" 
 />
    <glyph glyph-name="space" unicode=" " horiz-adv-x="181" 
 />
    <glyph glyph-name="A" unicode="A" horiz-adv-x="589" 
d="M345 674q27 -69 55.5 -149.5t57 -167t56 -177t53.5 -180.5h-101q-9 35 -19 70.5t-21 72.5q-34 -4 -66 -6t-64 -2t-64.5 2t-67.5 6q-11 -37 -20.5 -72.5t-19.5 -70.5h-102q25 90 53.5 180.5t57.5 177t58 167t55 149.5h99zM293 553q-26 -77 -52.5 -158t-51.5 -161
q27 -3 53 -5t52 -2t52.5 1.5t53.5 5.5q-24 80 -50 160.5t-53 158.5h-4z" />
    <glyph glyph-name="B" unicode="B" horiz-adv-x="578" 
d="M248 674q51 0 95 -5.5t77 -23t52 -51t19 -90.5q0 -47 -21 -86.5t-70 -56.5v-2q61 -10 99 -53t38 -111q0 -66 -22.5 -104.5t-59 -59t-84 -26t-97.5 -5.5h-193v674h167zM180 394h86q63 0 93.5 22t30.5 79q0 47 -26.5 68.5t-92.5 21.5h-91v-191zM180 89h97q36 0 65 3
t49.5 14t31.5 33t11 60q0 31 -11 51.5t-30.5 32.5t-45.5 17t-56 5h-111v-216z" />
    <glyph glyph-name="C" unicode="C" horiz-adv-x="542" 
d="M50 337q0 168 75 260.5t222 92.5q45 0 88.5 -11t77.5 -29l-15 -93q-29 17 -66.5 27.5t-79.5 10.5q-103 0 -151 -68.5t-48 -189.5q0 -60 10.5 -108t34 -81.5t60 -52t88.5 -18.5q38 0 79.5 8.5t74.5 25.5l12 -88q-37 -19 -83 -29t-88 -10q-80 0 -135.5 25t-90 70.5t-50 109
t-15.5 141.5v7z" />
    <glyph glyph-name="D" unicode="D" horiz-adv-x="631" 
d="M242 674q85 0 148.5 -14.5t106 -52t63.5 -101.5t21 -164t-24 -172t-77 -115q-41 -33 -102 -44t-146 -11h-151v674h161zM180 91h46q14 0 26 0.5t25 0.5q58 2 96.5 17t61.5 45t32.5 76t9.5 111q0 60 -8.5 105.5t-32.5 75.5t-66.5 45.5t-110.5 15.5h-79v-492z" />
    <glyph glyph-name="E" unicode="E" horiz-adv-x="520" 
d="M475 674l-6 -91h-289v-191h254l-6 -92h-248v-209h289l-6 -91h-382v674h394z" />
    <glyph glyph-name="F" unicode="F" horiz-adv-x="507" 
d="M475 674l-6 -91h-289v-191h254l-5 -92h-249v-300h-99v674h394z" />
    <glyph glyph-name="G" unicode="G" horiz-adv-x="612" 
d="M50 335q0 174 79 264.5t225 90.5q50 0 95 -12t89 -32l-14 -90q-38 18 -78 29t-84 11q-103 0 -156 -66.5t-53 -196.5q0 -125 46 -191t149 -66q50 0 94 14v178h-112l-6 86h217v-329q-39 -18 -91 -29.5t-99 -11.5q-82 0 -139 24t-93 69t-52.5 109t-16.5 143v6z" />
    <glyph glyph-name="H" unicode="H" horiz-adv-x="652" 
d="M180 674v-282h293v282h98v-674h-98v300h-293v-300h-99v674h99z" />
    <glyph glyph-name="I" unicode="I" horiz-adv-x="266" 
d="M182 674v-674h-98v674h98z" />
    <glyph glyph-name="J" unicode="J" horiz-adv-x="413" 
d="M333 674v-431q0 -30 -2 -59t-8.5 -55t-18 -49t-29.5 -41q-28 -27 -68.5 -41t-89.5 -14q-24 0 -47.5 4t-43.5 11l5 81q18 -6 37.5 -9t35.5 -3q76 0 107 44q16 22 19.5 53.5t3.5 78.5v430h99z" />
    <glyph glyph-name="K" unicode="K" horiz-adv-x="557" 
d="M180 674v-317q36 36 67.5 72t61.5 74t59 80.5t60 90.5h102q-51 -85 -103.5 -160.5t-115.5 -144.5l229 -369h-116l-181 305q-17 -17 -33 -32t-30 -27v-246h-99v674h99z" />
    <glyph glyph-name="L" unicode="L" horiz-adv-x="475" 
d="M180 674v-583h266l-6 -91h-359v674h99z" />
    <glyph glyph-name="M" unicode="M" horiz-adv-x="804" 
d="M191 674q24 -51 53 -114t58.5 -126.5t56 -123t44.5 -102.5q18 42 46.5 104.5t58.5 128.5t59 128t49 105h83q6 -78 12 -166t11 -176.5t8.5 -173.5t5.5 -158h-97q0 9 -1.5 45.5t-3 86t-4 106.5t-5 107t-4.5 87.5t-4 49.5q-20 -45 -43.5 -97t-48 -106t-48.5 -108t-45 -103
h-61q-41 94 -88 199t-97 215h-1q-7 -143 -13 -267.5t-8 -214.5h-96q2 71 6 156t9 174.5t11 178t12 165.5h85z" />
    <glyph glyph-name="N" unicode="N" horiz-adv-x="678" 
d="M167 674l338 -492h1v492h92v-674h-79l-346 500h-1v-500h-91v674h86z" />
    <glyph glyph-name="O" unicode="O" horiz-adv-x="630" 
d="M50 342q0 76 14 140t45 110t81.5 72t124.5 26q73 0 124 -26t82 -72t45 -110t14 -140v-8q0 -76 -14 -140.5t-45 -111t-82 -72.5t-124 -26q-74 0 -124.5 26t-81.5 72.5t-45 111t-14 140.5v8zM315 598q-45 0 -76 -17.5t-50 -50.5t-27.5 -81.5t-8.5 -110.5q0 -126 36 -193.5
t126 -67.5q45 0 76 17t50 50t27 81.5t8 111.5t-8 111.5t-27 81.5t-50 50.5t-76 17.5z" />
    <glyph glyph-name="P" unicode="P" horiz-adv-x="549" 
d="M241 674q61 0 110.5 -8.5t84.5 -31t54 -62.5t19 -103q0 -64 -17 -107.5t-49.5 -70t-80 -38t-107.5 -11.5h-75v-242h-99v674h160zM180 333h62q33 0 62.5 3t52 16t36 39t13.5 72q0 37 -10 60t-31 38q-23 16 -55 19t-86 3h-44v-250z" />
    <glyph glyph-name="Q" unicode="Q" horiz-adv-x="631" 
d="M50 342q0 76 14 140t45 110t81.5 72t124.5 26q73 0 124 -26t82 -72t45 -110t14 -140v-8q0 -99 -23.5 -176.5t-78.5 -122.5l98 -101l-82 -58l-100 118q-18 -5 -37.5 -7.5t-41.5 -2.5q-74 0 -124.5 26t-81.5 72.5t-45 111t-14 140.5v8zM315 598q-45 0 -76 -17.5t-50 -50.5
t-27.5 -81.5t-8.5 -110.5q0 -126 36 -193.5t126 -67.5q45 0 76 17t50 50t27 81.5t8 111.5t-8 111.5t-27 81.5t-50 50.5t-76 17.5z" />
    <glyph glyph-name="R" unicode="R" horiz-adv-x="562" 
d="M246 674q55 0 103 -7.5t83 -29.5t55.5 -61t20.5 -102q0 -81 -29.5 -132t-80.5 -71l123 -271h-104l-106 249q-15 -1 -32.5 -1.5t-31.5 -0.5h-67v-247h-99v674h165zM180 338h63q40 0 70.5 3.5t50.5 17t30 40t10 71.5q0 62 -32.5 87.5t-110.5 25.5h-81v-245z" />
    <glyph glyph-name="S" unicode="S" horiz-adv-x="498" 
d="M408 568q-31 14 -64.5 22t-64.5 8q-53 0 -82 -16q-46 -25 -46 -80q0 -25 9 -42.5t24 -31t35.5 -23t43.5 -17.5l40 -15q35 -13 64 -27.5t49.5 -36t31.5 -52t11 -73.5q0 -101 -61 -150.5t-173 -49.5q-41 0 -87.5 9.5t-83.5 23.5l9 95q38 -18 80.5 -28t74.5 -10q65 0 101 22
t36 81q0 26 -7.5 44t-22 30t-34.5 21t-44 17l-39 14q-35 12 -64 29t-50.5 40.5t-33.5 54.5t-12 72q0 45 16.5 80.5t45.5 60t70 37.5t91 13q42 0 81 -8.5t67 -20.5z" />
    <glyph glyph-name="T" unicode="T" horiz-adv-x="529" 
d="M312 0h-98v583h-183v91h468l-6 -91h-181v-583z" />
    <glyph glyph-name="U" unicode="U" horiz-adv-x="640" 
d="M177 674v-419q0 -44 6.5 -77.5t23 -56t44 -33.5t69.5 -11t70 11t44.5 33.5t23 56t6.5 77.5v419h99v-426q0 -65 -12.5 -114t-41 -82.5t-75 -50.5t-114.5 -17t-114 17t-74.5 50.5t-41 82.5t-12.5 114v426h99z" />
    <glyph glyph-name="V" unicode="V" horiz-adv-x="591" 
d="M128 674q17 -63 37.5 -133.5t42.5 -142t44 -140.5t42 -129h3q19 60 41.5 129t44.5 140.5t42.5 142t37.5 133.5h106q-24 -88 -52 -178t-56.5 -177t-57 -168t-54.5 -151h-107q-26 70 -54.5 151t-57 168t-56.5 177t-52 178h106z" />
    <glyph glyph-name="W" unicode="W" horiz-adv-x="891" 
d="M127 674q13 -63 30 -135.5t36 -145.5t38.5 -142t37.5 -124h2q11 42 21.5 83.5t21 83.5t21 86.5t21.5 94.5q10 45 20 95.5t18 103.5h108q8 -53 18.5 -103.5t21.5 -95.5q12 -50 22.5 -94t21 -86t22 -83t23.5 -85h2q17 55 35 124t36 142t34 145.5t28 135.5h103
q-19 -87 -41.5 -177.5t-46.5 -177.5t-48 -168.5t-47 -150.5h-111q-15 52 -31.5 114t-33 129t-32.5 135.5t-29 133.5h-2q-14 -65 -29 -133t-31.5 -134t-33 -128.5t-32.5 -116.5h-109q-24 71 -49 152.5t-50 168t-48 176.5t-43 177h105z" />
    <glyph glyph-name="X" unicode="X" horiz-adv-x="569" 
d="M149 674q14 -32 30.5 -65.5t34.5 -66.5t36 -64.5t36 -57.5q18 27 36.5 58.5t37.5 64.5t36 66.5t32 64.5h110q-88 -182 -194 -335q26 -38 53.5 -82t53.5 -88.5t50.5 -88t45.5 -80.5h-124q-15 34 -32.5 69.5t-36 69t-36.5 63.5t-33 54h-1q-32 -49 -68.5 -116.5
t-71.5 -139.5h-119q45 88 96 175t105 165q-51 75 -98.5 159.5t-92.5 174.5h114z" />
    <glyph glyph-name="Y" unicode="Y" horiz-adv-x="533" 
d="M127 674q32 -97 65.5 -185.5t72.5 -166.5h3q39 78 72.5 166.5t65.5 185.5h105q-19 -58 -42 -117t-48 -117t-51.5 -113t-53.5 -104v-223h-99v223q-27 49 -53.5 104t-51.5 113t-48 117t-42 117h105z" />
    <glyph glyph-name="Z" unicode="Z" horiz-adv-x="533" 
d="M482 674v-79l-315 -504h320l-11 -91h-424l-7 81l316 502h-307v91h428z" />
    <glyph glyph-name="a" unicode="a" horiz-adv-x="497" 
d="M71 467q36 14 83 24t89 10q45 0 79.5 -8t58 -27.5t35.5 -52.5t12 -82v-244q0 -25 6 -34t29 -9v-53q-8 -3 -21.5 -5t-26.5 -2q-28 0 -47.5 14.5t-24.5 45.5q-28 -28 -66.5 -44t-86.5 -16q-32 0 -59.5 9.5t-48 28t-32.5 45.5t-12 62q0 85 65 132t209 47h25v19q0 30 -5 47
t-20 30q-13 11 -34 15.5t-47 4.5q-35 0 -73.5 -9t-72.5 -23zM322 239q-33 0 -67 -3t-61 -13.5t-44 -30.5t-17 -54q0 -33 20 -55.5t63 -22.5q38 0 70 16.5t51 37.5v125h-15z" />
    <glyph glyph-name="b" unicode="b" horiz-adv-x="535" 
d="M156 690v-237q32 24 68.5 36t74.5 12q91 0 142 -64.5t51 -189.5v-4q0 -52 -12 -99t-37 -82.5t-64 -56.5t-92 -21q-41 0 -77.5 15.5t-65.5 42.5h-1l-6 -42h-75q1 14 1.5 34.5t1 42.5t0.5 44v40v529h91zM156 117q23 -22 53 -36t61 -14q39 0 63.5 15t39 40t19.5 57t5 66
q0 36 -6 68t-20 55t-38 36.5t-60 13.5q-32 0 -63 -13t-54 -33v-255z" />
    <glyph glyph-name="c" unicode="c" horiz-adv-x="448" 
d="M43 243q0 130 63.5 194t168.5 64q41 0 77.5 -9t61.5 -23l-9 -80q-20 12 -53 22.5t-68 10.5q-74 0 -110 -44t-36 -138q0 -91 34 -134t109 -43q32 0 64.5 7.5t59.5 19.5l8 -76q-30 -14 -67 -22t-74 -8q-114 0 -172 64q-29 33 -43 81t-14 110v4z" />
    <glyph glyph-name="d" unicode="d" horiz-adv-x="536" 
d="M471 690v-490q0 -45 0.5 -98.5t1.5 -101.5h-77l-6 42h-1q-29 -29 -66.5 -43.5t-77.5 -14.5q-93 0 -147.5 65.5t-54.5 182.5v5q0 58 13.5 106.5t40.5 83.5t66.5 54.5t92.5 19.5q33 0 64.5 -8.5t58.5 -25.5v223h92zM379 383q-18 16 -47 25.5t-55 9.5q-40 0 -67 -14.5
t-43 -39t-22.5 -56.5t-6.5 -67q0 -37 7 -68.5t22.5 -55t39.5 -37t58 -13.5q33 0 62.5 14t51.5 36v266z" />
    <glyph glyph-name="e" unicode="e" horiz-adv-x="507" 
d="M43 242q0 52 13 99.5t39.5 82.5t67.5 56t98 21q105 0 154 -66t49 -194v-18t-1 -18h-324q5 -69 39 -106t103 -37q38 0 77.5 8t67.5 20l8 -74q-33 -16 -73.5 -24t-81.5 -8q-236 0 -236 256v2zM370 273q-1 34 -7.5 61.5t-19 47.5t-33 31t-50.5 11q-32 0 -54.5 -12t-37 -32.5
t-22 -48t-8.5 -58.5h232z" />
    <glyph glyph-name="f" unicode="f" horiz-adv-x="307" 
d="M95 485v39q0 85 40 132t126 47q16 0 32 -1.5t32 -5.5l-8 -72q-5 2 -18 3t-20 1q-52 0 -72.5 -23.5t-20.5 -87.5v-32h108l-6 -74h-102v-411h-91v411h-74v74h74z" />
    <glyph glyph-name="g" unicode="g" horiz-adv-x="501" 
d="M152 330q0 -103 102 -103q103 0 103 103q0 102 -103 102q-102 0 -102 -102zM57 332q0 41 15 72.5t41 53t62.5 32.5t78.5 11q41 0 73.5 -9t60.5 -26q6 7 15 16.5t22.5 18.5t31.5 16.5t41 10.5v-86q-17 -2 -36.5 -6t-34.5 -13q25 -38 25 -91v-5q0 -45 -16 -77t-43.5 -52.5
t-63.5 -30t-75 -9.5q-17 0 -34 2.5t-33 6.5q-15 -7 -23.5 -19.5t-8.5 -27.5q0 -18 16.5 -28.5t54.5 -10.5h97q76 0 121.5 -29t45.5 -100q0 -41 -19 -73.5t-50.5 -54.5t-73 -33.5t-87.5 -11.5q-104 0 -163 37t-59 97q0 32 18.5 60.5t51.5 43.5q-20 12 -31.5 32.5t-11.5 42.5
q0 29 19 54t49 39q-35 20 -55.5 55.5t-20.5 86.5v5zM237 4q-13 0 -34.5 0.5t-35.5 2.5q-20 -11 -30.5 -30.5t-10.5 -43.5q0 -38 34 -61.5t103 -23.5q29 0 54.5 7t44.5 19.5t30 29.5t11 36q0 29 -18 46.5t-56 17.5h-92z" />
    <glyph glyph-name="h" unicode="h" horiz-adv-x="536" 
d="M153 690v-255q32 30 74.5 48t90.5 18q78 0 117 -41q23 -23 32 -57t9 -88v-315h-91v301q0 35 -4.5 56t-16.5 35q-23 24 -71 24q-35 0 -73.5 -17t-66.5 -48v-351h-91v690h91z" />
    <glyph glyph-name="i" unicode="i" horiz-adv-x="227" 
d="M159 485v-485h-91v485h91zM60 635q0 29 12 45t43 16q29 0 40.5 -16t11.5 -45v-7q0 -27 -11.5 -43.5t-40.5 -16.5q-31 0 -43 16.5t-12 43.5v7z" />
    <glyph glyph-name="j" unicode="j" horiz-adv-x="226" 
d="M159 485v-489q0 -43 -7 -80.5t-24.5 -65.5t-48 -44t-78.5 -16h-22.5t-18.5 2l6 78q7 -1 15 -1h13q15 0 29 4t25 16q12 14 16 36.5t4 59.5v500h91zM60 635q0 29 12 45t43 16q29 0 40.5 -16t11.5 -45v-7q0 -27 -11.5 -43.5t-40.5 -16.5q-31 0 -43 16.5t-12 43.5v7z" />
    <glyph glyph-name="k" unicode="k" horiz-adv-x="458" 
d="M153 690v-409q48 40 95 92.5t85 111.5h99q-70 -118 -157 -204l168 -281h-103l-133 223q-32 -27 -54 -42v-181h-91v690h91z" />
    <glyph glyph-name="l" unicode="l" horiz-adv-x="221" 
d="M156 690v-690h-91v690h91z" />
    <glyph glyph-name="m" unicode="m" horiz-adv-x="812" 
d="M139 485l7 -53q27 29 68.5 49t87.5 20q48 0 80 -20t48 -50q33 32 75 51t91 19q78 0 117.5 -43.5t39.5 -136.5v-321h-91v303q0 32 -4.5 51.5t-15.5 33.5q-10 12 -26.5 19.5t-44.5 7.5q-29 0 -61.5 -15t-59.5 -45q2 -14 2 -29v-30v-296h-91v298q0 25 -2.5 46.5t-11.5 37.5
t-25.5 24.5t-43.5 8.5q-33 0 -67 -18t-58 -47v-350h-91v485h77z" />
    <glyph glyph-name="n" unicode="n" horiz-adv-x="537" 
d="M141 485l7 -56q30 31 74 51.5t96 20.5q78 0 117 -41q23 -23 32 -57t9 -88v-315h-91v301q0 35 -4.5 56t-16.5 35q-23 24 -71 24q-35 0 -73.5 -17t-66.5 -48v-351h-91v485h79z" />
    <glyph glyph-name="o" unicode="o" horiz-adv-x="533" 
d="M43 244q0 124 55.5 190.5t167.5 66.5q113 0 168.5 -66t55.5 -190v-4q0 -124 -55.5 -190.5t-168.5 -66.5q-112 0 -167.5 66.5t-55.5 190.5v3zM267 424q-66 0 -97.5 -44.5t-31.5 -137.5q0 -92 31.5 -136.5t97.5 -44.5t97 44.5t31 136.5q0 93 -31 137.5t-97 44.5z" />
    <glyph glyph-name="p" unicode="p" horiz-adv-x="535" 
d="M138 485l7 -49q34 33 74 49t78 16q43 0 79 -16.5t62 -48t40 -77t14 -104.5v-6q0 -57 -13 -105.5t-39.5 -84t-66.5 -55.5t-93 -20q-34 0 -66 10.5t-61 27.5v-216h-91v679h76zM153 102q22 -16 52 -25.5t60 -9.5q38 0 63.5 14.5t40.5 39t21.5 56.5t6.5 67q0 27 -5 57.5
t-18 55.5t-36 41.5t-60 16.5q-38 0 -70.5 -16.5t-54.5 -39.5v-257z" />
    <glyph glyph-name="q" unicode="q" horiz-adv-x="534" 
d="M43 244q0 48 12 94t37 82t64.5 58.5t94.5 22.5q79 0 140 -46l6 30h75v-679h-92v224q-30 -23 -66 -34.5t-72 -11.5q-94 0 -146.5 64.5t-52.5 190.5v5zM380 376q-22 20 -50.5 30.5t-58.5 10.5q-43 0 -69 -17.5t-40.5 -44t-19 -58t-4.5 -60.5q0 -35 6 -66t20.5 -54t38.5 -37
t60 -14q34 0 64 13.5t53 33.5v263z" />
    <glyph glyph-name="r" unicode="r" horiz-adv-x="325" 
d="M141 485q3 -25 4.5 -38.5t2 -20t1 -7.5l0.5 -1q25 32 65 54t91 24v-19t-0.5 -27t-0.5 -27v-19q-48 -1 -86.5 -18t-64.5 -43v-343h-91v485h79z" />
    <glyph glyph-name="s" unicode="s" horiz-adv-x="411" 
d="M339 403q-23 10 -52.5 16t-54.5 6q-53 0 -76 -18t-23 -47q0 -33 23 -47t60 -26l32 -10q32 -10 56.5 -22t41 -29t24.5 -40t8 -54q0 -39 -13.5 -67t-38.5 -46t-59 -26.5t-76 -8.5q-37 0 -76.5 8t-68.5 20l7 76q29 -13 65.5 -21.5t64.5 -8.5q48 0 76 14t28 53q0 16 -4 27
t-13.5 19.5t-25 15t-39.5 13.5l-32 10q-26 7 -50 18.5t-42 29t-28.5 42t-10.5 58.5t13.5 61t38 45t58 27.5t72.5 9.5q31 0 63.5 -5.5t59.5 -15.5z" />
    <glyph glyph-name="t" unicode="t" horiz-adv-x="335" 
d="M182 630v-145h119l-5 -74h-114v-254q0 -30 4 -49.5t13 -30.5t23.5 -15t35.5 -4q11 0 23.5 1t20.5 3l2 -72q-14 -3 -31.5 -4.5t-26.5 -1.5q-45 0 -75 10t-48 30.5t-25 51.5t-7 72v263h-72v74h72v132z" />
    <glyph glyph-name="u" unicode="u" horiz-adv-x="518" 
d="M149 485v-273q0 -39 2 -60t8 -38q11 -30 38 -41.5t62 -11.5t62 11.5t38 41.5q6 17 8 38t2 60v273h91v-285q0 -59 -10.5 -100.5t-34.5 -67t-62.5 -37t-93.5 -11.5t-93.5 11.5t-62.5 37t-34.5 67t-10.5 100.5v285h91z" />
    <glyph glyph-name="v" unicode="v" horiz-adv-x="444" 
d="M110 485q8 -36 21.5 -88t28.5 -106.5t30 -106t27 -86.5h7q12 35 27.5 86t31 106t29.5 106.5t23 88.5h95q-16 -56 -37.5 -124.5t-44 -136t-43.5 -127t-37 -97.5h-97q-15 38 -36 97.5t-43 127t-42.5 136t-34.5 124.5h95z" />
    <glyph glyph-name="w" unicode="w" horiz-adv-x="698" 
d="M110 485q8 -35 20.5 -82.5t26.5 -98.5t28 -100.5t26 -89.5q10 32 22.5 76.5t26 95t26 102t23.5 97.5h80q10 -46 23 -97t26.5 -100.5t26 -94.5t22.5 -79q7 19 16 49t19 65t20 73t18.5 73t16 64t11.5 47h95q-13 -51 -32.5 -116.5t-41 -133t-42.5 -129.5t-37 -106h-85
q-13 42 -26 89t-26 92.5t-24 88t-20 77.5q-8 -35 -19.5 -77.5t-24.5 -88t-26.5 -92.5t-26.5 -89h-84q-17 44 -38 106t-42.5 129.5t-40.5 133t-32 116.5h95z" />
    <glyph glyph-name="x" unicode="x" horiz-adv-x="452" 
d="M129 485q23 -51 47 -95t49 -76q26 40 52 84.5t47 86.5h99q-32 -60 -71 -123.5t-76 -117.5q45 -58 84 -118t78 -126h-113q-21 45 -47.5 90t-55.5 83q-27 -40 -51.5 -82t-50.5 -91h-104q38 70 75 127.5t81 115.5q-38 49 -77.5 113.5t-71.5 128.5h106z" />
    <glyph glyph-name="y" unicode="y" horiz-adv-x="456" 
d="M193 -16q-26 49 -51.5 110t-48.5 127t-43 133.5t-36 130.5h96q27 -114 59 -215.5t63 -181.5h5q15 41 30.5 92t30 104t27.5 105t22 96h95q-17 -66 -36.5 -134.5t-39.5 -133.5t-41 -123t-41 -103q-28 -63 -53 -102.5t-49 -61.5t-48.5 -29.5t-51.5 -7.5q-16 0 -36 1.5
t-32 4.5l5 75q11 -3 22.5 -4.5t19.5 -1.5q46 0 70 24q18 18 33 40.5t29 54.5z" />
    <glyph glyph-name="z" unicode="z" horiz-adv-x="439" 
d="M403 485v-62l-256 -344h251l-10 -79h-348l-7 61l254 344h-234v80h350z" />
    <glyph glyph-name="ampersand" unicode="&#x26;" horiz-adv-x="606" 
d="M574 365q-2 -29 -6.5 -60t-12 -62t-18.5 -60t-25 -53q15 -11 32 -21.5t32.5 -19.5t28 -15t19.5 -7l-17 -82q-13 1 -31 8.5t-37.5 18.5t-40 25t-39.5 28q-46 -45 -96 -63t-113 -18q-58 0 -101 15.5t-71.5 41t-42.5 59t-14 69.5q0 55 35.5 108t105.5 94q-42 45 -62 81
t-20 80q0 27 11 55.5t32.5 51t54.5 37t77 14.5q35 0 66 -10.5t53.5 -30t35.5 -48t13 -63.5q0 -30 -11 -55t-30 -47t-44.5 -41t-53.5 -37q11 -14 30 -35t42 -45.5t47 -49t45 -44.5q16 35 28 82t14 99h84zM256 61q37 0 76 13t69 42q-24 24 -52.5 53t-55.5 57.5t-49.5 52.5
t-33.5 38q-46 -28 -68.5 -64t-22.5 -77q0 -51 38 -83t99 -32zM169 530q0 -30 16 -58t50 -62q41 24 68 55t27 69q0 30 -21.5 53t-56.5 23q-37 0 -60 -22t-23 -58z" />
    <glyph glyph-name="at" unicode="@" horiz-adv-x="796" 
d="M396 510q29 0 51.5 -11t36.5 -26l7 33h71l-20 -116q-9 -51 -13.5 -79t-4.5 -46q0 -24 14.5 -37.5t37.5 -13.5q46 0 77.5 44.5t31.5 125.5q0 52 -19.5 94.5t-54.5 73t-83.5 47t-106.5 16.5q-63 0 -118 -23.5t-96 -64.5t-65 -96.5t-24 -120.5q0 -66 21 -114.5t59 -80
t92 -46.5t119 -15q46 0 88 5.5t74 13.5l-17 -71q-23 -8 -63 -14t-88 -6q-84 0 -152.5 20t-117.5 60.5t-76 101.5t-27 143q0 79 30 149t83.5 122t126 82.5t157.5 30.5q74 0 136.5 -22t107.5 -62.5t70 -96.5t25 -123q0 -53 -16 -95.5t-42 -72.5t-60 -46.5t-71 -16.5
q-44 0 -73.5 17t-40.5 43q-20 -28 -47.5 -44t-65.5 -16q-62 0 -94 40.5t-32 102.5q0 41 12 79t34.5 67.5t54.5 47t71 17.5zM403 448q-19 0 -37 -10t-31.5 -29t-22 -46t-8.5 -60q0 -42 16 -64.5t47 -22.5q24 0 44.5 13.5t36.5 36.5q1 11 2.5 23.5t3.5 23.5l17 107
q-11 11 -28 19.5t-40 8.5z" />
    <glyph glyph-name="exclam" unicode="!" horiz-adv-x="258" 
d="M175 674v-251l-11 -219h-71l-10 219v251h92zM77 53q0 27 10.5 43.5t41.5 16.5q30 0 41.5 -16.5t11.5 -43.5v-9q0 -28 -11.5 -44t-41.5 -16q-31 0 -41.5 16t-10.5 44v9z" />
    <glyph glyph-name="exclamdown" unicode="&#xa1;" horiz-adv-x="258" 
d="M164 281l11 -219v-251h-92v251l10 219h71zM77 440q0 29 10.5 45t41.5 16q30 0 41.5 -16t11.5 -45v-8q0 -27 -11.5 -43.5t-41.5 -16.5q-31 0 -41.5 16.5t-10.5 43.5v8z" />
    <glyph glyph-name="question" unicode="?" horiz-adv-x="438" 
d="M38 660q34 13 74.5 21.5t88.5 8.5q39 0 75 -10.5t63 -33t43 -57t16 -83.5q0 -84 -46.5 -135.5t-137.5 -59.5l-8 -120h-71l-10 189h25q78 2 114.5 31.5t36.5 92.5q0 102 -118 102q-32 0 -69 -7.5t-68 -21.5zM120 53q0 27 11 43.5t42 16.5t41.5 -16.5t10.5 -43.5v-9
q0 -28 -10.5 -44t-41.5 -16t-42 16t-11 44v9z" />
    <glyph glyph-name="questiondown" unicode="&#xbf;" horiz-adv-x="438" 
d="M303 294l9 -189h-25q-78 -2 -114 -31.5t-36 -92.5q0 -102 117 -102q32 0 69 7.5t69 21.5l8 -83q-34 -13 -74.5 -21.5t-88.5 -8.5q-39 0 -75 10.5t-63 33t-43 57t-16 83.5q0 84 46.5 135.5t136.5 59.5l9 120h71zM213 441q0 28 10.5 44t41.5 16t41.5 -16t10.5 -44v-9
q0 -27 -10.5 -43.5t-41.5 -16.5t-41.5 16.5t-10.5 43.5v9z" />
    <glyph glyph-name="asterisk" unicode="*" horiz-adv-x="356" 
d="M152 564l-12 116h74l-12 -117l105 56l28 -69l-117 -34l84 -88l-62 -44l-61 103l-64 -102l-61 46l84 85l-117 33l29 70z" />
    <glyph glyph-name="period" unicode="." horiz-adv-x="222" 
d="M52 59q0 63 60 63q58 0 58 -63v-11q0 -64 -58 -64q-60 0 -60 64v11z" />
    <glyph glyph-name="comma" unicode="," horiz-adv-x="221" 
d="M48 53q0 34 14 51.5t48 17.5q32 0 47 -17t15 -57t-21.5 -99t-56.5 -128l-59 21q38 77 58 137q-20 4 -32.5 21.5t-12.5 46.5v6z" />
    <glyph glyph-name="colon" unicode=":" horiz-adv-x="221" 
d="M49 59q0 63 60 63q58 0 58 -63v-11q0 -64 -58 -64q-60 0 -60 64v11zM49 442q0 63 60 63q58 0 58 -63v-11q0 -64 -58 -64q-60 0 -60 64v11z" />
    <glyph glyph-name="semicolon" unicode=";" horiz-adv-x="221" 
d="M48 53q0 34 14 51.5t48 17.5q32 0 47 -17t15 -57t-21.5 -99t-56.5 -128l-59 21q38 77 58 137q-20 4 -32.5 21.5t-12.5 46.5v6zM49 442q0 63 60 63q58 0 58 -63v-11q0 -64 -58 -64q-60 0 -60 64v11z" />
    <glyph glyph-name="ellipsis" unicode="&#x2026;" horiz-adv-x="666" 
d="M52 59q0 63 60 63q58 0 58 -63v-11q0 -64 -58 -64q-60 0 -60 64v11zM274 59q0 63 60 63q58 0 58 -63v-11q0 -64 -58 -64q-60 0 -60 64v11zM496 59q0 63 60 63q58 0 58 -63v-11q0 -64 -58 -64q-60 0 -60 64v11z" />
    <glyph glyph-name="periodcentered" unicode="&#xb7;" horiz-adv-x="222" 
d="M52 264q0 63 60 63q58 0 58 -63v-11q0 -64 -58 -64q-60 0 -60 64v11z" />
    <glyph glyph-name="uni22C5" unicode="&#x22c5;" horiz-adv-x="222" 
d="M52 264q0 63 60 63q58 0 58 -63v-11q0 -64 -58 -64q-60 0 -60 64v11z" />
    <glyph glyph-name="bullet" unicode="&#x2022;" horiz-adv-x="360" 
d="M65 397h230v-231h-230v231z" />
    <glyph glyph-name="slash" unicode="/" horiz-adv-x="396" 
d="M373 691l-252 -707h-98l253 707h97z" />
    <glyph glyph-name="parenleft" unicode="(" horiz-adv-x="380" 
d="M335 697q-77 -90 -114 -191t-37 -214q0 -112 37.5 -214t113.5 -191l-48 -39q-92 91 -146.5 202t-54.5 243q0 133 53.5 243t146.5 200z" />
    <glyph glyph-name="brokenbar" unicode="&#xa6;" horiz-adv-x="270" 
d="M176 256v-272h-83v272h83zM176 715v-274h-83v274h83z" />
    <glyph glyph-name="parenright" unicode=")" horiz-adv-x="380" 
d="M93 736q93 -90 147 -200t54 -243q0 -131 -55 -242.5t-146 -202.5l-47 39q75 89 112.5 191t37.5 214q0 113 -37 214t-114 191z" />
    <glyph glyph-name="bracketleft" unicode="[" horiz-adv-x="350" 
d="M277 687v-71h-103v-648h103v-71h-191v790h191z" />
    <glyph glyph-name="backslash" unicode="\" horiz-adv-x="396" 
d="M120 691l253 -707h-98l-253 707h98z" />
    <glyph glyph-name="bracketright" unicode="]" horiz-adv-x="350" 
d="M264 687v-790h-190v71h103v648h-103v71h190z" />
    <glyph glyph-name="braceleft" unicode="{" horiz-adv-x="358" 
d="M316 715v-69h-35q-19 0 -31 -3.5t-19.5 -12.5t-10.5 -24t-3 -38l-1 -130q0 -65 -17.5 -96.5t-64.5 -42.5v-2q47 -12 64.5 -44.5t17.5 -95.5l1 -130q0 -46 13 -61.5t51 -15.5h35v-69h-58q-65 0 -96 35t-32 102l-1 166q0 70 -69 87v54q69 16 69 87l1 166q1 65 32 101t96 36
h58z" />
    <glyph glyph-name="bar" unicode="|" horiz-adv-x="270" 
d="M179 715v-731h-88v731h88z" />
    <glyph glyph-name="braceright" unicode="}" horiz-adv-x="361" 
d="M103 715q65 0 96 -36t32 -101l1 -166q0 -71 69 -87v-54q-69 -17 -69 -87l-1 -166q-1 -67 -32 -102t-96 -35h-58v69h35q38 0 51 15.5t13 61.5l1 130q0 63 17.5 95.5t64.5 44.5v2q-47 11 -64.5 42.5t-17.5 96.5l-1 130q0 46 -13.5 62t-50.5 16h-35v69h58z" />
    <glyph glyph-name="hyphen" unicode="-" horiz-adv-x="287" 
d="M243 290v-82h-198v82h198z" />
    <glyph glyph-name="uni00AD" unicode="&#xad;" horiz-adv-x="287" 
d="M243 290v-82h-198v82h198z" />
    <glyph glyph-name="endash" unicode="&#x2013;" horiz-adv-x="500" 
d="M500 290v-82h-500v82h500z" />
    <glyph glyph-name="emdash" unicode="&#x2014;" horiz-adv-x="1000" 
d="M1000 290v-82h-1000v82h1000z" />
    <glyph glyph-name="underscore" unicode="_" horiz-adv-x="493" 
d="M489 -67v-70h-485v70h485z" />
    <glyph glyph-name="dagger" unicode="&#x2020;" horiz-adv-x="426" 
d="M260 674l-3 -189h138l-9 -74h-131l-4 -427h-80l-5 427h-135v74h133l-3 189h99z" />
    <glyph glyph-name="daggerdbl" unicode="&#x2021;" horiz-adv-x="422" 
d="M261 674l-3 -189h138l-9 -74h-131l-1 -130h119l-9 -73h-111l-2 -224h-80l-3 224h-117v73h115l-1 130h-134v74h132l-2 189h99z" />
    <glyph glyph-name="section" unicode="&#xa7;" horiz-adv-x="461" 
d="M350 599q-25 10 -52 15.5t-52 5.5q-48 0 -70 -15t-22 -41q0 -23 19 -39.5t64 -34.5l60 -25q53 -22 81.5 -50t28.5 -77q0 -31 -18 -60.5t-49 -51.5q22 -12 40 -36.5t18 -66.5q0 -67 -51 -103t-133 -36q-32 0 -71.5 7t-73.5 21l3 72q39 -14 74.5 -21t60.5 -7q53 0 77 17.5
t24 46.5q0 26 -17.5 42.5t-65.5 36.5l-61 25q-21 9 -40.5 20t-34.5 26.5t-24 35t-9 44.5q0 32 19.5 60t51.5 46q-29 17 -46.5 44.5t-17.5 61.5q0 30 13.5 54t37 40.5t55.5 25t70 8.5q32 0 60 -5.5t54 -15.5zM183 429q-20 -13 -31 -30.5t-11 -39.5t13 -37.5t45 -29.5l87 -36
q17 14 27 33t10 38q0 23 -16.5 41t-59.5 35z" />
    <glyph glyph-name="paragraph" unicode="&#xb6;" horiz-adv-x="518" 
d="M461 690v-790h-79v725h-101v-725h-78l-1 459q-38 3 -69.5 16t-53.5 34t-34 50t-12 63q0 39 13 70t36.5 53t56 33.5t71.5 11.5h251z" />
    <glyph glyph-name="registered" unicode="&#xae;" horiz-adv-x="777" 
d="M389 603q-57 0 -105 -19t-82 -54t-53 -85t-19 -111q0 -62 19 -111.5t53 -84.5t82 -54t105 -19t105 19t82 54t53 84.5t19 111.5q0 61 -19 111t-53 85t-82 54t-105 19zM371 513q83 0 115.5 -28.5t32.5 -85.5q0 -38 -14.5 -66.5t-43.5 -41.5l65 -138h-73l-54 126
q-7 -1 -14 -1h-13h-22v-125h-71v360h92zM350 340h32q35 0 49 11t14 46q0 30 -14.5 41.5t-49.5 11.5h-31v-110zM389 681q70 0 132 -24.5t108 -69.5t73 -109.5t27 -143.5q0 -80 -27 -144t-73 -109t-108 -69.5t-132 -24.5t-132 24.5t-108 69.5t-73 109t-27 144q0 79 27 143.5
t73 109.5t108 69.5t132 24.5z" />
    <glyph glyph-name="copyright" unicode="&#xa9;" horiz-adv-x="777" 
d="M478 433q-13 6 -33 12t-40 6q-45 0 -67.5 -28.5t-22.5 -89.5q0 -62 21 -90.5t66 -28.5q18 0 39 4.5t38 12.5l7 -62q-19 -8 -42 -13.5t-44 -5.5q-82 0 -120.5 45t-38.5 134q0 93 41 140t117 47q25 0 48 -6t39 -15zM389 603q-57 0 -105 -19t-82 -54t-53 -85t-19 -111
q0 -62 19 -111.5t53 -84.5t82 -54t105 -19t105 19t82 54t53 84.5t19 111.5q0 61 -19 111t-53 85t-82 54t-105 19zM389 681q70 0 132 -24.5t108 -69.5t73 -109.5t27 -143.5q0 -80 -27 -144t-73 -109t-108 -69.5t-132 -24.5t-132 24.5t-108 69.5t-73 109t-27 144
q0 79 27 143.5t73 109.5t108 69.5t132 24.5z" />
    <glyph glyph-name="trademark" unicode="&#x2122;" horiz-adv-x="663" 
d="M263 711l-3 -61h-81v-256h-71v256h-81v61h236zM380 711q8 -20 18.5 -45t21 -51.5t21 -52.5t18.5 -47q8 21 18 47t20 52.5t20 51.5l18 45h74q5 -70 9.5 -151t7.5 -166h-67q-1 51 -3 104t-4 104q-7 -20 -16.5 -43t-19 -47t-18.5 -46t-15 -39h-49q-18 42 -37 88.5t-33 83.5
q-3 -48 -4.5 -101t-3.5 -104h-66q3 85 7.5 165t9.5 152h73z" />
    <glyph glyph-name="quotedblleft" unicode="&#x201c;" horiz-adv-x="413" 
d="M166 534q0 -34 -14 -51.5t-48 -17.5q-32 0 -47 17t-15 57t21.5 99t56.5 128l59 -21q-39 -77 -58 -137q20 -4 32.5 -21.5t12.5 -46.5v-6zM362 534q0 -34 -14 -51.5t-48 -17.5q-32 0 -47 17t-15 57t21.5 99t56.5 128l59 -21q-39 -77 -58 -137q20 -4 32.5 -21.5t12.5 -46.5
v-6z" />
    <glyph glyph-name="quotedblright" unicode="&#x201d;" horiz-adv-x="413" 
d="M51 697q0 34 14 51.5t48 17.5q32 0 47 -17t15 -57t-21.5 -99t-56.5 -128l-59 21q38 77 58 137q-20 4 -32.5 21.5t-12.5 46.5v6zM247 697q0 34 14 51.5t48 17.5q32 0 47 -17t15 -57t-21.5 -99t-56.5 -128l-59 21q38 77 58 137q-20 4 -32.5 21.5t-12.5 46.5v6z" />
    <glyph glyph-name="quoteleft" unicode="&#x2018;" horiz-adv-x="217" 
d="M166 534q0 -34 -14 -51.5t-48 -17.5q-32 0 -47 17t-15 57t21.5 99t56.5 128l59 -21q-39 -77 -58 -137q20 -4 32.5 -21.5t12.5 -46.5v-6z" />
    <glyph glyph-name="quoteright" unicode="&#x2019;" horiz-adv-x="217" 
d="M51 697q0 34 14 51.5t48 17.5q32 0 47 -17t15 -57t-21.5 -99t-56.5 -128l-59 21q38 77 58 137q-20 4 -32.5 21.5t-12.5 46.5v6z" />
    <glyph glyph-name="guillemotleft" unicode="&#xab;" horiz-adv-x="558" 
d="M288 438l-140 -195l139 -195l-67 -43l-171 238l171 239zM509 438l-140 -195l139 -195l-67 -43l-171 238l171 239z" />
    <glyph glyph-name="guillemotright" unicode="&#xbb;" horiz-adv-x="557" 
d="M337 482l171 -239l-171 -238l-67 43l139 195l-140 195zM117 482l170 -239l-170 -238l-68 43l139 195l-139 195z" />
    <glyph glyph-name="guilsinglleft" unicode="&#x2039;" horiz-adv-x="337" 
d="M288 438l-140 -195l139 -195l-67 -43l-171 238l171 239z" />
    <glyph glyph-name="guilsinglright" unicode="&#x203a;" horiz-adv-x="336" 
d="M117 482l170 -239l-170 -238l-68 43l140 195l-140 195z" />
    <glyph glyph-name="quotesinglbase" unicode="&#x201a;" horiz-adv-x="217" 
d="M51 53q0 34 14 51.5t48 17.5q32 0 47 -17t15 -57t-21.5 -99t-56.5 -128l-59 21q38 77 58 137q-20 4 -32.5 21.5t-12.5 46.5v6z" />
    <glyph glyph-name="quotedblbase" unicode="&#x201e;" horiz-adv-x="413" 
d="M51 53q0 34 14 51.5t48 17.5q32 0 47 -17t15 -57t-21.5 -99t-56.5 -128l-59 21q38 77 58 137q-20 4 -32.5 21.5t-12.5 46.5v6zM247 53q0 34 14 51.5t48 17.5q32 0 47 -17t15 -57t-21.5 -99t-56.5 -128l-59 21q38 77 58 137q-20 4 -32.5 21.5t-12.5 46.5v6z" />
    <glyph glyph-name="grave" unicode="`" horiz-adv-x="348" 
d="M301 603l-35 -59l-217 111l48 75z" />
    <glyph glyph-name="acute" unicode="&#xb4;" horiz-adv-x="348" 
d="M251 730l49 -75l-217 -111l-34 59z" />
    <glyph glyph-name="dieresis" unicode="&#xa8;" horiz-adv-x="348" 
d="M204 644q0 58 55 58q56 0 56 -58v-6q0 -57 -56 -57q-55 0 -55 57v6zM33 644q0 58 55 58q57 0 57 -58v-6q0 -57 -57 -57q-55 0 -55 57v6z" />
    <glyph glyph-name="circumflex" unicode="&#x2c6;" horiz-adv-x="348" 
d="M204 734l125 -130l-50 -43l-101 95h-6l-102 -95l-50 43l126 130h58z" />
    <glyph glyph-name="tilde" unicode="&#x2dc;" horiz-adv-x="348" 
d="M6 624q20 44 51 65t60 21q20 0 33.5 -4.5t29.5 -15.5l14 -11q13 -10 23 -15.5t24 -5.5q17 0 30 11.5t23 31.5l46 -46q-14 -32 -41 -52.5t-59 -20.5q-40 0 -69 22l-15 11q-9 7 -18 11t-20 4q-32 0 -60 -50z" />
    <glyph glyph-name="macron" unicode="&#xaf;" horiz-adv-x="348" 
d="M311 663v-69h-274v69h274z" />
    <glyph glyph-name="breve" unicode="&#x2d8;" horiz-adv-x="348" 
d="M93 707q12 -29 32 -47t49 -18q28 0 49 18t32 47l65 -24q-15 -50 -53 -80t-93 -30q-56 0 -92.5 30t-53.5 80z" />
    <glyph glyph-name="dotaccent" unicode="&#x2d9;" horiz-adv-x="348" 
d="M176 714q26 0 44 -19t18 -46q0 -28 -18.5 -46.5t-45.5 -18.5q-26 0 -44 18.5t-18 46.5q0 27 18.5 46t45.5 19z" />
    <glyph glyph-name="ring" unicode="&#x2da;" horiz-adv-x="348" 
d="M78 661q0 40 28 68t69 28t68.5 -28t27.5 -68q0 -42 -28 -69.5t-68 -27.5q-42 0 -69.5 27.5t-27.5 69.5zM137 661q0 -17 10 -28.5t28 -11.5q17 0 27 11.5t10 28.5q0 16 -10 27t-27 11q-18 0 -28 -11t-10 -27z" />
    <glyph glyph-name="cedilla" unicode="&#xb8;" horiz-adv-x="348" 
d="M194 4l-14 -63q99 -5 99 -87q0 -49 -32 -74.5t-86 -25.5q-24 0 -49 4.5t-44 12.5l16 54q18 -6 37 -9t33 -3q29 0 41 9.5t12 27.5t-12.5 27.5t-41.5 10.5q-11 0 -22 -0.5t-22 -1.5l-7 7l29 118z" />
    <glyph glyph-name="hungarumlaut" unicode="&#x2dd;" horiz-adv-x="348" 
d="M191 701l-152 -163l-53 42l135 170zM363 701l-152 -163l-54 42l136 170z" />
    <glyph glyph-name="ogonek" unicode="&#x2db;" horiz-adv-x="348" 
d="M281 4q-24 -11 -45.5 -26.5t-37.5 -34t-25.5 -39t-9.5 -39.5q0 -20 12 -29.5t33 -9.5q11 0 24 2.5t23 7.5l12 -56q-16 -8 -38.5 -13t-45.5 -5q-49 0 -76 24.5t-27 64.5q0 47 34.5 88.5t91.5 64.5h75z" />
    <glyph glyph-name="caron" unicode="&#x2c7;" horiz-adv-x="348" 
d="M71 740l101 -95h6l101 95l50 -44l-125 -130h-58l-126 130z" />
    <glyph glyph-name="commaaccent" unicode="&#x326;" horiz-adv-x="348" 
d="M121 -124q0 54 54 54q53 0 53 -59q0 -29 -11.5 -70.5t-36.5 -93.5l-47 18q20 45 28 86q-17 5 -28.5 17.5t-11.5 37.5v10z" />
    <glyph glyph-name="grave.cap" horiz-adv-x="348" 
d="M301 780l-35 -59l-217 110l48 76z" />
    <glyph glyph-name="acute.cap" horiz-adv-x="348" 
d="M252 907l49 -76l-217 -110l-35 59z" />
    <glyph glyph-name="dieresis.cap" horiz-adv-x="348" 
d="M204 821q0 58 55 58q56 0 56 -58v-6q0 -57 -56 -57q-55 0 -55 57v6zM33 821q0 58 55 58q57 0 57 -58v-6q0 -57 -57 -57q-55 0 -55 57v6z" />
    <glyph glyph-name="circumflex.cap" horiz-adv-x="348" 
d="M204 912l125 -130l-50 -44l-101 96h-6l-102 -96l-50 44l126 130h58z" />
    <glyph glyph-name="tilde.cap" horiz-adv-x="348" 
d="M5 802q20 44 51 65t60 21q20 0 33.5 -4.5t29.5 -15.5l14 -11q13 -10 23 -15.5t24 -5.5q17 0 30 11.5t23 31.5l46 -46q-14 -32 -41 -52.5t-59 -20.5q-40 0 -69 22l-15 11q-9 7 -18 11t-20 4q-32 0 -60 -50z" />
    <glyph glyph-name="macron.cap" horiz-adv-x="348" 
d="M311 847v-69h-274v69h274z" />
    <glyph glyph-name="breve.cap" horiz-adv-x="348" 
d="M93 884q12 -29 32 -47t49 -18q28 0 49.5 18t31.5 47l65 -25q-15 -50 -53 -79.5t-93 -29.5q-56 0 -92.5 29.5t-53.5 79.5z" />
    <glyph glyph-name="dotaccent.cap" horiz-adv-x="348" 
d="M112 825q0 27 18.5 45.5t45.5 18.5q26 0 44 -18.5t18 -45.5t-18.5 -46t-45.5 -19q-26 0 -44 19t-18 46z" />
    <glyph glyph-name="ring.cap" horiz-adv-x="348" 
d="M175 928q41 0 68.5 -27.5t27.5 -69.5q0 -41 -28 -69t-68 -28q-42 0 -69.5 28t-27.5 69q0 42 28 69.5t69 27.5zM175 870q-18 0 -28 -11t-10 -28t10 -28t28 -11q17 0 27 11t10 28t-10 28t-27 11z" />
    <glyph glyph-name="hungarumlaut.cap" horiz-adv-x="348" 
d="M191 884l-152 -163l-53 41l135 170zM363 884l-152 -163l-54 41l136 170z" />
    <glyph glyph-name="caron.cap" horiz-adv-x="348" 
d="M71 915l101 -95h6l101 95l50 -44l-125 -130h-58l-126 130z" />
    <glyph glyph-name="zero" unicode="0" 
d="M264 601q-30 0 -51.5 -14t-35 -45t-19.5 -81.5t-6 -122.5t6 -122.5t19.5 -82t35 -46t51.5 -14.5t51.5 14.5t35 46t19.5 82t6 122.5t-6 122.5t-19.5 81.5t-35 45t-51.5 14zM264 690q56 0 96.5 -20t67 -62.5t39 -109t12.5 -159.5q0 -94 -11 -161t-36.5 -110t-66.5 -63.5
t-101 -20.5q-56 0 -96.5 20.5t-67 63.5t-39.5 110t-13 160q0 186 52 269t164 83z" />
    <glyph glyph-name="one" unicode="1" 
d="M253 674h83v-591h137v-83h-388v83h152v483l-148 -89l-28 81z" />
    <glyph glyph-name="two" unicode="2" 
d="M76 651q34 16 82 27.5t101 11.5q44 0 80.5 -11.5t63 -34t41 -56t14.5 -78.5q0 -42 -13 -81.5t-39.5 -81t-67 -87t-94.5 -100.5l-76 -77h280v-83h-381l-10 81l82 87q36 38 74 80t69.5 85t51.5 85t20 80q0 56 -30 81t-83 25q-35 0 -74 -9t-81 -29z" />
    <glyph glyph-name="three" unicode="3" 
d="M73 658q38 14 80.5 23t86.5 9q43 0 79 -10t62.5 -31t41.5 -53t15 -75q0 -57 -27 -99t-79 -58v-3q59 -13 93.5 -55.5t34.5 -111.5q0 -52 -17 -91t-48 -65.5t-75.5 -40t-98.5 -13.5q-19 0 -41 2.5t-44 6.5t-43 10t-38 14l12 87q39 -17 78 -25t71 -8q71 0 105.5 30.5
t34.5 89.5q0 68 -42 96.5t-119 28.5h-22v76h21q69 0 104.5 33.5t35.5 87.5q0 50 -30.5 70.5t-80.5 20.5q-34 0 -70 -7.5t-68 -22.5z" />
    <glyph glyph-name="four" unicode="4" 
d="M410 674v-422h91v-79h-91v-173h-99v173h-290v73q62 100 133.5 211t145.5 217h110zM311 252v294q-41 -59 -91 -137.5t-98 -156.5h189z" />
    <glyph glyph-name="five" unicode="5" 
d="M427 674l-4 -83h-242l-3 -196q42 14 95 14q88 0 140.5 -50t52.5 -149q0 -56 -16.5 -98t-47.5 -70.5t-74 -43t-96 -14.5q-48 0 -91 7.5t-81 19.5l12 86q35 -13 73.5 -20.5t76.5 -7.5q77 0 114 44q14 17 20 40t6 52q0 62 -29.5 92t-95.5 30q-32 0 -64 -7t-57 -16l-31 17
l7 353h335z" />
    <glyph glyph-name="six" unicode="6" 
d="M406 601q-12 3 -30 5t-30 2q-42 0 -73 -13.5t-54 -36.5q-29 -32 -44 -76t-23 -90q27 17 62.5 27t71.5 10q94 0 146 -55.5t52 -152.5q0 -49 -14.5 -92t-42 -75.5t-67.5 -51t-91 -18.5q-69 0 -113.5 26.5t-70 69.5t-35 97.5t-9.5 111.5q0 75 15.5 147t50.5 128.5t92 91
t140 34.5q23 0 43 -2t34 -7zM147 309q-2 -19 -2 -51.5t5 -60.5q9 -57 37.5 -92.5t80.5 -35.5q54 0 83 38.5t29 104.5q0 132 -114 132q-32 0 -62.5 -9.5t-56.5 -25.5z" />
    <glyph glyph-name="seven" unicode="7" 
d="M465 674v-83l-271 -591h-106l275 591h-312v83h414z" />
    <glyph glyph-name="eight" unicode="8" 
d="M176 362q-21 12 -41 27.5t-35.5 34.5t-24.5 43t-9 53q0 39 15.5 70t43 53.5t64.5 34.5t80 12q42 0 78 -11t62 -32t41 -52t15 -70q0 -48 -32 -91.5t-88 -73.5q28 -15 53.5 -32t44.5 -39t30 -48.5t11 -60.5q0 -47 -17.5 -83.5t-48 -61.5t-70.5 -38t-85 -13q-44 0 -84 11.5
t-70.5 35.5t-48.5 60.5t-18 85.5q0 58 35 108.5t99 76.5zM271 398q18 9 34.5 21.5t29 28t20.5 34.5t8 40q0 45 -27 67.5t-69 22.5q-40 0 -69.5 -23.5t-29.5 -67.5q0 -21 8 -38.5t22.5 -32.5t33 -27.5t39.5 -24.5zM253 319q-22 -9 -41.5 -22.5t-34 -30.5t-23 -37.5
t-8.5 -45.5q0 -54 34 -84t85 -30t83 29.5t32 81.5q0 44 -29 75t-98 64z" />
    <glyph glyph-name="nine" unicode="9" 
d="M119 73q12 -3 30 -5t30 -2q49 0 83 18.5t56.5 49t35.5 69t20 79.5q-26 -17 -61.5 -27t-71.5 -10q-47 0 -84 15t-63 42.5t-40 66t-14 84.5q0 52 15.5 95.5t44 75t69.5 49t92 17.5q67 0 110 -24.5t68.5 -66.5t35.5 -97t10 -115q0 -74 -15.5 -146.5t-50.5 -129.5t-92 -92
t-141 -35q-23 0 -43 2t-34 7zM379 363q1 8 2 19.5t1 23.5q1 45 -5.5 81.5t-21 63t-38.5 41t-58 14.5q-54 0 -84.5 -39t-30.5 -105q0 -64 29.5 -99t86.5 -35q32 0 62.5 9.5t56.5 25.5z" />
    <glyph glyph-name="dollar" unicode="$" 
d="M304 785v-98q43 -2 77.5 -9.5t59.5 -18.5l-10 -93q-28 12 -63 20t-64 10v-217l22 -7q35 -13 64 -27.5t50 -35.5t32.5 -51.5t11.5 -73.5q0 -42 -13.5 -75.5t-37.5 -57.5t-57 -39t-72 -21v-98h-66v93q-51 1 -96.5 9.5t-80.5 22.5l9 95q34 -16 80 -26t88 -11v222l-23 8
q-35 12 -64.5 28t-50.5 39t-32.5 54t-11.5 72q0 81 49.5 128.5t132.5 57.5v100h66zM304 82q32 9 54 31t22 64q0 44 -20.5 64.5t-55.5 34.5v-194zM238 591q-19 -3 -33 -11q-45 -23 -45 -78q0 -41 21.5 -62.5t56.5 -35.5v187z" />
    <glyph glyph-name="cent" unicode="&#xa2;" 
d="M334 695v-103q32 -3 61 -11.5t49 -19.5l-9 -80q-17 10 -44.5 19.5t-56.5 12.5v-357q26 2 52 9t49 17l8 -76q-49 -23 -109 -29v-93h-66v93q-90 9 -138 63q-29 33 -43 81t-14 110v4q0 118 52.5 181.5t142.5 74.5v104h66zM268 508q-100 -24 -100 -176q0 -77 24 -119.5
t76 -53.5v349z" />
    <glyph glyph-name="Euro" unicode="&#x20ac;" 
d="M92 432q17 131 84.5 194.5t179.5 63.5q42 0 81.5 -10t71.5 -27l-15 -94q-29 16 -62.5 25t-69.5 9q-70 0 -110.5 -37t-52.5 -124h175l-10 -76h-174q-1 -6 -1 -13v-16v-19t2 -21h172l-10 -76h-151q13 -73 51 -102.5t106 -29.5q35 0 71 8t66 25l12 -91q-30 -17 -72.5 -27
t-82.5 -10q-118 0 -180 56t-80 171h-79l9 76h63q-1 11 -1 21v18v15t1 15h-67l8 76h65z" />
    <glyph glyph-name="florin" unicode="&#x192;" 
d="M193 485v39q0 40 10 73t31 56.5t52.5 36.5t74.5 13q15 0 33 -2t30 -4l-8 -73q-8 2 -19 3t-25 1q-46 0 -67.5 -23.5t-21.5 -87.5v-32h109l-5 -72h-104v-411q0 -51 -7.5 -89.5t-27 -65t-53.5 -41t-86 -16.5q-10 0 -22 0.5t-23 1.5l2 77q7 -1 17.5 -1h16.5q31 0 49 8.5
t28 28.5t13 52t3 80v376h-73v72h73z" />
    <glyph glyph-name="sterling" unicode="&#xa3;" 
d="M133 395v72q0 113 53.5 168t156.5 55q31 0 63.5 -5.5t59.5 -14.5l-16 -89q-17 7 -44 12t-53 5q-67 0 -94.5 -35t-27.5 -109v-59h153v-78h-153v-79q0 -54 -17 -96t-45 -60v-1h281l-5 -81h-383l-3 81q39 22 56.5 57.5t17.5 81.5v97h-78v78h78z" />
    <glyph glyph-name="yen" unicode="&#xa5;" 
d="M126 674q32 -97 66.5 -191t69.5 -175h3q37 81 72 175t64 191h105q-32 -96 -71.5 -192t-83.5 -184h87l-3 -74h-122v-58h122v-74h-122v-92h-99v92h-120v74h120v58h-120l-4 74h85q-45 88 -84 184t-70 192h105z" />
    <glyph glyph-name="numbersign" unicode="#" 
d="M253 665l-29 -181h126l29 181h82l-29 -181h71v-80h-82l-25 -153h107v-81h-119l-27 -170h-81l26 170h-126l-27 -170h-82l27 170h-70v81h82l25 153h-107v80h119l28 181h82zM188 251h126l25 153h-126z" />
    <glyph glyph-name="percent" unicode="%" horiz-adv-x="820" 
d="M631 666l-362 -674l-69 38l359 673zM620 311q-27 0 -40 -30t-13 -100q0 -71 13 -101t40 -30q29 0 41 30t12 101q0 70 -12 100t-41 30zM620 377q69 0 99.5 -46.5t30.5 -149.5t-30.5 -150t-99.5 -47t-99.5 47t-30.5 150t30.5 149.5t99.5 46.5zM200 624q-27 0 -40 -30
t-13 -100q0 -71 13 -101t40 -30q29 0 41 30t12 101q0 70 -12 100t-41 30zM200 690q69 0 99.5 -46.5t30.5 -149.5t-30.5 -150t-99.5 -47t-99.5 47t-30.5 150t30.5 149.5t99.5 46.5z" />
    <glyph glyph-name="perthousand" unicode="&#x2030;" horiz-adv-x="1123" 
d="M630 666l-362 -674l-69 38l359 673zM622 311q-27 0 -40 -30t-13 -100q0 -71 13 -101t40 -30q29 0 41 30t12 101q0 70 -12 100t-41 30zM622 377q69 0 99.5 -46.5t30.5 -149.5t-30.5 -150t-99.5 -47t-99.5 47t-30.5 150t30.5 149.5t99.5 46.5zM923 311q-27 0 -40 -30
t-13 -100q0 -71 13 -101t40 -30q29 0 41 30t12 101q0 70 -12 100t-41 30zM923 377q69 0 99.5 -46.5t30.5 -149.5t-30.5 -150t-99.5 -47t-99.5 47t-30.5 150t30.5 149.5t99.5 46.5zM200 624q-27 0 -40 -30t-13 -100q0 -71 13 -101t40 -30q29 0 41 30t12 101q0 70 -12 100
t-41 30zM200 690q69 0 99.5 -46.5t30.5 -149.5t-30.5 -150t-99.5 -47t-99.5 47t-30.5 150t30.5 149.5t99.5 46.5z" />
    <glyph glyph-name="plus" unicode="+" 
d="M308 466v-156h152v-82h-152v-154h-89v154h-153v82h153v156h89z" />
    <glyph glyph-name="minus" unicode="&#x2212;" 
d="M460 310v-82h-394v82h394z" />
    <glyph glyph-name="multiply" unicode="&#xd7;" 
d="M267 326l136 136l54 -55l-136 -135l136 -136l-57 -59l-137 137l-136 -135l-54 55l136 135l-138 137l58 58z" />
    <glyph glyph-name="less" unicode="&#x3c;" 
d="M387 484l41 -68l-228 -144v-5l228 -145l-41 -66l-290 183v60z" />
    <glyph glyph-name="divide" unicode="&#xf7;" 
d="M460 310v-82h-394v82h394zM209 107q0 29 13 44.5t42 15.5t41.5 -15.5t12.5 -44.5v-11q0 -29 -12.5 -44.5t-41.5 -15.5t-42 15.5t-13 44.5v11zM209 443q0 29 13 44.5t42 15.5t41.5 -15.5t12.5 -44.5v-10q0 -29 -12.5 -45t-41.5 -16t-42 16t-13 45v10z" />
    <glyph glyph-name="equal" unicode="=" 
d="M460 416v-82h-394v82h394zM460 207v-84h-394v84h394z" />
    <glyph glyph-name="logicalnot" unicode="&#xac;" 
d="M460 310v-235h-84v153h-310v82h394z" />
    <glyph glyph-name="greater" unicode="&#x3e;" 
d="M431 299v-60l-291 -183l-41 66l228 145v5l-228 144l41 68z" />
    <glyph glyph-name="notequal" unicode="&#x2260;" 
d="M285 416l47 120h71l-48 -120h105v-82h-136l-49 -127h185v-83h-216l-47 -120h-71l48 120h-108v83h139l49 127h-188v82h219z" />
    <glyph glyph-name="approxequal" unicode="&#x2248;" 
d="M41 348q55 94 138 94q27 0 47.5 -8.5t40.5 -20.5l25 -15q17 -10 30.5 -16.5t28.5 -6.5q20 0 40.5 16.5t35.5 43.5l58 -41q-54 -96 -135 -96q-22 0 -42.5 7.5t-37.5 17.5l-25 15q-17 11 -31.5 17t-31.5 6q-49 0 -87 -59zM41 156q55 94 138 94q27 0 47.5 -8.5t40.5 -20.5
l25 -15q17 -10 30.5 -16.5t28.5 -6.5q20 0 40.5 16.5t35.5 43.5l58 -41q-54 -96 -135 -96q-22 0 -42.5 7.5t-37.5 17.5l-25 15q-17 11 -31.5 17t-31.5 6q-49 0 -87 -59z" />
    <glyph glyph-name="plusminus" unicode="&#xb1;" 
d="M219 391v151h89v-151h152v-83h-152v-150h-89v150h-153v83h153zM460 80v-80h-394v80h394z" />
    <glyph glyph-name="lessequal" unicode="&#x2264;" 
d="M458 80v-80h-394v80h394zM400 551l39 -67l-236 -136v-4l236 -136l-39 -65l-307 174v57z" />
    <glyph glyph-name="greaterequal" unicode="&#x2265;" 
d="M463 80v-80h-394v80h394zM433 374v-57l-306 -174l-39 65l235 136v4l-235 136l39 67z" />
    <glyph glyph-name="asciicircum" unicode="^" 
d="M302 644l187 -319l-74 -40l-151 263h-1l-154 -263l-71 40l186 319h78z" />
    <glyph glyph-name="asciitilde" unicode="~" 
d="M20 255q10 19 23.5 38.5t31 35t38.5 25t47 9.5q29 0 51 -10t51 -27l26 -15q20 -11 36.5 -20t36.5 -9q25 0 44 17.5t38 51.5l62 -44q-9 -18 -22.5 -36.5t-31 -34t-39.5 -25t-49 -9.5q-28 0 -51.5 10t-49.5 25l-25 14q-19 11 -34.5 18.5t-35.5 7.5q-26 0 -47 -20t-38 -49z
" />
    <glyph glyph-name="lozenge" unicode="&#x25ca;" 
d="M123 339l140 -216l140 216l-140 215zM272 699l235 -360l-235 -359h-18l-234 359l234 360h18z" />
    <glyph glyph-name="degree" unicode="&#xb0;" horiz-adv-x="302" 
d="M150 718q32 0 56 -10.5t40.5 -28.5t24.5 -41.5t8 -49.5q0 -60 -35 -95t-94 -35q-57 0 -93 35t-36 95q0 26 8.5 49.5t25 41.5t40.5 28.5t55 10.5zM150 652q-26 0 -40.5 -17t-14.5 -47q0 -29 14.5 -46.5t40.5 -17.5q27 0 41 17.5t14 46.5q0 30 -14 47t-41 17z" />
    <glyph glyph-name="quotesingle" unicode="'" horiz-adv-x="194" 
d="M151 719l-19 -224h-81v224h100z" />
    <glyph glyph-name="quotedbl" unicode="&#x22;" horiz-adv-x="355" 
d="M151 719l-19 -224h-81v224h100zM313 719l-20 -224h-80v224h100z" />
    <glyph glyph-name="radical" unicode="&#x221a;" horiz-adv-x="561" 
d="M166 343l85 -234h4l198 580l83 -26l-231 -663h-97l-104 268h-76l-5 75h143z" />
    <glyph glyph-name="currency" unicode="&#xa4;" horiz-adv-x="521" 
d="M79 521l74 -76q46 32 108 32q60 0 107 -31l75 75l58 -56l-77 -77q30 -47 30 -104q0 -59 -30 -106l77 -77l-58 -55l-76 74q-46 -29 -106 -29q-62 0 -107 30l-75 -75l-59 55l78 77q-14 23 -22 49t-8 57q0 29 7.5 55t21.5 49l-77 77zM149 284q0 -51 31.5 -81t80.5 -30
t80.5 30t31.5 81q0 50 -31.5 80.5t-80.5 30.5t-80.5 -30.5t-31.5 -80.5z" />
    <glyph glyph-name="infinity" unicode="&#x221e;" horiz-adv-x="679" 
d="M343 340q27 48 65 72.5t90 24.5q34 0 63 -10.5t50 -30t32.5 -49t11.5 -66.5q0 -75 -44 -115t-114 -40q-55 0 -91.5 25t-67.5 69q-25 -44 -64.5 -69t-92.5 -25q-69 0 -112.5 41t-43.5 114q0 38 12 67t33 49t49 30t60 10q54 0 93 -24t71 -73zM382 281q20 -37 48.5 -59.5
t61.5 -22.5q35 0 56.5 21t21.5 61q0 42 -21.5 62.5t-56.5 20.5q-38 0 -64 -21t-46 -62zM298 281q-45 83 -112 83q-35 0 -55.5 -21t-20.5 -62q0 -39 21 -60.5t59 -21.5q36 0 63 22.5t45 59.5z" />
    <glyph glyph-name="mu" unicode="&#xb5;" horiz-adv-x="522" 
d="M153 485v-283q0 -38 6 -63t21 -42q14 -17 35 -26t51 -9q66 0 90 41q11 18 14 42.5t3 66.5v273h91v-287q0 -54 -8.5 -88.5t-26.5 -60.5q-24 -33 -64 -48.5t-94 -15.5q-40 0 -73.5 11.5t-56.5 32.5l15 -223h-94v679h91z" />
    <glyph glyph-name="mu" unicode="&#x3bc;" horiz-adv-x="522" 
d="M153 485v-283q0 -38 6 -63t21 -42q14 -17 35 -26t51 -9q66 0 90 41q11 18 14 42.5t3 66.5v273h91v-287q0 -54 -8.5 -88.5t-26.5 -60.5q-24 -33 -64 -48.5t-94 -15.5q-40 0 -73.5 11.5t-56.5 32.5l15 -223h-94v679h91z" />
    <glyph glyph-name="partialdiff" unicode="&#x2202;" horiz-adv-x="507" 
d="M88 663q26 12 62 19.5t68 7.5q125 0 184 -95t59 -297q0 -83 -15 -142.5t-43.5 -97.5t-69.5 -56t-93 -18q-50 0 -88 18t-63.5 49.5t-38 75t-12.5 93.5q0 45 12.5 83t37.5 66t61 44t84 16q37 0 68 -9.5t55 -25.5q-8 112 -43 162t-103 50q-26 0 -53 -5.5t-50 -16.5zM362 310
q-25 17 -51.5 26t-58.5 9q-56 0 -85.5 -34.5t-29.5 -98.5q0 -66 29 -105t77 -39q36 0 59 16.5t36.5 45t19 66.5t5.5 80v16.5t-1 17.5z" />
    <glyph glyph-name="summation" unicode="&#x2211;" horiz-adv-x="486" 
d="M450 674l-9 -81h-288l179 -257l-179 -255h297v-81h-415v66l185 271l-185 263v74h415z" />
    <glyph glyph-name="product" unicode="&#x220f;" horiz-adv-x="658" 
d="M625 674l-8 -76h-96v-598h-90v598h-200v-598h-90v598h-107v76h591z" />
    <glyph glyph-name="pi" unicode="&#x3c0;" horiz-adv-x="650" 
d="M620 485l-8 -74h-112v-274q0 -23 2 -39.5t9 -25.5q12 -15 38 -15q22 0 37 4l2 -68q-14 -4 -29.5 -6.5t-35.5 -2.5q-62 0 -88 32q-15 19 -20.5 48.5t-5.5 75.5v270h-139v-410h-90v410h-22q-29 0 -51 -9t-43 -29l-38 63q28 25 58.5 37.5t74.5 12.5h461z" />
    <glyph glyph-name="integral" unicode="&#x222b;" horiz-adv-x="379" 
d="M343 606q-33 -3 -54 -13t-32.5 -27t-16 -42.5t-4.5 -61.5v-437q0 -103 -47.5 -151.5t-147.5 -52.5l-5 78q32 4 53 14t33 27.5t17 43t5 61.5v435q0 103 47 152t147 54z" />
    <glyph glyph-name="Omega" unicode="&#x3a9;" horiz-adv-x="693" 
d="M202 76q-65 52 -105 129.5t-40 168.5q0 73 22 132t61 99.5t92 62.5t114 22t114 -22t92 -62.5t61.5 -99.5t22.5 -132q0 -45 -11 -88t-30 -82t-45.5 -71.5t-57.5 -56.5h141v-76h-242v67q64 54 104 129.5t40 169.5q0 61 -15 106t-41 73.5t-60 42.5t-73 14q-38 0 -72 -14
t-59.5 -42.5t-40.5 -73.5t-15 -106q0 -94 39 -169.5t105 -129.5v-67h-243v76h142z" />
    <glyph glyph-name="Omega" unicode="&#x2126;" horiz-adv-x="693" 
d="M202 76q-65 52 -105 129.5t-40 168.5q0 73 22 132t61 99.5t92 62.5t114 22t114 -22t92 -62.5t61.5 -99.5t22.5 -132q0 -45 -11 -88t-30 -82t-45.5 -71.5t-57.5 -56.5h141v-76h-242v67q64 54 104 129.5t40 169.5q0 61 -15 106t-41 73.5t-60 42.5t-73 14q-38 0 -72 -14
t-59.5 -42.5t-40.5 -73.5t-15 -106q0 -94 39 -169.5t105 -129.5v-67h-243v76h142z" />
    <glyph glyph-name="Delta" unicode="&#x394;" horiz-adv-x="604" 
d="M348 674l203 -600v-74h-499v74l205 600h91zM152 80h300l-149 467z" />
    <glyph glyph-name="Delta" unicode="&#x2206;" horiz-adv-x="604" 
d="M348 674l203 -600v-74h-499v74l205 600h91zM152 80h300l-149 467z" />
    <glyph glyph-name="litre" unicode="&#x2113;" horiz-adv-x="494" 
d="M127 502q1 99 38.5 143.5t115.5 44.5q153 0 158 -210v-14q0 -115 -58.5 -179t-162.5 -90v-22q0 -60 17 -83.5t59 -23.5q61 0 122 40l16 -77q-34 -23 -74.5 -35t-80.5 -12q-75 0 -112.5 38.5t-37.5 124.5v34q-18 -2 -38 -4.5t-38 -4.5l-13 77q20 2 43 5t46 8v240zM218 282
q63 17 95.5 59.5t32.5 121.5v12q0 73 -16.5 103t-48.5 30q-34 0 -48.5 -25.5t-14.5 -87.5v-213z" />
    <glyph glyph-name="estimated" unicode="&#x212e;" horiz-adv-x="832" 
d="M168 131q0 -15 10 -22q44 -47 106 -75.5t134 -28.5q76 0 141 31.5t109 84.5h59q-55 -61 -135.5 -99t-174.5 -38q-81 0 -152.5 27.5t-125.5 75.5t-85 112.5t-31 137.5t31 137.5t85 112.5t125.5 75.5t152.5 27.5t152 -27.5t124 -75.5t84 -112.5t31 -137.5v-9h-636
q-4 0 -4 -5v-192zM168 353q0 -5 4 -5h487q5 0 5 5v190q0 11 -2.5 16.5t-8.5 10.5q-43 45 -104.5 72t-130.5 27q-66 0 -128.5 -26t-107.5 -74q-8 -7 -11 -13.5t-3 -20.5v-182z" />
    <glyph glyph-name="numero" unicode="&#x2116;" horiz-adv-x="1041" 
d="M167 674l338 -492h1v492h92v-674h-79l-346 500h-1v-500h-91v674h86zM667 309q0 86 38.5 130t117.5 44q78 0 116.5 -44t38.5 -130v-4q0 -85 -38.5 -129.5t-116.5 -44.5q-79 0 -117.5 44.5t-38.5 129.5v4zM823 416q-40 0 -60 -24t-20 -85t20 -86t60 -25q38 0 58 25t20 86
t-20 85t-58 24zM969 75v-75h-285v75h285z" />
    <glyph glyph-name="ordfeminine" unicode="&#xaa;" horiz-adv-x="349" 
d="M52 618q24 10 56 17t61 7q62 0 94.5 -25.5t32.5 -92.5v-151q0 -24 24 -22v-49q-5 -2 -15.5 -3.5t-22.5 -1.5q-41 0 -52 35h-3q-17 -17 -41 -26t-52 -9q-48 0 -77.5 26t-29.5 75q0 34 14.5 56.5t39.5 36.5t57 20t68 6h16v10q0 29 -13.5 40t-48.5 11q-23 0 -49.5 -6
t-48.5 -17zM222 462q-15 0 -35.5 -0.5t-38.5 -6t-31 -18t-13 -36.5q0 -44 47 -44q20 0 38.5 7.5t32.5 21.5v76z" />
    <glyph glyph-name="ordmasculine" unicode="&#xba;" horiz-adv-x="367" 
d="M30 472q0 81 38 125.5t115 44.5q78 0 116 -44.5t38 -125.5v-5q0 -81 -38 -125.5t-116 -44.5q-77 0 -115 44.5t-38 125.5v5zM183 577q-37 0 -56.5 -24t-19.5 -84t19.5 -83.5t56.5 -23.5q38 0 57.5 23.5t19.5 83.5t-19.5 84t-57.5 24z" />
    <glyph glyph-name="onesuperior" unicode="&#xb9;" horiz-adv-x="325" 
d="M150 777h61v-312h76v-62h-236v62h86v225l-83 -45l-22 64z" />
    <glyph glyph-name="twosuperior" unicode="&#xb2;" horiz-adv-x="325" 
d="M39 756q26 12 58 20.5t64 8.5q55 0 86.5 -28t31.5 -77q0 -24 -6.5 -45.5t-20.5 -44t-36.5 -47.5t-55.5 -55l-25 -23h145v-63h-237l-5 59l61 58q30 29 50 50.5t31.5 39t16.5 32.5t5 30q0 24 -15.5 35.5t-43.5 11.5q-20 0 -44.5 -7t-46.5 -18z" />
    <glyph glyph-name="threesuperior" unicode="&#xb3;" horiz-adv-x="325" 
d="M52 766q21 8 50 14t57 6q57 0 87.5 -25t30.5 -72q0 -62 -51 -87q28 -8 44 -30.5t16 -56.5q0 -60 -36.5 -90.5t-105.5 -30.5q-26 0 -54.5 5.5t-53.5 15.5l11 63q46 -18 89 -18q44 0 59 15.5t15 40.5q0 28 -18 39t-60 11h-27v59h25q36 0 53 12t17 41q0 42 -58 42
q-22 0 -42.5 -4.5t-38.5 -11.5z" />
    <glyph glyph-name="fraction" unicode="&#x2044;" horiz-adv-x="155" 
d="M293 666l-362 -674l-69 38l359 673z" />
    <glyph glyph-name="onehalf" unicode="&#xbd;" horiz-adv-x="820" 
d="M165 680h61v-311h76v-62h-236v62h86v224l-83 -45l-22 64zM534 348q26 12 58 20.5t64 8.5q55 0 86 -28t31 -77q0 -24 -6 -45.5t-20 -44t-36.5 -47.5t-55.5 -55l-25 -23h145v-63h-237l-5 59l61 58q30 29 50 50.5t31.5 39t16.5 32.5t5 30q0 24 -15.5 35.5t-43.5 11.5
q-20 0 -44.5 -7t-47.5 -18zM639 666l-362 -674l-69 38l359 673z" />
    <glyph glyph-name="onequarter" unicode="&#xbc;" horiz-adv-x="820" 
d="M165 680h61v-311h76v-62h-236v62h86v224l-83 -45l-22 64zM708 367v-224h51v-61h-51v-88h-74v88h-164v54q17 26 37 55.5t41 59.5t42.5 59.5t41.5 56.5h76zM634 143v138q-23 -32 -47.5 -68t-47.5 -70h95zM639 666l-362 -674l-69 38l359 673z" />
    <glyph glyph-name="threequarters" unicode="&#xbe;" horiz-adv-x="820" 
d="M708 367v-224h51v-61h-51v-88h-74v88h-164v54q17 26 37 55.5t41 59.5t42.5 59.5t41.5 56.5h76zM634 143v138q-23 -32 -47.5 -68t-47.5 -70h95zM639 666l-362 -674l-69 38l359 673zM77 670q21 8 50 14t57 6q57 0 87.5 -25t30.5 -72q0 -62 -51 -87q28 -8 44 -31t16 -57
q0 -60 -36.5 -90.5t-105.5 -30.5q-26 0 -54.5 5.5t-53.5 15.5l11 63q46 -18 89 -18q44 0 59 15.5t15 40.5q0 28 -18 39.5t-60 11.5h-27v59h25q36 0 53 12t17 41q0 42 -58 42q-22 0 -42.5 -4.5t-38.5 -11.5z" />
    <glyph glyph-name="Agrave" unicode="&#xc0;" horiz-adv-x="589" 
d="M345 674q27 -69 55.5 -149.5t57 -167t56 -177t53.5 -180.5h-101q-9 35 -19 70.5t-21 72.5q-34 -4 -66 -6t-64 -2t-64.5 2t-67.5 6q-11 -37 -20.5 -72.5t-19.5 -70.5h-102q25 90 53.5 180.5t57.5 177t58 167t55 149.5h99zM293 553q-26 -77 -52.5 -158t-51.5 -161
q27 -3 53 -5t52 -2t52.5 1.5t53.5 5.5q-24 80 -50 160.5t-53 158.5h-4zM394 780l-35 -59l-217 110l48 76z" />
    <glyph glyph-name="Aacute" unicode="&#xc1;" horiz-adv-x="589" 
d="M345 674q27 -69 55.5 -149.5t57 -167t56 -177t53.5 -180.5h-101q-9 35 -19 70.5t-21 72.5q-34 -4 -66 -6t-64 -2t-64.5 2t-67.5 6q-11 -37 -20.5 -72.5t-19.5 -70.5h-102q25 90 53.5 180.5t57.5 177t58 167t55 149.5h99zM293 553q-26 -77 -52.5 -158t-51.5 -161
q27 -3 53 -5t52 -2t52.5 1.5t53.5 5.5q-24 80 -50 160.5t-53 158.5h-4zM403 907l49 -76l-217 -110l-35 59z" />
    <glyph glyph-name="Acircumflex" unicode="&#xc2;" horiz-adv-x="589" 
d="M345 674q27 -69 55.5 -149.5t57 -167t56 -177t53.5 -180.5h-101q-9 35 -19 70.5t-21 72.5q-34 -4 -66 -6t-64 -2t-64.5 2t-67.5 6q-11 -37 -20.5 -72.5t-19.5 -70.5h-102q25 90 53.5 180.5t57.5 177t58 167t55 149.5h99zM293 553q-26 -77 -52.5 -158t-51.5 -161
q27 -3 53 -5t52 -2t52.5 1.5t53.5 5.5q-24 80 -50 160.5t-53 158.5h-4zM325 912l125 -130l-50 -44l-101 96h-6l-102 -96l-50 44l126 130h58z" />
    <glyph glyph-name="Atilde" unicode="&#xc3;" horiz-adv-x="589" 
d="M345 674q27 -69 55.5 -149.5t57 -167t56 -177t53.5 -180.5h-101q-9 35 -19 70.5t-21 72.5q-34 -4 -66 -6t-64 -2t-64.5 2t-67.5 6q-11 -37 -20.5 -72.5t-19.5 -70.5h-102q25 90 53.5 180.5t57.5 177t58 167t55 149.5h99zM293 553q-26 -77 -52.5 -158t-51.5 -161
q27 -3 53 -5t52 -2t52.5 1.5t53.5 5.5q-24 80 -50 160.5t-53 158.5h-4zM128 802q20 44 51 65t60 21q20 0 33.5 -4.5t29.5 -15.5l14 -11q13 -10 23 -15.5t24 -5.5q17 0 30 11.5t23 31.5l46 -46q-14 -32 -41 -52.5t-59 -20.5q-40 0 -69 22l-15 11q-9 7 -18 11t-20 4
q-32 0 -60 -50z" />
    <glyph glyph-name="Adieresis" unicode="&#xc4;" horiz-adv-x="589" 
d="M345 674q27 -69 55.5 -149.5t57 -167t56 -177t53.5 -180.5h-101q-9 35 -19 70.5t-21 72.5q-34 -4 -66 -6t-64 -2t-64.5 2t-67.5 6q-11 -37 -20.5 -72.5t-19.5 -70.5h-102q25 90 53.5 180.5t57.5 177t58 167t55 149.5h99zM293 553q-26 -77 -52.5 -158t-51.5 -161
q27 -3 53 -5t52 -2t52.5 1.5t53.5 5.5q-24 80 -50 160.5t-53 158.5h-4zM325 821q0 58 55 58q56 0 56 -58v-6q0 -57 -56 -57q-55 0 -55 57v6zM154 821q0 58 55 58q57 0 57 -58v-6q0 -57 -57 -57q-55 0 -55 57v6z" />
    <glyph glyph-name="Amacron" unicode="&#x100;" horiz-adv-x="589" 
d="M345 674q27 -69 55.5 -149.5t57 -167t56 -177t53.5 -180.5h-101q-9 35 -19 70.5t-21 72.5q-34 -4 -66 -6t-64 -2t-64.5 2t-67.5 6q-11 -37 -20.5 -72.5t-19.5 -70.5h-102q25 90 53.5 180.5t57.5 177t58 167t55 149.5h99zM293 553q-26 -77 -52.5 -158t-51.5 -161
q27 -3 53 -5t52 -2t52.5 1.5t53.5 5.5q-24 80 -50 160.5t-53 158.5h-4zM432 847v-69h-274v69h274z" />
    <glyph glyph-name="Abreve" unicode="&#x102;" horiz-adv-x="589" 
d="M345 674q27 -69 55.5 -149.5t57 -167t56 -177t53.5 -180.5h-101q-9 35 -19 70.5t-21 72.5q-34 -4 -66 -6t-64 -2t-64.5 2t-67.5 6q-11 -37 -20.5 -72.5t-19.5 -70.5h-102q25 90 53.5 180.5t57.5 177t58 167t55 149.5h99zM293 553q-26 -77 -52.5 -158t-51.5 -161
q27 -3 53 -5t52 -2t52.5 1.5t53.5 5.5q-24 80 -50 160.5t-53 158.5h-4zM214 884q12 -29 32 -47t49 -18q28 0 49.5 18t31.5 47l65 -25q-15 -50 -53 -79.5t-93 -29.5q-56 0 -92.5 29.5t-53.5 79.5z" />
    <glyph glyph-name="Aring" unicode="&#xc5;" horiz-adv-x="589" 
d="M345 674q27 -69 55.5 -149.5t57 -167t56 -177t53.5 -180.5h-101q-9 35 -19 70.5t-21 72.5q-34 -4 -66 -6t-64 -2t-64.5 2t-67.5 6q-11 -37 -20.5 -72.5t-19.5 -70.5h-102q25 90 53.5 180.5t57.5 177t58 167t55 149.5h99zM293 553q-26 -77 -52.5 -158t-51.5 -161
q27 -3 53 -5t52 -2t52.5 1.5t53.5 5.5q-24 80 -50 160.5t-53 158.5h-4zM296 928q41 0 68.5 -27.5t27.5 -69.5q0 -41 -28 -69t-68 -28q-42 0 -69.5 28t-27.5 69q0 42 28 69.5t69 27.5zM296 870q-18 0 -28 -11t-10 -28t10 -28t28 -11q17 0 27 11t10 28t-10 28t-27 11z" />
    <glyph glyph-name="Aringacute" unicode="&#x1fa;" horiz-adv-x="589" 
d="M345 674q27 -69 55.5 -149.5t57 -167t56 -177t53.5 -180.5h-101q-9 35 -19 70.5t-21 72.5q-34 -4 -66 -6t-64 -2t-64.5 2t-67.5 6q-11 -37 -20.5 -72.5t-19.5 -70.5h-102q25 90 53.5 180.5t57.5 177t58 167t55 149.5h99zM293 553q-26 -77 -52.5 -158t-51.5 -161
q27 -3 53 -5t52 -2t52.5 1.5t53.5 5.5q-24 80 -50 160.5t-53 158.5h-4zM198 827q0 40 28 68t69 28t68.5 -28t27.5 -68q0 -42 -28 -69.5t-68 -27.5q-42 0 -69.5 27.5t-27.5 69.5zM257 827q0 -17 10 -28.5t28 -11.5q17 0 27 11.5t10 28.5q0 16 -10 27t-27 11q-18 0 -28 -11
t-10 -27zM389 1139l49 -75l-217 -111l-34 59z" />
    <glyph glyph-name="Aogonek" unicode="&#x104;" horiz-adv-x="589" 
d="M567 0q-63 -23 -98.5 -59t-35.5 -73q0 -42 43 -42q25 0 48 10l12 -55q-36 -19 -78 -19q-55 0 -82.5 24.5t-27.5 67.5q0 22 10 44t26 41.5t37 35.5t44 27q-9 35 -18.5 69.5t-20.5 71.5q-34 -4 -66 -6t-64 -2t-64.5 2t-67.5 6q-11 -37 -20.5 -72.5t-19.5 -70.5h-102
q25 90 53.5 180.5t57.5 177t58 167t55 149.5h99q27 -69 55.5 -149.5t57 -167t56 -177t53.5 -180.5zM293 553q-26 -77 -52.5 -158t-51.5 -161q27 -3 53 -5t52 -2t52.5 1.5t53.5 5.5q-24 80 -50 160.5t-53 158.5h-4z" />
    <glyph glyph-name="AE" unicode="&#xc6;" horiz-adv-x="831" 
d="M397 584q-18 -36 -40.5 -83t-45 -95.5t-43.5 -93.5t-36 -78q23 -2 45.5 -3t45.5 -1q22 0 42.5 1t39.5 3v350h-8zM405 0v143q-23 -2 -45.5 -3t-46.5 -1q-28 0 -57.5 1t-64.5 3q-18 -40 -32 -72.5t-30 -70.5h-109q19 46 46 104.5t57 122t62 128.5t62 124.5t56.5 110
t45.5 84.5h437l-6 -91h-277v-191h242l-6 -92h-236v-209h277l-6 -91h-369z" />
    <glyph glyph-name="AEacute" unicode="&#x1fc;" horiz-adv-x="831" 
d="M397 584q-18 -36 -40.5 -83t-45 -95.5t-43.5 -93.5t-36 -78q23 -2 45.5 -3t45.5 -1q22 0 42.5 1t39.5 3v350h-8zM405 0v143q-23 -2 -45.5 -3t-46.5 -1q-28 0 -57.5 1t-64.5 3q-18 -40 -32 -72.5t-30 -70.5h-109q19 46 46 104.5t57 122t62 128.5t62 124.5t56.5 110
t45.5 84.5h437l-6 -91h-277v-191h242l-6 -92h-236v-209h277l-6 -91h-369zM662 907l49 -76l-217 -110l-35 59z" />
    <glyph glyph-name="Cacute" unicode="&#x106;" horiz-adv-x="542" 
d="M50 337q0 168 75 260.5t222 92.5q45 0 88.5 -11t77.5 -29l-15 -93q-29 17 -66.5 27.5t-79.5 10.5q-103 0 -151 -68.5t-48 -189.5q0 -60 10.5 -108t34 -81.5t60 -52t88.5 -18.5q38 0 79.5 8.5t74.5 25.5l12 -88q-37 -19 -83 -29t-88 -10q-80 0 -135.5 25t-90 70.5t-50 109
t-15.5 141.5v7zM449 907l49 -76l-217 -110l-35 59z" />
    <glyph glyph-name="Ccedilla" unicode="&#xc7;" horiz-adv-x="542" 
d="M50 337q0 168 75 260.5t222 92.5q45 0 88.5 -11t77.5 -29l-15 -93q-29 17 -66.5 27.5t-79.5 10.5q-103 0 -151 -68.5t-48 -189.5q0 -60 10.5 -108t34 -81.5t60 -52t88.5 -18.5q38 0 79.5 8.5t74.5 25.5l12 -88q-37 -19 -83 -29t-88 -10l-9 -43q99 -5 99 -87
q0 -49 -32 -74.5t-86 -25.5q-24 0 -49 4.5t-44 12.5l16 54q18 -6 37 -9t33 -3q29 0 41 9.5t12 27.5t-12.5 27.5t-41.5 10.5q-11 0 -22 -0.5t-22 -1.5l-7 7l23 96q-62 9 -105 37.5t-70 73t-39.5 103t-12.5 127.5v7z" />
    <glyph glyph-name="Ccircumflex" unicode="&#x108;" horiz-adv-x="542" 
d="M50 337q0 168 75 260.5t222 92.5q45 0 88.5 -11t77.5 -29l-15 -93q-29 17 -66.5 27.5t-79.5 10.5q-103 0 -151 -68.5t-48 -189.5q0 -60 10.5 -108t34 -81.5t60 -52t88.5 -18.5q38 0 79.5 8.5t74.5 25.5l12 -88q-37 -19 -83 -29t-88 -10q-80 0 -135.5 25t-90 70.5t-50 109
t-15.5 141.5v7zM368 912l125 -130l-50 -44l-101 96h-6l-102 -96l-50 44l126 130h58z" />
    <glyph glyph-name="Ccaron" unicode="&#x10c;" horiz-adv-x="542" 
d="M50 337q0 168 75 260.5t222 92.5q45 0 88.5 -11t77.5 -29l-15 -93q-29 17 -66.5 27.5t-79.5 10.5q-103 0 -151 -68.5t-48 -189.5q0 -60 10.5 -108t34 -81.5t60 -52t88.5 -18.5q38 0 79.5 8.5t74.5 25.5l12 -88q-37 -19 -83 -29t-88 -10q-80 0 -135.5 25t-90 70.5t-50 109
t-15.5 141.5v7zM237 916l101 -95h6l101 95l50 -44l-125 -130h-58l-126 130z" />
    <glyph glyph-name="Cdotaccent" unicode="&#x10a;" horiz-adv-x="542" 
d="M50 337q0 168 75 260.5t222 92.5q45 0 88.5 -11t77.5 -29l-15 -93q-29 17 -66.5 27.5t-79.5 10.5q-103 0 -151 -68.5t-48 -189.5q0 -60 10.5 -108t34 -81.5t60 -52t88.5 -18.5q38 0 79.5 8.5t74.5 25.5l12 -88q-37 -19 -83 -29t-88 -10q-80 0 -135.5 25t-90 70.5t-50 109
t-15.5 141.5v7zM271 825q0 27 18.5 45.5t45.5 18.5q26 0 44 -18.5t18 -45.5t-18.5 -46t-45.5 -19q-26 0 -44 19t-18 46z" />
    <glyph glyph-name="Dcaron" unicode="&#x10e;" horiz-adv-x="631" 
d="M242 674q85 0 148.5 -14.5t106 -52t63.5 -101.5t21 -164t-24 -172t-77 -115q-41 -33 -102 -44t-146 -11h-151v674h161zM180 91h46q14 0 26 0.5t25 0.5q58 2 96.5 17t61.5 45t32.5 76t9.5 111q0 60 -8.5 105.5t-32.5 75.5t-66.5 45.5t-110.5 15.5h-79v-492zM202 915
l101 -95h6l101 95l50 -44l-125 -130h-58l-126 130z" />
    <glyph glyph-name="Dcroat" unicode="&#x110;" horiz-adv-x="631" 
d="M242 674q84 0 147.5 -14.5t106 -52t64 -101.5t21.5 -164t-24 -172t-77 -115q-41 -33 -102 -44t-146 -11h-151v297h-69v86h69v291h161zM180 383h126v-86h-126v-206h46q14 0 26 0.5t25 0.5q58 2 96.5 17t61.5 45t32.5 76.5t9.5 110.5q0 60 -8.5 105.5t-32.5 75.5
t-66.5 45.5t-110.5 15.5h-79v-200z" />
    <glyph glyph-name="Eth" unicode="&#xd0;" horiz-adv-x="631" 
d="M242 674q84 0 147.5 -14.5t106 -52t64 -101.5t21.5 -164t-24 -172t-77 -115q-41 -33 -102 -44t-146 -11h-151v297h-69v86h69v291h161zM180 383h126v-86h-126v-206h46q14 0 26 0.5t25 0.5q58 2 96.5 17t61.5 45t32.5 76.5t9.5 110.5q0 60 -8.5 105.5t-32.5 75.5
t-66.5 45.5t-110.5 15.5h-79v-200z" />
    <glyph glyph-name="Egrave" unicode="&#xc8;" horiz-adv-x="520" 
d="M475 674l-6 -91h-289v-191h254l-6 -92h-248v-209h289l-6 -91h-382v674h394zM399 780l-35 -59l-217 110l48 76z" />
    <glyph glyph-name="Eacute" unicode="&#xc9;" horiz-adv-x="520" 
d="M475 674l-6 -91h-289v-191h254l-6 -92h-248v-209h289l-6 -91h-382v674h394zM395 907l49 -76l-217 -110l-35 59z" />
    <glyph glyph-name="Ecircumflex" unicode="&#xca;" horiz-adv-x="520" 
d="M475 674l-6 -91h-289v-191h254l-6 -92h-248v-209h289l-6 -91h-382v674h394zM316 912l125 -130l-50 -44l-101 96h-6l-102 -96l-50 44l126 130h58z" />
    <glyph glyph-name="Ecaron" unicode="&#x11a;" horiz-adv-x="520" 
d="M475 674l-6 -91h-289v-191h254l-6 -92h-248v-209h289l-6 -91h-382v674h394zM185 915l101 -95h6l101 95l50 -44l-125 -130h-58l-126 130z" />
    <glyph glyph-name="Edieresis" unicode="&#xcb;" horiz-adv-x="520" 
d="M475 674l-6 -91h-289v-191h254l-6 -92h-248v-209h289l-6 -91h-382v674h394zM315 821q0 58 55 58q56 0 56 -58v-6q0 -57 -56 -57q-55 0 -55 57v6zM144 821q0 58 55 58q57 0 57 -58v-6q0 -57 -57 -57q-55 0 -55 57v6z" />
    <glyph glyph-name="Emacron" unicode="&#x112;" horiz-adv-x="520" 
d="M475 674l-6 -91h-289v-191h254l-6 -92h-248v-209h289l-6 -91h-382v674h394zM418 847v-69h-274v69h274z" />
    <glyph glyph-name="Ebreve" unicode="&#x114;" horiz-adv-x="520" 
d="M475 674l-6 -91h-289v-191h254l-6 -92h-248v-209h289l-6 -91h-382v674h394zM207 884q12 -29 32 -47t49 -18q28 0 49.5 18t31.5 47l65 -25q-15 -50 -53 -79.5t-93 -29.5q-56 0 -92.5 29.5t-53.5 79.5z" />
    <glyph glyph-name="Edotaccent" unicode="&#x116;" horiz-adv-x="520" 
d="M475 674l-6 -91h-289v-191h254l-6 -92h-248v-209h289l-6 -91h-382v674h394zM224 825q0 27 18.5 45.5t45.5 18.5q26 0 44 -18.5t18 -45.5t-18.5 -46t-45.5 -19q-26 0 -44 19t-18 46z" />
    <glyph glyph-name="Eogonek" unicode="&#x118;" horiz-adv-x="520" 
d="M475 674l-6 -91h-289v-191h254l-6 -92h-248v-209h289l-6 -91q-21 -9 -40.5 -24t-35 -33t-24.5 -38.5t-9 -39.5q0 -20 12 -29.5t33 -9.5q11 0 24 2.5t23 7.5l12 -56q-16 -8 -38.5 -13t-45.5 -5q-49 0 -76 24.5t-27 64.5q0 45 32 85.5t82 63.5h-304v674h394z" />
    <glyph glyph-name="Gcircumflex" unicode="&#x11c;" horiz-adv-x="612" 
d="M50 335q0 174 79 264.5t225 90.5q50 0 95 -12t89 -32l-14 -90q-38 18 -78 29t-84 11q-103 0 -156 -66.5t-53 -196.5q0 -125 46 -191t149 -66q50 0 94 14v178h-112l-6 86h217v-329q-39 -18 -91 -29.5t-99 -11.5q-82 0 -139 24t-93 69t-52.5 109t-16.5 143v6zM371 912
l125 -130l-50 -44l-101 96h-6l-102 -96l-50 44l126 130h58z" />
    <glyph glyph-name="Gbreve" unicode="&#x11e;" horiz-adv-x="612" 
d="M50 335q0 174 79 264.5t225 90.5q50 0 95 -12t89 -32l-14 -90q-38 18 -78 29t-84 11q-103 0 -156 -66.5t-53 -196.5q0 -125 46 -191t149 -66q50 0 94 14v178h-112l-6 86h217v-329q-39 -18 -91 -29.5t-99 -11.5q-82 0 -139 24t-93 69t-52.5 109t-16.5 143v6zM265 884
q12 -29 32 -47t49 -18q28 0 49.5 18t31.5 47l65 -25q-15 -50 -53 -79.5t-93 -29.5q-56 0 -92.5 29.5t-53.5 79.5z" />
    <glyph glyph-name="Gdotaccent" unicode="&#x120;" horiz-adv-x="612" 
d="M50 335q0 174 79 264.5t225 90.5q50 0 95 -12t89 -32l-14 -90q-38 18 -78 29t-84 11q-103 0 -156 -66.5t-53 -196.5q0 -125 46 -191t149 -66q50 0 94 14v178h-112l-6 86h217v-329q-39 -18 -91 -29.5t-99 -11.5q-82 0 -139 24t-93 69t-52.5 109t-16.5 143v6zM281 825
q0 27 18.5 45.5t45.5 18.5q26 0 44 -18.5t18 -45.5t-18.5 -46t-45.5 -19q-26 0 -44 19t-18 46z" />
    <glyph glyph-name="Gcommaaccent" unicode="&#x122;" horiz-adv-x="612" 
d="M50 335q0 174 79 264.5t225 90.5q50 0 95 -12t89 -32l-14 -90q-38 18 -78 29t-84 11q-103 0 -156 -66.5t-53 -196.5q0 -125 46 -191t149 -66q50 0 94 14v178h-112l-6 86h217v-329q-39 -18 -91 -29.5t-99 -11.5q-82 0 -139 24t-93 69t-52.5 109t-16.5 143v6zM283 -124
q0 54 54 54q53 0 53 -59q0 -29 -11.5 -70.5t-36.5 -93.5l-47 18q20 45 28 86q-17 5 -28.5 17.5t-11.5 37.5v10z" />
    <glyph glyph-name="Hcircumflex" unicode="&#x124;" horiz-adv-x="652" 
d="M180 674v-282h293v282h98v-674h-98v300h-293v-300h-99v674h99zM355 912l125 -130l-50 -44l-101 96h-6l-102 -96l-50 44l126 130h58z" />
    <glyph glyph-name="Hbar" unicode="&#x126;" horiz-adv-x="652" 
d="M180 674v-106h293v106h98v-106h51v-72h-51v-496h-98v300h-293v-300h-99v496h-51v72h51v106h99zM180 392h293v104h-293v-104z" />
    <glyph glyph-name="Igrave" unicode="&#xcc;" horiz-adv-x="266" 
d="M182 674v-674h-98v674h98zM229 780l-35 -59l-217 110l48 76z" />
    <glyph glyph-name="Iacute" unicode="&#xcd;" horiz-adv-x="266" 
d="M182 674v-674h-98v674h98zM239 907l49 -76l-217 -110l-35 59z" />
    <glyph glyph-name="Icircumflex" unicode="&#xce;" horiz-adv-x="266" 
d="M182 674v-674h-98v674h98zM163 912l125 -130l-50 -44l-101 96h-6l-102 -96l-50 44l126 130h58z" />
    <glyph glyph-name="Itilde" unicode="&#x128;" horiz-adv-x="266" 
d="M182 674v-674h-98v674h98zM-34 802q20 44 51 65t60 21q20 0 33.5 -4.5t29.5 -15.5l14 -11q13 -10 23 -15.5t24 -5.5q17 0 30 11.5t23 31.5l46 -46q-14 -32 -41 -52.5t-59 -20.5q-40 0 -69 22l-15 11q-9 7 -18 11t-20 4q-32 0 -60 -50z" />
    <glyph glyph-name="Idieresis" unicode="&#xcf;" horiz-adv-x="266" 
d="M182 674v-674h-98v674h98zM164 821q0 58 55 58q56 0 56 -58v-6q0 -57 -56 -57q-55 0 -55 57v6zM-7 821q0 58 55 58q57 0 57 -58v-6q0 -57 -57 -57q-55 0 -55 57v6z" />
    <glyph glyph-name="Imacron" unicode="&#x12a;" horiz-adv-x="266" 
d="M182 674v-674h-98v674h98zM271 847v-69h-274v69h274z" />
    <glyph glyph-name="Ibreve" unicode="&#x12c;" horiz-adv-x="266" 
d="M182 674v-674h-98v674h98zM53 884q12 -29 32 -47t49 -18q28 0 49.5 18t31.5 47l65 -25q-15 -50 -53 -79.5t-93 -29.5q-56 0 -92.5 29.5t-53.5 79.5z" />
    <glyph glyph-name="Idotaccent" unicode="&#x130;" horiz-adv-x="266" 
d="M182 674v-674h-98v674h98zM71 825q0 27 18.5 45.5t45.5 18.5q26 0 44 -18.5t18 -45.5t-18.5 -46t-45.5 -19q-26 0 -44 19t-18 46z" />
    <glyph glyph-name="Iogonek" unicode="&#x12e;" horiz-adv-x="266" 
d="M182 674v-674q-62 -27 -95.5 -60t-33.5 -70q0 -44 44 -44q25 0 48 10l11 -55q-16 -8 -36.5 -13.5t-40.5 -5.5q-53 0 -81.5 25t-28.5 67q0 43 30.5 84.5t84.5 66.5v669h98z" />
    <glyph glyph-name="IJ" unicode="&#x132;" horiz-adv-x="671" 
d="M182 674v-674h-98v674h98zM591 674v-431q0 -30 -2 -59t-8.5 -55t-18 -49t-29.5 -41q-28 -27 -68.5 -41t-89.5 -14q-24 0 -47.5 4t-43.5 11l5 81q18 -6 37.5 -9t35.5 -3q76 0 107 44q16 22 19.5 53.5t3.5 78.5v430h99z" />
    <glyph glyph-name="Jcircumflex" unicode="&#x134;" horiz-adv-x="413" 
d="M333 674v-431q0 -30 -2 -59t-8.5 -55t-18 -49t-29.5 -41q-28 -27 -68.5 -41t-89.5 -14q-24 0 -47.5 4t-43.5 11l5 81q18 -6 37.5 -9t35.5 -3q76 0 107 44q16 22 19.5 53.5t3.5 78.5v430h99zM314 912l125 -130l-50 -44l-101 96h-6l-102 -96l-50 44l126 130h58z" />
    <glyph glyph-name="Kcommaaccent" unicode="&#x136;" horiz-adv-x="557" 
d="M180 674v-317q36 36 67.5 72t61.5 74t59 80.5t60 90.5h102q-51 -85 -103.5 -160.5t-115.5 -144.5l229 -369h-116l-181 305q-17 -17 -33 -32t-30 -27v-246h-99v674h99zM246 -124q0 54 54 54q53 0 53 -59q0 -29 -11.5 -70.5t-36.5 -93.5l-47 18q20 45 28 86
q-17 5 -28.5 17.5t-11.5 37.5v10z" />
    <glyph glyph-name="Lacute" unicode="&#x139;" horiz-adv-x="475" 
d="M180 674v-583h266l-6 -91h-359v674h99zM240 907l49 -76l-217 -110l-35 59z" />
    <glyph glyph-name="Lcaron" unicode="&#x13d;" horiz-adv-x="475" 
d="M180 674v-583h266l-6 -91h-359v674h99zM296 638q0 54 54 54q53 0 53 -59q0 -29 -11.5 -70.5t-36.5 -93.5l-47 18q20 45 28 86q-17 5 -28.5 17.5t-11.5 37.5v10z" />
    <glyph glyph-name="Lcommaaccent" unicode="&#x13b;" horiz-adv-x="475" 
d="M180 674v-583h266l-6 -91h-359v674h99zM211 -124q0 54 54 54q53 0 53 -59q0 -29 -11.5 -70.5t-36.5 -93.5l-47 18q20 45 28 86q-17 5 -28.5 17.5t-11.5 37.5v10z" />
    <glyph glyph-name="Lslash" unicode="&#x141;" horiz-adv-x="475" 
d="M180 674v-262l106 109v-92l-106 -110v-228h266l-6 -91h-359v223l-74 -77v93l74 76v359h99z" />
    <glyph glyph-name="Ldot" unicode="&#x13f;" horiz-adv-x="475" 
d="M180 674v-583h266l-6 -91h-359v674h99zM363 442q26 0 44 -19t18 -46q0 -28 -18.5 -46.5t-45.5 -18.5q-26 0 -44 18.5t-18 46.5q0 27 18.5 46t45.5 19z" />
    <glyph glyph-name="Nacute" unicode="&#x143;" horiz-adv-x="678" 
d="M167 674l338 -492h1v492h92v-674h-79l-346 500h-1v-500h-91v674h86zM449 907l49 -76l-217 -110l-35 59z" />
    <glyph glyph-name="Ncaron" unicode="&#x147;" horiz-adv-x="678" 
d="M167 674l338 -492h1v492h92v-674h-79l-346 500h-1v-500h-91v674h86zM235 915l101 -95h6l101 95l50 -44l-125 -130h-58l-126 130z" />
    <glyph glyph-name="Ntilde" unicode="&#xd1;" horiz-adv-x="678" 
d="M167 674l338 -492h1v492h92v-674h-79l-346 500h-1v-500h-91v674h86zM171 802q20 44 51 65t60 21q20 0 33.5 -4.5t29.5 -15.5l14 -11q13 -10 23 -15.5t24 -5.5q17 0 30 11.5t23 31.5l46 -46q-14 -32 -41 -52.5t-59 -20.5q-40 0 -69 22l-15 11q-9 7 -18 11t-20 4
q-32 0 -60 -50z" />
    <glyph glyph-name="Ncommaaccent" unicode="&#x145;" horiz-adv-x="678" 
d="M167 674l338 -492h1v492h92v-674h-79l-346 500h-1v-500h-91v674h86zM303 -124q0 54 54 54q53 0 53 -59q0 -29 -11.5 -70.5t-36.5 -93.5l-47 18q20 45 28 86q-17 5 -28.5 17.5t-11.5 37.5v10z" />
    <glyph glyph-name="Eng" unicode="&#x14a;" horiz-adv-x="678" 
d="M167 674l338 -492v492h93v-627q0 -56 -9 -102t-32 -79t-61.5 -51t-97.5 -18q-26 0 -50 3.5t-41 9.5l4 77q16 -4 36.5 -7t35.5 -3q68 0 96 33.5t28 99.5v15l-334 475h-1v-500h-91v674h86z" />
    <glyph glyph-name="Ograve" unicode="&#xd2;" horiz-adv-x="630" 
d="M50 342q0 76 14 140t45 110t81.5 72t124.5 26q73 0 124 -26t82 -72t45 -110t14 -140v-8q0 -76 -14 -140.5t-45 -111t-82 -72.5t-124 -26q-74 0 -124.5 26t-81.5 72.5t-45 111t-14 140.5v8zM315 598q-45 0 -76 -17.5t-50 -50.5t-27.5 -81.5t-8.5 -110.5q0 -126 36 -193.5
t126 -67.5q45 0 76 17t50 50t27 81.5t8 111.5t-8 111.5t-27 81.5t-50 50.5t-76 17.5zM435 780l-35 -59l-217 110l48 76z" />
    <glyph glyph-name="Oacute" unicode="&#xd3;" horiz-adv-x="630" 
d="M50 342q0 76 14 140t45 110t81.5 72t124.5 26q73 0 124 -26t82 -72t45 -110t14 -140v-8q0 -76 -14 -140.5t-45 -111t-82 -72.5t-124 -26q-74 0 -124.5 26t-81.5 72.5t-45 111t-14 140.5v8zM315 598q-45 0 -76 -17.5t-50 -50.5t-27.5 -81.5t-8.5 -110.5q0 -126 36 -193.5
t126 -67.5q45 0 76 17t50 50t27 81.5t8 111.5t-8 111.5t-27 81.5t-50 50.5t-76 17.5zM416 907l49 -76l-217 -110l-35 59z" />
    <glyph glyph-name="Ocircumflex" unicode="&#xd4;" horiz-adv-x="630" 
d="M50 342q0 76 14 140t45 110t81.5 72t124.5 26q73 0 124 -26t82 -72t45 -110t14 -140v-8q0 -76 -14 -140.5t-45 -111t-82 -72.5t-124 -26q-74 0 -124.5 26t-81.5 72.5t-45 111t-14 140.5v8zM315 598q-45 0 -76 -17.5t-50 -50.5t-27.5 -81.5t-8.5 -110.5q0 -126 36 -193.5
t126 -67.5q45 0 76 17t50 50t27 81.5t8 111.5t-8 111.5t-27 81.5t-50 50.5t-76 17.5zM347 912l125 -130l-50 -44l-101 96h-6l-102 -96l-50 44l126 130h58z" />
    <glyph glyph-name="Otilde" unicode="&#xd5;" horiz-adv-x="630" 
d="M50 342q0 76 14 140t45 110t81.5 72t124.5 26q73 0 124 -26t82 -72t45 -110t14 -140v-8q0 -76 -14 -140.5t-45 -111t-82 -72.5t-124 -26q-74 0 -124.5 26t-81.5 72.5t-45 111t-14 140.5v8zM315 598q-45 0 -76 -17.5t-50 -50.5t-27.5 -81.5t-8.5 -110.5q0 -126 36 -193.5
t126 -67.5q45 0 76 17t50 50t27 81.5t8 111.5t-8 111.5t-27 81.5t-50 50.5t-76 17.5zM149 802q20 44 51 65t60 21q20 0 33.5 -4.5t29.5 -15.5l14 -11q13 -10 23 -15.5t24 -5.5q17 0 30 11.5t23 31.5l46 -46q-14 -32 -41 -52.5t-59 -20.5q-40 0 -69 22l-15 11q-9 7 -18 11
t-20 4q-32 0 -60 -50z" />
    <glyph glyph-name="Odieresis" unicode="&#xd6;" horiz-adv-x="630" 
d="M50 342q0 76 14 140t45 110t81.5 72t124.5 26q73 0 124 -26t82 -72t45 -110t14 -140v-8q0 -76 -14 -140.5t-45 -111t-82 -72.5t-124 -26q-74 0 -124.5 26t-81.5 72.5t-45 111t-14 140.5v8zM315 598q-45 0 -76 -17.5t-50 -50.5t-27.5 -81.5t-8.5 -110.5q0 -126 36 -193.5
t126 -67.5q45 0 76 17t50 50t27 81.5t8 111.5t-8 111.5t-27 81.5t-50 50.5t-76 17.5zM346 821q0 58 55 58q56 0 56 -58v-6q0 -57 -56 -57q-55 0 -55 57v6zM175 821q0 58 55 58q57 0 57 -58v-6q0 -57 -57 -57q-55 0 -55 57v6z" />
    <glyph glyph-name="Omacron" unicode="&#x14c;" horiz-adv-x="630" 
d="M50 342q0 76 14 140t45 110t81.5 72t124.5 26q73 0 124 -26t82 -72t45 -110t14 -140v-8q0 -76 -14 -140.5t-45 -111t-82 -72.5t-124 -26q-74 0 -124.5 26t-81.5 72.5t-45 111t-14 140.5v8zM315 598q-45 0 -76 -17.5t-50 -50.5t-27.5 -81.5t-8.5 -110.5q0 -126 36 -193.5
t126 -67.5q45 0 76 17t50 50t27 81.5t8 111.5t-8 111.5t-27 81.5t-50 50.5t-76 17.5zM452 847v-69h-274v69h274z" />
    <glyph glyph-name="Obreve" unicode="&#x14e;" horiz-adv-x="630" 
d="M50 342q0 76 14 140t45 110t81.5 72t124.5 26q73 0 124 -26t82 -72t45 -110t14 -140v-8q0 -76 -14 -140.5t-45 -111t-82 -72.5t-124 -26q-74 0 -124.5 26t-81.5 72.5t-45 111t-14 140.5v8zM315 598q-45 0 -76 -17.5t-50 -50.5t-27.5 -81.5t-8.5 -110.5q0 -126 36 -193.5
t126 -67.5q45 0 76 17t50 50t27 81.5t8 111.5t-8 111.5t-27 81.5t-50 50.5t-76 17.5zM235 884q12 -29 32 -47t49 -18q28 0 49.5 18t31.5 47l65 -25q-15 -50 -53 -79.5t-93 -29.5q-56 0 -92.5 29.5t-53.5 79.5z" />
    <glyph glyph-name="Ohungarumlaut" unicode="&#x150;" horiz-adv-x="630" 
d="M50 342q0 76 14 140t45 110t81.5 72t124.5 26q73 0 124 -26t82 -72t45 -110t14 -140v-8q0 -76 -14 -140.5t-45 -111t-82 -72.5t-124 -26q-74 0 -124.5 26t-81.5 72.5t-45 111t-14 140.5v8zM315 598q-45 0 -76 -17.5t-50 -50.5t-27.5 -81.5t-8.5 -110.5q0 -126 36 -193.5
t126 -67.5q45 0 76 17t50 50t27 81.5t8 111.5t-8 111.5t-27 81.5t-50 50.5t-76 17.5zM378 884l-152 -163l-53 41l135 170zM550 884l-152 -163l-54 41l136 170z" />
    <glyph glyph-name="Oslash" unicode="&#xd8;" horiz-adv-x="630" 
d="M50 342q0 76 14 140t45 110t81.5 72t124.5 26t127 -28l49 101l57 -27l-54 -112q46 -46 66 -118.5t20 -163.5v-8q0 -76 -14 -140.5t-45 -111t-82 -72.5t-124 -26q-35 0 -65 6.5t-55 17.5l-47 -98l-56 30l50 103q-50 47 -71 122t-21 169v8zM400 575q-35 23 -85 23
q-45 0 -76 -17.5t-50 -50.5t-27.5 -81.5t-8.5 -110.5q0 -64 8.5 -113t28.5 -83zM237 95q31 -18 78 -18q45 0 76 17t50 50t27 81.5t8 111.5q0 60 -7 106.5t-24 79.5z" />
    <glyph glyph-name="Oslashacute" unicode="&#x1fe;" horiz-adv-x="630" 
d="M50 342q0 76 14 140t45 110t81.5 72t124.5 26t127 -28l49 101l57 -27l-54 -112q46 -46 66 -118.5t20 -163.5v-8q0 -76 -14 -140.5t-45 -111t-82 -72.5t-124 -26q-35 0 -65 6.5t-55 17.5l-47 -98l-56 30l50 103q-50 47 -71 122t-21 169v8zM400 575q-35 23 -85 23
q-45 0 -76 -17.5t-50 -50.5t-27.5 -81.5t-8.5 -110.5q0 -64 8.5 -113t28.5 -83zM237 95q31 -18 78 -18q45 0 76 17t50 50t27 81.5t8 111.5q0 60 -7 106.5t-24 79.5zM417 907l49 -76l-217 -110l-35 59z" />
    <glyph glyph-name="OE" unicode="&#x152;" horiz-adv-x="857" 
d="M426 0v40q-20 -26 -56 -41t-78 -15q-65 0 -110.5 25.5t-75 72t-43 110.5t-13.5 141v8q0 75 13.5 138.5t42.5 110.5t74.5 73.5t110.5 26.5q42 0 75.5 -13t59.5 -36v33h386l-6 -91h-289v-191h254l-6 -92h-248v-209h287l-6 -91h-372zM418 557q-21 19 -48.5 31t-61.5 12
q-82 0 -118.5 -68.5t-36.5 -193.5q0 -126 35.5 -193.5t121.5 -67.5q34 0 62.5 12.5t45.5 32.5v435z" />
    <glyph glyph-name="Thorn" unicode="&#xde;" horiz-adv-x="542" 
d="M179 674v-110h53q57 0 106.5 -8t85.5 -31.5t57 -65.5t21 -110q0 -113 -63 -166t-178 -53h-82v-130h-98v674h98zM179 222h40q42 0 75 2.5t56 14.5t35 37.5t12 72.5q0 67 -37 94.5t-112 27.5h-69v-249z" />
    <glyph glyph-name="Racute" unicode="&#x154;" horiz-adv-x="562" 
d="M246 674q55 0 103 -7.5t83 -29.5t55.5 -61t20.5 -102q0 -81 -29.5 -132t-80.5 -71l123 -271h-104l-106 249q-15 -1 -32.5 -1.5t-31.5 -0.5h-67v-247h-99v674h165zM180 338h63q40 0 70.5 3.5t50.5 17t30 40t10 71.5q0 62 -32.5 87.5t-110.5 25.5h-81v-245zM385 907l49 -76
l-217 -110l-35 59z" />
    <glyph glyph-name="Rcaron" unicode="&#x158;" horiz-adv-x="562" 
d="M246 674q55 0 103 -7.5t83 -29.5t55.5 -61t20.5 -102q0 -81 -29.5 -132t-80.5 -71l123 -271h-104l-106 249q-15 -1 -32.5 -1.5t-31.5 -0.5h-67v-247h-99v674h165zM180 338h63q40 0 70.5 3.5t50.5 17t30 40t10 71.5q0 62 -32.5 87.5t-110.5 25.5h-81v-245zM172 915
l101 -95h6l101 95l50 -44l-125 -130h-58l-126 130z" />
    <glyph glyph-name="Rcommaaccent" unicode="&#x156;" horiz-adv-x="562" 
d="M246 674q55 0 103 -7.5t83 -29.5t55.5 -61t20.5 -102q0 -81 -29.5 -132t-80.5 -71l123 -271h-104l-106 249q-15 -1 -32.5 -1.5t-31.5 -0.5h-67v-247h-99v674h165zM180 338h63q40 0 70.5 3.5t50.5 17t30 40t10 71.5q0 62 -32.5 87.5t-110.5 25.5h-81v-245zM244 -124
q0 54 54 54q53 0 53 -59q0 -29 -11.5 -70.5t-36.5 -93.5l-47 18q20 45 28 86q-17 5 -28.5 17.5t-11.5 37.5v10z" />
    <glyph glyph-name="Sacute" unicode="&#x15a;" horiz-adv-x="498" 
d="M408 568q-31 14 -64.5 22t-64.5 8q-53 0 -82 -16q-46 -25 -46 -80q0 -25 9 -42.5t24 -31t35.5 -23t43.5 -17.5l40 -15q35 -13 64 -27.5t49.5 -36t31.5 -52t11 -73.5q0 -101 -61 -150.5t-173 -49.5q-41 0 -87.5 9.5t-83.5 23.5l9 95q38 -18 80.5 -28t74.5 -10q65 0 101 22
t36 81q0 26 -7.5 44t-22 30t-34.5 21t-44 17l-39 14q-35 12 -64 29t-50.5 40.5t-33.5 54.5t-12 72q0 45 16.5 80.5t45.5 60t70 37.5t91 13q42 0 81 -8.5t67 -20.5zM350 907l49 -76l-217 -110l-35 59z" />
    <glyph glyph-name="Scircumflex" unicode="&#x15c;" horiz-adv-x="498" 
d="M408 568q-31 14 -64.5 22t-64.5 8q-53 0 -82 -16q-46 -25 -46 -80q0 -25 9 -42.5t24 -31t35.5 -23t43.5 -17.5l40 -15q35 -13 64 -27.5t49.5 -36t31.5 -52t11 -73.5q0 -101 -61 -150.5t-173 -49.5q-41 0 -87.5 9.5t-83.5 23.5l9 95q38 -18 80.5 -28t74.5 -10q65 0 101 22
t36 81q0 26 -7.5 44t-22 30t-34.5 21t-44 17l-39 14q-35 12 -64 29t-50.5 40.5t-33.5 54.5t-12 72q0 45 16.5 80.5t45.5 60t70 37.5t91 13q42 0 81 -8.5t67 -20.5zM285 912l125 -130l-50 -44l-101 96h-6l-102 -96l-50 44l126 130h58z" />
    <glyph glyph-name="Scaron" unicode="&#x160;" horiz-adv-x="498" 
d="M408 568q-31 14 -64.5 22t-64.5 8q-53 0 -82 -16q-46 -25 -46 -80q0 -25 9 -42.5t24 -31t35.5 -23t43.5 -17.5l40 -15q35 -13 64 -27.5t49.5 -36t31.5 -52t11 -73.5q0 -101 -61 -150.5t-173 -49.5q-41 0 -87.5 9.5t-83.5 23.5l9 95q38 -18 80.5 -28t74.5 -10q65 0 101 22
t36 81q0 26 -7.5 44t-22 30t-34.5 21t-44 17l-39 14q-35 12 -64 29t-50.5 40.5t-33.5 54.5t-12 72q0 45 16.5 80.5t45.5 60t70 37.5t91 13q42 0 81 -8.5t67 -20.5zM155 915l101 -95h6l101 95l50 -44l-125 -130h-58l-126 130z" />
    <glyph glyph-name="Scedilla" unicode="&#x15e;" horiz-adv-x="498" 
d="M408 568q-31 14 -64.5 22t-64.5 8q-53 0 -82 -16q-46 -25 -46 -80q0 -25 9 -42.5t24 -31t35.5 -23t43.5 -17.5l40 -15q35 -13 64 -27.5t49.5 -36t31.5 -52t11 -73.5q0 -91 -49 -139.5t-140 -57.5l-10 -46q99 -5 99 -87q0 -49 -32 -74.5t-86 -25.5q-24 0 -49 4.5t-44 12.5
l16 54q18 -6 37 -9t33 -3q29 0 41 9.5t12 27.5t-12.5 27.5t-41.5 10.5q-11 0 -22 -0.5t-22 -1.5l-7 7l22 92q-38 2 -78 10.5t-72 21.5l9 95q38 -18 80.5 -28t74.5 -10q65 0 101 22t36 81q0 26 -7.5 44t-22 30t-34.5 21t-44 17l-39 14q-35 12 -64 29t-50.5 40.5t-33.5 54.5
t-12 72q0 45 16.5 80.5t45.5 60t70 37.5t91 13q42 0 81 -8.5t67 -20.5z" />
    <glyph glyph-name="Scommaaccent" unicode="&#x218;" horiz-adv-x="498" 
d="M408 568q-31 14 -64.5 22t-64.5 8q-53 0 -82 -16q-46 -25 -46 -80q0 -25 9 -42.5t24 -31t35.5 -23t43.5 -17.5l40 -15q35 -13 64 -27.5t49.5 -36t31.5 -52t11 -73.5q0 -101 -61 -150.5t-173 -49.5q-41 0 -87.5 9.5t-83.5 23.5l9 95q38 -18 80.5 -28t74.5 -10q65 0 101 22
t36 81q0 26 -7.5 44t-22 30t-34.5 21t-44 17l-39 14q-35 12 -64 29t-50.5 40.5t-33.5 54.5t-12 72q0 45 16.5 80.5t45.5 60t70 37.5t91 13q42 0 81 -8.5t67 -20.5zM207 -124q0 54 54 54q53 0 53 -59q0 -29 -11.5 -70.5t-36.5 -93.5l-47 18q20 45 28 86q-17 5 -28.5 17.5
t-11.5 37.5v10z" />
    <glyph glyph-name="Tcaron" unicode="&#x164;" horiz-adv-x="529" 
d="M312 0h-98v583h-183v91h468l-6 -91h-181v-583zM159 915l101 -95h6l101 95l50 -44l-125 -130h-58l-126 130z" />
    <glyph glyph-name="Tcommaaccent" unicode="&#x162;" horiz-adv-x="529" 
d="M312 0h-98v583h-183v91h468l-6 -91h-181v-583zM209 -124q0 54 54 54q53 0 53 -59q0 -29 -11.5 -70.5t-36.5 -93.5l-47 18q20 45 28 86q-17 5 -28.5 17.5t-11.5 37.5v10z" />
    <glyph glyph-name="uni021A" unicode="&#x21a;" horiz-adv-x="529" 
d="M312 0h-98v583h-183v91h468l-6 -91h-181v-583zM209 -124q0 54 54 54q53 0 53 -59q0 -29 -11.5 -70.5t-36.5 -93.5l-47 18q20 45 28 86q-17 5 -28.5 17.5t-11.5 37.5v10z" />
    <glyph glyph-name="Tbar" unicode="&#x166;" horiz-adv-x="529" 
d="M312 380h111v-80h-111v-300h-98v300h-111v80h111v203h-183v91h468l-6 -91h-181v-203z" />
    <glyph glyph-name="Ugrave" unicode="&#xd9;" horiz-adv-x="640" 
d="M177 674v-419q0 -44 6.5 -77.5t23 -56t44 -33.5t69.5 -11t70 11t44.5 33.5t23 56t6.5 77.5v419h99v-426q0 -65 -12.5 -114t-41 -82.5t-75 -50.5t-114.5 -17t-114 17t-74.5 50.5t-41 82.5t-12.5 114v426h99zM436 780l-35 -59l-217 110l48 76z" />
    <glyph glyph-name="Uacute" unicode="&#xda;" horiz-adv-x="640" 
d="M177 674v-419q0 -44 6.5 -77.5t23 -56t44 -33.5t69.5 -11t70 11t44.5 33.5t23 56t6.5 77.5v419h99v-426q0 -65 -12.5 -114t-41 -82.5t-75 -50.5t-114.5 -17t-114 17t-74.5 50.5t-41 82.5t-12.5 114v426h99zM428 907l49 -76l-217 -110l-35 59z" />
    <glyph glyph-name="Ucircumflex" unicode="&#xdb;" horiz-adv-x="640" 
d="M177 674v-419q0 -44 6.5 -77.5t23 -56t44 -33.5t69.5 -11t70 11t44.5 33.5t23 56t6.5 77.5v419h99v-426q0 -65 -12.5 -114t-41 -82.5t-75 -50.5t-114.5 -17t-114 17t-74.5 50.5t-41 82.5t-12.5 114v426h99zM353 912l125 -130l-50 -44l-101 96h-6l-102 -96l-50 44l126 130
h58z" />
    <glyph glyph-name="Utilde" unicode="&#x168;" horiz-adv-x="640" 
d="M177 674v-419q0 -44 6.5 -77.5t23 -56t44 -33.5t69.5 -11t70 11t44.5 33.5t23 56t6.5 77.5v419h99v-426q0 -65 -12.5 -114t-41 -82.5t-75 -50.5t-114.5 -17t-114 17t-74.5 50.5t-41 82.5t-12.5 114v426h99zM150 802q20 44 51 65t60 21q20 0 33.5 -4.5t29.5 -15.5l14 -11
q13 -10 23 -15.5t24 -5.5q17 0 30 11.5t23 31.5l46 -46q-14 -32 -41 -52.5t-59 -20.5q-40 0 -69 22l-15 11q-9 7 -18 11t-20 4q-32 0 -60 -50z" />
    <glyph glyph-name="Udieresis" unicode="&#xdc;" horiz-adv-x="640" 
d="M177 674v-419q0 -44 6.5 -77.5t23 -56t44 -33.5t69.5 -11t70 11t44.5 33.5t23 56t6.5 77.5v419h99v-426q0 -65 -12.5 -114t-41 -82.5t-75 -50.5t-114.5 -17t-114 17t-74.5 50.5t-41 82.5t-12.5 114v426h99zM351 821q0 58 55 58q56 0 56 -58v-6q0 -57 -56 -57
q-55 0 -55 57v6zM180 821q0 58 55 58q57 0 57 -58v-6q0 -57 -57 -57q-55 0 -55 57v6z" />
    <glyph glyph-name="Umacron" unicode="&#x16a;" horiz-adv-x="640" 
d="M177 674v-419q0 -44 6.5 -77.5t23 -56t44 -33.5t69.5 -11t70 11t44.5 33.5t23 56t6.5 77.5v419h99v-426q0 -65 -12.5 -114t-41 -82.5t-75 -50.5t-114.5 -17t-114 17t-74.5 50.5t-41 82.5t-12.5 114v426h99zM457 847v-69h-274v69h274z" />
    <glyph glyph-name="Ubreve" unicode="&#x16c;" horiz-adv-x="640" 
d="M177 674v-419q0 -44 6.5 -77.5t23 -56t44 -33.5t69.5 -11t70 11t44.5 33.5t23 56t6.5 77.5v419h99v-426q0 -65 -12.5 -114t-41 -82.5t-75 -50.5t-114.5 -17t-114 17t-74.5 50.5t-41 82.5t-12.5 114v426h99zM239 884q12 -29 32 -47t49 -18q28 0 49.5 18t31.5 47l65 -25
q-15 -50 -53 -79.5t-93 -29.5q-56 0 -92.5 29.5t-53.5 79.5z" />
    <glyph glyph-name="Uring" unicode="&#x16e;" horiz-adv-x="640" 
d="M177 674v-419q0 -44 6.5 -77.5t23 -56t44 -33.5t69.5 -11t70 11t44.5 33.5t23 56t6.5 77.5v419h99v-426q0 -65 -12.5 -114t-41 -82.5t-75 -50.5t-114.5 -17t-114 17t-74.5 50.5t-41 82.5t-12.5 114v426h99zM320 928q41 0 68.5 -27.5t27.5 -69.5q0 -41 -28 -69t-68 -28
q-42 0 -69.5 28t-27.5 69q0 42 28 69.5t69 27.5zM320 870q-18 0 -28 -11t-10 -28t10 -28t28 -11q17 0 27 11t10 28t-10 28t-27 11z" />
    <glyph glyph-name="Uhungarumlaut" unicode="&#x170;" horiz-adv-x="640" 
d="M177 674v-419q0 -44 6.5 -77.5t23 -56t44 -33.5t69.5 -11t70 11t44.5 33.5t23 56t6.5 77.5v419h99v-426q0 -65 -12.5 -114t-41 -82.5t-75 -50.5t-114.5 -17t-114 17t-74.5 50.5t-41 82.5t-12.5 114v426h99zM384 884l-152 -163l-53 41l135 170zM556 884l-152 -163l-54 41
l136 170z" />
    <glyph glyph-name="Uogonek" unicode="&#x172;" horiz-adv-x="640" 
d="M177 674v-419q0 -44 6.5 -77.5t23 -56t44 -33.5t69.5 -11t70 11t44.5 33.5t23 56t6.5 77.5v419h99v-426q0 -49 -6.5 -88t-21.5 -69t-40 -52.5t-62 -38.5q-53 -23 -81.5 -60t-28.5 -75q0 -20 12 -29.5t33 -9.5q11 0 24 2.5t23 7.5l12 -56q-16 -8 -38.5 -13t-45.5 -5
q-49 0 -76 24.5t-27 64.5q0 38 23.5 73t63.5 60h-7q-68 0 -114 17t-74.5 50.5t-41 82.5t-12.5 114v426h99z" />
    <glyph glyph-name="Wgrave" unicode="&#x1e80;" horiz-adv-x="891" 
d="M127 674q13 -63 30 -135.5t36 -145.5t38.5 -142t37.5 -124h2q11 42 21.5 83.5t21 83.5t21 86.5t21.5 94.5q10 45 20 95.5t18 103.5h108q8 -53 18.5 -103.5t21.5 -95.5q12 -50 22.5 -94t21 -86t22 -83t23.5 -85h2q17 55 35 124t36 142t34 145.5t28 135.5h103
q-19 -87 -41.5 -177.5t-46.5 -177.5t-48 -168.5t-47 -150.5h-111q-15 52 -31.5 114t-33 129t-32.5 135.5t-29 133.5h-2q-14 -65 -29 -133t-31.5 -134t-33 -128.5t-32.5 -116.5h-109q-24 71 -49 152.5t-50 168t-48 176.5t-43 177h105zM555 780l-35 -59l-217 110l48 76z" />
    <glyph glyph-name="Wacute" unicode="&#x1e82;" horiz-adv-x="891" 
d="M127 674q13 -63 30 -135.5t36 -145.5t38.5 -142t37.5 -124h2q11 42 21.5 83.5t21 83.5t21 86.5t21.5 94.5q10 45 20 95.5t18 103.5h108q8 -53 18.5 -103.5t21.5 -95.5q12 -50 22.5 -94t21 -86t22 -83t23.5 -85h2q17 55 35 124t36 142t34 145.5t28 135.5h103
q-19 -87 -41.5 -177.5t-46.5 -177.5t-48 -168.5t-47 -150.5h-111q-15 52 -31.5 114t-33 129t-32.5 135.5t-29 133.5h-2q-14 -65 -29 -133t-31.5 -134t-33 -128.5t-32.5 -116.5h-109q-24 71 -49 152.5t-50 168t-48 176.5t-43 177h105zM553 907l49 -76l-217 -110l-35 59z" />
    <glyph glyph-name="Wcircumflex" unicode="&#x174;" horiz-adv-x="891" 
d="M127 674q13 -63 30 -135.5t36 -145.5t38.5 -142t37.5 -124h2q11 42 21.5 83.5t21 83.5t21 86.5t21.5 94.5q10 45 20 95.5t18 103.5h108q8 -53 18.5 -103.5t21.5 -95.5q12 -50 22.5 -94t21 -86t22 -83t23.5 -85h2q17 55 35 124t36 142t34 145.5t28 135.5h103
q-19 -87 -41.5 -177.5t-46.5 -177.5t-48 -168.5t-47 -150.5h-111q-15 52 -31.5 114t-33 129t-32.5 135.5t-29 133.5h-2q-14 -65 -29 -133t-31.5 -134t-33 -128.5t-32.5 -116.5h-109q-24 71 -49 152.5t-50 168t-48 176.5t-43 177h105zM478 912l125 -130l-50 -44l-101 96h-6
l-102 -96l-50 44l126 130h58z" />
    <glyph glyph-name="Wdieresis" unicode="&#x1e84;" horiz-adv-x="891" 
d="M127 674q13 -63 30 -135.5t36 -145.5t38.5 -142t37.5 -124h2q11 42 21.5 83.5t21 83.5t21 86.5t21.5 94.5q10 45 20 95.5t18 103.5h108q8 -53 18.5 -103.5t21.5 -95.5q12 -50 22.5 -94t21 -86t22 -83t23.5 -85h2q17 55 35 124t36 142t34 145.5t28 135.5h103
q-19 -87 -41.5 -177.5t-46.5 -177.5t-48 -168.5t-47 -150.5h-111q-15 52 -31.5 114t-33 129t-32.5 135.5t-29 133.5h-2q-14 -65 -29 -133t-31.5 -134t-33 -128.5t-32.5 -116.5h-109q-24 71 -49 152.5t-50 168t-48 176.5t-43 177h105zM478 821q0 58 55 58q56 0 56 -58v-6
q0 -57 -56 -57q-55 0 -55 57v6zM307 821q0 58 55 58q57 0 57 -58v-6q0 -57 -57 -57q-55 0 -55 57v6z" />
    <glyph glyph-name="Ygrave" unicode="&#x1ef2;" horiz-adv-x="533" 
d="M127 674q32 -97 65.5 -185.5t72.5 -166.5h3q39 78 72.5 166.5t65.5 185.5h105q-19 -58 -42 -117t-48 -117t-51.5 -113t-53.5 -104v-223h-99v223q-27 49 -53.5 104t-51.5 113t-48 117t-42 117h105zM379 780l-35 -59l-217 110l48 76z" />
    <glyph glyph-name="Yacute" unicode="&#xdd;" horiz-adv-x="533" 
d="M127 674q32 -97 65.5 -185.5t72.5 -166.5h3q39 78 72.5 166.5t65.5 185.5h105q-19 -58 -42 -117t-48 -117t-51.5 -113t-53.5 -104v-223h-99v223q-27 49 -53.5 104t-51.5 113t-48 117t-42 117h105zM382 907l49 -76l-217 -110l-35 59z" />
    <glyph glyph-name="Ycircumflex" unicode="&#x176;" horiz-adv-x="533" 
d="M127 674q32 -97 65.5 -185.5t72.5 -166.5h3q39 78 72.5 166.5t65.5 185.5h105q-19 -58 -42 -117t-48 -117t-51.5 -113t-53.5 -104v-223h-99v223q-27 49 -53.5 104t-51.5 113t-48 117t-42 117h105zM297 912l125 -130l-50 -44l-101 96h-6l-102 -96l-50 44l126 130h58z" />
    <glyph glyph-name="Ydieresis" unicode="&#x178;" horiz-adv-x="533" 
d="M127 674q32 -97 65.5 -185.5t72.5 -166.5h3q39 78 72.5 166.5t65.5 185.5h105q-19 -58 -42 -117t-48 -117t-51.5 -113t-53.5 -104v-223h-99v223q-27 49 -53.5 104t-51.5 113t-48 117t-42 117h105zM296 821q0 58 55 58q56 0 56 -58v-6q0 -57 -56 -57q-55 0 -55 57v6z
M125 821q0 58 55 58q57 0 57 -58v-6q0 -57 -57 -57q-55 0 -55 57v6z" />
    <glyph glyph-name="Zacute" unicode="&#x179;" horiz-adv-x="533" 
d="M482 674v-79l-315 -504h320l-11 -91h-424l-7 81l316 502h-307v91h428zM375 907l49 -76l-217 -110l-35 59z" />
    <glyph glyph-name="Zcaron" unicode="&#x17d;" horiz-adv-x="533" 
d="M482 674v-79l-315 -504h320l-11 -91h-424l-7 81l316 502h-307v91h428zM167 915l101 -95h6l101 95l50 -44l-125 -130h-58l-126 130z" />
    <glyph glyph-name="Zdotaccent" unicode="&#x17b;" horiz-adv-x="533" 
d="M482 674v-79l-315 -504h320l-11 -91h-424l-7 81l316 502h-307v91h428zM210 825q0 27 18.5 45.5t45.5 18.5q26 0 44 -18.5t18 -45.5t-18.5 -46t-45.5 -19q-26 0 -44 19t-18 46z" />
    <glyph glyph-name="agrave" unicode="&#xe0;" horiz-adv-x="497" 
d="M71 467q36 14 83 24t89 10q45 0 79.5 -8t58 -27.5t35.5 -52.5t12 -82v-244q0 -25 6 -34t29 -9v-53q-8 -3 -21.5 -5t-26.5 -2q-28 0 -47.5 14.5t-24.5 45.5q-28 -28 -66.5 -44t-86.5 -16q-32 0 -59.5 9.5t-48 28t-32.5 45.5t-12 62q0 85 65 132t209 47h25v19q0 30 -5 47
t-20 30q-13 11 -34 15.5t-47 4.5q-35 0 -73.5 -9t-72.5 -23zM322 239q-33 0 -67 -3t-61 -13.5t-44 -30.5t-17 -54q0 -33 20 -55.5t63 -22.5q38 0 70 16.5t51 37.5v125h-15zM370 603l-35 -59l-217 111l48 75z" />
    <glyph glyph-name="aacute" unicode="&#xe1;" horiz-adv-x="497" 
d="M71 467q36 14 83 24t89 10q45 0 79.5 -8t58 -27.5t35.5 -52.5t12 -82v-244q0 -25 6 -34t29 -9v-53q-8 -3 -21.5 -5t-26.5 -2q-28 0 -47.5 14.5t-24.5 45.5q-28 -28 -66.5 -44t-86.5 -16q-32 0 -59.5 9.5t-48 28t-32.5 45.5t-12 62q0 85 65 132t209 47h25v19q0 30 -5 47
t-20 30q-13 11 -34 15.5t-47 4.5q-35 0 -73.5 -9t-72.5 -23zM322 239q-33 0 -67 -3t-61 -13.5t-44 -30.5t-17 -54q0 -33 20 -55.5t63 -22.5q38 0 70 16.5t51 37.5v125h-15zM349 730l49 -75l-217 -111l-34 59z" />
    <glyph glyph-name="acircumflex" unicode="&#xe2;" horiz-adv-x="497" 
d="M71 467q36 14 83 24t89 10q45 0 79.5 -8t58 -27.5t35.5 -52.5t12 -82v-244q0 -25 6 -34t29 -9v-53q-8 -3 -21.5 -5t-26.5 -2q-28 0 -47.5 14.5t-24.5 45.5q-28 -28 -66.5 -44t-86.5 -16q-32 0 -59.5 9.5t-48 28t-32.5 45.5t-12 62q0 85 65 132t209 47h25v19q0 30 -5 47
t-20 30q-13 11 -34 15.5t-47 4.5q-35 0 -73.5 -9t-72.5 -23zM322 239q-33 0 -67 -3t-61 -13.5t-44 -30.5t-17 -54q0 -33 20 -55.5t63 -22.5q38 0 70 16.5t51 37.5v125h-15zM281 735l125 -130l-50 -43l-101 95h-6l-102 -95l-50 43l126 130h58z" />
    <glyph glyph-name="atilde" unicode="&#xe3;" horiz-adv-x="497" 
d="M71 467q36 14 83 24t89 10q45 0 79.5 -8t58 -27.5t35.5 -52.5t12 -82v-244q0 -25 6 -34t29 -9v-53q-8 -3 -21.5 -5t-26.5 -2q-28 0 -47.5 14.5t-24.5 45.5q-28 -28 -66.5 -44t-86.5 -16q-32 0 -59.5 9.5t-48 28t-32.5 45.5t-12 62q0 85 65 132t209 47h25v19q0 30 -5 47
t-20 30q-13 11 -34 15.5t-47 4.5q-35 0 -73.5 -9t-72.5 -23zM322 239q-33 0 -67 -3t-61 -13.5t-44 -30.5t-17 -54q0 -33 20 -55.5t63 -22.5q38 0 70 16.5t51 37.5v125h-15zM86 625q20 44 51 65t60 21q20 0 33.5 -4.5t29.5 -15.5l14 -11q13 -10 23 -15.5t24 -5.5
q17 0 30 11.5t23 31.5l46 -46q-14 -32 -41 -52.5t-59 -20.5q-40 0 -69 22l-15 11q-9 7 -18 11t-20 4q-32 0 -60 -50z" />
    <glyph glyph-name="adieresis" unicode="&#xe4;" horiz-adv-x="497" 
d="M71 467q36 14 83 24t89 10q45 0 79.5 -8t58 -27.5t35.5 -52.5t12 -82v-244q0 -25 6 -34t29 -9v-53q-8 -3 -21.5 -5t-26.5 -2q-28 0 -47.5 14.5t-24.5 45.5q-28 -28 -66.5 -44t-86.5 -16q-32 0 -59.5 9.5t-48 28t-32.5 45.5t-12 62q0 85 65 132t209 47h25v19q0 30 -5 47
t-20 30q-13 11 -34 15.5t-47 4.5q-35 0 -73.5 -9t-72.5 -23zM322 239q-33 0 -67 -3t-61 -13.5t-44 -30.5t-17 -54q0 -33 20 -55.5t63 -22.5q38 0 70 16.5t51 37.5v125h-15zM280 644q0 58 55 58q56 0 56 -58v-6q0 -57 -56 -57q-55 0 -55 57v6zM109 644q0 58 55 58
q57 0 57 -58v-6q0 -57 -57 -57q-55 0 -55 57v6z" />
    <glyph glyph-name="amacron" unicode="&#x101;" horiz-adv-x="497" 
d="M71 467q36 14 83 24t89 10q45 0 79.5 -8t58 -27.5t35.5 -52.5t12 -82v-244q0 -25 6 -34t29 -9v-53q-8 -3 -21.5 -5t-26.5 -2q-28 0 -47.5 14.5t-24.5 45.5q-28 -28 -66.5 -44t-86.5 -16q-32 0 -59.5 9.5t-48 28t-32.5 45.5t-12 62q0 85 65 132t209 47h25v19q0 30 -5 47
t-20 30q-13 11 -34 15.5t-47 4.5q-35 0 -73.5 -9t-72.5 -23zM322 239q-33 0 -67 -3t-61 -13.5t-44 -30.5t-17 -54q0 -33 20 -55.5t63 -22.5q38 0 70 16.5t51 37.5v125h-15zM385 663v-69h-274v69h274z" />
    <glyph glyph-name="abreve" unicode="&#x103;" horiz-adv-x="497" 
d="M71 467q36 14 83 24t89 10q45 0 79.5 -8t58 -27.5t35.5 -52.5t12 -82v-244q0 -25 6 -34t29 -9v-53q-8 -3 -21.5 -5t-26.5 -2q-28 0 -47.5 14.5t-24.5 45.5q-28 -28 -66.5 -44t-86.5 -16q-32 0 -59.5 9.5t-48 28t-32.5 45.5t-12 62q0 85 65 132t209 47h25v19q0 30 -5 47
t-20 30q-13 11 -34 15.5t-47 4.5q-35 0 -73.5 -9t-72.5 -23zM322 239q-33 0 -67 -3t-61 -13.5t-44 -30.5t-17 -54q0 -33 20 -55.5t63 -22.5q38 0 70 16.5t51 37.5v125h-15zM167 707q12 -29 32 -47t49 -18q28 0 49 18t32 47l65 -24q-15 -50 -53 -80t-93 -30q-56 0 -92.5 30
t-53.5 80z" />
    <glyph glyph-name="aring" unicode="&#xe5;" horiz-adv-x="497" 
d="M71 467q36 14 83 24t89 10q45 0 79.5 -8t58 -27.5t35.5 -52.5t12 -82v-244q0 -25 6 -34t29 -9v-53q-8 -3 -21.5 -5t-26.5 -2q-28 0 -47.5 14.5t-24.5 45.5q-28 -28 -66.5 -44t-86.5 -16q-32 0 -59.5 9.5t-48 28t-32.5 45.5t-12 62q0 85 65 132t209 47h25v19q0 30 -5 47
t-20 30q-13 11 -34 15.5t-47 4.5q-35 0 -73.5 -9t-72.5 -23zM322 239q-33 0 -67 -3t-61 -13.5t-44 -30.5t-17 -54q0 -33 20 -55.5t63 -22.5q38 0 70 16.5t51 37.5v125h-15zM155 661q0 40 28 68t69 28t68.5 -28t27.5 -68q0 -42 -28 -69.5t-68 -27.5q-42 0 -69.5 27.5
t-27.5 69.5zM214 661q0 -17 10 -28.5t28 -11.5q17 0 27 11.5t10 28.5q0 16 -10 27t-27 11q-18 0 -28 -11t-10 -27z" />
    <glyph glyph-name="aringacute" unicode="&#x1fb;" horiz-adv-x="497" 
d="M71 467q36 14 83 24t89 10q45 0 79.5 -8t58 -27.5t35.5 -52.5t12 -82v-244q0 -25 6 -34t29 -9v-53q-8 -3 -21.5 -5t-26.5 -2q-28 0 -47.5 14.5t-24.5 45.5q-28 -28 -66.5 -44t-86.5 -16q-32 0 -59.5 9.5t-48 28t-32.5 45.5t-12 62q0 85 65 132t209 47h25v19q0 30 -5 47
t-20 30q-13 11 -34 15.5t-47 4.5q-35 0 -73.5 -9t-72.5 -23zM322 239q-33 0 -67 -3t-61 -13.5t-44 -30.5t-17 -54q0 -33 20 -55.5t63 -22.5q38 0 70 16.5t51 37.5v125h-15zM155 656q0 40 28 68t69 28t68.5 -28t27.5 -68q0 -42 -28 -69.5t-68 -27.5q-42 0 -69.5 27.5
t-27.5 69.5zM214 656q0 -17 10 -28.5t28 -11.5q17 0 27 11.5t10 28.5q0 16 -10 27t-27 11q-18 0 -28 -11t-10 -27zM353 972l49 -75l-217 -111l-34 59z" />
    <glyph glyph-name="aogonek" unicode="&#x105;" horiz-adv-x="497" 
d="M71 467q36 14 83 24t89 10q45 0 79.5 -8t58 -27.5t35.5 -52.5t12 -82v-244q0 -25 6 -34t29 -9v-53q-51 -19 -83.5 -52.5t-32.5 -73.5q0 -20 12 -29.5t33 -9.5q11 0 24 2.5t23 7.5l12 -56q-16 -8 -38.5 -13t-45.5 -5q-49 0 -76 24.5t-27 64.5q0 43 29.5 82.5t77.5 62.5
q-24 16 -28 48q-28 -28 -66.5 -44t-86.5 -16q-32 0 -59.5 9.5t-48 28t-32.5 45.5t-12 62q0 85 65 132t209 47h25v19q0 30 -5 47t-20 30q-13 11 -34 15.5t-47 4.5q-35 0 -73.5 -9t-72.5 -23zM322 239q-33 0 -67 -3t-61 -13.5t-44 -30.5t-17 -54q0 -33 20 -55.5t63 -22.5
q38 0 70 16.5t51 37.5v125h-15z" />
    <glyph glyph-name="ae" unicode="&#xe6;" horiz-adv-x="806" 
d="M322 239q-33 0 -67 -3t-61 -13.5t-44 -30.5t-17 -54q0 -33 20.5 -56t63.5 -23q41 0 78 18.5t60 49.5q-8 24 -11.5 53t-3.5 59h-18zM669 273q-1 34 -7.5 61.5t-19 47.5t-33 31t-50.5 11q-32 0 -54.5 -12t-37 -32.5t-22 -48t-8.5 -58.5h232zM71 467q36 14 83 24t89 10
q57 0 97.5 -18.5t59.5 -59.5h1q24 35 64 56.5t95 21.5q105 0 154 -66t49 -194v-18t-1 -18h-324q5 -69 39 -106t103 -37q38 0 77.5 8t67.5 20l8 -74q-33 -16 -73.5 -24t-81.5 -8q-132 0 -190 80q-33 -35 -80.5 -57.5t-105.5 -22.5q-73 0 -118.5 37t-45.5 109q0 84 65 131
t209 47h27v21q0 46 -25.5 70.5t-82.5 24.5q-35 0 -73.5 -9t-72.5 -23z" />
    <glyph glyph-name="aeacute" unicode="&#x1fd;" horiz-adv-x="806" 
d="M322 239q-33 0 -67 -3t-61 -13.5t-44 -30.5t-17 -54q0 -33 20.5 -56t63.5 -23q41 0 78 18.5t60 49.5q-8 24 -11.5 53t-3.5 59h-18zM669 273q-1 34 -7.5 61.5t-19 47.5t-33 31t-50.5 11q-32 0 -54.5 -12t-37 -32.5t-22 -48t-8.5 -58.5h232zM71 467q36 14 83 24t89 10
q57 0 97.5 -18.5t59.5 -59.5h1q24 35 64 56.5t95 21.5q105 0 154 -66t49 -194v-18t-1 -18h-324q5 -69 39 -106t103 -37q38 0 77.5 8t67.5 20l8 -74q-33 -16 -73.5 -24t-81.5 -8q-132 0 -190 80q-33 -35 -80.5 -57.5t-105.5 -22.5q-73 0 -118.5 37t-45.5 109q0 84 65 131
t209 47h27v21q0 46 -25.5 70.5t-82.5 24.5q-35 0 -73.5 -9t-72.5 -23zM544 730l49 -75l-217 -111l-34 59z" />
    <glyph glyph-name="cacute" unicode="&#x107;" horiz-adv-x="450" 
d="M43 243q0 130 63.5 194t168.5 64q41 0 77.5 -9t61.5 -23l-9 -80q-20 12 -53 22.5t-68 10.5q-74 0 -110 -44t-36 -138q0 -91 34 -134t109 -43q32 0 64.5 7.5t59.5 19.5l8 -76q-30 -14 -67 -22t-74 -8q-114 0 -172 64q-29 33 -43 81t-14 110v4zM383 730l49 -75l-217 -111
l-34 59z" />
    <glyph glyph-name="ccedilla" unicode="&#xe7;" horiz-adv-x="450" 
d="M43 243q0 130 63.5 194t168.5 64q41 0 77.5 -9t61.5 -23l-9 -80q-20 12 -53 22.5t-68 10.5q-74 0 -110 -44t-36 -138q0 -91 34 -134t109 -43q32 0 64.5 7.5t59.5 19.5l8 -76q-28 -13 -62 -20.5t-69 -9.5l-9 -43q99 -5 99 -87q0 -49 -32 -74.5t-86 -25.5q-24 0 -49 4.5
t-44 12.5l16 54q18 -6 37 -9t33 -3q29 0 41 9.5t12 27.5t-12.5 27.5t-41.5 10.5q-11 0 -22 -0.5t-22 -1.5l-7 7l23 95q-76 12 -118 60q-29 33 -43 81t-14 110v4z" />
    <glyph glyph-name="ccircumflex" unicode="&#x109;" horiz-adv-x="450" 
d="M43 243q0 130 63.5 194t168.5 64q41 0 77.5 -9t61.5 -23l-9 -80q-20 12 -53 22.5t-68 10.5q-74 0 -110 -44t-36 -138q0 -91 34 -134t109 -43q32 0 64.5 7.5t59.5 19.5l8 -76q-30 -14 -67 -22t-74 -8q-114 0 -172 64q-29 33 -43 81t-14 110v4zM293 730l125 -130l-50 -43
l-101 95h-6l-102 -95l-50 43l126 130h58z" />
    <glyph glyph-name="ccaron" unicode="&#x10d;" horiz-adv-x="450" 
d="M43 243q0 130 63.5 194t168.5 64q41 0 77.5 -9t61.5 -23l-9 -80q-20 12 -53 22.5t-68 10.5q-74 0 -110 -44t-36 -138q0 -91 34 -134t109 -43q32 0 64.5 7.5t59.5 19.5l8 -76q-30 -14 -67 -22t-74 -8q-114 0 -172 64q-29 33 -43 81t-14 110v4zM167 740l101 -95h6l101 95
l50 -44l-125 -130h-58l-126 130z" />
    <glyph glyph-name="cdotaccent" unicode="&#x10b;" horiz-adv-x="450" 
d="M43 243q0 130 63.5 194t168.5 64q41 0 77.5 -9t61.5 -23l-9 -80q-20 12 -53 22.5t-68 10.5q-74 0 -110 -44t-36 -138q0 -91 34 -134t109 -43q32 0 64.5 7.5t59.5 19.5l8 -76q-30 -14 -67 -22t-74 -8q-114 0 -172 64q-29 33 -43 81t-14 110v4zM269 714q26 0 44 -19t18 -46
q0 -28 -18.5 -46.5t-45.5 -18.5q-26 0 -44 18.5t-18 46.5q0 27 18.5 46t45.5 19z" />
    <glyph glyph-name="dcaron" unicode="&#x10f;" horiz-adv-x="536" 
d="M471 690v-490q0 -45 0.5 -98.5t1.5 -101.5h-77l-6 42h-1q-29 -29 -66.5 -43.5t-77.5 -14.5q-93 0 -147.5 65.5t-54.5 182.5v5q0 58 13.5 106.5t40.5 83.5t66.5 54.5t92.5 19.5q33 0 64.5 -8.5t58.5 -25.5v223h92zM379 383q-18 16 -47 25.5t-55 9.5q-40 0 -67 -14.5
t-43 -39t-22.5 -56.5t-6.5 -67q0 -37 7 -68.5t22.5 -55t39.5 -37t58 -13.5q33 0 62.5 14t51.5 36v266zM529 689q0 54 54 54q53 0 53 -59q0 -29 -11.5 -70.5t-36.5 -93.5l-47 18q20 45 28 86q-17 5 -28.5 17.5t-11.5 37.5v10z" />
    <glyph glyph-name="dcroat" unicode="&#x111;" horiz-adv-x="536" 
d="M379 612v75h92v-75h62v-60h-62v-352q0 -45 0.5 -98.5t1.5 -101.5h-77l-6 42h-1q-29 -29 -66.5 -43.5t-77.5 -14.5q-93 0 -147.5 65.5t-54.5 182.5v5q0 58 13.5 106.5t40.5 83.5t66.5 54.5t92.5 19.5q33 0 64.5 -8.5t58.5 -25.5v85h-129v60h129zM379 383q-18 16 -47 25.5
t-55 9.5q-40 0 -67 -14.5t-43 -39t-22.5 -56.5t-6.5 -67q0 -37 7 -68.5t22.5 -55t39.5 -37t58 -13.5q33 0 62.5 14t51.5 36v266z" />
    <glyph glyph-name="eth" unicode="&#xf0;" horiz-adv-x="513" 
d="M178 693q22 -6 43 -13.5t39 -15.5l64 51l35 -40l-49 -38q83 -56 123 -142.5t40 -218.5q0 -137 -52.5 -214.5t-163.5 -77.5q-47 0 -86.5 17t-68 50t-44 81.5t-15.5 111.5q0 121 54 184.5t142 63.5q29 0 58 -9.5t50 -24.5q-13 43 -39.5 76.5t-63.5 54.5l-69 -56l-34 39
l54 45q-36 17 -85 31zM366 374q-50 35 -105 35q-57 0 -88.5 -37.5t-31.5 -125.5q0 -89 32 -134t85 -45q58 0 87 47t29 155q0 29 -1.5 55t-6.5 50z" />
    <glyph glyph-name="egrave" unicode="&#xe8;" horiz-adv-x="507" 
d="M43 242q0 52 13 99.5t39.5 82.5t67.5 56t98 21q105 0 154 -66t49 -194v-18t-1 -18h-324q5 -69 39 -106t103 -37q38 0 77.5 8t67.5 20l8 -74q-33 -16 -73.5 -24t-81.5 -8q-236 0 -236 256v2zM370 273q-1 34 -7.5 61.5t-19 47.5t-33 31t-50.5 11q-32 0 -54.5 -12t-37 -32.5
t-22 -48t-8.5 -58.5h232zM379 603l-35 -59l-217 111l48 75z" />
    <glyph glyph-name="eacute" unicode="&#xe9;" horiz-adv-x="507" 
d="M43 242q0 52 13 99.5t39.5 82.5t67.5 56t98 21q105 0 154 -66t49 -194v-18t-1 -18h-324q5 -69 39 -106t103 -37q38 0 77.5 8t67.5 20l8 -74q-33 -16 -73.5 -24t-81.5 -8q-236 0 -236 256v2zM370 273q-1 34 -7.5 61.5t-19 47.5t-33 31t-50.5 11q-32 0 -54.5 -12t-37 -32.5
t-22 -48t-8.5 -58.5h232zM372 730l49 -75l-217 -111l-34 59z" />
    <glyph glyph-name="ecircumflex" unicode="&#xea;" horiz-adv-x="507" 
d="M43 242q0 52 13 99.5t39.5 82.5t67.5 56t98 21q105 0 154 -66t49 -194v-18t-1 -18h-324q5 -69 39 -106t103 -37q38 0 77.5 8t67.5 20l8 -74q-33 -16 -73.5 -24t-81.5 -8q-236 0 -236 256v2zM370 273q-1 34 -7.5 61.5t-19 47.5t-33 31t-50.5 11q-32 0 -54.5 -12t-37 -32.5
t-22 -48t-8.5 -58.5h232zM291 734l125 -130l-50 -43l-101 95h-6l-102 -95l-50 43l126 130h58z" />
    <glyph glyph-name="ecaron" unicode="&#x11b;" horiz-adv-x="507" 
d="M43 242q0 52 13 99.5t39.5 82.5t67.5 56t98 21q105 0 154 -66t49 -194v-18t-1 -18h-324q5 -69 39 -106t103 -37q38 0 77.5 8t67.5 20l8 -74q-33 -16 -73.5 -24t-81.5 -8q-236 0 -236 256v2zM370 273q-1 34 -7.5 61.5t-19 47.5t-33 31t-50.5 11q-32 0 -54.5 -12t-37 -32.5
t-22 -48t-8.5 -58.5h232zM155 740l101 -95h6l101 95l50 -44l-125 -130h-58l-126 130z" />
    <glyph glyph-name="edieresis" unicode="&#xeb;" horiz-adv-x="507" 
d="M43 242q0 52 13 99.5t39.5 82.5t67.5 56t98 21q105 0 154 -66t49 -194v-18t-1 -18h-324q5 -69 39 -106t103 -37q38 0 77.5 8t67.5 20l8 -74q-33 -16 -73.5 -24t-81.5 -8q-236 0 -236 256v2zM370 273q-1 34 -7.5 61.5t-19 47.5t-33 31t-50.5 11q-32 0 -54.5 -12t-37 -32.5
t-22 -48t-8.5 -58.5h232zM292 644q0 58 55 58q56 0 56 -58v-6q0 -57 -56 -57q-55 0 -55 57v6zM121 644q0 58 55 58q57 0 57 -58v-6q0 -57 -57 -57q-55 0 -55 57v6z" />
    <glyph glyph-name="emacron" unicode="&#x113;" horiz-adv-x="507" 
d="M43 242q0 52 13 99.5t39.5 82.5t67.5 56t98 21q105 0 154 -66t49 -194v-18t-1 -18h-324q5 -69 39 -106t103 -37q38 0 77.5 8t67.5 20l8 -74q-33 -16 -73.5 -24t-81.5 -8q-236 0 -236 256v2zM370 273q-1 34 -7.5 61.5t-19 47.5t-33 31t-50.5 11q-32 0 -54.5 -12t-37 -32.5
t-22 -48t-8.5 -58.5h232zM396 663v-69h-274v69h274z" />
    <glyph glyph-name="ebreve" unicode="&#x115;" horiz-adv-x="507" 
d="M43 242q0 52 13 99.5t39.5 82.5t67.5 56t98 21q105 0 154 -66t49 -194v-18t-1 -18h-324q5 -69 39 -106t103 -37q38 0 77.5 8t67.5 20l8 -74q-33 -16 -73.5 -24t-81.5 -8q-236 0 -236 256v2zM370 273q-1 34 -7.5 61.5t-19 47.5t-33 31t-50.5 11q-32 0 -54.5 -12t-37 -32.5
t-22 -48t-8.5 -58.5h232zM178 707q12 -29 32 -47t49 -18q28 0 49 18t32 47l65 -24q-15 -50 -53 -80t-93 -30q-56 0 -92.5 30t-53.5 80z" />
    <glyph glyph-name="edotaccent" unicode="&#x117;" horiz-adv-x="507" 
d="M43 242q0 52 13 99.5t39.5 82.5t67.5 56t98 21q105 0 154 -66t49 -194v-18t-1 -18h-324q5 -69 39 -106t103 -37q38 0 77.5 8t67.5 20l8 -74q-33 -16 -73.5 -24t-81.5 -8q-236 0 -236 256v2zM370 273q-1 34 -7.5 61.5t-19 47.5t-33 31t-50.5 11q-32 0 -54.5 -12t-37 -32.5
t-22 -48t-8.5 -58.5h232zM260 714q26 0 44 -19t18 -46q0 -28 -18.5 -46.5t-45.5 -18.5q-26 0 -44 18.5t-18 46.5q0 27 18.5 46t45.5 19z" />
    <glyph glyph-name="eogonek" unicode="&#x119;" horiz-adv-x="507" 
d="M43 242q0 52 13 99.5t39.5 82.5t67.5 56t98 21q105 0 154 -66t49 -194v-18t-1 -18h-324q5 -69 39 -106t103 -37q38 0 77.5 8t67.5 20l8 -74l-27 -11q-63 -23 -92 -59.5t-29 -69.5q0 -50 45 -50q11 0 24 2.5t23 7.5l12 -56q-16 -8 -38.5 -13t-45.5 -5q-49 0 -76 25t-27 68
q0 42 25 76.5t62 52.5h-11q-236 0 -236 256v2zM370 273q-1 34 -7.5 61.5t-19 47.5t-33 31t-50.5 11q-32 0 -54.5 -12t-37 -32.5t-22 -48t-8.5 -58.5h232z" />
    <glyph glyph-name="gcircumflex" unicode="&#x11d;" horiz-adv-x="509" 
d="M152 330q0 -103 102 -103q103 0 103 103q0 102 -103 102q-102 0 -102 -102zM57 332q0 41 15 72.5t41 53t62.5 32.5t78.5 11q41 0 73.5 -9t60.5 -26q6 7 15 16.5t22.5 18.5t31.5 16.5t41 10.5v-86q-17 -2 -36.5 -6t-34.5 -13q25 -38 25 -91v-5q0 -45 -16 -77t-43.5 -52.5
t-63.5 -30t-75 -9.5q-17 0 -34 2.5t-33 6.5q-15 -7 -23.5 -19.5t-8.5 -27.5q0 -18 16.5 -28.5t54.5 -10.5h97q76 0 121.5 -29t45.5 -100q0 -41 -19 -73.5t-50.5 -54.5t-73 -33.5t-87.5 -11.5q-104 0 -163 37t-59 97q0 32 18.5 60.5t51.5 43.5q-20 12 -31.5 32.5t-11.5 42.5
q0 29 19 54t49 39q-35 20 -55.5 55.5t-20.5 86.5v5zM237 4q-13 0 -34.5 0.5t-35.5 2.5q-20 -11 -30.5 -30.5t-10.5 -43.5q0 -38 34 -61.5t103 -23.5q29 0 54.5 7t44.5 19.5t30 29.5t11 36q0 29 -18 46.5t-56 17.5h-92zM282 734l125 -130l-50 -43l-101 95h-6l-102 -95l-50 43
l126 130h58z" />
    <glyph glyph-name="gbreve" unicode="&#x11f;" horiz-adv-x="509" 
d="M152 330q0 -103 102 -103q103 0 103 103q0 102 -103 102q-102 0 -102 -102zM57 332q0 41 15 72.5t41 53t62.5 32.5t78.5 11q41 0 73.5 -9t60.5 -26q6 7 15 16.5t22.5 18.5t31.5 16.5t41 10.5v-86q-17 -2 -36.5 -6t-34.5 -13q25 -38 25 -91v-5q0 -45 -16 -77t-43.5 -52.5
t-63.5 -30t-75 -9.5q-17 0 -34 2.5t-33 6.5q-15 -7 -23.5 -19.5t-8.5 -27.5q0 -18 16.5 -28.5t54.5 -10.5h97q76 0 121.5 -29t45.5 -100q0 -41 -19 -73.5t-50.5 -54.5t-73 -33.5t-87.5 -11.5q-104 0 -163 37t-59 97q0 32 18.5 60.5t51.5 43.5q-20 12 -31.5 32.5t-11.5 42.5
q0 29 19 54t49 39q-35 20 -55.5 55.5t-20.5 86.5v5zM237 4q-13 0 -34.5 0.5t-35.5 2.5q-20 -11 -30.5 -30.5t-10.5 -43.5q0 -38 34 -61.5t103 -23.5q29 0 54.5 7t44.5 19.5t30 29.5t11 36q0 29 -18 46.5t-56 17.5h-92zM171 707q12 -29 32 -47t49 -18q28 0 49 18t32 47
l65 -24q-15 -50 -53 -80t-93 -30q-56 0 -92.5 30t-53.5 80z" />
    <glyph glyph-name="gdotaccent" unicode="&#x121;" horiz-adv-x="509" 
d="M152 330q0 -103 102 -103q103 0 103 103q0 102 -103 102q-102 0 -102 -102zM57 332q0 41 15 72.5t41 53t62.5 32.5t78.5 11q41 0 73.5 -9t60.5 -26q6 7 15 16.5t22.5 18.5t31.5 16.5t41 10.5v-86q-17 -2 -36.5 -6t-34.5 -13q25 -38 25 -91v-5q0 -45 -16 -77t-43.5 -52.5
t-63.5 -30t-75 -9.5q-17 0 -34 2.5t-33 6.5q-15 -7 -23.5 -19.5t-8.5 -27.5q0 -18 16.5 -28.5t54.5 -10.5h97q76 0 121.5 -29t45.5 -100q0 -41 -19 -73.5t-50.5 -54.5t-73 -33.5t-87.5 -11.5q-104 0 -163 37t-59 97q0 32 18.5 60.5t51.5 43.5q-20 12 -31.5 32.5t-11.5 42.5
q0 29 19 54t49 39q-35 20 -55.5 55.5t-20.5 86.5v5zM237 4q-13 0 -34.5 0.5t-35.5 2.5q-20 -11 -30.5 -30.5t-10.5 -43.5q0 -38 34 -61.5t103 -23.5q29 0 54.5 7t44.5 19.5t30 29.5t11 36q0 29 -18 46.5t-56 17.5h-92zM253 714q26 0 44 -19t18 -46q0 -28 -18.5 -46.5
t-45.5 -18.5q-26 0 -44 18.5t-18 46.5q0 27 18.5 46t45.5 19z" />
    <glyph glyph-name="gcommaaccent" unicode="&#x123;" horiz-adv-x="509" 
d="M152 330q0 -103 102 -103q103 0 103 103q0 102 -103 102q-102 0 -102 -102zM57 332q0 41 15 72.5t41 53t62.5 32.5t78.5 11q41 0 73.5 -9t60.5 -26q6 7 15 16.5t22.5 18.5t31.5 16.5t41 10.5v-86q-17 -2 -36.5 -6t-34.5 -13q25 -38 25 -91v-5q0 -45 -16 -77t-43.5 -52.5
t-63.5 -30t-75 -9.5q-17 0 -34 2.5t-33 6.5q-15 -7 -23.5 -19.5t-8.5 -27.5q0 -18 16.5 -28.5t54.5 -10.5h97q76 0 121.5 -29t45.5 -100q0 -41 -19 -73.5t-50.5 -54.5t-73 -33.5t-87.5 -11.5q-104 0 -163 37t-59 97q0 32 18.5 60.5t51.5 43.5q-20 12 -31.5 32.5t-11.5 42.5
q0 29 19 54t49 39q-35 20 -55.5 55.5t-20.5 86.5v5zM237 4q-13 0 -34.5 0.5t-35.5 2.5q-20 -11 -30.5 -30.5t-10.5 -43.5q0 -38 34 -61.5t103 -23.5q29 0 54.5 7t44.5 19.5t30 29.5t11 36q0 29 -18 46.5t-56 17.5h-92zM293.982 619.962q0 -53.9961 -53.9971 -53.9961
q-52.9971 0 -52.9971 58.9961q0 28.998 11.5 70.4961q11.499 41.4971 36.4971 93.4941l46.9971 -17.999q-19.998 -44.9971 -27.998 -85.9951q16.999 -4.99902 28.498 -17.499q11.5 -12.499 11.5 -37.4971v-10z" />
    <glyph glyph-name="hcircumflex" unicode="&#x125;" horiz-adv-x="536" 
d="M153 690v-255q32 30 74.5 48t90.5 18q78 0 117 -41q23 -23 32 -57t9 -88v-315h-91v301q0 35 -4.5 56t-16.5 35q-23 24 -71 24q-35 0 -73.5 -17t-66.5 -48v-351h-91v690h91zM136 876l125 -130l-50 -43l-101 95h-6l-102 -95l-50 43l126 130h58z" />
    <glyph glyph-name="hbar" unicode="&#x127;" horiz-adv-x="536" 
d="M62 620v67h91v-67h182v-66h-182v-119q32 30 74.5 48t90.5 18q78 0 117 -41q23 -23 32 -57t9 -88v-315h-91v301q0 35 -4.5 56t-16.5 35q-23 24 -71 24q-35 0 -73.5 -17t-66.5 -48v-351h-91v554h-70v66h70z" />
    <glyph glyph-name="dotlessi" unicode="&#x131;" horiz-adv-x="226" 
d="M158 485v-485h-90v485h90z" />
    <glyph glyph-name="igrave" unicode="&#xec;" horiz-adv-x="226" 
d="M199 603l-35 -59l-217 111l48 75zM158 485v-485h-90v485h90z" />
    <glyph glyph-name="iacute" unicode="&#xed;" horiz-adv-x="226" 
d="M231 730l49 -75l-217 -111l-34 59zM158 485v-485h-90v485h90z" />
    <glyph glyph-name="icircumflex" unicode="&#xee;" horiz-adv-x="226" 
d="M158 485v-485h-90v485h90zM143 734l125 -130l-50 -43l-101 95h-6l-102 -95l-50 43l126 130h58z" />
    <glyph glyph-name="itilde" unicode="&#x129;" horiz-adv-x="226" 
d="M-54 624q20 44 51 65t60 21q20 0 33.5 -4.5t29.5 -15.5l14 -11q13 -10 23 -15.5t24 -5.5q17 0 30 11.5t23 31.5l46 -46q-14 -32 -41 -52.5t-59 -20.5q-40 0 -69 22l-15 11q-9 7 -18 11t-20 4q-32 0 -60 -50zM158 485v-485h-90v485h90z" />
    <glyph glyph-name="idieresis" unicode="&#xef;" horiz-adv-x="226" 
d="M143 644q0 58 55 58q56 0 56 -58v-6q0 -57 -56 -57q-55 0 -55 57v6zM-28 644q0 58 55 58q57 0 57 -58v-6q0 -57 -57 -57q-55 0 -55 57v6zM158 485v-485h-90v485h90z" />
    <glyph glyph-name="imacron" unicode="&#x12b;" horiz-adv-x="226" 
d="M251 663v-69h-274v69h274zM158 485v-485h-90v485h90z" />
    <glyph glyph-name="ibreve" unicode="&#x12d;" horiz-adv-x="226" 
d="M33 707q12 -29 32 -47t49 -18q28 0 49 18t32 47l65 -24q-15 -50 -53 -80t-93 -30q-56 0 -92.5 30t-53.5 80zM158 485v-485h-90v485h90z" />
    <glyph glyph-name="iogonek" unicode="&#x12f;" horiz-adv-x="226" 
d="M158 485v-485q-60 -28 -92 -61.5t-32 -68.5q0 -44 45 -44q11 0 23.5 2.5t22.5 7.5l12 -55q-35 -19 -78 -19q-54 0 -81.5 24.5t-27.5 67.5q0 42 30.5 83.5t87.5 68.5v479h90zM60 634q0 29 12 45t42 16q29 0 40.5 -16t11.5 -45v-7q0 -27 -11.5 -43.5t-40.5 -16.5
q-30 0 -42 16.5t-12 43.5v7z" />
    <glyph glyph-name="ij" unicode="&#x133;" horiz-adv-x="446" 
d="M159 485v-485h-91v485h91zM60 635q0 29 12 45t43 16q29 0 40.5 -16t11.5 -45v-7q0 -27 -11.5 -43.5t-40.5 -16.5q-31 0 -43 16.5t-12 43.5v7zM379 485v-489q0 -43 -7 -80.5t-24.5 -65.5t-48 -44t-78.5 -16h-22.5t-18.5 2l6 78q7 -1 15 -1h13q15 0 29 4t25 16
q12 14 16 36.5t4 59.5v500h91zM280 635q0 29 12 45t43 16q29 0 40.5 -16t11.5 -45v-7q0 -27 -11.5 -43.5t-40.5 -16.5q-31 0 -43 16.5t-12 43.5v7z" />
    <glyph glyph-name="jcircumflex" unicode="&#x135;" horiz-adv-x="225" 
d="M158 485v-469q0 -46 -6 -84t-21 -66.5t-41 -46t-66 -21.5q-20 -3 -41 -2q-5 0 -12 0.5t-12 1.5l7 74q17 -1 31.5 1t25.5 9q23 9 34 36t11 80v487h90zM142 734l125 -130l-51 -43l-99 95h-7l-102 -95l-49 43l125 130h58z" />
    <glyph glyph-name="kcommaaccent" unicode="&#x137;" horiz-adv-x="458" 
d="M153 690v-409q48 40 95 92.5t85 111.5h99q-70 -118 -157 -204l168 -281h-103l-133 223q-32 -27 -54 -42v-181h-91v690h91zM180 -124q0 54 54 54q53 0 53 -59q0 -29 -11.5 -70.5t-36.5 -93.5l-47 18q20 45 28 86q-17 5 -28.5 17.5t-11.5 37.5v10z" />
    <glyph glyph-name="kgreenlandic" unicode="&#x138;" horiz-adv-x="458" 
d="M153 485v-204q48 40 95 92.5t85 111.5h99q-70 -118 -157 -204l168 -281h-103l-133 222l-54 -39v-183h-91v485h91z" />
    <glyph glyph-name="lacute" unicode="&#x13a;" horiz-adv-x="221" 
d="M156 690v-690h-91v690h91zM221 911l49 -75l-217 -111l-34 59z" />
    <glyph glyph-name="lcaron" unicode="&#x13e;" horiz-adv-x="221" 
d="M156 690v-690h-91v690h91zM201 689q0 54 54 54q53 0 53 -59q0 -29 -11.5 -70.5t-36.5 -93.5l-47 18q20 45 28 86q-17 5 -28.5 17.5t-11.5 37.5v10z" />
    <glyph glyph-name="lcommaaccent" unicode="&#x13c;" horiz-adv-x="221" 
d="M156 690v-690h-91v690h91zM57 -124q0 54 54 54q53 0 53 -59q0 -29 -11.5 -70.5t-36.5 -93.5l-47 18q20 45 28 86q-17 5 -28.5 17.5t-11.5 37.5v10z" />
    <glyph glyph-name="lslash" unicode="&#x142;" horiz-adv-x="221" 
d="M156 687v-284l86 84v-86l-86 -85v-316h-91v240l-72 -70v85l72 71v361h91z" />
    <glyph glyph-name="longs" unicode="&#x17f;" horiz-adv-x="274" 
d="M95 485v39q0 85 40 132t126 47q16 0 32 -1.5t32 -5.5l-8 -72q-5 2 -18 3t-20 1q-52 0 -72.5 -23.5t-20.5 -87.5v-517h-91v411h-74v74h74z" />
    <glyph glyph-name="ldot" unicode="&#x140;" horiz-adv-x="339" 
d="M156 690v-690h-91v690h91zM275 394q26 0 44 -19t18 -46q0 -28 -18.5 -46.5t-45.5 -18.5q-26 0 -44 18.5t-18 46.5q0 27 18.5 46t45.5 19z" />
    <glyph glyph-name="nacute" unicode="&#x144;" horiz-adv-x="537" 
d="M141 485l7 -56q30 31 74 51.5t96 20.5q78 0 117 -41q23 -23 32 -57t9 -88v-315h-91v301q0 35 -4.5 56t-16.5 35q-23 24 -71 24q-35 0 -73.5 -17t-66.5 -48v-351h-91v485h79zM373 730l49 -75l-217 -111l-34 59z" />
    <glyph glyph-name="ncaron" unicode="&#x148;" horiz-adv-x="537" 
d="M141 485l7 -56q30 31 74 51.5t96 20.5q78 0 117 -41q23 -23 32 -57t9 -88v-315h-91v301q0 35 -4.5 56t-16.5 35q-23 24 -71 24q-35 0 -73.5 -17t-66.5 -48v-351h-91v485h79zM184 740l101 -95h6l101 95l50 -44l-125 -130h-58l-126 130z" />
    <glyph glyph-name="ntilde" unicode="&#xf1;" horiz-adv-x="537" 
d="M141 485l7 -56q30 31 74 51.5t96 20.5q78 0 117 -41q23 -23 32 -57t9 -88v-315h-91v301q0 35 -4.5 56t-16.5 35q-23 24 -71 24q-35 0 -73.5 -17t-66.5 -48v-351h-91v485h79zM108 624q20 44 51 65t60 21q20 0 33.5 -4.5t29.5 -15.5l14 -11q13 -10 23 -15.5t24 -5.5
q17 0 30 11.5t23 31.5l46 -46q-14 -32 -41 -52.5t-59 -20.5q-40 0 -69 22l-15 11q-9 7 -18 11t-20 4q-32 0 -60 -50z" />
    <glyph glyph-name="ncommaaccent" unicode="&#x146;" horiz-adv-x="537" 
d="M141 485l7 -56q30 31 74 51.5t96 20.5q78 0 117 -41q23 -23 32 -57t9 -88v-315h-91v301q0 35 -4.5 56t-16.5 35q-23 24 -71 24q-35 0 -73.5 -17t-66.5 -48v-351h-91v485h79zM218 -124q0 54 54 54q53 0 53 -59q0 -29 -11.5 -70.5t-36.5 -93.5l-47 18q20 45 28 86
q-17 5 -28.5 17.5t-11.5 37.5v10z" />
    <glyph glyph-name="napostrophe" unicode="&#x149;" horiz-adv-x="537" 
d="M141 485l7 -56q30 31 74 51.5t96 20.5q78 0 117 -41q23 -23 32 -57t9 -88v-315h-91v301q0 35 -4.5 56t-16.5 35q-23 24 -71 24q-35 0 -73.5 -17t-66.5 -48v-351h-91v485h79zM-46 689q0 54 54 54q53 0 53 -59q0 -29 -11.5 -70.5t-36.5 -93.5l-47 18q20 45 28 86
q-17 5 -28.5 17.5t-11.5 37.5v10z" />
    <glyph glyph-name="eng" unicode="&#x14b;" horiz-adv-x="537" 
d="M141 485l7 -56q30 31 74 51.5t96 20.5q78 0 117 -41q23 -23 32 -57t9 -88v-328q0 -56 -9.5 -93.5t-29 -60.5t-49 -33t-70.5 -10q-10 0 -21.5 1t-19.5 2l3 75q7 -1 15.5 -1.5t16.5 -0.5q20 0 34 6t25 20q11 15 12.5 47t1.5 76v286q0 35 -4.5 56t-16.5 35q-23 24 -71 24
q-35 0 -73.5 -17t-66.5 -48v-351h-91v485h79z" />
    <glyph glyph-name="ograve" unicode="&#xf2;" horiz-adv-x="533" 
d="M43 244q0 124 55.5 190.5t167.5 66.5q113 0 168.5 -66t55.5 -190v-4q0 -124 -55.5 -190.5t-168.5 -66.5q-112 0 -167.5 66.5t-55.5 190.5v3zM267 424q-66 0 -97.5 -44.5t-31.5 -137.5q0 -92 31.5 -136.5t97.5 -44.5t97 44.5t31 136.5q0 93 -31 137.5t-97 44.5zM386 603
l-35 -59l-217 111l48 75z" />
    <glyph glyph-name="oacute" unicode="&#xf3;" horiz-adv-x="533" 
d="M43 244q0 124 55.5 190.5t167.5 66.5q113 0 168.5 -66t55.5 -190v-4q0 -124 -55.5 -190.5t-168.5 -66.5q-112 0 -167.5 66.5t-55.5 190.5v3zM267 424q-66 0 -97.5 -44.5t-31.5 -137.5q0 -92 31.5 -136.5t97.5 -44.5t97 44.5t31 136.5q0 93 -31 137.5t-97 44.5zM371 730
l49 -75l-217 -111l-34 59z" />
    <glyph glyph-name="ocircumflex" unicode="&#xf4;" horiz-adv-x="533" 
d="M43 244q0 124 55.5 190.5t167.5 66.5q113 0 168.5 -66t55.5 -190v-4q0 -124 -55.5 -190.5t-168.5 -66.5q-112 0 -167.5 66.5t-55.5 190.5v3zM267 424q-66 0 -97.5 -44.5t-31.5 -137.5q0 -92 31.5 -136.5t97.5 -44.5t97 44.5t31 136.5q0 93 -31 137.5t-97 44.5zM298 734
l125 -130l-50 -43l-101 95h-6l-102 -95l-50 43l126 130h58z" />
    <glyph glyph-name="otilde" unicode="&#xf5;" horiz-adv-x="533" 
d="M43 244q0 124 55.5 190.5t167.5 66.5q113 0 168.5 -66t55.5 -190v-4q0 -124 -55.5 -190.5t-168.5 -66.5q-112 0 -167.5 66.5t-55.5 190.5v3zM267 424q-66 0 -97.5 -44.5t-31.5 -137.5q0 -92 31.5 -136.5t97.5 -44.5t97 44.5t31 136.5q0 93 -31 137.5t-97 44.5zM101 624
q20 44 51 65t60 21q20 0 33.5 -4.5t29.5 -15.5l14 -11q13 -10 23 -15.5t24 -5.5q17 0 30 11.5t23 31.5l46 -46q-14 -32 -41 -52.5t-59 -20.5q-40 0 -69 22l-15 11q-9 7 -18 11t-20 4q-32 0 -60 -50z" />
    <glyph glyph-name="odieresis" unicode="&#xf6;" horiz-adv-x="533" 
d="M43 244q0 124 55.5 190.5t167.5 66.5q113 0 168.5 -66t55.5 -190v-4q0 -124 -55.5 -190.5t-168.5 -66.5q-112 0 -167.5 66.5t-55.5 190.5v3zM267 424q-66 0 -97.5 -44.5t-31.5 -137.5q0 -92 31.5 -136.5t97.5 -44.5t97 44.5t31 136.5q0 93 -31 137.5t-97 44.5zM298 644
q0 58 55 58q56 0 56 -58v-6q0 -57 -56 -57q-55 0 -55 57v6zM127 644q0 58 55 58q57 0 57 -58v-6q0 -57 -57 -57q-55 0 -55 57v6z" />
    <glyph glyph-name="omacron" unicode="&#x14d;" horiz-adv-x="533" 
d="M43 244q0 124 55.5 190.5t167.5 66.5q113 0 168.5 -66t55.5 -190v-4q0 -124 -55.5 -190.5t-168.5 -66.5q-112 0 -167.5 66.5t-55.5 190.5v3zM267 424q-66 0 -97.5 -44.5t-31.5 -137.5q0 -92 31.5 -136.5t97.5 -44.5t97 44.5t31 136.5q0 93 -31 137.5t-97 44.5zM403 663
v-69h-274v69h274z" />
    <glyph glyph-name="obreve" unicode="&#x14f;" horiz-adv-x="533" 
d="M43 244q0 124 55.5 190.5t167.5 66.5q113 0 168.5 -66t55.5 -190v-4q0 -124 -55.5 -190.5t-168.5 -66.5q-112 0 -167.5 66.5t-55.5 190.5v3zM267 424q-66 0 -97.5 -44.5t-31.5 -137.5q0 -92 31.5 -136.5t97.5 -44.5t97 44.5t31 136.5q0 93 -31 137.5t-97 44.5zM187 707
q12 -29 32 -47t49 -18q28 0 49 18t32 47l65 -24q-15 -50 -53 -80t-93 -30q-56 0 -92.5 30t-53.5 80z" />
    <glyph glyph-name="ohungarumlaut" unicode="&#x151;" horiz-adv-x="533" 
d="M43 244q0 124 55.5 190.5t167.5 66.5q113 0 168.5 -66t55.5 -190v-4q0 -124 -55.5 -190.5t-168.5 -66.5q-112 0 -167.5 66.5t-55.5 190.5v3zM267 424q-66 0 -97.5 -44.5t-31.5 -137.5q0 -92 31.5 -136.5t97.5 -44.5t97 44.5t31 136.5q0 93 -31 137.5t-97 44.5zM335 701
l-152 -163l-53 42l135 170zM507 701l-152 -163l-54 42l136 170z" />
    <glyph glyph-name="oslash" unicode="&#xf8;" horiz-adv-x="533" 
d="M43 244q0 124 55.5 190.5t167.5 66.5q58 0 100 -18l48 88l53 -26l-51 -93q74 -65 74 -207v-4q0 -124 -55.5 -190.5t-168.5 -66.5q-28 0 -51.5 4t-44.5 12l-42 -78l-50 29l42 78q-77 64 -77 212v3zM327 411q-28 13 -60 13q-66 0 -97.5 -44.5t-31.5 -137.5q0 -85 27 -130z
M209 72q12 -6 26.5 -8.5t31.5 -2.5q66 0 97 44.5t31 136.5q0 82 -25 126z" />
    <glyph glyph-name="oslashacute" unicode="&#x1ff;" horiz-adv-x="533" 
d="M367 730l49 -75l-217 -111l-34 59zM43 244q0 124 55.5 190.5t167.5 66.5q58 0 100 -18l48 88l53 -26l-51 -93q74 -65 74 -207v-4q0 -124 -55.5 -190.5t-168.5 -66.5q-28 0 -51.5 4t-44.5 12l-42 -78l-50 29l42 78q-77 64 -77 212v3zM327 411q-28 13 -60 13
q-66 0 -97.5 -44.5t-31.5 -137.5q0 -85 27 -130zM209 72q12 -6 26.5 -8.5t31.5 -2.5q66 0 97 44.5t31 136.5q0 82 -25 126z" />
    <glyph glyph-name="oe" unicode="&#x153;" horiz-adv-x="859" 
d="M267 425q-67 0 -98 -45t-31 -138q0 -92 31 -137t98 -45q128 0 128 176q0 95 -29.5 142t-98.5 47zM43 244q0 124 55.5 190.5t167.5 66.5q63 0 106.5 -23.5t69.5 -70.5q26 45 68.5 69.5t102.5 24.5q105 0 154 -66t49 -194v-18t-1 -18h-324q5 -69 39 -106t103 -37
q38 0 77.5 8t67.5 20l8 -74q-33 -16 -73.5 -24t-81.5 -8q-66 0 -113.5 22t-75.5 69q-28 -45 -71 -68t-105 -23q-112 0 -167.5 66.5t-55.5 190.5v3zM722 273q-1 34 -7.5 61.5t-19 47.5t-33 31t-50.5 11q-32 0 -54.5 -12t-37 -32.5t-22 -48t-8.5 -58.5h232z" />
    <glyph glyph-name="thorn" unicode="&#xfe;" horiz-adv-x="535" 
d="M153 687v-242q34 29 72.5 42.5t71.5 13.5q91 0 143 -64.5t52 -181.5v-6q0 -57 -13 -105.5t-39.5 -84t-66 -55.5t-93.5 -20q-34 0 -67.5 10t-59.5 27v-215h-91v881h91zM153 100q21 -14 49.5 -23.5t55.5 -9.5q40 0 67 14.5t43.5 39t23 56.5t6.5 67q0 27 -5 57.5t-18 56
t-37 42t-61 16.5q-38 0 -70 -16t-54 -39v-261z" />
    <glyph glyph-name="racute" unicode="&#x155;" horiz-adv-x="325" 
d="M141 485q3 -25 4.5 -38.5t2 -20t1 -7.5l0.5 -1q25 32 65 54t91 24v-19t-0.5 -27t-0.5 -27v-19q-48 -1 -86.5 -18t-64.5 -43v-343h-91v485h79zM301 730l49 -75l-217 -111l-34 59z" />
    <glyph glyph-name="rcaron" unicode="&#x159;" horiz-adv-x="325" 
d="M141 485q3 -25 4.5 -38.5t2 -20t1 -7.5l0.5 -1q25 32 65 54t91 24v-19t-0.5 -27t-0.5 -27v-19q-48 -1 -86.5 -18t-64.5 -43v-343h-91v485h79zM81 740l101 -95h6l101 95l50 -44l-125 -130h-58l-126 130z" />
    <glyph glyph-name="rcommaaccent" unicode="&#x157;" horiz-adv-x="325" 
d="M141 485q3 -25 4.5 -38.5t2 -20t1 -7.5l0.5 -1q25 32 65 54t91 24v-19t-0.5 -27t-0.5 -27v-19q-48 -1 -86.5 -18t-64.5 -43v-343h-91v485h79zM54 -124q0 54 54 54q53 0 53 -59q0 -29 -11.5 -70.5t-36.5 -93.5l-47 18q20 45 28 86q-17 5 -28.5 17.5t-11.5 37.5v10z" />
    <glyph glyph-name="sacute" unicode="&#x15b;" horiz-adv-x="411" 
d="M339 403q-23 10 -52.5 16t-54.5 6q-53 0 -76 -18t-23 -47q0 -33 23 -47t60 -26l32 -10q32 -10 56.5 -22t41 -29t24.5 -40t8 -54q0 -39 -13.5 -67t-38.5 -46t-59 -26.5t-76 -8.5q-37 0 -76.5 8t-68.5 20l7 76q29 -13 65.5 -21.5t64.5 -8.5q48 0 76 14t28 53q0 16 -4 27
t-13.5 19.5t-25 15t-39.5 13.5l-32 10q-26 7 -50 18.5t-42 29t-28.5 42t-10.5 58.5t13.5 61t38 45t58 27.5t72.5 9.5q31 0 63.5 -5.5t59.5 -15.5zM312 730l49 -75l-217 -111l-34 59z" />
    <glyph glyph-name="scircumflex" unicode="&#x15d;" horiz-adv-x="411" 
d="M339 403q-23 10 -52.5 16t-54.5 6q-53 0 -76 -18t-23 -47q0 -33 23 -47t60 -26l32 -10q32 -10 56.5 -22t41 -29t24.5 -40t8 -54q0 -39 -13.5 -67t-38.5 -46t-59 -26.5t-76 -8.5q-37 0 -76.5 8t-68.5 20l7 76q29 -13 65.5 -21.5t64.5 -8.5q48 0 76 14t28 53q0 16 -4 27
t-13.5 19.5t-25 15t-39.5 13.5l-32 10q-26 7 -50 18.5t-42 29t-28.5 42t-10.5 58.5t13.5 61t38 45t58 27.5t72.5 9.5q31 0 63.5 -5.5t59.5 -15.5zM240 734l125 -130l-50 -43l-101 95h-6l-102 -95l-50 43l126 130h58z" />
    <glyph glyph-name="scaron" unicode="&#x161;" horiz-adv-x="411" 
d="M339 403q-23 10 -52.5 16t-54.5 6q-53 0 -76 -18t-23 -47q0 -33 23 -47t60 -26l32 -10q32 -10 56.5 -22t41 -29t24.5 -40t8 -54q0 -39 -13.5 -67t-38.5 -46t-59 -26.5t-76 -8.5q-37 0 -76.5 8t-68.5 20l7 76q29 -13 65.5 -21.5t64.5 -8.5q48 0 76 14t28 53q0 16 -4 27
t-13.5 19.5t-25 15t-39.5 13.5l-32 10q-26 7 -50 18.5t-42 29t-28.5 42t-10.5 58.5t13.5 61t38 45t58 27.5t72.5 9.5q31 0 63.5 -5.5t59.5 -15.5zM110 740l101 -95h6l101 95l50 -44l-125 -130h-58l-126 130z" />
    <glyph glyph-name="scedilla" unicode="&#x15f;" horiz-adv-x="411" 
d="M339 403q-23 10 -52.5 16t-54.5 6q-53 0 -76 -18t-23 -47q0 -33 23 -47t60 -26l32 -10q32 -10 56.5 -22t41 -29t24.5 -40t8 -54q0 -70 -42 -105t-112 -41l-10 -45q99 -5 99 -87q0 -49 -32 -74.5t-86 -25.5q-24 0 -49 4.5t-44 12.5l16 54q18 -6 37 -9t33 -3q29 0 41 9.5
t12 27.5t-12.5 27.5t-41.5 10.5q-11 0 -22 -0.5t-22 -1.5l-7 7l22 93q-30 3 -59.5 10t-52.5 16l7 76q29 -13 65.5 -21.5t64.5 -8.5q48 0 76 14t28 53q0 16 -4 27t-13.5 19.5t-25 15t-39.5 13.5l-32 10q-26 7 -50 18.5t-42 29t-28.5 42t-10.5 58.5t13.5 61t38 45t58 27.5
t72.5 9.5q31 0 63.5 -5.5t59.5 -15.5z" />
    <glyph glyph-name="scommaaccent" unicode="&#x219;" horiz-adv-x="411" 
d="M339 403q-23 10 -52.5 16t-54.5 6q-53 0 -76 -18t-23 -47q0 -33 23 -47t60 -26l32 -10q32 -10 56.5 -22t41 -29t24.5 -40t8 -54q0 -39 -13.5 -67t-38.5 -46t-59 -26.5t-76 -8.5q-37 0 -76.5 8t-68.5 20l7 76q29 -13 65.5 -21.5t64.5 -8.5q48 0 76 14t28 53q0 16 -4 27
t-13.5 19.5t-25 15t-39.5 13.5l-32 10q-26 7 -50 18.5t-42 29t-28.5 42t-10.5 58.5t13.5 61t38 45t58 27.5t72.5 9.5q31 0 63.5 -5.5t59.5 -15.5zM157 -124q0 54 54 54q53 0 53 -59q0 -29 -11.5 -70.5t-36.5 -93.5l-47 18q20 45 28 86q-17 5 -28.5 17.5t-11.5 37.5v10z" />
    <glyph glyph-name="germandbls" unicode="&#xdf;" horiz-adv-x="541" 
d="M152 -151h-90v825q42 14 88 21.5t93 7.5q44 0 83 -10.5t68 -32t46 -54.5t17 -79q0 -24 -6 -48t-17.5 -45t-28.5 -37t-39 -24v-3q33 -8 58 -25.5t41 -41t24 -50t8 -53.5q0 -107 -64 -161t-172 -54q-25 0 -47 3l3 79q11 -2 19 -2h16q74 0 112 33t38 100q0 65 -44 96.5
t-113 31.5v74q57 2 88 30.5t31 86.5q0 55 -34.5 80t-87.5 25q-50 0 -90 -14v-759z" />
    <glyph glyph-name="tcaron" unicode="&#x165;" horiz-adv-x="335" 
d="M182 630v-145h119l-5 -74h-114v-254q0 -30 4 -49.5t13 -30.5t23.5 -15t35.5 -4q11 0 23.5 1t20.5 3l2 -72q-14 -3 -31.5 -4.5t-26.5 -1.5q-45 0 -75 10t-48 30.5t-25 51.5t-7 72v263h-72v74h72v132zM234 688q0 54 54 54q53 0 53 -59q0 -29 -11.5 -70.5t-36.5 -93.5
l-47 18q20 45 28 86q-17 5 -28.5 17.5t-11.5 37.5v10z" />
    <glyph glyph-name="tcommaaccent" unicode="&#x163;" horiz-adv-x="335" 
d="M182 630v-145h119l-5 -74h-114v-254q0 -30 4 -49.5t13 -30.5t23.5 -15t35.5 -4q11 0 23.5 1t20.5 3l2 -72q-14 -3 -31.5 -4.5t-26.5 -1.5q-45 0 -75 10t-48 30.5t-25 51.5t-7 72v263h-72v74h72v132zM144 -124q0 54 54 54q53 0 53 -59q0 -29 -11.5 -70.5t-36.5 -93.5
l-47 18q20 45 28 86q-17 5 -28.5 17.5t-11.5 37.5v10z" />
    <glyph glyph-name="uni021B" unicode="&#x21b;" horiz-adv-x="335" 
d="M182 630v-145h119l-5 -74h-114v-254q0 -30 4 -49.5t13 -30.5t23.5 -15t35.5 -4q11 0 23.5 1t20.5 3l2 -72q-14 -3 -31.5 -4.5t-26.5 -1.5q-45 0 -75 10t-48 30.5t-25 51.5t-7 72v263h-72v74h72v132zM144 -124q0 54 54 54q53 0 53 -59q0 -29 -11.5 -70.5t-36.5 -93.5
l-47 18q20 45 28 86q-17 5 -28.5 17.5t-11.5 37.5v10z" />
    <glyph glyph-name="tbar" unicode="&#x167;" horiz-adv-x="335" 
d="M182 630v-145h119l-5 -74h-114v-128h104l-5 -73h-99v-33q0 -38 4.5 -61.5t15 -36.5t26.5 -17t40 -4q7 0 16 1t18 3l5 -72q-14 -3 -33 -4.5t-28 -1.5q-45 0 -75 11t-48 32.5t-25 53.5t-7 73v56h-72v73h72v128h-72v74h72v132z" />
    <glyph glyph-name="ugrave" unicode="&#xf9;" horiz-adv-x="518" 
d="M149 485v-273q0 -39 2 -60t8 -38q11 -30 38 -41.5t62 -11.5t62 11.5t38 41.5q6 17 8 38t2 60v273h91v-285q0 -59 -10.5 -100.5t-34.5 -67t-62.5 -37t-93.5 -11.5t-93.5 11.5t-62.5 37t-34.5 67t-10.5 100.5v285h91zM374 603l-35 -59l-217 111l48 75z" />
    <glyph glyph-name="uacute" unicode="&#xfa;" horiz-adv-x="518" 
d="M149 485v-273q0 -39 2 -60t8 -38q11 -30 38 -41.5t62 -11.5t62 11.5t38 41.5q6 17 8 38t2 60v273h91v-285q0 -59 -10.5 -100.5t-34.5 -67t-62.5 -37t-93.5 -11.5t-93.5 11.5t-62.5 37t-34.5 67t-10.5 100.5v285h91zM364 730l49 -75l-217 -111l-34 59z" />
    <glyph glyph-name="ucircumflex" unicode="&#xfb;" horiz-adv-x="518" 
d="M149 485v-273q0 -39 2 -60t8 -38q11 -30 38 -41.5t62 -11.5t62 11.5t38 41.5q6 17 8 38t2 60v273h91v-285q0 -59 -10.5 -100.5t-34.5 -67t-62.5 -37t-93.5 -11.5t-93.5 11.5t-62.5 37t-34.5 67t-10.5 100.5v285h91zM291 734l125 -130l-50 -43l-101 95h-6l-102 -95l-50 43
l126 130h58z" />
    <glyph glyph-name="utilde" unicode="&#x169;" horiz-adv-x="518" 
d="M149 485v-273q0 -39 2 -60t8 -38q11 -30 38 -41.5t62 -11.5t62 11.5t38 41.5q6 17 8 38t2 60v273h91v-285q0 -59 -10.5 -100.5t-34.5 -67t-62.5 -37t-93.5 -11.5t-93.5 11.5t-62.5 37t-34.5 67t-10.5 100.5v285h91zM90 624q20 44 51 65t60 21q20 0 33.5 -4.5t29.5 -15.5
l14 -11q13 -10 23 -15.5t24 -5.5q17 0 30 11.5t23 31.5l46 -46q-14 -32 -41 -52.5t-59 -20.5q-40 0 -69 22l-15 11q-9 7 -18 11t-20 4q-32 0 -60 -50z" />
    <glyph glyph-name="udieresis" unicode="&#xfc;" horiz-adv-x="518" 
d="M149 485v-273q0 -39 2 -60t8 -38q11 -30 38 -41.5t62 -11.5t62 11.5t38 41.5q6 17 8 38t2 60v273h91v-285q0 -59 -10.5 -100.5t-34.5 -67t-62.5 -37t-93.5 -11.5t-93.5 11.5t-62.5 37t-34.5 67t-10.5 100.5v285h91zM289 644q0 58 55 58q56 0 56 -58v-6q0 -57 -56 -57
q-55 0 -55 57v6zM118 644q0 58 55 58q57 0 57 -58v-6q0 -57 -57 -57q-55 0 -55 57v6z" />
    <glyph glyph-name="umacron" unicode="&#x16b;" horiz-adv-x="518" 
d="M149 485v-273q0 -39 2 -60t8 -38q11 -30 38 -41.5t62 -11.5t62 11.5t38 41.5q6 17 8 38t2 60v273h91v-285q0 -59 -10.5 -100.5t-34.5 -67t-62.5 -37t-93.5 -11.5t-93.5 11.5t-62.5 37t-34.5 67t-10.5 100.5v285h91zM396 663v-69h-274v69h274z" />
    <glyph glyph-name="ubreve" unicode="&#x16d;" horiz-adv-x="518" 
d="M149 485v-273q0 -39 2 -60t8 -38q11 -30 38 -41.5t62 -11.5t62 11.5t38 41.5q6 17 8 38t2 60v273h91v-285q0 -59 -10.5 -100.5t-34.5 -67t-62.5 -37t-93.5 -11.5t-93.5 11.5t-62.5 37t-34.5 67t-10.5 100.5v285h91zM178 707q12 -29 32 -47t49 -18q28 0 49 18t32 47
l65 -24q-15 -50 -53 -80t-93 -30q-56 0 -92.5 30t-53.5 80z" />
    <glyph glyph-name="uring" unicode="&#x16f;" horiz-adv-x="518" 
d="M149 485v-273q0 -39 2 -60t8 -38q11 -30 38 -41.5t62 -11.5t62 11.5t38 41.5q6 17 8 38t2 60v273h91v-285q0 -59 -10.5 -100.5t-34.5 -67t-62.5 -37t-93.5 -11.5t-93.5 11.5t-62.5 37t-34.5 67t-10.5 100.5v285h91zM162 661q0 40 28 68t69 28t68.5 -28t27.5 -68
q0 -42 -28 -69.5t-68 -27.5q-42 0 -69.5 27.5t-27.5 69.5zM221 661q0 -17 10 -28.5t28 -11.5q17 0 27 11.5t10 28.5q0 16 -10 27t-27 11q-18 0 -28 -11t-10 -27z" />
    <glyph glyph-name="uhungarumlaut" unicode="&#x171;" horiz-adv-x="518" 
d="M149 485v-273q0 -39 2 -60t8 -38q11 -30 38 -41.5t62 -11.5t62 11.5t38 41.5q6 17 8 38t2 60v273h91v-285q0 -59 -10.5 -100.5t-34.5 -67t-62.5 -37t-93.5 -11.5t-93.5 11.5t-62.5 37t-34.5 67t-10.5 100.5v285h91zM327 701l-152 -163l-53 42l135 170zM499 701l-152 -163
l-54 42l136 170z" />
    <glyph glyph-name="uogonek" unicode="&#x173;" horiz-adv-x="519" 
d="M149 485v-273q0 -39 2 -60t8 -38q11 -30 38 -41.5t62 -11.5t62 11.5t38 41.5q6 17 8 38t2 60v273h91v-285q0 -42 -5 -73.5t-16 -55.5t-28.5 -41t-43.5 -29q-54 -26 -82.5 -62t-28.5 -69q0 -44 45 -44q11 0 23.5 2.5t23.5 7.5l12 -55q-36 -19 -80 -19q-51 0 -79 23t-28 67
q0 37 23 73.5t61 58.5q-55 0 -93 12t-61.5 37.5t-34 66.5t-10.5 100v285h91z" />
    <glyph glyph-name="wgrave" unicode="&#x1e81;" horiz-adv-x="698" 
d="M110 485q8 -35 20.5 -82.5t26.5 -98.5t28 -100.5t26 -89.5q10 32 22.5 76.5t26 95t26 102t23.5 97.5h80q10 -46 23 -97t26.5 -100.5t26 -94.5t22.5 -79q7 19 16 49t19 65t20 73t18.5 73t16 64t11.5 47h95q-13 -51 -32.5 -116.5t-41 -133t-42.5 -129.5t-37 -106h-85
q-13 42 -26 89t-26 92.5t-24 88t-20 77.5q-8 -35 -19.5 -77.5t-24.5 -88t-26.5 -92.5t-26.5 -89h-84q-17 44 -38 106t-42.5 129.5t-40.5 133t-32 116.5h95zM441 603l-35 -59l-217 111l48 75z" />
    <glyph glyph-name="wacute" unicode="&#x1e83;" horiz-adv-x="698" 
d="M110 485q8 -35 20.5 -82.5t26.5 -98.5t28 -100.5t26 -89.5q10 32 22.5 76.5t26 95t26 102t23.5 97.5h80q10 -46 23 -97t26.5 -100.5t26 -94.5t22.5 -79q7 19 16 49t19 65t20 73t18.5 73t16 64t11.5 47h95q-13 -51 -32.5 -116.5t-41 -133t-42.5 -129.5t-37 -106h-85
q-13 42 -26 89t-26 92.5t-24 88t-20 77.5q-8 -35 -19.5 -77.5t-24.5 -88t-26.5 -92.5t-26.5 -89h-84q-17 44 -38 106t-42.5 129.5t-40.5 133t-32 116.5h95zM458 730l49 -75l-217 -111l-34 59z" />
    <glyph glyph-name="wcircumflex" unicode="&#x175;" horiz-adv-x="698" 
d="M110 485q8 -35 20.5 -82.5t26.5 -98.5t28 -100.5t26 -89.5q10 32 22.5 76.5t26 95t26 102t23.5 97.5h80q10 -46 23 -97t26.5 -100.5t26 -94.5t22.5 -79q7 19 16 49t19 65t20 73t18.5 73t16 64t11.5 47h95q-13 -51 -32.5 -116.5t-41 -133t-42.5 -129.5t-37 -106h-85
q-13 42 -26 89t-26 92.5t-24 88t-20 77.5q-8 -35 -19.5 -77.5t-24.5 -88t-26.5 -92.5t-26.5 -89h-84q-17 44 -38 106t-42.5 129.5t-40.5 133t-32 116.5h95zM379 734l125 -130l-50 -43l-101 95h-6l-102 -95l-50 43l126 130h58z" />
    <glyph glyph-name="wdieresis" unicode="&#x1e85;" horiz-adv-x="698" 
d="M110 485q8 -35 20.5 -82.5t26.5 -98.5t28 -100.5t26 -89.5q10 32 22.5 76.5t26 95t26 102t23.5 97.5h80q10 -46 23 -97t26.5 -100.5t26 -94.5t22.5 -79q7 19 16 49t19 65t20 73t18.5 73t16 64t11.5 47h95q-13 -51 -32.5 -116.5t-41 -133t-42.5 -129.5t-37 -106h-85
q-13 42 -26 89t-26 92.5t-24 88t-20 77.5q-8 -35 -19.5 -77.5t-24.5 -88t-26.5 -92.5t-26.5 -89h-84q-17 44 -38 106t-42.5 129.5t-40.5 133t-32 116.5h95zM380 644q0 58 55 58q56 0 56 -58v-6q0 -57 -56 -57q-55 0 -55 57v6zM209 644q0 58 55 58q57 0 57 -58v-6
q0 -57 -57 -57q-55 0 -55 57v6z" />
    <glyph glyph-name="ygrave" unicode="&#x1ef3;" horiz-adv-x="450" 
d="M190 -16q-26 49 -51.5 110t-48.5 127t-43 133.5t-36 130.5h96q27 -114 59 -215.5t63 -181.5h5q15 41 30.5 92t30 104t27.5 105t22 96h95q-17 -66 -36.5 -134.5t-39.5 -133.5t-41 -123t-41 -103q-28 -63 -53 -102.5t-49 -61.5t-48.5 -29.5t-51.5 -7.5q-16 0 -36 1.5
t-32 4.5l5 75q11 -3 22.5 -4.5t19.5 -1.5q46 0 70 24q18 18 33 40.5t29 54.5zM342 603l-35 -59l-217 111l48 75z" />
    <glyph glyph-name="yacute" unicode="&#xfd;" horiz-adv-x="450" 
d="M190 -16q-26 49 -51.5 110t-48.5 127t-43 133.5t-36 130.5h96q27 -114 59 -215.5t63 -181.5h5q15 41 30.5 92t30 104t27.5 105t22 96h95q-17 -66 -36.5 -134.5t-39.5 -133.5t-41 -123t-41 -103q-28 -63 -53 -102.5t-49 -61.5t-48.5 -29.5t-51.5 -7.5q-16 0 -36 1.5
t-32 4.5l5 75q11 -3 22.5 -4.5t19.5 -1.5q46 0 70 24q18 18 33 40.5t29 54.5zM350 730l49 -75l-217 -111l-34 59z" />
    <glyph glyph-name="ycircumflex" unicode="&#x177;" horiz-adv-x="450" 
d="M190 -16q-26 49 -51.5 110t-48.5 127t-43 133.5t-36 130.5h96q27 -114 59 -215.5t63 -181.5h5q15 41 30.5 92t30 104t27.5 105t22 96h95q-17 -66 -36.5 -134.5t-39.5 -133.5t-41 -123t-41 -103q-28 -63 -53 -102.5t-49 -61.5t-48.5 -29.5t-51.5 -7.5q-16 0 -36 1.5
t-32 4.5l5 75q11 -3 22.5 -4.5t19.5 -1.5q46 0 70 24q18 18 33 40.5t29 54.5zM257 734l125 -130l-50 -43l-101 95h-6l-102 -95l-50 43l126 130h58z" />
    <glyph glyph-name="ydieresis" unicode="&#xff;" horiz-adv-x="450" 
d="M190 -16q-26 49 -51.5 110t-48.5 127t-43 133.5t-36 130.5h96q27 -114 59 -215.5t63 -181.5h5q15 41 30.5 92t30 104t27.5 105t22 96h95q-17 -66 -36.5 -134.5t-39.5 -133.5t-41 -123t-41 -103q-28 -63 -53 -102.5t-49 -61.5t-48.5 -29.5t-51.5 -7.5q-16 0 -36 1.5
t-32 4.5l5 75q11 -3 22.5 -4.5t19.5 -1.5q46 0 70 24q18 18 33 40.5t29 54.5zM258 644q0 58 55 58q56 0 56 -58v-6q0 -57 -56 -57q-55 0 -55 57v6zM87 644q0 58 55 58q57 0 57 -58v-6q0 -57 -57 -57q-55 0 -55 57v6z" />
    <glyph glyph-name="zacute" unicode="&#x17a;" horiz-adv-x="439" 
d="M403 485v-62l-256 -344h251l-10 -79h-348l-7 61l254 344h-234v80h350zM350 730l49 -75l-217 -111l-34 59z" />
    <glyph glyph-name="zcaron" unicode="&#x17e;" horiz-adv-x="439" 
d="M403 485v-62l-256 -344h251l-10 -79h-348l-7 61l254 344h-234v80h350zM137 740l101 -95h6l101 95l50 -44l-125 -130h-58l-126 130z" />
    <glyph glyph-name="zdotaccent" unicode="&#x17c;" horiz-adv-x="439" 
d="M403 485v-62l-256 -344h251l-10 -79h-348l-7 61l254 344h-234v80h350zM244 714q26 0 44 -19t18 -46q0 -28 -18.5 -46.5t-45.5 -18.5q-26 0 -44 18.5t-18 46.5q0 27 18.5 46t45.5 19z" />
    <glyph glyph-name="apple" unicode="&#xf8ff;" horiz-adv-x="591" 
d="M490 526v-64h-195v-64h195v-196h-261v64h196v67h-196v193h261zM490 656v-64h-324v-527h72v-65h-137v656h389z" />
    </font>
</defs>
</svg>
